<svg width="40" height="40" viewBox="0 0 40 40" fill="none" xmlns="http://www.w3.org/2000/svg">
<path d="M12.4935 36.215C27.0855 36.215 35.0652 23.7395 35.0652 12.9212C35.0652 12.5669 35.0582 12.2141 35.0428 11.863C36.5918 10.7074 37.9381 9.26525 39 7.62359C37.5786 8.27562 36.0489 8.71455 34.4443 8.91248C36.0821 7.89892 37.3396 6.2956 37.9328 4.38427C36.4 5.322 34.7026 6.00356 32.8953 6.37152C31.4477 4.78022 29.3867 3.78491 27.1046 3.78491C22.7236 3.78491 19.171 7.45132 19.171 11.9707C19.171 12.6131 19.2406 13.238 19.3767 13.8374C12.7834 13.4951 6.93689 10.2373 3.02408 5.28369C2.34278 6.49356 1.94993 7.89896 1.94993 9.39855C1.94993 12.2389 3.35048 14.7464 5.48023 16.2133C4.17868 16.1718 2.95603 15.8031 1.88739 15.1893C1.88622 15.2237 1.88622 15.2572 1.88622 15.2939C1.88622 19.2588 4.62075 22.5691 8.25069 23.3193C7.58408 23.5068 6.88272 23.6074 6.15883 23.6074C5.64844 23.6074 5.15117 23.5555 4.66784 23.4597C5.67781 26.7126 8.60647 29.0798 12.0786 29.1459C9.36344 31.3422 5.94305 32.6503 2.22565 32.6503C1.58611 32.6503 0.954298 32.6128 0.333344 32.537C3.84431 34.8594 8.01325 36.2145 12.494 36.2145" fill="white"/>
</svg>
