<svg width="40" height="40" viewBox="0 0 40 40" fill="none" xmlns="http://www.w3.org/2000/svg">
<g clip-path="url(#clip0_1056_3772)">
<g clip-path="url(#clip1_1056_3772)">
<path fill-rule="evenodd" clip-rule="evenodd" d="M40.3334 20C40.3334 31.0457 31.379 40 20.3334 40C9.28766 40 0.333355 31.0457 0.333355 20C0.333355 8.95431 9.28766 0 20.3334 0C31.379 0 40.3334 8.95431 40.3334 20ZM21.0501 14.7649C19.1048 15.574 15.2169 17.2487 9.38651 19.7889C8.43974 20.1654 7.94378 20.5337 7.89863 20.8938C7.82233 21.5025 8.58454 21.7422 9.62248 22.0686C9.76366 22.1129 9.90995 22.1589 10.0599 22.2077C11.0811 22.5396 12.4547 22.928 13.1688 22.9434C13.8166 22.9574 14.5396 22.6903 15.3378 22.1422C20.7853 18.465 23.5973 16.6064 23.7739 16.5663C23.8984 16.538 24.071 16.5025 24.188 16.6064C24.3049 16.7104 24.2934 16.9072 24.281 16.96C24.2055 17.2819 21.2135 20.0635 19.6652 21.503C19.1825 21.9517 18.8401 22.27 18.7702 22.3427C18.6134 22.5056 18.4536 22.6596 18.3 22.8077C17.3513 23.7222 16.6399 24.408 18.3394 25.528C19.1561 26.0662 19.8096 26.5112 20.4616 26.9552C21.1736 27.4401 21.8838 27.9238 22.8027 28.5261C23.0368 28.6796 23.2604 28.839 23.4782 28.9942C24.3068 29.585 25.0513 30.1157 25.971 30.0311C26.5054 29.9819 27.0575 29.4794 27.3378 27.9806C28.0004 24.4386 29.3027 16.7641 29.6037 13.6016C29.6301 13.3246 29.5969 12.97 29.5703 12.8143C29.5436 12.6586 29.488 12.4368 29.2856 12.2727C29.046 12.0782 28.6761 12.0372 28.5106 12.0401C27.7584 12.0534 26.6043 12.4547 21.0501 14.7649Z" fill="white"/>
</g>
</g>
<defs>
<clipPath id="clip0_1056_3772">
<rect width="40" height="40" fill="white"/>
</clipPath>
<clipPath id="clip1_1056_3772">
<rect width="40" height="40" fill="white" transform="translate(0.333355)"/>
</clipPath>
</defs>
</svg>
