<svg width="41" height="40" viewBox="0 0 41 40" fill="none" xmlns="http://www.w3.org/2000/svg">
<mask id="path-1-outside-1_501_1170" maskUnits="userSpaceOnUse" x="6.66663" y="5" width="28" height="30" fill="black">
<rect fill="white" x="6.66663" y="5" width="28" height="30"/>
<path fill-rule="evenodd" clip-rule="evenodd" d="M9.66663 7C9.11434 7 8.66663 7.44772 8.66663 8V11C8.66663 11.5523 9.11434 12 9.66663 12L11.6666 12V27.8181C11.6666 28.6177 12.1429 29.3405 12.8776 29.6559L19.8776 32.6612C20.3814 32.8775 20.9519 32.8775 21.4556 32.6612L28.4556 29.6559C29.1904 29.3405 29.6666 28.6177 29.6666 27.8181V12H31.6666C32.2189 12 32.6666 11.5523 32.6666 11V8C32.6666 7.44772 32.2189 7 31.6666 7H9.66663Z"/>
</mask>
<path fill-rule="evenodd" clip-rule="evenodd" d="M9.66663 7C9.11434 7 8.66663 7.44772 8.66663 8V11C8.66663 11.5523 9.11434 12 9.66663 12L11.6666 12V27.8181C11.6666 28.6177 12.1429 29.3405 12.8776 29.6559L19.8776 32.6612C20.3814 32.8775 20.9519 32.8775 21.4556 32.6612L28.4556 29.6559C29.1904 29.3405 29.6666 28.6177 29.6666 27.8181V12H31.6666C32.2189 12 32.6666 11.5523 32.6666 11V8C32.6666 7.44772 32.2189 7 31.6666 7H9.66663Z" fill="url(#paint0_linear_501_1170)"/>
<path d="M9.66663 12L9.66663 10H9.66663V12ZM11.6666 12H13.6666C13.6666 10.8954 12.7712 10 11.6666 10L11.6666 12ZM12.8776 29.6559L12.0886 31.4937H12.0886L12.8776 29.6559ZM19.8776 32.6612L19.0886 34.499L19.0886 34.499L19.8776 32.6612ZM21.4556 32.6612L22.2447 34.499L22.2447 34.499L21.4556 32.6612ZM28.4556 29.6559L29.2447 31.4937H29.2447L28.4556 29.6559ZM29.6666 12V10C28.5621 10 27.6666 10.8954 27.6666 12H29.6666ZM10.6666 8C10.6666 8.55228 10.2189 9 9.66663 9V5C8.00977 5 6.66663 6.34315 6.66663 8H10.6666ZM10.6666 11V8H6.66663V11H10.6666ZM9.66663 10C10.2189 10 10.6666 10.4477 10.6666 11H6.66663C6.66663 12.6569 8.00977 14 9.66663 14V10ZM11.6666 10L9.66663 10L9.66663 14L11.6666 14L11.6666 10ZM13.6666 27.8181V12H9.66663V27.8181H13.6666ZM13.6666 27.8181L13.6666 27.8181H9.66663C9.66663 29.4173 10.6191 30.8628 12.0886 31.4937L13.6666 27.8181ZM20.6666 30.8235L13.6666 27.8181L12.0886 31.4937L19.0886 34.499L20.6666 30.8235ZM20.6666 30.8235H20.6666L19.0886 34.499C20.0961 34.9316 21.2371 34.9316 22.2447 34.499L20.6666 30.8235ZM27.6666 27.8181L20.6666 30.8235L22.2447 34.499L29.2447 31.4937L27.6666 27.8181ZM27.6666 27.8181L27.6666 27.8181L29.2447 31.4937C30.7141 30.8628 31.6666 29.4173 31.6666 27.8181H27.6666ZM27.6666 12V27.8181H31.6666V12H27.6666ZM31.6666 10H29.6666V14H31.6666V10ZM30.6666 11C30.6666 10.4477 31.1143 10 31.6666 10V14C33.3235 14 34.6666 12.6569 34.6666 11H30.6666ZM30.6666 8V11H34.6666V8H30.6666ZM31.6666 9C31.1143 9 30.6666 8.55229 30.6666 8H34.6666C34.6666 6.34315 33.3235 5 31.6666 5V9ZM9.66663 9H31.6666V5H9.66663V9Z" fill="url(#paint1_linear_501_1170)" mask="url(#path-1-outside-1_501_1170)"/>
<path d="M20.6666 24V16" stroke="white" stroke-width="2" stroke-linecap="round" stroke-linejoin="round"/>
<defs>
<linearGradient id="paint0_linear_501_1170" x1="20.6666" y1="7" x2="20.6666" y2="32.8235" gradientUnits="userSpaceOnUse">
<stop stop-color="#05FF5A"/>
<stop offset="1" stop-color="#00CB51"/>
</linearGradient>
<linearGradient id="paint1_linear_501_1170" x1="11.9489" y1="8.2963" x2="11.9489" y2="10.8889" gradientUnits="userSpaceOnUse">
<stop stop-color="#00E65C"/>
<stop offset="1" stop-color="#01D052"/>
</linearGradient>
</defs>
</svg>
