<svg width="40" height="40" viewBox="0 0 40 40" fill="none" xmlns="http://www.w3.org/2000/svg">
<path d="M23.75 16.875H28.75" stroke="#4DDA36" stroke-width="3" stroke-linecap="round" stroke-linejoin="round"/>
<path d="M11.25 16.875H16.25" stroke="#4DDA36" stroke-width="3" stroke-linecap="round" stroke-linejoin="round"/>
<path d="M13.75 14.375V19.375" stroke="#4DDA36" stroke-width="3" stroke-linecap="round" stroke-linejoin="round"/>
<path d="M26.8781 8.70898L13.1259 8.74964C11.2156 8.74978 9.36644 9.4228 7.90296 10.6506C6.43948 11.8783 5.45524 13.5823 5.123 15.4635L5.12434 15.4637L2.5674 28.6142C2.40589 29.5305 2.5407 30.4745 2.95225 31.3089C3.36379 32.1434 4.03064 32.8249 4.85594 33.2546C5.68124 33.6842 6.62201 33.8396 7.54163 33.6981C8.46124 33.5566 9.3118 33.1256 9.96978 32.4678L9.96953 32.4675L16.7251 24.9996L26.8781 24.959C29.0329 24.959 31.0996 24.103 32.6233 22.5792C34.147 21.0555 35.0031 18.9889 35.0031 16.834C35.0031 14.6791 34.147 12.6125 32.6233 11.0887C31.0996 9.56501 29.0329 8.70898 26.8781 8.70898V8.70898Z" stroke="#4DDA36" stroke-width="3" stroke-linecap="round" stroke-linejoin="round"/>
<path d="M34.8794 15.4238L37.4343 28.6149C37.5958 29.5312 37.461 30.4752 37.0494 31.3097C36.6379 32.1441 35.971 32.8257 35.1457 33.2553C34.3204 33.685 33.3796 33.8403 32.46 33.6988C31.5404 33.5573 30.6899 33.1264 30.0319 32.4685L30.0321 32.4682L23.2812 24.9741" stroke="#4DDA36" stroke-width="3" stroke-linecap="round" stroke-linejoin="round"/>
</svg>
