<svg width="20" height="21" viewBox="0 0 20 21" fill="none" xmlns="http://www.w3.org/2000/svg">
<path d="M15.625 17.5234H4.37439C4.20863 17.5234 4.04966 17.4576 3.93245 17.3404C3.81524 17.2232 3.74939 17.0642 3.74939 16.8984V3.14844C3.74939 2.98268 3.81524 2.82371 3.93245 2.7065C4.04966 2.58929 4.20863 2.52344 4.37439 2.52344H11.875L16.25 6.89844V16.8984C16.25 16.9805 16.2338 17.0618 16.2024 17.1376C16.171 17.2134 16.125 17.2823 16.0669 17.3404C16.0089 17.3984 15.94 17.4445 15.8642 17.4759C15.7883 17.5073 15.7071 17.5234 15.625 17.5234Z" stroke="white" stroke-linecap="round" stroke-linejoin="round"/>
<path d="M11.875 2.52344V6.89844H16.2506" stroke="white" stroke-linecap="round" stroke-linejoin="round"/>
<path d="M7.5 10.6484H12.5" stroke="white" stroke-linecap="round" stroke-linejoin="round"/>
<path d="M7.5 13.1484H12.5" stroke="white" stroke-linecap="round" stroke-linejoin="round"/>
</svg>
