<svg width="40" height="40" viewBox="0 0 40 40" fill="none" xmlns="http://www.w3.org/2000/svg">
<mask id="path-1-outside-1_501_94" maskUnits="userSpaceOnUse" x="0.5" y="6.75" width="39" height="27" fill="black">
<rect fill="white" x="0.5" y="6.75" width="39" height="27"/>
<path fill-rule="evenodd" clip-rule="evenodd" d="M8.75 8.75H12.5C13.1904 8.75 13.75 9.30964 13.75 10V16.5H26.25V10C26.25 9.30964 26.8096 8.75 27.5 8.75H31.25C31.9404 8.75 32.5 9.30964 32.5 10V12.5H36.25C36.5815 12.5 36.8995 12.6317 37.1339 12.8661C37.3683 13.1005 37.5 13.4185 37.5 13.75V26.25C37.5 26.5815 37.3683 26.8995 37.1339 27.1339C36.8995 27.3683 36.5815 27.5 36.25 27.5H32.5V30C32.5 30.6904 31.9404 31.25 31.25 31.25H27.5C26.8096 31.25 26.25 30.6904 26.25 30V24.5H13.75V30C13.75 30.6904 13.1904 31.25 12.5 31.25H8.75C8.05964 31.25 7.5 30.6904 7.5 30V27.5H3.75C3.41848 27.5 3.10054 27.3683 2.86612 27.1339C2.6317 26.8995 2.5 26.5815 2.5 26.25V13.75C2.5 13.4185 2.6317 13.1005 2.86612 12.8661C3.10054 12.6317 3.41848 12.5 3.75 12.5H7.5V10C7.5 9.30964 8.05964 8.75 8.75 8.75Z"/>
</mask>
<path fill-rule="evenodd" clip-rule="evenodd" d="M8.75 8.75H12.5C13.1904 8.75 13.75 9.30964 13.75 10V16.5H26.25V10C26.25 9.30964 26.8096 8.75 27.5 8.75H31.25C31.9404 8.75 32.5 9.30964 32.5 10V12.5H36.25C36.5815 12.5 36.8995 12.6317 37.1339 12.8661C37.3683 13.1005 37.5 13.4185 37.5 13.75V26.25C37.5 26.5815 37.3683 26.8995 37.1339 27.1339C36.8995 27.3683 36.5815 27.5 36.25 27.5H32.5V30C32.5 30.6904 31.9404 31.25 31.25 31.25H27.5C26.8096 31.25 26.25 30.6904 26.25 30V24.5H13.75V30C13.75 30.6904 13.1904 31.25 12.5 31.25H8.75C8.05964 31.25 7.5 30.6904 7.5 30V27.5H3.75C3.41848 27.5 3.10054 27.3683 2.86612 27.1339C2.6317 26.8995 2.5 26.5815 2.5 26.25V13.75C2.5 13.4185 2.6317 13.1005 2.86612 12.8661C3.10054 12.6317 3.41848 12.5 3.75 12.5H7.5V10C7.5 9.30964 8.05964 8.75 8.75 8.75Z" fill="url(#paint0_linear_501_94)"/>
<path d="M13.75 16.5H11.75C11.75 17.6046 12.6454 18.5 13.75 18.5V16.5ZM26.25 16.5V18.5C27.3546 18.5 28.25 17.6046 28.25 16.5H26.25ZM32.5 12.5H30.5C30.5 13.6046 31.3954 14.5 32.5 14.5V12.5ZM37.1339 12.8661L38.5481 11.4519L38.5481 11.4519L37.1339 12.8661ZM32.5 27.5V25.5C31.3954 25.5 30.5 26.3954 30.5 27.5H32.5ZM26.25 24.5H28.25C28.25 23.3954 27.3546 22.5 26.25 22.5V24.5ZM13.75 24.5V22.5C12.6454 22.5 11.75 23.3954 11.75 24.5H13.75ZM7.5 27.5H9.5C9.5 26.3954 8.60457 25.5 7.5 25.5V27.5ZM2.86612 27.1339L1.4519 28.5481H1.4519L2.86612 27.1339ZM2.86612 12.8661L1.4519 11.4519L1.4519 11.4519L2.86612 12.8661ZM7.5 12.5V14.5C8.60457 14.5 9.5 13.6046 9.5 12.5H7.5ZM12.5 6.75H8.75V10.75H12.5V6.75ZM15.75 10C15.75 8.20507 14.2949 6.75 12.5 6.75V10.75C12.0858 10.75 11.75 10.4142 11.75 10H15.75ZM15.75 16.5V10H11.75V16.5H15.75ZM13.75 18.5H26.25V14.5H13.75V18.5ZM24.25 10V16.5H28.25V10H24.25ZM27.5 6.75C25.7051 6.75 24.25 8.20507 24.25 10H28.25C28.25 10.4142 27.9142 10.75 27.5 10.75V6.75ZM31.25 6.75H27.5V10.75H31.25V6.75ZM34.5 10C34.5 8.20507 33.0449 6.75 31.25 6.75V10.75C30.8358 10.75 30.5 10.4142 30.5 10H34.5ZM34.5 12.5V10H30.5V12.5H34.5ZM36.25 10.5H32.5V14.5H36.25V10.5ZM38.5481 11.4519C37.9386 10.8424 37.112 10.5 36.25 10.5V14.5C36.0511 14.5 35.8603 14.421 35.7197 14.2803L38.5481 11.4519ZM39.5 13.75C39.5 12.8881 39.1576 12.0614 38.5481 11.4519L35.7197 14.2803C35.579 14.1397 35.5 13.9489 35.5 13.75H39.5ZM39.5 26.25V13.75H35.5V26.25H39.5ZM38.5481 28.5481C39.1576 27.9386 39.5 27.1119 39.5 26.25H35.5C35.5 26.0511 35.579 25.8603 35.7197 25.7197L38.5481 28.5481ZM36.25 29.5C37.1119 29.5 37.9386 29.1576 38.5481 28.5481L35.7197 25.7197C35.8603 25.579 36.0511 25.5 36.25 25.5V29.5ZM32.5 29.5H36.25V25.5H32.5V29.5ZM34.5 30V27.5H30.5V30H34.5ZM31.25 33.25C33.0449 33.25 34.5 31.7949 34.5 30H30.5C30.5 29.5858 30.8358 29.25 31.25 29.25V33.25ZM27.5 33.25H31.25V29.25H27.5V33.25ZM24.25 30C24.25 31.7949 25.7051 33.25 27.5 33.25V29.25C27.9142 29.25 28.25 29.5858 28.25 30H24.25ZM24.25 24.5V30H28.25V24.5H24.25ZM26.25 22.5H13.75V26.5H26.25V22.5ZM15.75 30V24.5H11.75V30H15.75ZM12.5 33.25C14.2949 33.25 15.75 31.7949 15.75 30H11.75C11.75 29.5858 12.0858 29.25 12.5 29.25V33.25ZM8.75 33.25H12.5V29.25H8.75V33.25ZM5.5 30C5.5 31.7949 6.95507 33.25 8.75 33.25V29.25C9.16421 29.25 9.5 29.5858 9.5 30H5.5ZM5.5 27.5V30H9.5V27.5H5.5ZM3.75 29.5H7.5V25.5H3.75V29.5ZM1.4519 28.5481C2.0614 29.1576 2.88805 29.5 3.75 29.5V25.5C3.94891 25.5 4.13967 25.579 4.28033 25.7197L1.4519 28.5481ZM0.5 26.25C0.5 27.112 0.842409 27.9386 1.4519 28.5481L4.28033 25.7197C4.42098 25.8603 4.5 26.0511 4.5 26.25H0.5ZM0.5 13.75V26.25H4.5V13.75H0.5ZM1.4519 11.4519C0.84241 12.0614 0.5 12.888 0.5 13.75H4.5C4.5 13.9489 4.42098 14.1397 4.28033 14.2803L1.4519 11.4519ZM3.75 10.5C2.88805 10.5 2.0614 10.8424 1.4519 11.4519L4.28033 14.2803C4.13968 14.421 3.94891 14.5 3.75 14.5V10.5ZM7.5 10.5H3.75V14.5H7.5V10.5ZM5.5 10V12.5H9.5V10H5.5ZM8.75 6.75C6.95507 6.75 5.5 8.20507 5.5 10H9.5C9.5 10.4142 9.16421 10.75 8.75 10.75V6.75Z" fill="url(#paint1_linear_501_94)" mask="url(#path-1-outside-1_501_94)"/>
<path d="M16 20.5H24" stroke="white" stroke-width="3" stroke-linecap="round" stroke-linejoin="round"/>
<defs>
<linearGradient id="paint0_linear_501_94" x1="20" y1="8.75" x2="20" y2="31.25" gradientUnits="userSpaceOnUse">
<stop stop-color="#05FF5A"/>
<stop offset="1" stop-color="#00CB51"/>
</linearGradient>
<linearGradient id="paint1_linear_501_94" x1="23.3333" y1="18.583" x2="23.3333" y2="22.583" gradientUnits="userSpaceOnUse">
<stop stop-color="#00E65C"/>
<stop offset="1" stop-color="#01D052"/>
</linearGradient>
</defs>
</svg>
