<svg width="41" height="41" viewBox="0 0 41 41" fill="none" xmlns="http://www.w3.org/2000/svg">
<mask id="path-1-outside-1_1358_5038" maskUnits="userSpaceOnUse" x="7.5" y="5.21289" width="26" height="30" fill="black">
<rect fill="white" x="7.5" y="5.21289" width="26" height="30"/>
<path fill-rule="evenodd" clip-rule="evenodd" d="M9.5 9.21289C10.5 8.21289 12.5 7.21289 16.5 7.21289C18.5 7.21289 20.25 7.96289 22 8.71289C23.75 9.46289 25.5 10.2129 27.5 10.2129C30.5 10.2129 31.5 9.21289 31.5 9.21289V23.2129C31.5 23.2129 30.5 24.2129 27.5 24.2129C25.5 24.2129 23.75 23.4629 22 22.7129C20.25 21.9629 18.5 21.2129 16.5 21.2129C14.8496 21.2129 13.5397 21.3831 12.5 21.6534V33.2129H9.5V23.2129V21.2129V9.21289Z"/>
</mask>
<path fill-rule="evenodd" clip-rule="evenodd" d="M9.5 9.21289C10.5 8.21289 12.5 7.21289 16.5 7.21289C18.5 7.21289 20.25 7.96289 22 8.71289C23.75 9.46289 25.5 10.2129 27.5 10.2129C30.5 10.2129 31.5 9.21289 31.5 9.21289V23.2129C31.5 23.2129 30.5 24.2129 27.5 24.2129C25.5 24.2129 23.75 23.4629 22 22.7129C20.25 21.9629 18.5 21.2129 16.5 21.2129C14.8496 21.2129 13.5397 21.3831 12.5 21.6534V33.2129H9.5V23.2129V21.2129V9.21289Z" fill="url(#paint0_linear_1358_5038)"/>
<path d="M9.5 9.21289L8.08579 7.79868C7.71071 8.17375 7.5 8.68246 7.5 9.21289H9.5ZM31.5 9.21289H33.5C33.5 8.40397 33.0127 7.67469 32.2654 7.36513C31.518 7.05557 30.6578 7.22668 30.0858 7.79868L31.5 9.21289ZM31.5 23.2129L32.9142 24.6271C33.2893 24.252 33.5 23.7433 33.5 23.2129H31.5ZM12.5 21.6534L11.9969 19.7177C11.1154 19.9468 10.5 20.7426 10.5 21.6534H12.5ZM12.5 33.2129V35.2129C13.6046 35.2129 14.5 34.3175 14.5 33.2129H12.5ZM9.5 33.2129H7.5C7.5 34.3175 8.39543 35.2129 9.5 35.2129V33.2129ZM16.5 5.21289C12.1917 5.21289 9.59315 6.29132 8.08579 7.79868L10.9142 10.6271C11.4069 10.1345 12.8083 9.21289 16.5 9.21289V5.21289ZM22.7878 6.8746C21.0939 6.14865 18.9742 5.21289 16.5 5.21289V9.21289C18.0258 9.21289 19.4061 9.77714 21.2122 10.5512L22.7878 6.8746ZM27.5 8.21289C25.9742 8.21289 24.5939 7.64865 22.7878 6.8746L21.2122 10.5512C22.9061 11.2771 25.0258 12.2129 27.5 12.2129V8.21289ZM31.5 9.21289C30.0858 7.79868 30.0868 7.79764 30.0878 7.79662C30.0882 7.79628 30.0892 7.79526 30.0899 7.79458C30.0913 7.79323 30.0926 7.7919 30.0939 7.79058C30.0966 7.78795 30.0992 7.78537 30.1018 7.78286C30.1069 7.77784 30.1119 7.77307 30.1166 7.76854C30.1261 7.75949 30.1348 7.7514 30.1427 7.74424C30.1585 7.72991 30.1709 7.71931 30.1798 7.712C30.1976 7.69733 30.2008 7.69616 30.1875 7.70504C30.1616 7.72232 30.0656 7.78258 29.8822 7.85594C29.519 8.00124 28.7746 8.21289 27.5 8.21289V12.2129C29.2254 12.2129 30.481 11.9245 31.3678 11.5698C31.8094 11.3932 32.1509 11.2035 32.4063 11.0332C32.5336 10.9484 32.6384 10.8691 32.7226 10.7997C32.7647 10.7651 32.8015 10.733 32.8334 10.704C32.8493 10.6895 32.864 10.6758 32.8775 10.663C32.8842 10.6566 32.8906 10.6503 32.8967 10.6444C32.8998 10.6414 32.9028 10.6384 32.9057 10.6356C32.9072 10.6341 32.9086 10.6327 32.91 10.6313C32.9107 10.6306 32.9118 10.6295 32.9121 10.6292C32.9132 10.6281 32.9142 10.6271 31.5 9.21289ZM33.5 23.2129V9.21289H29.5V23.2129H33.5ZM27.5 26.2129C29.2254 26.2129 30.481 25.9245 31.3678 25.5698C31.8094 25.3932 32.1509 25.2035 32.4063 25.0332C32.5336 24.9484 32.6384 24.8691 32.7226 24.7997C32.7647 24.7651 32.8015 24.733 32.8334 24.704C32.8493 24.6895 32.864 24.6758 32.8775 24.663C32.8842 24.6566 32.8906 24.6503 32.8967 24.6444C32.8998 24.6414 32.9028 24.6384 32.9057 24.6356C32.9072 24.6341 32.9086 24.6327 32.91 24.6313C32.9107 24.6306 32.9118 24.6295 32.9121 24.6292C32.9132 24.6281 32.9142 24.6271 31.5 23.2129C30.0858 21.7987 30.0868 21.7976 30.0878 21.7966C30.0882 21.7963 30.0892 21.7953 30.0899 21.7946C30.0913 21.7932 30.0926 21.7919 30.0939 21.7906C30.0966 21.7879 30.0992 21.7854 30.1018 21.7829C30.1069 21.7778 30.1119 21.7731 30.1166 21.7685C30.1261 21.7595 30.1348 21.7514 30.1427 21.7442C30.1585 21.7299 30.1709 21.7193 30.1798 21.712C30.1976 21.6973 30.2008 21.6962 30.1875 21.705C30.1616 21.7223 30.0656 21.7826 29.8822 21.8559C29.519 22.0012 28.7746 22.2129 27.5 22.2129V26.2129ZM21.2122 24.5512C22.9061 25.2771 25.0258 26.2129 27.5 26.2129V22.2129C25.9742 22.2129 24.5939 21.6486 22.7878 20.8746L21.2122 24.5512ZM16.5 23.2129C18.0258 23.2129 19.4061 23.7771 21.2122 24.5512L22.7878 20.8746C21.0939 20.1486 18.9742 19.2129 16.5 19.2129V23.2129ZM13.0031 23.589C13.8473 23.3696 14.9837 23.2129 16.5 23.2129V19.2129C14.7155 19.2129 13.2321 19.3966 11.9969 19.7177L13.0031 23.589ZM10.5 21.6534V33.2129H14.5V21.6534H10.5ZM12.5 31.2129H9.5V35.2129H12.5V31.2129ZM11.5 33.2129V23.2129H7.5V33.2129H11.5ZM11.5 23.2129V21.2129H7.5V23.2129H11.5ZM7.5 9.21289V21.2129H11.5V9.21289H7.5Z" fill="url(#paint1_linear_1358_5038)" mask="url(#path-1-outside-1_1358_5038)"/>
<path d="M18.5 15.2129C21.2692 15.2129 22.1923 17.2129 24.5 17.2129" stroke="white" stroke-width="2" stroke-linecap="round" stroke-linejoin="round"/>
<defs>
<linearGradient id="paint0_linear_1358_5038" x1="20.5" y1="7.21289" x2="20.5" y2="33.2129" gradientUnits="userSpaceOnUse">
<stop stop-color="#58EE3F"/>
<stop offset="1" stop-color="#4DDA36"/>
</linearGradient>
<linearGradient id="paint1_linear_1358_5038" x1="9.5" y1="4.71289" x2="9.5" y2="32.7129" gradientUnits="userSpaceOnUse">
<stop stop-color="#00E65C"/>
<stop offset="1" stop-color="#01D052"/>
</linearGradient>
</defs>
</svg>
