<svg width="40" height="40" viewBox="0 0 40 40" fill="none" xmlns="http://www.w3.org/2000/svg">
<mask id="path-1-outside-1_501_249" maskUnits="userSpaceOnUse" x="3.68243" y="5" width="32" height="31" fill="black">
<rect fill="white" x="3.68243" y="5" width="32" height="31"/>
<path fill-rule="evenodd" clip-rule="evenodd" d="M23 23.6057C29.1622 21.998 34.7223 15.6113 33 7H6.99998C5.27771 15.6113 10.8378 21.9981 17 23.6057V28.9999H23V23.6057ZM13 31C13 30.4477 13.4477 30 14 30H26C26.5523 30 27 30.4477 27 31V33C27 33.5522 26.5523 34 26 34H14C13.4477 34 13 33.5522 13 33V31Z"/>
</mask>
<path fill-rule="evenodd" clip-rule="evenodd" d="M23 23.6057C29.1622 21.998 34.7223 15.6113 33 7H6.99998C5.27771 15.6113 10.8378 21.9981 17 23.6057V28.9999H23V23.6057ZM13 31C13 30.4477 13.4477 30 14 30H26C26.5523 30 27 30.4477 27 31V33C27 33.5522 26.5523 34 26 34H14C13.4477 34 13 33.5522 13 33V31Z" fill="url(#paint0_linear_501_249)"/>
<path d="M23 23.6057L22.4951 21.6705C21.6144 21.9003 21 22.6956 21 23.6057H23ZM33 7L34.9611 6.60777C34.7742 5.67292 33.9533 5 33 5V7ZM6.99998 7V5C6.04661 5 5.22578 5.67292 5.03881 6.60777L6.99998 7ZM17 23.6057H19C19 22.6956 18.3855 21.9003 17.5049 21.6705L17 23.6057ZM17 28.9999H15C15 30.1045 15.8954 30.9999 17 30.9999V28.9999ZM23 28.9999V30.9999C24.1045 30.9999 25 30.1045 25 28.9999H23ZM23.5049 25.541C30.5629 23.6996 36.9165 16.3846 34.9611 6.60777L31.0388 7.39223C32.528 14.838 27.7615 20.2965 22.4951 21.6705L23.5049 25.541ZM33 5H6.99998V9H33V5ZM5.03881 6.60777C3.08345 16.3847 9.4371 23.6996 16.4951 25.541L17.5049 21.6705C12.2384 20.2965 7.47198 14.838 8.96114 7.39223L5.03881 6.60777ZM19 28.9999V23.6057H15V28.9999H19ZM23 26.9999H17V30.9999H23V26.9999ZM21 23.6057V28.9999H25V23.6057H21ZM14 28C12.3431 28 11 29.3431 11 31H15C15 31.5522 14.5523 32 14 32V28ZM26 28H14V32H26V28ZM29 31C29 29.3431 27.6568 28 26 28V32C25.4477 32 25 31.5522 25 31H29ZM29 33V31H25V33H29ZM26 36C27.6568 36 29 34.6568 29 33H25C25 32.4477 25.4477 32 26 32V36ZM14 36H26V32H14V36ZM11 33C11 34.6568 12.3431 36 14 36V32C14.5523 32 15 32.4477 15 33H11ZM11 31V33H15V31H11Z" fill="url(#paint1_linear_501_249)" mask="url(#path-1-outside-1_501_249)"/>
<path d="M17 13H23" stroke="white" stroke-width="2" stroke-linecap="round" stroke-linejoin="round"/>
<defs>
<linearGradient id="paint0_linear_501_249" x1="20" y1="7" x2="20" y2="34" gradientUnits="userSpaceOnUse">
<stop stop-color="#05FF5A"/>
<stop offset="1" stop-color="#00CB51"/>
</linearGradient>
<linearGradient id="paint1_linear_501_249" x1="10.3251" y1="12" x2="10.3251" y2="22" gradientUnits="userSpaceOnUse">
<stop stop-color="#00E65C"/>
<stop offset="1" stop-color="#01D052"/>
</linearGradient>
</defs>
</svg>
