<svg width="41" height="41" viewBox="0 0 41 41" fill="none" xmlns="http://www.w3.org/2000/svg">
<path d="M5.37915 27.9002L6.07607 28.5971L5.37915 27.9002C4.81655 28.4628 4.50049 29.2258 4.50049 30.0215V33.443C4.50049 35.0999 5.84363 36.443 7.50049 36.443H10.7505C11.8551 36.443 12.7505 35.5476 12.7505 34.443V32.693H14.5005C15.6051 32.693 16.5005 31.7976 16.5005 30.693V28.943H18.8363C19.3667 28.943 19.8754 28.7324 20.2505 28.3573L21.0816 27.5262C21.3503 27.2576 21.8058 27.1364 22.2982 27.2694C24.5367 27.8742 26.9117 27.8331 29.1437 27.1352C31.835 26.2936 34.1532 24.5486 35.7064 22.1951C37.2596 19.8416 37.9526 17.024 37.6682 14.2185C37.3838 11.4131 36.1395 8.79187 34.1456 6.79795C32.1517 4.80403 29.5305 3.55971 26.725 3.27532C23.9196 2.99093 21.102 3.6839 18.7485 5.23712C16.395 6.79033 14.65 9.10852 13.8084 11.7998C13.1104 14.0318 13.0693 16.4068 13.6741 18.6453C13.8071 19.1377 13.686 19.5932 13.4173 19.8619L5.37915 27.9002Z" fill="url(#paint0_linear_1358_5049)" stroke="url(#paint1_linear_1358_5049)" stroke-width="2" stroke-linecap="round" stroke-linejoin="round"/>
<path d="M27.5 13.2129L23.5 17.2129" stroke="white" stroke-width="2.36364" stroke-linecap="round" stroke-linejoin="round"/>
<defs>
<linearGradient id="paint0_linear_1358_5049" x1="21.1156" y1="4.21289" x2="21.1156" y2="35.443" gradientUnits="userSpaceOnUse">
<stop stop-color="#58EE3F"/>
<stop offset="1" stop-color="#4DDA36"/>
</linearGradient>
<linearGradient id="paint1_linear_1358_5049" x1="8.62566" y1="9.99626" x2="8.62566" y2="21.563" gradientUnits="userSpaceOnUse">
<stop stop-color="#00E65C"/>
<stop offset="1" stop-color="#01D052"/>
</linearGradient>
</defs>
</svg>
