<svg width="40" height="40" viewBox="0 0 40 40" fill="none" xmlns="http://www.w3.org/2000/svg">
<path d="M15.3229 6.77487C15.1289 6.47608 14.8104 6.28069 14.4561 6.24316C14.1012 6.20556 13.7483 6.33036 13.4959 6.58273L4.78563 15.293C4.3241 15.7546 4.3241 16.5028 4.78563 16.9644L20.2706 32.4494C23.1524 35.3311 26.3925 35.4724 28.8328 34.8955C30.0357 34.6111 31.052 34.154 31.7641 33.7722C32.1221 33.5803 32.4084 33.4046 32.6089 33.2742C32.7093 33.2089 32.7885 33.1547 32.8449 33.1152C32.8731 33.0955 32.8955 33.0794 32.9121 33.0673L32.9325 33.0524L32.9394 33.0474L32.9419 33.0455L32.943 33.0447C32.9435 33.0443 32.9439 33.044 32.2361 32.0976L32.9439 33.044C33.4233 32.6855 33.5589 32.0252 33.2597 31.5068C33.2597 31.5068 33.2596 31.5068 33.2596 31.5067L33.2594 31.5063L33.258 31.5039L33.2519 31.4932L33.2268 31.4494C33.2044 31.4103 33.1712 31.3519 33.1282 31.2759C33.0422 31.1238 32.9174 30.9012 32.7635 30.622C32.4555 30.0631 32.0322 29.2788 31.5712 28.3786C30.6412 26.5624 29.5887 24.3331 29.0048 22.5379C27.736 18.6362 27.6057 16.5833 27.3597 12.7043C27.296 11.7008 27.2246 10.575 27.1237 9.26338C27.0883 8.8032 26.7882 8.40574 26.3554 8.24561C25.9225 8.08548 25.436 8.192 25.1097 8.51835C23.6933 9.93468 22.4311 10.4415 21.3802 10.5276C20.3132 10.6151 19.304 10.2818 18.3875 9.73185C17.4674 9.17979 16.6961 8.44123 16.1455 7.82094C15.8733 7.51427 15.6624 7.24492 15.5216 7.05523C15.4514 6.96059 15.399 6.88637 15.3656 6.83797C15.3489 6.81379 15.337 6.7961 15.33 6.7856L15.3232 6.77533M15.3229 6.77487C15.3229 6.77495 15.323 6.77503 15.323 6.77511M15.3229 6.77487L15.3226 6.77444M15.3229 6.77487L15.323 6.77502L15.323 6.77511M15.323 6.77511C15.3231 6.77528 15.3232 6.77545 15.3233 6.77561C15.3233 6.77561 15.3233 6.77561 15.3233 6.77561L15.3232 6.77533M15.323 6.77511L15.3232 6.77533M15.3232 6.77533C15.3229 6.77487 15.3227 6.77457 15.3226 6.77444M15.3226 6.77444L15.3225 6.7744L15.3226 6.77444Z" fill="url(#paint0_linear_1036_2759)" stroke="url(#paint1_linear_1036_2759)" stroke-width="2.36364" stroke-linecap="round" stroke-linejoin="round"/>
<path d="M23.7301 24.026L22 18" stroke="white" stroke-width="2.36364" stroke-linecap="round" stroke-linejoin="round"/>
<defs>
<linearGradient id="paint0_linear_1036_2759" x1="29.8166" y1="13.2253" x2="16.2672" y2="26.7746" gradientUnits="userSpaceOnUse">
<stop stop-color="#05FF5A"/>
<stop offset="1" stop-color="#00CB51"/>
</linearGradient>
<linearGradient id="paint1_linear_1036_2759" x1="19.1506" y1="6.8607" x2="14.8492" y2="11.1621" gradientUnits="userSpaceOnUse">
<stop stop-color="#00E65C"/>
<stop offset="1" stop-color="#01D052"/>
</linearGradient>
</defs>
</svg>
