<svg width="40" height="40" viewBox="0 0 40 40" fill="none" xmlns="http://www.w3.org/2000/svg">
<path d="M34.9557 19.0974L34.9555 19.0988L32.9225 32.5972L34.9557 19.0974ZM34.9557 19.0974C35.0408 18.5266 35.003 17.9438 34.8448 17.3891C34.6866 16.8342 34.4114 16.3198 34.0373 15.8817C33.6631 15.4436 33.1986 15.0923 32.6754 14.8532C32.154 14.615 31.5873 14.4942 31.0146 14.4999H24.6805C24.1283 14.4999 23.6805 14.0522 23.6805 13.4999V9.49997C23.6805 8.04701 23.1138 6.65003 22.0993 5.61726C21.4662 4.97275 20.6909 4.50297 19.8465 4.24072C18.4284 3.80036 17.2609 4.79006 16.8201 5.79971L11.9742 16.9C11.8151 17.2644 11.4553 17.4999 11.0577 17.4999H7.94676C6.89418 17.4999 5.8884 17.9258 5.14968 18.6778C4.41155 19.4293 4 20.4448 4 21.4999V31.9998C4 33.055 4.41155 34.0704 5.14968 34.8219L5.85974 34.1244M34.9557 19.0974L5.85974 34.1244M5.85974 34.1244L5.14968 34.8219C5.8884 35.574 6.89418 35.9998 7.94676 35.9998H12.3669H28.9813C29.9361 36.0093 30.8596 35.6677 31.5827 35.042C32.3066 34.4156 32.7805 33.5473 32.9222 32.5988L5.85974 34.1244Z" fill="url(#paint0_linear_501_259)" stroke="url(#paint1_linear_501_259)" stroke-width="2" stroke-linecap="round" stroke-linejoin="round"/>
<path d="M11 23V31" stroke="white" stroke-width="2" stroke-linecap="round" stroke-linejoin="round"/>
<defs>
<linearGradient id="paint0_linear_501_259" x1="19.5" y1="5" x2="19.5" y2="35" gradientUnits="userSpaceOnUse">
<stop stop-color="#05FF5A"/>
<stop offset="1" stop-color="#00CB51"/>
</linearGradient>
<linearGradient id="paint1_linear_501_259" x1="19.5" y1="5" x2="19.5" y2="35" gradientUnits="userSpaceOnUse">
<stop stop-color="#00E65C"/>
<stop offset="1" stop-color="#01D052"/>
</linearGradient>
</defs>
</svg>
