<svg width="40" height="40" viewBox="0 0 40 40" fill="none" xmlns="http://www.w3.org/2000/svg">
<mask id="path-1-outside-1_1036_2748" maskUnits="userSpaceOnUse" x="2" y="4.5" width="37" height="28" fill="black">
<rect fill="white" x="2" y="4.5" width="37" height="28"/>
<path fill-rule="evenodd" clip-rule="evenodd" d="M22.7942 7.5L15 12L17.2141 15.8349L10 20L12.2141 23.8349L5 28L6.1547 30H35.7846L22.7942 7.5Z"/>
</mask>
<path fill-rule="evenodd" clip-rule="evenodd" d="M22.7942 7.5L15 12L17.2141 15.8349L10 20L12.2141 23.8349L5 28L6.1547 30H35.7846L22.7942 7.5Z" fill="url(#paint0_linear_1036_2748)"/>
<path d="M15 12L13.8182 9.95303C13.2753 10.2665 12.8791 10.7827 12.7169 11.3882C12.5547 11.9938 12.6396 12.6389 12.953 13.1818L15 12ZM22.7942 7.5L24.8412 6.31818C24.5278 5.77529 24.0115 5.37915 23.406 5.2169C22.8005 5.05466 22.1553 5.13959 21.6124 5.45303L22.7942 7.5ZM17.2141 15.8349L18.3959 17.8819C18.9388 17.5685 19.335 17.0522 19.4972 16.4467C19.6594 15.8412 19.5745 15.196 19.2611 14.6531L17.2141 15.8349ZM10 20L8.81818 17.953C8.27529 18.2665 7.87915 18.7827 7.7169 19.3882C7.55466 19.9938 7.63959 20.6389 7.95303 21.1818L10 20ZM12.2141 23.8349L13.3959 25.8819C13.9388 25.5685 14.335 25.0522 14.4972 24.4467C14.6594 23.8412 14.5745 23.196 14.2611 22.6531L12.2141 23.8349ZM5 28L3.81818 25.953C3.27529 26.2665 2.87915 26.7827 2.7169 27.3882C2.55466 27.9938 2.63959 28.6389 2.95303 29.1818L5 28ZM6.1547 30L4.10773 31.1818C4.52995 31.9131 5.31025 32.3636 6.1547 32.3636V30ZM35.7846 30V32.3636C36.6291 32.3636 37.4094 31.9131 37.8316 31.1818C38.2538 30.4505 38.2538 29.5495 37.8316 28.8182L35.7846 30ZM16.1818 14.047L23.976 9.54697L21.6124 5.45303L13.8182 9.95303L16.1818 14.047ZM19.2611 14.6531L17.047 10.8182L12.953 13.1818L15.1671 17.0168L19.2611 14.6531ZM11.1818 22.047L18.3959 17.8819L16.0323 13.788L8.81818 17.953L11.1818 22.047ZM14.2611 22.6531L12.047 18.8182L7.95303 21.1818L10.1671 25.0168L14.2611 22.6531ZM6.18182 30.047L13.3959 25.8819L11.0323 21.788L3.81818 25.953L6.18182 30.047ZM8.20167 28.8182L7.04697 26.8182L2.95303 29.1818L4.10773 31.1818L8.20167 28.8182ZM6.1547 32.3636H35.7846V27.6364H6.1547V32.3636ZM20.7473 8.68182L33.7376 31.1818L37.8316 28.8182L24.8412 6.31818L20.7473 8.68182Z" fill="url(#paint1_linear_1036_2748)" mask="url(#path-1-outside-1_1036_2748)"/>
<path d="M21.75 25.75L19 21" stroke="white" stroke-width="2" stroke-linecap="round" stroke-linejoin="round"/>
<defs>
<linearGradient id="paint0_linear_1036_2748" x1="20.3923" y1="7.5" x2="20.3923" y2="30" gradientUnits="userSpaceOnUse">
<stop stop-color="#05FF5A"/>
<stop offset="1" stop-color="#00CB51"/>
</linearGradient>
<linearGradient id="paint1_linear_1036_2748" x1="7.60539" y1="14.0159" x2="7.60539" y2="20.0476" gradientUnits="userSpaceOnUse">
<stop stop-color="#00E65C"/>
<stop offset="1" stop-color="#01D052"/>
</linearGradient>
</defs>
</svg>
