<svg width="41" height="41" viewBox="0 0 41 41" fill="none" xmlns="http://www.w3.org/2000/svg">
<mask id="path-1-outside-1_1358_5053" maskUnits="userSpaceOnUse" x="5.99902" y="2.71289" width="29" height="36" fill="black">
<rect fill="white" x="5.99902" y="2.71289" width="29" height="36"/>
<path fill-rule="evenodd" clip-rule="evenodd" d="M28.5 26.8172C31.2494 24.5242 32.999 21.0729 32.999 17.2129C32.999 10.3093 27.4026 4.71289 20.499 4.71289C13.5955 4.71289 7.99902 10.3093 7.99902 17.2129C7.99902 21.0738 9.74945 24.5259 12.5 26.8188V36.2129L20.4988 32.602L28.5 36.2129V26.8172Z"/>
</mask>
<path fill-rule="evenodd" clip-rule="evenodd" d="M28.5 26.8172C31.2494 24.5242 32.999 21.0729 32.999 17.2129C32.999 10.3093 27.4026 4.71289 20.499 4.71289C13.5955 4.71289 7.99902 10.3093 7.99902 17.2129C7.99902 21.0738 9.74945 24.5259 12.5 26.8188V36.2129L20.4988 32.602L28.5 36.2129V26.8172Z" fill="url(#paint0_linear_1358_5053)"/>
<path d="M28.5 26.8172L27.2191 25.2812C26.7634 25.6612 26.5 26.2239 26.5 26.8172H28.5ZM12.5 26.8188H14.5C14.5 26.2254 14.2365 25.6626 13.7806 25.2826L12.5 26.8188ZM12.5 36.2129H10.5C10.5 36.892 10.8446 37.5247 11.4151 37.893C11.9855 38.2614 12.704 38.3152 13.3229 38.0358L12.5 36.2129ZM20.4988 32.602L21.3215 30.779C20.7984 30.5429 20.199 30.543 19.6759 30.7791L20.4988 32.602ZM28.5 36.2129L27.6773 38.0358C28.2962 38.3152 29.0146 38.2614 29.585 37.893C30.1555 37.5246 30.5 36.8919 30.5 36.2129H28.5ZM29.7809 28.3531C32.9665 25.6965 34.999 21.6911 34.999 17.2129H30.999C30.999 20.4546 29.5324 23.352 27.2191 25.2812L29.7809 28.3531ZM34.999 17.2129C34.999 9.20476 28.5072 2.71289 20.499 2.71289V6.71289C26.298 6.71289 30.999 11.4139 30.999 17.2129H34.999ZM20.499 2.71289C12.4909 2.71289 5.99902 9.20476 5.99902 17.2129H9.99902C9.99902 11.4139 14.7 6.71289 20.499 6.71289V2.71289ZM5.99902 17.2129C5.99902 21.6922 8.03251 25.6984 11.2194 28.355L13.7806 25.2826C11.4664 23.3534 9.99902 20.4554 9.99902 17.2129H5.99902ZM14.5 36.2129V26.8188H10.5V36.2129H14.5ZM19.6759 30.7791L11.6771 34.39L13.3229 38.0358L21.3217 34.4249L19.6759 30.7791ZM29.3227 34.3899L21.3215 30.779L19.6761 34.4249L27.6773 38.0358L29.3227 34.3899ZM26.5 26.8172V36.2129H30.5V26.8172H26.5Z" fill="url(#paint1_linear_1358_5053)" mask="url(#path-1-outside-1_1358_5053)"/>
<path d="M26.5 17.2129C26.5 13.8992 23.8137 11.2129 20.5 11.2129" stroke="white" stroke-width="2" stroke-linecap="round" stroke-linejoin="round"/>
<defs>
<linearGradient id="paint0_linear_1358_5053" x1="20.499" y1="4.71289" x2="20.499" y2="36.2129" gradientUnits="userSpaceOnUse">
<stop stop-color="#58EE3F"/>
<stop offset="1" stop-color="#4DDA36"/>
</linearGradient>
<linearGradient id="paint1_linear_1358_5053" x1="10.5007" y1="11.1944" x2="10.5007" y2="24.1574" gradientUnits="userSpaceOnUse">
<stop stop-color="#00E65C"/>
<stop offset="1" stop-color="#01D052"/>
</linearGradient>
</defs>
</svg>
