<svg width="40" height="40" viewBox="0 0 40 40" fill="none" xmlns="http://www.w3.org/2000/svg">
<path d="M24.9468 5.78782L25.7918 5.25305C25.307 4.48706 24.6364 3.85612 23.8423 3.41891L23.36 4.29492L23.8423 3.41891C23.0482 2.98171 22.1565 2.75244 21.25 2.75244C20.3435 2.75244 19.4517 2.98171 18.6576 3.41891L19.1381 4.29172L18.6576 3.41891C17.8635 3.85612 17.1929 4.48706 16.7081 5.25305C16.2233 6.01904 15.9402 6.89519 15.8849 7.80001C15.8653 8.12178 15.7396 8.46403 15.5547 8.70569C15.3733 8.94271 15.2086 9.0001 15.0942 9.00009L10 9.00004C9.70454 9.00003 9.41195 9.05823 9.13896 9.1713C8.86597 9.28437 8.61793 9.45011 8.40899 9.65904C8.20006 9.86798 8.03432 10.116 7.92125 10.389C7.80817 10.662 7.74998 10.9546 7.74998 11.2501L7.75004 15.7193C7.75004 15.8337 7.69265 15.9984 7.45563 16.1798C7.21397 16.3647 6.87172 16.4904 6.54995 16.51C5.64513 16.5652 4.76898 16.8484 4.00299 17.3332C3.23699 17.8179 2.60605 18.4886 2.16884 19.2827C1.73164 20.0768 1.50237 20.9685 1.50237 21.875C1.50237 22.7815 1.73164 23.6733 2.16884 24.4674C2.60605 25.2615 3.23699 25.9321 4.00299 26.4169C4.76898 26.9017 5.64513 27.1848 6.54995 27.2401C6.87171 27.2597 7.21397 27.3854 7.45563 27.5703C7.69265 27.7517 7.75004 27.9164 7.75003 28.0308L7.74998 32.5C7.74998 32.7955 7.80817 33.0881 7.92124 33.3611C8.03431 33.634 8.20005 33.8821 8.40898 34.091C8.61792 34.3 8.86596 34.4657 9.13893 34.5788C9.41191 34.6918 9.7045 34.75 9.99998 34.75L32.4999 34.75C33.0967 34.75 33.6689 34.513 34.0909 34.091C34.5129 33.6691 34.7499 33.0968 34.7499 32.5001L34.75 28.0308C34.75 27.1223 34.2483 26.4237 33.671 25.982C33.0983 25.5437 32.371 25.2864 31.6717 25.2438C31.1036 25.2091 30.5534 25.0313 30.0725 24.7269C29.5915 24.4225 29.1953 24.0014 28.9208 23.5028C28.6463 23.0042 28.5023 22.4442 28.5023 21.875C28.5023 21.3058 28.6463 20.7459 28.9208 20.2473C29.1953 19.7486 29.5915 19.3276 30.0725 19.0232C30.5534 18.7188 31.1036 18.541 31.6717 18.5063C32.371 18.4636 33.0983 18.2063 33.671 17.7681C34.2483 17.3263 34.75 16.6278 34.75 15.7193L34.7499 11.25C34.7499 10.6533 34.5128 10.081 34.0909 9.65903C33.6689 9.23708 33.0966 9.00003 32.4999 9.00004L27.4057 9.00009C27.2913 9.0001 27.1266 8.94271 26.9452 8.70569C26.7603 8.46403 26.6346 8.12178 26.615 7.80001C26.5597 6.89519 26.2766 6.01904 25.7918 5.25305L24.9468 5.78782Z" fill="url(#paint0_linear_501_187)" stroke="url(#paint1_linear_501_187)" stroke-width="2" stroke-linecap="round" stroke-linejoin="round"/>
<path d="M20 25.5L20 17.5" stroke="white" stroke-width="3" stroke-linecap="round" stroke-linejoin="round"/>
<defs>
<linearGradient id="paint0_linear_501_187" x1="18.1262" y1="3.75244" x2="18.1262" y2="33.75" gradientUnits="userSpaceOnUse">
<stop stop-color="#05FF5A"/>
<stop offset="1" stop-color="#00CB51"/>
</linearGradient>
<linearGradient id="paint1_linear_501_187" x1="18.1262" y1="3.75244" x2="18.1262" y2="33.75" gradientUnits="userSpaceOnUse">
<stop stop-color="#00E65C"/>
<stop offset="1" stop-color="#01D052"/>
</linearGradient>
</defs>
</svg>
