<svg width="40" height="40" viewBox="0 0 40 40" fill="none" xmlns="http://www.w3.org/2000/svg">
<mask id="path-1-outside-1_501_86" maskUnits="userSpaceOnUse" x="3" y="4.89832" width="36" height="32" fill="black">
<rect fill="white" x="3" y="4.89832" width="36" height="32"/>
<path fill-rule="evenodd" clip-rule="evenodd" d="M36 19.5C36.058 22.5 34.0832 25 30 25H29.5302L29.8206 25.7178L27.9302 33.2792C27.8816 33.4736 27.787 33.6534 27.6544 33.8035C27.5218 33.9537 27.3551 34.0697 27.1683 34.142C26.9814 34.2142 26.78 34.2405 26.5809 34.2186C26.3817 34.1967 26.1908 34.1272 26.0241 34.0161L24.3066 32.8711C24.1354 32.757 23.995 32.6023 23.8979 32.4209C23.8008 32.2394 23.75 32.0368 23.75 31.831V25.0868C23.7283 25.0934 23.7067 25.1004 23.6853 25.1077L6.32369 31.0473C5.67474 31.2693 5 30.787 5 30.1011V8.89911C5 8.21324 5.67474 7.73094 6.32369 7.95295L23.6853 13.8924C23.8937 13.9637 24.1124 14.0001 24.3326 14.0001H30C33.8513 14.0001 35.942 16.5 36 19.5Z"/>
</mask>
<path fill-rule="evenodd" clip-rule="evenodd" d="M36 19.5C36.058 22.5 34.0832 25 30 25H29.5302L29.8206 25.7178L27.9302 33.2792C27.8816 33.4736 27.787 33.6534 27.6544 33.8035C27.5218 33.9537 27.3551 34.0697 27.1683 34.142C26.9814 34.2142 26.78 34.2405 26.5809 34.2186C26.3817 34.1967 26.1908 34.1272 26.0241 34.0161L24.3066 32.8711C24.1354 32.757 23.995 32.6023 23.8979 32.4209C23.8008 32.2394 23.75 32.0368 23.75 31.831V25.0868C23.7283 25.0934 23.7067 25.1004 23.6853 25.1077L6.32369 31.0473C5.67474 31.2693 5 30.787 5 30.1011V8.89911C5 8.21324 5.67474 7.73094 6.32369 7.95295L23.6853 13.8924C23.8937 13.9637 24.1124 14.0001 24.3326 14.0001H30C33.8513 14.0001 35.942 16.5 36 19.5Z" fill="url(#paint0_linear_501_86)"/>
<path d="M28.8504 25.4752C28.7165 26.011 29.0422 26.554 29.578 26.6879C30.1138 26.8219 30.6568 26.4961 30.7907 25.9603L28.8504 25.4752ZM30.8599 24.8837C30.7957 24.3352 30.2989 23.9426 29.7504 24.0068C29.2018 24.0711 28.8092 24.5678 28.8735 25.1164L30.8599 24.8837ZM30.7907 25.9603C30.8793 25.6058 30.9018 25.241 30.8599 24.8837L28.8735 25.1164C28.8874 25.2355 28.88 25.3571 28.8504 25.4752L30.7907 25.9603ZM36 19.5L34.0004 19.5386L36 19.5ZM29.5302 25V23C28.8652 23 28.2436 23.3306 27.8719 23.882C27.5001 24.4335 27.4268 25.1336 27.6762 25.7501L29.5302 25ZM29.8206 25.7178L31.7608 26.2029C31.8635 25.7924 31.8333 25.36 31.6746 24.9677L29.8206 25.7178ZM27.9302 33.2792L29.8705 33.7643L29.8705 33.7643L27.9302 33.2792ZM27.6544 33.8035L26.1554 32.4796L26.1554 32.4796L27.6544 33.8035ZM27.1683 34.142L26.4471 32.2765L26.4471 32.2765L27.1683 34.142ZM26.0241 34.0161L27.1336 32.352L27.1335 32.352L26.0241 34.0161ZM24.3066 32.8711L23.1972 34.5352L23.1972 34.5352L24.3066 32.8711ZM23.8979 32.4209L25.6613 31.4772L25.6613 31.4771L23.8979 32.4209ZM23.75 25.0868H25.75C25.75 24.4531 25.4497 23.8569 24.9405 23.4797C24.4313 23.1025 23.7735 22.9889 23.1673 23.1735L23.75 25.0868ZM23.6853 25.1077L23.038 23.2154L23.0379 23.2154L23.6853 25.1077ZM6.32369 31.0473L6.97107 32.9396L6.97107 32.9396L6.32369 31.0473ZM6.32369 7.95295L6.97106 6.06062L6.32369 7.95295ZM23.6853 13.8924L23.0379 15.7848L23.0379 15.7848L23.6853 13.8924ZM30 27C32.4573 27 34.5227 26.2383 35.9694 24.787C37.4097 23.3421 38.0373 21.4122 37.9996 19.4614L34.0004 19.5386C34.0206 20.5878 33.6899 21.4079 33.1365 21.963C32.5895 22.5118 31.626 23 30 23V27ZM29.5302 27H30V23H29.5302V27ZM31.6746 24.9677L31.3842 24.25L27.6762 25.7501L27.9665 26.4678L31.6746 24.9677ZM29.8705 33.7643L31.7608 26.2029L27.8803 25.2327L25.9899 32.7942L29.8705 33.7643ZM29.1535 35.1274C29.4983 34.7371 29.7442 34.2695 29.8705 33.7643L25.9899 32.7941C26.0191 32.6776 26.0758 32.5697 26.1554 32.4796L29.1535 35.1274ZM27.8895 36.0074C28.3752 35.8196 28.8088 35.5178 29.1535 35.1274L26.1554 32.4796C26.2349 32.3895 26.335 32.3199 26.4471 32.2765L27.8895 36.0074ZM26.3622 36.2066C26.8799 36.2635 27.4037 36.1952 27.8895 36.0074L26.4471 32.2765C26.5592 32.2332 26.6801 32.2174 26.7995 32.2306L26.3622 36.2066ZM24.9147 35.6802C25.3481 35.9691 25.8445 36.1496 26.3622 36.2066L26.7995 32.2306C26.919 32.2437 27.0335 32.2854 27.1336 32.352L24.9147 35.6802ZM23.1972 34.5352L24.9147 35.6802L27.1335 32.352L25.416 31.207L23.1972 34.5352ZM22.1346 33.3646C22.387 33.8363 22.752 34.2384 23.1972 34.5352L25.416 31.207C25.5188 31.2755 25.603 31.3683 25.6613 31.4772L22.1346 33.3646ZM21.75 31.831C21.75 32.3661 21.8821 32.8929 22.1346 33.3646L25.6613 31.4771C25.7195 31.586 25.75 31.7076 25.75 31.831H21.75ZM21.75 25.0868V31.831H25.75V25.0868H21.75ZM24.3326 27.0001L24.3327 27L23.1673 23.1735C23.124 23.1868 23.0808 23.2007 23.038 23.2154L24.3326 27.0001ZM6.97107 32.9396L24.3326 27L23.0379 23.2154L5.67631 29.1549L6.97107 32.9396ZM3 30.1011C3 32.1587 5.02422 33.6056 6.97107 32.9396L5.67631 29.1549C6.32526 28.9329 7 29.4152 7 30.1011H3ZM3 8.89911V30.1011H7V8.89911H3ZM6.97106 6.06062C5.02421 5.39459 3 6.8415 3 8.89911H7C7 9.58498 6.32527 10.0673 5.67631 9.84528L6.97106 6.06062ZM24.3326 12.0001L6.97106 6.06062L5.67631 9.84528L23.0379 15.7848L24.3326 12.0001ZM24.3326 12.0001L24.3326 12.0001L23.0379 15.7848C23.4547 15.9273 23.8921 16.0001 24.3326 16.0001V12.0001ZM30 12.0001H24.3326V16.0001H30V12.0001ZM37.9996 19.4614C37.9619 17.5063 37.2548 15.613 35.8287 14.2029C34.3914 12.7817 32.3748 12.0001 30 12.0001V16.0001C31.4765 16.0001 32.431 16.4685 33.0163 17.0472C33.6129 17.6371 33.9802 18.4937 34.0004 19.5386L37.9996 19.4614Z" fill="url(#paint1_linear_501_86)" mask="url(#path-1-outside-1_501_86)"/>
<path d="M19 19.5L11 19.5" stroke="white" stroke-width="3" stroke-linecap="round" stroke-linejoin="round"/>
<defs>
<linearGradient id="paint0_linear_501_86" x1="20.5006" y1="7.89832" x2="20.5006" y2="34.2261" gradientUnits="userSpaceOnUse">
<stop stop-color="#05FF5A"/>
<stop offset="1" stop-color="#00CB51"/>
</linearGradient>
<linearGradient id="paint1_linear_501_86" x1="20.5006" y1="8.40527" x2="20.5006" y2="32.8504" gradientUnits="userSpaceOnUse">
<stop stop-color="#00E65C"/>
<stop offset="1" stop-color="#01D052"/>
</linearGradient>
</defs>
</svg>
