<svg width="40" height="40" viewBox="0 0 40 40" fill="none" xmlns="http://www.w3.org/2000/svg">
<mask id="path-1-outside-1_501_1150" maskUnits="userSpaceOnUse" x="5" y="8" width="31" height="25" fill="black">
<rect fill="white" x="5" y="8" width="31" height="25"/>
<path fill-rule="evenodd" clip-rule="evenodd" d="M34 31L25 10L17.3244 21.5135L13 18L7 31H11.0001L11 31H34Z"/>
</mask>
<path fill-rule="evenodd" clip-rule="evenodd" d="M34 31L25 10L17.3244 21.5135L13 18L7 31H11.0001L11 31H34Z" fill="url(#paint0_linear_501_1150)"/>
<path d="M25 10L26.8383 9.21216C26.5492 8.53754 25.9138 8.07548 25.1829 8.00838C24.452 7.94127 23.7431 8.2799 23.3359 8.8906L25 10ZM34 31V33C34.6723 33 35.2996 32.6622 35.6697 32.101C36.0398 31.5397 36.1032 30.8301 35.8383 30.2122L34 31ZM17.3244 21.5135L16.0632 23.0657C16.5003 23.4209 17.0669 23.5753 17.6237 23.491C18.1806 23.4067 18.6761 23.0915 18.9885 22.6229L17.3244 21.5135ZM13 18L14.2612 16.4477C13.7819 16.0583 13.1495 15.9121 12.5479 16.0517C11.9463 16.1914 11.4429 16.6011 11.1841 17.1618L13 18ZM7 31L5.18408 30.1618C4.89826 30.7811 4.94774 31.5034 5.31533 32.0779C5.68292 32.6524 6.31795 33 7 33V31ZM11.0001 31L12.6642 32.1094C13.0733 31.4956 13.1115 30.7066 12.7634 30.0562C12.4154 29.4059 11.7377 29 11.0001 29V31ZM11 31L9.33594 29.8906C8.9268 30.5043 8.88865 31.2934 9.23669 31.9437C9.58473 32.594 10.2624 33 11 33V31ZM23.1618 10.7878L32.1618 31.7878L35.8383 30.2122L26.8383 9.21216L23.1618 10.7878ZM18.9885 22.6229L26.6641 11.1094L23.3359 8.8906L15.6603 20.4041L18.9885 22.6229ZM11.7388 19.5522L16.0632 23.0657L18.5856 19.9613L14.2612 16.4477L11.7388 19.5522ZM8.81592 31.8381L14.8159 18.8381L11.1841 17.1618L5.18408 30.1618L8.81592 31.8381ZM11.0001 29H7V33H11.0001V29ZM12.6641 32.1094L12.6642 32.1094L9.33597 29.8906L9.33594 29.8906L12.6641 32.1094ZM34 29H11V33H34V29Z" fill="url(#paint1_linear_501_1150)" mask="url(#path-1-outside-1_501_1150)"/>
<path d="M17 26H24" stroke="white" stroke-width="2" stroke-linecap="round" stroke-linejoin="round"/>
<defs>
<linearGradient id="paint0_linear_501_1150" x1="20.5" y1="10" x2="20.5" y2="31" gradientUnits="userSpaceOnUse">
<stop stop-color="#05FF5A"/>
<stop offset="1" stop-color="#00CB51"/>
</linearGradient>
<linearGradient id="paint1_linear_501_1150" x1="13.9678" y1="16.7959" x2="13.9678" y2="31.4898" gradientUnits="userSpaceOnUse">
<stop stop-color="#00E65C"/>
<stop offset="1" stop-color="#01D052"/>
</linearGradient>
</defs>
</svg>
