<svg width="40" height="40" viewBox="0 0 40 40" fill="none" xmlns="http://www.w3.org/2000/svg">
<path d="M3.7621 31.1365L4.46921 31.8436L3.7621 31.1365C3.55316 31.3454 3.38743 31.5935 3.27436 31.8664C3.16129 32.1394 3.10309 32.432 3.10309 32.7275C3.10309 33.0229 3.16129 33.3155 3.27436 33.5885C3.38743 33.8615 3.55316 34.1095 3.7621 34.3185L5.68152 36.2379C5.89045 36.4468 6.13849 36.6126 6.41147 36.7256C6.68446 36.8387 6.97704 36.8969 7.27251 36.8969C7.56798 36.8969 7.86056 36.8387 8.13355 36.7256C8.40653 36.6126 8.65457 36.4468 8.8635 36.2379L13.5418 31.5596C13.5887 31.5127 13.6523 31.4864 13.7186 31.4864C13.7849 31.4864 13.8485 31.5127 13.8954 31.5596L17.159 34.8232C17.581 35.2452 18.1533 35.4822 18.75 35.4822C19.3467 35.4822 19.919 35.2452 20.341 34.8232L22.3232 32.841C22.7452 32.419 22.9822 31.8467 22.9822 31.25C22.9822 30.6533 22.7452 30.081 22.3232 29.659L22.2425 29.7397L22.3232 29.659L21.9948 29.3306C21.9943 29.3301 21.9939 29.3296 21.9934 29.3292C21.3694 28.7035 21.4187 27.6765 22.1002 27.1135L33.4514 17.7364C34.2533 17.074 34.719 16.0892 34.7223 15.0491L34.7421 8.76894C34.7482 6.82734 33.1727 5.25181 31.231 5.25793L24.9509 5.27772C23.9108 5.28099 22.926 5.74672 22.2636 6.54861L12.8865 17.8998C12.3231 18.5818 11.2949 18.6307 10.6694 18.0052L10.341 17.6768C9.91902 17.2548 9.34672 17.0178 8.74999 17.0178C8.15325 17.0178 7.58095 17.2548 7.159 17.6768L5.17676 19.659C4.75481 20.081 4.51775 20.6533 4.51775 21.25C4.51775 21.8467 4.75481 22.419 5.17676 22.841L8.4404 26.1046C8.46362 26.1278 8.48203 26.1554 8.49459 26.1857C8.50716 26.2161 8.51362 26.2486 8.51362 26.2814C8.51362 26.3142 8.50716 26.3467 8.49459 26.3771C8.48203 26.4074 8.46362 26.435 8.4404 26.4582L3.7621 31.1365Z" fill="url(#paint0_linear_501_263)" stroke="url(#paint1_linear_501_263)" stroke-width="2" stroke-linecap="round" stroke-linejoin="round"/>
<path d="M18 22L25 15" stroke="white" stroke-width="2" stroke-linecap="round" stroke-linejoin="round"/>
<defs>
<linearGradient id="paint0_linear_501_263" x1="18.9265" y1="6.25" x2="18.9265" y2="35.8969" gradientUnits="userSpaceOnUse">
<stop stop-color="#05FF5A"/>
<stop offset="1" stop-color="#00CB51"/>
</linearGradient>
<linearGradient id="paint1_linear_501_263" x1="18.9265" y1="6.25" x2="18.9265" y2="35.8969" gradientUnits="userSpaceOnUse">
<stop stop-color="#00E65C"/>
<stop offset="1" stop-color="#01D052"/>
</linearGradient>
</defs>
</svg>
