<svg width="41" height="41" viewBox="0 0 41 41" fill="none" xmlns="http://www.w3.org/2000/svg">
<path d="M3.75739 24.9135L4.46246 25.4897L3.75738 24.9135C3.4292 25.3151 3.24995 25.8177 3.25 26.3364C3.25 26.3364 3.25 26.3365 3.25 26.3366L3.25 30.2129C3.25 30.8096 3.48705 31.3819 3.90901 31.8039C4.33097 32.2258 4.90327 32.4629 5.5 32.4629H35.5C36.0967 32.4629 36.669 32.2258 37.091 31.8039C37.513 31.3819 37.75 30.8096 37.75 30.2129V26.3366C37.75 26.3365 37.75 26.3364 37.75 26.3364C37.7501 25.8177 37.5708 25.3151 37.2426 24.9135C36.9144 24.5119 36.4575 24.2362 35.9493 24.1329C35.0462 23.9482 34.2346 23.4573 33.6517 22.7432C33.0685 22.0289 32.75 21.135 32.75 20.2129C32.75 19.2908 33.0685 18.3969 33.6517 17.6826C34.2347 16.9683 35.0466 16.4774 35.9499 16.2927C36.4579 16.1894 36.9146 15.9137 37.2426 15.5123C37.5708 15.1107 37.7501 14.608 37.75 14.0894C37.75 14.0893 37.75 14.0893 37.75 14.0892V10.2129C37.75 9.61616 37.513 9.04386 37.091 8.6219C36.669 8.19994 36.0967 7.96289 35.5 7.96289H5.5C4.90326 7.96289 4.33097 8.19994 3.90901 8.6219C3.48705 9.04386 3.25 9.61615 3.25 10.2129L3.25 14.0892C3.25 14.0893 3.25 14.0894 3.25 14.0894C3.24995 14.608 3.4292 15.1107 3.75738 15.5123C4.08543 15.9137 4.54212 16.1894 5.05011 16.2927C5.95343 16.4774 6.76527 16.9683 7.34833 17.6826C7.93149 18.3969 8.25 19.2907 8.25 20.2129C8.25 21.135 7.93149 22.0289 7.34833 22.7432C6.76534 23.4574 5.95364 23.9483 5.05046 24.133C4.54233 24.2362 4.08551 24.512 3.75739 24.9135Z" fill="url(#paint0_linear_1358_5045)" stroke="url(#paint1_linear_1358_5045)" stroke-width="2" stroke-linecap="round" stroke-linejoin="round"/>
<path d="M15.5 16.2129L15.5 24.2129" stroke="white" stroke-width="2.36364" stroke-linecap="round" stroke-linejoin="round"/>
<defs>
<linearGradient id="paint0_linear_1358_5045" x1="20.5" y1="8.96289" x2="20.5" y2="31.4629" gradientUnits="userSpaceOnUse">
<stop stop-color="#58EE3F"/>
<stop offset="1" stop-color="#4DDA36"/>
</linearGradient>
<linearGradient id="paint1_linear_1358_5045" x1="7.50224" y1="13.1296" x2="7.50224" y2="21.4629" gradientUnits="userSpaceOnUse">
<stop stop-color="#00E65C"/>
<stop offset="1" stop-color="#01D052"/>
</linearGradient>
</defs>
</svg>
