<svg width="55" height="40" viewBox="0 0 55 40" fill="none" xmlns="http://www.w3.org/2000/svg">
<path d="M43.5764 4.85765C40.5344 3.43439 37.2817 2.40002 33.8812 1.81104C33.4636 2.56609 32.9757 3.58165 32.6393 4.38952C29.0244 3.84589 25.4428 3.84589 21.8944 4.38952C21.5581 3.58165 21.0591 2.56609 20.6378 1.81104C17.2336 2.40002 13.9772 3.43819 10.9352 4.86519C4.79951 14.137 3.13622 23.1786 3.96787 32.0918C8.03739 35.1308 11.9812 36.9769 15.8585 38.1849C16.8159 36.8674 17.6697 35.4668 18.4052 33.9907C17.0044 33.4584 15.6626 32.8015 14.3949 32.0389C14.7312 31.7898 15.0602 31.5292 15.378 31.2612C23.1105 34.8779 31.512 34.8779 39.152 31.2612C39.4736 31.5292 39.8025 31.7898 40.1352 32.0389C38.8637 32.8053 37.5183 33.4621 36.1174 33.9945C36.853 35.4668 37.7031 36.8712 38.6641 38.1887C42.5451 36.9806 46.4926 35.1346 50.5622 32.0918C51.538 21.7591 48.8952 12.8006 43.5764 4.85765ZM19.4586 26.6102C17.1374 26.6102 15.2339 24.4433 15.2339 21.8044C15.2339 19.1656 17.0968 16.9948 19.4586 16.9948C21.8206 16.9948 23.7241 19.1618 23.6834 21.8044C23.6871 24.4433 21.8206 26.6102 19.4586 26.6102ZM35.0714 26.6102C32.7502 26.6102 30.8466 24.4433 30.8466 21.8044C30.8466 19.1656 32.7095 16.9948 35.0714 16.9948C37.4333 16.9948 39.3368 19.1618 39.2962 21.8044C39.2962 24.4433 37.4333 26.6102 35.0714 26.6102Z" fill="#5865F2"/>
</svg>
