<svg width="54" height="40" viewBox="0 0 54 40" fill="none" xmlns="http://www.w3.org/2000/svg">
<g clip-path="url(#clip0_501_845)">
<path d="M30.2692 20.1198C30.2692 28.2985 23.609 34.9286 15.3937 34.9286C7.17835 34.9286 0.517639 28.2985 0.517639 20.1198C0.517639 11.9412 7.17784 5.31055 15.3937 5.31055C23.6095 5.31055 30.2692 11.9412 30.2692 20.1198Z" fill="black"/>
<path d="M46.588 20.12C46.588 27.8185 43.2579 34.0618 39.1499 34.0618C35.042 34.0618 31.7119 27.8185 31.7119 20.12C31.7119 12.4216 35.0415 6.17822 39.1494 6.17822C43.2574 6.17822 46.5875 12.4196 46.5875 20.12" fill="black"/>
<path d="M53.2629 20.1196C53.2629 27.0155 52.0919 32.6092 50.647 32.6092C49.202 32.6092 48.0315 27.017 48.0315 20.1196C48.0315 13.2221 49.2025 7.62988 50.647 7.62988C52.0914 7.62988 53.2629 13.2216 53.2629 20.1196Z" fill="black"/>
</g>
<defs>
<clipPath id="clip0_501_845">
<rect width="53.3333" height="40" fill="white" transform="translate(0.190491)"/>
</clipPath>
</defs>
</svg>
