<svg width="41" height="40" viewBox="0 0 41 40" fill="none" xmlns="http://www.w3.org/2000/svg">
<path d="M20.2857 40C31.3314 40 40.2857 31.0457 40.2857 20C40.2857 8.95431 31.3314 0 20.2857 0C9.24006 0 0.285751 8.95431 0.285751 20C0.285751 31.0457 9.24006 40 20.2857 40Z" fill="#FF4500"/>
<path d="M33.6269 19.9998C33.6269 18.3769 32.3146 17.0881 30.7153 17.0881C29.9278 17.0881 29.2116 17.3982 28.6867 17.8995C26.6821 16.4675 23.9372 15.5368 20.8823 15.4176L22.2187 9.16453L26.5624 10.0952C26.6105 11.1931 27.5171 12.0762 28.6391 12.0762C29.7846 12.0762 30.7153 11.1455 30.7153 9.99955C30.7153 8.85401 29.7846 7.92334 28.6391 7.92334C27.8276 7.92334 27.1114 8.40068 26.7773 9.0929L21.9327 8.06659C21.7894 8.04257 21.6462 8.06659 21.5505 8.13821C21.4313 8.20984 21.3597 8.32906 21.3361 8.47231L19.856 15.4412C16.7535 15.5368 13.961 16.4675 11.9324 17.9236C11.4075 17.4222 10.6912 17.1121 9.90383 17.1121C8.28094 17.1121 6.99216 18.4245 6.99216 20.0238C6.99216 21.2169 7.70795 22.2192 8.71069 22.673C8.66264 22.959 8.63906 23.2455 8.63906 23.5561C8.63906 28.0426 13.8658 31.6945 20.3098 31.6945C26.7537 31.6945 31.9805 28.0666 31.9805 23.5561C31.9805 23.2696 31.9565 22.959 31.9089 22.673C32.9111 22.2192 33.6269 21.1929 33.6269 19.9998ZM13.6269 22.076C13.6269 20.9304 14.5576 19.9998 15.7036 19.9998C16.8491 19.9998 17.7798 20.9304 17.7798 22.076C17.7798 23.2215 16.8491 24.1526 15.7036 24.1526C14.5576 24.1762 13.6269 23.2215 13.6269 22.076ZM25.25 27.5892C23.818 29.0213 21.0972 29.1169 20.3098 29.1169C19.4983 29.1169 16.7775 28.9973 15.3691 27.5892C15.1546 27.3744 15.1546 27.0403 15.3691 26.8254C15.5839 26.611 15.918 26.611 16.1329 26.8254C17.04 27.7325 18.9494 28.0426 20.3098 28.0426C21.6702 28.0426 23.6031 27.7325 24.4862 26.8254C24.7011 26.611 25.0352 26.611 25.25 26.8254C25.4409 27.0403 25.4409 27.3744 25.25 27.5892ZM24.8679 24.1762C23.7224 24.1762 22.7917 23.2455 22.7917 22.1C22.7917 20.9545 23.7224 20.0238 24.8679 20.0238C26.0139 20.0238 26.9446 20.9545 26.9446 22.1C26.9446 23.2215 26.0139 24.1762 24.8679 24.1762Z" fill="white"/>
</svg>
