<svg width="54" height="40" viewBox="0 0 54 40" fill="none" xmlns="http://www.w3.org/2000/svg">
<path d="M19.4751 37.3332C35.0733 37.3332 43.6034 23.9973 43.6034 12.4329C43.6034 12.0541 43.5959 11.677 43.5795 11.3017C45.2353 10.0664 46.6744 8.52479 47.8096 6.76992C46.2901 7.46691 44.655 7.93612 42.9396 8.14769C44.6905 7.06424 46.0346 5.35034 46.6687 3.30719C45.0303 4.3096 43.2158 5.03816 41.2838 5.4315C39.7364 3.73045 37.5332 2.6665 35.0938 2.6665C30.4107 2.6665 26.6131 6.58577 26.6131 11.4168C26.6131 12.1036 26.6875 12.7716 26.833 13.4123C19.7849 13.0463 13.5352 9.56389 9.35254 4.26865C8.62425 5.56196 8.2043 7.06428 8.2043 8.66728C8.2043 11.7035 9.70144 14.3839 11.9781 15.952C10.5868 15.9076 9.27979 15.5135 8.13745 14.8575C8.1362 14.8942 8.1362 14.93 8.1362 14.9692C8.1362 19.2075 11.0593 22.7462 14.9396 23.548C14.227 23.7485 13.4773 23.856 12.7035 23.856C12.1579 23.856 11.6263 23.8006 11.1097 23.6982C12.1893 27.1754 15.3199 29.7058 19.0315 29.7766C16.1291 32.1243 12.4728 33.5226 8.49904 33.5226C7.81539 33.5226 7.14001 33.4825 6.47623 33.4015C10.2293 35.8841 14.6858 37.3326 19.4755 37.3326" fill="#1DA1F2"/>
</svg>
