<svg width="420" height="57" viewBox="0 0 420 57" fill="none" xmlns="http://www.w3.org/2000/svg">
<path d="M420 35.8911C420 47.0049 325.98 56.0145 210 56.0145C94.0202 56.0145 0 47.0049 0 35.8911V20.7129H420C420 20.7129 420 30.5228 420 35.8911Z" fill="#1F970C"/>
<ellipse cx="210" cy="20.5794" rx="210" ry="20.1233" fill="#4DDA36"/>
<path d="M210 40.7027L210 0.456055" stroke="white" stroke-width="3.98129"/>
<path d="M322.325 20.5799C322.325 26.8681 272.036 28.755 210 28.755C147.964 28.755 97.6743 25.9255 97.6743 20.5799C97.6743 15.2343 147.964 12.4048 210 12.4048C272.036 12.4048 322.325 14.2917 322.325 20.5799Z" stroke="white" stroke-width="3.98129"/>
<path d="M214.273 20.5795C214.273 21.5469 212.36 21.8372 210 21.8372C207.64 21.8372 205.727 21.4019 205.727 20.5795C205.727 19.7571 207.64 19.3218 210 19.3218C212.36 19.3218 214.273 19.6121 214.273 20.5795Z" fill="white"/>
</svg>
