<svg width="26" height="26" viewBox="0 0 26 26" fill="none" xmlns="http://www.w3.org/2000/svg">
<g opacity="0.4">
<path d="M7.53125 19.2297C8.17846 19.2297 8.70312 18.7051 8.70312 18.0579C8.70312 17.4107 8.17846 16.886 7.53125 16.886C6.88404 16.886 6.35938 17.4107 6.35938 18.0579C6.35938 18.7051 6.88404 19.2297 7.53125 19.2297Z" fill="white"/>
<path d="M4.08109 17.379L6.44313 3.98324C6.47911 3.77919 6.59467 3.59778 6.7644 3.47894C6.93413 3.36009 7.14412 3.31354 7.34817 3.34952L12.7338 4.29916C12.9379 4.33514 13.1193 4.4507 13.2381 4.62043C13.357 4.79016 13.4035 5.00015 13.3676 5.2042L10.9935 18.6684C10.8336 19.5749 10.3246 20.3826 9.5757 20.9179C8.82684 21.4532 7.89788 21.6735 6.98839 21.5314C5.04086 21.2262 3.73878 19.3204 4.08109 17.379Z" stroke="white" stroke-width="2" stroke-linecap="round" stroke-linejoin="round"/>
<path d="M12.0508 12.6715L19.1762 10.0781C19.3709 10.0073 19.5858 10.0166 19.7735 10.1042C19.9613 10.1918 20.1066 10.3503 20.1775 10.5451L22.0479 15.684C22.083 15.7804 22.0988 15.8828 22.0943 15.9853C22.0898 16.0878 22.0652 16.1884 22.0219 16.2814C21.9785 16.3744 21.9172 16.4579 21.8416 16.5272C21.766 16.5965 21.6774 16.6502 21.581 16.6853L8.73363 21.3614" stroke="white" stroke-width="2" stroke-linecap="round" stroke-linejoin="round"/>
<path d="M21.9844 16.3521V20.7922C21.9844 20.9994 21.902 21.1981 21.7555 21.3446C21.609 21.4911 21.4103 21.5734 21.2031 21.5734H7.53123" stroke="white" stroke-width="2" stroke-linecap="round" stroke-linejoin="round"/>
</g>
</svg>
