<svg width="26" height="26" viewBox="0 0 26 26" fill="none" xmlns="http://www.w3.org/2000/svg">
<g opacity="0.4">
<path d="M12.8333 23.9172L15.3968 20.011" stroke="white" stroke-width="2" stroke-linecap="round" stroke-linejoin="round"/>
<path d="M9.97687 20.7922L13.053 16.1047" stroke="white" stroke-width="2" stroke-linecap="round" stroke-linejoin="round"/>
<path d="M8.92706 9.46411C8.92706 8.15072 9.31652 6.86683 10.0462 5.77478C10.7759 4.68274 11.813 3.83159 13.0264 3.32898C14.2398 2.82636 15.575 2.69486 16.8632 2.95109C18.1514 3.20732 19.3346 3.83978 20.2633 4.76848C21.192 5.69719 21.8245 6.88044 22.0807 8.16859C22.3369 9.45675 22.2054 10.792 21.7028 12.0054C21.2002 13.2188 20.3491 14.2559 19.257 14.9856C18.165 15.7153 16.8811 16.1047 15.5677 16.1047H7.75518C7.13129 16.1042 6.515 15.9678 5.94915 15.7051C5.38329 15.4423 4.88143 15.0595 4.47846 14.5832C4.07549 14.1069 3.78108 13.5486 3.61567 12.947C3.45027 12.3455 3.41785 11.7151 3.52066 11.0998C3.62348 10.4844 3.85906 9.89881 4.21104 9.38369C4.56302 8.86857 5.02295 8.43628 5.55887 8.11687C6.09479 7.79745 6.69383 7.59856 7.31437 7.53404C7.93491 7.46951 8.56206 7.54089 9.15224 7.74321" stroke="white" stroke-width="2" stroke-linecap="round" stroke-linejoin="round"/>
</g>
</svg>
