<svg width="366" height="220" viewBox="0 0 366 220" fill="none" xmlns="http://www.w3.org/2000/svg">
<g clip-path="url(#clip0_1382_12645)">
<path d="M235.915 147.107H235.464C232.353 147.107 229.371 145.874 227.171 143.679C224.972 141.483 223.737 138.506 223.737 135.402V120.466C223.737 117.361 224.972 114.384 227.171 112.188C229.371 109.993 232.353 108.76 235.464 108.76H235.915C241.005 108.76 245.887 110.778 249.486 114.371C253.086 117.964 255.108 122.837 255.108 127.918V127.956C255.108 133.037 253.086 137.91 249.486 141.503C245.887 145.096 241.005 147.114 235.915 147.114V147.107Z" fill="#FFAF77"/>
<path d="M235.915 148.986H235.464C231.857 148.98 228.399 147.547 225.849 145.001C223.298 142.455 221.863 139.004 221.857 135.404V120.468C221.863 116.868 223.298 113.416 225.849 110.871C228.399 108.325 231.857 106.892 235.464 106.886H235.915C241.502 106.889 246.861 109.105 250.813 113.047C254.766 116.989 256.99 122.336 256.997 127.914V127.944C256.993 133.524 254.77 138.874 250.818 142.819C246.865 146.764 241.505 148.983 235.915 148.986ZM235.464 110.639C232.853 110.641 230.35 111.678 228.503 113.521C226.657 115.363 225.619 117.862 225.617 120.468V135.404C225.623 138.009 226.662 140.505 228.508 142.347C230.353 144.189 232.854 145.227 235.464 145.233H235.915C240.505 145.228 244.906 143.406 248.152 140.166C251.397 136.926 253.223 132.533 253.228 127.951V127.914C253.223 123.332 251.397 118.939 248.152 115.699C244.906 112.459 240.505 110.637 235.915 110.632L235.464 110.639Z" fill="black"/>
<path d="M274.569 192.182H310.899V203.442C310.899 205.239 310.544 207.019 309.856 208.679C309.167 210.339 308.157 211.847 306.884 213.118C305.611 214.388 304.1 215.396 302.437 216.084C300.774 216.772 298.991 217.126 297.191 217.126H288.289C286.489 217.126 284.706 216.772 283.043 216.084C281.38 215.396 279.869 214.388 278.596 213.118C277.323 211.847 276.313 210.339 275.624 208.679C274.935 207.019 274.581 205.239 274.581 203.442V192.182H274.569Z" fill="black"/>
<path d="M297.184 219.002H288.272C284.139 218.997 280.177 217.356 277.254 214.439C274.332 211.521 272.689 207.566 272.684 203.44V192.18C272.684 191.682 272.882 191.205 273.235 190.853C273.587 190.501 274.066 190.303 274.564 190.303H310.892C311.391 190.303 311.869 190.501 312.221 190.853C312.574 191.205 312.772 191.682 312.772 192.18V203.44C312.768 207.566 311.124 211.521 308.202 214.439C305.279 217.356 301.317 218.997 297.184 219.002ZM276.451 194.066V203.45C276.454 206.58 277.702 209.582 279.919 211.795C282.136 214.009 285.143 215.255 288.279 215.258H297.184C300.32 215.255 303.327 214.009 305.544 211.795C307.762 209.582 309.009 206.58 309.012 203.45V194.066H276.451Z" fill="black"/>
<path d="M263.914 164.997L269.02 186.71C270.11 191.345 272.737 195.476 276.475 198.433C280.213 201.39 284.842 202.999 289.612 202.999H299.247C300.975 202.999 302.682 202.619 304.245 201.885C305.809 201.151 307.192 200.082 308.294 198.755C309.397 197.427 310.192 195.872 310.624 194.202C311.056 192.532 311.114 190.788 310.793 189.093L305.823 162.806" fill="#FFAF77"/>
<path d="M299.247 204.873H289.612C284.42 204.867 279.382 203.116 275.309 199.902C271.244 196.679 268.384 192.183 267.19 187.139L262.083 165.423L265.744 164.567L270.851 186.283C271.832 190.511 274.222 194.283 277.631 196.978C281.039 199.674 285.263 201.134 289.612 201.12H299.247C300.699 201.122 302.133 200.804 303.446 200.188C304.76 199.572 305.921 198.673 306.845 197.557C307.773 196.443 308.443 195.138 308.807 193.735C309.17 192.332 309.217 190.866 308.946 189.442L303.976 163.155L307.672 162.451L312.64 188.739C313.016 190.704 312.95 192.729 312.449 194.666C311.947 196.604 311.022 198.406 309.74 199.945C308.464 201.488 306.862 202.731 305.047 203.583C303.233 204.435 301.252 204.876 299.247 204.873Z" fill="black"/>
<path d="M310.793 189.093L309.733 183.484C309.263 186.21 307.843 188.683 305.723 190.466C303.604 192.248 300.921 193.225 298.15 193.224H280.851C277.127 193.226 273.469 192.243 270.25 190.376C271.901 194.129 274.611 197.322 278.049 199.563C281.488 201.805 285.505 202.999 289.612 202.999H299.247C300.975 202.999 302.682 202.619 304.245 201.885C305.809 201.151 307.192 200.082 308.294 198.754C309.397 197.427 310.192 195.872 310.624 194.202C311.056 192.532 311.114 190.788 310.793 189.093Z" fill="white"/>
<path d="M299.247 204.873H289.612C285.14 204.873 280.765 203.573 277.021 201.133C273.277 198.692 270.325 195.216 268.527 191.129C268.368 190.767 268.327 190.363 268.412 189.976C268.496 189.589 268.701 189.239 268.997 188.976C269.293 188.712 269.664 188.549 270.058 188.509C270.452 188.469 270.849 188.554 271.192 188.753C274.127 190.45 277.459 191.345 280.851 191.347H298.15C300.479 191.352 302.735 190.533 304.516 189.035C306.297 187.537 307.489 185.457 307.879 183.165C307.954 182.732 308.179 182.338 308.515 182.053C308.851 181.769 309.276 181.611 309.717 181.607H309.733C310.171 181.607 310.595 181.76 310.933 182.039C311.27 182.318 311.499 182.705 311.581 183.135L312.64 188.746C313.016 190.711 312.95 192.736 312.449 194.673C311.947 196.611 311.022 198.413 309.74 199.952C308.464 201.494 306.86 202.735 305.046 203.586C303.232 204.437 301.252 204.877 299.247 204.873ZM274.907 194.317C276.716 196.449 278.969 198.162 281.508 199.337C284.048 200.511 286.813 201.12 289.612 201.12H299.247C300.699 201.122 302.133 200.804 303.446 200.188C304.76 199.572 305.921 198.673 306.845 197.557C307.74 196.483 308.395 195.232 308.766 193.885C309.138 192.539 309.218 191.129 309 189.75C307.728 191.417 306.086 192.767 304.204 193.696C302.321 194.624 300.249 195.105 298.15 195.101H280.851C278.844 195.1 276.846 194.838 274.907 194.319V194.317Z" fill="black"/>
<path d="M261.122 179.369C260.623 179.369 260.145 179.172 259.792 178.82C259.44 178.468 259.242 177.991 259.242 177.493V162.986C259.242 162.488 259.44 162.011 259.792 161.659C260.145 161.307 260.623 161.109 261.122 161.109C261.62 161.109 262.099 161.307 262.451 161.659C262.804 162.011 263.002 162.488 263.002 162.986V177.493C263.002 177.991 262.804 178.468 262.451 178.82C262.099 179.172 261.62 179.369 261.122 179.369Z" fill="black"/>
<path d="M198.41 123.78V160.045L237.071 167.863V131.601L198.41 123.78Z" fill="#FFAF77"/>
<path d="M238.953 170.16L196.53 161.581V121.486L238.953 130.067V170.16ZM200.29 158.51L235.193 165.569V133.135L200.29 126.077V158.51Z" fill="black"/>
<path d="M188.88 158.09V114.458H189.19C190.401 114.458 191.6 114.696 192.719 115.159C193.838 115.621 194.854 116.299 195.71 117.154C196.566 118.009 197.245 119.024 197.709 120.141C198.172 121.257 198.41 122.454 198.41 123.663V160.052L188.88 158.09Z" fill="black"/>
<path d="M198.41 161.928C198.283 161.928 198.156 161.916 198.031 161.891L188.502 159.934C188.078 159.847 187.697 159.617 187.424 159.283C187.15 158.948 187 158.529 187 158.097V114.465C187 113.967 187.198 113.49 187.551 113.138C187.903 112.786 188.381 112.588 188.88 112.588H189.19C192.133 112.592 194.955 113.761 197.035 115.838C199.116 117.916 200.287 120.732 200.29 123.67V160.052C200.29 160.33 200.228 160.605 200.109 160.856C199.989 161.108 199.815 161.33 199.599 161.506C199.263 161.779 198.843 161.928 198.41 161.928ZM190.76 156.566L196.53 157.738V123.67C196.527 121.999 195.954 120.38 194.906 119.078C193.857 117.776 192.394 116.871 190.76 116.51V156.566Z" fill="black"/>
<path d="M263.954 174.478V134.346L231.842 126.996V169.083L263.954 174.478Z" fill="#37F9FF"/>
<path d="M263.954 176.357C263.849 176.357 263.744 176.348 263.641 176.332L231.532 170.936C231.094 170.862 230.696 170.636 230.409 170.297C230.122 169.958 229.964 169.529 229.964 169.085V126.996C229.964 126.715 230.027 126.437 230.149 126.183C230.271 125.929 230.449 125.706 230.669 125.53C230.89 125.355 231.148 125.231 231.424 125.168C231.699 125.106 231.985 125.106 232.26 125.169L264.372 132.519C264.787 132.614 265.157 132.846 265.422 133.179C265.687 133.511 265.831 133.923 265.831 134.348V174.481C265.831 174.754 265.772 175.023 265.657 175.271C265.542 175.518 265.375 175.738 265.166 175.914C264.827 176.2 264.398 176.357 263.954 176.357ZM233.731 167.497L262.081 172.262V135.843L233.731 129.354V167.497Z" fill="black"/>
<path d="M212.959 126.724L198.41 123.78V160.045L212.959 162.986V126.724Z" fill="white"/>
<path d="M212.961 164.865C212.836 164.865 212.711 164.852 212.588 164.828L198.036 161.886C197.611 161.8 197.229 161.57 196.954 161.235C196.68 160.9 196.53 160.48 196.53 160.047V123.783C196.53 123.504 196.591 123.229 196.711 122.978C196.83 122.726 197.005 122.504 197.221 122.328C197.436 122.152 197.688 122.026 197.958 121.959C198.229 121.892 198.51 121.886 198.783 121.941L213.333 124.885C213.758 124.971 214.141 125.201 214.416 125.536C214.691 125.871 214.841 126.291 214.842 126.724V162.989C214.841 163.267 214.779 163.541 214.66 163.792C214.54 164.043 214.366 164.265 214.151 164.441C213.815 164.715 213.395 164.865 212.961 164.865ZM200.29 158.51L211.081 160.692V128.261L200.29 126.077V158.51Z" fill="black"/>
<path d="M250.659 162.986H256.422L261.122 177.491H288.78L292.531 172.89L296.272 177.491H311.118L301.898 144.578H251.667" fill="#37F9FF"/>
<path d="M311.12 179.37H296.274C295.994 179.369 295.717 179.305 295.464 179.183C295.211 179.061 294.988 178.885 294.813 178.666L292.531 175.851L290.239 178.666C290.064 178.884 289.842 179.061 289.59 179.183C289.337 179.304 289.06 179.368 288.78 179.37H261.122C260.724 179.369 260.337 179.244 260.016 179.01C259.694 178.777 259.456 178.447 259.333 178.07L255.054 164.863H250.652C250.154 164.863 249.675 164.665 249.323 164.313C248.97 163.961 248.772 163.484 248.772 162.986C248.772 162.488 248.97 162.011 249.323 161.659C249.675 161.307 250.154 161.11 250.652 161.11H256.415C256.812 161.11 257.199 161.235 257.521 161.469C257.842 161.702 258.081 162.032 258.203 162.409L262.482 175.616H287.88L291.067 171.706C291.242 171.487 291.464 171.311 291.717 171.189C291.969 171.067 292.246 171.003 292.526 171.002C292.807 171.003 293.083 171.067 293.336 171.189C293.588 171.311 293.81 171.487 293.985 171.706L297.163 175.614H308.634L300.467 146.455H251.66C251.162 146.455 250.684 146.257 250.331 145.905C249.978 145.553 249.78 145.076 249.78 144.578C249.78 144.081 249.978 143.603 250.331 143.251C250.684 142.899 251.162 142.702 251.66 142.702H301.894C302.304 142.702 302.702 142.836 303.029 143.083C303.356 143.331 303.592 143.678 303.703 144.072L312.923 176.984C313.001 177.263 313.014 177.557 312.959 177.842C312.905 178.126 312.786 178.395 312.61 178.626C312.436 178.856 312.21 179.042 311.952 179.171C311.694 179.3 311.409 179.368 311.12 179.37Z" fill="black"/>
<path d="M301.179 143.929H254.979C250.558 143.929 246.278 142.374 242.892 139.537C239.505 136.699 237.229 132.762 236.462 128.416L235.052 120.473C234.695 118.449 234.786 116.371 235.319 114.386C235.852 112.401 236.814 110.557 238.138 108.983C239.461 107.408 241.114 106.143 242.98 105.274C244.846 104.406 246.88 103.956 248.939 103.956H294.129L301.179 143.929Z" fill="#37F9FF"/>
<path d="M301.179 145.805H254.979C250.114 145.812 245.403 144.103 241.677 140.981C237.951 137.86 235.448 133.525 234.61 128.742L233.2 120.796C232.793 118.503 232.895 116.148 233.499 113.899C234.103 111.649 235.195 109.559 236.697 107.777C238.195 105.991 240.068 104.554 242.184 103.57C244.299 102.585 246.605 102.076 248.939 102.079H294.129C294.571 102.079 294.999 102.235 295.338 102.519C295.677 102.803 295.904 103.197 295.981 103.632L303.031 143.603C303.078 143.872 303.066 144.149 302.995 144.414C302.924 144.679 302.796 144.924 302.62 145.134C302.443 145.344 302.223 145.513 301.974 145.629C301.725 145.745 301.454 145.805 301.179 145.805ZM248.948 105.832C247.164 105.83 245.4 106.219 243.783 106.972C242.166 107.725 240.734 108.823 239.588 110.188C238.439 111.552 237.603 113.15 237.141 114.871C236.678 116.591 236.6 118.392 236.911 120.147L238.321 128.09C239.006 132.003 241.053 135.55 244.102 138.105C247.151 140.659 251.005 142.057 254.986 142.052H298.946L292.559 105.832H248.948Z" fill="black"/>
<path d="M274.611 29.9071H242.417C232.233 29.9071 223.976 38.1485 223.976 48.3149V87.3612C223.976 97.5276 232.233 105.769 242.417 105.769H274.611C284.796 105.769 293.052 97.5276 293.052 87.3612V48.3149C293.052 38.1485 284.796 29.9071 274.611 29.9071Z" fill="#FFAF77"/>
<path d="M225.048 42.1875H291.985C290.717 38.599 288.366 35.4913 285.255 33.2924C282.143 31.0935 278.426 29.9115 274.614 29.9094H242.417C238.605 29.911 234.888 31.0927 231.777 33.2918C228.666 35.4908 226.315 38.5988 225.048 42.1875Z" fill="#F08960"/>
<path d="M282.049 31.4788C282.049 31.6101 278.172 31.7321 278.172 31.8635V88.1635C278.172 89.4473 277.919 90.7185 277.427 91.9046C276.935 93.0907 276.214 94.1684 275.304 95.0762C274.395 95.984 273.315 96.704 272.127 97.1951C270.939 97.6863 269.665 97.9389 268.379 97.9386H227.349C229.046 100.358 231.303 102.332 233.928 103.695C236.553 105.058 239.468 105.77 242.427 105.769H274.623C279.514 105.769 284.204 103.83 287.662 100.378C291.12 96.9267 293.064 92.2452 293.064 87.3635V48.3148C293.063 44.7443 292.021 41.2513 290.065 38.2619C288.109 35.2724 285.324 32.9155 282.049 31.4788Z" fill="#F08960"/>
<path d="M274.623 107.646H242.427C237.04 107.639 231.875 105.501 228.066 101.698C224.257 97.896 222.114 92.7407 222.108 87.3635V48.3148C222.114 42.9375 224.257 37.7823 228.066 33.9801C231.875 30.1778 237.04 28.0389 242.427 28.0327H274.623C280.01 28.0389 285.175 30.1777 288.985 33.9799C292.794 37.7822 294.938 42.9373 294.944 48.3148V87.3635C294.938 92.741 292.794 97.8962 288.985 101.698C285.175 105.501 280.01 107.639 274.623 107.646ZM242.427 31.786C238.037 31.791 233.828 33.534 230.724 36.6327C227.619 39.7314 225.873 43.9326 225.868 48.3148V87.3635C225.873 91.7457 227.619 95.947 230.724 99.0456C233.828 102.144 238.037 103.887 242.427 103.892H274.623C279.014 103.888 283.223 102.145 286.328 99.0464C289.433 95.9477 291.179 91.7461 291.184 87.3635V48.3148C291.179 43.9322 289.433 39.7306 286.328 36.6319C283.223 33.5332 279.014 31.7904 274.623 31.786H242.427Z" fill="black"/>
<path d="M253.016 78.7684H242.84C240.81 78.7678 238.862 77.9621 237.426 76.5285C235.99 75.0948 235.184 73.1505 235.184 71.1234V61.7612C235.184 60.4436 235.444 59.1389 235.949 57.9216C236.454 56.7044 237.195 55.5983 238.128 54.6667C239.061 53.735 240.169 52.996 241.389 52.4917C242.608 51.9875 243.915 51.728 245.235 51.728H250.624C253.29 51.728 255.846 52.7851 257.731 54.6667C259.616 56.5483 260.675 59.1002 260.675 61.7612V71.1187C260.676 72.123 260.478 73.1177 260.094 74.0457C259.709 74.9738 259.145 75.8172 258.434 76.5276C257.723 77.238 256.878 77.8016 255.948 78.1861C255.019 78.5705 254.023 78.7684 253.016 78.7684Z" fill="white"/>
<path d="M243.249 63.0068H238.641C236.094 63.0068 234.03 65.0675 234.03 67.6094V72.2095C234.03 74.7514 236.094 76.8121 238.641 76.8121H243.249C245.796 76.8121 247.86 74.7514 247.86 72.2095V67.6094C247.86 65.0675 245.796 63.0068 243.249 63.0068Z" fill="black"/>
<path d="M235.184 63.6378C234.685 63.6378 234.207 63.44 233.854 63.0881C233.502 62.7362 233.304 62.2588 233.304 61.7611C233.307 58.6034 234.565 55.5759 236.802 53.343C239.039 51.1102 242.072 49.8544 245.235 49.8513H250.624C251.123 49.8513 251.601 50.0491 251.953 50.401C252.306 50.753 252.504 51.2303 252.504 51.728C252.504 52.2257 252.306 52.7031 251.953 53.055C251.601 53.407 251.123 53.6047 250.624 53.6047H245.247C243.081 53.6071 241.004 54.4673 239.472 55.9964C237.94 57.5255 237.078 59.5987 237.076 61.7611C237.076 62.0086 237.027 62.2535 236.931 62.482C236.836 62.7104 236.697 62.9179 236.521 63.0923C236.345 63.2667 236.136 63.4047 235.907 63.4983C235.677 63.5919 235.432 63.6393 235.184 63.6378Z" fill="black"/>
<path d="M218.157 29.9071H290.691V37.9275H226.178C224.051 37.9275 222.011 37.084 220.507 35.5825C219.003 34.081 218.157 32.0446 218.157 29.9212V29.9095V29.9071Z" fill="black"/>
<path d="M283.718 31.8635H298.782V80.9618C298.782 82.5172 298.163 84.0089 297.061 85.1087C295.959 86.2085 294.465 86.8264 292.907 86.8264H283.718V31.8635Z" fill="black"/>
<path d="M292.907 88.703H283.718C283.219 88.703 282.741 88.5053 282.388 88.1533C282.036 87.8014 281.838 87.3241 281.838 86.8264V31.8635C281.838 31.3658 282.036 30.8884 282.388 30.5364C282.741 30.1845 283.219 29.9868 283.718 29.9868H298.782C299.281 29.9868 299.759 30.1845 300.111 30.5364C300.464 30.8884 300.662 31.3658 300.662 31.8635V80.9618C300.662 83.0149 299.845 84.9839 298.391 86.4357C296.936 87.8874 294.964 88.703 292.907 88.703ZM285.598 84.9497H292.907C293.966 84.9497 294.983 84.5295 295.732 83.7816C296.481 83.0338 296.902 82.0194 296.902 80.9618V33.7401H285.598V84.9497Z" fill="black"/>
<path d="M273.027 20.4744H250.043V15.8766H228.338C225.638 15.8772 223.049 16.9481 221.14 18.8537C219.231 20.7594 218.158 23.3438 218.157 26.0388C218.157 26.6433 218.276 27.2419 218.508 27.8004C218.739 28.359 219.079 28.8665 219.507 29.2939C219.935 29.7214 220.444 30.0604 221.003 30.2915C221.563 30.5227 222.163 30.6416 222.768 30.6413H273.027V20.4744Z" fill="black"/>
<path d="M273.027 32.518H222.768C221.047 32.5162 219.397 31.8329 218.181 30.6182C216.964 29.4036 216.279 27.7566 216.277 26.0388C216.281 22.8471 217.553 19.7871 219.814 17.5302C222.075 15.2733 225.14 14.0037 228.338 14H250.043C250.542 14 251.02 14.1977 251.373 14.5497C251.725 14.9016 251.924 15.3789 251.924 15.8767V18.5979H273.027C273.526 18.5979 274.004 18.7956 274.357 19.1475C274.709 19.4995 274.907 19.9768 274.907 20.4745V30.6367C274.908 30.8835 274.86 31.1281 274.766 31.3563C274.671 31.5845 274.533 31.7919 274.358 31.9667C274.184 32.1415 273.976 32.2802 273.748 32.3748C273.519 32.4694 273.275 32.5181 273.027 32.518ZM228.338 17.7533C226.137 17.7564 224.028 18.6304 222.472 20.1835C220.916 21.7367 220.041 23.8423 220.037 26.0388C220.038 26.7616 220.326 27.4545 220.838 27.9656C221.35 28.4767 222.044 28.7641 222.768 28.7647H271.147V22.3512H250.043C249.545 22.3512 249.067 22.1534 248.714 21.8015C248.361 21.4496 248.163 20.9722 248.163 20.4745V17.7533H228.338Z" fill="black"/>
<path d="M292.857 30.6413L273.025 30.6413V23.3552L285.574 23.3552C287.507 23.3552 289.36 24.1214 290.726 25.4851C292.092 26.8489 292.86 28.6986 292.86 30.6272V30.6437L292.857 30.6413Z" fill="black"/>
<path d="M292.86 32.518H273.027C272.529 32.518 272.05 32.3203 271.698 31.9683C271.345 31.6164 271.147 31.1391 271.147 30.6414V23.3552C271.147 22.8575 271.345 22.3801 271.698 22.0281C272.05 21.6762 272.529 21.4785 273.027 21.4785H285.574C288.005 21.4785 290.336 22.4424 292.055 24.1581C293.774 25.8738 294.74 28.2009 294.74 30.6273C294.74 31.1263 294.542 31.6051 294.19 31.9593C293.838 32.3135 293.36 32.5143 292.86 32.518ZM274.907 28.7647H290.653C290.271 27.7287 289.58 26.8344 288.673 26.2027C287.767 25.571 286.687 25.2321 285.581 25.2318H274.914L274.907 28.7647Z" fill="black"/>
<g opacity="0.7">
<path opacity="0.7" d="M235.908 42.1852H231.419C230.338 42.1852 229.461 43.0601 229.461 44.1393V44.9556C229.461 46.0348 230.338 46.9097 231.419 46.9097H235.908C236.989 46.9097 237.865 46.0348 237.865 44.9556V44.1393C237.865 43.0601 236.989 42.1852 235.908 42.1852Z" fill="white"/>
</g>
<path d="M232.152 93.8381C231.809 93.8388 231.472 93.7457 231.177 93.5687C230.883 93.3917 230.643 93.1376 230.484 92.834C230.253 92.3948 230.206 91.8823 230.352 91.4085C230.499 90.9347 230.827 90.538 231.266 90.3052C231.501 90.1762 237.353 87.1548 248.14 87.1548C248.639 87.1548 249.117 87.3525 249.469 87.7045C249.822 88.0564 250.02 88.5337 250.02 89.0315C250.02 89.5292 249.822 90.0065 249.469 90.3584C249.117 90.7104 248.639 90.9081 248.14 90.9081C238.373 90.9081 233.071 93.5988 233.019 93.6246C232.752 93.7651 232.454 93.8384 232.152 93.8381Z" fill="black"/>
<path d="M277.591 63.605H285.779C287.15 63.605 288.465 64.1487 289.435 65.1166C290.404 66.0844 290.949 67.3971 290.949 68.7658V73.6053C290.949 74.974 290.404 76.2867 289.435 77.2545C288.465 78.2224 287.15 78.7661 285.779 78.7661H277.591V63.605Z" fill="#F08960"/>
<path d="M273.883 30.6554H286.228V68.2216C286.228 69.4422 285.742 70.6129 284.877 71.476C284.013 72.3392 282.84 72.8241 281.617 72.8241H278.494C277.888 72.8241 277.289 72.705 276.729 72.4737C276.17 72.2424 275.661 71.9034 275.233 71.476C274.805 71.0487 274.466 70.5413 274.234 69.9829C274.002 69.4245 273.883 68.826 273.883 68.2216V30.6554Z" fill="black"/>
<path d="M296.566 30.6484H279.758V63.605H296.566V30.6484Z" fill="black"/>
<path d="M299.381 125.713V111.024C299.381 102.865 293.208 96.2449 285.593 96.2449H283.231C275.617 96.2449 269.443 102.858 269.443 111.024V120.407C269.443 125.49 273.288 125.709 278.033 125.709C273.288 125.709 269.443 129.828 269.443 134.911V154.278C269.443 159.359 273.291 163.481 278.033 163.481H288.284C297.774 163.481 305.466 155.24 305.466 145.073V132.228C305.466 128.631 302.742 125.713 299.381 125.713Z" fill="#FFAF77"/>
<path d="M299.381 125.713L298.961 122.478V139.235C298.961 149.399 290.876 153.732 281.387 153.732H271.528C270.823 153.723 270.122 153.62 269.443 153.427V154.283C269.443 159.364 273.291 163.486 278.033 163.486H288.284C297.774 163.486 305.466 155.245 305.466 145.078V132.232C305.466 128.631 302.742 125.713 299.381 125.713Z" fill="#F08960"/>
<path d="M288.284 165.363H278.033C272.261 165.363 267.563 160.392 267.563 154.283V134.916C267.554 133.368 267.862 131.834 268.468 130.408C269.074 128.983 269.966 127.697 271.088 126.628C269.065 125.711 267.563 123.919 267.563 120.412V111.028C267.563 101.849 274.592 94.3729 283.231 94.3729H285.593C294.232 94.3729 301.261 101.842 301.261 111.028V124.078C304.749 124.97 307.346 128.289 307.346 132.237V145.083C307.346 156.263 298.794 165.363 288.284 165.363ZM278.033 127.595C274.334 127.595 271.323 130.879 271.323 134.921V154.288C271.323 158.327 274.334 161.614 278.033 161.614H288.284C296.721 161.614 303.586 154.199 303.586 145.083V132.237C303.586 129.678 301.705 127.595 299.381 127.595C298.883 127.595 298.404 127.397 298.052 127.045C297.699 126.693 297.501 126.216 297.501 125.718V111.024C297.501 103.913 292.159 98.1216 285.593 98.1216H283.231C276.665 98.1216 271.323 103.906 271.323 111.024V120.407C271.323 123.255 272.451 123.832 278.033 123.832C278.532 123.832 279.01 124.03 279.362 124.382C279.715 124.733 279.913 125.211 279.913 125.709C279.914 125.955 279.865 126.2 279.771 126.428C279.677 126.656 279.539 126.864 279.364 127.039C279.189 127.213 278.982 127.352 278.754 127.447C278.525 127.541 278.28 127.59 278.033 127.59V127.595Z" fill="black"/>
<g opacity="0.7">
<path opacity="0.7" d="M283.697 101.136H279.208C278.127 101.136 277.25 102.011 277.25 103.09V103.906C277.25 104.986 278.127 105.86 279.208 105.86H283.697C284.778 105.86 285.654 104.986 285.654 103.906V103.09C285.654 102.011 284.778 101.136 283.697 101.136Z" fill="white"/>
</g>
<path d="M271.535 156.819H271.084C268.563 156.819 266.067 156.324 263.738 155.361C261.41 154.399 259.294 152.987 257.511 151.208C255.729 149.429 254.315 147.317 253.351 144.993C252.387 142.668 251.89 140.177 251.891 137.661V137.63C251.891 132.549 253.913 127.676 257.512 124.083C261.112 120.49 265.993 118.472 271.084 118.472H271.535C274.645 118.472 277.628 119.705 279.827 121.9C282.026 124.095 283.262 127.073 283.262 130.177V145.113C283.262 148.218 282.026 151.195 279.827 153.391C277.628 155.586 274.645 156.819 271.535 156.819Z" fill="#FFAF77"/>
<path d="M276.987 119.818C276.987 120.001 277.041 120.175 277.041 120.362V139.159C277.042 140.443 276.788 141.715 276.296 142.901C275.804 144.087 275.083 145.164 274.174 146.072C273.264 146.98 272.185 147.7 270.996 148.191C269.808 148.682 268.535 148.935 267.248 148.935H255.587C257.363 151.376 259.693 153.364 262.386 154.734C265.079 156.105 268.059 156.819 271.081 156.819H271.533C274.643 156.819 277.626 155.586 279.825 153.39C282.024 151.195 283.26 148.218 283.26 145.113V130.177C283.26 128.044 282.676 125.951 281.57 124.125C280.465 122.299 278.88 120.81 276.987 119.818Z" fill="#F08960"/>
<path d="M271.535 158.696H271.084C265.497 158.69 260.14 156.472 256.189 152.528C252.238 148.585 250.016 143.238 250.011 137.661V137.63C250.017 132.053 252.239 126.706 256.19 122.763C260.14 118.819 265.497 116.601 271.084 116.595H271.535C275.142 116.601 278.599 118.034 281.15 120.58C283.7 123.126 285.136 126.577 285.142 130.177V145.113C285.136 148.714 283.7 152.165 281.15 154.711C278.599 157.256 275.142 158.689 271.535 158.696ZM271.084 120.348C266.494 120.354 262.093 122.176 258.848 125.416C255.602 128.656 253.776 133.048 253.771 137.63V137.661C253.776 142.242 255.602 146.635 258.848 149.874C262.093 153.114 266.494 154.937 271.084 154.942H271.535C274.146 154.94 276.649 153.903 278.495 152.061C280.341 150.218 281.379 147.719 281.382 145.113V130.177C281.376 127.572 280.336 125.076 278.491 123.234C276.646 121.392 274.145 120.354 271.535 120.348H271.084Z" fill="black"/>
</g>
<g clip-path="url(#clip1_1382_12645)">
<path d="M59.0471 50.1825C59.0471 49.2806 59.7854 48.5568 60.7054 48.5568C61.6253 48.5568 62.3633 49.2806 62.3633 50.1825C62.3633 51.0844 61.6253 51.8083 60.7054 51.8083C59.7854 51.8083 59.0471 51.0844 59.0471 50.1825ZM65.7933 50.1825C65.7933 49.2806 66.5316 48.5568 67.4515 48.5568C68.3712 48.5568 69.1095 49.2806 69.1095 50.1825C69.1095 51.0844 68.3712 51.8083 67.4515 51.8083C66.5316 51.8083 65.7933 51.0844 65.7933 50.1825ZM50.1546 50.1825C50.1546 49.2806 50.8925 48.5568 51.8128 48.5568C52.7325 48.5568 53.4708 49.2806 53.4708 50.1825C53.4708 51.0844 52.7325 51.8083 51.8128 51.8083C50.8925 51.8083 50.1546 51.0844 50.1546 50.1825ZM43.4084 50.1825C43.4084 49.2806 44.1464 48.5568 45.0663 48.5568C45.9866 48.5568 46.7246 49.2806 46.7246 50.1825C46.7246 51.0844 45.9866 51.8083 45.0663 51.8083C44.1464 51.8083 43.4084 51.0844 43.4084 50.1825ZM57.0481 47.3097H55.6058V52.9995H57.0481V47.3097ZM46.7133 52.9995H48.1556V47.3097H46.7133V47.7664C46.2248 47.4324 45.6343 47.2432 44.9985 47.2432C43.3402 47.2432 42 48.5568 42 50.1825C42 51.8194 43.3402 53.1218 44.9985 53.1218C45.6343 53.1218 46.2248 52.9327 46.7133 52.5986V52.9995ZM69.0982 52.9995H70.5405V47.3097H69.0982V47.7664C68.6097 47.4324 68.0191 47.2432 67.3833 47.2432C65.7251 47.2432 64.3852 48.5568 64.3852 50.1825C64.3852 51.8194 65.7251 53.1218 67.3833 53.1218C68.0191 53.1218 68.6097 52.9327 69.0982 52.5986V52.9995ZM71.0745 51.151C71.1197 52.2979 72.1192 53.1108 73.7888 53.1108C75.1516 53.1108 76.2759 52.5318 76.2759 51.2515C76.2759 50.3606 75.7648 49.8374 74.5837 49.6146L73.6637 49.4365C73.0731 49.3253 72.6642 49.2137 72.6642 48.8686C72.6642 48.4902 73.0618 48.3232 73.5616 48.3232C74.2885 48.3232 74.5837 48.6794 74.6063 49.1025H76.0603C75.9807 47.9889 75.0721 47.2432 73.6071 47.2432C72.0966 47.2432 71.1993 48.0557 71.1993 49.1136C71.1993 50.4053 72.267 50.6167 73.1869 50.7837L73.9478 50.9174C74.4928 51.0176 74.7314 51.1735 74.7314 51.4853C74.7314 51.7636 74.4589 52.0418 73.8114 52.0418C72.8688 52.0418 72.5621 51.5633 72.5508 51.151H71.0745ZM53.4594 45.3725V47.7664C52.971 47.4324 52.3804 47.2432 51.7446 47.2432C50.0864 47.2432 48.7462 48.5568 48.7462 50.1825C48.7462 51.8194 50.0864 53.1218 51.7446 53.1218C52.3804 53.1218 52.971 52.9327 53.4594 52.5986V52.9995H54.9018V45.3725H53.4594ZM62.352 45.3725V47.7664C61.8635 47.4324 61.273 47.2432 60.6372 47.2432C58.9789 47.2432 57.639 48.5568 57.639 50.1825C57.639 51.8194 58.9789 53.1218 60.6372 53.1218C61.273 53.1218 61.8635 52.9327 62.352 52.5986V52.9995H63.7943V45.3725H62.352ZM45.7477 43.6913L46.7246 45.3725H53.4594L50.7904 40.8518L45.7477 43.6913ZM57.0481 46.7865V45.3725H62.352L56.6961 35.7746L51.6421 38.6137L55.6058 45.3725V46.7865H57.0481ZM64.4987 45.3725H71.2449L62.5223 30.5747L57.48 33.425L64.4987 45.3725Z" fill="black"/>
</g>
<g clip-path="url(#clip2_1382_12645)">
<path d="M113.131 31.0255C110.513 28.4178 106.749 28.1265 102.149 28.1265C97.5439 28.1265 93.7743 28.4213 91.1576 31.0359C88.5415 33.6496 88.2759 37.4133 88.2759 42.0134C88.2759 46.6145 88.5415 50.3792 91.1586 52.9938C93.7753 55.609 97.5444 55.8736 102.149 55.8736C106.754 55.8736 110.523 55.609 113.14 52.9938C115.757 50.3787 116.023 46.6145 116.023 42.0134C116.023 37.4074 115.754 33.6397 113.131 31.0255Z" fill="#FF6700"/>
<path d="M110.03 36.8511H107.848C107.754 36.8511 107.678 36.9254 107.678 37.017V46.9772C107.678 47.068 107.754 47.1423 107.848 47.1423H110.03C110.123 47.1423 110.2 47.068 110.2 46.9772V37.017C110.2 36.9254 110.123 36.8511 110.03 36.8511Z" fill="white"/>
<path d="M102.578 36.8509H94.2628C94.1694 36.8509 94.0942 36.9253 94.0942 37.0169V46.9771C94.0942 47.0679 94.1694 47.1422 94.2628 47.1422H96.4462C96.5392 47.1422 96.6162 47.0679 96.6162 46.9771V39.1598C96.6162 39.0695 96.6913 38.9947 96.7848 38.9947H101.488C102.811 38.9947 103.186 40.0077 103.186 40.6612V46.9771C103.186 47.0679 103.262 47.1422 103.355 47.1422H105.537C105.63 47.1422 105.707 47.0679 105.707 46.9771V39.9113C105.707 39.3284 105.636 38.4904 104.885 37.7527C104.098 36.9827 103.38 36.8509 102.578 36.8509Z" fill="white"/>
<path d="M101.048 40.8182H98.7561C98.6627 40.8182 98.5859 40.8925 98.5859 40.9836V46.9779C98.5859 47.0685 98.6627 47.1428 98.7561 47.1428H101.048C101.141 47.1428 101.217 47.0685 101.217 46.9779V40.9836C101.217 40.8925 101.141 40.8182 101.048 40.8182Z" fill="white"/>
</g>
<g opacity="0.3">
<path d="M139.741 37.7812L131.304 46.2187" stroke="black" stroke-width="1.55" stroke-linecap="round" stroke-linejoin="round"/>
<path d="M139.741 46.2187L131.304 37.7812" stroke="black" stroke-width="1.55" stroke-linecap="round" stroke-linejoin="round"/>
</g>
<path d="M171.546 52.3125V31.6875C171.546 30.652 170.707 29.8125 169.671 29.8125H158.421C157.386 29.8125 156.546 30.652 156.546 31.6875V52.3125C156.546 53.348 157.386 54.1875 158.421 54.1875H169.671C170.707 54.1875 171.546 53.348 171.546 52.3125Z" stroke="black" stroke-width="2.325" stroke-linecap="round" stroke-linejoin="round"/>
<path d="M160.297 33.5625H167.797" stroke="black" stroke-width="2.325" stroke-linecap="round" stroke-linejoin="round"/>
<path d="M124.1 116.872C133.262 107.646 133.262 92.6888 124.1 83.4633C114.939 74.2378 100.085 74.2378 90.9234 83.4633C81.7619 92.6888 81.7619 107.646 90.9234 116.872C100.085 126.097 114.939 126.097 124.1 116.872Z" fill="white"/>
<path d="M123.049 82.4695C125.704 87.3465 126.564 93.0101 125.48 98.4632C124.395 103.916 121.435 108.809 117.12 112.281C112.805 115.752 107.413 117.58 101.892 117.442C96.3704 117.303 91.0747 115.208 86.9368 111.525C88.5816 114.547 90.8632 117.17 93.6214 119.21C96.3796 121.251 99.5478 122.658 102.904 123.335C106.259 124.012 109.722 123.941 113.047 123.128C116.373 122.315 119.482 120.779 122.156 118.627C124.829 116.476 127.003 113.762 128.525 110.675C130.047 107.588 130.88 104.203 130.965 100.758C131.05 97.3127 130.385 93.8904 129.018 90.7311C127.651 87.5718 125.613 84.752 123.049 82.4695Z" fill="#EDEDED"/>
<path d="M104.295 77.5771C108.185 77.0144 112.154 77.4802 115.812 78.9288C116.805 79.7171 118.352 81.114 119.251 82.6954C117.371 83.5091 115.614 84.5868 114.034 85.8965C112.268 84.9457 109.945 84.3076 107.934 83.8924C106.014 83.4957 104.357 83.2985 103.703 83.2289C102.922 81.6816 101.883 80.2809 100.632 79.0872C101.785 78.432 103.016 77.9246 104.295 77.5771ZM88.6531 112.567C88.1437 111.474 88.0978 110.134 88.1372 109.266C89.0671 109.819 90.8241 110.576 93.4773 110.576H93.4781C93.9609 110.575 94.4434 110.551 94.924 110.503C95.5122 111.459 96.153 112.381 96.8434 113.265L96.8435 113.266C97.9704 114.707 99.7171 116.649 101.719 117.842C101.526 119.583 101.622 120.835 101.715 121.507C100.903 121.593 100.084 121.572 99.2769 121.444C95.1005 119.792 91.5037 116.937 88.934 113.239L88.9768 113.235L88.8201 112.911L88.6538 112.568C88.6536 112.568 88.6533 112.567 88.6531 112.567ZM118.174 120.182L118.37 120.204C114.267 122.466 109.56 123.393 104.901 122.845C104.124 122.612 103.408 122.211 102.802 121.669C102.725 121.26 102.54 119.971 102.755 117.995C103.981 117.728 107.965 116.708 111.523 114.097C112.308 114.603 114.452 115.674 118.565 115.674C118.921 115.674 119.293 115.666 119.681 115.648C119.688 116.863 119.465 117.795 119.234 118.432C119.014 119.038 118.788 119.379 118.74 119.447L118.446 119.829L118.174 120.182ZM107.511 75.7501C94.1382 75.7501 83.2615 86.7053 83.2615 100.168C83.2615 113.63 94.1382 124.585 107.511 124.585C120.885 124.585 131.761 113.63 131.761 100.168C131.761 86.7053 120.885 75.7501 107.511 75.7501ZM94.8343 109.46C90.634 109.87 88.4396 108.246 88.1072 107.974C85.6355 104.07 85.2251 99.836 85.1755 99.196C86.516 94.4673 88.7884 91.9528 89.4163 91.3228C91.8454 91.6529 94.7826 91.7807 95.9714 91.8206C95.9079 93.3672 96.2344 97.2056 99.073 101.71C97.346 104.106 95.9221 106.709 94.8343 109.46ZM107.716 84.9119C109.734 85.3277 112.018 85.9594 113.661 86.8737C114.403 89.2625 116.35 94.3204 116.81 95.5085C114.862 98.3054 112.538 100.817 109.905 102.972C108.81 102.658 104.461 101.477 99.9981 101.231C96.9052 96.3625 96.9764 92.3449 97.0284 91.5405L103.571 84.2622C104.18 84.3254 105.819 84.5211 107.716 84.9119ZM88.7155 90.5615C88.177 91.084 86.591 92.7918 85.2385 95.9204C85.8942 92.4367 87.3509 89.1523 89.4945 86.333C88.7995 88.3537 88.7173 89.9562 88.7155 90.5615ZM120.018 114.59C115.073 114.889 112.671 113.598 112.034 113.181C112.012 112.03 111.848 107.333 110.631 103.724C113.281 101.544 115.626 99.014 117.602 96.2013C120.638 97.1645 124.1 97.8065 125.11 97.9872C125.453 98.9293 126.565 102.361 126.589 107.251C122.983 112.499 120.517 114.263 120.018 114.59ZM128.569 91.7126C130.599 96.8353 130.718 102.523 128.907 107.724L127.627 107.076C127.578 101.887 126.373 98.3749 126.05 97.5133C127.001 95.122 127.443 92.5016 127.607 91.322C127.932 91.4404 128.253 91.5707 128.569 91.7126ZM120.382 82.6123C120.002 81.8353 119.484 81.1072 118.929 80.457C122.85 82.7687 126.005 86.2119 127.976 90.3513C127.777 90.2786 127.614 90.2237 127.498 90.187C124.518 85.7175 121.052 83.0933 120.382 82.6123Z" fill="#1B2028" stroke="black" stroke-width="0.5"/>
<path opacity="0.6" d="M136.688 89.5C137.868 92.779 138.511 96.3144 138.511 99.9999C138.511 103.686 137.868 107.221 136.688 110.5M78.3349 89.5C77.1546 92.779 76.5115 96.3144 76.5115 99.9999C76.5115 103.686 77.1546 107.221 78.3349 110.5" stroke="url(#paint0_linear_1382_12645)" stroke-width="4" stroke-linecap="round" stroke-linejoin="round"/>
<path opacity="0.4" d="M143.961 83C146.241 88.0305 147.511 93.617 147.511 99.5C147.511 105.383 146.241 110.969 143.961 116M71.0624 83C68.7815 88.0305 67.5115 93.617 67.5115 99.5C67.5115 105.383 68.7815 110.969 71.0624 116" stroke="url(#paint1_linear_1382_12645)" stroke-width="4" stroke-linecap="round" stroke-linejoin="round"/>
<path opacity="0.2" d="M150.498 76C154.331 83.1227 156.511 91.3018 156.511 100C156.511 108.698 154.331 116.877 150.498 124M64.5254 124C60.6917 116.877 58.5115 108.698 58.5115 100C58.5115 91.3018 60.6917 83.1227 64.5254 76" stroke="url(#paint2_linear_1382_12645)" stroke-width="4" stroke-linecap="round" stroke-linejoin="round"/>
<circle cx="70.0115" cy="148" r="4" fill="#4DDA36"/>
<rect x="80.0115" y="146" width="70" height="4" rx="2" fill="#F0F0F0"/>
<rect x="80.0115" y="146" width="57" height="4" rx="2" fill="#4DDA36"/>
<g clip-path="url(#clip3_1382_12645)">
<path d="M69.1454 160.5C69.5303 159.833 70.4926 159.833 70.8775 160.5L74.3416 166.5C74.7265 167.167 74.2454 168 73.4756 168H66.5474C65.7776 168 65.2964 167.167 65.6813 166.5L69.1454 160.5Z" fill="#4DDA36"/>
</g>
<rect x="80.0115" y="162" width="70" height="4" rx="2" fill="#F0F0F0"/>
<rect x="80.0115" y="162" width="37" height="4" rx="2" fill="#4DDA36"/>
<defs>
<linearGradient id="paint0_linear_1382_12645" x1="82.7158" y1="78.8413" x2="82.7158" y2="98.5238" gradientUnits="userSpaceOnUse">
<stop stop-color="#00E65C"/>
<stop offset="1" stop-color="#01D052"/>
</linearGradient>
<linearGradient id="paint1_linear_1382_12645" x1="75.517" y1="72.1984" x2="75.517" y2="97.5953" gradientUnits="userSpaceOnUse">
<stop stop-color="#00E65C"/>
<stop offset="1" stop-color="#01D052"/>
</linearGradient>
<linearGradient id="paint2_linear_1382_12645" x1="68.3182" y1="65.9009" x2="68.3182" y2="97.6211" gradientUnits="userSpaceOnUse">
<stop stop-color="#00E65C"/>
<stop offset="1" stop-color="#01D052"/>
</linearGradient>
<clipPath id="clip0_1382_12645">
<rect width="126" height="205" fill="white" transform="translate(187 14)"/>
</clipPath>
<clipPath id="clip1_1382_12645">
<rect width="34.2759" height="22.8506" fill="white" transform="translate(42 30.5747)"/>
</clipPath>
<clipPath id="clip2_1382_12645">
<rect width="27.7471" height="27.7471" fill="white" transform="translate(88.2759 28.1265)"/>
</clipPath>
<clipPath id="clip3_1382_12645">
<rect width="10" height="10" fill="white" transform="translate(65.0115 159)"/>
</clipPath>
</defs>
</svg>
