<svg width="366" height="220" viewBox="0 0 366 220" fill="none" xmlns="http://www.w3.org/2000/svg">
<g clip-path="url(#clip0_1382_12761)">
<path d="M303.672 198.72H271.853C266.938 198.72 262.953 194.092 262.953 189.215V165.426H303.672V186.368L300.626 189.987L303.672 192.444V198.72Z" fill="#FFAF77"/>
<path d="M303.674 165.426H262.944V176.104H303.674V165.426Z" fill="#F08960"/>
<path d="M303.672 188.163H262.942C262.461 188.163 261.999 187.973 261.659 187.636C261.319 187.298 261.128 186.839 261.128 186.362V165.419C261.128 164.942 261.319 164.483 261.659 164.146C261.999 163.808 262.461 163.618 262.942 163.618H303.672C304.153 163.618 304.615 163.808 304.955 164.146C305.295 164.483 305.486 164.942 305.486 165.419V186.362C305.486 186.839 305.295 187.298 304.955 187.636C304.615 187.973 304.153 188.163 303.672 188.163ZM264.757 184.56H301.858V167.221H264.757V184.56Z" fill="black"/>
<path d="M262.944 194.255H303.672V205.063C303.672 208.547 302.278 211.888 299.797 214.351C297.317 216.815 293.952 218.199 290.443 218.199H276.173C272.665 218.199 269.3 216.815 266.819 214.351C264.338 211.888 262.944 208.547 262.944 205.063V194.255Z" fill="black"/>
<path d="M290.45 220.011H276.173C272.184 220.007 268.36 218.431 265.54 215.631C262.719 212.83 261.133 209.033 261.128 205.072V194.264C261.128 193.786 261.319 193.328 261.659 192.99C261.999 192.652 262.461 192.462 262.942 192.462H303.672C304.153 192.462 304.615 192.652 304.955 192.99C305.295 193.328 305.486 193.786 305.486 194.264V205.072C305.482 209.032 303.897 212.828 301.078 215.628C298.26 218.428 294.437 220.005 290.45 220.011ZM264.757 196.056V205.063C264.757 208.071 265.96 210.954 268.101 213.082C270.241 215.209 273.145 216.405 276.173 216.408H290.45C293.477 216.405 296.378 215.209 298.518 213.084C300.658 210.959 301.862 208.078 301.865 205.072V196.065L264.757 196.056Z" fill="black"/>
<path d="M303.672 184.882H262.942V192.966C262.95 195.486 263.961 197.899 265.755 199.681C267.549 201.462 269.98 202.466 272.517 202.474H293.564C294.891 202.474 296.206 202.215 297.432 201.71C298.659 201.206 299.773 200.467 300.712 199.535C301.651 198.603 302.395 197.496 302.903 196.278C303.411 195.061 303.672 193.755 303.672 192.437L300.626 189.98L303.672 186.362V184.882Z" fill="white"/>
<path d="M293.564 204.275H272.517C269.498 204.272 266.603 203.079 264.468 200.959C262.333 198.839 261.131 195.965 261.128 192.966V184.882C261.128 184.404 261.319 183.946 261.659 183.608C261.999 183.27 262.461 183.081 262.942 183.081H303.672C304.153 183.081 304.615 183.27 304.955 183.608C305.295 183.946 305.486 184.404 305.486 184.882V186.355C305.487 186.777 305.337 187.186 305.065 187.51L303.198 189.726L304.815 191.034C305.026 191.202 305.197 191.414 305.314 191.656C305.432 191.897 305.494 192.162 305.496 192.43C305.494 195.572 304.236 198.584 301.999 200.805C299.761 203.026 296.728 204.274 293.564 204.275ZM264.757 186.684V192.966C264.759 195.009 265.577 196.968 267.032 198.413C268.487 199.857 270.46 200.67 272.517 200.672H293.564C295.619 200.67 297.601 199.911 299.125 198.542C300.65 197.173 301.609 195.292 301.817 193.261L299.481 191.377C299.295 191.226 299.141 191.04 299.027 190.83C298.914 190.62 298.844 190.389 298.821 190.152C298.798 189.915 298.822 189.675 298.893 189.448C298.964 189.22 299.08 189.008 299.234 188.825L301.03 186.69L264.757 186.684Z" fill="black"/>
<path d="M236.276 139.464H300.626L309.526 171.056H295.197L291.589 166.64L287.967 171.056H261.275V165.426H236.276V139.464Z" fill="#37F9FF"/>
<path d="M309.523 172.857H295.197C294.926 172.856 294.659 172.795 294.416 172.678C294.172 172.561 293.958 172.392 293.788 172.182L291.584 169.48L289.373 172.182C289.204 172.391 288.99 172.561 288.747 172.678C288.503 172.794 288.237 172.856 287.967 172.857H261.275C260.794 172.857 260.333 172.668 259.992 172.33C259.652 171.992 259.461 171.534 259.461 171.056V167.228H236.276C235.795 167.228 235.333 167.038 234.993 166.7C234.653 166.362 234.461 165.904 234.461 165.426V139.462C234.461 138.984 234.653 138.526 234.993 138.188C235.333 137.851 235.795 137.661 236.276 137.661H300.626C301.023 137.661 301.408 137.789 301.724 138.027C302.04 138.265 302.268 138.599 302.375 138.978L311.272 170.572C311.347 170.839 311.359 171.121 311.307 171.394C311.254 171.667 311.139 171.924 310.969 172.146C310.8 172.367 310.581 172.546 310.33 172.67C310.08 172.793 309.803 172.857 309.523 172.857ZM296.061 169.254H307.133L299.25 141.264H238.09V163.625H261.275C261.756 163.625 262.218 163.815 262.558 164.152C262.898 164.49 263.09 164.948 263.09 165.426V169.254H287.105L290.18 165.503C290.349 165.293 290.563 165.124 290.806 165.007C291.05 164.89 291.316 164.829 291.586 164.827C291.857 164.828 292.124 164.89 292.368 165.007C292.611 165.123 292.826 165.293 292.995 165.503L296.061 169.254Z" fill="black"/>
<path d="M208.521 70.096C207.444 70.4764 206.564 71.266 206.073 72.2909C205.583 73.3158 205.523 74.4922 205.906 75.5612L217.926 109.114C218.7 111.276 219.896 113.265 221.445 114.968C222.994 116.671 224.866 118.054 226.954 119.039C229.041 120.024 231.304 120.591 233.612 120.707C235.92 120.824 238.228 120.487 240.406 119.718C242.439 119 244.298 117.863 245.858 116.382C247.419 114.901 248.647 113.11 249.462 111.125C250.276 109.14 250.66 107.007 250.587 104.865C250.514 102.723 249.986 100.62 249.037 98.6946L231.438 67.7293C230.659 66.3947 229.434 65.3731 227.975 64.8416C226.516 64.3102 224.917 64.3025 223.453 64.8199" fill="#FFAF77"/>
<path d="M234.502 122.551C230.495 122.541 226.589 121.303 223.317 119.005C220.046 116.708 217.569 113.463 216.225 109.715L204.205 76.1625C203.66 74.6434 203.746 72.9718 204.442 71.5153C205.139 70.0588 206.39 68.9367 207.92 68.3958C208.145 68.3122 208.385 68.274 208.625 68.2834C208.866 68.2927 209.102 68.3494 209.32 68.4502C209.538 68.551 209.734 68.6938 209.896 68.8704C210.058 69.047 210.183 69.2538 210.263 69.4788C210.344 69.7038 210.379 69.9425 210.366 70.181C210.353 70.4195 210.292 70.6531 210.188 70.8681C210.083 71.0831 209.936 71.2753 209.756 71.4334C209.576 71.5916 209.365 71.7126 209.138 71.7894C208.829 71.8983 208.545 72.0666 208.302 72.2846C208.058 72.5025 207.861 72.7659 207.72 73.0597C207.579 73.3535 207.498 73.672 207.482 73.9969C207.465 74.3217 207.513 74.6467 207.623 74.9532L219.643 108.506C221.047 112.422 223.96 115.624 227.741 117.408C231.522 119.192 235.863 119.411 239.807 118.018C241.595 117.385 243.228 116.386 244.601 115.085C245.974 113.785 247.056 112.211 247.776 110.468C248.496 108.725 248.838 106.85 248.781 104.967C248.723 103.084 248.266 101.233 247.441 99.5368L229.857 68.6142C229.289 67.6486 228.399 66.9106 227.341 66.5277C226.283 66.1449 225.123 66.1414 224.063 66.5178C223.609 66.6781 223.11 66.653 222.675 66.448C222.24 66.243 221.905 65.8748 221.744 65.4245C221.582 64.9742 221.608 64.4786 221.814 64.0468C222.021 63.615 222.391 63.2823 222.845 63.122C224.708 62.4643 226.744 62.4746 228.6 63.1512C230.456 63.8278 232.016 65.1279 233.008 66.8263L250.627 97.8186C250.646 97.8492 250.662 97.8807 250.677 97.9132C251.737 100.067 252.328 102.418 252.409 104.813C252.491 107.209 252.062 109.594 251.151 111.814C250.24 114.034 248.866 116.037 247.122 117.693C245.377 119.349 243.299 120.621 241.025 121.425C238.931 122.168 236.725 122.549 234.502 122.551Z" fill="black"/>
<path d="M300.626 139.462H236.276L233.123 123.46C232.588 120.743 232.665 117.941 233.349 115.256C234.033 112.571 235.307 110.07 237.08 107.931C238.852 105.793 241.08 104.071 243.602 102.889C246.124 101.706 248.879 101.093 251.668 101.093H293.067L300.626 139.462Z" fill="#37F9FF"/>
<path d="M300.626 141.264H236.276C235.855 141.264 235.448 141.119 235.123 140.853C234.798 140.588 234.576 140.219 234.495 139.809L231.343 123.807C230.756 120.828 230.84 117.757 231.59 114.815C232.339 111.872 233.736 109.13 235.679 106.787C237.622 104.443 240.063 102.556 242.827 101.26C245.592 99.9638 248.611 99.2916 251.668 99.2913H293.067C293.488 99.2913 293.895 99.4364 294.22 99.7017C294.545 99.9671 294.767 100.336 294.848 100.746L302.407 139.118C302.458 139.378 302.45 139.647 302.384 139.905C302.319 140.163 302.196 140.402 302.026 140.608C301.856 140.813 301.642 140.978 301.4 141.091C301.158 141.205 300.894 141.264 300.626 141.264ZM237.77 137.661H298.422L291.584 102.894H251.668C249.146 102.894 246.656 103.448 244.375 104.517C242.095 105.586 240.081 107.143 238.478 109.076C236.875 111.009 235.723 113.27 235.105 115.698C234.486 118.125 234.417 120.659 234.901 123.116L237.77 137.661Z" fill="black"/>
<path d="M237.727 192.617H228.202C221.647 192.617 217.404 185.222 220.377 178.98L226.177 166.8H255.433C259.366 166.8 261.912 171.236 260.13 174.981L258.089 179.284C254.179 187.465 246.316 192.617 237.727 192.617Z" fill="black"/>
<path d="M237.727 194.419H228.202C224.671 194.419 221.387 192.577 219.418 189.492C218.351 187.823 217.729 185.912 217.61 183.938C217.491 181.965 217.879 179.994 218.738 178.21L224.539 166.03C224.686 165.721 224.918 165.461 225.208 165.278C225.499 165.095 225.835 164.998 226.179 164.998H255.435C256.617 165.007 257.777 165.313 258.807 165.889C259.836 166.465 260.701 167.291 261.321 168.291C262.027 169.394 262.439 170.657 262.518 171.963C262.598 173.268 262.342 174.571 261.774 175.751L259.733 180.054C255.497 188.915 247.071 194.419 237.727 194.419ZM227.324 168.601L222.015 179.75C221.419 180.985 221.15 182.35 221.232 183.716C221.313 185.083 221.744 186.406 222.482 187.562C223.802 189.631 225.884 190.816 228.2 190.816H237.725C245.663 190.816 252.818 186.103 256.431 178.514L258.472 174.211C258.778 173.581 258.917 172.884 258.878 172.185C258.838 171.487 258.621 170.81 258.245 170.218C257.955 169.731 257.543 169.326 257.049 169.042C256.556 168.759 255.997 168.607 255.426 168.601H227.324Z" fill="black"/>
<path d="M217.127 153.194H254.97V167.755C254.97 168.987 254.726 170.207 254.251 171.346C253.776 172.484 253.08 173.518 252.202 174.39C251.325 175.261 250.283 175.952 249.136 176.424C247.99 176.895 246.761 177.138 245.52 177.138H236.026C231.014 177.138 226.207 175.161 222.663 171.642C219.119 168.123 217.127 163.35 217.127 158.373V153.194Z" fill="white"/>
<path d="M245.52 178.94H236.019C230.527 178.933 225.262 176.764 221.379 172.908C217.495 169.052 215.311 163.824 215.304 158.371V153.192C215.304 152.714 215.495 152.256 215.835 151.918C216.176 151.58 216.637 151.39 217.118 151.39H254.97C255.452 151.39 255.913 151.58 256.253 151.918C256.594 152.256 256.785 152.714 256.785 153.192V167.752C256.782 170.718 255.595 173.562 253.483 175.66C251.371 177.757 248.507 178.937 245.52 178.94ZM218.94 154.996V158.373C218.946 162.87 220.747 167.18 223.949 170.36C227.15 173.54 231.491 175.33 236.019 175.337H245.513C247.538 175.334 249.478 174.535 250.91 173.113C252.342 171.692 253.147 169.765 253.149 167.755V154.996H218.94Z" fill="black"/>
<path d="M236.444 131.964C225.784 131.964 217.125 141.196 217.125 152.606V153.282C217.125 159.499 221.843 164.541 227.662 164.541H245.52C248.026 164.541 250.43 163.553 252.202 161.793C253.975 160.033 254.97 157.646 254.97 155.158V146.97C254.969 142.989 253.375 139.172 250.539 136.358C247.704 133.544 243.859 131.964 239.85 131.964H236.444Z" fill="#FFAF77"/>
<path d="M245.52 166.334H227.662C220.858 166.334 215.311 160.479 215.311 153.273V152.597C215.311 140.212 224.791 130.153 236.444 130.153H239.846C244.335 130.158 248.64 131.932 251.814 135.084C254.989 138.236 256.775 142.51 256.78 146.968V155.158C256.775 158.121 255.587 160.961 253.476 163.056C251.365 165.151 248.504 166.33 245.52 166.334ZM236.444 133.765C226.791 133.765 218.94 142.216 218.94 152.606V153.282C218.94 158.497 222.854 162.74 227.662 162.74H245.52C247.545 162.738 249.486 161.939 250.918 160.517C252.349 159.096 253.154 157.168 253.156 155.158V146.97C253.15 143.468 251.746 140.112 249.252 137.637C246.758 135.162 243.377 133.769 239.85 133.765H236.444Z" fill="black"/>
<path d="M222.126 72.3387H223.999C226.405 72.3387 228.713 71.3897 230.414 69.7005C232.115 68.0113 233.071 65.7202 233.071 63.3313V46.3298C233.071 45.0379 232.554 43.799 231.634 42.8856C230.714 41.9722 229.467 41.459 228.166 41.459H227.032C225.731 41.4596 224.484 41.973 223.564 42.8864C222.645 43.7998 222.128 45.0383 222.128 46.3298C222.128 45.0379 221.611 43.799 220.691 42.8856C219.772 41.9722 218.524 41.459 217.223 41.459H216.497C215.196 41.459 213.948 41.9722 213.028 42.8856C212.108 43.799 211.591 45.0379 211.591 46.3298V49.4261C211.591 48.8266 211.472 48.233 211.241 47.6793C211.01 47.1256 210.67 46.6226 210.243 46.1993C209.815 45.7759 209.308 45.4404 208.75 45.212C208.192 44.9836 207.594 44.8668 206.99 44.8683H205.983C204.877 44.8683 203.817 45.3044 203.035 46.0806C202.254 46.8568 201.814 47.9095 201.814 49.0072V65.5336C201.814 69.3911 203.717 72.3478 207.019 72.3478" fill="#FFAF77"/>
<path d="M223.999 74.1403H222.137C221.656 74.1403 221.195 73.9505 220.854 73.6126C220.514 73.2748 220.323 72.8166 220.323 72.3388C220.323 71.861 220.514 71.4028 220.854 71.0649C221.195 70.7271 221.656 70.5373 222.137 70.5373H223.999C225.924 70.5373 227.77 69.7781 229.131 68.4267C230.492 67.0753 231.257 65.2425 231.257 63.3313V46.3298C231.256 45.5161 230.929 44.7361 230.35 44.1608C229.771 43.5854 228.985 43.2617 228.166 43.2605H227.032C226.212 43.2617 225.427 43.5855 224.848 44.1609C224.269 44.7363 223.943 45.5163 223.943 46.3298C223.943 46.8076 223.751 47.2658 223.411 47.6036C223.071 47.9415 222.609 48.1313 222.128 48.1313C221.647 48.1313 221.186 47.9415 220.845 47.6036C220.505 47.2658 220.314 46.8076 220.314 46.3298C220.313 45.5161 219.987 44.7361 219.407 44.1608C218.828 43.5854 218.042 43.2617 217.223 43.2605H216.497C215.678 43.2617 214.892 43.5854 214.313 44.1608C213.733 44.7361 213.407 45.5161 213.406 46.3298V49.4261C213.406 49.9039 213.215 50.3621 212.874 50.6999C212.534 51.0378 212.073 51.2276 211.591 51.2276C211.11 51.2276 210.649 51.0378 210.309 50.6999C209.968 50.3621 209.777 49.9039 209.777 49.4261C209.777 49.0633 209.704 48.7041 209.564 48.3691C209.424 48.0341 209.218 47.7298 208.959 47.4738C208.7 47.2178 208.393 47.015 208.055 46.877C207.717 46.739 207.355 46.6686 206.99 46.6698H205.983C205.359 46.6704 204.76 46.9169 204.319 47.3551C203.878 47.7933 203.629 48.3875 203.629 49.0073V65.5337C203.629 67.8463 204.515 70.5463 207.019 70.5463C207.5 70.5463 207.962 70.7361 208.302 71.0739C208.642 71.4118 208.834 71.87 208.834 72.3478C208.834 72.8256 208.642 73.2838 208.302 73.6216C207.962 73.9595 207.5 74.1493 207.019 74.1493C202.885 74.1493 200 70.6071 200 65.5337V49.0073C200.002 47.4323 200.633 45.9224 201.754 44.8087C202.876 43.6951 204.397 43.0686 205.983 43.0668H206.99C208.123 43.0652 209.235 43.3646 210.213 43.9338C210.702 42.6757 211.562 41.5938 212.682 40.8302C213.801 40.0666 215.127 39.657 216.486 39.6553H217.211C218.132 39.6551 219.042 39.8429 219.886 40.207C220.73 40.5712 221.489 41.1039 222.117 41.772C222.744 41.1039 223.503 40.5711 224.347 40.2069C225.19 39.8427 226.1 39.655 227.02 39.6553H228.154C229.038 39.6547 229.912 39.8269 230.729 40.162C231.545 40.4971 232.287 40.9885 232.912 41.6083C233.537 42.2281 234.033 42.9641 234.372 43.7742C234.71 44.5843 234.885 45.4527 234.885 46.3298V63.3313C234.882 66.1971 233.735 68.9447 231.694 70.9711C229.653 72.9975 226.886 74.1373 223.999 74.1403Z" fill="black"/>
<path d="M222.126 52.268C221.645 52.268 221.183 52.0782 220.843 51.7403C220.503 51.4025 220.312 50.9443 220.312 50.4665V46.3298C220.312 45.852 220.503 45.3938 220.843 45.056C221.183 44.7181 221.645 44.5283 222.126 44.5283C222.607 44.5283 223.069 44.7181 223.409 45.056C223.749 45.3938 223.94 45.852 223.94 46.3298V50.4665C223.94 50.9443 223.749 51.4025 223.409 51.7403C223.069 52.0782 222.607 52.268 222.126 52.268Z" fill="black"/>
<path d="M211.589 52.268C211.108 52.268 210.646 52.0782 210.306 51.7403C209.966 51.4025 209.775 50.9443 209.775 50.4665V49.4261C209.775 48.9483 209.966 48.4901 210.306 48.1523C210.646 47.8144 211.108 47.6246 211.589 47.6246C212.07 47.6246 212.532 47.8144 212.872 48.1523C213.212 48.4901 213.403 48.9483 213.403 49.4261V50.4665C213.403 50.9443 213.212 51.4025 212.872 51.7403C212.532 52.0782 212.07 52.268 211.589 52.268Z" fill="black"/>
<path d="M211.589 50.4664V52.2476C211.589 53.5347 211.074 54.769 210.158 55.6791C209.241 56.5891 207.998 57.1004 206.702 57.1004C205.406 57.1004 204.162 56.5891 203.246 55.6791C202.329 54.769 201.814 53.5347 201.814 52.2476V50.4619" fill="#FFAF77"/>
<path d="M206.702 58.9065C204.924 58.9047 203.22 58.2024 201.963 56.9539C200.707 55.7054 200.001 54.0128 200 52.2477V50.462C200 49.9842 200.191 49.526 200.531 49.1882C200.872 48.8503 201.333 48.6605 201.814 48.6605C202.296 48.6605 202.757 48.8503 203.097 49.1882C203.438 49.526 203.629 49.9842 203.629 50.462V52.2477C203.629 53.057 203.952 53.8331 204.529 54.4053C205.105 54.9775 205.887 55.299 206.702 55.299C207.517 55.299 208.298 54.9775 208.875 54.4053C209.451 53.8331 209.775 53.057 209.775 52.2477V50.462C209.775 49.9842 209.966 49.526 210.306 49.1882C210.646 48.8503 211.108 48.6605 211.589 48.6605C212.07 48.6605 212.532 48.8503 212.872 49.1882C213.212 49.526 213.404 49.9842 213.404 50.462V52.2477C213.402 54.0126 212.696 55.7049 211.44 56.9533C210.183 58.2016 208.479 58.9041 206.702 58.9065Z" fill="black"/>
<path d="M233.071 50.4664V52.2476C233.071 54.9274 230.481 57.1004 227.512 57.1004C224.544 57.1004 222.137 54.9274 222.137 52.2476V50.4619" fill="#FFAF77"/>
<path d="M227.501 58.9065C223.537 58.9065 220.312 55.9205 220.312 52.2522V50.4665C220.312 49.9887 220.503 49.5305 220.843 49.1927C221.183 48.8548 221.645 48.665 222.126 48.665C222.607 48.665 223.069 48.8548 223.409 49.1927C223.749 49.5305 223.94 49.9887 223.94 50.4665V52.2477C223.94 53.9299 225.528 55.299 227.501 55.299C229.474 55.299 231.257 53.8781 231.257 52.2477V50.462C231.257 49.9842 231.448 49.526 231.788 49.1882C232.128 48.8503 232.59 48.6605 233.071 48.6605C233.552 48.6605 234.014 48.8503 234.354 49.1882C234.694 49.526 234.885 49.9842 234.885 50.462V52.2477C234.885 55.8507 231.497 58.9065 227.501 58.9065Z" fill="black"/>
<path d="M222.146 50.4664V52.2476C222.146 54.9274 219.783 57.1004 216.867 57.1004C213.952 57.1004 211.589 54.9274 211.589 52.2476V50.4619" fill="#FFAF77"/>
<path d="M216.867 58.9065C212.957 58.9065 209.775 55.9205 209.775 52.2522V50.4665C209.775 49.9887 209.966 49.5305 210.306 49.1927C210.646 48.8548 211.108 48.665 211.589 48.665C212.07 48.665 212.532 48.8548 212.872 49.1927C213.212 49.5305 213.403 49.9887 213.403 50.4665V52.2477C213.403 53.9299 214.957 55.299 216.867 55.299C218.776 55.299 220.332 53.9299 220.332 52.2477V50.462C220.332 49.9842 220.523 49.526 220.863 49.1882C221.204 48.8503 221.665 48.6605 222.146 48.6605C222.628 48.6605 223.089 48.8503 223.429 49.1882C223.77 49.526 223.961 49.9842 223.961 50.462V52.2477C223.961 55.9205 220.779 58.9065 216.867 58.9065Z" fill="black"/>
<path d="M222.126 72.3387H227.174C229.58 72.3387 231.888 71.3897 233.589 69.7005C235.29 68.0113 236.246 65.7202 236.246 63.3313V60.2778C236.246 59.0833 235.768 57.9378 234.918 57.0932C234.067 56.2485 232.913 55.774 231.71 55.774H225.442C225.006 55.7738 224.575 55.8587 224.172 56.024C223.77 56.1894 223.404 56.4319 223.096 56.7377C222.789 57.0434 222.544 57.4065 222.378 57.806C222.211 58.2056 222.126 58.6338 222.126 59.0663C222.126 59.4987 222.211 59.9269 222.378 60.3265C222.544 60.7261 222.789 61.0891 223.096 61.3949C223.404 61.7006 223.77 61.9431 224.172 62.1085C224.575 62.2738 225.006 62.3588 225.442 62.3585H229.191" fill="#FFAF77"/>
<path d="M227.174 74.1403H222.117C221.636 74.1403 221.174 73.9505 220.834 73.6127C220.494 73.2748 220.303 72.8166 220.303 72.3388C220.303 71.861 220.494 71.4028 220.834 71.065C221.174 70.7271 221.636 70.5373 222.117 70.5373H227.174C229.099 70.5373 230.945 69.7781 232.306 68.4268C233.667 67.0754 234.432 65.2425 234.432 63.3314V60.2779C234.432 59.5612 234.145 58.8739 233.635 58.3671C233.124 57.8603 232.432 57.5756 231.71 57.5756H225.442C225.044 57.5756 224.662 57.7327 224.38 58.0123C224.099 58.2918 223.94 58.671 223.94 59.0664C223.94 59.4617 224.099 59.8409 224.38 60.1205C224.662 60.4 225.044 60.5571 225.442 60.5571H229.191C229.672 60.5571 230.133 60.7469 230.474 61.0847C230.814 61.4226 231.005 61.8808 231.005 62.3586C231.005 62.8364 230.814 63.2946 230.474 63.6324C230.133 63.9703 229.672 64.1601 229.191 64.1601H225.442C224.081 64.1601 222.776 63.6234 221.814 62.6682C220.852 61.7129 220.312 60.4173 220.312 59.0664C220.312 57.7154 220.852 56.4198 221.814 55.4646C222.776 54.5093 224.081 53.9727 225.442 53.9727H231.71C233.395 53.9727 235.01 54.637 236.201 55.8194C237.392 57.0019 238.061 58.6056 238.061 60.2779V63.3314C238.058 66.1972 236.91 68.9447 234.869 70.9712C232.828 72.9976 230.061 74.1373 227.174 74.1403Z" fill="black"/>
<path d="M306.178 28.2699H230.261V67.8959H306.178V28.2699Z" fill="black"/>
<path d="M306.176 69.6974H230.259C229.778 69.6974 229.316 69.5076 228.976 69.1697C228.636 68.8319 228.444 68.3737 228.444 67.8959V28.2632C228.444 27.7854 228.636 27.3272 228.976 26.9893C229.316 26.6515 229.778 26.4617 230.259 26.4617H306.176C306.657 26.4617 307.119 26.6515 307.459 26.9893C307.799 27.3272 307.99 27.7854 307.99 28.2632V67.8959C307.99 68.3737 307.799 68.8319 307.459 69.1697C307.119 69.5076 306.657 69.6974 306.176 69.6974ZM232.073 66.0944H304.362V30.0646H232.073V66.0944Z" fill="black"/>
<path d="M248.003 28.2698H282.852C287.572 28.2698 292.099 30.1315 295.436 33.4453C298.774 36.7591 300.649 41.2537 300.649 45.9401V71.8185C300.649 76.2543 299.769 80.6466 298.059 84.7447C296.35 88.8429 293.844 92.5665 290.685 95.7031C287.526 98.8397 283.776 101.328 279.648 103.025C275.521 104.723 271.097 105.596 266.63 105.596H248.003C243.283 105.596 238.757 103.735 235.419 100.421C232.082 97.107 230.207 92.6125 230.207 87.9261V45.9401C230.207 41.2537 232.082 36.7591 235.419 33.4453C238.757 30.1315 243.283 28.2698 248.003 28.2698Z" fill="#FFAF77"/>
<path d="M290.028 29.7786C290.028 29.9024 290.067 30.0195 290.067 30.1456V73.3205C290.067 76.5734 289.421 79.7945 288.168 82.7998C286.914 85.8051 285.076 88.5358 282.76 90.8359C280.443 93.1361 277.693 94.9606 274.666 96.2055C271.639 97.4503 268.395 98.091 265.119 98.091H233.459C235.098 100.409 237.275 102.302 239.806 103.608C242.337 104.914 245.148 105.596 248.001 105.596H266.637C271.104 105.596 275.528 104.723 279.655 103.025C283.783 101.328 287.533 98.8397 290.692 95.7031C293.851 92.5666 296.357 88.8429 298.066 84.7448C299.776 80.6467 300.656 76.2543 300.656 71.8185V45.9424C300.654 42.5149 299.649 39.1618 297.762 36.2918C295.875 33.4217 293.188 31.1587 290.028 29.7786Z" fill="#F08960"/>
<path d="M231.239 40.056H299.615C298.391 36.6114 296.122 33.6283 293.12 31.5174C290.118 29.4066 286.531 28.2719 282.852 28.2698H248.001C244.322 28.2719 240.735 29.4066 237.733 31.5174C234.731 33.6283 232.462 36.6114 231.239 40.056Z" fill="#F08960"/>
<path d="M266.637 107.398H248.001C242.802 107.391 237.818 105.338 234.142 101.687C230.466 98.0371 228.398 93.0881 228.392 87.9261V45.9424C228.398 40.7804 230.466 35.8314 234.142 32.1811C237.818 28.5308 242.802 26.4771 248.001 26.4706H282.852C288.053 26.4742 293.04 28.5266 296.718 32.1773C300.396 35.828 302.465 40.7786 302.47 45.9424V71.8185C302.47 91.43 286.388 107.398 266.637 107.398ZM248.001 30.0713C243.764 30.0761 239.701 31.7499 236.705 34.7254C233.709 37.7009 232.025 41.735 232.021 45.9424V87.9261C232.025 92.1331 233.71 96.1667 236.706 99.1417C239.702 102.117 243.764 103.79 248.001 103.795H266.637C284.395 103.795 298.841 89.4506 298.841 71.8185V45.9424C298.837 41.7354 297.152 37.7019 294.156 34.7268C291.161 31.7518 287.099 30.0783 282.861 30.0736L248.001 30.0713Z" fill="black"/>
<g opacity="0.7">
<path opacity="0.7" d="M241.721 40.056H237.389C236.346 40.056 235.5 40.8959 235.5 41.9318V42.7155C235.5 43.7515 236.346 44.5913 237.389 44.5913H241.721C242.764 44.5913 243.61 43.7515 243.61 42.7155V41.9318C243.61 40.8959 242.764 40.056 241.721 40.056Z" fill="white"/>
</g>
<path d="M293.287 60.6201H301.189C302.512 60.6201 303.781 61.1421 304.717 62.0711C305.653 63.0002 306.178 64.2603 306.178 65.5742V70.2198C306.178 71.5337 305.653 72.7938 304.717 73.7229C303.781 74.6519 302.512 75.1739 301.189 75.1739H293.287V60.6201Z" fill="#F08960"/>
<path d="M287.819 28.9883H299.733V65.0496C299.733 66.2213 299.264 67.3451 298.429 68.1737C297.595 69.0022 296.463 69.4677 295.283 69.4677H292.267C291.086 69.4677 289.955 69.0022 289.12 68.1737C288.286 67.3451 287.817 66.2213 287.817 65.0496V28.9883H287.819Z" fill="black"/>
<path d="M230.261 28.2699H304.037V35.969H238.002C235.949 35.969 233.98 35.1593 232.528 33.7179C231.077 32.2766 230.261 30.3218 230.261 28.2834V28.2721V28.2699Z" fill="black"/>
<path d="M304.039 28.9814H287.819V60.6178H304.039V28.9814Z" fill="black"/>
<path d="M286.991 19.2174H261.03V14.8015H240.084C237.479 14.8015 234.981 15.8283 233.139 17.6563C231.296 19.4843 230.261 21.9638 230.259 24.5498C230.259 25.7212 230.728 26.8444 231.563 27.6725C232.397 28.5005 233.529 28.9657 234.708 28.9657H286.991V19.2174Z" fill="black"/>
<path d="M286.991 30.7762H234.709C233.047 30.7744 231.453 30.1177 230.279 28.9502C229.104 27.7827 228.444 26.2 228.444 24.5498C228.448 21.4859 229.675 18.5486 231.857 16.3821C234.039 14.2156 236.998 12.9969 240.084 12.9933H261.03C261.511 12.9933 261.973 13.1831 262.313 13.5209C262.653 13.8588 262.845 14.317 262.845 14.7948V17.4159H286.991C287.473 17.4159 287.934 17.6057 288.274 17.9436C288.615 18.2814 288.806 18.7396 288.806 19.2174V28.9747C288.806 29.4525 288.615 29.9107 288.274 30.2486C287.934 30.5864 287.473 30.7762 286.991 30.7762ZM240.084 16.603C237.961 16.6054 235.926 17.4432 234.424 18.9328C232.923 20.4224 232.077 22.4423 232.073 24.5498C232.074 25.2434 232.352 25.9083 232.846 26.3988C233.34 26.8892 234.01 27.1653 234.709 27.1665H285.177V21.0189H261.03C260.549 21.0189 260.088 20.8291 259.747 20.4913C259.407 20.1534 259.216 19.6952 259.216 19.2174V16.603H240.084Z" fill="black"/>
<path d="M306.131 28.9725L286.991 28.9725V21.9782L299.102 21.9782C300.967 21.9782 302.755 22.7137 304.074 24.0228C305.392 25.332 306.133 27.1076 306.133 28.959V28.9747L306.131 28.9725Z" fill="black"/>
<path d="M306.131 30.7762H286.991C286.51 30.7762 286.049 30.5864 285.708 30.2486C285.368 29.9107 285.177 29.4525 285.177 28.9747V21.9804C285.177 21.5027 285.368 21.0444 285.708 20.7066C286.049 20.3688 286.51 20.179 286.991 20.179H299.1C301.446 20.179 303.695 21.1042 305.354 22.7512C307.013 24.3982 307.945 26.632 307.945 28.9612C307.945 29.4402 307.754 29.8999 307.414 30.2399C307.074 30.5798 306.613 30.7726 306.131 30.7762ZM288.806 27.1732H304.001C303.633 26.1791 302.966 25.321 302.091 24.7146C301.217 24.1082 300.176 23.7827 299.109 23.7819H288.806V27.1732Z" fill="black"/>
<path d="M277.13 75.1716H267.317C265.357 75.1716 263.477 74.3987 262.091 73.0229C260.705 71.6471 259.926 69.781 259.926 67.835V58.8501C259.926 57.5853 260.177 56.3329 260.664 55.1644C261.152 53.9959 261.866 52.9341 262.767 52.0398C263.668 51.1454 264.737 50.436 265.914 49.952C267.091 49.468 268.352 49.2189 269.626 49.2189H274.828C276.102 49.2189 277.363 49.468 278.54 49.952C279.717 50.4361 280.786 51.1456 281.687 52.0399C282.587 52.9343 283.301 53.996 283.789 55.1645C284.276 56.333 284.526 57.5854 284.526 58.8501V67.835C284.526 68.799 284.335 69.7536 283.963 70.6441C283.591 71.5347 283.046 72.3438 282.36 73.0251C281.673 73.7065 280.857 74.2467 279.96 74.615C279.063 74.9833 278.101 75.1724 277.13 75.1716Z" fill="white"/>
<path d="M269.898 55.1638H265.451C262.993 55.1638 261.001 57.1419 261.001 59.582V63.9979C261.001 66.4379 262.993 68.416 265.451 68.416H269.898C272.355 68.416 274.348 66.4379 274.348 63.9979V59.582C274.348 57.1419 272.355 55.1638 269.898 55.1638Z" fill="black"/>
<path d="M259.919 56.1479C259.438 56.1479 258.976 55.9581 258.636 55.6202C258.296 55.2824 258.105 54.8242 258.105 54.3464C258.105 52.2679 258.687 50.6353 259.84 49.4936C261.942 47.4084 265.249 47.4129 269.081 47.4174H274.819C275.301 47.4174 275.762 47.6072 276.102 47.9451C276.443 48.2829 276.634 48.7411 276.634 49.2189C276.634 49.6967 276.443 50.1549 276.102 50.4927C275.762 50.8306 275.301 51.0204 274.819 51.0204H269.077C266.176 51.0204 263.441 51.0204 262.405 52.0427C262.239 52.2071 261.724 52.7183 261.724 54.3464C261.724 54.8226 261.534 55.2795 261.196 55.6171C260.858 55.9546 260.399 56.1455 259.919 56.1479Z" fill="black"/>
<path d="M234.656 49.2211H235.564C237.922 49.2235 240.182 50.1553 241.849 51.8117C243.516 53.4682 244.452 55.7138 244.452 58.0552V68.1052C244.452 69.9799 243.702 71.7779 242.367 73.1035C241.031 74.4291 239.221 75.1738 237.333 75.1738C235.444 75.1738 233.634 74.4291 232.299 73.1035C230.964 71.7779 230.214 69.9799 230.214 68.1052V53.637C230.214 52.4653 230.682 51.3415 231.517 50.5129C232.351 49.6844 233.483 49.2189 234.663 49.2189L234.656 49.2211Z" fill="white"/>
<path d="M242.83 55.1638H238.383C235.925 55.1638 233.933 57.1419 233.933 59.582V63.9979C233.933 66.4379 235.925 68.416 238.383 68.416H242.83C245.287 68.416 247.28 66.4379 247.28 63.9979V59.582C247.28 57.1419 245.287 55.1638 242.83 55.1638Z" fill="black"/>
<path d="M244.454 55.353C243.973 55.353 243.511 55.1632 243.171 54.8253C242.831 54.4875 242.64 54.0293 242.64 53.5515C242.64 52.6508 242.472 52.027 242.145 51.705C241.39 50.9641 239.226 50.9866 236.929 51.0114C236.475 51.0114 236.022 51.0114 235.552 51.0114H234.645C234.164 51.0114 233.702 50.8216 233.362 50.4838C233.022 50.1459 232.831 49.6877 232.831 49.2099C232.831 48.7321 233.022 48.2739 233.362 47.9361C233.702 47.5982 234.164 47.4084 234.645 47.4084H235.552C236.006 47.4084 236.459 47.4084 236.888 47.4084C239.959 47.3769 242.862 47.3454 244.692 49.1424C245.749 50.1827 246.264 51.6194 246.264 53.5515C246.264 54.0285 246.073 54.486 245.734 54.8238C245.395 55.1615 244.934 55.3518 244.454 55.353Z" fill="black"/>
<path d="M252.997 78.9705H251.682C248.914 78.9705 246.67 81.1986 246.67 83.9471V92.0087C246.67 94.7572 248.914 96.9853 251.682 96.9853H252.997C255.765 96.9853 258.009 94.7572 258.009 92.0087V83.9471C258.009 81.1986 255.765 78.9705 252.997 78.9705Z" fill="black"/>
<path d="M317.479 70.096C318.556 70.4764 319.436 71.2659 319.927 72.2909C320.417 73.3158 320.478 74.4922 320.094 75.5612L308.074 109.114C307.299 111.276 306.103 113.265 304.554 114.968C303.005 116.671 301.133 118.055 299.045 119.039C296.957 120.024 294.695 120.591 292.387 120.707C290.078 120.824 287.77 120.487 285.592 119.718C283.558 119 281.7 117.863 280.14 116.382C278.579 114.901 277.351 113.11 276.536 111.125C275.721 109.14 275.338 107.007 275.411 104.865C275.484 102.723 276.012 100.62 276.96 98.6946L294.569 67.7202C295.348 66.3856 296.573 65.364 298.032 64.8326C299.49 64.3012 301.09 64.2935 302.554 64.8108" fill="#FFAF77"/>
<path d="M291.466 122.542C289.253 122.539 287.058 122.158 284.975 121.416C282.701 120.612 280.624 119.34 278.879 117.684C277.134 116.028 275.76 114.025 274.849 111.805C273.938 109.586 273.509 107.2 273.59 104.805C273.671 102.409 274.261 100.058 275.321 97.9041C275.337 97.8704 275.355 97.8388 275.371 97.8096L292.981 66.8352C293.972 65.1341 295.532 63.8313 297.39 63.153C299.247 62.4747 301.286 62.4637 303.151 63.1219C303.604 63.282 303.975 63.6144 304.182 64.046C304.388 64.4775 304.414 64.973 304.253 65.4233C304.092 65.8736 303.757 66.2419 303.322 66.4471C302.887 66.6524 302.388 66.6778 301.935 66.5177C300.87 66.1398 299.705 66.1444 298.642 66.5306C297.58 66.9169 296.687 67.6605 296.12 68.6322L278.559 99.5367C277.732 101.234 277.274 103.085 277.215 104.969C277.156 106.853 277.498 108.729 278.218 110.473C278.938 112.218 280.02 113.792 281.394 115.094C282.767 116.395 284.402 117.395 286.191 118.027C290.135 119.416 294.474 119.194 298.254 117.411C302.034 115.628 304.948 112.428 306.355 108.515L318.375 74.9622C318.485 74.6557 318.533 74.3307 318.516 74.0058C318.499 73.6809 318.418 73.3625 318.278 73.0687C318.137 72.7749 317.939 72.5115 317.696 72.2935C317.453 72.0756 317.169 71.9073 316.86 71.7983C316.632 71.7216 316.422 71.6006 316.242 71.4424C316.062 71.2842 315.915 71.0921 315.81 70.877C315.705 70.662 315.645 70.4285 315.632 70.19C315.619 69.9514 315.654 69.7127 315.734 69.4877C315.815 69.2627 315.94 69.0559 316.102 68.8793C316.264 68.7027 316.46 68.5599 316.678 68.4591C316.896 68.3584 317.132 68.3017 317.373 68.2923C317.613 68.283 317.853 68.3212 318.078 68.4048C319.608 68.9456 320.859 70.0677 321.555 71.5242C322.252 72.9807 322.338 74.6524 321.793 76.1714L309.773 109.724C308.425 113.474 305.942 116.719 302.665 119.013C299.388 121.308 295.476 122.54 291.466 122.542Z" fill="black"/>
<path d="M303.874 72.3387H302.017C299.611 72.3387 297.303 71.3897 295.602 69.7005C293.901 68.0113 292.945 65.7202 292.945 63.3313V46.3298C292.945 45.0381 293.462 43.7996 294.382 42.8863C295.302 41.9729 296.55 41.4596 297.85 41.459H298.984C300.285 41.4596 301.533 41.9729 302.452 42.8863C303.372 43.7996 303.889 45.0381 303.89 46.3298C303.89 45.0383 304.406 43.7998 305.326 42.8864C306.245 41.973 307.493 41.4596 308.793 41.459H309.501C310.802 41.4596 312.049 41.9729 312.969 42.8863C313.889 43.7996 314.406 45.0381 314.406 46.3298V49.4261C314.406 48.2173 314.89 47.058 315.751 46.2032C316.612 45.3485 317.779 44.8683 318.997 44.8683H320.01C320.558 44.868 321.1 44.9748 321.606 45.1827C322.112 45.3906 322.572 45.6954 322.959 46.0798C323.347 46.4641 323.654 46.9205 323.864 47.4228C324.073 47.9251 324.181 48.4635 324.181 49.0072V65.5336C324.181 69.3911 322.276 72.3478 318.965 72.3478" fill="#FFAF77"/>
<path d="M318.978 74.1402C318.497 74.1402 318.036 73.9504 317.695 73.6126C317.355 73.2747 317.164 72.8165 317.164 72.3387C317.164 71.8609 317.355 71.4027 317.695 71.0649C318.036 70.727 318.497 70.5372 318.978 70.5372C321.473 70.5372 322.38 67.835 322.38 65.5246V49.0072C322.379 48.3872 322.13 47.7931 321.689 47.3549C321.247 46.9167 320.648 46.6704 320.024 46.6698H319.01C318.274 46.6704 317.568 46.9609 317.048 47.4777C316.527 47.9945 316.235 48.6952 316.234 49.426C316.234 49.9038 316.043 50.362 315.703 50.6999C315.363 51.0377 314.901 51.2275 314.42 51.2275C313.939 51.2275 313.477 51.0377 313.137 50.6999C312.797 50.362 312.606 49.9038 312.606 49.426V46.3297C312.605 45.9257 312.524 45.5257 312.368 45.1527C312.211 44.7797 311.982 44.441 311.694 44.156C311.406 43.8709 311.063 43.6451 310.687 43.4914C310.311 43.3377 309.908 43.2593 309.501 43.2604H308.773C307.953 43.2616 307.168 43.5855 306.589 44.1609C306.01 44.7363 305.684 45.5163 305.684 46.3297C305.684 46.8075 305.493 47.2657 305.152 47.6036C304.812 47.9414 304.351 48.1312 303.869 48.1312C303.388 48.1312 302.927 47.9414 302.586 47.6036C302.246 47.2657 302.055 46.8075 302.055 46.3297C302.054 45.5161 301.728 44.7361 301.148 44.1607C300.569 43.5854 299.783 43.2616 298.964 43.2604H297.83C297.014 43.267 296.234 43.5931 295.659 44.1679C295.084 44.7426 294.76 45.5196 294.759 46.3297V63.3313C294.759 65.2424 295.524 67.0753 296.885 68.4267C298.246 69.778 300.092 70.5372 302.016 70.5372H303.881C304.362 70.5372 304.823 70.727 305.164 71.0649C305.504 71.4027 305.695 71.8609 305.695 72.3387C305.695 72.8165 305.504 73.2747 305.164 73.6126C304.823 73.9504 304.362 74.1402 303.881 74.1402H302.016C299.13 74.1366 296.364 72.9967 294.323 70.9704C292.282 68.9441 291.134 66.1969 291.13 63.3313V46.3297C291.132 44.5607 291.841 42.8646 293.101 41.6137C294.36 40.3628 296.069 39.6593 297.85 39.6575H298.984C299.904 39.6573 300.815 39.8451 301.659 40.2092C302.503 40.5734 303.262 41.1061 303.89 41.7742C304.517 41.1061 305.276 40.5733 306.12 40.2091C306.963 39.8449 307.873 39.6572 308.793 39.6575H309.501C310.859 39.6588 312.185 40.0682 313.304 40.8318C314.423 41.5955 315.283 42.6777 315.772 43.936C316.749 43.3664 317.863 43.067 318.997 43.069H320.01C321.597 43.0708 323.118 43.6972 324.24 44.8108C325.362 45.9244 325.993 47.4343 325.995 49.0094V65.5336C326 70.598 323.108 74.1402 318.978 74.1402Z" fill="black"/>
<path d="M303.874 52.2678C303.393 52.2678 302.931 52.078 302.591 51.7402C302.251 51.4024 302.06 50.9441 302.06 50.4664V46.3297C302.06 45.8519 302.251 45.3937 302.591 45.0558C302.931 44.718 303.393 44.5282 303.874 44.5282C304.355 44.5282 304.817 44.718 305.157 45.0558C305.497 45.3937 305.688 45.8519 305.688 46.3297V50.4664C305.688 50.9441 305.497 51.4024 305.157 51.7402C304.817 52.078 304.355 52.2678 303.874 52.2678Z" fill="black"/>
<path d="M314.411 52.2678C313.93 52.2678 313.468 52.078 313.128 51.7402C312.788 51.4024 312.596 50.9441 312.596 50.4664V49.426C312.596 48.9482 312.788 48.49 313.128 48.1522C313.468 47.8143 313.93 47.6245 314.411 47.6245C314.892 47.6245 315.353 47.8143 315.694 48.1522C316.034 48.49 316.225 48.9482 316.225 49.426V50.4664C316.225 50.9441 316.034 51.4024 315.694 51.7402C315.353 52.078 314.892 52.2678 314.411 52.2678Z" fill="black"/>
<path d="M314.411 50.4664V52.2476C314.411 53.5347 314.926 54.769 315.842 55.6791C316.759 56.5891 318.002 57.1004 319.298 57.1004C320.595 57.1004 321.838 56.5891 322.754 55.6791C323.671 54.769 324.186 53.5347 324.186 52.2476V50.4619" fill="#FFAF77"/>
<path d="M319.298 58.9064C317.521 58.9046 315.816 58.2023 314.56 56.9538C313.303 55.7053 312.597 54.0127 312.596 52.2476V50.4619C312.596 49.9841 312.788 49.5259 313.128 49.188C313.468 48.8502 313.93 48.6604 314.411 48.6604C314.892 48.6604 315.353 48.8502 315.694 49.188C316.034 49.5259 316.225 49.9841 316.225 50.4619V52.2476C316.225 53.0569 316.549 53.833 317.125 54.4052C317.702 54.9774 318.483 55.2989 319.298 55.2989C320.113 55.2989 320.895 54.9774 321.471 54.4052C322.047 53.833 322.371 53.0569 322.371 52.2476V50.4619C322.371 49.9841 322.562 49.5259 322.903 49.188C323.243 48.8502 323.704 48.6604 324.186 48.6604C324.667 48.6604 325.128 48.8502 325.469 49.188C325.809 49.5259 326 49.9841 326 50.4619V52.2476C325.999 54.0125 325.292 55.7048 324.036 56.9532C322.78 58.2015 321.076 58.904 319.298 58.9064Z" fill="black"/>
<path d="M292.945 50.4664V52.2476C292.945 54.9274 295.535 57.1004 298.504 57.1004C301.472 57.1004 303.881 54.9274 303.881 52.2476V50.4619" fill="#FFAF77"/>
<path d="M298.497 58.9064C294.501 58.9064 291.13 55.8506 291.13 52.2476V50.4619C291.13 49.9841 291.322 49.5259 291.662 49.188C292.002 48.8502 292.464 48.6604 292.945 48.6604C293.426 48.6604 293.887 48.8502 294.228 49.188C294.568 49.5259 294.759 49.9841 294.759 50.4619V52.2476C294.759 53.8735 296.51 55.2989 298.503 55.2989C300.497 55.2989 302.066 53.9298 302.066 52.2476V50.4619C302.066 49.9841 302.258 49.5259 302.598 49.188C302.938 48.8502 303.4 48.6604 303.881 48.6604C304.362 48.6604 304.823 48.8502 305.164 49.188C305.504 49.5259 305.695 49.9841 305.695 50.4619V52.2476C305.688 55.9204 302.47 58.9064 298.497 58.9064Z" fill="black"/>
<path d="M303.851 50.4664V52.2476C303.851 54.9274 306.215 57.1004 309.131 57.1004C312.045 57.1004 314.411 54.9274 314.411 52.2476V50.4619" fill="#FFAF77"/>
<path d="M309.131 58.9064C305.219 58.9064 302.037 55.9204 302.037 52.2521V50.4664C302.037 49.9886 302.228 49.5304 302.568 49.1925C302.909 48.8547 303.37 48.6649 303.851 48.6649C304.333 48.6649 304.794 48.8547 305.134 49.1925C305.475 49.5304 305.666 49.9886 305.666 50.4664V52.2476C305.666 53.9298 307.221 55.2989 309.131 55.2989C311.041 55.2989 312.597 53.9298 312.597 52.2476V50.4619C312.597 49.9841 312.788 49.5259 313.128 49.188C313.468 48.8502 313.93 48.6604 314.411 48.6604C314.892 48.6604 315.354 48.8502 315.694 49.188C316.034 49.5259 316.225 49.9841 316.225 50.4619V52.2476C316.225 55.9204 313.043 58.9064 309.131 58.9064Z" fill="black"/>
<path d="M303.874 72.3387H298.817C296.411 72.3387 294.103 71.3897 292.402 69.7005C290.701 68.0113 289.745 65.7202 289.745 63.3313V60.2778C289.745 59.0833 290.223 57.9378 291.073 57.0932C291.924 56.2485 293.078 55.774 294.281 55.774H300.558C301.438 55.774 302.281 56.1209 302.903 56.7383C303.525 57.3557 303.874 58.1931 303.874 59.0663C303.874 59.9394 303.525 60.7768 302.903 61.3942C302.281 62.0116 301.438 62.3585 300.558 62.3585H296.8" fill="#FFAF77"/>
<path d="M303.874 74.1402H298.814C295.928 74.1366 293.161 72.9967 291.121 70.9704C289.08 68.9441 287.932 66.1969 287.928 63.3313V60.2777C287.928 58.6055 288.597 57.0017 289.788 55.8193C290.979 54.6368 292.594 53.9725 294.278 53.9725H300.558C301.919 53.9725 303.224 54.5092 304.186 55.4644C305.148 56.4197 305.688 57.7153 305.688 59.0662C305.688 60.4172 305.148 61.7128 304.186 62.668C303.224 63.6233 301.919 64.1599 300.558 64.1599H296.8C296.319 64.1599 295.858 63.9701 295.517 63.6323C295.177 63.2945 294.986 62.8362 294.986 62.3585C294.986 61.8807 295.177 61.4225 295.517 61.0846C295.858 60.7468 296.319 60.557 296.8 60.557H300.549C300.947 60.557 301.329 60.3999 301.611 60.1203C301.892 59.8408 302.051 59.4616 302.051 59.0662C302.051 58.6709 301.892 58.2917 301.611 58.0121C301.329 57.7326 300.947 57.5755 300.549 57.5755H294.278C293.557 57.5755 292.864 57.8602 292.354 58.367C291.844 58.8737 291.557 59.5611 291.557 60.2777V63.3313C291.557 65.2424 292.321 67.0753 293.682 68.4266C295.043 69.778 296.889 70.5372 298.814 70.5372H303.874C304.355 70.5372 304.817 70.727 305.157 71.0649C305.497 71.4027 305.688 71.8609 305.688 72.3387C305.688 72.8165 305.497 73.2747 305.157 73.6126C304.817 73.9504 304.355 74.1402 303.874 74.1402Z" fill="black"/>
</g>
<path d="M70.5089 53.1506C70.313 54.4406 69.9391 55.6977 69.3977 56.8866C69.1655 57.4133 68.9499 57.8412 68.8007 58.1539C68.7265 58.3257 68.6377 58.4908 68.5353 58.6476C68.1816 58.3609 67.874 58.0224 67.6231 57.6437C67.0045 56.7278 66.7125 55.6327 66.7939 54.5331C66.9333 53.117 67.4047 51.753 68.1704 50.5501C68.3363 50.2703 68.5021 50.007 68.6514 49.793C68.7845 49.5934 68.9284 49.4011 69.0826 49.217L69.4806 48.7233C69.7598 49.0953 69.9833 49.5055 70.144 49.9412C70.3164 50.3919 70.4334 50.8616 70.4923 51.3401C70.5818 51.94 70.5874 52.5492 70.5089 53.1506Z" fill="#082148"/>
<path d="M64.9027 62.9928C65.0636 64.4227 65.0301 65.8675 64.8032 67.2884C64.8032 67.6012 64.7203 67.8809 64.6705 68.1443C64.6208 68.4076 64.5876 68.6216 64.5544 68.8191L64.4218 69.4116C63.9552 69.2126 63.524 68.9402 63.1447 68.6051C62.7443 68.2585 62.3928 67.8599 62.0999 67.4201C61.7396 66.8365 61.4817 66.1965 61.337 65.5274C61.0773 63.99 61.1737 62.414 61.6189 60.9191C61.7662 60.3596 61.949 59.8099 62.1662 59.2732C62.3321 58.8618 62.4482 58.6313 62.4482 58.6313L62.7633 58.8947C63.0344 59.1481 63.2841 59.4234 63.5096 59.7176C63.8415 60.1344 64.1148 60.594 64.3223 61.0837C64.6012 61.6913 64.7965 62.3335 64.9027 62.9928Z" fill="#082148"/>
<path d="M62.0346 73.9706C62.6224 75.4384 63.0398 76.9679 63.2785 78.5296C63.2785 78.8587 63.378 79.1879 63.4278 79.4677C63.4775 79.7475 63.4278 79.9944 63.5273 80.2083C63.6268 80.4223 63.6102 80.8667 63.6102 80.8667C63.4557 80.8788 63.3004 80.8788 63.1458 80.8667C62.7544 80.7943 62.3712 80.6841 62.0015 80.5375C61.4615 80.3107 60.9585 80.0057 60.5088 79.6323C59.9212 79.1334 59.432 78.5308 59.0659 77.8548C58.2919 76.2607 57.9164 74.5049 57.9713 72.7362C57.9454 72.3746 57.9454 72.0116 57.9713 71.65C57.9713 71.3208 57.9713 71.0246 57.9713 70.7777C57.9713 70.5308 58.0874 70.0206 58.0874 70.0206C58.6106 70.2362 59.0973 70.5304 59.5303 70.8929C59.9895 71.2576 60.4067 71.6716 60.7742 72.1273C61.2708 72.6866 61.6944 73.306 62.0346 73.9706Z" fill="#082148"/>
<path d="M62.6145 85.3926C63.7483 86.6864 64.7277 88.1057 65.5335 89.6224L65.7989 90.0996C65.8818 90.2478 65.9647 90.3795 66.031 90.5276C66.0974 90.6757 66.313 91.0378 66.4125 91.2517L66.7442 91.8936C66.582 91.9462 66.4155 91.9848 66.2467 92.0088C65.8112 92.0564 65.3719 92.0564 64.9364 92.0088C63.462 91.9365 62.0596 91.3542 60.9726 90.363C59.584 88.9826 58.5538 87.2882 57.9707 85.4255C57.8215 85.014 57.722 84.619 57.6225 84.257C57.5229 83.8949 57.4566 83.5822 57.4068 83.3188C57.3073 82.7757 57.2742 82.4465 57.2742 82.4465H57.7717C58.2069 82.5385 58.634 82.6651 59.0488 82.8251C59.6297 83.0598 60.1854 83.3521 60.7073 83.6974C61.0261 83.908 61.3308 84.1389 61.6194 84.3887C61.9805 84.6933 62.3136 85.0293 62.6145 85.3926Z" fill="#082148"/>
<path d="M66.86 96.0576L67.4902 96.4197L68.1039 96.8147L69.2648 97.6705L69.8121 98.1149L70.0775 98.3453L70.3428 98.5592L71.3048 99.4151C71.9184 99.9253 72.3994 100.419 72.7642 100.748L73.3281 101.308C73.181 101.413 73.0258 101.507 72.8638 101.588C72.4533 101.81 72.0195 101.986 71.5701 102.114C70.9083 102.307 70.2192 102.39 69.5302 102.361C68.6197 102.33 67.724 102.123 66.8932 101.752C64.9922 100.809 63.3525 99.4192 62.1167 97.7034C61.8347 97.3249 61.586 96.9463 61.3704 96.6172C61.1548 96.288 60.9557 95.9753 60.8231 95.7119C60.5411 95.1853 60.3918 94.8726 60.3918 94.8726L60.9392 94.7738C61.4135 94.7277 61.8912 94.7277 62.3655 94.7738L63.3274 94.8726C63.6757 94.8726 64.0405 95.0042 64.422 95.103C64.8035 95.2017 65.2015 95.3499 65.5995 95.5144C66.0323 95.6653 66.4535 95.8468 66.86 96.0576Z" fill="#082148"/>
<path d="M74.2571 104.879C75.2866 105.091 76.3006 105.372 77.2922 105.719C77.7731 105.883 78.2541 106.048 78.7019 106.229L79.3653 106.492L79.9789 106.723C80.7916 107.052 81.4882 107.315 81.9691 107.546L82.5496 107.792L82.7486 107.875C82.6411 108.035 82.5249 108.188 82.4003 108.336C82.0734 108.724 81.7003 109.073 81.2891 109.373C80.6949 109.809 80.0342 110.147 79.3321 110.376C78.8959 110.521 78.4457 110.62 77.9887 110.673C77.4373 110.727 76.8817 110.727 76.3302 110.673C75.7715 110.61 75.2175 110.511 74.6717 110.376C74.1084 110.209 73.5547 110.011 73.0132 109.784C72.4659 109.537 71.9352 109.274 71.3547 108.994C70.7743 108.714 70.3928 108.401 69.945 108.105L69.6299 107.891L69.3314 107.661L68.8006 107.233C68.4524 106.953 68.1538 106.706 67.9216 106.476C67.6894 106.245 67.1919 105.735 67.1919 105.735C67.3574 105.636 67.5291 105.549 67.706 105.472C68.1767 105.26 68.6651 105.09 69.1655 104.962C69.504 104.875 69.8473 104.809 70.1938 104.764C70.5887 104.699 70.9877 104.661 71.3879 104.649C72.3377 104.612 73.2887 104.678 74.2239 104.846L74.2571 104.879Z" fill="#082148"/>
<path d="M84.3085 110.804C84.8565 110.696 85.4102 110.619 85.967 110.574C86.5309 110.574 87.0948 110.459 87.6255 110.442C88.1562 110.426 88.7201 110.442 89.284 110.442H90.7601C91.6888 110.442 92.4186 110.442 93.0488 110.442H93.961C93.9272 110.647 93.8829 110.85 93.8283 111.051C93.672 111.56 93.4607 112.052 93.1981 112.516C93.0189 112.839 92.8137 113.147 92.5844 113.438C92.4617 113.605 92.3288 113.764 92.1864 113.915C92.0339 114.071 91.8733 114.219 91.7054 114.359C91.3266 114.682 90.9216 114.974 90.4947 115.232C89.9664 115.512 89.4107 115.738 88.8362 115.906C88.2258 116.097 87.5982 116.23 86.9621 116.301C86.3024 116.386 85.6365 116.414 84.9719 116.384C84.3103 116.374 83.6505 116.313 82.9983 116.203C82.3885 116.113 81.7848 115.987 81.1905 115.824L80.3779 115.594L79.6481 115.347C79.1838 115.182 78.7691 115.034 78.454 114.886C77.7906 114.59 77.3926 114.376 77.3926 114.376C77.531 114.217 77.6806 114.069 77.8404 113.931C78.2399 113.553 78.6728 113.212 79.134 112.911C79.8193 112.478 80.5406 112.103 81.29 111.792C82.2569 111.354 83.2691 111.023 84.3085 110.804Z" fill="#082148"/>
<path d="M72.665 54.7801C71.4672 55.2711 70.4124 56.0519 69.5968 57.0513C69.2959 57.4117 69.0189 57.791 68.7675 58.187L68.469 58.6478C68.9013 58.8007 69.354 58.8895 69.8124 58.9111C70.8726 58.9947 71.9374 58.8196 72.9138 58.4009C73.9514 57.8907 74.9071 57.2306 75.7498 56.4424L76.2474 55.9816C76.3966 55.8334 76.5293 55.7182 76.6288 55.603L76.9439 55.2574C76.5721 55.0096 76.1636 54.8208 75.7332 54.6978C74.7387 54.3605 73.6595 54.3605 72.665 54.6978V54.7801Z" fill="#082148"/>
<path d="M67.6742 64.0955C66.575 64.9713 65.7093 66.1016 65.1533 67.3872C65.0206 67.6724 64.9046 67.9358 64.805 68.1772L64.5894 68.819C64.4733 69.1811 64.4236 69.4115 64.4236 69.4115C64.9295 69.4333 65.4362 69.3946 65.9328 69.2963C66.4361 69.2012 66.9261 69.0465 67.3923 68.8355C67.9873 68.5956 68.5455 68.2743 69.0508 67.8809C70.018 67.0374 70.8462 66.0489 71.5054 64.9513C71.8039 64.4905 72.0361 64.079 72.2019 63.7828L72.4341 63.3055L72.0361 63.2067C71.6827 63.1256 71.3208 63.087 70.9581 63.0916C70.4487 63.0771 69.94 63.1381 69.4488 63.2726C68.8108 63.4349 68.209 63.714 67.6742 64.0955Z" fill="#082148"/>
<path d="M65.2854 74.3164C64.358 75.5395 63.7845 76.9906 63.6269 78.5133C63.6269 78.8589 63.6269 79.1717 63.5439 79.4514V80.2085C63.5439 80.62 63.5439 80.8668 63.5439 80.8668C63.6907 80.8334 63.8348 80.7894 63.9752 80.7352C64.3549 80.5986 64.7213 80.4277 65.0698 80.2249C65.553 79.9509 66.0084 79.6312 66.4297 79.2704C66.9395 78.8357 67.391 78.3379 67.7731 77.7891C68.5012 76.6691 69.06 75.4491 69.4316 74.1683C69.4316 73.8885 69.5975 73.6252 69.6472 73.3947C69.697 73.1643 69.7633 72.9504 69.8131 72.7858L69.9457 72.2262C69.388 72.2064 68.83 72.2618 68.2873 72.3908C67.7498 72.5223 67.2315 72.7214 66.7448 72.9833C66.1851 73.3415 65.6914 73.7924 65.2854 74.3164Z" fill="#082148"/>
<path d="M66.0806 84.6191C65.574 86.2199 65.5223 87.9285 65.9313 89.5566C65.9313 89.7376 66.0142 89.9022 66.0474 90.0668L66.1967 90.5441C66.2962 90.8403 66.3791 91.0872 66.462 91.3012C66.5119 91.4718 66.5786 91.6372 66.661 91.7949L66.744 91.976L67.142 91.6797C67.4668 91.3993 67.7716 91.0968 68.0542 90.7745C68.9392 89.77 69.5904 88.5843 69.9615 87.3018C70.311 85.9145 70.4562 84.4842 70.3927 83.0555C70.3927 82.7593 70.3927 82.4795 70.3927 82.2326C70.3927 81.9857 70.3927 81.7553 70.3927 81.5743C70.3927 81.3932 70.3927 80.9818 70.3927 80.9818L69.9283 81.1299C69.5266 81.2782 69.1382 81.4599 68.7673 81.673C67.9402 82.1557 67.2409 82.8271 66.7274 83.6316C66.478 83.9377 66.2612 84.2686 66.0806 84.6191Z" fill="#082148"/>
<path d="M70.1437 94.0828C70.1437 94.3132 70.1437 94.5436 70.1437 94.7575C70.1437 94.9715 70.1437 95.2184 70.1437 95.4323C70.211 95.8862 70.3221 96.3326 70.4754 96.7655L70.691 97.4073C70.691 97.5061 70.7739 97.6048 70.8237 97.72L70.9729 98.0163C71.1554 98.3949 71.3544 98.7734 71.5534 99.119C71.8993 99.6951 72.2873 100.245 72.7144 100.765L73.2285 101.357C73.3375 101.216 73.4373 101.067 73.527 100.913C73.7704 100.513 73.9812 100.095 74.1572 99.6621C74.4006 99.0601 74.5893 98.4377 74.7211 97.8023C74.8778 97.0447 74.939 96.2708 74.9036 95.4982C74.7926 93.9729 74.4631 92.471 73.9251 91.0379C73.809 90.7417 73.7094 90.4455 73.6099 90.1986C73.5104 89.9517 73.4109 89.7378 73.3446 89.5567C73.276 89.3536 73.1929 89.1556 73.0958 88.9642L72.6646 89.2769C72.3008 89.5602 71.9623 89.874 71.6529 90.215C71.4491 90.4438 71.2607 90.6857 71.089 90.9392C70.912 91.2206 70.7514 91.5118 70.6081 91.8115C70.443 92.1611 70.3098 92.5246 70.21 92.8977C70.1541 93.2902 70.1319 93.6866 70.1437 94.0828Z" fill="#082148"/>
<path d="M76.9455 101.851C77.2316 102.781 77.6869 103.651 78.2889 104.419C78.5729 104.801 78.8892 105.159 79.2342 105.488L79.7318 105.966L80.2293 106.394C80.7866 106.829 81.374 107.225 81.9873 107.579L82.5512 107.858L82.7502 107.957C82.8031 107.768 82.8419 107.576 82.8663 107.381C82.9546 106.897 83.0045 106.408 83.0156 105.916C83.0335 105.222 82.9891 104.528 82.8829 103.843C82.8829 103.464 82.7502 103.069 82.6507 102.674C82.5457 102.265 82.4127 101.864 82.2527 101.473C81.6337 100.015 80.8192 98.648 79.8313 97.4073L79.682 97.2098L79.5493 96.9136C79.4664 96.7819 79.3669 96.6667 79.284 96.5515C79.201 96.4363 78.9357 96.1565 78.8196 95.9919L78.3884 95.4982C78.2623 95.6441 78.1459 95.798 78.0401 95.959C77.7526 96.3606 77.508 96.7908 77.3104 97.2427C77.176 97.5373 77.0597 97.8395 76.9621 98.1479C76.8695 98.4946 76.7975 98.8463 76.7465 99.2013C76.7043 99.6062 76.7043 100.014 76.7465 100.419C76.7615 100.902 76.8282 101.382 76.9455 101.851Z" fill="#082148"/>
<path d="M74.9544 47.8513C73.768 48.9054 72.8719 50.2422 72.3506 51.7354C72.2511 52.0317 72.1516 52.295 72.0852 52.5419C72.0189 52.7888 71.9857 52.9863 71.9526 53.1673C71.9194 53.3484 71.8696 53.7104 71.8696 53.7104C72.0448 53.6484 72.2164 53.577 72.3838 53.4965L72.9642 53.2167L73.694 52.8382C74.981 52.1678 76.1882 51.3562 77.2929 50.4188C78.3563 49.4612 79.3228 48.4029 80.1787 47.2588L80.6763 46.6169C80.8255 46.4194 80.9416 46.2548 81.0577 46.1232L81.3728 45.6459H80.7924H80.129C79.8802 45.6459 79.5982 45.6459 79.2831 45.7775C78.9397 45.8324 78.6013 45.915 78.2714 46.0244L77.7241 46.189L77.1768 46.4358L76.6129 46.6992C76.4193 46.7991 76.2311 46.909 76.049 47.0284L75.4852 47.4069L74.9544 47.8513Z" fill="#082148"/>
<path d="M85.7844 106.673C86.1018 107.069 86.4513 107.437 86.8293 107.776C87.2316 108.102 87.6524 108.404 88.0897 108.681C88.5541 108.928 89.0019 109.159 89.4663 109.356C89.9307 109.554 90.395 109.685 90.8263 109.817C91.5547 110.01 92.2981 110.142 93.0486 110.212C93.6291 110.212 93.9608 110.212 93.9608 110.212C93.9271 110.007 93.8828 109.803 93.8281 109.603C93.6916 109.093 93.5198 108.592 93.314 108.105C93.1821 107.779 93.0326 107.461 92.8662 107.151C92.7833 106.986 92.7004 106.821 92.6009 106.657C92.5013 106.492 92.4184 106.311 92.3023 106.13C92.1862 105.949 91.8545 105.439 91.6058 105.11C91.342 104.755 91.0597 104.415 90.7599 104.089C89.6309 102.946 88.3733 101.936 87.0117 101.077L86.5971 100.831L86.2322 100.6L85.602 100.222C85.4199 100.107 85.2317 100.003 85.0381 99.9089C85.0381 99.9089 84.9552 100.106 84.8391 100.485C84.6967 100.986 84.5969 101.498 84.5405 102.016C84.4668 102.736 84.506 103.463 84.6566 104.172C84.8426 105.078 85.2277 105.932 85.7844 106.673Z" fill="#082148"/>
<path d="M96.1328 119.165C97.1355 117.695 97.7461 115.996 97.9074 114.228C97.9836 113.578 98.0169 112.923 98.0069 112.269C98.0069 111.792 98.0069 111.496 98.0069 111.496C97.3573 111.667 96.7329 111.921 96.1494 112.253C94.825 112.969 93.6888 113.983 92.8324 115.215C91.9828 116.589 91.3613 118.089 90.9915 119.659C90.9915 119.988 90.8422 120.301 90.7759 120.581C90.7095 120.86 90.6598 121.091 90.6266 121.305C90.5934 121.519 90.5271 121.947 90.5271 121.947C91.1887 121.936 91.8463 121.842 92.4841 121.667C93.1324 121.484 93.752 121.212 94.3251 120.86C95.0327 120.417 95.6467 119.841 96.1328 119.165Z" fill="#082148"/>
<path d="M99.8489 119.165C98.8462 117.695 98.2357 115.996 98.0743 114.228C97.994 113.578 97.9663 112.923 97.9914 112.269C97.9914 111.792 97.9914 111.496 97.9914 111.496C98.641 111.667 99.2654 111.921 99.8489 112.253C101.177 112.964 102.314 113.98 103.166 115.215C104.015 116.589 104.637 118.089 105.007 119.659C105.007 119.988 105.173 120.301 105.222 120.581C105.272 120.86 105.339 121.091 105.372 121.305C105.418 121.516 105.452 121.731 105.471 121.947C104.81 121.936 104.152 121.842 103.514 121.667C102.867 121.481 102.248 121.21 101.673 120.86C100.962 120.415 100.343 119.84 99.8489 119.165Z" fill="#082148"/>
<path d="M123.399 55.208C124.556 55.6908 125.575 56.4481 126.368 57.4134C126.661 57.7641 126.933 58.1324 127.181 58.5161C127.363 58.7959 127.463 58.977 127.463 58.977C127.036 59.1288 126.589 59.2175 126.136 59.2402C125.106 59.326 124.07 59.1622 123.117 58.763C122.091 58.2787 121.145 57.6404 120.315 56.8703L119.834 56.4095L119.469 56.0638C119.356 55.9553 119.251 55.8399 119.154 55.7182C119.527 55.4684 119.934 55.2743 120.364 55.1421C120.805 55.0066 121.263 54.9291 121.724 54.9117C122.296 54.9143 122.862 55.0145 123.399 55.208Z" fill="#082148"/>
<path d="M128.408 64.3097C129.507 65.1817 130.368 66.3134 130.912 67.6013C131.045 67.8811 131.144 68.1445 131.244 68.3749C131.328 68.5845 131.4 68.7988 131.459 69.0167C131.575 69.3788 131.625 69.5928 131.625 69.5928C131.125 69.626 130.623 69.5928 130.132 69.494C129.627 69.3953 129.132 69.2465 128.656 69.0497C128.064 68.8041 127.507 68.4832 126.998 68.0951C126.038 67.2741 125.215 66.3076 124.56 65.2313C124.278 64.7705 124.029 64.3755 123.88 64.0792L123.648 63.602L124.046 63.5032C124.401 63.4304 124.762 63.3918 125.124 63.388C125.632 63.3763 126.139 63.4316 126.633 63.5526C127.266 63.6955 127.868 63.952 128.408 64.3097Z" fill="#082148"/>
<path d="M130.962 74.3655C131.885 75.5721 132.459 77.0063 132.62 78.513C132.62 78.8422 132.62 79.1549 132.72 79.4347V80.1588C132.72 80.5868 132.72 80.8336 132.72 80.8336L132.272 80.6855C131.902 80.5445 131.542 80.3795 131.194 80.1917C130.708 79.9278 130.253 79.6133 129.834 79.2536C129.32 78.8296 128.868 78.3366 128.491 77.7888C127.754 76.6911 127.195 75.4861 126.832 74.2173C126.832 73.954 126.666 73.7072 126.6 73.4768C126.534 73.2463 126.501 73.0324 126.451 72.8678L126.318 72.3247C126.875 72.2933 127.434 72.3432 127.977 72.4728C128.519 72.5896 129.039 72.7895 129.519 73.0653C130.076 73.4081 130.565 73.8487 130.962 74.3655Z" fill="#082148"/>
<path d="M130.199 84.5368C130.707 86.0974 130.764 87.7678 130.365 89.3591C130.336 89.5312 130.297 89.7015 130.249 89.8693C130.249 90.0339 130.149 90.1985 130.1 90.3301C130.05 90.4618 129.934 90.8897 129.851 91.1037C129.798 91.2681 129.732 91.4278 129.652 91.581V91.762L129.254 91.4658C128.925 91.1896 128.62 90.8868 128.342 90.5606C127.448 89.572 126.79 88.3962 126.418 87.1207C126.067 85.7503 125.922 84.3362 125.987 82.9239C125.987 82.6276 125.987 82.3478 125.987 82.101C125.987 81.8541 125.987 81.6401 125.987 81.4591C125.987 81.278 125.987 80.8831 125.987 80.8831C126.146 80.9177 126.301 80.9673 126.451 81.0312C126.856 81.1656 127.245 81.3422 127.612 81.5579C128.13 81.8538 128.599 82.2255 129.005 82.6605C129.247 82.9234 129.469 83.204 129.668 83.4999C129.875 83.8298 130.053 84.1767 130.199 84.5368Z" fill="#082148"/>
<path d="M126.285 93.9676C126.285 94.1815 126.285 94.412 126.285 94.6424C126.3 94.867 126.3 95.0925 126.285 95.3172C126.221 95.7648 126.116 96.2056 125.97 96.6338C125.97 96.8478 125.82 97.0617 125.737 97.2592C125.655 97.4567 125.655 97.4732 125.621 97.572L125.472 97.8682C125.29 98.2632 125.091 98.6253 124.892 98.9709C124.552 99.5472 124.17 100.097 123.747 100.617L123.233 101.193C123.119 101.055 123.019 100.906 122.935 100.748C122.691 100.349 122.48 99.9306 122.304 99.4976C122.061 98.9013 121.872 98.2843 121.74 97.6543C121.587 96.8961 121.52 96.1231 121.541 95.3501C121.649 93.8365 121.973 92.3458 122.503 90.9228C122.619 90.6265 122.702 90.3303 122.802 90.0834C122.901 89.8366 123.001 89.6226 123.067 89.4415C123.134 89.2605 123.316 88.8655 123.316 88.8655L123.747 89.1782C124.115 89.4568 124.454 89.7711 124.759 90.1163C124.963 90.3392 125.151 90.5756 125.323 90.824C125.515 91.1049 125.682 91.4024 125.82 91.7128C125.982 92.0562 126.11 92.4145 126.202 92.7826C126.264 93.1745 126.291 93.5709 126.285 93.9676Z" fill="#082148"/>
<path d="M119.617 101.686C119.329 102.607 118.88 103.471 118.29 104.238C117.997 104.612 117.681 104.969 117.345 105.307L116.847 105.785L116.333 106.196C115.815 106.636 115.26 107.033 114.675 107.381C114.443 107.529 114.244 107.595 114.111 107.677H113.912C113.912 107.677 113.912 107.48 113.796 107.118C113.709 106.628 113.659 106.133 113.646 105.636C113.629 104.943 113.673 104.249 113.779 103.563C113.779 103.201 113.912 102.806 114.011 102.411C114.118 102.004 114.245 101.603 114.393 101.209C115.019 99.7593 115.827 98.3935 116.798 97.144C116.856 97.0913 116.906 97.0303 116.947 96.9629L117.096 96.7654L117.362 96.4198C117.544 96.2059 117.71 96.0248 117.826 95.8602C117.942 95.6956 118.257 95.3829 118.257 95.3829C118.386 95.5205 118.503 95.6692 118.605 95.8273C118.893 96.2289 119.137 96.6591 119.335 97.111C119.477 97.4026 119.593 97.7054 119.683 98.0163C119.784 98.361 119.856 98.7132 119.899 99.0696C119.933 99.4748 119.933 99.8822 119.899 100.287C119.855 100.762 119.76 101.231 119.617 101.686Z" fill="#082148"/>
<path d="M110.844 106.673C110.532 107.072 110.182 107.442 109.8 107.776C109.4 108.105 108.979 108.408 108.539 108.681C108.092 108.929 107.633 109.154 107.163 109.356C106.698 109.537 106.25 109.685 105.803 109.817C105.074 110.01 104.331 110.142 103.58 110.212C103.016 110.212 102.668 110.212 102.668 110.212C102.702 110.007 102.746 109.803 102.801 109.603C102.937 109.093 103.109 108.592 103.315 108.105C103.447 107.792 103.597 107.48 103.763 107.151C103.928 106.821 103.928 106.821 104.028 106.657L104.326 106.13C104.543 105.776 104.781 105.435 105.04 105.11C105.293 104.747 105.576 104.406 105.885 104.089C107.007 102.938 108.266 101.927 109.634 101.077L110.032 100.831L110.397 100.6L111.06 100.205C111.242 100.091 111.43 99.9864 111.624 99.8925C111.708 100.078 111.775 100.271 111.823 100.469C111.973 100.968 112.073 101.48 112.121 101.999C112.195 102.719 112.156 103.447 112.005 104.155C111.819 105.072 111.422 105.934 110.844 106.673Z" fill="#082148"/>
<path d="M125.554 53.5787C125.731 54.853 126.095 56.0949 126.632 57.2654C126.848 57.7756 127.063 58.2035 127.213 58.5162C127.362 58.8289 127.461 58.9935 127.461 58.9935C127.823 58.7102 128.137 58.3713 128.39 57.9895C129.015 57.088 129.313 56.0031 129.236 54.9118C129.111 53.5131 128.65 52.1644 127.893 50.9783C127.743 50.7149 127.577 50.4681 127.428 50.2377L127.014 49.6781L126.616 49.1843C126.336 49.5564 126.113 49.9666 125.952 50.4022C125.781 50.8489 125.659 51.3123 125.587 51.7847C125.484 52.3775 125.473 52.9826 125.554 53.5787Z" fill="#082148"/>
<path d="M131.178 63.2234C130.996 64.6297 131.024 66.055 131.261 67.4532C131.261 67.7494 131.261 68.0457 131.394 68.2925C131.417 68.5143 131.456 68.7343 131.51 68.9509C131.51 69.3294 131.626 69.5434 131.626 69.5434C132.092 69.3512 132.524 69.0844 132.903 68.7534C133.313 68.4164 133.666 68.0163 133.948 67.5684C134.32 67.0012 134.585 66.3708 134.727 65.7086C134.992 64.1834 134.902 62.6181 134.462 61.1332C134.318 60.5745 134.141 60.0249 133.931 59.4874C133.765 59.0759 133.649 58.8455 133.649 58.8455L133.317 59.1088C133.046 59.3623 132.797 59.6375 132.571 59.9317C132.249 60.3489 131.976 60.8018 131.758 61.2813C131.477 61.8994 131.281 62.5528 131.178 63.2234Z" fill="#082148"/>
<path d="M134.129 74.0199C133.534 75.4626 133.117 76.9712 132.885 78.513C132.885 78.8422 132.786 79.1549 132.736 79.4347C132.686 79.7145 132.736 79.9613 132.62 80.1753C132.504 80.3892 132.62 80.8337 132.62 80.8337H133.068C133.465 80.7639 133.854 80.6536 134.229 80.5045C134.77 80.2867 135.273 79.9868 135.721 79.6157C136.304 79.1251 136.793 78.5341 137.164 77.8711C137.932 76.2924 138.307 74.5542 138.259 72.802C138.259 72.4234 138.259 72.0614 138.259 71.7322C138.259 71.403 138.259 71.1232 138.259 70.8763C138.259 70.6295 138.143 70.1193 138.143 70.1193C137.628 70.3415 137.148 70.6352 136.716 70.9916C136.248 71.345 135.825 71.754 135.456 72.2095C134.941 72.7567 134.495 73.3647 134.129 74.0199Z" fill="#082148"/>
<path d="M133.665 85.3928C132.546 86.6769 131.573 88.0787 130.762 89.5732L130.513 90.034C130.414 90.1821 130.348 90.3302 130.265 90.4619C130.182 90.5936 129.999 90.9721 129.9 91.1861C129.8 91.4 129.568 91.828 129.568 91.828L130.066 91.9432C130.496 91.9909 130.929 91.9909 131.359 91.9432C132.835 91.8779 134.24 91.2946 135.323 90.2974C136.718 88.9244 137.744 87.227 138.308 85.3599C138.458 84.9484 138.557 84.5534 138.657 84.2077C138.756 83.8621 138.823 83.5329 138.872 83.2696C138.972 82.7265 139.005 82.4138 139.005 82.4138C138.839 82.3985 138.673 82.3985 138.507 82.4138C138.07 82.491 137.643 82.6124 137.23 82.7759C136.649 83.0106 136.094 83.3029 135.572 83.6482C135.252 83.8516 134.947 84.0771 134.66 84.323C134.3 84.6526 133.967 85.0103 133.665 85.3928Z" fill="#082148"/>
<path d="M129.568 95.926C129.352 96.0412 129.153 96.1728 128.954 96.3045C128.74 96.4206 128.534 96.5527 128.34 96.6995C127.926 96.9628 127.544 97.2591 127.163 97.5389L126.632 97.9832L126.367 98.1972L126.101 98.4112L125.139 99.2506C124.526 99.7772 124.061 100.271 123.68 100.6L123.133 101.143L123.58 101.423C123.998 101.642 124.437 101.818 124.891 101.95C125.551 102.148 126.241 102.237 126.931 102.213C127.836 102.182 128.726 101.975 129.551 101.604C131.433 100.669 133.056 99.2899 134.278 97.5883C134.56 97.2097 134.792 96.8312 135.024 96.502C135.256 96.1728 135.422 95.8602 135.555 95.5968C135.687 95.3335 135.986 94.7739 135.986 94.7739C135.813 94.7234 135.635 94.6903 135.455 94.6752C134.975 94.6291 134.492 94.6291 134.012 94.6752L133.05 94.7739C132.681 94.8303 132.316 94.9072 131.956 95.0043C131.561 95.1114 131.173 95.2433 130.795 95.3993C130.374 95.5457 129.964 95.7217 129.568 95.926Z" fill="#082148"/>
<path d="M122.305 104.797C121.273 104.994 120.258 105.269 119.269 105.62C118.805 105.801 118.324 105.949 117.876 106.13L117.213 106.394L116.583 106.624C115.787 106.953 115.09 107.217 114.609 107.431L114.045 107.677H113.83C113.937 107.837 114.053 107.991 114.178 108.138C114.513 108.519 114.885 108.866 115.289 109.175C115.882 109.617 116.543 109.961 117.246 110.196C117.684 110.332 118.134 110.432 118.589 110.492C119.141 110.547 119.697 110.547 120.248 110.492C120.808 110.437 121.362 110.338 121.906 110.196C122.47 110.028 123.024 109.831 123.565 109.603C124.112 109.373 124.626 109.093 125.223 108.829C125.821 108.566 126.185 108.237 126.617 107.941L126.932 107.727L127.23 107.496L127.778 107.068C128.109 106.789 128.408 106.542 128.64 106.311L129.37 105.587C129.207 105.478 129.035 105.385 128.856 105.307C128.385 105.096 127.897 104.925 127.396 104.797C127.058 104.709 126.715 104.643 126.368 104.6C125.973 104.534 125.574 104.495 125.174 104.484C124.727 104.452 124.278 104.452 123.83 104.484C123.314 104.547 122.804 104.651 122.305 104.797Z" fill="#082148"/>
<path d="M118.936 51.0113C120.036 51.8982 121.232 52.6601 122.502 53.2825C122.751 53.4142 123 53.513 123.215 53.6117C123.404 53.7106 123.597 53.7985 123.796 53.8751L124.327 54.1219L124.227 53.5788C124.227 53.3978 124.144 53.1838 124.078 52.9534L123.812 52.1634C123.261 50.7012 122.349 49.3996 121.159 48.378C120.989 48.2372 120.812 48.1053 120.628 47.9829L120.081 47.6209L119.533 47.3246C119.351 47.2259 119.152 47.1601 118.97 47.0778L118.439 46.8638L117.908 46.7157L117.411 46.584L116.93 46.5017H116.1H115.47H114.923L115.238 46.9625L115.619 47.4563C115.752 47.6374 115.918 47.8513 116.1 48.0653C116.94 49.1428 117.89 50.1301 118.936 51.0113Z" fill="#082148"/>
<path d="M112.32 110.804C111.772 110.696 111.219 110.619 110.662 110.574C110.098 110.574 109.534 110.459 109.003 110.442C108.473 110.426 107.909 110.442 107.345 110.442H105.869C104.94 110.442 104.21 110.442 103.58 110.442H102.668C102.703 110.648 102.753 110.852 102.817 111.051C102.959 111.563 103.165 112.055 103.431 112.516C103.61 112.839 103.815 113.147 104.045 113.438C104.161 113.602 104.31 113.75 104.443 113.915L104.924 114.359C105.294 114.607 105.682 114.827 106.084 115.018C106.613 115.298 107.169 115.524 107.743 115.692C108.359 115.885 108.992 116.018 109.634 116.087C110.293 116.173 110.959 116.2 111.624 116.17C112.28 116.159 112.934 116.099 113.581 115.989C114.191 115.901 114.795 115.774 115.389 115.61L116.201 115.38L116.931 115.133C117.395 114.968 117.81 114.82 118.142 114.672C118.805 114.376 119.187 114.162 119.187 114.162C119.052 114.005 118.908 113.857 118.755 113.717C118.35 113.34 117.911 112.998 117.445 112.697C116.76 112.264 116.039 111.889 115.289 111.578C114.33 111.217 113.335 110.958 112.32 110.804Z" fill="#082148"/>
<path d="M113.427 64.0498C113.275 63.0358 112.394 62.3501 111.429 62.3501H85.8507C84.8856 62.3501 84.0046 63.0358 83.8525 64.0498C82.5337 72.8456 88.0488 79.4389 94.4022 81.5088C94.4356 81.5197 94.4601 81.5392 94.4746 81.5583C94.4878 81.5757 94.49 81.5885 94.49 81.5974V86.4501C94.49 86.4777 94.4676 86.5001 94.44 86.5001H92.34C91.2078 86.5001 90.29 87.4179 90.29 88.5501V90.6501C90.29 91.7822 91.2078 92.7001 92.34 92.7001H104.94C106.072 92.7001 106.99 91.7822 106.99 90.6501V88.5501C106.99 87.4179 106.072 86.5001 104.94 86.5001H102.84C102.812 86.5001 102.79 86.4777 102.79 86.4501V81.5973C102.79 81.5885 102.792 81.5757 102.805 81.5582C102.82 81.5392 102.844 81.5196 102.878 81.5088C109.231 79.4387 114.746 72.8455 113.427 64.0498Z" fill="url(#paint0_linear_1382_12761)" stroke="url(#paint1_linear_1382_12761)" stroke-width="2" stroke-linecap="round" stroke-linejoin="round"/>
<path d="M95.4897 69.65H101.79" stroke="white" stroke-width="2" stroke-linecap="round" stroke-linejoin="round"/>
<path d="M59.0391 153.044C57.138 160.893 49.4146 165.67 41.7883 163.713C34.1651 161.756 29.5243 153.806 31.4263 145.957C33.3266 138.108 41.0499 133.33 48.674 135.287C56.2999 137.244 60.9402 145.195 59.0391 153.044Z" fill="#F7931A"/>
<path d="M51.5085 147.413C51.7918 145.463 50.3497 144.415 48.3779 143.716L49.0175 141.075L47.4558 140.675L46.833 143.246C46.4225 143.141 46.0008 143.041 45.5818 142.943L46.209 140.355L44.6481 139.954L44.008 142.594C43.6682 142.514 43.3346 142.436 43.0107 142.353L43.0125 142.345L40.8587 141.791L40.4433 143.508C40.4433 143.508 41.602 143.781 41.5776 143.798C42.2101 143.961 42.3244 144.392 42.3053 144.733L41.5767 147.742C41.6203 147.753 41.6768 147.77 41.739 147.795C41.687 147.782 41.6314 147.767 41.574 147.753L40.5527 151.967C40.4753 152.165 40.2791 152.462 39.837 152.349C39.8526 152.373 38.7018 152.058 38.7018 152.058L37.9265 153.898L39.9589 154.419C40.337 154.517 40.7075 154.619 41.0722 154.715L40.4259 157.386L41.9859 157.787L42.626 155.144C43.0521 155.263 43.4658 155.373 43.8706 155.476L43.2327 158.107L44.7945 158.507L45.4408 155.841C48.1039 156.36 50.1064 156.151 50.9494 153.672C51.6286 151.675 50.9155 150.524 49.5144 149.773C50.5348 149.531 51.3034 148.84 51.5085 147.413ZM47.9402 152.563C47.4576 154.559 44.1922 153.48 43.1335 153.21L43.9911 149.671C45.0498 149.943 48.4446 150.481 47.9402 152.563ZM48.4232 147.384C47.9829 149.2 45.2651 148.277 44.3834 148.051L45.161 144.842C46.0426 145.068 48.8819 145.49 48.4232 147.384Z" fill="white"/>
<path d="M78.9964 133.471L69.387 149.797L78.9964 145.326V133.471Z" fill="#8A92B2"/>
<path d="M78.9964 145.326L69.387 149.797L78.9964 155.614V145.326Z" fill="#62688F"/>
<path d="M88.6076 149.797L78.9963 133.471V145.326L88.6076 149.797Z" fill="#62688F"/>
<path d="M78.9963 155.614L88.6076 149.797L78.9963 145.326V155.614Z" fill="#454A75"/>
<path d="M69.387 151.664L78.9964 165.529V157.477L69.387 151.664Z" fill="#8A92B2"/>
<path d="M78.9963 157.477V165.529L88.6129 151.664L78.9963 157.477Z" fill="#62688F"/>
<path d="M113.186 164.151C121.278 164.151 127.837 157.592 127.837 149.5C127.837 141.408 121.278 134.849 113.186 134.849C105.094 134.849 98.5349 141.408 98.5349 149.5C98.5349 157.592 105.094 164.151 113.186 164.151Z" fill="#0088CC"/>
<path fill-rule="evenodd" clip-rule="evenodd" d="M109.109 144.531H117.327C117.617 144.531 117.908 144.574 118.212 144.716C118.575 144.885 118.768 145.153 118.904 145.35C118.914 145.366 118.924 145.382 118.933 145.398C119.092 145.681 119.174 145.986 119.174 146.315C119.174 146.627 119.1 146.967 118.933 147.264C118.932 147.267 118.93 147.27 118.928 147.273L113.737 156.191C113.622 156.387 113.411 156.508 113.184 156.507C112.956 156.506 112.746 156.384 112.633 156.187L107.537 147.288C107.536 147.285 107.534 147.283 107.533 147.28C107.416 147.088 107.236 146.791 107.204 146.407C107.175 146.055 107.254 145.701 107.432 145.395C107.609 145.088 107.876 144.843 108.197 144.693C108.541 144.533 108.889 144.531 109.109 144.531ZM112.549 145.805H109.109C108.883 145.805 108.797 145.819 108.736 145.848C108.652 145.887 108.582 145.951 108.534 146.033C108.487 146.114 108.466 146.209 108.474 146.303C108.478 146.357 108.5 146.419 108.631 146.634C108.633 146.638 108.636 146.643 108.639 146.648L112.549 153.476V145.805ZM113.823 145.805V153.51L117.824 146.637C117.869 146.555 117.9 146.436 117.9 146.315C117.9 146.217 117.88 146.131 117.834 146.044C117.786 145.975 117.757 145.939 117.733 145.914C117.712 145.892 117.696 145.881 117.673 145.87C117.579 145.826 117.482 145.805 117.327 145.805H113.823Z" fill="white"/>
<path d="M164.488 149.5C164.488 157.155 158.283 163.36 150.628 163.36C142.973 163.36 136.768 157.155 136.768 149.5C136.768 141.845 142.973 135.64 150.628 135.64C158.283 135.64 164.488 141.845 164.488 149.5Z" fill="url(#paint2_linear_1382_12761)" stroke="url(#paint3_linear_1382_12761)" stroke-width="1.58269"/>
<path d="M150.541 156.507C149.402 156.507 148.412 156.319 147.57 155.944C146.729 155.569 146.05 155.058 145.532 154.411L147.221 152.547C147.713 153.091 148.25 153.492 148.832 153.751C149.428 154.01 150.029 154.139 150.638 154.139C151.337 154.139 151.867 153.984 152.23 153.673C152.592 153.363 152.773 152.916 152.773 152.334C152.773 151.855 152.631 151.493 152.346 151.247C152.074 151.001 151.608 150.826 150.948 150.723L149.531 150.49C148.315 150.283 147.435 149.836 146.891 149.151C146.347 148.452 146.076 147.604 146.076 146.608C146.076 145.301 146.503 144.292 147.357 143.58C148.211 142.855 149.408 142.493 150.948 142.493C151.997 142.493 152.909 142.655 153.686 142.978C154.462 143.302 155.09 143.742 155.569 144.298L153.919 146.142C153.556 145.741 153.129 145.43 152.637 145.21C152.146 144.977 151.589 144.861 150.968 144.861C149.661 144.861 149.007 145.398 149.007 146.472C149.007 146.938 149.149 147.287 149.434 147.52C149.732 147.753 150.211 147.928 150.871 148.044L152.288 148.297C153.388 148.491 154.236 148.905 154.831 149.539C155.426 150.173 155.724 151.027 155.724 152.101C155.724 152.735 155.614 153.324 155.394 153.867C155.174 154.398 154.844 154.864 154.404 155.265C153.964 155.653 153.42 155.957 152.773 156.177C152.139 156.397 151.395 156.507 150.541 156.507Z" fill="white"/>
<rect x="149.189" y="134.849" width="2.06437" height="3.71587" fill="white"/>
<rect x="151.253" y="163.337" width="2.06437" height="3.71587" transform="rotate(-180 151.253 163.337)" fill="white"/>
<rect x="142.205" y="137.273" width="2.06437" height="3.71587" transform="rotate(-30 142.205 137.273)" fill="white"/>
<rect x="158.237" y="160.913" width="2.06437" height="3.71587" transform="rotate(150 158.237 160.913)" fill="white"/>
<rect x="137.369" y="142.865" width="2.06437" height="3.71587" transform="rotate(-60 137.369 142.865)" fill="white"/>
<rect x="163.073" y="155.321" width="2.06437" height="3.71587" transform="rotate(120 163.073 155.321)" fill="white"/>
<rect x="135.977" y="150.125" width="2.06437" height="3.71587" transform="rotate(-90 135.977 150.125)" fill="white"/>
<rect x="164.465" y="148.061" width="2.06437" height="3.71587" transform="rotate(90 164.465 148.061)" fill="white"/>
<rect x="138.401" y="157.109" width="2.06437" height="3.71587" transform="rotate(-120 138.401 157.109)" fill="white"/>
<rect x="162.041" y="141.077" width="2.06437" height="3.71587" transform="rotate(60 162.041 141.077)" fill="white"/>
<rect x="143.993" y="161.945" width="2.06437" height="3.71587" transform="rotate(-150 143.993 161.945)" fill="white"/>
<rect x="156.449" y="136.241" width="2.06437" height="3.71587" transform="rotate(30 156.449 136.241)" fill="white"/>
<rect x="143.993" y="161.945" width="2.06437" height="3.71587" transform="rotate(-150 143.993 161.945)" fill="white"/>
<rect x="156.449" y="136.241" width="2.06437" height="3.71587" transform="rotate(30 156.449 136.241)" fill="white"/>
<defs>
<linearGradient id="paint0_linear_1382_12761" x1="98.6399" y1="63.3501" x2="98.6399" y2="91.7001" gradientUnits="userSpaceOnUse">
<stop stop-color="#58EE3F"/>
<stop offset="1" stop-color="#4DDA36"/>
</linearGradient>
<linearGradient id="paint1_linear_1382_12761" x1="98.6399" y1="58.143" x2="98.6399" y2="92.8572" gradientUnits="userSpaceOnUse">
<stop stop-color="#00E65C"/>
<stop offset="1" stop-color="#01D052"/>
</linearGradient>
<linearGradient id="paint2_linear_1382_12761" x1="150.628" y1="134.849" x2="150.628" y2="164.151" gradientUnits="userSpaceOnUse">
<stop stop-color="#47DA2F"/>
<stop offset="1" stop-color="#31BD1A"/>
</linearGradient>
<linearGradient id="paint3_linear_1382_12761" x1="150.628" y1="134.849" x2="150.628" y2="164.151" gradientUnits="userSpaceOnUse">
<stop stop-color="#4DDA36"/>
<stop offset="1" stop-color="#4DDA36"/>
</linearGradient>
<clipPath id="clip0_1382_12761">
<rect width="126" height="207" fill="white" transform="translate(200 13)"/>
</clipPath>
</defs>
</svg>
