<svg width="366" height="220" viewBox="0 0 366 220" fill="none" xmlns="http://www.w3.org/2000/svg">
<g clip-path="url(#clip0_1382_12529)">
<path d="M229.486 90.1622H229.472C225.56 90.1622 221.808 91.721 219.041 94.4958C216.275 97.2705 214.721 101.034 214.721 104.958V114.352C214.721 119.441 218.833 119.66 223.906 119.66H244.217V104.953C244.216 101.033 242.664 97.274 239.902 94.5008C237.14 91.7276 233.394 90.1672 229.486 90.1622Z" fill="#FFAF77"/>
<path d="M244.227 121.536H223.916C219.512 121.536 212.858 121.536 212.858 114.35V104.956C212.858 100.533 214.609 96.292 217.726 93.1649C220.844 90.0378 225.072 88.281 229.481 88.281H229.493C233.901 88.281 238.13 90.0378 241.247 93.1649C244.365 96.292 246.116 100.533 246.116 104.956V119.662C246.116 119.91 246.066 120.155 245.971 120.384C245.875 120.612 245.736 120.819 245.56 120.993C245.384 121.168 245.176 121.305 244.947 121.398C244.719 121.492 244.474 121.538 244.227 121.536ZM229.476 92.041C226.061 92.041 222.786 93.4019 220.371 95.8243C217.956 98.2467 216.599 101.532 216.599 104.958V114.352C216.599 117.17 217.896 117.781 223.911 117.781H242.349V104.953C242.349 101.527 240.992 98.242 238.577 95.8196C236.162 93.3972 232.887 92.0363 229.472 92.0363L229.476 92.041Z" fill="black"/>
<path d="M306.646 164.934C310.646 168.947 317.132 168.947 321.132 164.934C325.133 160.922 325.133 154.416 321.132 150.404L303.815 133.033C299.815 129.02 293.329 129.02 289.329 133.033C285.328 137.046 285.328 143.551 289.329 147.564L306.646 164.934Z" fill="black"/>
<path d="M313.891 169.822C312.299 169.827 310.722 169.515 309.251 168.903C307.781 168.292 306.446 167.394 305.324 166.262L287.998 148.883C285.729 146.602 284.454 143.511 284.454 140.289C284.454 137.067 285.729 133.977 287.998 131.696C290.272 129.42 293.352 128.142 296.565 128.142C299.777 128.142 302.858 129.42 305.132 131.696L322.458 149.075C324.727 151.356 326.001 154.446 326.001 157.669C326.001 160.891 324.727 163.981 322.458 166.262C321.335 167.394 320 168.292 318.53 168.903C317.059 169.515 315.482 169.827 313.891 169.822ZM296.565 131.907C295.466 131.905 294.377 132.121 293.361 132.542C292.345 132.963 291.423 133.582 290.646 134.362C289.078 135.937 288.198 138.073 288.198 140.299C288.198 142.525 289.078 144.66 290.646 146.236L307.972 163.615C308.747 164.397 309.67 165.017 310.686 165.439C311.702 165.861 312.791 166.077 313.891 166.074C314.99 166.077 316.079 165.861 317.095 165.439C318.111 165.017 319.034 164.397 319.81 163.615C321.377 162.039 322.257 159.904 322.257 157.678C322.257 155.452 321.377 153.317 319.81 151.741L302.484 134.362C301.708 133.583 300.787 132.965 299.773 132.544C298.759 132.123 297.672 131.907 296.574 131.907H296.565Z" fill="black"/>
<path d="M301.575 180.395L271.845 150.573L283.93 138.45C285.394 136.982 287.379 136.158 289.448 136.158C291.518 136.158 293.503 136.982 294.966 138.45L305.383 148.899C309.042 152.569 311.098 157.547 311.098 162.738C311.098 167.928 309.042 172.906 305.383 176.576L301.575 180.395Z" fill="white"/>
<path d="M301.575 182.274C301.079 182.274 300.603 182.076 300.252 181.725L270.517 151.898C270.343 151.724 270.206 151.516 270.112 151.288C270.018 151.06 269.969 150.816 269.969 150.569C269.969 150.322 270.018 150.078 270.112 149.85C270.206 149.622 270.343 149.414 270.517 149.24L282.601 137.119C283.498 136.215 284.564 135.497 285.739 135.009C286.914 134.521 288.173 134.271 289.445 134.275C290.716 134.271 291.976 134.521 293.151 135.009C294.325 135.497 295.392 136.215 296.288 137.119L306.705 147.568C308.697 149.555 310.276 151.918 311.351 154.522C312.426 157.125 312.976 159.917 312.968 162.734C312.976 165.552 312.426 168.344 311.351 170.947C310.276 173.551 308.697 175.914 306.705 177.901L302.898 181.72C302.725 181.895 302.519 182.034 302.292 182.129C302.065 182.224 301.821 182.274 301.575 182.274ZM274.493 150.569L301.575 177.735L304.057 175.245C305.7 173.606 307.003 171.656 307.89 169.509C308.777 167.361 309.23 165.059 309.224 162.734C309.23 160.41 308.777 158.107 307.89 155.96C307.003 153.812 305.7 151.863 304.057 150.224L293.64 139.775C292.527 138.662 291.019 138.037 289.447 138.037C287.875 138.037 286.367 138.662 285.254 139.775L274.493 150.569Z" fill="black"/>
<path d="M277.422 144.972L298.876 166.492C301.071 168.694 302.304 171.681 302.304 174.795C302.304 177.91 301.071 180.896 298.876 183.099L298.382 183.596C294.357 187.634 288.897 189.902 283.205 189.902C277.513 189.902 272.054 187.634 268.029 183.596L253.473 168.996L277.422 144.972Z" fill="#FFAF77"/>
<path d="M283.203 191.776C280.138 191.782 277.103 191.18 274.271 190.006C271.439 188.831 268.867 187.107 266.701 184.933L250.822 169.003L277.42 142.323L300.198 165.172C301.463 166.434 302.467 167.934 303.15 169.587C303.833 171.24 304.183 173.012 304.179 174.801C304.183 176.59 303.833 178.363 303.15 180.015C302.467 181.668 301.463 183.169 300.198 184.43L299.702 184.928C297.537 187.104 294.965 188.828 292.134 190.004C289.302 191.179 286.267 191.781 283.203 191.776ZM256.121 168.996L269.351 182.267C273.028 185.947 278.009 188.013 283.203 188.013C288.396 188.013 293.378 185.947 297.054 182.267L297.55 181.772C298.466 180.858 299.192 179.77 299.686 178.573C300.181 177.376 300.434 176.092 300.43 174.796C300.434 173.501 300.181 172.217 299.687 171.02C299.193 169.822 298.466 168.735 297.55 167.821L277.415 147.624L256.121 168.996Z" fill="black"/>
<path d="M281.704 12.4866H254.903V7.87885H233.278C230.589 7.87947 228.009 8.95158 226.107 10.8594C224.205 12.7672 223.136 15.3546 223.136 18.0527C223.136 18.6579 223.254 19.2572 223.485 19.8164C223.716 20.3756 224.054 20.8837 224.481 21.3116C224.907 21.7395 225.414 22.079 225.971 22.3104C226.529 22.5419 227.126 22.6608 227.729 22.6605H281.704V12.4866Z" fill="black"/>
<path d="M281.704 24.5393H227.729C226.015 24.5375 224.371 23.8535 223.159 22.6374C221.947 21.4213 221.265 19.7725 221.263 18.0527C221.267 14.8573 222.534 11.7938 224.786 9.53427C227.039 7.27476 230.093 6.00373 233.278 6H254.903C255.4 6 255.876 6.19792 256.228 6.55027C256.579 6.90262 256.776 7.38053 256.776 7.87883V10.6078H281.704C282.201 10.6078 282.677 10.8058 283.029 11.1581C283.38 11.5105 283.577 11.9883 283.577 12.4866V22.6605C283.577 23.1588 283.38 23.6367 283.029 23.9891C282.677 24.3414 282.201 24.5393 281.704 24.5393ZM233.278 9.75766C231.086 9.76077 228.985 10.6357 227.434 12.1907C225.884 13.7456 225.012 15.8537 225.009 18.0527C225.01 18.7763 225.296 19.4701 225.806 19.9817C226.317 20.4934 227.008 20.7811 227.729 20.7817H279.831V14.3655H254.903C254.406 14.3655 253.93 14.1675 253.579 13.8152C253.227 13.4628 253.03 12.9849 253.03 12.4866V9.75766H233.278Z" fill="black"/>
<path d="M301.46 22.6606L281.702 22.6606V15.366L294.205 15.366C296.13 15.366 297.976 16.133 299.337 17.4984C300.698 18.8637 301.463 20.7155 301.463 22.6464V22.6629L301.46 22.6606Z" fill="black"/>
<path d="M301.461 24.5394H281.704C281.208 24.5394 280.731 24.3414 280.38 23.9891C280.029 23.6367 279.831 23.1588 279.831 22.6605V15.366C279.831 14.8677 280.029 14.3898 280.38 14.0374C280.731 13.6851 281.208 13.4871 281.704 13.4871H294.205C296.627 13.4871 298.949 14.4521 300.662 16.1698C302.374 17.8875 303.336 20.2172 303.336 22.6464C303.336 23.1464 303.139 23.6262 302.787 23.9808C302.436 24.3355 301.959 24.5363 301.461 24.5394ZM283.577 20.7817H299.264C298.884 19.7449 298.196 18.8499 297.293 18.2175C296.39 17.5851 295.316 17.2456 294.214 17.2448H283.587L283.577 20.7817Z" fill="black"/>
<path d="M244.597 97.8748H288.066C289.284 97.8748 290.452 98.3602 291.314 99.2244C292.175 100.088 292.659 101.261 292.659 102.483V137.894H230.818C229.6 137.894 228.433 137.409 227.571 136.546C226.71 135.683 226.225 134.512 226.224 133.291V116.304C226.224 111.416 228.16 106.729 231.605 103.272C235.051 99.8164 239.724 97.8748 244.597 97.8748Z" fill="#37F9FF"/>
<path d="M292.659 139.773H230.829C229.115 139.771 227.471 139.087 226.259 137.871C225.046 136.655 224.365 135.006 224.363 133.286V116.304C224.369 110.92 226.504 105.758 230.299 101.951C234.095 98.1438 239.241 96.0022 244.608 95.996H288.077C289.792 95.9978 291.436 96.6819 292.648 97.898C293.86 99.114 294.542 100.763 294.544 102.483V137.894C294.544 138.142 294.495 138.387 294.4 138.616C294.306 138.844 294.167 139.052 293.991 139.227C293.816 139.401 293.608 139.539 293.38 139.633C293.151 139.727 292.906 139.774 292.659 139.773ZM244.596 99.7536C240.222 99.7586 236.028 101.504 232.935 104.607C229.842 107.709 228.102 111.916 228.097 116.304V133.286C228.098 134.01 228.385 134.703 228.895 135.215C229.405 135.727 230.096 136.014 230.818 136.015H290.786V102.483C290.785 101.759 290.498 101.066 289.988 100.554C289.478 100.043 288.787 99.7549 288.066 99.7536H244.596Z" fill="black"/>
<path d="M301.51 21.9254H223.136V63.2526H301.51V21.9254Z" fill="black"/>
<path d="M301.51 65.1221H223.136C222.639 65.1221 222.163 64.9241 221.811 64.5718C221.46 64.2194 221.263 63.7416 221.263 63.2433V21.909C221.263 21.4107 221.46 20.9328 221.811 20.5805C222.163 20.2281 222.639 20.0302 223.136 20.0302H301.51C302.006 20.0302 302.483 20.2281 302.834 20.5805C303.185 20.9328 303.383 21.4107 303.383 21.909V63.2433C303.383 63.7416 303.185 64.2194 302.834 64.5718C302.483 64.9241 302.006 65.1221 301.51 65.1221ZM225.009 61.3644H299.637V23.7878H225.009V61.3644Z" fill="black"/>
<path d="M277.431 21.9254H241.454C231.308 21.9254 223.082 30.1764 223.082 40.3544V79.4458C223.082 89.6239 231.308 97.8748 241.454 97.8748H277.431C287.578 97.8748 295.804 89.6239 295.804 79.4458V40.3544C295.804 30.1764 287.578 21.9254 277.431 21.9254Z" fill="#FFAF77"/>
<path d="M224.147 34.22H294.748C293.486 30.6272 291.143 27.5155 288.044 25.314C284.945 23.1124 281.241 21.9294 277.443 21.9278H241.464C237.664 21.9269 233.958 23.1089 230.856 25.3106C227.754 27.5123 225.41 30.6253 224.147 34.22Z" fill="#F08960"/>
<path d="M284.839 23.499C284.839 23.6305 284.877 23.7526 284.877 23.8841V80.2608C284.877 82.8559 283.849 85.3447 282.02 87.18C280.191 89.0152 277.71 90.0465 275.123 90.0471H226.439C228.131 92.4654 230.379 94.4394 232.992 95.8019C235.605 97.1644 238.507 97.8754 241.452 97.8748H277.422C279.835 97.876 282.225 97.4003 284.455 96.4749C286.685 95.5494 288.711 94.1923 290.418 92.4811C292.124 90.7699 293.478 88.7382 294.402 86.5019C295.326 84.2657 295.801 81.8688 295.801 79.4482V40.3544C295.801 36.7812 294.764 33.2852 292.818 30.2925C290.871 27.2997 288.099 24.9394 284.839 23.499Z" fill="#F08960"/>
<path d="M277.422 99.7536H241.443C236.076 99.7474 230.93 97.6061 227.135 93.7994C223.34 89.9927 221.206 84.8316 221.2 79.4482V40.3544C221.206 34.971 223.34 29.8098 227.135 26.0031C230.93 22.1965 236.076 20.0552 241.443 20.049H277.422C282.789 20.0552 287.934 22.1965 291.729 26.0031C295.524 29.8098 297.659 34.971 297.665 40.3544V79.4482C297.659 84.8316 295.524 89.9927 291.729 93.7994C287.934 97.6061 282.789 99.7474 277.422 99.7536ZM241.443 23.8066C237.069 23.8116 232.876 25.5566 229.783 28.6588C226.69 31.7611 224.951 35.9672 224.946 40.3544V79.4482C224.951 83.8354 226.69 88.0415 229.783 91.1437C232.876 94.2459 237.069 95.991 241.443 95.9959H277.422C281.797 95.9935 285.993 94.2495 289.088 91.147C292.182 88.0445 293.923 83.837 293.928 79.4482V40.3544C293.923 35.9672 292.184 31.7611 289.091 28.6588C285.998 25.5566 281.805 23.8116 277.431 23.8066H241.443Z" fill="black"/>
<path d="M288.202 55.6646H296.359C297.725 55.6646 299.035 56.2089 300.001 57.1779C300.967 58.1468 301.51 59.461 301.51 60.8313V65.6764C301.51 67.0467 300.967 68.3609 300.001 69.3298C299.035 70.2988 297.725 70.8432 296.359 70.8432H288.202V55.6646Z" fill="#F08960"/>
<path d="M271.524 70.8431H261.384C259.361 70.8425 257.42 70.0358 255.99 68.6005C254.559 67.1652 253.756 65.2188 253.756 63.1892V53.8209C253.756 51.1569 254.811 48.602 256.689 46.7182C258.567 44.8345 261.114 43.7762 263.77 43.7762H269.138C271.794 43.7762 274.341 44.8345 276.219 46.7182C278.097 48.602 279.152 51.1569 279.152 53.8209V63.1892C279.152 65.2188 278.349 67.1652 276.918 68.6005C275.488 70.0358 273.548 70.8425 271.524 70.8431Z" fill="white"/>
<path d="M265.694 57.0197H261.103C258.566 57.0197 256.509 59.0826 256.509 61.6275V66.233C256.509 68.7778 258.566 70.8408 261.103 70.8408H265.694C268.231 70.8408 270.288 68.7778 270.288 66.233V61.6275C270.288 59.0826 268.231 57.0197 265.694 57.0197Z" fill="black"/>
<path d="M253.756 55.6998C253.259 55.6998 252.783 55.5018 252.431 55.1495C252.08 54.7972 251.883 54.3192 251.883 53.8209C251.886 50.6596 253.139 47.6286 255.368 45.3932C257.596 43.1578 260.618 41.9006 263.77 41.8975H269.138C269.635 41.8975 270.112 42.0954 270.463 42.4477C270.814 42.8001 271.011 43.278 271.011 43.7763C271.011 44.2746 270.814 44.7524 270.463 45.1048C270.112 45.4571 269.635 45.6551 269.138 45.6551H263.77C261.611 45.6576 259.542 46.5187 258.016 48.0496C256.49 49.5804 255.631 51.656 255.629 53.8209C255.629 54.3192 255.431 54.7972 255.08 55.1495C254.729 55.5018 254.253 55.6998 253.756 55.6998Z" fill="black"/>
<path d="M227.676 43.7762H228.612C231.048 43.7762 233.385 44.7469 235.107 46.4748C236.83 48.2026 237.797 50.546 237.797 52.9896V63.4711C237.797 64.4392 237.607 65.3978 237.238 66.2923C236.868 67.1867 236.327 67.9994 235.645 68.6839C234.962 69.3685 234.152 69.9115 233.26 70.282C232.369 70.6525 231.413 70.8431 230.448 70.8431C228.499 70.8431 226.629 70.0664 225.251 68.6839C223.873 67.3014 223.098 65.4263 223.098 63.4711V48.3817C223.099 47.1629 223.581 45.994 224.439 45.1308C225.297 44.2677 226.461 43.7806 227.676 43.7762Z" fill="white"/>
<path d="M235.409 57.0197H230.818C228.281 57.0197 226.224 59.0826 226.224 61.6275V66.233C226.224 68.7778 228.281 70.8408 230.818 70.8408H235.409C237.946 70.8408 240.003 68.7778 240.003 66.233V61.6275C240.003 59.0826 237.946 57.0197 235.409 57.0197Z" fill="black"/>
<path d="M237.79 54.8684C237.293 54.8684 236.817 54.6705 236.466 54.3181C236.115 53.9658 235.917 53.4879 235.917 52.9896C235.915 51.0447 235.143 49.1802 233.772 47.8052C232.401 46.4302 230.542 45.657 228.603 45.6551H227.666C227.17 45.6551 226.693 45.4571 226.342 45.1048C225.991 44.7524 225.793 44.2746 225.793 43.7763C225.793 43.278 225.991 42.8001 226.342 42.4477C226.693 42.0954 227.17 41.8975 227.666 41.8975H228.603C231.535 41.9006 234.346 43.0701 236.42 45.1495C238.493 47.229 239.66 50.0485 239.663 52.9896C239.663 53.4879 239.466 53.9658 239.115 54.3181C238.763 54.6705 238.287 54.8684 237.79 54.8684Z" fill="black"/>
<path d="M256.38 86.6676H237.79C237.294 86.6676 236.817 86.4697 236.466 86.1173C236.115 85.765 235.917 85.287 235.917 84.7887C235.917 84.2904 236.115 83.8126 236.466 83.4602C236.817 83.1079 237.294 82.9099 237.79 82.9099H256.38C256.877 82.9099 257.354 83.1079 257.705 83.4602C258.056 83.8126 258.254 84.2904 258.254 84.7887C258.254 85.287 258.056 85.765 257.705 86.1173C257.354 86.4697 256.877 86.6676 256.38 86.6676Z" fill="black"/>
<path d="M282.557 22.6746H294.856V60.2841C294.856 61.5062 294.372 62.6782 293.51 63.5423C292.649 64.4065 291.48 64.8919 290.262 64.8919H287.146C285.927 64.8919 284.759 64.4065 283.897 63.5423C283.036 62.6782 282.552 61.5062 282.552 60.2841V22.6746H282.557Z" fill="black"/>
<path d="M223.136 21.9254H299.302V29.9551H231.127C229.007 29.9551 226.975 29.1106 225.476 27.6074C223.978 26.1042 223.136 24.0654 223.136 21.9395V21.9278V21.9254Z" fill="black"/>
<path d="M299.302 22.6676H282.557V55.6622H299.302V22.6676Z" fill="black"/>
<g opacity="0.7">
<path opacity="0.7" d="M234.967 34.2177H230.495C229.418 34.2177 228.544 35.0936 228.544 36.174V36.9913C228.544 38.0718 229.418 38.9477 230.495 38.9477H234.967C236.044 38.9477 236.917 38.0718 236.917 36.9913V36.174C236.917 35.0936 236.044 34.2177 234.967 34.2177Z" fill="white"/>
</g>
<path d="M221.698 148.451H222.148C224.659 148.451 227.146 147.955 229.466 146.991C231.786 146.027 233.894 144.615 235.67 142.833C237.445 141.052 238.854 138.938 239.815 136.611C240.776 134.283 241.27 131.789 241.27 129.27V129.24C241.27 124.153 239.255 119.274 235.669 115.677C232.083 112.08 227.219 110.059 222.148 110.059H221.698C218.6 110.059 215.628 111.294 213.437 113.492C211.246 115.689 210.015 118.67 210.015 121.778V136.731C210.015 139.84 211.246 142.82 213.437 145.018C215.628 147.216 218.6 148.451 221.698 148.451Z" fill="#FFAF77"/>
<path d="M239.008 120.214C239.031 120.59 239.066 120.963 239.066 121.346V121.377C239.066 126.464 237.052 131.342 233.466 134.939C229.88 138.536 225.016 140.557 219.945 140.557H219.493C217.637 140.557 215.808 140.112 214.158 139.26C212.507 138.408 211.084 137.173 210.006 135.658V136.731C210.006 139.839 211.237 142.82 213.428 145.018C215.619 147.216 218.59 148.451 221.689 148.451H222.138C224.65 148.451 227.136 147.955 229.456 146.991C231.776 146.027 233.885 144.615 235.66 142.833C237.436 141.052 238.844 138.938 239.805 136.61C240.766 134.283 241.26 131.789 241.26 129.27V129.24C241.264 126.091 240.49 122.99 239.008 120.214Z" fill="#F08960"/>
<path d="M222.138 150.329H221.698C218.105 150.323 214.66 148.889 212.119 146.34C209.578 143.791 208.148 140.336 208.142 136.731V121.778C208.148 118.174 209.578 114.719 212.119 112.17C214.66 109.621 218.105 108.186 221.698 108.18H222.148C227.714 108.186 233.051 110.407 236.986 114.355C240.922 118.303 243.136 123.656 243.142 129.24V129.27C243.137 134.855 240.922 140.21 236.984 144.158C233.046 148.107 227.706 150.326 222.138 150.329ZM221.689 111.938C219.089 111.944 216.597 112.983 214.759 114.827C212.92 116.671 211.885 119.17 211.879 121.778V136.731C211.881 139.34 212.916 141.842 214.755 143.687C216.594 145.532 219.088 146.569 221.689 146.572H222.138C226.711 146.566 231.095 144.741 234.329 141.498C237.562 138.255 239.381 133.857 239.387 129.27V129.24C239.381 124.653 237.562 120.255 234.329 117.012C231.095 113.768 226.711 111.943 222.138 111.938H221.689Z" fill="black"/>
<g opacity="0.7">
<path opacity="0.7" d="M224.082 114.054H219.61C218.533 114.054 217.66 114.93 217.66 116.01V116.828C217.66 117.908 218.533 118.784 219.61 118.784H224.082C225.159 118.784 226.032 117.908 226.032 116.828V116.01C226.032 114.93 225.159 114.054 224.082 114.054Z" fill="white"/>
</g>
<path d="M248.539 164.057L260.471 176.025L292.442 143.953V137.894H222.81L248.539 164.057Z" fill="#37F9FF"/>
<path d="M260.471 177.904C260.225 177.904 259.981 177.855 259.754 177.761C259.526 177.667 259.32 177.528 259.146 177.354L247.205 165.377L221.474 139.214C221.214 138.95 221.038 138.615 220.968 138.251C220.898 137.887 220.937 137.51 221.08 137.168C221.223 136.827 221.463 136.535 221.77 136.33C222.078 136.125 222.439 136.015 222.808 136.015H292.442C292.938 136.015 293.415 136.213 293.766 136.565C294.117 136.918 294.315 137.396 294.315 137.894V143.956C294.314 144.453 294.116 144.931 293.764 145.282L261.794 177.354C261.443 177.706 260.967 177.903 260.471 177.904ZM249.869 162.732L260.471 173.369L290.571 143.176V139.773H227.289L249.869 162.732Z" fill="black"/>
<path d="M254.372 164.033H224.147V135.146H234.082C241.808 135.146 249.326 135.783 255.388 137.887V137.777" fill="#37F9FF"/>
<path d="M254.372 165.914H224.147C223.651 165.914 223.174 165.716 222.823 165.364C222.472 165.012 222.274 164.534 222.274 164.036V135.148C222.274 134.65 222.472 134.172 222.823 133.82C223.174 133.468 223.651 133.27 224.147 133.27H234.082C242.979 133.27 249.944 134.132 255.371 135.9H255.392C255.889 135.9 256.366 136.098 256.717 136.45C257.068 136.803 257.266 137.281 257.266 137.779V137.889C257.266 138.189 257.194 138.484 257.057 138.751C256.921 139.017 256.722 139.247 256.479 139.421C256.235 139.593 255.953 139.704 255.657 139.745C255.362 139.785 255.061 139.755 254.779 139.655C249.666 137.88 242.894 137.018 234.082 137.018H226.02V162.147H254.372C254.868 162.147 255.345 162.345 255.696 162.698C256.047 163.05 256.245 163.528 256.245 164.026C256.246 164.274 256.198 164.519 256.105 164.748C256.011 164.977 255.874 165.185 255.699 165.361C255.525 165.536 255.318 165.675 255.091 165.77C254.863 165.865 254.618 165.914 254.372 165.914Z" fill="black"/>
<path d="M226.009 184.764L196.274 154.937L209.713 141.457C213.738 137.419 219.197 135.151 224.89 135.151C230.582 135.151 236.041 137.419 240.066 141.457L240.825 142.218C244.483 145.888 246.538 150.866 246.538 156.056C246.538 161.247 244.483 166.225 240.825 169.895L226.009 184.764Z" fill="#FFAF77"/>
<path d="M226.009 187.42L193.63 154.94L208.395 140.13C212.774 135.746 218.709 133.285 224.895 133.285C231.082 133.285 237.016 135.746 241.396 140.13L242.154 140.893C246.159 144.918 248.408 150.373 248.408 156.06C248.408 161.747 246.159 167.201 242.154 171.227L226.009 187.42ZM198.926 154.94L226.009 182.108L239.504 168.57C242.808 165.25 244.663 160.751 244.663 156.06C244.663 151.369 242.808 146.869 239.504 143.549L238.745 142.788C235.069 139.109 230.088 137.042 224.894 137.042C219.701 137.042 214.719 139.109 211.043 142.788L198.926 154.94Z" fill="black"/>
<path d="M229.63 149.163L231.769 151.308C235.428 154.978 237.484 159.956 237.484 165.146C237.484 170.337 235.428 175.315 231.769 178.985L229.915 180.845L200.184 151.023L202.038 149.163C205.697 145.492 210.66 143.431 215.834 143.431C221.009 143.431 225.971 145.492 229.63 149.163Z" fill="white"/>
<path d="M229.914 182.725C229.668 182.725 229.424 182.677 229.197 182.583C228.97 182.488 228.763 182.35 228.589 182.176L198.854 152.349C198.68 152.175 198.541 151.968 198.447 151.739C198.352 151.511 198.304 151.267 198.304 151.02C198.304 150.773 198.352 150.528 198.447 150.3C198.541 150.072 198.68 149.865 198.854 149.691L200.708 147.831C204.721 143.814 210.159 141.558 215.829 141.558C221.498 141.558 226.936 143.814 230.949 147.831L233.089 149.975C237.093 154.001 239.342 159.456 239.342 165.143C239.342 170.83 237.093 176.285 233.089 180.311L231.235 182.171C230.885 182.524 230.41 182.723 229.914 182.725ZM202.832 151.02L229.914 178.185L230.445 177.655C233.748 174.334 235.602 169.835 235.602 165.144C235.602 160.453 233.748 155.954 230.445 152.633L228.306 150.487C224.995 147.174 220.51 145.314 215.833 145.314C211.157 145.314 206.672 147.174 203.361 150.487L202.832 151.02Z" fill="black"/>
<path d="M216.02 156.21L231.107 171.343C232.205 172.444 232.822 173.938 232.822 175.495C232.822 177.052 232.205 178.545 231.107 179.647L222.664 188.116L190.855 156.21C194.192 152.862 198.718 150.982 203.438 150.982C208.157 150.982 212.683 152.862 216.02 156.21Z" fill="black"/>
<path d="M222.67 189.991C222.174 189.991 221.698 189.794 221.347 189.442L189.542 157.542C189.369 157.367 189.231 157.16 189.137 156.932C189.043 156.704 188.994 156.459 188.995 156.213C188.994 155.966 189.043 155.721 189.137 155.493C189.231 155.265 189.369 155.058 189.542 154.883C193.232 151.19 198.232 149.116 203.444 149.116C208.657 149.116 213.656 151.19 217.346 154.883L232.433 170.017C233.153 170.735 233.723 171.59 234.111 172.531C234.5 173.472 234.698 174.48 234.695 175.499C234.698 176.517 234.499 177.525 234.111 178.465C233.723 179.406 233.153 180.26 232.433 180.978L224.005 189.433C223.83 189.61 223.622 189.75 223.393 189.846C223.164 189.942 222.918 189.992 222.67 189.991ZM193.602 156.29L222.677 185.456L229.79 178.322C230.161 177.953 230.456 177.514 230.657 177.03C230.858 176.547 230.961 176.027 230.961 175.503C230.961 174.979 230.858 174.46 230.657 173.977C230.456 173.493 230.161 173.054 229.79 172.685L214.705 157.554C211.949 154.792 208.281 153.139 204.392 152.906C200.504 152.674 196.666 153.877 193.602 156.29Z" fill="black"/>
<path d="M205.355 156.212C201.355 152.2 194.869 152.2 190.869 156.212C186.869 160.225 186.869 166.731 190.869 170.743L208.186 188.114C212.187 192.126 218.672 192.126 222.673 188.114C226.673 184.101 226.673 177.596 222.673 173.583L205.355 156.212Z" fill="#A8A8A8"/>
<path d="M215.428 193C213.837 193.005 212.26 192.693 210.789 192.082C209.319 191.471 207.984 190.574 206.861 189.442L189.535 172.063C187.267 169.781 185.994 166.69 185.994 163.468C185.994 160.246 187.267 157.156 189.535 154.874C191.81 152.598 194.891 151.319 198.104 151.319C201.316 151.319 204.397 152.598 206.672 154.874L223.997 172.253C226.267 174.534 227.541 177.625 227.541 180.848C227.541 184.07 226.267 187.161 223.997 189.442C222.875 190.574 221.539 191.471 220.068 192.082C218.597 192.693 217.02 193.005 215.428 193ZM198.102 155.085C197.003 155.083 195.914 155.3 194.898 155.721C193.883 156.143 192.96 156.761 192.183 157.542C190.616 159.117 189.736 161.252 189.736 163.478C189.736 165.703 190.616 167.838 192.183 169.414L209.509 186.793C210.285 187.575 211.207 188.196 212.223 188.618C213.239 189.04 214.329 189.255 215.428 189.252C216.529 189.253 217.619 189.035 218.635 188.61C219.651 188.185 220.573 187.562 221.347 186.776C222.915 185.201 223.795 183.066 223.795 180.841C223.795 178.615 222.915 176.48 221.347 174.905L204.021 157.525C203.244 156.749 202.322 156.134 201.308 155.716C200.294 155.297 199.208 155.083 198.112 155.085H198.102Z" fill="black"/>
<path d="M300.973 119.657V104.951C300.973 96.7827 294.823 90.1552 287.237 90.1552H287.225C279.639 90.1552 273.489 96.7757 273.489 104.951V114.345C273.489 119.434 277.321 119.653 282.046 119.653C277.321 119.653 273.489 123.777 273.489 128.866V148.26C273.489 153.347 277.321 157.474 282.046 157.474H289.918C299.372 157.474 307.035 149.223 307.035 139.045V126.184C307.035 122.579 304.322 119.657 300.973 119.657Z" fill="#FFAF77"/>
<path d="M300.973 119.657L300.554 116.419V133.194C300.554 143.371 294.841 147.708 285.387 147.708H275.554C274.851 147.699 274.153 147.596 273.477 147.403V148.26C273.477 153.347 277.31 157.474 282.034 157.474H289.906C299.36 157.474 307.023 149.223 307.023 139.045V126.184C307.035 122.579 304.322 119.657 300.973 119.657Z" fill="#F08960"/>
<path d="M289.918 159.352H282.046C276.296 159.352 271.616 154.376 271.616 148.26V128.871C271.606 127.321 271.913 125.785 272.517 124.358C273.121 122.931 274.009 121.643 275.128 120.573C273.112 119.655 271.616 117.861 271.616 114.35V104.956C271.616 95.7658 278.618 88.281 287.225 88.281C295.832 88.281 302.847 95.7588 302.847 104.956V118.021C306.321 118.913 308.908 122.248 308.908 126.189V139.049C308.908 150.242 300.388 159.352 289.918 159.352ZM282.046 121.541C278.361 121.541 275.362 124.829 275.362 128.875V148.26C275.362 152.304 278.361 155.595 282.046 155.595H289.918C298.323 155.595 305.162 148.171 305.162 139.045V126.184C305.162 123.622 303.289 121.536 300.973 121.536C300.477 121.536 300 121.338 299.649 120.986C299.298 120.634 299.1 120.156 299.1 119.657V104.951C299.1 97.8325 293.779 92.034 287.237 92.034C280.695 92.034 275.362 97.8255 275.362 104.951V114.345C275.362 117.196 276.485 117.774 282.046 117.774C282.543 117.774 283.019 117.972 283.371 118.324C283.722 118.677 283.919 119.154 283.919 119.653C283.92 119.9 283.872 120.145 283.778 120.373C283.684 120.602 283.546 120.809 283.372 120.984C283.198 121.159 282.992 121.298 282.764 121.393C282.536 121.488 282.293 121.536 282.046 121.536V121.541Z" fill="black"/>
<g opacity="0.7">
<path opacity="0.7" d="M287.689 95.0519H283.217C282.14 95.0519 281.266 95.9278 281.266 97.0082V97.8255C281.266 98.906 282.14 99.7818 283.217 99.7818H287.689C288.766 99.7818 289.639 98.906 289.639 97.8255V97.0082C289.639 95.9278 288.766 95.0519 287.689 95.0519Z" fill="white"/>
</g>
<path d="M278.234 148.451H277.785C275.274 148.451 272.787 147.955 270.467 146.991C268.147 146.027 266.039 144.615 264.263 142.833C262.488 141.052 261.079 138.938 260.118 136.611C259.157 134.283 258.663 131.789 258.663 129.27V129.24C258.663 124.153 260.678 119.274 264.264 115.677C267.85 112.08 272.713 110.059 277.785 110.059H278.234C281.333 110.059 284.305 111.294 286.497 113.491C288.688 115.689 289.919 118.67 289.92 121.778V136.731C289.919 139.84 288.688 142.821 286.497 145.018C284.305 147.216 281.333 148.451 278.234 148.451Z" fill="#FFAF77"/>
<path d="M283.666 111.407C283.666 111.59 283.72 111.764 283.72 111.952V130.771C283.72 132.056 283.468 133.328 282.978 134.516C282.488 135.703 281.77 136.782 280.864 137.691C279.958 138.599 278.883 139.32 277.699 139.812C276.516 140.304 275.247 140.557 273.966 140.557H262.349C264.118 143.002 266.439 144.991 269.122 146.363C271.805 147.735 274.773 148.451 277.785 148.451H278.234C281.333 148.451 284.305 147.216 286.497 145.018C288.688 142.821 289.919 139.84 289.92 136.731V121.778C289.92 119.642 289.337 117.546 288.235 115.718C287.132 113.89 285.553 112.399 283.666 111.407Z" fill="#F08960"/>
<path d="M278.235 150.329H277.785C272.219 150.323 266.882 148.102 262.946 144.154C259.01 140.206 256.796 134.853 256.79 129.27V129.24C256.797 123.656 259.011 118.304 262.947 114.356C266.883 110.408 272.219 108.187 277.785 108.18H278.235C281.828 108.186 285.273 109.62 287.815 112.169C290.356 114.718 291.787 118.173 291.793 121.778V136.731C291.787 140.336 290.356 143.792 287.815 146.341C285.273 148.889 281.828 150.324 278.235 150.329ZM277.785 111.938C273.212 111.943 268.828 113.768 265.595 117.012C262.361 120.255 260.542 124.653 260.536 129.24V129.27C260.542 133.857 262.361 138.255 265.595 141.498C268.828 144.741 273.212 146.566 277.785 146.572H278.235C280.835 146.566 283.327 145.528 285.166 143.684C287.005 141.839 288.041 139.34 288.047 136.731V121.778C288.041 119.17 287.005 116.67 285.166 114.826C283.327 112.982 280.835 111.943 278.235 111.938H277.785Z" fill="black"/>
</g>
<path d="M311 130C312.897 130.918 314.676 132.175 316.247 133.77L327.449 145.145C334.85 152.661 334.85 164.847 327.449 172.363C323.748 176.121 318.897 178 314.046 178" stroke="url(#paint0_linear_1382_12529)" stroke-width="4" stroke-linecap="round" stroke-linejoin="round"/>
<path opacity="0.4" d="M309 185.574C317.46 187.085 326.498 184.574 333.035 178.039C343.655 167.425 343.655 150.215 333.035 139.601L321.986 128.557C318.907 125.478 315.272 123.293 311.404 122" stroke="url(#paint1_linear_1382_12529)" stroke-width="4" stroke-linecap="round" stroke-linejoin="round"/>
<path opacity="0.2" d="M306.554 114C314.165 114.794 321.562 118.089 327.395 123.885L337.861 134.285C351.38 147.717 351.38 169.494 337.861 182.926C328.163 192.563 314.142 195.286 302 191.095" stroke="url(#paint2_linear_1382_12529)" stroke-width="4" stroke-linecap="round" stroke-linejoin="round"/>
<rect x="171.785" y="162.527" width="34.9903" height="62.7579" rx="17.4951" transform="rotate(-45 171.785 162.527)" stroke="url(#paint3_linear_1382_12529)" stroke-width="4" stroke-linecap="round" stroke-linejoin="round"/>
<rect opacity="0.4" x="160.396" y="161.388" width="49.4864" height="80.4751" rx="24.7432" transform="rotate(-45 160.396 161.388)" stroke="url(#paint4_linear_1382_12529)" stroke-width="4" stroke-linecap="round" stroke-linejoin="round"/>
<rect opacity="0.2" x="148.075" y="161.494" width="67.0609" height="97.7481" rx="33.5304" transform="rotate(-45 148.075 161.494)" stroke="url(#paint5_linear_1382_12529)" stroke-width="4" stroke-linecap="round" stroke-linejoin="round"/>
<path d="M48.1127 72.3111C48.1127 72.3111 43.5448 75.7277 39.7653 71.9482C33.5955 65.7784 28.1516 60.3345 28.1516 60.3345M48.1127 72.3111C48.1127 72.3111 45.7678 68.2492 44.8463 65.4155C43.6065 61.6032 43.7575 59.9716 43.3946 55.2535C38.6765 59.9716 34.6843 53.8018 34.6843 53.8018L28.1516 60.3345M48.1127 72.3111C42.3225 78.2379 37.9677 76.3025 35.5483 73.8831L24.9032 63.2379L28.1516 60.3345" stroke="#4DDA36" stroke-width="2.325" stroke-linecap="round" stroke-linejoin="round"/>
<path d="M41.3601 66.1324C40.0625 63.4879 40.0625 61.6129 40.0625 61.6129" stroke="#4DDA36" stroke-width="2.325" stroke-linecap="round" stroke-linejoin="round"/>
<g opacity="0.3">
<path d="M63.7183 60.7812L55.2808 69.2187" stroke="black" stroke-width="1.55" stroke-linecap="round" stroke-linejoin="round"/>
<path d="M63.7183 69.2187L55.2808 60.7812" stroke="black" stroke-width="1.55" stroke-linecap="round" stroke-linejoin="round"/>
</g>
<path d="M89.5 75.3125V54.6875C89.5 53.652 88.6605 52.8125 87.625 52.8125H76.375C75.3395 52.8125 74.5 53.652 74.5 54.6875V75.3125C74.5 76.348 75.3395 77.1875 76.375 77.1875H87.625C88.6605 77.1875 89.5 76.348 89.5 75.3125Z" stroke="black" stroke-width="2.325" stroke-linecap="round" stroke-linejoin="round"/>
<path d="M78.2505 56.5625H85.7505" stroke="black" stroke-width="2.325" stroke-linecap="round" stroke-linejoin="round"/>
<g opacity="0.3">
<path d="M108.718 60.7812L100.281 69.2187" stroke="black" stroke-width="1.55" stroke-linecap="round" stroke-linejoin="round"/>
<path d="M108.718 69.2187L100.281 60.7812" stroke="black" stroke-width="1.55" stroke-linecap="round" stroke-linejoin="round"/>
</g>
<path d="M132.812 62.6562H136.563" stroke="black" stroke-width="2.325" stroke-linecap="round" stroke-linejoin="round"/>
<path d="M123.438 62.6562H127.188" stroke="black" stroke-width="2.325" stroke-linecap="round" stroke-linejoin="round"/>
<path d="M125.313 60.7812V64.5312" stroke="black" stroke-width="2.325" stroke-linecap="round" stroke-linejoin="round"/>
<path d="M135.158 56.532L124.844 56.5625C123.411 56.5626 122.025 57.0673 120.927 57.9882C119.829 58.909 119.091 60.187 118.842 61.5979L118.843 61.5981L116.925 71.4609C116.804 72.1481 116.905 72.8561 117.214 73.4819C117.523 74.1078 118.023 74.6189 118.642 74.9412C119.261 75.2634 119.966 75.3799 120.656 75.2738C121.346 75.1677 121.984 74.8445 122.477 74.3511L122.477 74.3509L127.544 68.75L135.158 68.7195C136.774 68.7195 138.324 68.0775 139.467 66.9347C140.61 65.7919 141.252 64.2419 141.252 62.6257C141.252 61.0096 140.61 59.4596 139.467 58.3168C138.324 57.174 136.774 56.532 135.158 56.532V56.532Z" stroke="black" stroke-width="2.325" stroke-linecap="round" stroke-linejoin="round"/>
<path d="M141.16 61.5676L143.076 71.461C143.197 72.1482 143.096 72.8561 142.787 73.482C142.478 74.1079 141.978 74.619 141.359 74.9412C140.74 75.2635 140.035 75.38 139.345 75.2739C138.655 75.1678 138.017 74.8445 137.524 74.3511L137.524 74.3509L132.461 68.7304" stroke="black" stroke-width="2.325" stroke-linecap="round" stroke-linejoin="round"/>
<rect x="42" y="104" width="8" height="8" rx="1" fill="#4DDA36"/>
<rect x="56" y="106" width="70" height="4" rx="2" fill="#F0F0F0"/>
<rect x="56" y="106" width="30" height="4" rx="2" fill="#4DDA36"/>
<circle cx="46" cy="127" r="4" fill="#4DDA36"/>
<rect x="56" y="125" width="70" height="4" rx="2" fill="#F0F0F0"/>
<rect x="56" y="125" width="57" height="4" rx="2" fill="#4DDA36"/>
<g clip-path="url(#clip1_1382_12529)">
<path d="M45.134 142.5C45.5189 141.833 46.4811 141.833 46.866 142.5L50.3301 148.5C50.715 149.167 50.2339 150 49.4641 150H42.5359C41.7661 150 41.285 149.167 41.6699 148.5L45.134 142.5Z" fill="#4DDA36"/>
</g>
<rect x="56" y="144" width="70" height="4" rx="2" fill="#F0F0F0"/>
<rect x="56" y="144" width="37" height="4" rx="2" fill="#4DDA36"/>
<defs>
<linearGradient id="paint0_linear_1382_12529" x1="284.754" y1="150.781" x2="297.005" y2="162.846" gradientUnits="userSpaceOnUse">
<stop stop-color="#00E65C"/>
<stop offset="1" stop-color="#01D052"/>
</linearGradient>
<linearGradient id="paint1_linear_1382_12529" x1="276.008" y1="151.784" x2="291.717" y2="167.5" gradientUnits="userSpaceOnUse">
<stop stop-color="#00E65C"/>
<stop offset="1" stop-color="#01D052"/>
</linearGradient>
<linearGradient id="paint2_linear_1382_12529" x1="268.295" y1="152.71" x2="287.038" y2="171.573" gradientUnits="userSpaceOnUse">
<stop stop-color="#00E65C"/>
<stop offset="1" stop-color="#01D052"/>
</linearGradient>
<linearGradient id="paint3_linear_1382_12529" x1="175.287" y1="172.488" x2="175.287" y2="192.411" gradientUnits="userSpaceOnUse">
<stop stop-color="#00E65C"/>
<stop offset="1" stop-color="#01D052"/>
</linearGradient>
<linearGradient id="paint4_linear_1382_12529" x1="165.348" y1="174.162" x2="165.348" y2="199.709" gradientUnits="userSpaceOnUse">
<stop stop-color="#00E65C"/>
<stop offset="1" stop-color="#01D052"/>
</linearGradient>
<linearGradient id="paint5_linear_1382_12529" x1="154.786" y1="177.01" x2="154.786" y2="208.041" gradientUnits="userSpaceOnUse">
<stop stop-color="#00E65C"/>
<stop offset="1" stop-color="#01D052"/>
</linearGradient>
<clipPath id="clip0_1382_12529">
<rect width="140" height="187" fill="white" transform="translate(186 6)"/>
</clipPath>
<clipPath id="clip1_1382_12529">
<rect width="10" height="10" fill="white" transform="translate(41 141)"/>
</clipPath>
</defs>
</svg>
