<svg width="366" height="220" viewBox="0 0 366 220" fill="none" xmlns="http://www.w3.org/2000/svg">
<path d="M205.14 104.001V139.733L242.886 147.437V111.708L205.14 104.001Z" fill="#FFAF77"/>
<path d="M244.721 149.7L203.313 141.245V101.741L244.73 110.196L244.721 149.7ZM206.984 138.222L241.059 145.177V113.219L206.984 106.264V138.222Z" fill="black"/>
<path d="M195.836 137.808V94.8159H196.138C198.526 94.8165 200.815 95.7724 202.503 97.4732C204.191 99.1741 205.14 101.481 205.14 103.886V139.726L195.836 137.808Z" fill="black"/>
<path d="M205.149 141.582C205.025 141.583 204.901 141.57 204.779 141.545L195.475 139.617C195.062 139.532 194.69 139.305 194.423 138.975C194.156 138.646 194.01 138.233 194.009 137.808V94.8159C194.009 94.3255 194.203 93.8552 194.547 93.5084C194.891 93.1616 195.358 92.9668 195.845 92.9668H196.148C199.021 92.9705 201.776 94.1221 203.807 96.1691C205.839 98.2161 206.981 100.991 206.984 103.886V139.726C206.984 140.001 206.923 140.272 206.806 140.52C206.689 140.767 206.519 140.986 206.307 141.159C205.981 141.43 205.572 141.58 205.149 141.582ZM197.68 136.298L203.313 137.454V103.893C203.311 102.247 202.752 100.651 201.728 99.3682C200.703 98.0857 199.276 97.1933 197.68 96.8384V136.298Z" fill="black"/>
<path d="M269.132 154.417V114.874L237.781 107.17V148.639L269.132 154.417Z" fill="#37F9FF"/>
<path d="M269.132 156.266C269.021 156.267 268.91 156.257 268.801 156.236L237.45 150.458C237.027 150.38 236.645 150.155 236.37 149.823C236.095 149.491 235.945 149.072 235.945 148.639V107.17C235.945 106.89 236.008 106.614 236.13 106.362C236.251 106.11 236.428 105.889 236.647 105.716C236.866 105.543 237.121 105.423 237.393 105.363C237.665 105.304 237.946 105.308 238.216 105.374L269.566 113.078C269.965 113.176 270.321 113.406 270.575 113.732C270.829 114.058 270.967 114.46 270.967 114.874V154.417C270.968 154.689 270.908 154.957 270.794 155.202C270.68 155.448 270.514 155.665 270.307 155.839C269.977 156.115 269.561 156.267 269.132 156.266ZM239.616 147.09L267.296 152.191V116.319L239.616 109.516V147.09Z" fill="black"/>
<path d="M274.48 28.6736H243.049C233.105 28.6736 225.044 36.794 225.044 46.811V85.284C225.044 95.301 233.105 103.421 243.049 103.421H274.48C284.424 103.421 292.485 95.301 292.485 85.284V46.811C292.485 36.794 284.424 28.6736 274.48 28.6736Z" fill="#FFAF77"/>
<path d="M226.088 40.7667H291.441C290.202 37.2311 287.907 34.1692 284.869 32.0026C281.832 29.836 278.202 28.6714 274.48 28.6689H243.046C239.325 28.6712 235.695 29.8358 232.658 32.0024C229.621 34.169 227.326 37.2311 226.088 40.7667Z" fill="#F08960"/>
<path d="M281.74 30.2222C281.74 30.3493 277.954 30.4718 277.954 30.6013V86.0745C277.954 88.6285 276.947 91.0779 275.155 92.8841C273.362 94.6903 270.931 95.7054 268.395 95.706H228.334C229.992 98.0856 232.195 100.028 234.756 101.369C237.317 102.71 240.16 103.41 243.046 103.41H274.48C279.255 103.41 283.835 101.499 287.212 98.0975C290.588 94.6961 292.485 90.0827 292.485 85.2724V46.811C292.484 43.2939 291.468 39.853 289.56 36.9076C287.653 33.9621 284.935 31.6392 281.74 30.2222Z" fill="#F08960"/>
<path d="M274.48 105.27H243.046C237.787 105.264 232.744 103.156 229.025 99.409C225.306 95.6622 223.214 90.5824 223.208 85.2839V46.8109C223.214 41.5124 225.306 36.4327 229.025 32.6859C232.744 28.9391 237.787 26.8312 243.046 26.8245H274.48C279.74 26.8306 284.783 28.9382 288.503 32.6851C292.222 36.432 294.314 41.512 294.32 46.8109V85.2839C294.314 90.5828 292.222 95.6629 288.503 99.4098C284.783 103.157 279.74 105.264 274.48 105.27ZM243.046 30.5227C238.76 30.5276 234.65 32.2453 231.619 35.2989C228.588 38.3526 226.884 42.4927 226.88 46.8109V85.2839C226.884 89.6022 228.588 93.7423 231.619 96.7959C234.65 99.8496 238.76 101.567 243.046 101.572H274.48C278.767 101.567 282.877 99.8496 285.908 96.7961C288.939 93.7425 290.644 89.6024 290.649 85.2839V46.8109C290.644 42.4925 288.939 38.3524 285.908 35.2988C282.877 32.2452 278.767 30.5276 274.48 30.5227H243.046Z" fill="black"/>
<path d="M253.394 76.8242H243.466C241.484 76.8242 239.582 76.0308 238.18 74.6185C236.778 73.2063 235.991 71.2909 235.991 69.2937V60.0735C235.991 58.7752 236.244 57.4896 236.737 56.2901C237.23 55.0906 237.953 54.0007 238.865 53.0826C239.776 52.1646 240.858 51.4364 242.049 50.9397C243.239 50.443 244.515 50.1874 245.804 50.1877H251.065C253.668 50.1877 256.164 51.2293 258.005 53.0833C259.845 54.9372 260.879 57.4517 260.879 60.0735V69.2937C260.879 70.2833 260.685 71.2632 260.308 72.1773C259.932 73.0914 259.381 73.9218 258.685 74.6211C257.99 75.3205 257.165 75.875 256.257 76.253C255.35 76.631 254.377 76.8251 253.394 76.8242Z" fill="white"/>
<path d="M243.859 61.2871H239.359C236.873 61.2871 234.857 63.3175 234.857 65.822V70.3547C234.857 72.8592 236.873 74.8896 239.359 74.8896H243.859C246.345 74.8896 248.36 72.8592 248.36 70.3547V65.822C248.36 63.3175 246.345 61.2871 243.859 61.2871Z" fill="black"/>
<path d="M235.984 61.9136C235.497 61.9136 235.03 61.7188 234.686 61.372C234.342 61.0252 234.148 60.5549 234.148 60.0645C234.151 56.9531 235.38 53.9701 237.564 51.77C239.748 49.57 242.709 48.3326 245.797 48.3296H251.059C251.545 48.3296 252.012 48.5243 252.357 48.8711C252.701 49.2179 252.894 49.6883 252.894 50.1787C252.894 50.6691 252.701 51.1394 252.357 51.4862C252.012 51.833 251.545 52.0278 251.059 52.0278H245.797C243.682 52.0296 241.654 52.8769 240.158 54.3837C238.662 55.8904 237.821 57.9336 237.82 60.0645C237.82 60.5549 237.626 61.0252 237.282 61.372C236.938 61.7188 236.471 61.9136 235.984 61.9136Z" fill="black"/>
<path d="M219.361 28.6736H290.177V36.5762H227.192C225.115 36.5762 223.123 35.7451 221.654 34.2656C220.186 32.7862 219.361 30.7797 219.361 28.6875V28.6759V28.6736Z" fill="black"/>
<path d="M283.369 30.6011H298.076V78.9783C298.076 80.5109 297.472 81.9806 296.396 83.0643C295.321 84.148 293.862 84.7568 292.34 84.7568H283.369V30.6011Z" fill="black"/>
<path d="M292.338 86.6061H283.367C282.88 86.6061 282.413 86.4113 282.069 86.0645C281.725 85.7178 281.531 85.2474 281.531 84.7569V30.5967C281.531 30.1063 281.725 29.636 282.069 29.2892C282.413 28.9424 282.88 28.7476 283.367 28.7476H298.074C298.561 28.7476 299.028 28.9424 299.372 29.2892C299.716 29.636 299.91 30.1063 299.91 30.5967V78.9739C299.91 79.9759 299.715 80.9683 299.335 81.8942C298.954 82.8202 298.397 83.6616 297.694 84.3704C296.991 85.0792 296.156 85.6414 295.237 86.025C294.318 86.4087 293.333 86.6061 292.338 86.6061ZM285.202 82.9078H292.338C293.373 82.9078 294.365 82.4939 295.096 81.757C295.828 81.0201 296.239 80.0206 296.239 78.9785V32.4458H285.202V82.9078Z" fill="black"/>
<path d="M272.932 19.3841H250.492V14.8491H229.3C226.664 14.8497 224.136 15.9048 222.272 17.7825C220.409 19.6601 219.361 22.2066 219.361 24.862C219.361 26.0647 219.835 27.2182 220.679 28.0687C221.523 28.9192 222.668 29.397 223.862 29.397H272.932V19.3841Z" fill="black"/>
<path d="M272.932 31.246H223.862C222.182 31.2442 220.571 30.571 219.383 29.3741C218.195 28.1773 217.527 26.5546 217.525 24.862C217.529 21.7171 218.77 18.7021 220.978 16.4784C223.185 14.2546 226.178 13.0037 229.3 13H250.492C250.979 13 251.445 13.1948 251.79 13.5416C252.134 13.8884 252.327 14.3587 252.327 14.8491V17.535H272.932C273.418 17.535 273.885 17.7297 274.229 18.0765C274.574 18.4232 274.767 18.8937 274.767 19.3841V29.3969C274.767 29.8874 274.574 30.3577 274.229 30.7044C273.885 31.0512 273.418 31.246 272.932 31.246ZM229.3 16.6982C227.152 16.7007 225.092 17.5615 223.573 19.092C222.053 20.6225 221.199 22.6976 221.196 24.862C221.197 25.5741 221.478 26.257 221.978 26.7605C222.478 27.2641 223.155 27.5472 223.862 27.5478H271.096V21.2332H250.492C250.005 21.2332 249.538 21.0383 249.194 20.6916C248.85 20.3448 248.656 19.8745 248.656 19.3841V16.6982H229.3Z" fill="black"/>
<path d="M292.295 29.3947L272.932 29.3947V22.2155L285.184 22.2155C287.07 22.2155 288.88 22.9704 290.213 24.3142C291.547 25.6579 292.297 27.4805 292.297 29.3808V29.397L292.295 29.3947Z" fill="black"/>
<path d="M292.294 31.246H272.932C272.445 31.246 271.978 31.0512 271.634 30.7044C271.289 30.3576 271.096 29.8873 271.096 29.3969V22.2178C271.096 21.7273 271.289 21.257 271.634 20.9103C271.978 20.5635 272.445 20.3687 272.932 20.3687H285.182C287.555 20.3687 289.831 21.3184 291.509 23.0089C293.187 24.6994 294.13 26.9923 294.13 29.383C294.13 29.8747 293.937 30.3465 293.593 30.6955C293.249 31.0445 292.783 31.2424 292.294 31.246ZM274.767 27.5478H290.14C289.767 26.527 289.093 25.6459 288.207 25.0235C287.322 24.401 286.268 24.0671 285.188 24.0669H274.774L274.767 27.5478Z" fill="black"/>
<g opacity="0.7">
<path opacity="0.7" d="M236.693 40.7712H232.311C231.255 40.7712 230.399 41.6333 230.399 42.6966V43.501C230.399 44.5643 231.255 45.4264 232.311 45.4264H236.693C237.749 45.4264 238.604 44.5643 238.604 43.501V42.6966C238.604 41.6333 237.749 40.7712 236.693 40.7712Z" fill="white"/>
</g>
<path d="M233.024 91.6656C232.689 91.6664 232.36 91.5746 232.072 91.4002C231.785 91.2258 231.551 90.9755 231.395 90.6764C231.17 90.2437 231.124 89.7386 231.267 89.2718C231.41 88.8049 231.731 88.414 232.159 88.1847C232.389 88.0576 238.102 85.0806 248.633 85.0806C249.12 85.0806 249.587 85.2753 249.931 85.6221C250.275 85.9688 250.469 86.4393 250.469 86.9297C250.469 87.4201 250.275 87.8904 249.931 88.2372C249.587 88.5839 249.12 88.7788 248.633 88.7788C239.098 88.7788 233.921 91.4298 233.871 91.4553C233.609 91.5929 233.319 91.6651 233.024 91.6656Z" fill="black"/>
<path d="M277.387 61.8765H285.381C286.72 61.8765 288.004 62.4122 288.951 63.3658C289.897 64.3195 290.429 65.6129 290.429 66.9615V71.7299C290.429 73.0785 289.897 74.3719 288.951 75.3256C288.004 76.2792 286.72 76.8149 285.381 76.8149H277.387V61.8765Z" fill="#F08960"/>
<path d="M273.769 29.4109H285.822V66.4254C285.822 67.6281 285.348 68.7816 284.503 69.6321C283.659 70.4825 282.514 70.9603 281.32 70.9603H278.268C277.075 70.9603 275.929 70.4825 275.085 69.6321C274.241 68.7816 273.767 67.6281 273.767 66.4254V29.4109H273.769Z" fill="black"/>
<path d="M295.915 29.4038H279.505V61.8764H295.915V29.4038Z" fill="black"/>
<path d="M303.285 111.821L278.172 123.366V84.1606H297.317C301.13 84.1606 304.787 85.6865 307.483 88.4026C310.179 91.1187 311.694 94.8025 311.694 98.6437C311.694 101.421 310.902 104.14 309.411 106.477C307.92 108.813 305.793 110.668 303.285 111.821Z" fill="#FFAF77"/>
<path d="M276.336 126.242V82.3115H297.317C301.615 82.3164 305.736 84.0386 308.776 87.1004C311.815 90.1622 313.525 94.3136 313.53 98.6437C313.525 101.775 312.629 104.839 310.948 107.473C309.268 110.106 306.872 112.2 304.047 113.504L276.336 126.242ZM280.008 86.0097V120.489L302.523 110.138C304.71 109.13 306.564 107.512 307.866 105.475C309.167 103.437 309.861 101.066 309.865 98.6437C309.862 95.2941 308.539 92.0827 306.188 89.7142C303.837 87.3456 300.649 86.0134 297.324 86.0097H280.008Z" fill="black"/>
<path d="M287.118 95.0841L300.07 124.261C301.591 127.686 304.063 130.595 307.189 132.637C310.315 134.678 313.96 135.764 317.685 135.764H332.094C332.628 135.765 333.158 135.659 333.652 135.453C334.145 135.247 334.594 134.946 334.972 134.565C335.35 134.184 335.65 133.733 335.855 133.235C336.059 132.738 336.164 132.205 336.164 131.666C336.164 131.128 336.059 130.595 335.855 130.098C335.65 129.6 335.35 129.148 334.972 128.768C334.594 128.387 334.145 128.085 333.652 127.88C333.158 127.674 332.628 127.568 332.094 127.568H331.176L331.089 125.331C331.045 124.274 330.598 123.275 329.84 122.543C329.082 121.811 328.073 121.402 327.023 121.402H326.938C326.036 121.402 325.151 121.148 324.385 120.667C323.62 120.186 323.003 119.498 322.606 118.681L310.446 93.6834C309.055 90.8271 306.897 88.4208 304.217 86.7379C301.537 85.0549 298.442 84.1628 295.284 84.1628H276.128L287.118 95.0841Z" fill="#FFAF77"/>
<path d="M332.094 137.614H317.685C313.606 137.611 309.615 136.42 306.192 134.185C302.77 131.95 300.061 128.766 298.393 125.017L285.583 96.1567L271.651 82.3022H295.284C298.783 82.3163 302.208 83.3112 305.177 85.1756C308.146 87.04 310.541 89.7002 312.093 92.8583L324.254 117.856C324.502 118.36 324.884 118.785 325.358 119.083C325.833 119.381 326.38 119.539 326.938 119.541H327.023C328.551 119.537 330.02 120.131 331.12 121.197C332.221 122.264 332.867 123.72 332.922 125.257L332.943 125.777C334.348 125.985 335.632 126.695 336.56 127.777C337.488 128.86 337.998 130.243 337.998 131.673C337.994 133.249 337.37 134.758 336.263 135.871C335.157 136.985 333.658 137.611 332.094 137.614ZM280.595 86.0005L288.653 94.014L301.745 123.514C303.124 126.611 305.363 129.24 308.191 131.086C311.018 132.931 314.316 133.914 317.685 133.915H332.094C332.686 133.915 333.255 133.679 333.674 133.257C334.093 132.835 334.328 132.263 334.329 131.666C334.328 131.07 334.093 130.497 333.674 130.075C333.255 129.653 332.687 129.416 332.094 129.415H325.39V125.717H329.258L329.244 125.4C329.224 124.819 328.979 124.269 328.563 123.865C328.147 123.462 327.592 123.238 327.014 123.239H326.929C325.684 123.234 324.465 122.88 323.409 122.217C322.352 121.553 321.5 120.607 320.948 119.483L308.787 94.4855C307.539 91.9468 305.614 89.8082 303.227 88.3096C300.841 86.8109 298.087 86.0114 295.275 86.0005H280.595Z" fill="black"/>
<path d="M290.904 196.149L319.341 174.795L302.145 136.449L272.546 148.237L275.699 162.48C276.004 163.864 276.46 165.209 277.059 166.492L290.904 196.149Z" fill="#FFAF77"/>
<path d="M304.223 141.081H290.502L272.539 148.246L275.692 162.489C275.74 162.72 275.816 162.918 275.871 163.136H314.112L304.223 141.081Z" fill="#F08960"/>
<path d="M290.202 198.985L275.391 167.287C274.737 165.882 274.236 164.41 273.9 162.895L270.408 147.111L303.097 134.086L321.622 175.393L290.202 198.985ZM274.673 149.383L277.481 162.084C277.759 163.336 278.172 164.553 278.714 165.713L291.608 193.316L317.061 174.2L301.192 138.818L274.673 149.383Z" fill="black"/>
<path d="M323.371 183.46L289.16 209.151L288.979 208.906C288.272 207.951 287.759 206.866 287.469 205.711C287.179 204.557 287.117 203.356 287.288 202.178C287.458 201 287.858 199.867 288.463 198.844C289.068 197.821 289.867 196.928 290.815 196.216L319.339 174.794L323.371 183.46Z" fill="black"/>
<path d="M289.16 211C289.071 211 288.982 210.993 288.894 210.979C288.413 210.909 287.978 210.649 287.687 210.256L287.508 210.011C285.794 207.688 285.064 204.775 285.478 201.911C285.893 199.047 287.418 196.465 289.72 194.733L318.245 173.313C318.463 173.149 318.715 173.036 318.982 172.983C319.249 172.929 319.525 172.936 319.789 173.003C320.053 173.07 320.299 173.195 320.51 173.369C320.72 173.543 320.889 173.763 321.005 174.011L325.032 182.676C325.211 183.062 325.253 183.498 325.15 183.911C325.048 184.325 324.806 184.689 324.467 184.944L290.257 210.633C289.94 210.871 289.556 211 289.16 211ZM318.635 177.633L291.914 197.71C290.605 198.695 289.669 200.1 289.26 201.694C288.852 203.288 288.995 204.974 289.667 206.474L321.072 182.898L318.635 177.633Z" fill="black"/>
<path d="M284.723 182.942L290.904 196.149L319.342 174.795L313.16 161.59L284.723 182.942Z" fill="white"/>
<path d="M290.904 197.999C290.754 197.998 290.605 197.98 290.459 197.943C290.195 197.876 289.95 197.752 289.74 197.578C289.53 197.404 289.361 197.185 289.245 196.938L283.05 183.73C282.87 183.344 282.828 182.908 282.931 182.494C283.033 182.08 283.275 181.715 283.615 181.461L312.052 160.106C312.27 159.942 312.522 159.83 312.788 159.776C313.055 159.723 313.33 159.729 313.594 159.796C313.857 159.862 314.103 159.987 314.313 160.16C314.523 160.334 314.692 160.552 314.808 160.799L321.003 174.006C321.184 174.392 321.227 174.829 321.124 175.243C321.022 175.658 320.78 176.023 320.441 176.278L292.001 197.633C291.684 197.871 291.299 197.999 290.904 197.999ZM287.024 183.522L291.613 193.316L317.047 174.217L312.458 164.423L287.024 183.522Z" fill="black"/>
<path d="M258.823 139.162L264.449 141.088L270.185 155.379H293.364L295.114 150.846L300.681 155.379H316.262L304.701 123.544H260.629" fill="#37F9FF"/>
<path d="M316.262 157.228H300.681C300.263 157.227 299.858 157.082 299.533 156.817L295.922 153.876L295.082 156.049C294.948 156.397 294.713 156.695 294.407 156.905C294.102 157.116 293.741 157.228 293.371 157.228H270.197C269.831 157.228 269.473 157.118 269.17 156.912C268.867 156.706 268.631 156.414 268.494 156.072L263.075 142.567L258.242 140.912C258.014 140.834 257.803 140.711 257.622 140.551C257.441 140.391 257.293 140.196 257.186 139.978C257.08 139.76 257.017 139.524 257.001 139.281C256.986 139.039 257.018 138.796 257.095 138.566C257.173 138.336 257.295 138.124 257.454 137.941C257.613 137.759 257.806 137.609 258.022 137.502C258.238 137.395 258.473 137.331 258.714 137.316C258.955 137.3 259.196 137.332 259.424 137.41L265.05 139.338C265.3 139.423 265.529 139.561 265.721 139.744C265.913 139.926 266.064 140.148 266.163 140.394L271.44 153.53H292.109L293.405 150.176C293.51 149.905 293.677 149.662 293.892 149.468C294.107 149.274 294.365 149.134 294.644 149.06C294.923 148.985 295.216 148.977 295.499 149.038C295.782 149.098 296.046 149.225 296.271 149.409L301.319 153.53H313.624L303.407 125.393H260.629C260.142 125.393 259.675 125.198 259.331 124.852C258.987 124.505 258.793 124.035 258.793 123.544C258.793 123.054 258.987 122.583 259.331 122.237C259.675 121.89 260.142 121.695 260.629 121.695H304.701C305.077 121.695 305.443 121.812 305.752 122.029C306.06 122.246 306.294 122.553 306.424 122.909L317.985 154.743C318.087 155.023 318.121 155.323 318.083 155.618C318.045 155.914 317.937 156.196 317.768 156.44C317.598 156.684 317.373 156.882 317.111 157.02C316.849 157.157 316.558 157.228 316.262 157.228Z" fill="black"/>
<path d="M299.8 132.274H277.052C272.023 132.274 267.113 130.738 262.969 127.867C258.825 124.996 255.643 120.927 253.844 116.196L248.654 102.559C245.212 93.718 251.692 84.165 261.117 84.165H279.065C282.642 84.165 286.13 85.288 289.045 87.378C291.959 89.4679 294.154 92.4208 295.325 95.826L305.219 124.61C305.517 125.48 305.605 126.409 305.475 127.321C305.344 128.232 304.999 129.098 304.469 129.848C303.939 130.598 303.239 131.209 302.426 131.631C301.614 132.053 300.714 132.274 299.8 132.274Z" fill="#37F9FF"/>
<path d="M299.8 134.123H277.052C271.651 134.131 266.376 132.479 261.93 129.39C257.474 126.313 254.056 121.941 252.13 116.857L246.94 103.22C246.038 100.898 245.713 98.3886 245.992 95.9108C246.272 93.433 247.149 91.0616 248.546 89.0029C249.942 86.9408 251.817 85.2536 254.008 84.0878C256.199 82.922 258.64 82.313 261.117 82.3137H279.065C283.023 82.3158 286.883 83.5597 290.108 85.8727C293.333 88.1856 295.763 91.4528 297.06 95.2204L306.954 124.002C307.356 125.15 307.476 126.379 307.304 127.584C307.133 128.789 306.674 129.934 305.967 130.922C305.272 131.918 304.348 132.729 303.274 133.286C302.2 133.844 301.008 134.131 299.8 134.123ZM261.117 86.0097C259.235 85.9954 257.379 86.4512 255.714 87.3366C254.05 88.222 252.629 89.5092 251.579 91.0831C250.506 92.6415 249.833 94.4436 249.621 96.3282C249.409 98.2127 249.664 100.121 250.363 101.882L255.558 115.535C257.241 119.905 260.192 123.663 264.026 126.319C267.86 128.975 272.399 130.406 277.052 130.425H299.8C300.422 130.428 301.036 130.28 301.59 129.993C302.143 129.705 302.619 129.288 302.977 128.775C303.342 128.266 303.578 127.676 303.666 127.054C303.755 126.433 303.692 125.8 303.484 125.208L293.591 96.427C292.545 93.385 290.584 90.747 287.98 88.8799C285.377 87.0129 282.26 86.0096 279.065 86.0097H261.117Z" fill="black"/>
<path d="M219.344 106.902L205.14 104.001V139.733L219.344 142.632V106.902Z" fill="white"/>
<path d="M219.345 144.481C219.222 144.481 219.1 144.469 218.98 144.444L204.775 141.545C204.36 141.461 203.987 141.234 203.718 140.904C203.45 140.573 203.304 140.16 203.304 139.733V104.002C203.304 103.728 203.365 103.457 203.482 103.21C203.598 102.962 203.768 102.744 203.979 102.571C204.189 102.397 204.435 102.273 204.699 102.207C204.963 102.141 205.238 102.135 205.504 102.189L219.709 105.09C220.124 105.175 220.498 105.402 220.766 105.732C221.034 106.062 221.18 106.476 221.18 106.902V142.632C221.18 142.906 221.12 143.177 221.004 143.424C220.888 143.672 220.718 143.891 220.508 144.065C220.179 144.335 219.768 144.482 219.345 144.481ZM206.975 138.222L217.509 140.371V108.414L206.975 106.264V138.222Z" fill="black"/>
<path d="M236.353 77.231H228.382C224.023 77.231 219.842 78.9755 216.759 82.0809C213.677 85.1863 211.945 89.3981 211.945 93.7897C211.945 95.9643 212.37 98.1177 213.196 100.127C214.022 102.136 215.232 103.962 216.759 105.499C218.285 107.037 220.097 108.257 222.092 109.089C224.086 109.921 226.224 110.349 228.382 110.349H236.353C237.875 110.349 239.334 109.74 240.409 108.656C241.485 107.572 242.089 106.103 242.089 104.57C242.089 106.103 242.694 107.572 243.77 108.656C244.845 109.74 246.304 110.349 247.826 110.349H258.557C260.715 110.349 262.853 109.921 264.847 109.089C266.842 108.257 268.654 107.037 270.181 105.499C271.707 103.962 272.918 102.136 273.744 100.127C274.57 98.1177 274.995 95.9643 274.994 93.7897C274.994 89.3981 273.262 85.1863 270.18 82.0809C267.097 78.9755 262.916 77.231 258.557 77.231H247.826C246.304 77.231 244.845 77.8399 243.77 78.9235C242.694 80.0072 242.089 81.4769 242.089 83.0094C242.089 81.4769 241.485 80.0072 240.409 78.9235C239.334 77.8399 237.875 77.231 236.353 77.231Z" fill="#FFAF77"/>
<path d="M258.561 112.188H247.826C246.736 112.189 245.659 111.952 244.669 111.494C243.679 111.036 242.799 110.368 242.089 109.535C241.38 110.368 240.5 111.036 239.51 111.494C238.52 111.952 237.443 112.189 236.353 112.188H228.382C223.538 112.184 218.893 110.243 215.467 106.791C212.041 103.34 210.114 98.6611 210.109 93.7806C210.115 88.9002 212.042 84.2213 215.467 80.7704C218.893 77.3194 223.538 75.3783 228.382 75.3728H236.353C237.443 75.3728 238.52 75.6101 239.51 76.0685C240.5 76.5269 241.38 77.1955 242.089 78.0285C242.799 77.1955 243.679 76.5269 244.669 76.0685C245.659 75.6101 246.736 75.3728 247.826 75.3728H258.557C263.401 75.3783 268.046 77.3194 271.472 80.7704C274.897 84.2213 276.824 88.9002 276.83 93.7806C276.825 98.6603 274.899 103.339 271.474 106.79C268.049 110.241 263.405 112.182 258.561 112.188ZM240.258 104.561H243.93C243.93 105.603 244.341 106.603 245.072 107.339C245.804 108.076 246.796 108.49 247.83 108.49H258.561C262.433 108.486 266.144 106.935 268.882 104.177C271.619 101.42 273.159 97.6805 273.163 93.7806C273.159 89.8807 271.619 86.1418 268.882 83.3841C266.144 80.6264 262.433 79.0753 258.561 79.071H247.826C246.791 79.071 245.799 79.485 245.067 80.2219C244.336 80.9588 243.925 81.9582 243.925 83.0004H240.254C240.254 81.9582 239.843 80.9588 239.111 80.2219C238.38 79.485 237.388 79.071 236.353 79.071H228.382C224.511 79.0753 220.799 80.6264 218.062 83.3841C215.325 86.1418 213.785 89.8807 213.781 93.7806C213.785 97.6805 215.325 101.42 218.062 104.177C220.799 106.935 224.511 108.486 228.382 108.49H236.353C237.388 108.49 238.38 108.076 239.111 107.339C239.843 106.603 240.254 105.603 240.254 104.561H240.258Z" fill="black"/>
<rect x="50.5" y="32" width="86" height="52" rx="10" fill="#F1F1F1"/>
<path d="M98.1873 47.1562H88.8123C88.5534 47.1562 88.3435 47.3661 88.3435 47.625V54.1875C88.3435 54.4464 88.5534 54.6562 88.8123 54.6562H98.1873C98.4461 54.6562 98.656 54.4464 98.656 54.1875V47.625C98.656 47.3661 98.4461 47.1562 98.1873 47.1562Z" stroke="#4DDA36" stroke-width="1.5" stroke-linecap="round" stroke-linejoin="round"/>
<path d="M91.1567 47V44C91.1567 43.2044 90.8407 42.4413 90.2781 41.8787C89.7154 41.3161 88.9524 41 88.1567 41C87.3611 41 86.598 41.3161 86.0354 41.8787C85.4728 42.4413 85.1567 43.2044 85.1567 44" stroke="#4DDA36" stroke-width="1.5" stroke-linecap="round" stroke-linejoin="round"/>
<path d="M61.7811 71V63.3H63.2111V71H61.7811ZM68.4948 65.06C68.9641 65.06 69.3821 65.1517 69.7488 65.335C70.1228 65.5183 70.4161 65.8007 70.6288 66.182C70.8414 66.556 70.9478 67.04 70.9478 67.634V71H69.5728V67.81C69.5728 67.2893 69.4481 66.9007 69.1988 66.644C68.9568 66.3873 68.6158 66.259 68.1758 66.259C67.8531 66.259 67.5671 66.325 67.3178 66.457C67.0684 66.589 66.8741 66.787 66.7348 67.051C66.6028 67.3077 66.5368 67.634 66.5368 68.03V71H65.1618V65.126H66.4708V66.71L66.2398 66.226C66.4451 65.852 66.7421 65.566 67.1308 65.368C67.5268 65.1627 67.9814 65.06 68.4948 65.06ZM72.879 71V64.796C72.879 64.18 73.0587 63.6887 73.418 63.322C73.7847 62.948 74.3054 62.761 74.98 62.761C75.222 62.761 75.4494 62.7867 75.662 62.838C75.882 62.8893 76.0654 62.97 76.212 63.08L75.838 64.114C75.7354 64.0333 75.618 63.9747 75.486 63.938C75.354 63.894 75.2184 63.872 75.079 63.872C74.793 63.872 74.5767 63.9527 74.43 64.114C74.2834 64.268 74.21 64.5027 74.21 64.818V65.478L74.254 66.094V71H72.879ZM71.911 66.27V65.17H75.827V66.27H71.911ZM79.4276 71.077C78.775 71.077 78.203 70.9487 77.7116 70.692C77.2276 70.428 76.85 70.0687 76.5786 69.614C76.3146 69.1593 76.1826 68.6423 76.1826 68.063C76.1826 67.4763 76.311 66.9593 76.5676 66.512C76.8316 66.0573 77.191 65.7017 77.6456 65.445C78.1076 65.1883 78.632 65.06 79.2186 65.06C79.7906 65.06 80.3003 65.1847 80.7476 65.434C81.195 65.6833 81.547 66.0353 81.8036 66.49C82.0603 66.9447 82.1886 67.48 82.1886 68.096C82.1886 68.1547 82.185 68.2207 82.1776 68.294C82.1776 68.3673 82.174 68.437 82.1666 68.503H77.2716V67.59H81.4406L80.9016 67.876C80.909 67.5387 80.8393 67.2417 80.6926 66.985C80.546 66.7283 80.3443 66.5267 80.0876 66.38C79.8383 66.2333 79.5486 66.16 79.2186 66.16C78.8813 66.16 78.5843 66.2333 78.3276 66.38C78.0783 66.5267 77.8803 66.732 77.7336 66.996C77.5943 67.2527 77.5246 67.557 77.5246 67.909V68.129C77.5246 68.481 77.6053 68.7927 77.7666 69.064C77.928 69.3353 78.1553 69.5443 78.4486 69.691C78.742 69.8377 79.0793 69.911 79.4606 69.911C79.7906 69.911 80.0876 69.8597 80.3516 69.757C80.6156 69.6543 80.8503 69.493 81.0556 69.273L81.7926 70.12C81.5286 70.428 81.195 70.6663 80.7916 70.835C80.3956 70.9963 79.941 71.077 79.4276 71.077ZM83.5094 71V65.126H84.8184V66.743L84.6644 66.27C84.8404 65.874 85.1154 65.5733 85.4894 65.368C85.8708 65.1627 86.3438 65.06 86.9084 65.06V66.369C86.8498 66.3543 86.7948 66.347 86.7434 66.347C86.6921 66.3397 86.6408 66.336 86.5894 66.336C86.0688 66.336 85.6544 66.49 85.3464 66.798C85.0384 67.0987 84.8844 67.5497 84.8844 68.151V71H83.5094ZM91.4079 65.06C91.8772 65.06 92.2952 65.1517 92.6619 65.335C93.0359 65.5183 93.3292 65.8007 93.5419 66.182C93.7545 66.556 93.8609 67.04 93.8609 67.634V71H92.4859V67.81C92.4859 67.2893 92.3612 66.9007 92.1119 66.644C91.8699 66.3873 91.5289 66.259 91.0889 66.259C90.7662 66.259 90.4802 66.325 90.2309 66.457C89.9815 66.589 89.7872 66.787 89.6479 67.051C89.5159 67.3077 89.4499 67.634 89.4499 68.03V71H88.0749V65.126H89.3839V66.71L89.1529 66.226C89.3582 65.852 89.6552 65.566 90.0439 65.368C90.4399 65.1627 90.8945 65.06 91.4079 65.06ZM98.2559 71.077C97.6545 71.077 97.1192 70.9487 96.6499 70.692C96.1805 70.428 95.8102 70.0687 95.5389 69.614C95.2675 69.1593 95.1319 68.6423 95.1319 68.063C95.1319 67.4763 95.2675 66.9593 95.5389 66.512C95.8102 66.0573 96.1805 65.7017 96.6499 65.445C97.1192 65.1883 97.6545 65.06 98.2559 65.06C98.8645 65.06 99.4035 65.1883 99.8729 65.445C100.35 65.7017 100.72 66.0537 100.984 66.501C101.255 66.9483 101.391 67.469 101.391 68.063C101.391 68.6423 101.255 69.1593 100.984 69.614C100.72 70.0687 100.35 70.428 99.8729 70.692C99.4035 70.9487 98.8645 71.077 98.2559 71.077ZM98.2559 69.9C98.5932 69.9 98.8939 69.8267 99.1579 69.68C99.4219 69.5333 99.6272 69.3207 99.7739 69.042C99.9279 68.7633 100.005 68.437 100.005 68.063C100.005 67.6817 99.9279 67.3553 99.7739 67.084C99.6272 66.8053 99.4219 66.5927 99.1579 66.446C98.8939 66.2993 98.5969 66.226 98.2669 66.226C97.9295 66.226 97.6289 66.2993 97.3649 66.446C97.1082 66.5927 96.9029 66.8053 96.7489 67.084C96.5949 67.3553 96.5179 67.6817 96.5179 68.063C96.5179 68.437 96.5949 68.7633 96.7489 69.042C96.9029 69.3207 97.1082 69.5333 97.3649 69.68C97.6289 69.8267 97.9259 69.9 98.2559 69.9ZM105.878 71V63.3H109.486C110.41 63.3 111.114 63.4833 111.598 63.85C112.082 64.2093 112.324 64.6933 112.324 65.302C112.324 65.7127 112.228 66.0647 112.038 66.358C111.847 66.644 111.59 66.8677 111.268 67.029C110.952 67.183 110.608 67.26 110.234 67.26L110.432 66.864C110.864 66.864 111.253 66.9447 111.598 67.106C111.942 67.26 112.214 67.4873 112.412 67.788C112.617 68.0887 112.72 68.4627 112.72 68.91C112.72 69.57 112.467 70.0833 111.961 70.45C111.455 70.8167 110.703 71 109.706 71H105.878ZM107.308 69.878H109.618C110.153 69.878 110.564 69.79 110.85 69.614C111.136 69.438 111.279 69.1557 111.279 68.767C111.279 68.3857 111.136 68.107 110.85 67.931C110.564 67.7477 110.153 67.656 109.618 67.656H107.198V66.545H109.332C109.83 66.545 110.212 66.457 110.476 66.281C110.747 66.105 110.883 65.841 110.883 65.489C110.883 65.1297 110.747 64.862 110.476 64.686C110.212 64.51 109.83 64.422 109.332 64.422H107.308V69.878ZM117.733 71V69.812L117.656 69.559V67.48C117.656 67.0767 117.535 66.765 117.293 66.545C117.051 66.3177 116.684 66.204 116.193 66.204C115.863 66.204 115.537 66.2553 115.214 66.358C114.899 66.4607 114.631 66.6037 114.411 66.787L113.872 65.786C114.187 65.544 114.561 65.3643 114.994 65.247C115.434 65.1223 115.889 65.06 116.358 65.06C117.209 65.06 117.865 65.2653 118.327 65.676C118.796 66.0793 119.031 66.7063 119.031 67.557V71H117.733ZM115.885 71.077C115.445 71.077 115.06 71.0037 114.73 70.857C114.4 70.703 114.143 70.494 113.96 70.23C113.784 69.9587 113.696 69.6543 113.696 69.317C113.696 68.987 113.773 68.69 113.927 68.426C114.088 68.162 114.349 67.953 114.708 67.799C115.067 67.645 115.544 67.568 116.138 67.568H117.843V68.481H116.237C115.768 68.481 115.452 68.558 115.291 68.712C115.13 68.8587 115.049 69.042 115.049 69.262C115.049 69.5113 115.148 69.7093 115.346 69.856C115.544 70.0027 115.819 70.076 116.171 70.076C116.508 70.076 116.809 69.999 117.073 69.845C117.344 69.691 117.539 69.4637 117.656 69.163L117.887 69.988C117.755 70.3327 117.517 70.6003 117.172 70.791C116.835 70.9817 116.406 71.077 115.885 71.077ZM120.796 71V62.838H122.171V71H120.796ZM123.975 71V62.838H125.35V71H123.975Z" fill="black"/>
<path opacity="0.2" d="M125.57 119.913C125.57 119.913 103.807 106.698 73.6633 102.104C73.6633 102.104 49.9936 98.2694 43.2453 121.975C37.6506 141.628 53.7803 151.45 61.0635 153.699C86.6449 161.6 93.1451 162.09 122.481 165.379C122.481 165.379 113.401 159.981 113.512 158.011C124.573 161.697 135.344 160.043 141.473 158.493C141.473 158.493 134.719 153.986 133.68 151.84C146.96 154.262 151.871 148.853 154.381 145.734C154.381 145.734 136.243 142.956 133.923 138.959C137.771 138.701 141.079 133.177 142.26 129.382C132.88 131.135 127.103 129.254 117.134 125.053C117.134 125.053 121.166 121.726 125.57 119.913Z" fill="#4DDA36" stroke="#4DDA36" stroke-width="2" stroke-linecap="round" stroke-linejoin="round"/>
<path opacity="0.4" d="M115.767 122.093C115.767 122.093 95.4397 109.944 74.7646 104.772C74.7646 104.772 51.1263 99.5358 44.9177 124.23C40.9212 140.126 54.8907 151.115 63.6875 153.099C79.3267 156.626 86.6848 158.104 109.074 160.517C109.074 160.517 104.019 157.245 104.629 153.337C112.915 155.187 120.53 156.261 127.665 154.848C127.665 154.848 122.866 150.97 121.852 147.785C129.079 149.392 135.306 147.209 137.699 145.655C137.699 145.655 122.223 141.05 120.401 137.959C125.02 137.896 128.489 136.706 129.407 133.777C118.254 130.562 113.874 129.739 107.572 124.894C107.572 124.894 109.999 122.146 115.767 122.093Z" fill="url(#paint0_linear_1382_12993)" stroke="url(#paint1_linear_1382_12993)" stroke-width="2" stroke-linecap="round" stroke-linejoin="round"/>
<path d="M101.863 122.406C101.863 122.406 100.876 115.754 82.0982 112.892L62.6114 147.016C62.6114 147.016 84.0995 155.21 95.9985 153.522C95.9985 153.522 93.3493 148.636 93.4536 147.133C97.8249 148.299 99.6491 149.577 106.302 149.091C106.302 149.091 102.916 146.574 102.122 143.452C108.238 144.885 114.269 144.703 116.339 143.118C116.339 143.118 104.749 139.137 103.265 136.124C107.198 135.964 111.363 132.857 111.363 132.857C111.363 132.857 104.261 131.193 98.1358 126.84C98.1358 126.84 98.9014 123.855 101.863 122.406Z" fill="url(#paint2_linear_1382_12993)" stroke="url(#paint3_linear_1382_12993)" stroke-width="2" stroke-linecap="round" stroke-linejoin="round"/>
<path d="M88.746 142.78C96.1661 132.104 93.5686 117.374 82.9441 109.879C72.3196 102.385 57.6915 104.965 50.2714 115.641C42.8512 126.317 45.4488 141.047 56.0732 148.542C66.6977 156.036 81.3258 153.456 88.746 142.78Z" fill="white"/>
<path d="M81.7366 109.083C85.1975 113.425 87.0287 118.853 86.9076 124.412C86.7865 129.97 84.721 135.303 81.0747 139.471C77.4284 143.639 72.4351 146.375 66.9738 147.198C61.5125 148.021 55.9334 146.877 51.2187 143.968C53.3634 146.659 56.0659 148.846 59.1365 150.376C62.2072 151.906 65.5716 152.743 68.994 152.826C72.4163 152.91 75.8136 152.239 78.9476 150.861C82.0816 149.482 84.8764 147.429 87.136 144.847C89.3955 142.264 91.0651 139.213 92.0277 135.909C92.9902 132.605 93.2224 129.127 92.7079 125.719C92.1934 122.311 90.9448 119.056 89.0495 116.182C87.1542 113.309 84.6582 110.886 81.7366 109.083Z" fill="#EDEDED"/>
<path d="M62.4172 107.522C66.151 106.292 70.1407 106.062 73.9944 106.853C75.1088 107.457 76.8751 108.564 78.0351 109.965C76.3249 111.093 74.7824 112.459 73.4537 114.024C71.5493 113.394 69.1508 113.169 67.0985 113.109C65.138 113.052 63.4726 113.146 62.816 113.191C61.7778 111.803 60.5116 110.604 59.0728 109.645C60.0945 108.8 61.218 108.086 62.4172 107.522ZM53.0898 144.696C52.3984 143.709 52.1206 142.397 52.0086 141.535C53.0205 141.919 54.8822 142.359 57.4952 141.899L57.4959 141.898C57.9712 141.813 58.4421 141.705 58.9071 141.575C59.6524 142.415 60.4436 143.212 61.2771 143.962L61.2771 143.962C62.6373 145.186 64.6948 146.795 66.8737 147.622C66.9853 149.37 67.2976 150.587 67.5058 151.232C66.7215 151.458 65.9107 151.58 65.094 151.594C60.6941 150.692 56.656 148.505 53.4832 145.31L53.5247 145.298L53.3142 145.007L53.0908 144.698C53.0905 144.697 53.0901 144.697 53.0898 144.696ZM83.4844 147.07L83.6817 147.056C80.0334 149.997 75.5594 151.727 70.8762 151.997C70.0706 151.902 69.295 151.632 68.6041 151.203C68.4579 150.813 68.0513 149.576 67.9201 147.594C69.0809 147.118 72.8276 145.421 75.878 142.232C76.739 142.593 79.0367 143.276 83.0867 142.561C83.4369 142.5 83.8025 142.427 84.1813 142.342C84.3992 143.538 84.3412 144.494 84.2246 145.161C84.1136 145.797 83.9494 146.172 83.9143 146.247L83.691 146.674L83.4844 147.07ZM65.2679 105.164C52.0979 107.487 43.2889 120.164 45.6269 133.422C47.9648 146.68 60.5788 155.58 73.7489 153.257C86.9189 150.935 95.7278 138.257 93.3899 124.999C91.052 111.742 78.438 102.842 65.2679 105.164ZM58.6376 140.563C54.5724 141.697 52.1292 140.478 51.7547 140.268C48.6425 136.853 47.5031 132.754 47.3431 132.133C47.842 127.243 49.6432 124.372 50.1522 123.643C52.6017 123.546 55.5164 123.162 56.6941 122.995C56.9002 124.529 57.8883 128.252 61.4659 132.195C60.1813 134.854 59.2312 137.665 58.6376 140.563ZM67.0606 114.151C69.1203 114.21 71.4785 114.436 73.2559 115.051C74.4015 117.274 77.1975 121.917 77.8568 123.007C76.4236 126.1 74.5714 128.977 72.353 131.557C71.2194 131.437 66.7315 131.03 62.2939 131.563C58.4024 127.305 57.7748 123.336 57.6863 122.535L62.8658 114.231C63.4758 114.188 65.1248 114.096 67.0606 114.151ZM49.3297 123.015C48.8902 123.623 47.6249 125.58 46.8363 128.896C46.877 125.351 47.7411 121.864 49.3626 118.715C49.0291 120.826 49.2264 122.418 49.3297 123.015ZM84.33 141.242C79.5114 142.395 76.9214 141.541 76.2222 141.241C76.0009 140.111 75.0237 135.514 73.1978 132.171C75.4292 129.565 77.299 126.665 78.7566 123.552C81.9136 123.974 85.4352 124.005 86.4612 124.007C86.9623 124.875 88.6529 128.062 89.5259 132.874C86.8867 138.668 84.7642 140.834 84.33 141.242ZM88.7777 117.227C91.6663 121.919 92.7709 127.5 91.8912 132.937L90.5177 132.521C89.5687 127.419 87.7725 124.17 87.3043 123.377C87.8252 120.857 87.8058 118.2 87.7623 117.01C88.1032 117.07 88.4419 117.142 88.7777 117.227ZM79.1342 109.687C78.6256 108.988 77.9893 108.361 77.3294 107.817C81.5926 109.412 85.297 112.255 87.9574 115.99C87.7487 115.952 87.578 115.927 87.4582 115.911C83.7472 112.027 79.8784 110.044 79.1342 109.687Z" fill="#1B2028" stroke="black" stroke-width="0.5"/>
<defs>
<linearGradient id="paint0_linear_1382_12993" x1="105.041" y1="115.923" x2="98.9296" y2="156.022" gradientUnits="userSpaceOnUse">
<stop stop-color="#4DDA36"/>
<stop offset="1" stop-color="#4DDA36"/>
</linearGradient>
<linearGradient id="paint1_linear_1382_12993" x1="109.118" y1="110.824" x2="101.934" y2="157.963" gradientUnits="userSpaceOnUse">
<stop stop-color="#00E65C"/>
<stop offset="1" stop-color="#01D052"/>
</linearGradient>
<linearGradient id="paint2_linear_1382_12993" x1="93.2931" y1="114.098" x2="87.2401" y2="153.812" gradientUnits="userSpaceOnUse">
<stop stop-color="#4DDA36"/>
<stop offset="1" stop-color="#4DDA36"/>
</linearGradient>
<linearGradient id="paint3_linear_1382_12993" x1="96.8739" y1="108.979" x2="89.7584" y2="155.664" gradientUnits="userSpaceOnUse">
<stop stop-color="#00E65C"/>
<stop offset="1" stop-color="#01D052"/>
</linearGradient>
</defs>
</svg>
