<svg width="69" height="69" viewBox="0 0 69 69" fill="none" xmlns="http://www.w3.org/2000/svg">
<circle cx="34.5" cy="34.5" r="34.5" fill="#021228"/>
<path d="M23.536 45L15.08 25.4H19.98L27.372 42.76H24.488L31.992 25.4H36.5L28.016 45H23.536ZM44.5765 45.336C43.0085 45.336 41.5058 45.1307 40.0685 44.72C38.6312 44.2907 37.4738 43.74 36.5965 43.068L38.1365 39.652C38.9765 40.2493 39.9658 40.744 41.1045 41.136C42.2618 41.5093 43.4285 41.696 44.6045 41.696C45.5005 41.696 46.2192 41.612 46.7605 41.444C47.3205 41.2573 47.7312 41.0053 47.9925 40.688C48.2538 40.3707 48.3845 40.0067 48.3845 39.596C48.3845 39.0733 48.1792 38.6627 47.7685 38.364C47.3578 38.0467 46.8165 37.7947 46.1445 37.608C45.4725 37.4027 44.7258 37.216 43.9045 37.048C43.1018 36.8613 42.2898 36.6373 41.4685 36.376C40.6658 36.1147 39.9285 35.7787 39.2565 35.368C38.5845 34.9573 38.0338 34.416 37.6045 33.744C37.1938 33.072 36.9885 32.2133 36.9885 31.168C36.9885 30.048 37.2872 29.0307 37.8845 28.116C38.5005 27.1827 39.4152 26.4453 40.6285 25.904C41.8605 25.344 43.4005 25.064 45.2485 25.064C46.4805 25.064 47.6938 25.2133 48.8885 25.512C50.0832 25.792 51.1378 26.2213 52.0525 26.8L50.6525 30.244C49.7378 29.7213 48.8232 29.3387 47.9085 29.096C46.9938 28.8347 46.0978 28.704 45.2205 28.704C44.3432 28.704 43.6245 28.8067 43.0645 29.012C42.5045 29.2173 42.1032 29.488 41.8605 29.824C41.6178 30.1413 41.4965 30.5147 41.4965 30.944C41.4965 31.448 41.7018 31.8587 42.1125 32.176C42.5232 32.4747 43.0645 32.7173 43.7365 32.904C44.4085 33.0907 45.1458 33.2773 45.9485 33.464C46.7698 33.6507 47.5818 33.8653 48.3845 34.108C49.2058 34.3507 49.9525 34.6773 50.6245 35.088C51.2965 35.4987 51.8378 36.04 52.2485 36.712C52.6778 37.384 52.8925 38.2333 52.8925 39.26C52.8925 40.3613 52.5845 41.3693 51.9685 42.284C51.3525 43.1987 50.4285 43.936 49.1965 44.496C47.9832 45.056 46.4432 45.336 44.5765 45.336Z" fill="#4DDA36"/>
</svg>
