<svg width="124" height="100" viewBox="0 0 124 100" fill="none" xmlns="http://www.w3.org/2000/svg">
<g clip-path="url(#clip0_2634_59127)">
<path d="M83.4877 78.5696H83.496C86.2585 78.5696 88.9078 79.6642 90.8612 81.6127C92.8146 83.5612 93.912 86.204 93.912 88.9595V95.5563C93.912 99.1302 91.0087 99.2836 87.426 99.2836H73.0833V88.9562C73.0842 86.2032 74.1804 83.5631 76.1311 81.6156C78.0819 79.6682 80.7278 78.5726 83.4877 78.5696Z" fill="#FFAF77"/>
<path d="M73.0768 100.6H87.4145C90.5244 100.6 95.2248 100.6 95.2248 95.5531V88.9563C95.2248 85.8508 93.9881 82.8725 91.7866 80.6765C89.5852 78.4806 86.5994 77.2469 83.4861 77.2469H83.4779C80.3646 77.2469 77.3788 78.4806 75.1774 80.6765C72.9759 82.8725 71.7392 85.8508 71.7392 88.9563V99.2836C71.7396 99.4578 71.7747 99.6302 71.8423 99.7909C71.9098 99.9516 72.0087 100.097 72.133 100.22C72.2574 100.342 72.4048 100.439 72.5668 100.504C72.7288 100.569 72.9021 100.602 73.0768 100.6ZM83.4928 79.889C85.9045 79.889 88.2174 80.8446 89.9227 82.5456C91.628 84.2467 92.5861 86.5539 92.5861 88.9596V95.5564C92.5861 97.5354 91.6685 97.9642 87.4211 97.9642H74.4011V88.9563C74.4011 86.5506 75.3591 84.2434 77.0645 82.5423C78.7698 80.8413 81.0827 79.8857 83.4944 79.8857L83.4928 79.889Z" fill="black"/>
<path d="M72.8154 83.9838H42.1213C41.261 83.9838 40.4359 84.3247 39.8276 84.9316C39.2192 85.5384 38.8775 86.3614 38.8775 87.2196V108.847C38.8775 109.705 39.2192 110.528 39.8276 111.135C40.4359 111.742 41.261 112.083 42.1213 112.083H82.5453C83.4056 112.083 84.2307 111.742 84.8391 111.135C85.4474 110.528 85.7892 109.705 85.7892 108.847V96.9251C85.7892 93.4929 84.4223 90.2012 81.9892 87.7742C79.5562 85.3473 76.2563 83.9838 72.8154 83.9838Z" fill="#2B2B2B"/>
<path d="M42.1131 113.406H82.5387C83.7491 113.404 84.9096 112.924 85.7657 112.071C86.6217 111.217 87.1034 110.06 87.1052 108.852V96.9251C87.0986 93.1469 85.591 89.5253 82.9125 86.8538C80.234 84.1823 76.6032 82.6788 72.8154 82.6727H42.1131C40.9026 82.674 39.7421 83.1541 38.8861 84.0077C38.03 84.8613 37.5483 86.0188 37.5465 87.2261V108.859C37.55 110.065 38.0325 111.221 38.8884 112.073C39.7443 112.925 40.9038 113.404 42.1131 113.406ZM72.8154 85.3114C75.9043 85.3145 78.8657 86.5397 81.05 88.7182C83.2343 90.8968 84.463 93.8506 84.4665 96.9317V108.859C84.4656 109.367 84.2629 109.853 83.9027 110.212C83.5426 110.571 83.0544 110.773 82.5453 110.773H42.1131C41.6039 110.773 41.1158 110.571 40.7556 110.212C40.3955 109.853 40.1927 109.367 40.1919 108.859V87.2261C40.1927 86.7183 40.3955 86.2316 40.7556 85.8726C41.1158 85.5137 41.6039 85.3119 42.1131 85.3114H72.8154Z" fill="black"/>
<g clip-path="url(#clip1_2634_59127)">
<path d="M72.8154 83.9838H42.1213C41.261 83.9838 40.4359 84.3247 39.8276 84.9316C39.2192 85.5384 38.8775 86.3614 38.8775 87.2196V108.847C38.8775 109.705 39.2192 110.528 39.8276 111.135C40.4359 111.742 41.261 112.083 42.1213 112.083H82.5453C83.4056 112.083 84.2307 111.742 84.8391 111.135C85.4474 110.528 85.7892 109.705 85.7892 108.847V96.9251C85.7892 93.4929 84.4223 90.2012 81.9892 87.7742C79.5562 85.3473 76.2563 83.9838 72.8154 83.9838Z" fill="#2B2B2B"/>
<path d="M42.1213 113.406H82.547C83.7583 113.404 84.9195 112.923 85.7757 112.069C86.6319 111.214 87.1131 110.055 87.1135 108.847V96.9251C87.1091 93.1455 85.6024 89.5217 82.9237 86.8485C80.245 84.1752 76.6129 82.6706 72.8237 82.6645H42.1213C40.9106 82.6658 39.7499 83.1461 38.8938 84.0001C38.0377 84.8541 37.5561 86.0119 37.5548 87.2196V108.847C37.5553 110.055 38.0364 111.214 38.8926 112.069C39.7488 112.923 40.9101 113.404 42.1213 113.406ZM72.8237 85.3032C75.9127 85.3067 78.8741 86.5323 81.0584 88.711C83.2426 90.8898 84.4713 93.8439 84.4748 96.9251V108.847C84.4739 109.355 84.2712 109.842 83.9111 110.201C83.551 110.561 83.0628 110.763 82.5536 110.764H42.1213C41.6119 110.763 41.1235 110.561 40.7633 110.202C40.4031 109.842 40.2006 109.355 40.2002 108.847V87.2196C40.2006 86.7115 40.4031 86.2243 40.7633 85.865C41.1235 85.5057 41.6119 85.3036 42.1213 85.3032H72.8237Z" fill="black"/>
<path d="M67.5032 83.9838L76.5817 103.303H66.6782L68.3051 112.086H66.8899L59.6185 98.8118H64.5868L57.4725 83.9838H67.5032Z" fill="#FF8622"/>
<path d="M42.1213 113.406H82.547C83.7583 113.404 84.9195 112.923 85.7757 112.069C86.6319 111.214 87.1131 110.055 87.1135 108.847V96.9251C87.1091 93.1455 85.6024 89.5217 82.9237 86.8485C80.245 84.1752 76.6129 82.6706 72.8237 82.6645H42.1213C40.9106 82.6658 39.7499 83.1461 38.8938 84.0001C38.0377 84.8541 37.5561 86.0119 37.5548 87.2196V108.847C37.5553 110.055 38.0364 111.214 38.8926 112.069C39.7488 112.923 40.9101 113.404 42.1213 113.406ZM72.8237 85.3032C75.9127 85.3067 78.8741 86.5323 81.0584 88.711C83.2426 90.8898 84.4713 93.8439 84.4748 96.9251V108.847C84.4739 109.355 84.2712 109.842 83.9111 110.201C83.551 110.561 83.0628 110.763 82.5536 110.764H42.1213C41.6119 110.763 41.1235 110.561 40.7633 110.202C40.4031 109.842 40.2006 109.355 40.2002 108.847V87.2196C40.2006 86.7115 40.4031 86.2243 40.7633 85.865C41.1235 85.5057 41.6119 85.3036 42.1213 85.3032H72.8237Z" fill="black"/>
</g>
<path d="M87.7632 119.499H88.0806C90.2687 119.499 92.3671 118.632 93.9143 117.089C95.4615 115.546 96.3308 113.452 96.3308 111.27V100.769C96.3308 98.5868 95.4615 96.4936 93.9143 94.9502C92.3671 93.4069 90.2687 92.5399 88.0806 92.5399H87.7632C84.182 92.5399 80.7475 93.9589 78.2152 96.4848C75.683 99.0108 74.2604 102.437 74.2604 106.009V106.03C74.2604 109.603 75.683 113.028 78.2152 115.554C80.7475 118.08 84.182 119.499 87.7632 119.499Z" fill="#FFAF77"/>
<path d="M87.7632 120.82H88.0757C90.6132 120.816 93.0455 119.809 94.8398 118.019C96.6341 116.229 97.6441 113.803 97.6485 111.272V100.771C97.6441 98.2399 96.6341 95.8136 94.8398 94.0238C93.0455 92.234 90.6132 91.2265 88.0757 91.2222H87.7582C83.8275 91.2261 80.0589 92.7854 77.2794 95.5579C74.4999 98.3304 72.9367 102.09 72.9328 106.011V106.032C72.9372 109.954 74.5012 113.713 77.2817 116.486C80.0621 119.258 83.8317 120.817 87.7632 120.82ZM88.0806 93.8609C89.9166 93.8652 91.6761 94.5947 92.9743 95.8897C94.2725 97.1847 95.0037 98.9398 95.0081 100.771V111.272C95.0037 113.103 94.2725 114.858 92.9743 116.153C91.6761 117.448 89.9166 118.177 88.0806 118.182H87.7632C84.5339 118.178 81.4379 116.897 79.1544 114.619C76.871 112.341 75.5866 109.253 75.5831 106.032V106.011C75.5861 102.789 76.8704 99.7007 79.1539 97.4229C81.4375 95.145 84.5338 93.8639 87.7632 93.8609H88.0806Z" fill="black"/>
<g opacity="0.7">
<path opacity="0.7" d="M86.3911 95.3452H89.5489C90.3095 95.3452 90.9261 95.9602 90.9261 96.7189V97.2929C90.9261 98.0516 90.3095 98.6666 89.5489 98.6666H86.3911C85.6304 98.6666 85.0138 98.0516 85.0138 97.2929V96.7189C85.0138 95.9602 85.6304 95.3452 86.3911 95.3452Z" fill="white"/>
</g>
<g clip-path="url(#clip2_2634_59127)">
<path d="M29.6717 75.3321H83.0496C84.365 75.3321 85.6266 74.8109 86.5567 73.883C87.4869 72.9552 88.0096 71.6967 88.0096 70.3845V31.2804C88.0096 29.4998 87.6579 27.7366 86.9747 26.0915C86.2915 24.4465 85.2902 22.9518 84.0279 21.6928C82.7656 20.4338 81.267 19.4351 79.6178 18.7539C77.9685 18.0726 76.2009 17.7221 74.4158 17.7223H47.2085C42.557 17.7223 38.096 19.5655 34.8069 22.8464C31.5178 26.1273 29.67 30.5771 29.67 35.217L29.6717 75.3321Z" fill="#FCC768"/>
<path d="M29.6717 76.6515H83.0495C84.7158 76.6515 86.3138 75.9913 87.492 74.816C88.6702 73.6407 89.3322 72.0467 89.3322 70.3846V31.2804C89.3278 27.3357 87.7548 23.5539 84.9583 20.7647C82.1618 17.9755 78.3704 16.4069 74.4158 16.403H47.2085C42.2078 16.4082 37.4134 18.3921 33.8774 21.9193C30.3414 25.4464 28.3526 30.2288 28.3473 35.217V75.3322C28.3473 75.5056 28.3816 75.6773 28.4481 75.8374C28.5147 75.9976 28.6123 76.1431 28.7353 76.2657C28.8583 76.3882 29.0043 76.4854 29.165 76.5516C29.3257 76.6178 29.4978 76.6517 29.6717 76.6515ZM74.4158 19.0417C77.6688 19.0452 80.7875 20.3357 83.0877 22.6302C85.3879 24.9246 86.6817 28.0355 86.6852 31.2804V70.3846C86.6852 71.3468 86.3019 72.2697 85.6198 72.9501C84.9377 73.6305 84.0125 74.0128 83.0479 74.0128H30.9926V35.217C30.9975 30.9285 32.7075 26.8171 35.7475 23.7846C38.7875 20.7522 42.9093 19.0465 47.2085 19.0417H74.4158Z" fill="black"/>
<path d="M49.6308 24.0536H75.0359C82.2011 24.0536 88.0096 29.8476 88.0096 36.9949V71.0426C88.0096 78.1899 82.2011 83.9839 75.0359 83.9839H49.6308C42.4656 83.9839 36.6571 78.1899 36.6571 71.0426V36.9949C36.6571 29.8476 42.4656 24.0536 49.6308 24.0536Z" fill="#FFAF77"/>
<path d="M71.5357 63.8966C72.6567 63.8966 73.7727 63.8224 74.563 63.0407C75.0805 62.5278 75.3433 61.8153 75.3433 60.9231V52.1955C75.3433 51.8456 75.204 51.51 74.956 51.2626C74.7079 51.0152 74.3714 50.8762 74.0207 50.8762C73.6699 50.8762 73.3335 51.0152 73.0854 51.2626C72.8374 51.51 72.698 51.8456 72.698 52.1955V60.9231C72.6992 61.0049 72.6927 61.0866 72.6782 61.1672C72.4153 61.2645 71.668 61.2595 71.162 61.2546H70.714C70.3632 61.2546 70.0268 61.3936 69.7787 61.641C69.5307 61.8884 69.3913 62.224 69.3913 62.5739C69.3913 62.9239 69.5307 63.2594 69.7787 63.5069C70.0268 63.7543 70.3632 63.8933 70.714 63.8933H71.1406L71.5357 63.8966Z" fill="black"/>
<path d="M87.9518 35.7876H36.7199C37.0232 32.5804 38.5149 29.6014 40.9031 27.4329C43.2914 25.2644 46.4045 24.0624 49.6341 24.0618H75.0392C78.2683 24.0632 81.3809 25.2655 83.7688 27.4339C86.1566 29.6023 87.6481 32.5809 87.9518 35.7876V35.7876Z" fill="#EF9F6A"/>
<path d="M49.6307 85.3033H75.0358C78.8258 85.2989 82.4594 83.7953 85.1395 81.1222C87.8196 78.4491 89.3274 74.8248 89.3322 71.0443V36.9949C89.3278 33.2141 87.8202 29.5894 85.14 26.9159C82.4599 24.2425 78.8261 22.7386 75.0358 22.7343H49.6307C45.8404 22.7386 42.2066 24.2425 39.5264 26.9159C36.8463 29.5894 35.3387 33.2141 35.3343 36.9949V71.0443C35.3392 74.8248 36.8469 78.4491 39.527 81.1222C42.2071 83.7953 45.8407 85.2989 49.6307 85.3033V85.3033ZM75.0358 25.373C78.1248 25.3765 81.0863 26.602 83.2705 28.7808C85.4547 30.9596 86.6834 33.9136 86.6869 36.9949V71.0443C86.6834 74.1254 85.4546 77.0793 83.2703 79.2578C81.0861 81.4363 78.1246 82.6615 75.0358 82.6645H49.6307C46.542 82.661 43.5808 81.4357 41.3966 79.2573C39.2124 77.0789 37.9836 74.1252 37.9797 71.0443V36.9949C37.9836 33.9138 39.2124 30.96 41.3965 28.7813C43.5807 26.6026 46.5418 25.3769 49.6307 25.373H75.0358Z" fill="black"/>
<path d="M36.8769 72.0783V51.8394H42.9033V63.6592C42.9029 65.8218 43.7543 67.898 45.274 69.4404C46.7937 70.9828 48.86 71.868 51.0278 71.9052L58.3107 72.0602L61.3462 69.0323C62.114 68.2666 63.0255 67.6593 64.0285 67.245C65.0316 66.8308 66.1067 66.6176 67.1924 66.6178H76.4825C78.6745 66.6179 80.7768 67.4863 82.327 69.0323L84.0531 70.7507H88.0096V79.0347C88.0096 81.2216 87.1385 83.319 85.5882 84.8655C84.0379 86.4119 81.9353 87.2807 79.7429 87.2807H54.7411C52.1057 87.2807 47.8781 86.4956 45.6941 85.0262L42.7032 83.0158C40.9089 81.8076 39.4393 80.1785 38.4234 78.2715C37.4076 76.3644 36.8765 74.2378 36.8769 72.0783Z" fill="#F9AD5A"/>
<path d="M54.7412 88.6016H79.7363C82.2786 88.5986 84.7159 87.5898 86.5136 85.7966C88.3113 84.0034 89.3226 81.5722 89.3256 79.0363V70.7507C89.3256 70.4008 89.1863 70.0652 88.9382 69.8178C88.6902 69.5703 88.3537 69.4313 88.003 69.4313H84.5954L83.2562 68.0955C82.3682 67.2045 81.3118 66.498 80.1483 66.0167C78.9847 65.5355 77.7371 65.2891 76.4776 65.2918H67.1874C65.9278 65.2888 64.6802 65.5351 63.5166 66.0164C62.353 66.4976 61.2967 67.2043 60.4088 68.0955L57.7734 70.7243L51.0543 70.5825C49.2354 70.5434 47.5037 69.7975 46.228 68.5038C44.9523 67.21 44.2334 65.4705 44.2243 63.6558V51.8393C44.2243 51.4894 44.085 51.1538 43.8369 50.9064C43.5889 50.659 43.2525 50.52 42.9017 50.52H36.8752C36.5244 50.52 36.188 50.659 35.94 50.9064C35.6919 51.1538 35.5526 51.4894 35.5526 51.8393V72.0783C35.55 74.4561 36.134 76.798 37.253 78.8976C38.372 80.9971 39.9916 82.7898 41.9692 84.1175L44.9584 86.1295C47.3557 87.7375 51.79 88.6016 54.7412 88.6016ZM86.6869 72.0701V79.0346C86.6869 80.8717 85.9553 82.6335 84.653 83.9325C83.3508 85.2315 81.5846 85.9613 79.7429 85.9613H54.7412C52.1967 85.9613 48.2932 85.1861 46.4332 83.9328L43.4423 81.9224C41.8251 80.8363 40.5005 79.3703 39.5851 77.6534C38.6697 75.9364 38.1916 74.0213 38.193 72.0767V53.1587H41.574V63.6591C41.5685 66.1688 42.5574 68.579 44.3252 70.3648C46.0856 72.1607 48.4868 73.1888 51.0046 73.2245L58.2793 73.3795C58.4576 73.3839 58.6349 73.3519 58.8003 73.2855C58.9658 73.2192 59.1159 73.1198 59.2416 72.9936L62.2787 69.9657C62.9221 69.3205 63.6874 68.809 64.5302 68.4608C65.3731 68.1127 66.2768 67.9347 67.1891 67.9372H76.4792C77.3912 67.9349 78.2946 68.113 79.1372 68.4612C79.9798 68.8093 80.7447 69.3207 81.3879 69.9657L83.1157 71.6874C83.3635 71.9344 83.6995 72.0732 84.0498 72.0734L86.6869 72.0701Z" fill="black"/>
<path d="M67.6371 74.9594H76.1352C76.486 74.9594 76.8224 74.8204 77.0705 74.573C77.3185 74.3255 77.4579 73.99 77.4579 73.64C77.4579 73.2901 77.3185 72.9545 77.0705 72.7071C76.8224 72.4597 76.486 72.3207 76.1352 72.3207H67.6371C67.2863 72.3207 66.9499 72.4597 66.7019 72.7071C66.4538 72.9545 66.3145 73.2901 66.3145 73.64C66.3145 73.99 66.4538 74.3255 66.7019 74.573C66.9499 74.8204 67.2863 74.9594 67.6371 74.9594Z" fill="black"/>
<path d="M61.3892 47.2693C62.7047 47.2693 63.9663 47.7906 64.8965 48.7185C65.8267 49.6463 66.3492 50.9048 66.3492 52.2169V52.588C66.3492 53.4628 66.0009 54.3018 65.3807 54.9203C64.7606 55.5389 63.9196 55.8864 63.0426 55.8864H53.3756C52.4986 55.8864 51.6575 55.5389 51.0373 54.9203C50.4172 54.3018 50.0689 53.4628 50.0689 52.588V52.2169C50.0689 50.9048 50.5915 49.6463 51.5216 48.7185C52.4518 47.7906 53.7134 47.2693 55.0289 47.2693H61.3892Z" fill="white"/>
<path d="M80.9299 55.8865H84.7029C85.5799 55.8865 86.4209 55.539 87.041 54.9204C87.6612 54.3018 88.0096 53.4629 88.0096 52.5881V50.5051C88.0098 50.0802 87.9259 49.6593 87.763 49.2666C87.6001 48.8739 87.3612 48.5172 87.0599 48.2167C86.7587 47.9161 86.401 47.6778 86.0073 47.5153C85.6136 47.3527 85.1917 47.2692 84.7657 47.2694H80.9299C80.0529 47.2694 79.2119 47.6169 78.5918 48.2355C77.9716 48.8541 77.6233 49.693 77.6233 50.5678V52.5881C77.6233 53.4629 77.9716 54.3018 78.5918 54.9204C79.2119 55.539 80.0529 55.8865 80.9299 55.8865Z" fill="white"/>
<path d="M80.3745 47.5695H83.129C84.6511 47.5695 85.8851 48.8004 85.8851 50.3187V53.0663C85.8851 54.5846 84.6511 55.8155 83.129 55.8155H80.3745C78.8524 55.8155 77.6184 54.5846 77.6184 53.0663V50.3187C77.6184 48.8004 78.8524 47.5695 80.3745 47.5695Z" fill="black"/>
<path d="M58.9886 47.5695H61.743C63.2652 47.5695 64.4991 48.8004 64.4991 50.3187V53.0663C64.4991 54.5847 63.2652 55.8155 61.743 55.8155H58.9886C57.4664 55.8155 56.2325 54.5847 56.2325 53.0663V50.3187C56.2325 48.8004 57.4664 47.5695 58.9886 47.5695Z" fill="black"/>
<path d="M55.8159 47.7641H64.3653C64.7161 47.7641 65.0525 47.6251 65.3005 47.3777C65.5486 47.1302 65.6879 46.7946 65.6879 46.4447C65.6879 46.0948 65.5486 45.7592 65.3005 45.5118C65.0525 45.2644 64.7161 45.1254 64.3653 45.1254H55.8159C55.4651 45.1254 55.1287 45.2644 54.8806 45.5118C54.6326 45.7592 54.4932 46.0948 54.4932 46.4447C54.4932 46.7946 54.6326 47.1302 54.8806 47.3777C55.1287 47.6251 55.4651 47.7641 55.8159 47.7641Z" fill="black"/>
<path d="M78.2846 47.7641H84.7657C85.1165 47.7641 85.4529 47.6251 85.701 47.3777C85.949 47.1303 86.0884 46.7947 86.0884 46.4448C86.0884 46.0949 85.949 45.7593 85.701 45.5119C85.4529 45.2644 85.1165 45.1254 84.7657 45.1254H78.2846C77.9338 45.1254 77.5974 45.2644 77.3494 45.5119C77.1013 45.7593 76.9619 46.0949 76.9619 46.4448C76.9619 46.7947 77.1013 47.1303 77.3494 47.3777C77.5974 47.6251 77.9338 47.7641 78.2846 47.7641Z" fill="black"/>
<path d="M44.355 21.8668H46.1737V28.9831L46.4531 56.2212H39.0825V54.3824C37.406 54.4385 34.7144 54.5011 34.7144 54.3329V31.4783C34.7142 30.2156 34.9635 28.9653 35.4479 27.7987C35.9324 26.6322 36.6425 25.5723 37.5378 24.6797C38.4332 23.7871 39.4961 23.0792 40.6658 22.5965C41.8355 22.1139 43.0892 21.8659 44.355 21.8668Z" fill="#FCC768"/>
<path d="M29.6717 39.4357V35.217C29.6717 30.5771 31.5195 26.1273 34.8086 22.8464C38.0977 19.5655 42.5588 17.7223 47.2103 17.7223H74.4159C78.0207 17.7223 81.4779 19.1507 84.0269 21.6934C86.5759 24.236 88.0079 27.6845 88.0079 31.2804V39.4357H29.6717Z" fill="#FCC768"/>
<path d="M29.6717 40.755H88.0095C88.3603 40.755 88.6967 40.616 88.9448 40.3686C89.1928 40.1212 89.3322 39.7856 89.3322 39.4357V31.2804C89.3278 27.3357 87.7548 23.5539 84.9583 20.7647C82.1618 17.9755 78.3704 16.4069 74.4158 16.403H47.2085C42.2078 16.4082 37.4134 18.3921 33.8774 21.9193C30.3414 25.4464 28.3526 30.2288 28.3473 35.217V39.4357C28.3473 39.6091 28.3816 39.7808 28.4481 39.941C28.5147 40.1011 28.6123 40.2467 28.7353 40.3692C28.8583 40.4917 29.0043 40.5889 29.165 40.6551C29.3257 40.7213 29.4978 40.7553 29.6717 40.755ZM86.6869 38.1163H30.9943V35.217C30.9991 30.9285 32.7091 26.8171 35.7491 23.7846C38.7891 20.7522 42.911 19.0465 47.2102 19.0417H74.4158C77.6688 19.0452 80.7875 20.3357 83.0877 22.6302C85.3879 24.9246 86.6817 28.0355 86.6852 31.2804L86.6869 38.1163Z" fill="black"/>
<path d="M42.0238 52.6936H36.2636C35.2989 52.6936 34.3737 53.0759 33.6916 53.7563C33.0095 54.4367 32.6262 55.3596 32.6262 56.3218V59.7241C32.6262 60.6864 33.0095 61.6093 33.6916 62.2897C34.3737 62.9701 35.2989 63.3524 36.2636 63.3524H42.0238V52.6936Z" fill="#FFAF77"/>
<path d="M39.4397 38.4494H46.4597V55.4048H39.4397V38.4494Z" fill="#FCC768"/>
<path d="M39.0891 57.5405H46.4597C46.8105 57.5405 47.1469 57.4015 47.395 57.1541C47.643 56.9067 47.7824 56.5711 47.7824 56.2212V32.7679C47.7824 32.418 47.643 32.0824 47.395 31.835C47.1469 31.5875 46.8105 31.4485 46.4597 31.4485C46.1089 31.4485 45.7724 31.5875 45.5244 31.835C45.2763 32.0824 45.137 32.418 45.137 32.7679V54.9018H40.4118V50.0515C40.4118 49.7016 40.2724 49.366 40.0244 49.1186C39.7763 48.8712 39.4399 48.7322 39.0891 48.7322C38.7383 48.7322 38.4019 48.8712 38.1539 49.1186C37.9058 49.366 37.7665 49.7016 37.7665 50.0515V56.2212C37.7665 56.5711 37.9058 56.9067 38.1539 57.1541C38.4019 57.4015 38.7383 57.5405 39.0891 57.5405Z" fill="black"/>
<path d="M88.0096 31.1336H32.3468C31.653 31.1336 30.9876 31.4084 30.4968 31.8977C30.006 32.3869 29.7301 33.0505 29.7296 33.7426V39.434H88.0096V31.1336Z" fill="white"/>
<path d="M29.7295 40.755H88.0095C88.3603 40.755 88.6967 40.616 88.9448 40.3686C89.1928 40.1211 89.3322 39.7856 89.3322 39.4356V31.1336C89.3322 30.7837 89.1928 30.4481 88.9448 30.2006C88.6967 29.9532 88.3603 29.8142 88.0095 29.8142H32.3467C31.3023 29.8151 30.301 30.2292 29.5624 30.9657C28.8237 31.7022 28.4082 32.7008 28.4069 33.7426V39.4356C28.4069 39.7856 28.5462 40.1211 28.7942 40.3686C29.0423 40.616 29.3788 40.755 29.7295 40.755ZM86.6869 38.1163H31.0522V33.7426C31.0531 33.4005 31.1898 33.0728 31.4324 32.831C31.6751 32.5893 32.0038 32.4534 32.3467 32.4529H86.6869V38.1163Z" fill="black"/>
</g>
<path d="M32.0939 99.2802V88.9545C32.0939 83.2186 36.4372 78.5646 41.794 78.5646C47.1508 78.5646 51.4941 83.2137 51.4941 88.9545V95.5513C51.4941 99.1252 48.7876 99.2785 45.4495 99.2785C48.7876 99.2785 51.4941 102.176 51.4941 105.75V119.364C51.4941 122.938 48.7876 125.834 45.4495 125.834H39.8927C33.2165 125.834 27.8052 120.04 27.8052 112.894V103.862C27.8134 101.332 29.7296 99.2802 32.0939 99.2802Z" fill="#FFAF77"/>
<path d="M32.0938 99.2802L32.3898 97.006V108.786C32.3898 115.934 36.4239 118.978 43.1001 118.978H50.0441C50.5403 118.972 51.0334 118.9 51.5106 118.764V119.366C51.5106 122.94 48.8041 125.836 45.4677 125.836H39.9092C33.233 125.836 27.8217 120.042 27.8217 112.896V103.863C27.8134 101.332 29.7296 99.2802 32.0938 99.2802Z" fill="#F08960"/>
<path d="M39.901 127.155H45.4578C49.52 127.155 52.825 123.66 52.825 119.366V105.752C52.8316 104.663 52.615 103.585 52.1885 102.583C51.7621 101.581 51.1347 100.676 50.345 99.9251C51.7686 99.2802 52.825 98.0186 52.825 95.5531V88.9563C52.825 82.5029 47.8799 77.2469 41.8023 77.2469C35.7246 77.2469 30.7712 82.4964 30.7712 88.9563V98.1307C28.3177 98.7591 26.4907 101.099 26.4907 103.867V112.899C26.4907 120.758 32.5056 127.155 39.901 127.155ZM45.4578 100.603C48.0618 100.603 50.1797 102.912 50.1797 105.755V119.369C50.1797 122.209 48.0618 124.52 45.4578 124.52H39.901C33.9655 124.52 29.1361 119.306 29.1361 112.899V103.867C29.1361 102.067 30.4587 100.603 32.0939 100.603C32.4447 100.603 32.7811 100.464 33.0292 100.216C33.2772 99.9691 33.4165 99.6335 33.4165 99.2836V88.9563C33.4165 83.9575 37.1746 79.8857 41.794 79.8857C46.4134 79.8857 50.1797 83.9509 50.1797 88.9563V95.5531C50.1797 97.5568 49.3861 97.9609 45.4578 97.9609C45.107 97.9609 44.7706 98.0999 44.5225 98.3473C44.2745 98.5947 44.1351 98.9304 44.1351 99.2803C44.1351 99.4535 44.1693 99.625 44.2358 99.7851C44.3023 99.9452 44.3997 100.091 44.5225 100.213C44.6454 100.336 44.7911 100.433 44.9516 100.499C45.1121 100.565 45.2841 100.6 45.4578 100.6V100.603Z" fill="black"/>
<g opacity="0.7">
<path opacity="0.7" d="M41.4748 82.0015H44.6327C45.3933 82.0015 46.0099 82.6166 46.0099 83.3753V83.9492C46.0099 84.708 45.3933 85.323 44.6327 85.323H41.4748C40.7142 85.323 40.0976 84.708 40.0976 83.9492V83.3753C40.0976 82.6166 40.7142 82.0015 41.4748 82.0015Z" fill="white"/>
</g>
<path d="M48.4684 92.5399H48.1509C45.9629 92.5399 43.8644 93.4069 42.3172 94.9503C40.77 96.4936 39.9008 98.5868 39.9008 100.769V111.27C39.9008 113.452 40.77 115.546 42.3172 117.089C43.8644 118.632 45.9629 119.499 48.1509 119.499H48.4684C52.0495 119.499 55.484 118.08 58.0163 115.554C60.5486 113.028 61.9712 109.603 61.9712 106.03V106.009C61.9712 102.437 60.5486 99.0108 58.0163 96.4849C55.484 93.959 52.0495 92.5399 48.4684 92.5399Z" fill="#FFAF77"/>
<path d="M44.3153 93.4865C44.3153 93.6168 44.2773 93.7389 44.2773 93.8692V107.081C44.2773 108.903 45.003 110.651 46.2947 111.939C47.5864 113.228 49.3383 113.951 51.1651 113.951H59.3689C58.12 115.669 56.4811 117.066 54.5864 118.03C52.6918 118.994 50.5952 119.496 48.4685 119.496H48.1494C45.9614 119.496 43.8632 118.628 42.3161 117.085C40.769 115.542 39.8997 113.449 39.8993 111.267V100.766C39.9004 99.2665 40.3124 97.7957 41.0907 96.5127C41.869 95.2297 42.9841 94.1833 44.3153 93.4865Z" fill="#F08960"/>
<path d="M48.1495 120.82H48.4685C52.399 120.816 56.1672 119.256 58.9464 116.484C61.7257 113.711 63.2892 109.953 63.294 106.032V106.011C63.2896 102.09 61.7263 98.3308 58.9469 95.5584C56.1675 92.786 52.3991 91.2265 48.4685 91.2222H48.1495C45.6119 91.2265 43.1796 92.234 41.3853 94.0238C39.591 95.8136 38.581 98.2399 38.5767 100.771V111.272C38.581 113.803 39.591 116.229 41.3853 118.019C43.1796 119.809 45.6119 120.816 48.1495 120.82ZM48.4685 93.8609C51.6978 93.8644 54.7939 95.1456 57.0773 97.4233C59.3608 99.7011 60.6452 102.789 60.6487 106.011V106.032C60.6447 109.253 59.3602 112.341 57.0769 114.619C54.7935 116.896 51.6977 118.178 48.4685 118.182H48.1495C46.3135 118.177 44.554 117.448 43.2558 116.153C41.9576 114.858 41.2264 113.103 41.222 111.272V100.771C41.2264 98.9398 41.9576 97.1847 43.2558 95.8897C44.554 94.5947 46.3135 93.8652 48.1495 93.8609H48.4685Z" fill="black"/>
</g>
<defs>
<clipPath id="clip0_2634_59127">
<rect width="124" height="99.2" fill="white"/>
</clipPath>
<clipPath id="clip1_2634_59127">
<rect width="124" height="164.92" fill="white" transform="matrix(-1 0 0 1 124.333 0)"/>
</clipPath>
<clipPath id="clip2_2634_59127">
<rect width="124" height="164.92" fill="white" transform="matrix(-1 0 0 1 124.333 0)"/>
</clipPath>
</defs>
</svg>
