<svg width="124" height="100" viewBox="0 0 124 100" fill="none" xmlns="http://www.w3.org/2000/svg">
<g clip-path="url(#clip0_2635_60678)">
<path d="M83.1544 78.5679H83.1627C85.9252 78.5679 88.5745 79.6625 90.5279 81.611C92.4813 83.5595 93.5787 86.2022 93.5787 88.9578V95.5546C93.5787 99.1268 90.6754 99.2818 87.0927 99.2818H72.7483V88.9545C72.7492 86.2012 73.8456 83.5609 75.7968 81.6134C77.7479 79.6659 80.3942 78.5705 83.1544 78.5679Z" fill="#FFAF77"/>
<path d="M72.7434 100.6H87.0877C90.1959 100.6 94.8964 100.6 94.8964 95.553V88.9562C94.8942 85.8514 93.6567 82.8743 91.4558 80.6789C89.2548 78.4834 86.2703 77.2491 83.1577 77.2469H83.1494C80.0368 77.2491 77.0523 78.4834 74.8514 80.6789C72.6504 82.8743 71.4129 85.8514 71.4108 88.9562V99.2835C71.4112 99.4573 71.4461 99.6293 71.5134 99.7897C71.5806 99.95 71.679 100.096 71.8029 100.218C71.9267 100.34 72.0735 100.437 72.2349 100.502C72.3963 100.568 72.5691 100.601 72.7434 100.6ZM83.1594 79.8873C85.5711 79.8873 87.884 80.8429 89.5893 82.544C91.2946 84.245 92.2527 86.5522 92.2527 88.9579V95.5547C92.2527 97.5337 91.3351 97.9625 87.0893 97.9625H74.0677V88.9546C74.0677 86.5489 75.0257 84.2417 76.731 82.5407C78.4364 80.8396 80.7493 79.884 83.161 79.884L83.1594 79.8873Z" fill="black"/>
<path d="M72.4821 83.9838H41.788C40.9276 83.9838 40.1026 84.3247 39.4942 84.9316C38.8859 85.5384 38.5441 86.3614 38.5441 87.2196V112.086H85.4558V96.9251C85.4558 93.4929 84.0889 90.2012 81.6559 87.7742C79.2229 85.3473 75.9229 83.9838 72.4821 83.9838Z" fill="#3A3A3A"/>
<path d="M38.5442 113.406H85.4558C85.8066 113.406 86.143 113.267 86.3911 113.019C86.6391 112.772 86.7785 112.436 86.7785 112.086V96.9251C86.7741 93.1443 85.2665 89.5196 82.5864 86.8462C79.9062 84.1727 76.2724 82.6689 72.4821 82.6645H41.7863C40.5759 82.6662 39.4156 83.1468 38.5599 84.0007C37.7041 84.8546 37.2228 86.0122 37.2215 87.2196V112.086C37.2215 112.436 37.3608 112.772 37.6089 113.019C37.8569 113.267 38.1934 113.406 38.5442 113.406ZM84.1332 110.767H39.8668V87.2196C39.8673 86.7117 40.0696 86.2248 40.4294 85.8656C40.7893 85.5063 41.2772 85.3041 41.7863 85.3032H72.4821C75.5711 85.3067 78.5326 86.5323 80.7168 88.711C82.901 90.8898 84.1297 93.8439 84.1332 96.9251V110.767Z" fill="black"/>
<g clip-path="url(#clip1_2635_60678)">
<path d="M72.4821 83.9838H41.788C40.9276 83.9838 40.1026 84.3247 39.4942 84.9316C38.8859 85.5384 38.5441 86.3614 38.5441 87.2196V108.847C38.5441 109.705 38.8859 110.528 39.4942 111.135C40.1026 111.742 40.9276 112.083 41.788 112.083H82.212C83.0723 112.083 83.8974 111.742 84.5057 111.135C85.114 110.528 85.4558 109.705 85.4558 108.847V96.9251C85.4558 93.4929 84.0889 90.2012 81.6559 87.7742C79.2229 85.3473 75.9229 83.9838 72.4821 83.9838Z" fill="#0047B8"/>
<path d="M41.7831 113.406H82.2087C83.4206 113.405 84.5827 112.925 85.4396 112.07C86.2965 111.215 86.7781 110.056 86.7785 108.847V96.9251C86.7741 93.1443 85.2665 89.5196 82.5864 86.8462C79.9062 84.1727 76.2724 82.6689 72.4821 82.6645H41.7831C40.5726 82.6662 39.4123 83.1468 38.5566 84.0007C37.7008 84.8546 37.2195 86.0122 37.2182 87.2196V108.847C37.2186 110.055 37.6995 111.214 38.5554 112.068C39.4112 112.923 40.5721 113.404 41.7831 113.406ZM72.4788 85.3032C75.5678 85.3067 78.5292 86.5323 80.7135 88.711C82.8977 90.8898 84.1264 93.8439 84.1299 96.9251V108.847C84.1294 109.355 83.9269 109.842 83.5667 110.202C83.2065 110.561 82.7181 110.763 82.2087 110.764H41.7831C41.2745 110.762 40.7874 110.559 40.4283 110.2C40.0691 109.841 39.8673 109.354 39.8668 108.847V87.2196C39.8673 86.7123 40.0691 86.2259 40.4283 85.8667C40.7874 85.5076 41.2745 85.305 41.7831 85.3032H72.4788Z" fill="black"/>
</g>
<path d="M88.66 119.499H88.3409C84.7599 119.499 81.3256 118.08 78.7935 115.554C76.2613 113.028 74.8386 109.602 74.8382 106.03V106.009C74.8382 102.437 76.2607 99.0108 78.793 96.4849C81.3253 93.9589 84.7598 92.5399 88.3409 92.5399H88.66C90.8481 92.5399 92.9465 93.4069 94.4937 94.9502C96.0409 96.4936 96.9102 98.5868 96.9102 100.769V111.27C96.9102 112.351 96.6967 113.421 96.2821 114.419C95.8675 115.418 95.2598 116.325 94.4937 117.089C93.7276 117.853 92.8181 118.459 91.8172 118.873C90.8162 119.286 89.7434 119.499 88.66 119.499Z" fill="#FFAF77"/>
<path d="M88.3409 120.819H88.66C91.1975 120.814 93.6298 119.807 95.4241 118.017C97.2184 116.227 98.2284 113.801 98.2328 111.27V100.769C98.2284 98.2382 97.2184 95.812 95.4241 94.0221C93.6298 92.2323 91.1975 91.2249 88.66 91.2205H88.3409C84.4103 91.2249 80.6419 92.7843 77.8626 95.5568C75.0832 98.3292 73.5198 102.088 73.5155 106.009V106.03C73.5203 109.951 75.0838 113.71 77.863 116.482C80.6423 119.254 84.4104 120.814 88.3409 120.819ZM88.66 93.8592C90.4959 93.8636 92.2554 94.593 93.5536 95.888C94.8518 97.183 95.5831 98.9381 95.5875 100.769V111.27C95.5831 113.101 94.8518 114.856 93.5536 116.151C92.2554 117.446 90.4959 118.176 88.66 118.18H88.3409C85.1117 118.176 82.016 116.895 79.7326 114.617C77.4492 112.339 76.1647 109.251 76.1608 106.03V106.009C76.1647 102.788 77.4492 99.6998 79.7326 97.4221C82.016 95.1445 85.1117 93.8632 88.3409 93.8592H88.66Z" fill="black"/>
<g opacity="0.7">
<path opacity="0.7" d="M86.9686 95.3452H90.1265C90.8871 95.3452 91.5037 95.9603 91.5037 96.719V97.2929C91.5037 98.0516 90.8871 98.6667 90.1265 98.6667H86.9686C86.208 98.6667 85.5914 98.0516 85.5914 97.2929V96.719C85.5914 95.9603 86.208 95.3452 86.9686 95.3452Z" fill="white"/>
</g>
<g clip-path="url(#clip2_2635_60678)">
<path d="M72.4822 83.9838C75.1977 83.9858 77.8441 84.8377 80.0485 86.4194C82.2529 88.0012 83.9042 90.233 84.7697 92.8005C81.7098 93.4128 78.9568 95.0631 76.9787 97.471C75.0006 99.8789 73.9194 102.896 73.9189 106.009V106.03C73.9165 108.134 74.4103 110.208 75.3606 112.086H56.8829C57.8326 110.208 58.3259 108.134 58.323 106.03V106.009C58.3226 102.963 57.2872 100.007 55.3859 97.624C53.4845 95.2407 50.8295 93.5706 47.8541 92.8862V88.9529C47.8587 87.2269 47.4542 85.5242 46.6736 83.9838H72.4822Z" fill="#B80031"/>
<path d="M73.6808 112.086H61.6511V83.9838H72.4821C72.8872 83.9838 73.2856 84.0053 73.6808 84.0415V112.086Z" fill="#0047B8"/>
<path d="M56.8912 113.406H75.3688C75.5946 113.405 75.8165 113.348 76.0136 113.238C76.2106 113.128 76.3762 112.97 76.4945 112.778C76.6129 112.586 76.68 112.367 76.6896 112.142C76.6992 111.917 76.6509 111.694 76.5493 111.493C75.6901 109.8 75.2448 107.928 75.2498 106.03V106.009C75.2537 103.202 76.2302 100.482 78.0139 98.3111C79.7977 96.1399 82.279 94.6504 85.0375 94.0951C85.2216 94.0581 85.3957 93.9824 85.5482 93.8731C85.7007 93.7638 85.8281 93.6233 85.922 93.4611C86.0158 93.2988 86.0739 93.1185 86.0925 92.9321C86.111 92.7456 86.0896 92.5574 86.0295 92.3799C85.0764 89.547 83.2545 87.0847 80.8216 85.3413C78.3887 83.5978 75.4679 82.6614 72.4722 82.6645H46.6802C46.4539 82.6645 46.2314 82.7224 46.0339 82.8326C45.8365 82.9429 45.6707 83.1018 45.5524 83.2943C45.4341 83.4867 45.3673 83.7062 45.3584 83.9318C45.3495 84.1573 45.3987 84.3814 45.5014 84.5825C46.1853 85.9382 46.5404 87.4352 46.538 88.9529V92.8862C46.5389 93.185 46.6415 93.4747 46.8289 93.7078C47.0163 93.9409 47.2775 94.1036 47.5697 94.1693C50.2591 94.7762 52.6605 96.28 54.3773 98.4324C56.094 100.585 57.0234 103.257 57.0119 106.007V106.029C57.0178 107.926 56.573 109.797 55.714 111.489C55.612 111.69 55.5634 111.914 55.5728 112.139C55.5822 112.365 55.6493 112.584 55.7677 112.776C55.8861 112.968 56.0518 113.126 56.249 113.236C56.4463 113.346 56.6685 113.404 56.8945 113.404L56.8912 113.406ZM73.3815 110.767H58.8785C59.3959 109.241 59.6579 107.641 59.6539 106.03V106.009C59.6535 102.846 58.6365 99.7666 56.7523 97.2228C54.868 94.6789 52.2158 92.8047 49.185 91.8753V88.9529C49.1852 87.7159 49.0002 86.4857 48.6361 85.3032H72.4821C74.6788 85.3019 76.831 85.9207 78.69 87.088C80.549 88.2554 82.0388 89.9237 82.9874 91.9C79.9795 92.8486 77.3523 94.7271 75.4857 97.2638C73.6191 99.8006 72.61 102.864 72.6045 106.011V106.032C72.6014 107.642 72.8639 109.242 73.3815 110.767Z" fill="black"/>
</g>
<g clip-path="url(#clip3_2635_60678)">
<path d="M47.5697 18.9476H80.0213C82.6446 18.9479 85.19 19.8372 87.2402 21.4696C89.2903 23.1021 90.7237 25.3809 91.3053 27.9325L92.5652 35.1032H47.2639" fill="#5E3E3E"/>
<path d="M47.2705 36.4226H92.5718C92.7646 36.4225 92.9551 36.3804 93.1299 36.2992C93.3047 36.2181 93.4595 36.0997 93.5836 35.9526C93.708 35.8051 93.7986 35.6323 93.8488 35.4463C93.8991 35.2602 93.9079 35.0654 93.8746 34.8756L92.6148 27.7049C92.6148 27.6835 92.6065 27.6604 92.6016 27.6389C91.9503 24.7968 90.3536 22.2583 88.0714 20.4369C85.7842 18.6238 82.9495 17.6357 80.028 17.6332H47.5763C47.2255 17.6332 46.8891 17.7722 46.6411 18.0197C46.393 18.2671 46.2537 18.6027 46.2537 18.9526C46.2537 19.3025 46.393 19.6381 46.6411 19.8855C46.8891 20.133 47.2255 20.272 47.5763 20.272H80.0213C82.342 20.263 84.5962 21.0439 86.4118 22.4855C88.2274 23.9272 89.4958 25.9435 90.0075 28.2013L90.9879 33.7921H47.2688C46.918 33.7921 46.5816 33.9311 46.3335 34.1785C46.0855 34.426 45.9461 34.7615 45.9461 35.1115C45.9483 35.4602 46.0889 35.794 46.337 36.0396C46.5852 36.2853 46.9208 36.423 47.2705 36.4226Z" fill="black"/>
<path d="M87.6383 58.2168V75.5482C87.6383 77.7352 86.7673 79.8326 85.217 81.379C83.6667 82.9254 81.564 83.7942 79.3716 83.7942H57.6022L36.5056 59.2294V41.7479C36.5061 38.3159 37.8731 35.0247 40.3061 32.5981C42.7391 30.1715 46.0388 28.8082 49.4793 28.8082H74.8845C76.5883 28.8082 78.2755 29.143 79.8496 29.7935C81.4238 30.4439 82.8541 31.3973 84.0588 32.5992C85.2636 33.8011 86.2192 35.2279 86.8711 36.7982C87.523 38.3685 87.8584 40.0515 87.8582 41.7512V52.25L87.6383 58.2168Z" fill="#FFAF77"/>
<path d="M57.6021 85.1136H79.3716C81.9139 85.1105 84.3512 84.1018 86.1489 82.3086C87.9465 80.5154 88.9578 78.0842 88.9609 75.5482V58.2316L89.1808 52.2945V41.7396C89.176 37.9591 87.6682 34.3348 84.9881 31.6617C82.308 28.9886 78.6744 27.485 74.8844 27.4807H49.4793C45.6893 27.485 42.0557 28.9886 39.3757 31.6617C36.6956 34.3348 35.1877 37.9591 35.1829 41.7396V59.2212C35.183 59.5364 35.2962 59.8412 35.502 60.0804L56.6101 84.6518C56.7328 84.795 56.8849 84.9102 57.056 84.9899C57.2271 85.0695 57.4133 85.1117 57.6021 85.1136ZM86.5355 52.2253L86.3172 58.1624C86.3172 58.1789 86.3172 58.1954 86.3172 58.2118V75.5482C86.315 77.3846 85.5827 79.1452 84.281 80.4437C82.9792 81.7422 81.2142 82.4727 79.3732 82.4749H58.2188L37.8283 58.7412V41.7545C37.8322 38.6735 39.061 35.7199 41.2452 33.5415C43.4294 31.363 46.3906 30.1377 49.4793 30.1342H74.8844C77.9727 30.1373 80.9336 31.362 83.1178 33.5398C85.302 35.7176 86.5311 38.6707 86.5355 41.7512V52.2253Z" fill="black"/>
<path d="M67.9917 62.8345H76.0434C76.3942 62.8345 76.7306 62.6955 76.9787 62.4481C77.2267 62.2006 77.3661 61.8651 77.3661 61.5151V51.8987C77.3662 51.6394 77.2897 51.3859 77.1462 51.1697L73.3882 45.5064C73.2922 45.3619 73.1687 45.2377 73.0246 45.1408C72.8805 45.044 72.7187 44.9764 72.5485 44.9419C72.3782 44.9075 72.2028 44.9068 72.0323 44.94C71.8617 44.9732 71.6994 45.0395 71.5546 45.1353C71.4098 45.231 71.2853 45.3542 71.1882 45.4979C71.0911 45.6417 71.0233 45.8031 70.9888 45.9729C70.9542 46.1427 70.9536 46.3177 70.9868 46.4878C71.0201 46.6579 71.0866 46.8198 71.1826 46.9643L74.7208 52.2945V60.1958H67.9917C67.6409 60.1958 67.3045 60.3348 67.0564 60.5822C66.8084 60.8296 66.669 61.1652 66.669 61.5151C66.669 61.6884 66.7032 61.86 66.7697 62.02C66.8362 62.1801 66.9336 62.3256 67.0564 62.4481C67.1793 62.5706 67.3251 62.6678 67.4855 62.7341C67.646 62.8004 67.818 62.8345 67.9917 62.8345Z" fill="black"/>
<g opacity="0.7">
<path opacity="0.7" d="M77.4223 33.4854H80.5802C81.3408 33.4854 81.9574 34.1004 81.9574 34.8591V35.4331C81.9574 36.1918 81.3408 36.8068 80.5802 36.8068H77.4223C76.6617 36.8068 76.0451 36.1918 76.0451 35.4331V34.8591C76.0451 34.1004 76.6617 33.4854 77.4223 33.4854Z" fill="white"/>
</g>
<path d="M36.5056 68.5886V51.648H42.5336V61.6801L59.5861 66.9212L62.6216 63.8933C63.3893 63.1274 64.3007 62.5197 65.3038 62.1052C66.3069 61.6906 67.382 61.4773 68.4678 61.4772H77.7579C79.9502 61.4777 82.0525 62.3468 83.6024 63.8933L85.3285 65.6151H87.6316V75.5482C87.6316 77.7352 86.7606 79.8326 85.2103 81.379C83.66 82.9254 81.5574 83.7942 79.3649 83.7942H54.3698C51.7344 83.7942 47.5068 83.0092 45.3228 81.5398L42.3319 79.5277C40.5373 78.3193 39.0676 76.6899 38.0517 74.7826C37.0358 72.8753 36.5049 70.7484 36.5056 68.5886Z" fill="#5E3E3E"/>
<path d="M54.3764 85.1135H79.3715C81.9139 85.1105 84.3512 84.1017 86.1488 82.3085C87.9465 80.5153 88.9578 78.0841 88.9609 75.5482V65.615C88.9609 65.2651 88.8215 64.9295 88.5735 64.6821C88.3254 64.4347 87.989 64.2957 87.6382 64.2957H85.884L84.5448 62.9598C83.6569 62.0686 82.6006 61.3619 81.437 60.8807C80.2735 60.3994 79.0258 60.1532 77.7662 60.1562H68.4761C67.2165 60.1532 65.9688 60.3994 64.8052 60.8807C63.6416 61.3619 62.5853 62.0686 61.6974 62.9598L59.2174 65.4254L43.853 60.7037V51.648C43.853 51.2981 43.7136 50.9625 43.4656 50.715C43.2175 50.4676 42.8811 50.3286 42.5303 50.3286H36.5023C36.1515 50.3286 35.815 50.4676 35.567 50.715C35.3189 50.9625 35.1796 51.2981 35.1796 51.648V68.5886C35.1771 70.9663 35.7612 73.3082 36.8801 75.4077C37.9991 77.5072 39.6187 79.2999 41.5962 80.6277L44.5871 82.6381C46.9844 84.2444 51.4186 85.1135 54.3764 85.1135ZM86.3155 66.9344V75.5482C86.3134 77.3846 85.5811 79.1451 84.2793 80.4436C82.9775 81.7422 81.2125 82.4726 79.3715 82.4748H54.3764C51.832 82.4748 47.9284 81.698 46.0684 80.4447L43.0776 78.4343C41.4603 77.3483 40.1356 75.8823 39.2202 74.1654C38.3048 72.4484 37.8268 70.5332 37.8282 68.5886V52.9673H41.211V61.6801C41.2107 61.9622 41.3012 62.2369 41.469 62.464C41.6368 62.691 41.8732 62.8585 42.1434 62.9417L59.2025 68.1845C59.4322 68.2545 59.6767 68.2608 59.9097 68.2027C60.1428 68.1446 60.3555 68.0243 60.5252 67.8547L63.5607 64.8267C64.2041 64.1816 64.9694 63.6701 65.8122 63.3219C66.6551 62.9737 67.5588 62.7957 68.4711 62.7982H77.7612C78.6735 62.7959 79.5771 62.974 80.42 63.3221C81.2628 63.6703 82.0281 64.1817 82.6716 64.8267L84.3977 66.5485C84.6453 66.7961 84.9812 66.9355 85.3318 66.9361L86.3155 66.9344Z" fill="black"/>
<path d="M77.7679 65.2324H68.944C68.067 65.2324 67.226 65.5799 66.6058 66.1985C65.9857 66.8171 65.6374 67.656 65.6374 68.5308V72.9688H81.0745V68.5308C81.0745 67.656 80.7261 66.8171 80.106 66.1985C79.4859 65.5799 78.6448 65.2324 77.7679 65.2324Z" fill="#FFAF77"/>
<path d="M65.6357 74.2882H81.0795C81.4303 74.2882 81.7667 74.1492 82.0148 73.9018C82.2628 73.6543 82.4022 73.3188 82.4022 72.9688V68.5308C82.4022 67.3061 81.9144 66.1316 81.0463 65.2656C80.1781 64.3996 79.0006 63.9131 77.7728 63.9131H68.949C67.7212 63.9131 66.5437 64.3996 65.6756 65.2656C64.8074 66.1316 64.3197 67.3061 64.3197 68.5308V72.9688C64.3197 73.3176 64.4581 73.6522 64.7047 73.8994C64.9513 74.1467 65.2861 74.2865 65.6357 74.2882ZM79.7502 71.6495H66.9584V68.5308C66.9584 68.006 67.1674 67.5026 67.5395 67.1315C67.9116 66.7603 68.4162 66.5518 68.9424 66.5518H77.7728C78.299 66.5518 78.8037 66.7603 79.1757 67.1315C79.5478 67.5026 79.7568 68.006 79.7568 68.5308L79.7502 71.6495Z" fill="black"/>
<path d="M47.2704 28.6713L48.9238 41.9919L42.3452 52.3027H36.1088V31.5723C36.1088 30.0567 36.7123 28.6032 37.7867 27.5315C38.8611 26.4598 40.3182 25.8578 41.8376 25.8578V24.6605C41.8376 23.1453 42.441 21.6922 43.515 20.6209C44.5891 19.5495 46.0458 18.9476 47.5647 18.9476" fill="#5E3E3E"/>
<path d="M36.1087 53.6221H42.3402C42.5626 53.6222 42.7815 53.5663 42.9766 53.4597C43.1716 53.353 43.3366 53.199 43.4562 53.0119L50.0348 42.6994C50.1998 42.4408 50.2693 42.1329 50.2315 41.8287L48.5782 28.5097C48.5577 28.3372 48.5033 28.1704 48.418 28.0189C48.3327 27.8673 48.2183 27.7341 48.0812 27.6269C47.9442 27.5196 47.7873 27.4404 47.6195 27.3938C47.4517 27.3472 47.2763 27.3341 47.1034 27.3553C46.9303 27.3757 46.7629 27.43 46.6109 27.5152C46.4589 27.6004 46.3253 27.7147 46.2177 27.8516C46.1101 27.9884 46.0308 28.1452 45.9842 28.3127C45.9375 28.4803 45.9246 28.6554 45.9461 28.828L47.5415 41.6769L41.6077 50.9768H37.4314V31.5723C37.4327 30.407 37.8974 29.2899 38.7234 28.4659C39.5494 27.6419 40.6694 27.1785 41.8375 27.1772C42.1883 27.1772 42.5248 27.0382 42.7728 26.7907C43.0209 26.5433 43.1602 26.2077 43.1602 25.8578V24.6605C43.1615 23.4957 43.626 22.3789 44.4517 21.5553C45.2774 20.7316 46.3969 20.2683 47.5647 20.267C47.9155 20.267 48.2519 20.128 48.5 19.8806C48.748 19.6332 48.8874 19.2976 48.8874 18.9477C48.8874 18.5977 48.748 18.2622 48.5 18.0147C48.2519 17.7673 47.9155 17.6283 47.5647 17.6283C45.6956 17.6305 43.9038 18.3721 42.5821 19.6904C41.2605 21.0087 40.5171 22.7961 40.5149 24.6605C38.9037 24.9693 37.4506 25.8281 36.4052 27.0894C35.3598 28.3507 34.7873 29.9357 34.7861 31.5723V52.3027C34.7861 52.6526 34.9254 52.9882 35.1735 53.2357C35.4215 53.4831 35.7579 53.6221 36.1087 53.6221Z" fill="black"/>
<path d="M41.0473 48.5442H36.1138C35.1491 48.5442 34.2239 48.9264 33.5418 49.6069C32.8596 50.2873 32.4764 51.2102 32.4764 52.1724V55.578C32.4764 56.0545 32.5705 56.5263 32.7533 56.9665C32.9361 57.4067 33.204 57.8067 33.5418 58.1436C33.8795 58.4805 34.2805 58.7477 34.7218 58.9301C35.1631 59.1124 35.6361 59.2063 36.1138 59.2063H41.0473V48.5442Z" fill="#F08960"/>
<path d="M69.3044 70.1504H77.4719C77.8227 70.1504 78.1591 70.0114 78.4072 69.7639C78.6552 69.5165 78.7946 69.1809 78.7946 68.831C78.7946 68.4811 78.6552 68.1455 78.4072 67.8981C78.1591 67.6507 77.8227 67.5117 77.4719 67.5117H69.3044C68.9536 67.5117 68.6172 67.6507 68.3692 67.8981C68.1211 68.1455 67.9818 68.4811 67.9818 68.831C67.9818 69.1809 68.1211 69.5165 68.3692 69.7639C68.6172 70.0114 68.9536 70.1504 69.3044 70.1504Z" fill="black"/>
<path d="M61.2395 43.3294C62.5549 43.3294 63.8165 43.8507 64.7467 44.7785C65.6769 45.7064 66.1995 46.9648 66.1995 48.277V48.6514C66.1995 49.5262 65.8511 50.3651 65.231 50.9837C64.6108 51.6023 63.7698 51.9498 62.8928 51.9498H53.2258C52.3488 51.9498 51.5077 51.6023 50.8876 50.9837C50.2675 50.3651 49.9191 49.5262 49.9191 48.6514V48.2803C49.9191 46.9681 50.4417 45.7097 51.3718 44.7818C52.302 43.854 53.5636 43.3327 54.8791 43.3327L61.2395 43.3294Z" fill="white"/>
<path d="M80.7786 51.9498H84.5515C85.4285 51.9498 86.2695 51.6023 86.8897 50.9837C87.5098 50.3651 87.8582 49.5262 87.8582 48.6514V46.5651C87.8584 46.1402 87.7746 45.7193 87.6117 45.3266C87.4487 44.9339 87.2098 44.5772 86.9085 44.2766C86.6073 43.9761 86.2496 43.7378 85.8559 43.5753C85.4623 43.4127 85.0404 43.3292 84.6143 43.3294H80.7786C79.9016 43.3294 79.0605 43.6769 78.4404 44.2955C77.8203 44.9141 77.4719 45.753 77.4719 46.6278V48.6514C77.4719 49.5262 77.8203 50.3651 78.4404 50.9837C79.0605 51.6023 79.9016 51.9498 80.7786 51.9498Z" fill="white"/>
<path d="M80.223 43.6296H82.9775C84.4996 43.6296 85.7336 44.8604 85.7336 46.3788V49.1264C85.7336 50.6447 84.4996 51.8756 82.9775 51.8756H80.223C78.7009 51.8756 77.4669 50.6447 77.4669 49.1264V46.3788C77.4669 44.8604 78.7009 43.6296 80.223 43.6296Z" fill="black"/>
<path d="M58.8388 43.6296H61.5933C63.1154 43.6296 64.3494 44.8604 64.3494 46.3788V49.1264C64.3494 50.6447 63.1154 51.8756 61.5933 51.8756H58.8388C57.3167 51.8756 56.0827 50.6447 56.0827 49.1264V46.3788C56.0827 44.8604 57.3167 43.6296 58.8388 43.6296Z" fill="black"/>
<path d="M55.3337 43.8242H63.7194C64.0702 43.8242 64.4067 43.6852 64.6547 43.4378C64.9028 43.1903 65.0421 42.8548 65.0421 42.5048C65.0421 42.1549 64.9028 41.8193 64.6547 41.5719C64.4067 41.3245 64.0702 41.1855 63.7194 41.1855H55.3354C54.9846 41.1855 54.6482 41.3245 54.4001 41.5719C54.1521 41.8193 54.0127 42.1549 54.0127 42.5048C54.0127 42.8545 54.1519 43.1898 54.3995 43.4372C54.6472 43.6846 54.9832 43.8238 55.3337 43.8242Z" fill="black"/>
<path d="M79.1252 43.8242H84.6143C84.9651 43.8242 85.3015 43.6852 85.5496 43.4378C85.7976 43.1903 85.937 42.8548 85.937 42.5048C85.937 42.1549 85.7976 41.8193 85.5496 41.5719C85.3015 41.3245 84.9651 41.1855 84.6143 41.1855H79.1252C78.7744 41.1855 78.438 41.3245 78.1899 41.5719C77.9419 41.8193 77.8025 42.1549 77.8025 42.5048C77.8025 42.8548 77.9419 43.1903 78.1899 43.4378C78.438 43.6852 78.7744 43.8242 79.1252 43.8242Z" fill="black"/>
</g>
<path d="M32.6732 99.2802V88.9529C32.6732 83.217 37.0165 78.5629 42.3733 78.5629C47.7317 78.5629 52.0734 83.212 52.0734 88.9529V95.5497C52.0734 99.1219 49.3685 99.2769 46.0305 99.2769C49.3685 99.2769 52.0734 102.173 52.0734 105.747V119.361C52.0734 122.935 49.3685 125.832 46.0305 125.832H40.4719C33.7974 125.832 28.3844 120.039 28.3844 112.891V103.86C28.391 101.338 30.3089 99.2802 32.6732 99.2802Z" fill="#FFAF77"/>
<path d="M32.6732 99.2802L32.9691 97.0043V108.784C32.9691 115.932 37.0016 118.977 43.6777 118.977H50.6217C51.1179 118.97 51.6111 118.898 52.0883 118.762V119.364C52.0883 122.938 49.3834 125.836 46.0453 125.836H40.4719C33.7974 125.836 28.3844 120.04 28.3844 112.894V103.863C28.391 101.338 30.3089 99.2802 32.6732 99.2802Z" fill="#F08960"/>
<path d="M40.472 127.155H46.0305C50.0927 127.155 53.3961 123.66 53.3961 119.364V105.75C53.403 104.661 53.1866 103.583 52.7601 102.581C52.3336 101.579 51.7061 100.674 50.9161 99.9234C52.3413 99.2785 53.3961 98.0169 53.3961 95.553V88.9562C53.3961 82.5029 48.4526 77.2469 42.3733 77.2469C36.294 77.2469 31.3439 82.4979 31.3439 88.9562V98.1291C28.8904 98.7574 27.0634 101.098 27.0634 103.867V112.898C27.07 120.758 33.0849 127.155 40.472 127.155ZM46.0305 100.603C48.6329 100.603 50.7507 102.912 50.7507 105.753V119.367C50.7507 122.207 48.6329 124.52 46.0305 124.52H40.472C34.5365 124.52 29.7088 119.305 29.7088 112.898V103.867C29.7088 102.066 31.0315 100.603 32.6666 100.603C33.0174 100.603 33.3538 100.464 33.6018 100.216C33.8499 99.969 33.9893 99.6334 33.9893 99.2835V88.9562C33.9893 83.9575 37.7473 79.8856 42.3667 79.8856C46.9861 79.8856 50.7507 83.9525 50.7507 88.9562V95.553C50.7507 97.5551 49.9572 97.9609 46.0305 97.9609C45.6797 97.9609 45.3433 98.0998 45.0952 98.3473C44.8472 98.5947 44.7078 98.9303 44.7078 99.2802C44.7078 99.454 44.7422 99.6261 44.8091 99.7866C44.876 99.9472 44.974 100.093 45.0976 100.215C45.2211 100.338 45.3677 100.435 45.5289 100.501C45.6901 100.567 45.8628 100.6 46.0371 100.6L46.0305 100.603Z" fill="black"/>
<g opacity="0.7">
<path opacity="0.7" d="M42.0526 82.0015H45.2104C45.971 82.0015 46.5876 82.6166 46.5876 83.3753V83.9492C46.5876 84.708 45.971 85.323 45.2104 85.323H42.0526C41.2919 85.323 40.6753 84.708 40.6753 83.9492V83.3753C40.6753 82.6166 41.2919 82.0015 42.0526 82.0015Z" fill="white"/>
</g>
<path d="M48.7287 119.499H49.0461C52.6274 119.499 56.0621 118.08 58.5946 115.554C61.1271 113.029 62.5501 109.603 62.5505 106.03V106.009C62.5505 104.24 62.2012 102.488 61.5225 100.854C60.8439 99.2199 59.8491 97.735 58.5951 96.4843C57.3411 95.2336 55.8523 94.2414 54.2139 93.5646C52.5755 92.8879 50.8195 92.5396 49.0461 92.5399H48.7287C46.5406 92.5399 44.4421 93.4069 42.8949 94.9502C41.3477 96.4936 40.4785 98.5868 40.4785 100.769V111.27C40.4785 112.351 40.6919 113.421 41.1065 114.419C41.5211 115.418 42.1288 116.325 42.8949 117.089C43.661 117.853 44.5705 118.459 45.5715 118.873C46.5724 119.286 47.6452 119.499 48.7287 119.499Z" fill="#FFAF77"/>
<path d="M44.893 93.4865C44.893 93.6151 44.855 93.7372 44.855 93.8675V107.084C44.855 108.907 45.5808 110.655 46.8728 111.944C48.1648 113.232 49.9172 113.956 51.7444 113.956H59.9482C58.6985 115.673 57.0592 117.07 55.1644 118.033C53.2695 118.997 51.173 119.499 49.0462 119.499H48.7287C47.6453 119.499 46.5725 119.286 45.5715 118.873C44.5706 118.459 43.6611 117.853 42.895 117.089C42.1289 116.325 41.5212 115.418 41.1066 114.419C40.692 113.421 40.4786 112.351 40.4786 111.27V100.769C40.4784 99.2693 40.8897 97.7977 41.6678 96.514C42.4459 95.2303 43.5612 94.1833 44.893 93.4865Z" fill="#F08960"/>
<path d="M48.7287 120.819H49.0461C52.9769 120.814 56.7454 119.255 59.525 116.483C62.3047 113.71 63.8684 109.951 63.8732 106.03V106.009C63.8689 102.088 62.3052 98.3287 59.5255 95.5562C56.7458 92.7837 52.977 91.2244 49.0461 91.2205H48.7287C46.1912 91.2249 43.7588 92.2323 41.9645 94.0221C40.1702 95.812 39.1603 98.2382 39.1559 100.769V111.27C39.1603 113.801 40.1702 116.227 41.9645 118.017C43.7588 119.807 46.1912 120.814 48.7287 120.819ZM49.0461 93.8592C52.2756 93.8627 55.3718 95.1439 57.6555 97.4216C59.9392 99.6993 61.224 102.788 61.2279 106.009V106.03C61.224 109.252 59.9392 112.34 57.6555 114.618C55.3718 116.895 52.2756 118.177 49.0461 118.18H48.7287C46.8927 118.176 45.1332 117.446 43.835 116.151C42.5368 114.856 41.8056 113.101 41.8012 111.27V100.769C41.8056 98.9381 42.5368 97.183 43.835 95.888C45.1332 94.593 46.8927 93.8636 48.7287 93.8592H49.0461Z" fill="black"/>
</g>
<defs>
<clipPath id="clip0_2635_60678">
<rect width="124" height="99.2" fill="white"/>
</clipPath>
<clipPath id="clip1_2635_60678">
<rect width="124" height="164.92" fill="white" transform="matrix(-1 0 0 1 124 0)"/>
</clipPath>
<clipPath id="clip2_2635_60678">
<rect width="124" height="164.92" fill="white" transform="matrix(-1 0 0 1 124 0)"/>
</clipPath>
<clipPath id="clip3_2635_60678">
<rect width="124.222" height="164.92" fill="white" transform="matrix(-1 0 0 1 126.811 0)"/>
</clipPath>
</defs>
</svg>
