<svg width="124" height="100" viewBox="0 0 124 100" fill="none" xmlns="http://www.w3.org/2000/svg">
<g clip-path="url(#clip0_2635_60086)">
<path d="M83.1544 78.5679H83.1626C85.9251 78.5679 88.5745 79.6625 90.5279 81.611C92.4813 83.5595 93.5786 86.2022 93.5786 88.9578V95.5546C93.5786 99.1268 90.6754 99.2818 87.0926 99.2818H72.7483V88.9545C72.7492 86.2012 73.8456 83.5609 75.7968 81.6134C77.7479 79.6659 80.3942 78.5705 83.1544 78.5679Z" fill="#9C755A"/>
<path d="M72.7434 100.6H87.0877C90.1959 100.6 94.8964 100.6 94.8964 95.553V88.9562C94.8942 85.8514 93.6567 82.8743 91.4558 80.6789C89.2548 78.4834 86.2703 77.2491 83.1577 77.2469H83.1494C80.0368 77.2491 77.0523 78.4834 74.8514 80.6789C72.6504 82.8743 71.4129 85.8514 71.4108 88.9562V99.2835C71.4112 99.4573 71.4461 99.6293 71.5134 99.7897C71.5806 99.95 71.679 100.096 71.8029 100.218C71.9267 100.34 72.0735 100.437 72.2349 100.502C72.3963 100.568 72.5691 100.601 72.7434 100.6ZM83.1594 79.8873C85.5711 79.8873 87.884 80.8429 89.5893 82.544C91.2946 84.245 92.2527 86.5522 92.2527 88.9579V95.5547C92.2527 97.5337 91.3351 97.9625 87.0893 97.9625H74.0677V88.9546C74.0677 86.5489 75.0257 84.2417 76.731 82.5407C78.4364 80.8396 80.7493 79.884 83.161 79.884L83.1594 79.8873Z" fill="black"/>
<path d="M72.4821 83.9838H41.788C40.9277 83.9838 40.1026 84.3247 39.4943 84.9316C38.8859 85.5384 38.5442 86.3614 38.5442 87.2196V112.086H85.4558V96.9251C85.4558 93.4929 84.089 90.2012 81.6559 87.7742C79.2229 85.3473 75.923 83.9838 72.4821 83.9838Z" fill="#FF8622"/>
<path d="M38.5442 113.406H85.4558C85.8066 113.406 86.143 113.267 86.3911 113.019C86.6391 112.772 86.7785 112.436 86.7785 112.086V96.9251C86.7741 93.1443 85.2665 89.5196 82.5864 86.8462C79.9062 84.1727 76.2724 82.6689 72.4821 82.6645H41.7863C40.5759 82.6662 39.4156 83.1468 38.5599 84.0007C37.7041 84.8546 37.2228 86.0122 37.2215 87.2196V112.086C37.2215 112.436 37.3608 112.772 37.6089 113.019C37.8569 113.267 38.1934 113.406 38.5442 113.406ZM84.1332 110.767H39.8668V87.2196C39.8673 86.7117 40.0696 86.2248 40.4294 85.8656C40.7893 85.5063 41.2772 85.3041 41.7863 85.3032H72.4821C75.5711 85.3067 78.5326 86.5323 80.7168 88.711C82.901 90.8898 84.1297 93.8439 84.1332 96.9251V110.767Z" fill="black"/>
<path d="M72.4821 83.9838H41.788C40.9277 83.9838 40.1026 84.3247 39.4943 84.9316C38.8859 85.5384 38.5442 86.3614 38.5442 87.2196V108.847C38.5442 109.705 38.8859 110.528 39.4943 111.135C40.1026 111.742 40.9277 112.083 41.788 112.083H82.212C83.0723 112.083 83.8974 111.742 84.5057 111.135C85.1141 110.528 85.4558 109.705 85.4558 108.847V96.9251C85.4558 93.4929 84.089 90.2012 81.6559 87.7742C79.2229 85.3473 75.923 83.9838 72.4821 83.9838Z" fill="#0047B8"/>
<path d="M83.4421 90.0018H77.8489V85.1432C80.1463 86.1872 82.0897 87.8753 83.4421 90.0018Z" fill="#B80031"/>
<path d="M63.2664 90.0018H77.8472V104.546H63.2664V90.0018Z" fill="#B80031"/>
<path d="M48.6857 83.9838H63.2664V90.0017H48.6857V83.9838Z" fill="#B80031"/>
<path d="M38.5442 90.0018H48.6841V104.546H38.5442V90.0018Z" fill="#B80031"/>
<path d="M41.788 113.404H82.212C83.4224 113.403 84.583 112.923 85.4389 112.069C86.2948 111.216 86.776 110.058 86.7769 108.85V96.9251C86.7725 93.1446 85.2651 89.5201 82.5853 86.8467C79.9055 84.1733 76.2721 82.6693 72.4821 82.6645H41.788C40.5773 82.6658 39.4166 83.1461 38.5605 84.0001C37.7044 84.8541 37.2228 86.0119 37.2215 87.2196V108.85C37.2228 110.058 37.7044 111.216 38.5605 112.069C39.4167 112.923 40.5774 113.403 41.788 113.404ZM72.4838 85.3032C75.5726 85.3067 78.5339 86.5323 80.7179 88.7111C82.9018 90.89 84.1301 93.844 84.1332 96.9251V108.85C84.1323 109.358 83.9296 109.845 83.5694 110.204C83.2093 110.563 82.7211 110.765 82.212 110.765H41.788C41.2789 110.765 40.7908 110.563 40.4306 110.204C40.0705 109.845 39.8677 109.358 39.8668 108.85V87.2196C39.8673 86.7115 40.0698 86.2243 40.43 85.865C40.7902 85.5057 41.2786 85.3036 41.788 85.3032H72.4838Z" fill="black"/>
<path d="M88.66 119.499H88.3409C84.7599 119.499 81.3256 118.08 78.7935 115.554C76.2613 113.028 74.8386 109.602 74.8382 106.03V106.009C74.8382 102.437 76.2607 99.0108 78.793 96.4849C81.3253 93.9589 84.7598 92.5399 88.3409 92.5399H88.66C90.8481 92.5399 92.9465 93.4069 94.4937 94.9502C96.0409 96.4936 96.9102 98.5868 96.9102 100.769V111.27C96.9102 112.351 96.6967 113.421 96.2821 114.419C95.8675 115.418 95.2598 116.325 94.4937 117.089C93.7276 117.853 92.8181 118.459 91.8172 118.873C90.8162 119.286 89.7434 119.499 88.66 119.499Z" fill="#9C755A"/>
<path d="M88.3409 120.819H88.66C91.1975 120.814 93.6299 119.807 95.4242 118.017C97.2185 116.227 98.2284 113.801 98.2328 111.27V100.769C98.2284 98.2382 97.2185 95.812 95.4242 94.0221C93.6299 92.2323 91.1975 91.2249 88.66 91.2205H88.3409C84.4103 91.2249 80.6419 92.7843 77.8626 95.5568C75.0832 98.3292 73.5199 102.088 73.5155 106.009V106.03C73.5203 109.951 75.0838 113.71 77.8631 116.482C80.6423 119.254 84.4104 120.814 88.3409 120.819ZM88.66 93.8592C90.4959 93.8636 92.2554 94.593 93.5536 95.888C94.8518 97.183 95.5831 98.9381 95.5875 100.769V111.27C95.5831 113.101 94.8518 114.856 93.5536 116.151C92.2554 117.446 90.4959 118.176 88.66 118.18H88.3409C85.1118 118.176 82.016 116.895 79.7326 114.617C77.4493 112.339 76.1648 109.251 76.1608 106.03V106.009C76.1648 102.788 77.4493 99.6998 79.7326 97.4221C82.016 95.1445 85.1118 93.8632 88.3409 93.8592H88.66Z" fill="black"/>
<g opacity="0.7">
<path opacity="0.7" d="M86.9686 95.3452H90.1265C90.8871 95.3452 91.5037 95.9603 91.5037 96.719V97.2929C91.5037 98.0516 90.8871 98.6667 90.1265 98.6667H86.9686C86.208 98.6667 85.5914 98.0516 85.5914 97.2929V96.719C85.5914 95.9603 86.208 95.3452 86.9686 95.3452Z" fill="white"/>
</g>
<g clip-path="url(#clip1_2635_60086)">
<path d="M36.122 64.9735C32.9432 63.6135 30.2342 61.3531 28.3307 58.4724C26.4272 55.5916 25.4129 52.217 25.4134 48.7668V34.6711C25.4131 31.4994 26.0392 28.3587 27.2559 25.4284C28.4725 22.4981 30.2559 19.8356 32.5042 17.5928C34.7524 15.35 37.4215 13.5709 40.3591 12.3571C43.2967 11.1433 46.4452 10.5186 49.6248 10.5186H66.8194C69.5316 10.5183 72.2173 11.051 74.7231 12.0862C77.2288 13.1213 79.5057 14.6387 81.4235 16.5516C83.3414 18.4645 84.8627 20.7356 85.9007 23.235C86.9387 25.7344 87.4729 28.4133 87.4729 31.1187V43.1463" fill="#211D1B"/>
<path d="M36.122 66.2945C36.3808 66.2944 36.6339 66.2186 36.8499 66.0764C37.0659 65.9342 37.2353 65.7319 37.3372 65.4947C37.4058 65.3355 37.4424 65.1644 37.4447 64.9911C37.447 64.8179 37.4151 64.6458 37.3508 64.4849C37.2864 64.3239 37.191 64.1772 37.0698 64.053C36.9486 63.9289 36.8041 63.8298 36.6445 63.7613C33.7022 62.5047 31.1947 60.4138 29.4332 57.7481C27.6717 55.0825 26.7339 51.9595 26.736 48.7668V34.6711C26.736 22.0795 37.0033 11.8379 49.6248 11.8379H66.8195C71.9449 11.8414 76.8595 13.8739 80.484 17.4889C84.1084 21.104 86.1463 26.0061 86.1503 31.1187V43.1463C86.1503 43.4963 86.2896 43.8318 86.5376 44.0793C86.7857 44.3267 87.1221 44.4657 87.4729 44.4657C87.8237 44.4657 88.1601 44.3267 88.4082 44.0793C88.6562 43.8318 88.7956 43.4963 88.7956 43.1463V31.1187C88.7956 19.0318 78.9367 9.19922 66.8195 9.19922H49.6248C35.545 9.19922 24.0907 20.6249 24.0907 34.6711V48.7668C24.0881 52.4759 25.1775 56.1041 27.2238 59.201C29.2701 62.2979 32.1831 64.7272 35.6012 66.1873C35.7657 66.2581 35.9429 66.2946 36.122 66.2945Z" fill="black"/>
<path d="M49.1123 25.678H74.5174C81.6826 25.678 87.4911 31.472 87.4911 38.6193V71.0178C87.4911 78.1651 81.6826 83.9591 74.5174 83.9591H49.1123C41.9471 83.9591 36.1386 78.1651 36.1386 71.0178V38.6193C36.1386 31.472 41.9471 25.678 49.1123 25.678Z" fill="#9C755A"/>
<g opacity="0.7">
<path opacity="0.7" d="M78.4821 36.0862H81.64C82.4006 36.0862 83.0172 36.7012 83.0172 37.46V38.0339C83.0172 38.7926 82.4006 39.4077 81.64 39.4077H78.4821C77.7215 39.4077 77.1049 38.7926 77.1049 38.0339V37.46C77.1049 36.7012 77.7215 36.0862 78.4821 36.0862Z" fill="white"/>
</g>
<path d="M43.8795 28.4305C43.8795 28.5229 43.853 28.6087 43.853 28.701V71.5885C43.853 72.4909 44.0312 73.3846 44.3775 74.2183C44.7237 75.0521 45.2311 75.8097 45.8709 76.4478C46.5106 77.086 47.2701 77.5922 48.106 77.9376C48.9419 78.2829 49.8377 78.4607 50.7425 78.4607H85.1186C83.924 80.1588 82.3369 81.545 80.4916 82.5018C78.6463 83.4586 76.5971 83.9579 74.5174 83.9575H49.1123C45.6714 83.9575 42.3715 82.594 39.9385 80.167C37.5054 77.7401 36.1386 74.4484 36.1386 71.0162V40.2669C36.139 37.7576 36.8711 35.3027 38.2455 33.2011C39.6199 31.0995 41.5774 29.442 43.8795 28.4305Z" fill="#7D5A41"/>
<path d="M61.3817 70.6287H75.6681C75.6648 78.4178 61.3817 78.9621 61.3817 70.6287Z" fill="white"/>
<path d="M68.3406 77.9957C70.518 77.9957 72.5814 77.3574 74.1504 76.198C75.0357 75.5641 75.7555 74.7273 76.2492 73.7582C76.7429 72.789 76.9961 71.7158 76.9875 70.6287C76.9875 70.2788 76.8482 69.9432 76.6001 69.6958C76.3521 69.4483 76.0156 69.3093 75.6648 69.3093H61.3817C61.0309 69.3093 60.6945 69.4483 60.4464 69.6958C60.1984 69.9432 60.059 70.2788 60.059 70.6287C60.059 72.9491 60.9865 74.8869 62.7391 76.236C64.2155 77.3739 66.2061 77.9957 68.3406 77.9957ZM74.1405 71.948C73.4196 74.191 70.8669 75.3569 68.3406 75.3569C66.7865 75.3569 65.3646 74.9265 64.3511 74.1431C63.6223 73.5986 63.0982 72.8255 62.8631 71.948H74.1405Z" fill="black"/>
<path d="M49.1123 85.2768H74.5174C78.3077 85.2724 81.9415 83.7686 84.6216 81.0951C87.3017 78.4217 88.8094 74.797 88.8138 71.0161V38.6176C88.8094 34.8368 87.3017 31.2121 84.6216 28.5387C81.9415 25.8652 78.3077 24.3614 74.5174 24.357H49.1123C45.322 24.3614 41.6882 25.8652 39.008 28.5387C36.3279 31.2121 34.8203 34.8368 34.8159 38.6176V71.0161C34.8203 74.797 36.3279 78.4217 39.008 81.0951C41.6882 83.7686 45.322 85.2724 49.1123 85.2768ZM74.5174 26.9957C77.6064 26.9992 80.5678 28.2248 82.752 30.4036C84.9363 32.5823 86.1649 35.5364 86.1684 38.6176V71.0161C86.1649 74.0974 84.9363 77.0515 82.752 79.2302C80.5678 81.409 77.6064 82.6346 74.5174 82.6381H49.1123C46.0233 82.6346 43.0618 81.409 40.8776 79.2302C38.6934 77.0515 37.4647 74.0974 37.4612 71.0161V38.6176C37.4647 35.5364 38.6934 32.5823 40.8776 30.4036C43.0618 28.2248 46.0233 26.9992 49.1123 26.9957H74.5174Z" fill="black"/>
<path d="M29.2524 51.9762H43.3603V40.9447C43.3603 38.7013 44.2537 36.5498 45.8441 34.9634C47.4343 33.3771 49.5913 32.4859 51.8403 32.4859H77.467C82.6865 32.4859 87.0745 36.5677 87.2448 41.7709C87.2448 41.8831 87.2448 41.9952 87.2448 42.1007V30.0731C87.2446 29.0447 87.1678 28.0177 87.015 27.0007L74.0264 21.4445H37.1124" fill="#211D1B"/>
<path d="M41.4987 54.3164H35.7384C34.7738 54.3164 33.8486 54.6987 33.1665 55.3791C32.4843 56.0595 32.1011 56.9824 32.1011 57.9446V61.3502C32.1011 62.3125 32.4843 63.2354 33.1665 63.9158C33.8486 64.5962 34.7738 64.9785 35.7384 64.9785H41.4987V54.3164Z" fill="#9C755A"/>
<path d="M52.8554 45.3085H60.8691C63.6084 45.3085 65.8291 47.5236 65.8291 50.2561V56.0695C65.8291 58.802 63.6084 61.0171 60.8691 61.0171H52.8554C50.1161 61.0171 47.8954 58.802 47.8954 56.0695V50.2561C47.8954 47.5236 50.1161 45.3085 52.8554 45.3085Z" fill="white"/>
<path d="M57.3988 51.3115H60.641C62.4325 51.3115 63.8848 52.7602 63.8848 54.5473V57.7813C63.8848 59.5684 62.4325 61.0171 60.641 61.0171H57.3988C55.6072 61.0171 54.1549 59.5684 54.1549 57.7813V54.5473C54.1549 52.7602 55.6072 51.3115 57.3988 51.3115Z" fill="black"/>
<path d="M82.0648 45.3085H82.5311C85.2704 45.3085 87.4911 47.5236 87.4911 50.2561V56.0695C87.4911 58.802 85.2704 61.0171 82.5311 61.0171H82.0648C79.3255 61.0171 77.1048 58.802 77.1048 56.0695V50.2561C77.1048 47.5236 79.3255 45.3085 82.0648 45.3085Z" fill="white"/>
<path d="M51.8981 46.6279H61.3816C61.7324 46.6279 62.0688 46.4889 62.3169 46.2414C62.5649 45.994 62.7043 45.6584 62.7043 45.3085C62.7043 44.9586 62.5649 44.623 62.3169 44.3756C62.0688 44.1281 61.7324 43.9891 61.3816 43.9891H51.9014C51.5506 43.9891 51.2142 44.1281 50.9661 44.3756C50.7181 44.623 50.5787 44.9586 50.5787 45.3085C50.5787 45.6578 50.7176 45.9929 50.965 46.2403C51.2123 46.4876 51.5479 46.627 51.8981 46.6279Z" fill="black"/>
<path d="M80.5603 46.6279H86.7339C87.0847 46.6279 87.4211 46.4889 87.6691 46.2414C87.9172 45.994 88.0565 45.6584 88.0565 45.3085C88.0565 44.9586 87.9172 44.623 87.6691 44.3756C87.4211 44.1281 87.0847 43.9891 86.7339 43.9891H80.5603C80.2095 43.9891 79.8731 44.1281 79.6251 44.3756C79.377 44.623 79.2377 44.9586 79.2377 45.3085C79.2377 45.6584 79.377 45.994 79.6251 46.2414C79.8731 46.4889 80.2095 46.6279 80.5603 46.6279Z" fill="black"/>
<path d="M78.7846 51.3115H82.0268C83.8183 51.3115 85.2707 52.7602 85.2707 54.5473V57.7813C85.2707 59.5684 83.8183 61.0171 82.0268 61.0171H78.7846C76.9931 61.0171 75.5408 59.5684 75.5408 57.7813V54.5473C75.5408 52.7602 76.9931 51.3115 78.7846 51.3115Z" fill="black"/>
<path d="M35.2739 54.323H43.4033C43.7541 54.323 44.0905 54.184 44.3386 53.9366C44.5866 53.6892 44.726 53.3536 44.726 53.0037V40.064C44.7282 38.1612 45.4869 36.3369 46.8358 34.9913C48.1848 33.6458 50.0136 32.8889 51.9213 32.8867H77.6637C82.2054 32.8867 86.0163 36.4985 86.1634 40.9365C86.1634 41.0338 86.1634 41.1327 86.1634 41.2317C86.1634 41.5816 86.3028 41.9172 86.5509 42.1646C86.7989 42.412 87.1353 42.551 87.4861 42.551C87.8369 42.551 88.1733 42.412 88.4214 42.1646C88.6694 41.9172 88.8088 41.5816 88.8088 41.2317C88.8088 41.1047 88.8088 40.9777 88.8088 40.8507C88.7625 39.4316 88.4364 38.0354 87.8492 36.7419C87.262 35.4485 86.4251 34.283 85.3864 33.3122C83.3024 31.3401 80.5379 30.243 77.6653 30.248H51.9229C49.314 30.2511 46.8128 31.2862 44.9679 33.1264C43.1231 34.9666 42.0854 37.4616 42.0823 40.064V51.6843H35.2755C34.9247 51.6843 34.5883 51.8233 34.3402 52.0707C34.0922 52.3182 33.9528 52.6537 33.9528 53.0037C33.9528 53.3533 34.092 53.6886 34.3397 53.936C34.5873 54.1834 34.9234 54.3226 35.2739 54.323Z" fill="black"/>
<path d="M67.4394 65.6728H69.526C70.2399 65.6726 70.9458 65.5225 71.5978 65.2324C72.2497 64.9423 72.8332 64.5187 73.3104 63.989C73.7864 63.4581 74.1452 62.8332 74.3633 62.155C74.5815 61.4768 74.6543 60.7604 74.5769 60.0523L74.5438 59.7555L73.8825 52.6309C73.8506 52.2826 73.6814 51.9611 73.4119 51.7372C73.1425 51.5133 72.795 51.4053 72.4457 51.4369C72.2727 51.4527 72.1044 51.5023 71.9506 51.5829C71.7967 51.6636 71.6603 51.7737 71.5492 51.9069C71.438 52.0402 71.3542 52.1939 71.3027 52.3595C71.2511 52.525 71.2328 52.6991 71.2487 52.8717L71.9101 60.0078C71.9101 60.0078 71.9101 60.0243 71.9101 60.0309L71.9431 60.341C71.9827 60.6804 71.949 61.0244 71.8444 61.3498C71.7397 61.6752 71.5665 61.9745 71.3364 62.2276C71.1082 62.4835 70.828 62.6878 70.5144 62.8268C70.2007 62.9659 69.8609 63.0366 69.5177 63.0341H67.4312C67.0804 63.0341 66.744 63.1731 66.4959 63.4205C66.2479 63.668 66.1085 64.0036 66.1085 64.3535C66.1085 64.5274 66.143 64.6997 66.21 64.8603C66.277 65.0209 66.3751 65.1667 66.4988 65.2893C66.6225 65.4119 66.7693 65.5089 66.9308 65.5748C67.0922 65.6406 67.265 65.6739 67.4394 65.6728Z" fill="black"/>
<path d="M87.4746 44.4657C87.8254 44.4657 88.1618 44.3267 88.4098 44.0793C88.6579 43.8318 88.7972 43.4963 88.7972 43.1463V31.1187C88.7972 19.0318 78.9384 9.19922 66.8211 9.19922C66.4703 9.19922 66.1339 9.33822 65.8859 9.58565C65.6378 9.83308 65.4984 10.1687 65.4984 10.5186C65.4984 10.8685 65.6378 11.2041 65.8859 11.4515C66.1339 11.6989 66.4703 11.8379 66.8211 11.8379C71.9466 11.8414 76.8612 13.8739 80.4856 17.4889C84.11 21.104 86.148 26.0061 86.1519 31.1187V43.1463C86.1519 43.4963 86.2912 43.8318 86.5393 44.0793C86.7873 44.3267 87.1238 44.4657 87.4746 44.4657Z" fill="black"/>
</g>
<path d="M32.6732 99.2802V88.9529C32.6732 83.217 37.0165 78.5629 42.3733 78.5629C47.7317 78.5629 52.0734 83.212 52.0734 88.9529V95.5497C52.0734 99.1219 49.3686 99.2769 46.0305 99.2769C49.3686 99.2769 52.0734 102.173 52.0734 105.747V119.361C52.0734 122.935 49.3686 125.832 46.0305 125.832H40.472C33.7974 125.832 28.3844 120.039 28.3844 112.891V103.86C28.391 101.338 30.3089 99.2802 32.6732 99.2802Z" fill="#9C755A"/>
<path d="M32.6732 99.2802L32.9691 97.0043V108.784C32.9691 115.932 37.0016 118.977 43.6777 118.977H50.6217C51.1179 118.97 51.6111 118.898 52.0883 118.762V119.364C52.0883 122.938 49.3834 125.836 46.0453 125.836H40.4719C33.7974 125.836 28.3844 120.04 28.3844 112.894V103.863C28.391 101.338 30.3089 99.2802 32.6732 99.2802Z" fill="#7D5A41"/>
<path d="M40.472 127.155H46.0305C50.0927 127.155 53.396 123.66 53.396 119.364V105.75C53.403 104.661 53.1866 103.583 52.7601 102.581C52.3336 101.579 51.706 100.674 50.916 99.9234C52.3412 99.2785 53.396 98.0169 53.396 95.553V88.9562C53.396 82.5029 48.4526 77.2469 42.3733 77.2469C36.294 77.2469 31.3439 82.4979 31.3439 88.9562V98.1291C28.8904 98.7574 27.0634 101.098 27.0634 103.867V112.898C27.07 120.758 33.0849 127.155 40.472 127.155ZM46.0305 100.603C48.6328 100.603 50.7507 102.912 50.7507 105.753V119.367C50.7507 122.207 48.6328 124.52 46.0305 124.52H40.472C34.5365 124.52 29.7087 119.305 29.7087 112.898V103.867C29.7087 102.066 31.0314 100.603 32.6666 100.603C33.0174 100.603 33.3538 100.464 33.6018 100.216C33.8499 99.969 33.9892 99.6334 33.9892 99.2835V88.9562C33.9892 83.9575 37.7473 79.8856 42.3667 79.8856C46.9861 79.8856 50.7507 83.9525 50.7507 88.9562V95.553C50.7507 97.5551 49.9571 97.9609 46.0305 97.9609C45.6797 97.9609 45.3432 98.0998 45.0952 98.3473C44.8471 98.5947 44.7078 98.9303 44.7078 99.2802C44.7078 99.454 44.7422 99.6261 44.8091 99.7866C44.876 99.9472 44.974 100.093 45.0975 100.215C45.2211 100.338 45.3676 100.435 45.5289 100.501C45.6901 100.567 45.8628 100.6 46.0371 100.6L46.0305 100.603Z" fill="black"/>
<g opacity="0.7">
<path opacity="0.7" d="M42.0525 82.0015H45.2104C45.971 82.0015 46.5876 82.6166 46.5876 83.3753V83.9492C46.5876 84.708 45.971 85.323 45.2104 85.323H42.0525C41.2919 85.323 40.6753 84.708 40.6753 83.9492V83.3753C40.6753 82.6166 41.2919 82.0015 42.0525 82.0015Z" fill="white"/>
</g>
<path d="M48.7287 119.499H49.0462C52.6275 119.499 56.0621 118.08 58.5946 115.554C61.1272 113.029 62.5501 109.603 62.5506 106.03V106.009C62.5506 104.24 62.2012 102.488 61.5226 100.854C60.8439 99.2199 59.8491 97.735 58.5951 96.4843C57.3411 95.2336 55.8524 94.2414 54.2139 93.5646C52.5755 92.8879 50.8195 92.5396 49.0462 92.5399H48.7287C46.5406 92.5399 44.4422 93.4069 42.8949 94.9502C41.3477 96.4936 40.4786 98.5868 40.4786 100.769V111.27C40.4786 112.351 40.6919 113.421 41.1066 114.419C41.5212 115.418 42.1289 116.325 42.8949 117.089C43.661 117.853 44.5705 118.459 45.5715 118.873C46.5724 119.286 47.6453 119.499 48.7287 119.499Z" fill="#9C755A"/>
<path d="M44.8929 93.4865C44.8929 93.6151 44.8549 93.7372 44.8549 93.8675V107.084C44.8549 108.907 45.5808 110.655 46.8728 111.944C48.1648 113.232 49.9172 113.956 51.7444 113.956H59.9482C58.6985 115.673 57.0592 117.07 55.1643 118.033C53.2695 118.997 51.1729 119.499 49.0461 119.499H48.7287C47.6453 119.499 46.5724 119.286 45.5715 118.873C44.5705 118.459 43.661 117.853 42.8949 117.089C42.1288 116.325 41.5212 115.418 41.1065 114.419C40.6919 113.421 40.4786 112.351 40.4786 111.27V100.769C40.4784 99.2693 40.8896 97.7977 41.6677 96.514C42.4458 95.2303 43.5612 94.1833 44.8929 93.4865Z" fill="#7D5A41"/>
<path d="M48.7287 120.819H49.0461C52.9769 120.814 56.7454 119.255 59.525 116.483C62.3047 113.71 63.8684 109.951 63.8732 106.03V106.009C63.8689 102.088 62.3052 98.3287 59.5255 95.5562C56.7458 92.7837 52.977 91.2244 49.0461 91.2205H48.7287C46.1912 91.2249 43.7588 92.2323 41.9645 94.0221C40.1702 95.812 39.1603 98.2382 39.1559 100.769V111.27C39.1603 113.801 40.1702 116.227 41.9645 118.017C43.7588 119.807 46.1912 120.814 48.7287 120.819ZM49.0461 93.8592C52.2756 93.8627 55.3718 95.1439 57.6555 97.4216C59.9392 99.6993 61.224 102.788 61.2279 106.009V106.03C61.224 109.252 59.9392 112.34 57.6555 114.618C55.3718 116.895 52.2756 118.177 49.0461 118.18H48.7287C46.8927 118.176 45.1332 117.446 43.835 116.151C42.5368 114.856 41.8056 113.101 41.8012 111.27V100.769C41.8056 98.9381 42.5368 97.183 43.835 95.888C45.1332 94.593 46.8927 93.8636 48.7287 93.8592H49.0461Z" fill="black"/>
</g>
<defs>
<clipPath id="clip0_2635_60086">
<rect width="124" height="99.2" fill="white"/>
</clipPath>
<clipPath id="clip1_2635_60086">
<rect width="124" height="164.92" fill="white" transform="matrix(-1 0 0 1 124 0)"/>
</clipPath>
</defs>
</svg>
