<svg width="124" height="100" viewBox="0 0 124 100" fill="none" xmlns="http://www.w3.org/2000/svg">
<g clip-path="url(#clip0_2635_59230)">
<path d="M102.379 62.0545C103.164 62.3331 103.806 62.9113 104.164 63.662C104.521 64.4126 104.565 65.2741 104.286 66.0571L95.523 90.6301C94.3818 93.8277 92.014 96.4422 88.9405 97.8986C85.8669 99.355 82.3393 99.534 79.1335 98.3962C77.6508 97.8699 76.2963 97.0372 75.1586 95.9525C74.0209 94.8679 73.1257 93.5557 72.5317 92.102C71.9376 90.6483 71.6581 89.0858 71.7114 87.5169C71.7647 85.9479 72.1496 84.4079 72.8409 82.9977L85.6807 60.3212C86.2488 59.3437 87.1419 58.5953 88.2052 58.2058C89.2684 57.8163 90.4348 57.8103 91.5021 58.1887" fill="#FFAF77"/>
<path d="M83.4206 100.473C86.3441 100.469 89.195 99.5635 91.5827 97.8806C93.9704 96.1978 95.778 93.8197 96.758 91.0721L105.521 66.499C105.918 65.3865 105.855 64.1623 105.348 63.0955C104.84 62.0288 103.928 61.207 102.813 60.8109C102.649 60.7529 102.475 60.7275 102.302 60.7364C102.128 60.7452 101.958 60.7881 101.801 60.8625C101.644 60.9369 101.504 61.0415 101.387 61.1702C101.271 61.2988 101.181 61.4491 101.123 61.6125C101.005 61.942 101.023 62.3047 101.174 62.6208C101.324 62.9369 101.594 63.1805 101.925 63.2979C102.15 63.3777 102.357 63.501 102.534 63.6606C102.711 63.8202 102.855 64.0132 102.958 64.2283C103.061 64.4435 103.12 64.6767 103.132 64.9146C103.144 65.1526 103.109 65.3906 103.029 65.6151L94.2665 90.1881C93.4665 92.4206 91.9944 94.3518 90.0517 95.7175C88.109 97.0832 85.7906 97.8166 83.414 97.8173C82.103 97.8198 80.8015 97.5966 79.5667 97.1577C78.2601 96.6931 77.0664 95.9588 76.0636 95.0029C75.0608 94.0469 74.2714 92.8907 73.7469 91.6098C73.2264 90.3337 72.9802 88.9628 73.0244 87.5858C73.0685 86.2088 73.402 84.8564 74.0032 83.6161L86.8198 60.9676C87.2342 60.2602 87.8833 59.7195 88.6549 59.4389C89.4265 59.1582 90.2722 59.1553 91.0457 59.4306C91.3761 59.548 91.7398 59.5296 92.0567 59.3796C92.3735 59.2297 92.6177 58.9603 92.7355 58.6307C92.7937 58.4674 92.8191 58.2943 92.8102 58.1212C92.8014 57.9481 92.7584 57.7784 92.6838 57.6219C92.6092 57.4654 92.5044 57.325 92.3754 57.2089C92.2463 57.0928 92.0957 57.0032 91.9319 56.9452C90.574 56.4631 89.0897 56.4702 87.7365 56.9655C86.3833 57.4607 85.2465 58.4127 84.5234 59.6565L71.6786 82.3544L71.6422 82.4237C70.8704 84.0014 70.4408 85.7237 70.3815 87.4782C70.3222 89.2327 70.6347 90.98 71.2983 92.6059C71.9632 94.2311 72.9643 95.6981 74.2364 96.911C75.5085 98.1239 77.0228 99.0554 78.6805 99.6447C80.2013 100.189 81.8047 100.47 83.4206 100.473Z" fill="black"/>
<path d="M92.4594 63.6954H91.1003C89.3464 63.6954 87.6642 63.0004 86.424 61.7632C85.1837 60.5261 84.487 58.8482 84.487 57.0986V44.6471C84.487 43.701 84.8638 42.7937 85.5344 42.1247C86.2051 41.4557 87.1147 41.0799 88.0632 41.0799H88.8898C89.8383 41.0799 90.7479 41.4557 91.4185 42.1247C92.0892 42.7937 92.466 43.701 92.466 44.6471C92.4658 44.1787 92.5581 43.7149 92.7376 43.2821C92.9171 42.8493 93.1804 42.4561 93.5123 42.1248C93.8443 41.7935 94.2384 41.5308 94.6722 41.3515C95.106 41.1722 95.5709 41.0799 96.0405 41.0799H96.5712C97.5197 41.0799 98.4293 41.4557 99.0999 42.1247C99.7706 42.7937 100.147 43.701 100.147 44.6471V46.9148C100.147 46.0295 100.5 45.1804 101.127 44.5544C101.755 43.9285 102.606 43.5768 103.494 43.5768H104.233C104.632 43.5766 105.027 43.6548 105.396 43.8071C105.765 43.9593 106.1 44.1825 106.383 44.464C106.665 44.7455 106.889 45.0798 107.042 45.4476C107.195 45.8155 107.273 46.2098 107.273 46.608V58.7032C107.273 61.53 105.884 63.6954 103.479 63.6954" fill="#FFAF77"/>
<path d="M91.1069 65.0148H92.4594C92.8102 65.0148 93.1466 64.8758 93.3946 64.6283C93.6427 64.3809 93.782 64.0453 93.782 63.6954C93.782 63.3455 93.6427 63.0099 93.3946 62.7625C93.1466 62.515 92.8102 62.376 92.4594 62.376H91.1003C89.6972 62.376 88.3514 61.82 87.3593 60.8303C86.3671 59.8406 85.8097 58.4983 85.8097 57.0986V44.6471C85.8105 44.0512 86.0482 43.48 86.4706 43.0586C86.8931 42.6373 87.4658 42.4002 88.0632 42.3993H88.8898C89.4872 42.4002 90.0599 42.6373 90.4823 43.0586C90.9047 43.48 91.1424 44.0512 91.1433 44.6471C91.1433 44.9971 91.2827 45.3326 91.5307 45.5801C91.7788 45.8275 92.1152 45.9665 92.466 45.9665C92.8168 45.9665 93.1532 45.8275 93.4012 45.5801C93.6493 45.3326 93.7886 44.9971 93.7886 44.6471C93.7891 44.0514 94.0264 43.4801 94.4486 43.0587C94.8707 42.6373 95.4432 42.4002 96.0405 42.3993H96.5712C97.1686 42.4002 97.7413 42.6373 98.1637 43.0586C98.5861 43.48 98.8238 44.0512 98.8247 44.6471V46.9148C98.8247 47.2647 98.964 47.6003 99.2121 47.8477C99.4601 48.0951 99.7966 48.2342 100.147 48.2342C100.498 48.2342 100.835 48.0951 101.083 47.8477C101.331 47.6003 101.47 47.2647 101.47 46.9148C101.47 46.3796 101.684 45.8664 102.063 45.4879C102.443 45.1094 102.957 44.8966 103.494 44.8962H104.233C104.688 44.8966 105.124 45.077 105.446 45.3979C105.768 45.7188 105.95 46.154 105.951 46.608V58.7033C105.951 60.397 105.302 62.376 103.471 62.376C103.12 62.376 102.783 62.515 102.535 62.7625C102.287 63.0099 102.148 63.3455 102.148 63.6954C102.148 64.0453 102.287 64.3809 102.535 64.6283C102.783 64.8758 103.12 65.0148 103.471 65.0148C106.485 65.0148 108.596 62.4189 108.596 58.7033V46.6097C108.595 45.456 108.134 44.3499 107.316 43.5342C106.498 42.7186 105.389 42.26 104.233 42.2591H103.494C102.668 42.2581 101.856 42.4767 101.143 42.8924C100.787 41.971 100.159 41.1785 99.3436 40.6193C98.5276 40.06 97.5612 39.7601 96.5712 39.7589H96.0405C95.3699 39.7587 94.7064 39.8962 94.0915 40.1629C93.4765 40.4296 92.9232 40.8198 92.466 41.3092C92.0084 40.8199 91.4548 40.4297 90.8395 40.163C90.2243 39.8963 89.5606 39.7588 88.8898 39.7589H88.0632C86.7643 39.7602 85.519 40.2755 84.6006 41.1916C83.6822 42.1077 83.1656 43.3499 83.1643 44.6455V57.0986C83.167 59.1984 84.0048 61.2114 85.494 62.6956C86.9831 64.1798 89.0018 65.0139 91.1069 65.0148Z" fill="black"/>
<path d="M92.4594 48.9961C92.8102 48.9961 93.1466 48.8571 93.3946 48.6096C93.6427 48.3622 93.782 48.0266 93.782 47.6767V44.6488C93.782 44.2989 93.6427 43.9633 93.3946 43.7158C93.1466 43.4684 92.8102 43.3294 92.4594 43.3294C92.1086 43.3294 91.7721 43.4684 91.5241 43.7158C91.276 43.9633 91.1367 44.2989 91.1367 44.6488V47.6767C91.1367 48.0266 91.276 48.3622 91.5241 48.6096C91.7721 48.8571 92.1086 48.9961 92.4594 48.9961Z" fill="black"/>
<path d="M100.147 48.9961C100.498 48.9961 100.835 48.8571 101.083 48.6097C101.331 48.3622 101.47 48.0267 101.47 47.6767V46.9165C101.47 46.5666 101.331 46.231 101.083 45.9835C100.835 45.7361 100.498 45.5971 100.147 45.5971C99.7966 45.5971 99.4601 45.7361 99.2121 45.9835C98.964 46.231 98.8247 46.5666 98.8247 46.9165V47.6767C98.8247 48.0267 98.964 48.3622 99.2121 48.6097C99.4601 48.8571 99.7966 48.9961 100.147 48.9961Z" fill="black"/>
<path d="M100.147 47.6768V48.9846C100.147 49.4514 100.239 49.9136 100.418 50.3449C100.597 50.7762 100.86 51.1681 101.19 51.4981C101.521 51.8282 101.914 52.09 102.347 52.2685C102.779 52.447 103.242 52.5388 103.71 52.5386C104.655 52.5386 105.561 52.1642 106.23 51.4977C106.898 50.8312 107.273 49.9272 107.273 48.9846V47.6768" fill="#FFAF77"/>
<path d="M103.702 53.8596C104.997 53.8578 106.239 53.3438 107.155 52.4303C108.071 51.5167 108.586 50.2782 108.588 48.9862V47.6767C108.588 47.3268 108.448 46.9912 108.2 46.7438C107.952 46.4964 107.616 46.3574 107.265 46.3574C106.914 46.3574 106.578 46.4964 106.33 46.7438C106.082 46.9912 105.942 47.3268 105.942 47.6767V48.9862C105.941 49.5786 105.705 50.1465 105.285 50.5654C104.865 50.9843 104.296 51.22 103.702 51.2209C103.108 51.2204 102.538 50.9848 102.118 50.5659C101.698 50.1469 101.462 49.5787 101.462 48.9862V47.6767C101.462 47.3268 101.322 46.9912 101.074 46.7438C100.826 46.4964 100.49 46.3574 100.139 46.3574C99.7883 46.3574 99.4519 46.4964 99.2038 46.7438C98.9558 46.9912 98.8164 47.3268 98.8164 47.6767V48.9862C98.8177 50.2783 99.3329 51.5171 100.249 52.4308C101.165 53.3444 102.407 53.8583 103.702 53.8596Z" fill="black"/>
<path d="M84.4936 47.6768V48.9846C84.4936 50.9488 86.3817 52.5386 88.5459 52.5386C90.7101 52.5386 92.466 50.9488 92.466 48.9846V47.6768" fill="#FFAF77"/>
<path d="M88.5459 53.8596C91.4359 53.8596 93.7886 51.6727 93.7886 48.9862V47.6767C93.7886 47.3268 93.6493 46.9912 93.4012 46.7438C93.1532 46.4964 92.8168 46.3574 92.466 46.3574C92.1152 46.3574 91.7788 46.4964 91.5307 46.7438C91.2827 46.9912 91.1433 47.3268 91.1433 47.6767V48.9862C91.1433 50.2181 89.986 51.2209 88.5459 51.2209C87.1059 51.2209 85.8163 50.1753 85.8163 48.9862V47.6767C85.8163 47.3268 85.6769 46.9912 85.4289 46.7438C85.1808 46.4964 84.8444 46.3574 84.4936 46.3574C84.1428 46.3574 83.8064 46.4964 83.5583 46.7438C83.3103 46.9912 83.1709 47.3268 83.1709 47.6767V48.9862C83.1709 51.6266 85.6327 53.8596 88.5459 53.8596Z" fill="black"/>
<path d="M92.4494 47.6768V48.9846C92.4494 50.9488 94.1739 52.5386 96.2984 52.5386C98.4246 52.5386 100.147 50.9488 100.147 48.9846V47.6768" fill="#FFAF77"/>
<path d="M96.2984 53.8596C99.1504 53.8596 101.47 51.6727 101.47 48.9862V47.6767C101.47 47.3268 101.331 46.9912 101.083 46.7438C100.835 46.4964 100.498 46.3574 100.147 46.3574C99.7966 46.3574 99.4601 46.4964 99.2121 46.7438C98.964 46.9912 98.8247 47.3268 98.8247 47.6767V48.9862C98.8247 50.2181 97.6905 51.2209 96.2984 51.2209C94.9063 51.2209 93.7721 50.2181 93.7721 48.9862V47.6767C93.7721 47.3268 93.6327 46.9912 93.3847 46.7438C93.1366 46.4964 92.8002 46.3574 92.4494 46.3574C92.0986 46.3574 91.7622 46.4964 91.5142 46.7438C91.2661 46.9912 91.1268 47.3268 91.1268 47.6767V48.9862C91.1268 51.6727 93.4514 53.8596 96.2984 53.8596Z" fill="black"/>
<path d="M92.4594 63.6954H88.7724C87.0185 63.6954 85.3363 63.0004 84.0961 61.7633C82.8559 60.5261 82.1591 58.8482 82.1591 57.0986V54.8607C82.1591 53.9859 82.5075 53.1469 83.1276 52.5283C83.7477 51.9098 84.5888 51.5623 85.4658 51.5623H90.0422C90.6831 51.5627 91.2977 51.8168 91.7509 52.2689C92.2041 52.721 92.4589 53.334 92.4594 53.9734C92.4589 54.6127 92.2041 55.2257 91.7509 55.6778C91.2977 56.1299 90.6831 56.3841 90.0422 56.3845H87.3092" fill="#FFAF77"/>
<path d="M88.779 65.0148H92.4594C92.8102 65.0148 93.1466 64.8758 93.3946 64.6284C93.6427 64.3809 93.782 64.0454 93.782 63.6954C93.782 63.3455 93.6427 63.0099 93.3946 62.7625C93.1466 62.5151 92.8102 62.3761 92.4594 62.3761H88.7724C87.3692 62.3761 86.0236 61.8201 85.0314 60.8304C84.0392 59.8406 83.4818 58.4983 83.4818 57.0986V54.8607C83.4818 54.3358 83.6908 53.8324 84.0629 53.4613C84.4349 53.0901 84.9396 52.8816 85.4658 52.8816H90.0422C90.3323 52.8821 90.6105 52.9972 90.8156 53.2019C91.0208 53.4065 91.1363 53.684 91.1367 53.9734C91.1367 54.2631 91.0214 54.541 90.8162 54.746C90.611 54.951 90.3326 55.0664 90.0422 55.0668H87.3092C86.9584 55.0668 86.622 55.2058 86.374 55.4533C86.1259 55.7007 85.9866 56.0363 85.9866 56.3862C85.9866 56.7361 86.1259 57.0717 86.374 57.3191C86.622 57.5665 86.9584 57.7056 87.3092 57.7056H90.0422C91.0337 57.7042 91.9841 57.3108 92.6852 56.6115C93.3863 55.9121 93.7807 54.964 93.782 53.9751C93.7812 52.9858 93.3869 52.0372 92.6858 51.3376C91.9847 50.6379 91.0339 50.2442 90.0422 50.2429H85.4658C84.238 50.2429 83.0605 50.7294 82.1923 51.5954C81.3242 52.4614 80.8364 53.636 80.8364 54.8607V57.0986C80.839 59.1985 81.6769 61.2115 83.1661 62.6956C84.6552 64.1798 86.6739 65.0139 88.779 65.0148Z" fill="black"/>
<path d="M72.4821 83.9838H41.788C40.9277 83.9838 40.1026 84.3247 39.4943 84.9316C38.8859 85.5384 38.5442 86.3614 38.5442 87.2196V108.847C38.5442 109.705 38.8859 110.528 39.4943 111.135C40.1026 111.742 40.9277 112.083 41.788 112.083H82.212C83.0723 112.083 83.8974 111.742 84.5057 111.135C85.1141 110.528 85.4558 109.705 85.4558 108.847V96.9251C85.4558 93.4929 84.089 90.2012 81.6559 87.7742C79.2229 85.3473 75.923 83.9838 72.4821 83.9838Z" fill="#37F9FF"/>
<path d="M41.788 113.404H82.2087C83.419 113.403 84.5793 112.922 85.4351 112.069C86.2909 111.215 86.7722 110.058 86.7735 108.85V96.9235C86.7692 93.1431 85.2617 89.5188 82.5819 86.8457C79.9021 84.1725 76.2687 82.6689 72.4788 82.6645H41.783C40.5723 82.6658 39.4116 83.1461 38.5555 84.0001C37.6994 84.8541 37.2178 86.0119 37.2165 87.2196V108.85C37.2183 110.059 37.7007 111.217 38.5578 112.071C39.4149 112.924 40.5767 113.404 41.788 113.404ZM72.4838 85.2999C75.5723 85.3034 78.5334 86.5288 80.7173 88.7073C82.9012 90.8857 84.1297 93.8394 84.1332 96.9202V108.847C84.1323 109.355 83.9298 109.841 83.57 110.2C83.2102 110.559 82.7225 110.761 82.2137 110.762H41.788C41.2789 110.761 40.7907 110.56 40.4306 110.201C40.0704 109.842 39.8677 109.355 39.8668 108.847V87.2196C39.8673 86.7115 40.0698 86.2243 40.43 85.865C40.7902 85.5057 41.2786 85.3036 41.788 85.3032L72.4838 85.2999Z" fill="black"/>
<path d="M32.2929 30.6504H87.6366V59.6714H32.2929V30.6504Z" fill="black"/>
<g clip-path="url(#clip1_2635_59230)">
<path d="M72.4821 83.9838H41.788C40.9277 83.9838 40.1026 84.3247 39.4943 84.9316C38.8859 85.5384 38.5442 86.3614 38.5442 87.2196V108.847C38.5442 109.705 38.8859 110.528 39.4943 111.135C40.1026 111.742 40.9277 112.083 41.788 112.083H82.212C83.0723 112.083 83.8974 111.742 84.5057 111.135C85.1141 110.528 85.4558 109.705 85.4558 108.847V96.9251C85.4558 93.4929 84.089 90.2012 81.6559 87.7742C79.2229 85.3473 75.923 83.9838 72.4821 83.9838Z" fill="white"/>
<path d="M41.7864 113.406H82.2037C83.4144 113.404 84.5752 112.924 85.4313 112.07C86.2874 111.216 86.7689 110.058 86.7702 108.85V96.9251C86.7659 93.1443 85.2582 89.5196 82.5781 86.8462C79.898 84.1727 76.2641 82.6689 72.4738 82.6645H41.7781C40.5675 82.6658 39.4069 83.1462 38.5511 84.0002C37.6953 84.8542 37.2141 86.012 37.2132 87.2196V108.85C37.2136 109.449 37.3323 110.042 37.5624 110.595C37.7924 111.148 38.1294 111.65 38.554 112.073C38.9787 112.496 39.4827 112.831 40.0373 113.06C40.5919 113.289 41.1862 113.406 41.7864 113.406ZM72.4821 85.3032C75.5711 85.3067 78.5325 86.5323 80.7168 88.711C82.901 90.8898 84.1297 93.8439 84.1332 96.9251V108.85C84.133 109.103 84.0828 109.353 83.9857 109.586C83.8886 109.818 83.7463 110.03 83.5671 110.208C83.3878 110.386 83.1752 110.527 82.9412 110.623C82.7073 110.719 82.4567 110.768 82.2037 110.767H41.7781C41.269 110.766 40.781 110.564 40.4211 110.205C40.0613 109.845 39.859 109.358 39.8585 108.85V87.2196C39.859 86.7117 40.0613 86.2248 40.4211 85.8656C40.781 85.5063 41.269 85.3041 41.7781 85.3032H72.4821Z" fill="black"/>
<path d="M67.17 83.9838L76.2484 103.303H66.345L67.9718 112.086H66.5566L59.2852 98.8118H64.2535L57.1392 83.9838H67.17Z" fill="#B80031"/>
<path d="M41.7864 113.406H82.2037C83.4144 113.404 84.5752 112.924 85.4313 112.07C86.2874 111.216 86.7689 110.058 86.7702 108.85V96.9251C86.7659 93.1443 85.2582 89.5196 82.5781 86.8462C79.898 84.1727 76.2641 82.6689 72.4738 82.6645H41.7781C40.5675 82.6658 39.4069 83.1462 38.5511 84.0002C37.6953 84.8542 37.2141 86.012 37.2132 87.2196V108.85C37.2136 109.449 37.3323 110.042 37.5624 110.595C37.7924 111.148 38.1294 111.65 38.554 112.073C38.9787 112.496 39.4827 112.831 40.0373 113.06C40.5919 113.289 41.1862 113.406 41.7864 113.406ZM72.4821 85.3032C75.5711 85.3067 78.5325 86.5323 80.7168 88.711C82.901 90.8898 84.1297 93.8439 84.1332 96.9251V108.85C84.133 109.103 84.0828 109.353 83.9857 109.586C83.8886 109.818 83.7463 110.03 83.5671 110.208C83.3878 110.386 83.1752 110.527 82.9412 110.623C82.7073 110.719 82.4567 110.768 82.2037 110.767H41.7781C41.269 110.766 40.781 110.564 40.4211 110.205C40.0613 109.845 39.859 109.358 39.8585 108.85V87.2196C39.859 86.7117 40.0613 86.2248 40.4211 85.8656C40.781 85.5063 41.269 85.3041 41.7781 85.3032H72.4821Z" fill="black"/>
</g>
<path d="M32.2946 60.9907H87.6382C87.989 60.9907 88.3255 60.8517 88.5735 60.6043C88.8215 60.3568 88.9609 60.0212 88.9609 59.6713V30.6454C88.9609 30.2955 88.8215 29.9599 88.5735 29.7125C88.3255 29.4651 87.989 29.326 87.6382 29.326H32.2946C31.9438 29.326 31.6073 29.4651 31.3593 29.7125C31.1112 29.9599 30.9719 30.2955 30.9719 30.6454V59.6713C30.9719 60.0212 31.1112 60.3568 31.3593 60.6043C31.6073 60.8517 31.9438 60.9907 32.2946 60.9907ZM86.3156 58.352H33.6172V31.9648H86.3156V58.352Z" fill="black"/>
<path d="M74.7026 30.6504H49.2974C45.8566 30.6504 42.5567 32.0138 40.1236 34.4408C37.6906 36.8678 36.3237 40.1594 36.3237 43.5917V62.5443C36.3237 69.1052 38.9366 75.3974 43.5875 80.0367C48.2384 84.676 54.5464 87.2823 61.1237 87.2823H74.7026C78.1434 87.2823 81.4433 85.9188 83.8764 83.4919C86.3094 81.0649 87.6763 77.7732 87.6763 74.341V43.5917C87.6763 40.1594 86.3094 36.8678 83.8764 34.4408C81.4433 32.0138 78.1434 30.6504 74.7026 30.6504Z" fill="#FFAF77"/>
<path d="M44.0663 31.7553C44.0663 31.846 44.0382 31.9318 44.0382 32.0241V63.6426C44.0382 68.454 45.9543 73.0682 49.3649 76.4704C52.7756 79.8725 57.4014 81.7838 62.2249 81.7838H85.3054C84.1109 83.4822 82.5239 84.8686 80.6786 85.8256C78.8333 86.7827 76.784 87.2823 74.7042 87.2822H61.1254C54.548 87.2822 48.24 84.6759 43.5891 80.0366C38.9382 75.3974 36.3254 69.1052 36.3254 62.5442V43.5916C36.3258 41.0824 37.0579 38.6275 38.4323 36.5259C39.8067 34.4243 41.7642 32.7668 44.0663 31.7553Z" fill="#F08960"/>
<path d="M86.924 39.2872H37.0727C37.9645 36.7645 39.6186 34.5797 41.8071 33.0338C43.9956 31.4879 46.6108 30.6569 49.2925 30.6553H74.6992C77.3818 30.6559 79.9981 31.4864 82.1876 33.0324C84.377 34.5784 86.0319 36.7637 86.924 39.2872Z" fill="#F08960"/>
<path d="M61.1254 88.5983H74.7042C78.4942 88.5935 82.1276 87.0895 84.8074 84.4161C87.4871 81.7427 88.9945 78.1182 88.9989 74.3377V43.5917C88.9945 39.8112 87.4871 36.1867 84.8074 33.5133C82.1276 30.8399 78.4942 29.3359 74.7042 29.3311H49.2974C45.5073 29.3354 41.8737 30.8393 39.1938 33.5128C36.5139 36.1863 35.0067 39.811 35.0027 43.5917V62.541C35.0027 76.9121 46.7199 88.5983 61.1254 88.5983ZM74.7042 31.9665C77.793 31.97 80.7543 33.1956 82.9383 35.3744C85.1223 37.5532 86.3505 40.5073 86.3536 43.5884V74.3377C86.3505 77.4188 85.1223 80.3729 82.9383 82.5517C80.7543 84.7305 77.793 85.9561 74.7042 85.9596H61.1254C48.1798 85.9596 37.648 75.4542 37.648 62.541V43.5917C37.6511 40.5106 38.8794 37.5565 41.0634 35.3777C43.2473 33.1989 46.2086 31.9733 49.2974 31.9698L74.7042 31.9665Z" fill="black"/>
<path d="M41.6905 54.3428H35.9302C34.9656 54.3428 34.0404 54.725 33.3583 55.4055C32.6761 56.0859 32.2929 57.0087 32.2929 57.971V61.3733C32.2929 62.3356 32.6761 63.2584 33.3583 63.9389C34.0404 64.6193 34.9656 65.0016 35.9302 65.0016H41.6905V54.3428Z" fill="#F08960"/>
<path d="M45.6766 31.1699H36.9917V57.5867C36.9917 58.4449 37.3334 59.2679 37.9418 59.8748C38.5501 60.4816 39.3752 60.8225 40.2355 60.8225H42.4328C43.2931 60.8225 44.1182 60.4816 44.7265 59.8748C45.3349 59.2679 45.6766 58.4449 45.6766 57.5867V31.1699Z" fill="black"/>
<path d="M87.6366 30.6504H33.8537V36.2824H81.9938C83.4903 36.2824 84.9256 35.6894 85.9838 34.6338C87.0421 33.5782 87.6366 32.1465 87.6366 30.6537V30.6454V30.6504Z" fill="black"/>
<path d="M33.852 31.1715H45.6766V54.3411H33.852V31.1715Z" fill="black"/>
<path d="M46.2801 24.0206H65.2058V20.7865H80.476C82.3755 20.7865 84.1973 21.5392 85.5405 22.879C86.8836 24.2189 87.6382 26.036 87.6382 27.9308C87.6382 28.3557 87.5543 28.7764 87.3913 29.1689C87.2282 29.5613 86.9893 29.9179 86.688 30.2183C86.3868 30.5186 86.0292 30.7568 85.6356 30.9192C85.2421 31.0816 84.8203 31.1651 84.3944 31.1649H46.2801V24.0206Z" fill="black"/>
<path d="M46.2801 32.4843H84.3944C85.605 32.4834 86.7657 32.0035 87.6219 31.1498C88.478 30.2961 88.9596 29.1384 88.9609 27.9309C88.9583 25.687 88.0635 23.5357 86.4728 21.949C84.8822 20.3623 82.7255 19.4698 80.476 19.4672H65.2058C64.855 19.4672 64.5186 19.6062 64.2705 19.8536C64.0225 20.101 63.8832 20.4366 63.8832 20.7865V22.7013H46.2801C45.9293 22.7013 45.5929 22.8403 45.3448 23.0877C45.0968 23.3351 44.9574 23.6707 44.9574 24.0206V31.1649C44.9574 31.5149 45.0968 31.8504 45.3448 32.0979C45.5929 32.3453 45.9293 32.4843 46.2801 32.4843ZM80.476 22.1059C82.0242 22.1076 83.5085 22.7219 84.6033 23.8139C85.698 24.9059 86.3138 26.3865 86.3156 27.9309C86.3147 28.4387 86.112 28.9255 85.7518 29.2844C85.3917 29.6433 84.9035 29.8452 84.3944 29.8456H47.6028V25.34H65.2058C65.5566 25.34 65.893 25.201 66.1411 24.9536C66.3891 24.7061 66.5285 24.3705 66.5285 24.0206V22.1059H80.476Z" fill="black"/>
<path d="M32.3276 31.1666H46.2801V26.0442H37.4513C36.092 26.0442 34.7883 26.5828 33.8271 27.5416C32.8659 28.5004 32.326 29.8008 32.326 31.1567V31.1682L32.3276 31.1666Z" fill="black"/>
<path d="M32.3276 32.4843H46.2801C46.6309 32.4843 46.9673 32.3453 47.2154 32.0979C47.4634 31.8504 47.6028 31.5148 47.6028 31.1649V26.0425C47.6028 25.6926 47.4634 25.357 47.2154 25.1096C46.9673 24.8622 46.6309 24.7231 46.2801 24.7231H37.453C35.7435 24.7253 34.1047 25.4037 32.8959 26.6094C31.6872 27.8152 31.0072 29.4499 31.005 31.155C31.005 31.5059 31.144 31.8425 31.3918 32.0915C31.6395 32.3405 31.9759 32.4817 32.3276 32.4843ZM44.9574 29.8456H33.8801C34.1486 29.1175 34.6344 28.489 35.2721 28.0449C35.9098 27.6008 36.6686 27.3624 37.4464 27.3619H44.9508L44.9574 29.8456Z" fill="black"/>
<g opacity="0.7">
<path opacity="0.7" d="M79.2823 39.2823H82.4402C83.2008 39.2823 83.8174 39.8974 83.8174 40.6561V41.23C83.8174 41.9887 83.2008 42.6038 82.4402 42.6038H79.2823C78.5217 42.6038 77.9051 41.9887 77.9051 41.23V40.6561C77.9051 39.8974 78.5217 39.2823 79.2823 39.2823Z" fill="white"/>
</g>
<path d="M70.8255 68.6068H72.2573C74.1447 68.6068 75.6747 70.133 75.6747 72.0156V76.7423C75.6747 78.6249 74.1447 80.1512 72.2573 80.1512H70.8255C68.9381 80.1512 67.4081 78.6249 67.4081 76.7423V72.0156C67.4081 70.133 68.9381 68.6068 70.8255 68.6068Z" fill="black"/>
<path d="M53.4688 64.9999H60.6277C62.0565 64.9999 63.4268 64.4338 64.4372 63.4262C65.4476 62.4186 66.0155 61.052 66.016 59.6268V53.0465C66.016 51.1758 65.2709 49.3816 63.9448 48.0588C62.6187 46.736 60.8201 45.9929 58.9446 45.9929H55.1535C53.2781 45.9929 51.4795 46.736 50.1534 48.0588C48.8273 49.3816 48.0822 51.1758 48.0822 53.0465V59.6268C48.0822 61.0518 48.6498 62.4185 49.6599 63.4261C50.6701 64.4338 52.0402 64.9999 53.4688 64.9999Z" fill="white"/>
<path d="M58.7413 50.3484H61.9835C63.775 50.3484 65.2273 51.7971 65.2273 53.5842V56.8183C65.2273 58.6053 63.775 60.054 61.9835 60.054H58.7413C56.9498 60.054 55.4974 58.6053 55.4974 56.8183V53.5842C55.4974 51.7971 56.9498 50.3484 58.7413 50.3484Z" fill="black"/>
<path d="M66.016 50.9026C66.3668 50.9026 66.7032 50.7636 66.9512 50.5162C67.1993 50.2687 67.3386 49.9332 67.3386 49.5832C67.3386 48.0627 66.9352 46.9231 66.1036 46.0985C64.6387 44.6439 62.3654 44.6587 59.7333 44.6719H55.1519C54.8011 44.6719 54.4647 44.8109 54.2166 45.0583C53.9686 45.3058 53.8292 45.6414 53.8292 45.9913C53.8292 46.3412 53.9686 46.6768 54.2166 46.9242C54.4647 47.1716 54.8011 47.3106 55.1519 47.3106H59.7482C61.7041 47.3007 63.5508 47.2892 64.2386 47.9703C64.3511 48.0825 64.6933 48.4222 64.6933 49.5849C64.6937 49.9345 64.8333 50.2697 65.0813 50.5167C65.3293 50.7638 65.6655 50.9026 66.016 50.9026Z" fill="black"/>
<path d="M84.4324 45.9945H83.7711C82.9193 45.9945 82.0759 46.1619 81.289 46.487C80.5021 46.8121 79.7871 47.2887 79.1848 47.8895C78.5825 48.4902 78.1047 49.2035 77.7788 49.9884C77.4528 50.7734 77.2851 51.6147 77.2851 52.4643V59.8247C77.2851 61.1977 77.8319 62.5144 78.8051 63.4853C79.7784 64.4561 81.0985 65.0015 82.4749 65.0015C83.8513 65.0015 85.1714 64.4561 86.1446 63.4853C87.1179 62.5144 87.6647 61.1977 87.6647 59.8247V49.2286C87.6647 48.3704 87.3229 47.5474 86.7146 46.9406C86.1063 46.3338 85.2812 45.9929 84.4209 45.9929L84.4324 45.9945Z" fill="white"/>
<path d="M78.4738 50.3484H81.716C83.5075 50.3484 84.9598 51.7971 84.9598 53.5842V56.8183C84.9598 58.6053 83.5075 60.054 81.716 60.054H78.4738C76.6823 60.054 75.23 58.6053 75.23 56.8183V53.5842C75.23 51.7971 76.6823 50.3484 78.4738 50.3484Z" fill="black"/>
<path d="M77.29 50.3204C77.6408 50.3204 77.9772 50.1814 78.2253 49.9339C78.4733 49.6865 78.6127 49.3509 78.6127 49.001C78.6127 48.5607 78.6706 47.9818 78.9434 47.7146C79.4394 47.2347 80.967 47.2661 82.4484 47.2957C82.8766 47.2957 83.3181 47.3122 83.7711 47.3122H84.4324C84.7832 47.3122 85.1196 47.1732 85.3677 46.9258C85.6157 46.6784 85.7551 46.3428 85.7551 45.9929C85.7551 45.643 85.6157 45.3074 85.3677 45.0599C85.1196 44.8125 84.7832 44.6735 84.4324 44.6735H83.7711C83.3379 44.6735 82.9097 44.6653 82.4947 44.657C80.3735 44.6141 78.3614 44.5746 77.085 45.8296C76.3294 46.5684 75.9607 47.6058 75.9607 49.001C75.9607 49.1748 75.9952 49.3469 76.0621 49.5074C76.1289 49.6679 76.227 49.8137 76.3505 49.9363C76.474 50.0589 76.6206 50.1559 76.7818 50.2218C76.9431 50.2878 77.1158 50.3212 77.29 50.3204Z" fill="black"/>
<path d="M22.9532 62.0545C22.1683 62.3331 21.5266 62.9113 21.1691 63.662C20.8116 64.4126 20.7676 65.2741 21.0469 66.0571L29.8096 90.6301C30.9505 93.8276 33.3179 96.4421 36.3912 97.8985C39.4645 99.3549 42.9918 99.5339 46.1974 98.3962C47.6801 97.87 49.0347 97.0372 50.1724 95.9525C51.3101 94.8679 52.2052 93.5557 52.7993 92.102C53.3933 90.6483 53.6729 89.0858 53.6196 87.5169C53.5663 85.9479 53.1814 84.4079 52.49 82.9977L39.6536 60.3146C39.0855 59.3371 38.1924 58.5887 37.1291 58.1992C36.0658 57.8098 34.8994 57.8037 33.8322 58.1821" fill="#FFAF77"/>
<path d="M41.917 100.473C43.5299 100.469 45.1303 100.19 46.6488 99.6479C48.3063 99.0585 49.8205 98.1269 51.0925 96.914C52.3646 95.7011 53.3658 94.2342 54.0309 92.6092C54.6948 90.9832 55.0071 89.2359 54.9476 87.4813C54.888 85.7267 54.4579 84.0044 53.6854 82.427C53.6738 82.4039 53.6623 82.3808 53.649 82.3577L40.8125 59.673C40.0904 58.4257 38.9531 57.4703 37.5982 56.9725C36.2432 56.4748 34.7563 56.4663 33.3957 56.9485C33.0653 57.066 32.7952 57.3095 32.6449 57.6256C32.4945 57.9417 32.4761 58.3044 32.5938 58.634C32.7116 58.9636 32.9558 59.233 33.2726 59.3829C33.5895 59.5329 33.9531 59.5513 34.2835 59.4339C35.0595 59.159 35.9074 59.1635 36.6804 59.4466C37.4534 59.7297 38.1028 60.2736 38.5161 60.9841L51.3261 83.6194C51.927 84.8598 52.2602 86.2123 52.3041 87.5892C52.3479 88.9662 52.1015 90.3371 51.5807 91.6131C51.0563 92.894 50.2668 94.0502 49.264 95.0062C48.2612 95.9621 47.0676 96.6964 45.761 97.161C42.8856 98.1777 39.7234 98.0155 36.9677 96.7099C34.212 95.4044 32.0879 93.0619 31.0612 90.1964L22.2985 65.6233C22.2185 65.3988 22.1836 65.1608 22.1958 64.9229C22.208 64.6849 22.267 64.4517 22.3696 64.2366C22.4722 64.0214 22.6162 63.8285 22.7935 63.6689C22.9708 63.5092 23.1779 63.386 23.4029 63.3062C23.7333 63.1887 24.0034 62.9451 24.1538 62.6291C24.3042 62.313 24.3225 61.9503 24.2048 61.6207C24.1467 61.4574 24.0568 61.3071 23.9404 61.1784C23.824 61.0497 23.6833 60.9452 23.5264 60.8707C23.3695 60.7963 23.1994 60.7534 23.0259 60.7446C22.8524 60.7357 22.6788 60.7611 22.5151 60.8192C21.3998 61.2153 20.488 62.0371 19.9801 63.1038C19.4722 64.1705 19.4099 65.3948 19.8069 66.5073L28.5696 91.0804C29.5523 93.8274 31.3623 96.2043 33.7516 97.8857C36.141 99.567 38.9929 100.471 41.917 100.473Z" fill="black"/>
<path d="M32.8716 63.6954H34.229C35.9829 63.6954 37.665 63.0004 38.9053 61.7632C40.1455 60.5261 40.8423 58.8482 40.8423 57.0986V44.6471C40.8425 44.1786 40.7502 43.7146 40.5705 43.2817C40.3909 42.8488 40.1275 42.4555 39.7953 42.1242C39.4632 41.7929 39.0689 41.5302 38.6349 41.351C38.2009 41.1718 37.7358 41.0797 37.2661 41.0799H36.4395C35.9698 41.0797 35.5046 41.1718 35.0707 41.351C34.6367 41.5302 34.2424 41.7929 33.9102 42.1242C33.5781 42.4555 33.3147 42.8488 33.1351 43.2817C32.9554 43.7146 32.8631 44.1786 32.8633 44.6471C32.8635 44.1786 32.7712 43.7146 32.5915 43.2817C32.4119 42.8488 32.1485 42.4555 31.8164 42.1242C31.4842 41.7929 31.0899 41.5302 30.6559 41.351C30.222 41.1718 29.7568 41.0797 29.2872 41.0799H28.7581C28.2884 41.0797 27.8233 41.1718 27.3893 41.351C26.9553 41.5302 26.561 41.7929 26.2289 42.1242C25.8967 42.4555 25.6333 42.8488 25.4537 43.2817C25.274 43.7146 25.1817 44.1786 25.1819 44.6471V46.9148C25.1819 46.0295 24.8294 45.1804 24.2018 44.5544C23.5742 43.9285 22.7231 43.5768 21.8356 43.5768H21.0949C20.2892 43.5777 19.5169 43.8976 18.9477 44.4664C18.3784 45.0351 18.0589 45.806 18.0594 46.6097V58.7049C18.0594 61.5316 19.4465 63.697 21.862 63.697" fill="#FFAF77"/>
<path d="M21.862 65.0148C22.2128 65.0148 22.5493 64.8758 22.7973 64.6283C23.0453 64.3809 23.1847 64.0453 23.1847 63.6954C23.1847 63.3455 23.0453 63.0099 22.7973 62.7625C22.5493 62.515 22.2128 62.376 21.862 62.376C20.0434 62.376 19.382 60.397 19.382 58.7033V46.6097C19.3829 46.1559 19.564 45.721 19.8856 45.4002C20.2073 45.0793 20.6433 44.8987 21.0982 44.8978H21.8389C22.3755 44.8983 22.8899 45.1111 23.2694 45.4895C23.6488 45.868 23.8621 46.3812 23.8626 46.9164C23.8626 47.2664 24.0019 47.6019 24.25 47.8494C24.498 48.0968 24.8344 48.2358 25.1852 48.2358C25.536 48.2358 25.8724 48.0968 26.1205 47.8494C26.3685 47.6019 26.5079 47.2664 26.5079 46.9164V44.6488C26.5083 44.0528 26.7459 43.4812 27.1684 43.0598C27.5909 42.6383 28.1639 42.4014 28.7614 42.4009H29.2905C29.888 42.4014 30.4609 42.6383 30.8834 43.0598C31.306 43.4812 31.5435 44.0528 31.544 44.6488C31.544 44.9987 31.6833 45.3343 31.9314 45.5817C32.1794 45.8291 32.5158 45.9682 32.8666 45.9682C33.2174 45.9682 33.5538 45.8291 33.8019 45.5817C34.0499 45.3343 34.1893 44.9987 34.1893 44.6488C34.1897 44.0528 34.4273 43.4812 34.8498 43.0598C35.2723 42.6383 35.8452 42.4014 36.4428 42.4009H37.2694C37.867 42.4014 38.4399 42.6383 38.8624 43.0598C39.2849 43.4812 39.5225 44.0528 39.5229 44.6488V57.0986C39.5229 58.4983 38.9655 59.8406 37.9733 60.8303C36.9811 61.82 35.6354 62.376 34.2323 62.376H32.8749C32.5241 62.376 32.1877 62.515 31.9396 62.7625C31.6916 63.0099 31.5522 63.3455 31.5522 63.6954C31.5522 64.0453 31.6916 64.3809 31.9396 64.6283C32.1877 64.8758 32.5241 65.0148 32.8749 65.0148H34.2323C36.3362 65.0121 38.3532 64.1773 39.841 62.6933C41.3287 61.2093 42.1656 59.1973 42.1683 57.0986V44.6471C42.1669 43.3515 41.6504 42.1094 40.732 41.1933C39.8136 40.2771 38.5683 39.7619 37.2694 39.7606H36.4428C35.7719 39.7602 35.1082 39.8977 34.4929 40.1644C33.8777 40.4311 33.3241 40.8213 32.8666 41.3108C32.4091 40.8215 31.8554 40.4313 31.2402 40.1646C30.6249 39.8979 29.9613 39.7604 29.2905 39.7606H28.7614C27.7712 39.7618 26.8046 40.0618 25.9885 40.621C25.1723 41.1802 24.5448 41.9726 24.1883 42.894C23.4756 42.4782 22.6646 42.2595 21.8389 42.2608H21.0982C19.942 42.2616 18.8334 42.72 18.0157 43.5354C17.198 44.3507 16.738 45.4564 16.7367 46.6097V58.7049C16.7367 62.4206 18.8464 65.0148 21.862 65.0148Z" fill="black"/>
<path d="M32.8716 48.9961C33.2224 48.9961 33.5588 48.8571 33.8068 48.6096C34.0549 48.3622 34.1942 48.0266 34.1942 47.6767V44.6488C34.1942 44.2989 34.0549 43.9633 33.8068 43.7158C33.5588 43.4684 33.2224 43.3294 32.8716 43.3294C32.5208 43.3294 32.1843 43.4684 31.9363 43.7158C31.6882 43.9633 31.5489 44.2989 31.5489 44.6488V47.6767C31.5489 48.0266 31.6882 48.3622 31.9363 48.6096C32.1843 48.8571 32.5208 48.9961 32.8716 48.9961Z" fill="black"/>
<path d="M25.1902 48.9961C25.541 48.9961 25.8774 48.8571 26.1254 48.6097C26.3735 48.3622 26.5128 48.0267 26.5128 47.6767V46.9165C26.5128 46.5666 26.3735 46.231 26.1254 45.9835C25.8774 45.7361 25.541 45.5971 25.1902 45.5971C24.8394 45.5971 24.503 45.7361 24.2549 45.9835C24.0069 46.231 23.8675 46.5666 23.8675 46.9165V47.6767C23.8675 48.0267 24.0069 48.3622 24.2549 48.6097C24.503 48.8571 24.8394 48.9961 25.1902 48.9961Z" fill="black"/>
<path d="M25.1902 47.6768V48.9846C25.1902 49.9272 24.8148 50.8311 24.1466 51.4977C23.4784 52.1642 22.5722 52.5386 21.6272 52.5386C21.1589 52.5392 20.6951 52.4478 20.2623 52.2695C19.8294 52.0912 19.436 51.8295 19.1047 51.4994C18.7733 51.1693 18.5104 50.7773 18.331 50.3458C18.1517 49.9143 18.0594 49.4517 18.0594 48.9846V47.6768" fill="#FFAF77"/>
<path d="M21.6272 53.8596C22.9224 53.8578 24.1641 53.3438 25.0799 52.4303C25.9958 51.5167 26.5111 50.2782 26.5128 48.9862V47.6767C26.5128 47.3268 26.3735 46.9912 26.1254 46.7438C25.8774 46.4964 25.541 46.3574 25.1902 46.3574C24.8394 46.3574 24.503 46.4964 24.2549 46.7438C24.0069 46.9912 23.8675 47.3268 23.8675 47.6767V48.9862C23.8666 49.5786 23.6303 50.1465 23.2104 50.5654C22.7904 50.9843 22.2211 51.22 21.6272 51.2209C21.0334 51.22 20.464 50.9843 20.0441 50.5654C19.6242 50.1465 19.3879 49.5786 19.387 48.9862V47.6767C19.387 47.3268 19.2476 46.9912 18.9996 46.7438C18.7515 46.4964 18.4151 46.3574 18.0643 46.3574C17.7135 46.3574 17.3771 46.4964 17.1291 46.7438C16.881 46.9912 16.7417 47.3268 16.7417 47.6767V48.9862C16.743 50.2783 17.2581 51.5171 18.174 52.4308C19.09 53.3444 20.3319 53.8583 21.6272 53.8596Z" fill="black"/>
<path d="M40.8423 47.6768V48.9846C40.8423 50.9488 38.9542 52.5386 36.79 52.5386C34.6258 52.5386 32.8716 50.9488 32.8716 48.9846V47.6768" fill="#FFAF77"/>
<path d="M36.79 53.8596C39.7031 53.8596 42.165 51.6266 42.165 48.9862V47.6767C42.165 47.3268 42.0256 46.9912 41.7776 46.7438C41.5295 46.4964 41.1931 46.3574 40.8423 46.3574C40.4915 46.3574 40.1551 46.4964 39.907 46.7438C39.659 46.9912 39.5196 47.3268 39.5196 47.6767V48.9862C39.5196 50.1753 38.2449 51.2209 36.79 51.2209C35.335 51.2209 34.1942 50.2181 34.1942 48.9862V47.6767C34.1942 47.3268 34.0549 46.9912 33.8068 46.7438C33.5588 46.4964 33.2224 46.3574 32.8716 46.3574C32.5208 46.3574 32.1843 46.4964 31.9363 46.7438C31.6883 46.9912 31.5489 47.3268 31.5489 47.6767V48.9862C31.5489 51.6727 33.9 53.8596 36.79 53.8596Z" fill="black"/>
<path d="M32.8865 47.6768V48.9846C32.8865 50.9488 31.1637 52.5386 29.0375 52.5386C26.913 52.5386 25.1902 50.9488 25.1902 48.9846V47.6768" fill="#FFAF77"/>
<path d="M29.0375 53.8596C31.8895 53.8596 34.2091 51.6727 34.2091 48.9862V47.6767C34.2091 47.3268 34.0698 46.9912 33.8217 46.7438C33.5737 46.4964 33.2373 46.3574 32.8865 46.3574C32.5357 46.3574 32.1992 46.4964 31.9512 46.7438C31.7031 46.9912 31.5638 47.3268 31.5638 47.6767V48.9862C31.5638 50.2181 30.4313 51.2209 29.0375 51.2209C27.6437 51.2209 26.5129 50.2181 26.5129 48.9862V47.6767C26.5129 47.3268 26.3735 46.9912 26.1255 46.7438C25.8774 46.4964 25.541 46.3574 25.1902 46.3574C24.8394 46.3574 24.503 46.4964 24.2549 46.7438C24.0069 46.9912 23.8675 47.3268 23.8675 47.6767V48.9862C23.8675 51.6727 26.1872 53.8596 29.0375 53.8596Z" fill="black"/>
<path d="M32.8716 63.6954H36.5585C38.3125 63.6954 39.9946 63.0004 41.2348 61.7633C42.4751 60.5261 43.1718 58.8482 43.1718 57.0986V54.8607C43.1718 53.9859 42.8235 53.1469 42.2033 52.5283C41.5832 51.9098 40.7422 51.5623 39.8652 51.5623H35.2887C34.6477 51.5623 34.0329 51.8163 33.5795 52.2685C33.1262 52.7206 32.8716 53.3339 32.8716 53.9734C32.8716 54.6129 33.1262 55.2261 33.5795 55.6783C34.0329 56.1305 34.6477 56.3845 35.2887 56.3845H38.0217" fill="#FFAF77"/>
<path d="M32.8716 65.0148H36.5585C38.6625 65.0122 40.6795 64.1773 42.1672 62.6933C43.6549 61.2093 44.4919 59.1973 44.4945 57.0986V54.8607C44.4945 53.636 44.0068 52.4614 43.1386 51.5954C42.2704 50.7294 41.093 50.2429 39.8652 50.2429H35.2887C34.2973 50.2442 33.3468 50.6377 32.6457 51.337C31.9447 52.0363 31.5502 52.9844 31.5489 53.9734C31.5498 54.9627 31.944 55.9112 32.6451 56.6109C33.3463 57.3106 34.297 57.7042 35.2887 57.7056H38.0217C38.3725 57.7056 38.7089 57.5665 38.957 57.3191C39.205 57.0717 39.3444 56.7361 39.3444 56.3862C39.3444 56.0363 39.205 55.7007 38.957 55.4533C38.7089 55.2058 38.3725 55.0668 38.0217 55.0668H35.2887C34.9986 55.0664 34.7205 54.9512 34.5153 54.7466C34.3101 54.5419 34.1947 54.2645 34.1942 53.9751C34.1942 53.6854 34.3095 53.4075 34.5147 53.2025C34.7199 52.9975 34.9983 52.8821 35.2887 52.8816H39.8652C40.3914 52.8816 40.896 53.0901 41.2681 53.4613C41.6401 53.8324 41.8492 54.3358 41.8492 54.8607V57.0986C41.8492 58.4983 41.2918 59.8406 40.2996 60.8304C39.3074 61.8201 37.9617 62.3761 36.5585 62.3761H32.8716C32.5208 62.3761 32.1844 62.5151 31.9363 62.7625C31.6883 63.0099 31.5489 63.3455 31.5489 63.6954C31.5489 64.0454 31.6883 64.3809 31.9363 64.6284C32.1844 64.8758 32.5208 65.0148 32.8716 65.0148Z" fill="black"/>
</g>
<defs>
<clipPath id="clip0_2635_59230">
<rect width="124" height="99.2" fill="white"/>
</clipPath>
<clipPath id="clip1_2635_59230">
<rect width="124" height="164.92" fill="white" transform="matrix(-1 0 0 1 124 0)"/>
</clipPath>
</defs>
</svg>
