<svg width="124" height="100" viewBox="0 0 124 100" fill="none" xmlns="http://www.w3.org/2000/svg">
<g clip-path="url(#clip0_2635_60388)">
<path d="M83.1544 78.5679H83.1627C85.9252 78.5679 88.5745 79.6625 90.5279 81.611C92.4813 83.5595 93.5787 86.2022 93.5787 88.9578V95.5546C93.5787 99.1268 90.6754 99.2818 87.0927 99.2818H72.7483V88.9545C72.7492 86.2012 73.8456 83.5609 75.7968 81.6134C77.7479 79.6659 80.3942 78.5705 83.1544 78.5679Z" fill="#FCC0A2"/>
<path d="M72.7434 100.6H87.0877C90.1959 100.6 94.8964 100.6 94.8964 95.553V88.9562C94.8942 85.8514 93.6567 82.8743 91.4558 80.6789C89.2548 78.4834 86.2703 77.2491 83.1577 77.2469H83.1494C80.0368 77.2491 77.0523 78.4834 74.8514 80.6789C72.6504 82.8743 71.4129 85.8514 71.4108 88.9562V99.2835C71.4112 99.4573 71.4461 99.6293 71.5134 99.7897C71.5806 99.95 71.679 100.096 71.8029 100.218C71.9267 100.34 72.0735 100.437 72.2349 100.502C72.3963 100.568 72.5691 100.601 72.7434 100.6ZM83.1594 79.8873C85.5711 79.8873 87.884 80.8429 89.5893 82.544C91.2946 84.245 92.2527 86.5522 92.2527 88.9579V95.5547C92.2527 97.5337 91.3351 97.9625 87.0893 97.9625H74.0677V88.9546C74.0677 86.5489 75.0257 84.2417 76.731 82.5407C78.4364 80.8396 80.7493 79.884 83.161 79.884L83.1594 79.8873Z" fill="black"/>
<g clip-path="url(#clip1_2635_60388)">
<path d="M49.2974 24.0536H74.7025C81.8677 24.0536 87.6762 29.8476 87.6762 36.9949V71.0426C87.6762 78.1899 81.8677 83.9839 74.7025 83.9839H49.2974C42.1322 83.9839 36.3237 78.1899 36.3237 71.0426V36.9949C36.3237 29.8476 42.1322 24.0536 49.2974 24.0536Z" fill="#FCC0A2"/>
<path d="M43.3504 25.1586C43.3504 25.2509 43.3239 25.3367 43.3239 25.429V71.6149C43.3239 73.4372 44.0496 75.185 45.3412 76.4737C46.6329 77.7624 48.3848 78.4867 50.2117 78.4871H84.5895C83.3949 80.1853 81.8078 81.5714 79.9625 82.5282C78.1172 83.485 76.068 83.9843 73.9883 83.9839H48.5832C45.1426 83.9839 41.843 82.6207 39.41 80.1941C36.977 77.7675 35.6099 74.4762 35.6095 71.0443V36.9949C35.6099 34.4857 36.342 32.0307 37.7164 29.9291C39.0908 27.8276 41.0483 26.1701 43.3504 25.1586Z" fill="#EF966F"/>
<path d="M63.8187 74.0491H74.5653C74.9161 74.0491 75.2525 73.9101 75.5006 73.6626C75.7486 73.4152 75.888 73.0796 75.888 72.7297C75.888 72.3798 75.7486 72.0442 75.5006 71.7968C75.2525 71.5493 74.9161 71.4103 74.5653 71.4103H63.8187C63.4679 71.4103 63.1314 71.5493 62.8834 71.7968C62.6353 72.0442 62.496 72.3798 62.496 72.7297C62.496 73.0796 62.6353 73.4152 62.8834 73.6626C63.1314 73.9101 63.4679 74.0491 63.8187 74.0491Z" fill="black"/>
<path d="M49.2974 85.3032H74.7042C78.494 85.2988 82.1274 83.7951 84.8072 81.122C87.4871 78.4489 88.9945 74.8246 88.9989 71.0442V36.9948C88.9945 33.2143 87.4871 29.5898 84.8074 26.9164C82.1276 24.243 78.4942 22.739 74.7042 22.7342C74.3534 22.7342 74.017 22.8732 73.7689 23.1206C73.5209 23.3681 73.3815 23.7036 73.3815 24.0536C73.3815 24.4035 73.5209 24.7391 73.7689 24.9865C74.017 25.2339 74.3534 25.3729 74.7042 25.3729C77.7929 25.3768 80.7539 26.6026 82.9378 28.7813C85.1217 30.9601 86.3501 33.9139 86.3536 36.9948V71.0442C86.3501 74.125 85.1216 77.0786 82.9377 79.2571C80.7537 81.4356 77.7927 82.661 74.7042 82.6645H49.2974C46.2089 82.661 43.2479 81.4356 41.0639 79.2571C38.88 77.0786 37.6516 74.125 37.648 71.0442V36.9948C37.648 36.6449 37.5087 36.3093 37.2606 36.0619C37.0126 35.8145 36.6762 35.6755 36.3254 35.6755C35.9746 35.6755 35.6381 35.8145 35.3901 36.0619C35.142 36.3093 35.0027 36.6449 35.0027 36.9948V71.0442C35.0071 74.8246 36.5145 78.4489 39.1944 81.122C41.8742 83.7951 45.5076 85.2988 49.2974 85.3032Z" fill="black"/>
<path d="M41.6905 54.3428H35.9303C34.9656 54.3428 34.0404 54.725 33.3583 55.4055C32.6761 56.0859 32.2929 57.0087 32.2929 57.971V61.3733C32.2929 62.3356 32.6761 63.2584 33.3583 63.9389C34.0404 64.6193 34.9656 65.0016 35.9303 65.0016H41.6905V54.3428Z" fill="#FCC0A2"/>
<path d="M53.1762 59.6713H61.1915C63.9311 59.6713 66.1515 57.717 66.1515 55.3059V50.1785C66.1515 47.7674 63.9311 45.8131 61.1915 45.8131H53.1762C50.4366 45.8131 48.2162 47.7674 48.2162 50.1785V55.3059C48.2162 57.722 50.4366 59.6713 53.1762 59.6713Z" fill="white"/>
<path d="M57.5228 51.1087H61.1585C62.8413 51.1087 64.2056 52.4695 64.2056 54.1482V56.6319C64.2056 58.3105 62.8413 59.6714 61.1585 59.6714H57.5228C55.8399 59.6714 54.4757 58.3105 54.4757 56.6319V54.1482C54.4757 52.4695 55.8399 51.1087 57.5228 51.1087Z" fill="black"/>
<path d="M82.0847 45.8131H83.1527C85.7259 45.8131 87.8118 47.8938 87.8118 50.4606V55.0239C87.8118 57.5906 85.7259 59.6713 83.1527 59.6713H82.0847C79.5115 59.6713 77.4256 57.5906 77.4256 55.0239V50.4606C77.4256 47.8938 79.5115 45.8131 82.0847 45.8131Z" fill="white"/>
<path d="M53.1762 47.1325H64.1576C64.5084 47.1325 64.8448 46.9935 65.0929 46.7461C65.3409 46.4986 65.4803 46.163 65.4803 45.8131C65.4803 45.4632 65.3409 45.1276 65.0929 44.8802C64.8448 44.6328 64.5084 44.4938 64.1576 44.4938H53.1762C52.8254 44.4938 52.489 44.6328 52.2409 44.8802C51.9929 45.1276 51.8535 45.4632 51.8535 45.8131C51.8535 46.163 51.9929 46.4986 52.2409 46.7461C52.489 46.9935 52.8254 47.1325 53.1762 47.1325Z" fill="black"/>
<path d="M80.8861 47.1325H87.0596C87.4104 47.1325 87.7468 46.9935 87.9949 46.7461C88.2429 46.4986 88.3823 46.163 88.3823 45.8131C88.3823 45.4632 88.2429 45.1276 87.9949 44.8802C87.7468 44.6328 87.4104 44.4938 87.0596 44.4938H80.8861C80.5353 44.4938 80.1988 44.6328 79.9508 44.8802C79.7027 45.1276 79.5634 45.4632 79.5634 45.8131C79.5634 46.163 79.7027 46.4986 79.9508 46.7461C80.1988 46.9935 80.5353 47.1325 80.8861 47.1325Z" fill="black"/>
<path d="M78.9087 51.1087H82.5443C84.2272 51.1087 85.5914 52.4695 85.5914 54.1482V56.6319C85.5914 58.3105 84.2272 59.6714 82.5443 59.6714H78.9087C77.2258 59.6714 75.8616 58.3105 75.8616 56.6319V54.1482C75.8616 52.4695 77.2258 51.1087 78.9087 51.1087Z" fill="black"/>
<path d="M30.8347 22.1372C30.8347 20.6738 31.1236 19.2247 31.685 17.8727C32.2464 16.5207 33.0694 15.2922 34.1067 14.2574C35.1441 13.2226 36.3756 12.4018 37.731 11.8418C39.0864 11.2818 40.5391 10.9935 42.0062 10.9935C43.3349 10.9925 44.653 11.2287 45.8982 11.6911C46.2548 10.4108 47.022 9.28223 48.0826 8.47807C49.1432 7.67392 50.4386 7.23846 51.7708 7.2383C53.0209 7.23681 54.241 7.62041 55.2643 8.33667C56.795 6.86112 58.6099 5.71055 60.5991 4.95455C62.5884 4.19855 64.7106 3.85282 66.8376 3.93825C69.7327 4.05252 72.5404 4.95926 74.9532 6.55915C77.3661 8.15905 79.2911 10.3904 80.5173 13.0089C81.8022 12.4612 83.1856 12.1806 84.5828 12.1843C87.3208 12.1843 89.9466 13.2692 91.8826 15.2004C93.8186 17.1315 94.9062 19.7508 94.9062 22.4819C94.9058 25.2127 93.818 27.8315 91.882 29.7623C89.946 31.6931 87.3205 32.7778 84.5828 32.7778C84.2869 32.7778 83.9959 32.763 83.7066 32.7382C82.8936 33.7705 81.856 34.6048 80.6722 35.1783C79.4884 35.7517 78.1894 36.0492 76.8734 36.0482C75.0536 36.0508 73.2793 35.4813 71.8026 34.4204C69.8209 35.1687 67.7082 35.5103 65.591 35.4248C63.9824 35.3621 62.3928 35.0545 60.8774 34.5128C59.8199 36.5054 58.2376 38.1726 56.3008 39.335C54.3641 40.4974 52.1463 41.1109 49.886 41.1096C47.2679 41.1094 44.7166 40.2851 42.5956 38.7542C40.4745 37.2233 38.8918 35.0637 38.0729 32.5832C35.9439 31.7839 34.1102 30.3554 32.8168 28.4888C31.5234 26.6222 30.8319 24.4063 30.8347 22.1372Z" fill="#FF6D00"/>
<path d="M49.8926 42.4175C52.2047 42.42 54.48 41.8401 56.5075 40.7316C58.535 39.6231 60.2491 38.0218 61.4908 36.0763C62.8118 36.4533 64.1734 36.6709 65.5464 36.7244C67.6093 36.8095 69.6705 36.5189 71.629 35.8668C73.2061 36.8409 75.0251 37.355 76.88 37.3511C78.277 37.3547 79.6592 37.0651 80.9367 36.5011C82.2142 35.9371 83.3585 35.1114 84.2952 34.0775H84.5895C87.6768 34.074 90.6368 32.8491 92.82 30.6716C95.0033 28.4942 96.2316 25.5418 96.2355 22.4621C96.232 19.3822 95.0039 16.4294 92.8206 14.2516C90.6373 12.0737 87.6771 10.8487 84.5895 10.8452C83.4294 10.8435 82.2757 11.0159 81.1671 11.3564C79.7428 8.79807 77.681 6.64946 75.181 5.11828C72.6809 3.5871 69.8271 2.72512 66.8955 2.61566C62.5856 2.42932 58.3667 3.8897 55.0989 6.69908C54.0665 6.18109 52.9265 5.9122 51.7708 5.91406C50.3831 5.91654 49.0237 6.30612 47.8463 7.03878C46.6688 7.77145 45.7203 8.81799 45.1079 10.0602C44.0945 9.80083 43.0524 9.67006 42.0062 9.67094C38.6936 9.67443 35.5177 10.9886 33.1753 13.3251C30.833 15.6616 29.5155 18.8296 29.512 22.1339C29.5207 24.5614 30.2359 26.9341 31.5707 28.9639C32.9056 30.9936 34.8026 32.593 37.0313 33.5678C38.0182 36.1728 39.7781 38.4155 42.0761 39.9968C44.3741 41.578 47.1009 42.4224 49.8926 42.4175ZM60.884 33.1819C60.6435 33.182 60.4076 33.2474 60.2017 33.3712C59.9957 33.495 59.8275 33.6725 59.7151 33.8845C58.7716 35.6669 57.3581 37.1585 55.6271 38.1984C53.8961 39.2383 51.9133 39.787 49.8926 39.7853C47.5522 39.7886 45.2707 39.0534 43.3745 37.6849C41.4784 36.3163 40.0648 34.3846 39.3361 32.166C39.2744 31.9782 39.1712 31.8066 39.0342 31.6638C38.8971 31.5211 38.7296 31.4109 38.5441 31.3414C36.6716 30.6325 35.0588 29.3736 33.9185 27.7312C32.7782 26.0888 32.1641 24.14 32.1573 22.1422C32.1604 19.5376 33.199 17.0405 35.0454 15.1987C36.8917 13.357 39.3951 12.321 42.0062 12.3179C43.1772 12.3172 44.339 12.525 45.4369 12.9314C45.6086 12.9953 45.7918 13.0228 45.9748 13.0123C46.1579 13.0018 46.3367 12.9535 46.5 12.8704C46.6634 12.787 46.8075 12.6707 46.9234 12.5287C47.0392 12.3867 47.1242 12.2223 47.1729 12.0458C47.4533 11.0439 48.0543 10.1609 48.8844 9.53121C49.7144 8.90153 50.728 8.55968 51.7708 8.55773C52.7494 8.55591 53.7046 8.85604 54.5054 9.41696C54.7567 9.59254 55.0613 9.67554 55.3671 9.65178C55.6729 9.62801 55.9609 9.49894 56.1819 9.28668C57.5823 7.93013 59.2456 6.87308 61.0699 6.18029C62.8942 5.4875 64.8411 5.17355 66.7913 5.25768C69.4442 5.35677 72.0181 6.18431 74.2296 7.64915C76.4411 9.114 78.2044 11.1593 79.3252 13.5598C79.4696 13.8711 79.7299 14.1142 80.0509 14.2373C80.3719 14.3605 80.7284 14.354 81.0447 14.2194C82.1645 13.7398 83.3708 13.4934 84.5895 13.4954C86.9758 13.4981 89.2636 14.4448 90.951 16.128C92.6384 17.8112 93.5876 20.0933 93.5902 22.4737C93.5871 24.8538 92.6378 27.1355 90.9505 28.8183C89.2631 30.5011 86.9755 31.4477 84.5895 31.4503C84.3547 31.4503 84.1034 31.4387 83.824 31.4156C83.6064 31.3971 83.3876 31.4325 83.1871 31.5189C82.9866 31.6052 82.8106 31.7397 82.6749 31.9104C81.9861 32.7863 81.1062 33.494 80.1021 33.9798C79.0979 34.4657 77.996 34.7167 76.88 34.714C75.3373 34.7173 73.833 34.2348 72.5813 33.3353C72.4043 33.2079 72.1984 33.1262 71.9821 33.0974C71.7657 33.0686 71.5456 33.0937 71.3413 33.1704C69.5262 33.8574 67.5902 34.1699 65.6505 34.089C64.1761 34.0331 62.7191 33.7517 61.3304 33.2545C61.1873 33.2027 61.0363 33.1759 60.884 33.1753V33.1819Z" fill="black"/>
<path d="M47.8442 12.6313C46.0899 11.5574 44.0711 10.9905 42.0129 10.9936C39.05 10.9936 36.2084 12.1677 34.1134 14.2575C32.0183 16.3473 30.8413 19.1818 30.8413 22.1372C30.8413 25.0927 32.0183 27.9272 34.1134 30.017C36.2084 32.1068 39.05 33.2809 42.0129 33.2809" fill="#FF6D00"/>
<path d="M42.0062 34.6002C42.357 34.6002 42.6935 34.4612 42.9415 34.2138C43.1896 33.9663 43.3289 33.6308 43.3289 33.2808C43.3289 32.9309 43.1896 32.5953 42.9415 32.3479C42.6935 32.1005 42.357 31.9615 42.0062 31.9615C39.3949 31.9589 36.8914 30.923 35.0449 29.0811C33.1985 27.2393 32.16 24.742 32.1574 22.1372C32.1604 19.5326 33.199 17.0355 35.0454 15.1938C36.8918 13.352 39.3951 12.316 42.0062 12.3129C43.8203 12.3116 45.5994 12.811 47.1465 13.756C47.4455 13.9388 47.8051 13.9956 48.1462 13.9139C48.4872 13.8323 48.7818 13.6188 48.9651 13.3206C49.1484 13.0223 49.2053 12.6636 49.1235 12.3234C49.0416 11.9832 48.8276 11.6893 48.5286 11.5065C46.5655 10.3073 44.3082 9.6732 42.0062 9.6742C38.6936 9.67769 35.5177 10.9919 33.1754 13.3284C30.833 15.6649 29.5155 18.8329 29.512 22.1372C29.5155 25.4415 30.833 28.6095 33.1754 30.946C35.5177 33.2825 38.6936 34.5967 42.0062 34.6002Z" fill="black"/>
<path d="M75.5028 27.3536C76.388 28.9897 77.7008 30.3562 79.3018 31.308C80.9028 32.2599 82.7323 32.7615 84.5962 32.7597C87.3338 32.7597 89.9594 31.675 91.8953 29.7442C93.8313 27.8134 94.9191 25.1946 94.9196 22.4637" fill="#FF6D00"/>
<path d="M84.5895 34.0791C87.6768 34.0756 90.6368 32.8508 92.82 30.6733C95.0033 28.4958 96.2316 25.5434 96.2355 22.4638C96.2355 22.1139 96.0962 21.7783 95.8482 21.5308C95.6001 21.2834 95.2637 21.1444 94.9129 21.1444C94.5621 21.1444 94.2257 21.2834 93.9776 21.5308C93.7296 21.7783 93.5902 22.1139 93.5902 22.4638C93.5871 24.8439 92.6378 27.1256 90.9505 28.8084C89.2631 30.4912 86.9755 31.4377 84.5895 31.4404C82.9652 31.441 81.371 31.003 79.9761 30.1728C78.5812 29.3427 77.4377 28.1514 76.6667 26.7253C76.4998 26.4177 76.2172 26.1887 75.8811 26.0888C75.545 25.9889 75.183 26.0263 74.8745 26.1926C74.7216 26.2749 74.5865 26.3864 74.4769 26.5208C74.3672 26.6552 74.2852 26.8098 74.2355 26.9758C74.1857 27.1418 74.1692 27.316 74.1869 27.4883C74.2047 27.6607 74.2563 27.8279 74.3388 27.9803C75.3368 29.8249 76.8165 31.3657 78.6212 32.4394C80.4259 33.5131 82.4882 34.0797 84.5895 34.0791Z" fill="black"/>
<path d="M81.8466 17.4073C81.3157 13.768 79.5251 10.4287 76.785 7.9681C74.045 5.5075 70.5282 4.08071 66.8443 3.93501C64.7172 3.84919 62.5949 4.19474 60.6056 4.95076C58.6163 5.70679 56.8015 6.85755 55.2709 8.33342" fill="#FF6D00"/>
<path d="M81.845 18.7266C81.9086 18.7266 81.9722 18.7217 82.0351 18.7118C82.2071 18.6871 82.3725 18.6289 82.5219 18.5405C82.6713 18.4521 82.8018 18.3351 82.9059 18.1964C83.01 18.0576 83.0857 17.8997 83.1286 17.7318C83.1715 17.5639 83.1809 17.3892 83.1561 17.2176C82.5833 13.2721 80.6433 9.65136 77.6728 6.98418C74.7024 4.31701 70.8892 2.77191 66.8955 2.61726C64.5888 2.51809 62.2861 2.88966 60.1283 3.7092C57.9705 4.52874 56.0032 5.77901 54.3468 7.38345C54.0942 7.62623 53.9487 7.95911 53.9422 8.3089C53.9357 8.65868 54.0687 8.99673 54.312 9.24869C54.5554 9.50058 54.8891 9.64573 55.2398 9.65223C55.5904 9.65872 55.9293 9.52603 56.1819 9.28332C57.5823 7.92678 59.2456 6.86973 61.0699 6.17694C62.8942 5.48414 64.8412 5.17019 66.7914 5.25433C70.1673 5.38455 73.3909 6.69033 75.902 8.94482C78.4131 11.1993 80.0532 14.26 80.5372 17.5953C80.5825 17.9092 80.7396 18.1963 80.9798 18.404C81.22 18.6118 81.5271 18.7263 81.845 18.7266Z" fill="black"/>
<path d="M60.965 22.3763C60.331 21.5263 59.5354 20.8091 58.6236 20.2657C57.7117 19.7224 56.7015 19.3635 55.6506 19.2096C54.5997 19.0557 53.5287 19.1098 52.4988 19.3687C51.4689 19.6277 50.5001 20.0865 49.6479 20.7189C48.7956 21.3512 48.0765 22.1447 47.5316 23.0542C46.9867 23.9637 46.6268 24.9714 46.4724 26.0196C46.3179 27.0679 46.372 28.1363 46.6315 29.1637C46.891 30.1911 47.3508 31.1575 47.9847 32.0077" fill="#FF6D00"/>
<path d="M47.9864 33.327C48.2705 33.3269 48.547 33.2356 48.775 33.0665C48.9145 32.963 49.0321 32.8331 49.1212 32.6843C49.2104 32.5354 49.2692 32.3705 49.2944 32.199C49.3195 32.0274 49.3106 31.8526 49.268 31.6845C49.2254 31.5164 49.15 31.3584 49.0462 31.2194C47.979 29.7821 47.5261 27.9816 47.7867 26.2121C48.0473 24.4425 49.0001 22.8481 50.4366 21.7777C51.1486 21.2466 51.9591 20.8614 52.8213 20.6446C53.6834 20.4278 54.5801 20.3835 55.4594 20.5144C56.3391 20.6412 57.1848 20.9407 57.9476 21.3956C58.7104 21.8505 59.3752 22.4518 59.9036 23.1647C60.113 23.4451 60.4256 23.6312 60.7725 23.6819C61.1194 23.7326 61.4723 23.6439 61.7537 23.4351C62.0351 23.2264 62.222 22.9148 62.2731 22.5687C62.3243 22.2227 62.2356 21.8705 62.0265 21.5897C61.2913 20.598 60.3663 19.7615 59.3049 19.1288C58.2435 18.4961 57.0668 18.0797 55.843 17.9037C54.6203 17.7214 53.3736 17.7827 52.1748 18.0842C50.9761 18.3857 49.8492 18.9213 48.8593 19.6601C46.8595 21.1479 45.5327 23.366 45.1697 25.8281C44.8068 28.2901 45.4374 30.7953 46.9233 32.7943C47.0464 32.9598 47.2068 33.0941 47.3914 33.1866C47.576 33.2792 47.7798 33.3272 47.9864 33.327Z" fill="black"/>
<path d="M68.0479 22.7012C67.8481 21.5585 67.2015 20.5416 66.2503 19.8742C65.2991 19.2068 64.1212 18.9436 62.9755 19.1423C61.8298 19.3416 60.8104 19.9865 60.1413 20.9353C59.4723 21.8841 59.2084 23.0591 59.4076 24.202" fill="#FF6D00"/>
<path d="M59.4059 25.5214C59.4824 25.5213 59.5588 25.5146 59.6341 25.5016C59.9796 25.4416 60.2871 25.2472 60.4889 24.9611C60.6907 24.675 60.7704 24.3207 60.7104 23.9761C60.575 23.1793 60.7609 22.3614 61.2277 21.7008C61.6944 21.0403 62.4041 20.5907 63.202 20.4501C64.0003 20.3123 64.8209 20.4951 65.4847 20.9586C66.1484 21.422 66.6015 22.1285 66.7451 22.9239C66.8052 23.2685 67.0001 23.5752 67.2869 23.7765C67.5737 23.9779 67.9289 24.0574 68.2744 23.9975C68.4457 23.9678 68.6094 23.9047 68.7561 23.8119C68.9029 23.7191 69.0299 23.5983 69.1299 23.4564C69.2298 23.3146 69.3008 23.1545 69.3387 22.9853C69.3766 22.8161 69.3807 22.6411 69.3507 22.4704C69.0892 20.9838 68.2473 19.6613 67.0098 18.7929C65.7723 17.9245 64.24 17.581 62.749 17.8378C61.2584 18.0983 59.9324 18.9379 59.0618 20.1725C58.1911 21.407 57.8469 22.9356 58.1048 24.423C58.157 24.7297 58.3162 25.0082 58.5543 25.2092C58.7924 25.4101 59.094 25.5207 59.4059 25.5214Z" fill="black"/>
<path d="M34.7514 31.2177H89.9033V41.263H34.7514V31.2177Z" fill="#E2321A"/>
<path d="M34.7514 42.5824H89.9033C90.2541 42.5824 90.5905 42.4434 90.8386 42.1959C91.0866 41.9485 91.226 41.6129 91.226 41.263V31.2177C91.226 30.8678 91.0866 30.5322 90.8386 30.2848C90.5905 30.0374 90.2541 29.8984 89.9033 29.8984H34.7514C34.4006 29.8984 34.0642 30.0374 33.8161 30.2848C33.5681 30.5322 33.4287 30.8678 33.4287 31.2177V41.263C33.4287 41.6129 33.5681 41.9485 33.8161 42.1959C34.0642 42.4434 34.4006 42.5824 34.7514 42.5824ZM88.5806 39.9437H36.0741V32.5371H88.5806V39.9437Z" fill="black"/>
<path d="M73.9834 64.8862H75.3689C75.7197 64.8862 76.0561 64.7472 76.3041 64.4997C76.5522 64.2523 76.6915 63.9167 76.6915 63.5668C76.6915 63.2169 76.5522 62.8813 76.3041 62.6339C76.0561 62.3864 75.7197 62.2474 75.3689 62.2474H73.9834C73.6326 62.2474 73.2961 62.3864 73.0481 62.6339C72.8001 62.8813 72.6607 63.2169 72.6607 63.5668C72.6607 63.9167 72.8001 64.2523 73.0481 64.4997C73.2961 64.7472 73.6326 64.8862 73.9834 64.8862Z" fill="black"/>
<path d="M69.268 64.8862H70.6601C71.0109 64.8862 71.3473 64.7472 71.5954 64.4997C71.8434 64.2523 71.9828 63.9167 71.9828 63.5668C71.9828 63.2169 71.8434 62.8813 71.5954 62.6339C71.3473 62.3864 71.0109 62.2474 70.6601 62.2474H69.2746C68.9239 62.2474 68.5874 62.3864 68.3394 62.6339C68.0913 62.8813 67.952 63.2169 67.952 63.5668C67.952 63.9156 68.0904 64.2502 68.337 64.4974C68.5836 64.7446 68.9184 64.8844 69.268 64.8862Z" fill="black"/>
</g>
<path d="M72.4821 83.9838H41.788C40.9276 83.9838 40.1026 84.3247 39.4942 84.9316C38.8859 85.5384 38.5441 86.3614 38.5441 87.2196V112.086H85.4558V96.9251C85.4558 93.4929 84.0889 90.2012 81.6559 87.7742C79.2229 85.3473 75.9229 83.9838 72.4821 83.9838Z" fill="#3A3A3A"/>
<path d="M38.5442 113.406H85.4558C85.8066 113.406 86.143 113.267 86.3911 113.019C86.6391 112.772 86.7785 112.436 86.7785 112.086V96.9251C86.7741 93.1443 85.2665 89.5196 82.5864 86.8462C79.9062 84.1727 76.2724 82.6689 72.4821 82.6645H41.7863C40.5759 82.6662 39.4156 83.1468 38.5599 84.0007C37.7041 84.8546 37.2228 86.0122 37.2215 87.2196V112.086C37.2215 112.436 37.3608 112.772 37.6089 113.019C37.8569 113.267 38.1934 113.406 38.5442 113.406ZM84.1332 110.767H39.8668V87.2196C39.8673 86.7117 40.0696 86.2248 40.4294 85.8656C40.7893 85.5063 41.2772 85.3041 41.7863 85.3032H72.4821C75.5711 85.3067 78.5326 86.5323 80.7168 88.711C82.901 90.8898 84.1297 93.8439 84.1332 96.9251V110.767Z" fill="black"/>
<path d="M72.4821 83.9838H41.788C40.9276 83.9838 40.1026 84.3247 39.4942 84.9316C38.8859 85.5384 38.5441 86.3614 38.5441 87.2196V108.847C38.5441 109.705 38.8859 110.528 39.4942 111.135C40.1026 111.742 40.9276 112.083 41.788 112.083H82.212C83.0723 112.083 83.8974 111.742 84.5057 111.135C85.114 110.528 85.4558 109.705 85.4558 108.847V96.9251C85.4558 93.4929 84.0889 90.2012 81.6559 87.7742C79.2229 85.3473 75.9229 83.9838 72.4821 83.9838Z" fill="#0047B8"/>
<path d="M83.4421 90.0018H77.8489V85.1432C80.1463 86.1872 82.0897 87.8753 83.4421 90.0018Z" fill="#B80031"/>
<path d="M63.2664 90.0018H77.8472V104.546H63.2664V90.0018Z" fill="#B80031"/>
<path d="M48.6857 83.9838H63.2664V90.0017H48.6857V83.9838Z" fill="#B80031"/>
<path d="M38.5442 90.0018H48.6841V104.546H38.5442V90.0018Z" fill="#B80031"/>
<path d="M41.788 113.404H82.212C83.4224 113.403 84.583 112.923 85.4389 112.069C86.2948 111.216 86.776 110.058 86.7769 108.85V96.9251C86.7725 93.1446 85.2651 89.5201 82.5853 86.8467C79.9055 84.1733 76.2721 82.6693 72.4821 82.6645H41.788C40.5773 82.6658 39.4166 83.1461 38.5605 84.0001C37.7044 84.8541 37.2228 86.0119 37.2215 87.2196V108.85C37.2228 110.058 37.7044 111.216 38.5605 112.069C39.4167 112.923 40.5774 113.403 41.788 113.404ZM72.4838 85.3032C75.5726 85.3067 78.5339 86.5323 80.7179 88.7111C82.9018 90.89 84.1301 93.844 84.1332 96.9251V108.85C84.1323 109.358 83.9296 109.845 83.5694 110.204C83.2093 110.563 82.7211 110.765 82.212 110.765H41.788C41.2789 110.765 40.7908 110.563 40.4306 110.204C40.0705 109.845 39.8677 109.358 39.8668 108.85V87.2196C39.8673 86.7115 40.0698 86.2243 40.43 85.865C40.7902 85.5057 41.2786 85.3036 41.788 85.3032H72.4838Z" fill="black"/>
<g clip-path="url(#clip2_2635_60388)">
<path d="M72.4821 83.9838H41.788C40.9276 83.9838 40.1026 84.3247 39.4942 84.9316C38.8859 85.5384 38.5441 86.3614 38.5441 87.2196V108.847C38.5441 109.705 38.8859 110.528 39.4942 111.135C40.1026 111.742 40.9276 112.083 41.788 112.083H82.212C83.0723 112.083 83.8974 111.742 84.5057 111.135C85.114 110.528 85.4558 109.705 85.4558 108.847V96.9251C85.4558 93.4929 84.0889 90.2012 81.6559 87.7742C79.2229 85.3473 75.9229 83.9838 72.4821 83.9838Z" fill="#3A3A3A"/>
<path d="M37.615 94.0803H85.4558V103.885H37.615V94.0803Z" fill="black"/>
<path d="M41.788 113.406H82.212C83.4227 113.404 84.5835 112.924 85.4396 112.07C86.2957 111.216 86.7772 110.058 86.7785 108.85V96.9252C86.7741 93.1443 85.2665 89.5196 82.5864 86.8462C79.9062 84.1727 76.2724 82.6689 72.4821 82.6645H41.788C40.5773 82.6658 39.4165 83.1462 38.5604 84.0001C37.7043 84.8541 37.2228 86.0119 37.2215 87.2196V108.85C37.2228 110.058 37.7043 111.216 38.5604 112.07C39.4165 112.924 40.5773 113.404 41.788 113.406ZM72.4821 85.3032C75.5711 85.3067 78.5326 86.5323 80.7168 88.711C82.901 90.8898 84.1297 93.8439 84.1332 96.9252V108.85C84.1327 109.359 83.9302 109.846 83.57 110.205C83.2098 110.564 82.7214 110.766 82.212 110.767H41.788C41.2786 110.766 40.7902 110.564 40.43 110.205C40.0698 109.846 39.8673 109.359 39.8668 108.85V87.2196C39.8677 86.7116 40.0704 86.2247 40.4305 85.8655C40.7906 85.5063 41.2787 85.3041 41.788 85.3032H72.4821Z" fill="black"/>
</g>
<path d="M88.66 119.499H88.3409C84.7599 119.499 81.3256 118.08 78.7935 115.554C76.2613 113.028 74.8386 109.602 74.8382 106.03V106.009C74.8382 102.437 76.2607 99.0108 78.793 96.4849C81.3253 93.9589 84.7598 92.5399 88.3409 92.5399H88.66C90.8481 92.5399 92.9465 93.4069 94.4937 94.9502C96.0409 96.4936 96.9102 98.5868 96.9102 100.769V111.27C96.9102 112.351 96.6967 113.421 96.2821 114.419C95.8675 115.418 95.2598 116.325 94.4937 117.089C93.7276 117.853 92.8181 118.459 91.8172 118.873C90.8162 119.286 89.7434 119.499 88.66 119.499Z" fill="#FCC0A2"/>
<path d="M88.3409 120.819H88.66C91.1975 120.814 93.6298 119.807 95.4241 118.017C97.2184 116.227 98.2284 113.801 98.2328 111.27V100.769C98.2284 98.2382 97.2184 95.812 95.4241 94.0221C93.6298 92.2323 91.1975 91.2249 88.66 91.2205H88.3409C84.4103 91.2249 80.6419 92.7843 77.8626 95.5568C75.0832 98.3292 73.5198 102.088 73.5155 106.009V106.03C73.5203 109.951 75.0838 113.71 77.863 116.482C80.6423 119.254 84.4104 120.814 88.3409 120.819ZM88.66 93.8592C90.4959 93.8636 92.2554 94.593 93.5536 95.888C94.8518 97.183 95.5831 98.9381 95.5875 100.769V111.27C95.5831 113.101 94.8518 114.856 93.5536 116.151C92.2554 117.446 90.4959 118.176 88.66 118.18H88.3409C85.1117 118.176 82.016 116.895 79.7326 114.617C77.4492 112.339 76.1647 109.251 76.1608 106.03V106.009C76.1647 102.788 77.4492 99.6998 79.7326 97.4221C82.016 95.1445 85.1117 93.8632 88.3409 93.8592H88.66Z" fill="black"/>
<g opacity="0.7">
<path opacity="0.7" d="M86.9686 95.3452H90.1265C90.8871 95.3452 91.5037 95.9603 91.5037 96.719V97.2929C91.5037 98.0516 90.8871 98.6667 90.1265 98.6667H86.9686C86.208 98.6667 85.5914 98.0516 85.5914 97.2929V96.719C85.5914 95.9603 86.208 95.3452 86.9686 95.3452Z" fill="white"/>
</g>
<path d="M32.6732 99.2802V88.9529C32.6732 83.217 37.0165 78.5629 42.3733 78.5629C47.7317 78.5629 52.0734 83.212 52.0734 88.9529V95.5497C52.0734 99.1219 49.3685 99.2769 46.0305 99.2769C49.3685 99.2769 52.0734 102.173 52.0734 105.747V119.361C52.0734 122.935 49.3685 125.832 46.0305 125.832H40.4719C33.7974 125.832 28.3844 120.039 28.3844 112.891V103.86C28.391 101.338 30.3089 99.2802 32.6732 99.2802Z" fill="#FCC0A2"/>
<path d="M32.6732 99.2802L32.9691 97.0043V108.784C32.9691 115.932 37.0016 118.977 43.6777 118.977H50.6217C51.1179 118.97 51.6111 118.898 52.0883 118.762V119.364C52.0883 122.938 49.3834 125.836 46.0453 125.836H40.4719C33.7974 125.836 28.3844 120.04 28.3844 112.894V103.863C28.391 101.338 30.3089 99.2802 32.6732 99.2802Z" fill="#EF966F"/>
<path d="M40.472 127.155H46.0305C50.0927 127.155 53.396 123.66 53.396 119.364V105.75C53.403 104.661 53.1866 103.583 52.7601 102.581C52.3336 101.579 51.706 100.674 50.916 99.9234C52.3412 99.2785 53.396 98.0169 53.396 95.553V88.9562C53.396 82.5029 48.4526 77.2469 42.3733 77.2469C36.294 77.2469 31.3439 82.4979 31.3439 88.9562V98.1291C28.8904 98.7574 27.0634 101.098 27.0634 103.867V112.898C27.07 120.758 33.0849 127.155 40.472 127.155ZM46.0305 100.603C48.6328 100.603 50.7507 102.912 50.7507 105.753V119.367C50.7507 122.207 48.6328 124.52 46.0305 124.52H40.472C34.5365 124.52 29.7087 119.305 29.7087 112.898V103.867C29.7087 102.066 31.0314 100.603 32.6666 100.603C33.0174 100.603 33.3538 100.464 33.6018 100.216C33.8499 99.969 33.9892 99.6334 33.9892 99.2835V88.9562C33.9892 83.9575 37.7473 79.8856 42.3667 79.8856C46.9861 79.8856 50.7507 83.9525 50.7507 88.9562V95.553C50.7507 97.5551 49.9571 97.9609 46.0305 97.9609C45.6797 97.9609 45.3432 98.0998 45.0952 98.3473C44.8471 98.5947 44.7078 98.9303 44.7078 99.2802C44.7078 99.454 44.7422 99.6261 44.8091 99.7866C44.876 99.9472 44.974 100.093 45.0975 100.215C45.2211 100.338 45.3676 100.435 45.5289 100.501C45.6901 100.567 45.8628 100.6 46.0371 100.6L46.0305 100.603Z" fill="black"/>
<g opacity="0.7">
<path opacity="0.7" d="M42.0525 82.0015H45.2104C45.971 82.0015 46.5876 82.6166 46.5876 83.3753V83.9492C46.5876 84.708 45.971 85.323 45.2104 85.323H42.0525C41.2919 85.323 40.6753 84.708 40.6753 83.9492V83.3753C40.6753 82.6166 41.2919 82.0015 42.0525 82.0015Z" fill="white"/>
</g>
<path d="M48.7287 119.499H49.0462C52.6275 119.499 56.0621 118.08 58.5946 115.554C61.1272 113.029 62.5501 109.603 62.5506 106.03V106.009C62.5506 104.24 62.2012 102.488 61.5226 100.854C60.8439 99.2199 59.8491 97.735 58.5951 96.4843C57.3411 95.2336 55.8524 94.2414 54.2139 93.5646C52.5755 92.8879 50.8195 92.5396 49.0462 92.5399H48.7287C46.5406 92.5399 44.4422 93.4069 42.8949 94.9502C41.3477 96.4936 40.4786 98.5868 40.4786 100.769V111.27C40.4786 112.351 40.6919 113.421 41.1066 114.419C41.5212 115.418 42.1289 116.325 42.8949 117.089C43.661 117.853 44.5705 118.459 45.5715 118.873C46.5724 119.286 47.6453 119.499 48.7287 119.499Z" fill="#FCC0A2"/>
<path d="M44.8929 93.4865C44.8929 93.6151 44.8549 93.7372 44.8549 93.8675V107.084C44.8549 108.907 45.5808 110.655 46.8728 111.944C48.1648 113.232 49.9172 113.956 51.7444 113.956H59.9482C58.6985 115.673 57.0592 117.07 55.1643 118.033C53.2695 118.997 51.1729 119.499 49.0461 119.499H48.7287C47.6453 119.499 46.5724 119.286 45.5715 118.873C44.5705 118.459 43.661 117.853 42.8949 117.089C42.1288 116.325 41.5212 115.418 41.1065 114.419C40.6919 113.421 40.4786 112.351 40.4786 111.27V100.769C40.4784 99.2693 40.8896 97.7977 41.6677 96.514C42.4458 95.2303 43.5612 94.1833 44.8929 93.4865Z" fill="#EF966F"/>
<path d="M48.7287 120.819H49.0461C52.9769 120.814 56.7454 119.255 59.525 116.483C62.3047 113.71 63.8684 109.951 63.8732 106.03V106.009C63.8689 102.088 62.3052 98.3287 59.5255 95.5562C56.7458 92.7837 52.977 91.2244 49.0461 91.2205H48.7287C46.1912 91.2249 43.7588 92.2323 41.9645 94.0221C40.1702 95.812 39.1603 98.2382 39.1559 100.769V111.27C39.1603 113.801 40.1702 116.227 41.9645 118.017C43.7588 119.807 46.1912 120.814 48.7287 120.819ZM49.0461 93.8592C52.2756 93.8627 55.3718 95.1439 57.6555 97.4216C59.9392 99.6993 61.224 102.788 61.2279 106.009V106.03C61.224 109.252 59.9392 112.34 57.6555 114.618C55.3718 116.895 52.2756 118.177 49.0461 118.18H48.7287C46.8927 118.176 45.1332 117.446 43.835 116.151C42.5368 114.856 41.8056 113.101 41.8012 111.27V100.769C41.8056 98.9381 42.5368 97.183 43.835 95.888C45.1332 94.593 46.8927 93.8636 48.7287 93.8592H49.0461Z" fill="black"/>
</g>
<defs>
<clipPath id="clip0_2635_60388">
<rect width="124" height="99.2" fill="white"/>
</clipPath>
<clipPath id="clip1_2635_60388">
<rect width="124" height="164.92" fill="white" transform="matrix(-1 0 0 1 124 0)"/>
</clipPath>
<clipPath id="clip2_2635_60388">
<rect width="124" height="164.92" fill="white" transform="matrix(-1 0 0 1 124 0)"/>
</clipPath>
</defs>
</svg>
