<svg width="58" height="38" viewBox="0 0 58 38" fill="none" xmlns="http://www.w3.org/2000/svg">
<g clip-path="url(#clip0_2264_107072)">
<path d="M28.8489 32.6074C28.8489 31.1075 30.0767 29.9038 31.6066 29.9038C33.1365 29.9038 34.3637 31.1075 34.3637 32.6074C34.3637 34.1072 33.1365 35.3109 31.6066 35.3109C30.0767 35.3109 28.8489 34.1072 28.8489 32.6074ZM40.0677 32.6074C40.0677 31.1075 41.2955 29.9038 42.8253 29.9038C44.3547 29.9038 45.5824 31.1075 45.5824 32.6074C45.5824 34.1072 44.3547 35.3109 42.8253 35.3109C41.2955 35.3109 40.0677 34.1072 40.0677 32.6074ZM14.0609 32.6074C14.0609 31.1075 15.2881 29.9038 16.8185 29.9038C18.3478 29.9038 19.5756 31.1075 19.5756 32.6074C19.5756 34.1072 18.3478 35.3109 16.8185 35.3109C15.2881 35.3109 14.0609 34.1072 14.0609 32.6074ZM2.84213 32.6074C2.84213 31.1075 4.06934 29.9038 5.59922 29.9038C7.12967 29.9038 8.35688 31.1075 8.35688 32.6074C8.35688 34.1072 7.12967 35.3109 5.59922 35.3109C4.06934 35.3109 2.84213 34.1072 2.84213 32.6074ZM25.5247 27.83H23.1262V37.292H25.5247V27.83ZM8.33807 37.292H10.7366V27.83H8.33807V28.5894C7.52582 28.0339 6.54371 27.7193 5.48636 27.7193C2.7287 27.7193 0.5 29.9038 0.5 32.6074C0.5 35.3294 2.7287 37.4954 5.48636 37.4954C6.54371 37.4954 7.52582 37.1808 8.33807 36.6253V37.292ZM45.5636 37.292H47.9622V27.83H45.5636V28.5894C44.7514 28.0339 43.7693 27.7193 42.7119 27.7193C39.9543 27.7193 37.7261 29.9038 37.7261 32.6074C37.7261 35.3294 39.9543 37.4954 42.7119 37.4954C43.7693 37.4954 44.7514 37.1808 45.5636 36.6253V37.292ZM48.8502 34.2179C48.9255 36.1251 50.5876 37.4769 53.3641 37.4769C55.6304 37.4769 57.5 36.5141 57.5 34.385C57.5 32.9035 56.6501 32.0334 54.6859 31.6629L53.156 31.3668C52.1739 31.1818 51.4939 30.9963 51.4939 30.4224C51.4939 29.7931 52.1551 29.5154 52.9862 29.5154C54.1951 29.5154 54.6859 30.1077 54.7235 30.8113H57.1415C57.0092 28.9594 55.4982 27.7193 53.062 27.7193C50.55 27.7193 49.0577 29.0706 49.0577 30.8297C49.0577 32.9779 50.8333 33.3294 52.3632 33.6071L53.6286 33.8295C54.5349 33.996 54.9316 34.2553 54.9316 34.7739C54.9316 35.2366 54.4784 35.6993 53.4017 35.6993C51.8342 35.6993 51.3241 34.9036 51.3052 34.2179H48.8502ZM19.5568 24.6084V28.5894C18.7446 28.0339 17.7624 27.7193 16.7051 27.7193C13.9474 27.7193 11.7187 29.9038 11.7187 32.6074C11.7187 35.3294 13.9474 37.4954 16.7051 37.4954C17.7624 37.4954 18.7446 37.1808 19.5568 36.6253V37.292H21.9554V24.6084H19.5568ZM34.3449 24.6084V28.5894C33.5326 28.0339 32.5505 27.7193 31.4932 27.7193C28.7355 27.7193 26.5074 29.9038 26.5074 32.6074C26.5074 35.3294 28.7355 37.4954 31.4932 37.4954C32.5505 37.4954 33.5326 37.1808 34.3449 36.6253V37.292H36.7435V24.6084H34.3449ZM6.73238 21.8126L8.35688 24.6084H19.5568L15.1182 17.0905L6.73238 21.8126ZM25.5247 26.9599V24.6084H34.3449L24.9393 8.64724L16.5347 13.3687L23.1262 24.6084V26.9599H25.5247ZM37.9148 24.6084H49.1335L34.6282 0L26.2429 4.73994L37.9148 24.6084Z" fill="black"/>
</g>
<defs>
<clipPath id="clip0_2264_107072">
<rect width="57" height="38" fill="white" transform="translate(0.5)"/>
</clipPath>
</defs>
</svg>
