<svg width="41" height="42" viewBox="0 0 41 42" fill="none" xmlns="http://www.w3.org/2000/svg">
<path d="M30.335 30.9682C35.8578 25.4068 35.8578 16.39 30.335 10.8286C24.8121 5.26725 15.8578 5.26725 10.335 10.8286C4.81211 16.39 4.81211 25.4068 10.335 30.9682C15.8578 36.5296 24.8121 36.5296 30.335 30.9682Z" fill="white"/>
<path d="M29.7017 10.2344C31.3018 13.1744 31.8206 16.5886 31.1668 19.8759C30.513 23.1632 28.7285 26.1128 26.1274 28.2056C23.5264 30.2983 20.2755 31.4 16.9472 31.3166C13.6189 31.2332 10.4265 29.9701 7.93201 27.7496C8.92357 29.5715 10.299 31.1529 11.9617 32.3828C13.6245 33.6128 15.5343 34.4615 17.5573 34.8695C19.5802 35.2774 21.6674 35.2348 23.6722 34.7445C25.6771 34.2542 27.5512 33.3282 29.163 32.0314C30.7749 30.7345 32.0854 29.0983 33.0028 27.2374C33.9201 25.3765 34.4221 23.3361 34.4734 21.2592C34.5247 19.1823 34.1242 17.1192 33.2999 15.2147C32.4756 13.3102 31.2475 11.6103 29.7017 10.2344Z" fill="#EDEDED"/>
<path d="M8.90473 15.0641C8.6032 15.3621 7.89103 16.1459 7.19629 17.4938C7.59855 15.9217 8.27752 14.4328 9.20232 13.0991C8.95209 14.0149 8.90877 14.7306 8.90473 15.0641ZM8.74905 26.5496C9.35079 26.8785 10.382 27.271 11.8743 27.271L11.875 27.271C12.1486 27.2703 12.4219 27.2574 12.6943 27.2324C13.0419 27.7931 13.4194 28.3343 13.8252 28.8539L13.8253 28.854C14.4966 29.7128 15.5372 30.873 16.7373 31.6039C16.6374 32.548 16.6778 33.2511 16.7286 33.6719C16.2847 33.7108 15.8376 33.6958 15.3968 33.6269C12.9507 32.6569 10.8373 30.997 9.30806 28.8497L9.15614 28.536L9.05651 28.3304C9.05626 28.3299 9.05601 28.3293 9.05575 28.3288C8.78851 27.7551 8.73921 27.0594 8.74905 26.5496ZM28.1712 10.2481C28.024 9.95071 27.8445 9.66576 27.6477 9.39742C29.7052 10.7282 31.3756 12.5948 32.4765 14.8063C32.4661 14.8029 32.4561 14.7996 32.4465 14.7965C30.6737 12.1485 28.6248 10.5762 28.1712 10.2481ZM18.4155 7.37619C20.7369 7.04147 23.1049 7.31864 25.2881 8.18051C25.864 8.63918 26.7342 9.42695 27.2694 10.318C26.1863 10.7978 25.1722 11.4224 24.2547 12.1751C23.1847 11.6123 21.802 11.2348 20.6095 10.9886C19.4967 10.7588 18.5307 10.6396 18.1027 10.5929C17.6499 9.70905 17.0588 8.90476 16.3525 8.21067C17.0049 7.85195 17.6973 7.57178 18.4155 7.37619ZM32.9512 15.8742C34.1379 18.8951 34.2161 22.2413 33.1756 25.3122L32.5592 25.0002C32.5219 21.9574 31.8302 19.8764 31.6165 19.298C32.1533 17.9336 32.4191 16.4563 32.5295 15.7007C32.6716 15.7547 32.8122 15.8126 32.9512 15.8742ZM27.571 30.3325C27.5627 31.002 27.4367 31.5176 27.3079 31.8733C27.1841 32.2149 27.0572 32.411 27.0236 32.46L26.8473 32.689L26.5955 33.016C24.199 34.2756 21.477 34.7852 18.7813 34.4699C18.3409 34.3368 17.9337 34.1108 17.5868 33.8071C17.5404 33.5417 17.4468 32.8159 17.5583 31.7256C18.3684 31.5432 20.6738 30.9241 22.7569 29.4139C23.2874 29.7402 24.5925 30.3438 26.9978 30.3438C27.1817 30.3438 27.3729 30.3402 27.571 30.3325ZM20.3345 6.07812C12.2172 6.07812 5.61658 12.7273 5.61658 20.897C5.61658 29.0667 12.2172 35.7159 20.3345 35.7159C28.4518 35.7159 35.0524 29.0667 35.0524 20.897C35.0524 12.7273 28.4518 6.07812 20.3345 6.07812ZM12.6225 26.4053C10.2107 26.6243 8.93482 25.7135 8.71215 25.5361C7.26369 23.2398 7.00534 20.7546 6.97011 20.3212C7.74988 17.5833 9.04964 16.0931 9.46209 15.6701C10.8578 15.8563 12.5129 15.9338 13.2755 15.961C13.2549 16.9616 13.495 19.2052 15.1279 21.823C14.1114 23.2425 13.2701 24.7813 12.6225 26.4053ZM20.4378 11.7977C21.6382 12.045 22.9845 12.4175 23.9588 12.9507C24.406 14.3781 25.5231 17.2854 25.8284 18.0749C24.6752 19.7219 23.3047 21.2031 21.7549 22.4778C21.0227 22.2699 18.4814 21.593 15.8618 21.4419C14.0797 18.6131 14.0828 16.2766 14.112 15.7369L17.9991 11.4128C18.3979 11.4557 19.3473 11.573 20.4378 11.7977ZM27.8415 29.4937C25.0061 29.66 23.5848 28.9521 23.159 28.6867C23.1421 27.9174 23.0327 25.2038 22.3306 23.0741C23.8949 21.7798 25.2822 20.283 26.4566 18.6225C28.2229 19.1764 30.2045 19.5503 30.8696 19.6702C31.0922 20.297 31.7169 22.3061 31.7354 25.1366C29.628 28.1984 28.1759 29.2699 27.8415 29.4937Z" fill="#1B2028" stroke="black" stroke-width="0.5"/>
</svg>
