<svg width="300" height="47" viewBox="0 0 300 47" fill="none" xmlns="http://www.w3.org/2000/svg">
<path d="M47.6948 6.74162H55.2341C57.1498 6.74162 58.5506 7.2563 59.4569 8.14157C60.3427 8.90331 60.7341 9.93268 60.7341 10.9415C60.7341 11.3326 60.7341 11.8267 60.6105 12.2179C60.3633 12.8561 59.9719 13.4943 59.4569 14.009C59.2097 14.2561 58.9419 14.4002 58.6947 14.5237C59.5805 14.7708 60.3633 15.2854 61.0019 15.9237C61.5168 16.5619 61.764 17.3236 61.764 18.4765C61.764 19.1147 61.6404 19.8765 61.3726 20.3911C61.1254 20.9058 60.6105 21.4205 60.0955 21.7911C59.4569 22.1823 58.8183 22.4293 58.1798 22.6764C57.4176 22.9234 56.5112 22.9234 55.6255 22.9234H47.8184V6.70044H47.6948V6.74162ZM54.5955 13.3708C55.2341 13.3708 55.8727 13.2473 56.5112 12.9796C57.0262 12.7326 57.2734 12.2179 57.2734 11.7032C57.2734 11.1885 57.0262 10.6738 56.6348 10.4268C56.1199 10.0356 55.4813 9.9121 54.8427 10.0356H51.2585V13.4737H54.5749V13.3708H54.5955ZM55.4813 19.897C56.1199 19.897 56.7584 19.7735 57.397 19.5059C57.912 19.2588 58.1592 18.7441 58.0356 18.1059C58.0356 17.5912 57.7884 17.0766 57.397 16.8295C57.0056 16.5825 56.2435 16.3148 55.3577 16.3148H51.1349V19.897H55.4813Z" fill="#F1BC10"/>
<path d="M66.2156 6.7417H69.7998V23.0882H66.2156V6.7417Z" fill="#F1BC10"/>
<path d="M75.2949 6.7417H78.6114L86.2742 16.8296V6.7417H89.8379V23.0882H86.7892L78.735 12.7327V23.0882H75.2949V6.7417Z" fill="#F1BC10"/>
<path d="M100.717 6.61816H104.033L111.057 23.0882H107.35L105.825 19.3824H98.9245L97.4002 23.0882H93.6924L100.717 6.61816ZM104.548 16.3149L102.385 10.9621L100.222 16.3149H104.548Z" fill="#F1BC10"/>
<path d="M114.888 6.7417H118.204L125.867 16.8296V6.7417H129.451V23.0882H126.382L118.451 12.7327V23.0882H114.888V6.7417Z" fill="#F1BC10"/>
<path d="M142.473 23.3352C141.319 23.3352 140.166 23.0882 139.156 22.697C137.117 21.8118 135.572 20.2677 134.686 18.2295C134.295 17.2001 134.048 16.0678 134.048 14.9149C134.048 12.7532 134.933 10.571 136.478 8.92396C137.24 8.16222 138.147 7.52401 139.156 7.13284C140.31 6.61816 141.463 6.49463 142.596 6.49463C143.235 6.49463 143.997 6.49463 144.636 6.61816C145.274 6.74168 145.789 6.86521 146.304 7.13284C146.819 7.37989 147.334 7.64753 147.705 7.89458C148.096 8.14163 148.591 8.5328 148.982 8.92396L146.819 11.6003C146.18 11.0857 145.542 10.571 144.903 10.2004C144.265 9.82981 143.503 9.6857 142.74 9.6857C142.102 9.6857 141.463 9.80922 140.825 10.0769C140.186 10.3239 139.671 10.7151 139.3 11.2298C138.93 11.7444 138.538 12.2591 138.27 12.8974C138.023 13.5356 137.879 14.1738 137.879 14.812C137.879 15.4502 138.003 16.2119 138.27 16.8502C138.538 17.4884 138.785 18.0031 139.3 18.5177C140.186 19.5471 141.463 20.0412 142.74 20.0412C143.503 20.0412 144.409 19.9177 145.171 19.5265C145.81 19.1354 146.572 18.6413 147.087 18.1266L149.373 20.4118C148.982 20.803 148.488 21.2971 148.096 21.6882C147.581 22.0794 147.066 22.3264 146.572 22.5735C146.057 22.8205 145.418 23.0882 144.78 23.2117C143.873 23.3352 143.111 23.3352 142.473 23.3352Z" fill="#F1BC10"/>
<path d="M153.472 6.7417H165.728V9.93277H156.912V13.2474H164.698V16.4384H156.912V19.8971H165.852V23.0882H153.472V6.7417Z" fill="#F1BC10"/>
<path d="M52.2894 39.167C51.4036 39.167 50.4972 39.0435 49.7351 38.6524C48.9729 38.4053 48.2107 37.8906 47.428 37.2524L48.7051 35.8525C49.2201 36.3671 49.7351 36.6142 50.3737 37.0054C51.0122 37.2524 51.6508 37.3965 52.2894 37.3965C52.8044 37.3965 53.3193 37.273 53.8137 37.0054C54.2051 36.7583 54.3287 36.3671 54.3287 35.976C54.3287 35.8525 54.3287 35.5848 54.2051 35.4613C54.0815 35.3378 53.9579 35.0701 53.8137 34.9466C53.5665 34.8231 53.2987 34.6996 53.0515 34.5555C52.6602 34.4319 52.1658 34.3084 51.7744 34.1643C51.2594 34.0408 50.6208 33.9172 50.1059 33.6496C49.7145 33.5261 49.2201 33.2584 48.9523 33.0114C48.7051 32.7644 48.4373 32.4967 48.1901 32.1261C47.943 31.6115 47.943 31.0968 47.943 30.7262C47.943 30.2115 48.0665 29.8409 48.1901 29.3262C48.3137 28.9351 48.7051 28.5645 48.9523 28.2969C49.3437 28.0498 49.7145 27.7822 50.2295 27.6587C50.7444 27.5351 51.2594 27.4116 51.7538 27.4116C52.516 27.4116 53.2781 27.5351 54.0609 27.8028C54.6995 28.0498 55.338 28.441 55.9766 28.8322L54.9467 30.3556C54.4317 29.9645 53.9167 29.7174 53.4223 29.4704C52.9073 29.2233 52.3924 29.2233 51.898 29.2233C51.383 29.2233 50.868 29.3468 50.4972 29.6145C50.2501 29.8615 49.9823 30.2527 49.9823 30.6438C49.9823 30.8909 49.9823 31.035 50.1059 31.2821C50.2295 31.4056 50.3531 31.6732 50.4972 31.7967C50.7444 31.9203 51.0122 32.0438 51.383 32.1879C51.7744 32.3114 52.1452 32.435 52.7838 32.5791C53.2987 32.7026 53.8137 32.8261 54.4523 33.0937C54.8437 33.2173 55.2144 33.4849 55.6058 33.732C55.853 33.979 56.1208 34.3702 56.2444 34.6172C56.368 35.0084 56.4916 35.379 56.4916 35.8936C56.4916 36.4083 56.368 36.923 56.2444 37.2936C55.9972 37.6847 55.7294 38.0553 55.3586 38.4465C54.9673 38.6935 54.5965 38.9612 54.0815 39.0847C53.4429 39.0435 52.8044 39.167 52.2894 39.167Z" fill="#F1BC10"/>
<path d="M58.6738 27.5559H60.8573L64.2974 32.9086L67.8816 27.5559H70.0445V39.0437H68.0052V30.747L64.421 36.0997H64.2974L60.7337 30.747V39.0437H58.6738V27.5559Z" fill="#F1BC10"/>
<path d="M76.9453 27.4321H78.8611L83.846 38.92H81.6831L80.5296 36.1201H75.1738L74.0203 38.92H71.981L76.9453 27.4321ZM79.891 34.4525L77.8517 29.8615L75.936 34.4525H79.891Z" fill="#F1BC10"/>
<path d="M85.8865 27.5559H90.9951C91.6336 27.5559 92.2722 27.6794 92.9108 27.803C93.4258 27.9265 93.9407 28.3176 94.3115 28.6882C94.5587 28.9353 94.8265 29.3264 95.0737 29.8411C95.1973 30.2323 95.3209 30.7264 95.3209 31.2411C95.3209 31.6322 95.1973 32.1263 95.0737 32.5175C94.9501 32.9086 94.6823 33.1557 94.5587 33.5469C94.3115 33.7939 94.0437 34.0615 93.6729 34.3086C93.2816 34.5556 92.9108 34.6998 92.5194 34.8233L95.5887 39.1672H93.158L90.3565 35.2144H87.8022V39.1672H85.7629L85.8865 27.5559ZM90.8715 33.1763C91.5101 33.1763 92.1486 33.0528 92.54 32.6616C92.9314 32.2704 93.1786 31.7763 93.1786 31.2617C93.1786 30.747 92.9314 30.2323 92.54 29.8617C92.025 29.4705 91.3865 29.347 90.7479 29.347H87.8022V33.1763H90.8715Z" fill="#F1BC10"/>
<path d="M100.57 29.347H96.8625V27.5559H106.194V29.347H102.486V39.0437H100.447L100.57 29.347Z" fill="#F1BC10"/>
<path d="M118.595 39.1671C117.832 39.1671 117.07 39.0436 116.287 38.6525C114.887 38.0142 113.733 36.9849 113.218 35.5849C112.971 34.8232 112.703 34.0614 112.827 33.2791C112.827 32.5174 112.95 31.7556 113.218 30.9733C113.733 29.5734 114.887 28.4205 116.287 27.7823C117.05 27.5352 117.812 27.2676 118.718 27.2676C119.233 27.2676 119.748 27.2676 120.119 27.3911C120.51 27.5146 120.881 27.6382 121.272 27.7823C121.664 27.9058 121.911 28.1734 122.302 28.297C122.55 28.544 122.941 28.8116 123.188 29.0587L121.911 30.5822C121.52 30.191 121.025 29.8204 120.51 29.5528C119.995 29.3057 119.357 29.1616 118.718 29.1616C118.203 29.1616 117.688 29.2852 117.194 29.4087C116.679 29.6557 116.308 29.9234 115.917 30.2939C115.525 30.6851 115.278 31.0557 115.155 31.5704C115.031 32.0851 114.907 32.5997 114.907 33.0938C114.907 33.6085 115.031 34.1232 115.155 34.6173C115.278 35.1114 115.546 35.5026 115.917 35.8937C116.308 36.2849 116.679 36.5319 117.194 36.779C117.709 37.026 118.224 37.1702 118.718 37.026C119.357 37.026 119.995 36.9025 120.51 36.6349C121.025 36.3878 121.54 35.9967 122.035 35.482L123.312 36.7584C123.065 37.0055 122.673 37.3966 122.426 37.6437C122.035 37.8907 121.787 38.1583 121.396 38.2819C121.005 38.4054 120.634 38.673 120.119 38.673C119.604 39.1671 119.089 39.1671 118.595 39.1671Z" fill="#F1BC10"/>
<path d="M125.353 27.5559H127.269V32.2704H132.769V27.5559H134.808V39.0437H132.769V34.1851H127.269V39.0437H125.353V27.5559Z" fill="#F1BC10"/>
<path d="M141.833 27.4321H143.749L148.734 38.92H146.571L145.417 36.1201H140.062L138.908 38.92H136.869L141.833 27.4321ZM144.655 34.4525L142.739 29.8615L140.824 34.4525H144.655Z" fill="#F1BC10"/>
<path d="M150.771 27.5559H152.831V39.0437H150.771V27.5559Z" fill="#F1BC10"/>
<path d="M155.88 27.5559H157.672L163.81 35.4615V27.5559H165.85V39.0437H164.181L157.94 30.8705V39.0437H155.88V27.5559Z" fill="#F1BC10"/>
<path d="M25.221 38.2818V43.264L20.8746 45.8168L16.6518 43.264V38.2818L20.8746 40.8346L25.221 38.2818ZM1.9646 21.05L6.18742 23.6029V32.1467L13.4589 36.4907V41.4728L1.9646 34.6995V21.05ZM39.7846 21.05V34.7201L28.1667 41.4934V36.5112L35.4381 32.1673V23.6235L39.7846 21.05ZM28.1461 14.2767L32.4925 16.8296V21.8117L25.221 26.1557V34.8231L20.9982 37.3759L16.796 34.8231V26.1351L9.25669 21.7912V16.809L13.6031 14.2561L20.8746 18.6001L28.1461 14.2767ZM9.25669 25.3734L13.4795 27.9262V32.9084L9.25669 30.3556V25.3734ZM32.4925 25.3734V30.3556L28.2697 32.9084V27.9262L32.4925 25.3734ZM6.18742 9.93274L10.5338 12.4856L6.18742 15.0384V20.0206L1.9646 17.4678V12.4856L6.18742 9.93274ZM35.5617 9.93274L39.9082 12.4856V17.4678L35.5617 20.0206V15.0384L31.3389 12.4856L35.5617 9.93274ZM20.8746 9.93274L25.221 12.4856L20.8746 15.0384L16.6518 12.4856L20.8746 9.93274ZM20.8746 1.38892L32.4925 8.16221L28.2697 10.7151L20.9982 6.3711L13.5825 10.7151L9.35968 8.16221L20.8746 1.38892Z" fill="#F1BC10"/>
<path d="M187.023 6.9H189.939V19.5H187.023V6.9ZM181.299 19.5H178.383V6.9H181.299V19.5ZM187.239 14.334H181.083V11.868H187.239V14.334ZM191.264 19.5L196.88 6.9H199.76L205.394 19.5H202.334L197.726 8.376H198.878L194.252 19.5H191.264ZM194.072 16.8L194.846 14.586H201.326L202.118 16.8H194.072ZM212.556 19.716C211.584 19.716 210.678 19.56 209.838 19.248C209.01 18.924 208.29 18.468 207.678 17.88C207.066 17.292 206.586 16.602 206.238 15.81C205.902 15.018 205.734 14.148 205.734 13.2C205.734 12.252 205.902 11.382 206.238 10.59C206.586 9.798 207.066 9.108 207.678 8.52C208.302 7.932 209.028 7.482 209.856 7.17C210.684 6.846 211.59 6.684 212.574 6.684C213.666 6.684 214.65 6.876 215.526 7.26C216.414 7.632 217.158 8.184 217.758 8.916L215.886 10.644C215.454 10.152 214.974 9.786 214.446 9.546C213.918 9.294 213.342 9.168 212.718 9.168C212.13 9.168 211.59 9.264 211.098 9.456C210.606 9.648 210.18 9.924 209.82 10.284C209.46 10.644 209.178 11.07 208.974 11.562C208.782 12.054 208.686 12.6 208.686 13.2C208.686 13.8 208.782 14.346 208.974 14.838C209.178 15.33 209.46 15.756 209.82 16.116C210.18 16.476 210.606 16.752 211.098 16.944C211.59 17.136 212.13 17.232 212.718 17.232C213.342 17.232 213.918 17.112 214.446 16.872C214.974 16.62 215.454 16.242 215.886 15.738L217.758 17.466C217.158 18.198 216.414 18.756 215.526 19.14C214.65 19.524 213.66 19.716 212.556 19.716ZM222.337 16.62L222.175 13.254L228.205 6.9H231.445L226.009 12.75L224.389 14.478L222.337 16.62ZM219.727 19.5V6.9H222.625V19.5H219.727ZM228.349 19.5L223.867 14.01L225.775 11.94L231.751 19.5H228.349ZM230.815 19.5L236.431 6.9H239.311L244.945 19.5H241.885L237.277 8.376H238.429L233.803 19.5H230.815ZM233.623 16.8L234.397 14.586H240.877L241.669 16.8H233.623ZM248.229 19.5V9.276H244.197V6.9H255.177V9.276H251.145V19.5H248.229ZM265.386 6.9H268.302V19.5H265.386V6.9ZM259.662 19.5H256.746V6.9H259.662V19.5ZM265.602 14.334H259.446V11.868H265.602V14.334ZM277.404 19.716C276.408 19.716 275.484 19.554 274.632 19.23C273.792 18.906 273.06 18.45 272.436 17.862C271.824 17.274 271.344 16.584 270.996 15.792C270.66 15 270.492 14.136 270.492 13.2C270.492 12.264 270.66 11.4 270.996 10.608C271.344 9.816 271.83 9.126 272.454 8.538C273.078 7.95 273.81 7.494 274.65 7.17C275.49 6.846 276.402 6.684 277.386 6.684C278.382 6.684 279.294 6.846 280.122 7.17C280.962 7.494 281.688 7.95 282.3 8.538C282.924 9.126 283.41 9.816 283.758 10.608C284.106 11.388 284.28 12.252 284.28 13.2C284.28 14.136 284.106 15.006 283.758 15.81C283.41 16.602 282.924 17.292 282.3 17.88C281.688 18.456 280.962 18.906 280.122 19.23C279.294 19.554 278.388 19.716 277.404 19.716ZM277.386 17.232C277.95 17.232 278.466 17.136 278.934 16.944C279.414 16.752 279.834 16.476 280.194 16.116C280.554 15.756 280.83 15.33 281.022 14.838C281.226 14.346 281.328 13.8 281.328 13.2C281.328 12.6 281.226 12.054 281.022 11.562C280.83 11.07 280.554 10.644 280.194 10.284C279.846 9.924 279.432 9.648 278.952 9.456C278.472 9.264 277.95 9.168 277.386 9.168C276.822 9.168 276.3 9.264 275.82 9.456C275.352 9.648 274.938 9.924 274.578 10.284C274.218 10.644 273.936 11.07 273.732 11.562C273.54 12.054 273.444 12.6 273.444 13.2C273.444 13.788 273.54 14.334 273.732 14.838C273.936 15.33 274.212 15.756 274.56 16.116C274.92 16.476 275.34 16.752 275.82 16.944C276.3 17.136 276.822 17.232 277.386 17.232ZM286.471 19.5V6.9H288.883L296.317 15.972H295.147V6.9H298.027V19.5H295.633L288.181 10.428H289.351V19.5H286.471ZM181.407 39.5L177.285 26.9H180.309L183.891 38.06H182.379L186.123 26.9H188.823L192.423 38.06H190.965L194.637 26.9H197.427L193.305 39.5H190.173L186.987 29.708H187.815L184.539 39.5H181.407ZM199.055 39.5V26.9H201.971V39.5H199.055ZM204.961 39.5V26.9H207.373L214.807 35.972H213.637V26.9H216.517V39.5H214.123L206.671 30.428H207.841V39.5H204.961ZM219.498 39.5V26.9H221.91L229.344 35.972H228.174V26.9H231.054V39.5H228.66L221.208 30.428H222.378V39.5H219.498ZM236.718 31.976H242.784V34.244H236.718V31.976ZM236.934 37.16H243.792V39.5H234.036V26.9H243.558V29.24H236.934V37.16ZM246.112 39.5V26.9H251.566C252.694 26.9 253.666 27.086 254.482 27.458C255.298 27.818 255.928 28.34 256.372 29.024C256.816 29.708 257.038 30.524 257.038 31.472C257.038 32.408 256.816 33.218 256.372 33.902C255.928 34.574 255.298 35.09 254.482 35.45C253.666 35.81 252.694 35.99 251.566 35.99H247.732L249.028 34.712V39.5H246.112ZM254.122 39.5L250.972 34.928H254.086L257.272 39.5H254.122ZM249.028 35.036L247.732 33.668H251.404C252.304 33.668 252.976 33.476 253.42 33.092C253.864 32.696 254.086 32.156 254.086 31.472C254.086 30.776 253.864 30.236 253.42 29.852C252.976 29.468 252.304 29.276 251.404 29.276H247.732L249.028 27.89V35.036ZM263.488 39.716C262.48 39.716 261.514 39.584 260.59 39.32C259.666 39.044 258.922 38.69 258.358 38.258L259.348 36.062C259.888 36.446 260.524 36.764 261.256 37.016C262 37.256 262.75 37.376 263.506 37.376C264.082 37.376 264.544 37.322 264.892 37.214C265.252 37.094 265.516 36.932 265.684 36.728C265.852 36.524 265.936 36.29 265.936 36.026C265.936 35.69 265.804 35.426 265.54 35.234C265.276 35.03 264.928 34.868 264.496 34.748C264.064 34.616 263.584 34.496 263.056 34.388C262.54 34.268 262.018 34.124 261.49 33.956C260.974 33.788 260.5 33.572 260.068 33.308C259.636 33.044 259.282 32.696 259.006 32.264C258.742 31.832 258.61 31.28 258.61 30.608C258.61 29.888 258.802 29.234 259.186 28.646C259.582 28.046 260.17 27.572 260.95 27.224C261.742 26.864 262.732 26.684 263.92 26.684C264.712 26.684 265.492 26.78 266.26 26.972C267.028 27.152 267.706 27.428 268.294 27.8L267.394 30.014C266.806 29.678 266.218 29.432 265.63 29.276C265.042 29.108 264.466 29.024 263.902 29.024C263.338 29.024 262.876 29.09 262.516 29.222C262.156 29.354 261.898 29.528 261.742 29.744C261.586 29.948 261.508 30.188 261.508 30.464C261.508 30.788 261.64 31.052 261.904 31.256C262.168 31.448 262.516 31.604 262.948 31.724C263.38 31.844 263.854 31.964 264.37 32.084C264.898 32.204 265.42 32.342 265.936 32.498C266.464 32.654 266.944 32.864 267.376 33.128C267.808 33.392 268.156 33.74 268.42 34.172C268.696 34.604 268.834 35.15 268.834 35.81C268.834 36.518 268.636 37.166 268.24 37.754C267.844 38.342 267.25 38.816 266.458 39.176C265.678 39.536 264.688 39.716 263.488 39.716Z" fill="#082148"/>
</svg>
