<svg width="463" height="256" viewBox="0 0 463 256" fill="none" xmlns="http://www.w3.org/2000/svg">
<path d="M59.2088 83.4333H221.155L283.869 118.24L103.12 155.156L59.2088 120.35C45.3473 110.121 42.9512 91.6792 59.2088 83.4333Z" fill="url(#paint0_linear_2441_58532)"/>
<path d="M104.173 118.461H283.869C267.706 126.657 267.706 146.96 283.869 155.156H104.173C88.01 146.96 88.01 126.657 104.173 118.461Z" fill="black"/>
<path d="M73.3397 43.4017H235.285L298 78.2086L117.251 115.125L73.3397 80.3181C59.4781 70.0894 57.0821 51.6476 73.3397 43.4017Z" fill="url(#paint1_linear_2441_58532)"/>
<path d="M73.3397 43.4017H235.285L298 78.2086L117.251 115.125L73.3397 80.3181C59.4781 70.0894 57.0821 51.6476 73.3397 43.4017Z" fill="url(#paint2_linear_2441_58532)" fill-opacity="0.2"/>
<path d="M118.304 78.4293H297.999C281.836 86.6259 281.836 106.928 297.999 115.125H118.304C102.141 106.928 102.141 86.6259 118.304 78.4293Z" fill="black"/>
<path d="M38.3125 0.0341797H200.258L262.973 34.841L82.2241 71.7573L38.3125 36.9505C24.451 26.7219 22.0549 8.28005 38.3125 0.0341797Z" fill="url(#paint3_linear_2441_58532)"/>
<path d="M83.2765 35.0618H262.972C246.809 43.2583 246.809 63.5608 262.972 71.7573H83.2765C67.1136 63.5608 67.1136 43.2583 83.2765 35.0618Z" fill="black"/>
<path opacity="0.3" d="M272.193 78.4293L263.019 71.7574H105.395L117.904 78.4293H272.193Z" fill="black"/>
<path opacity="0.3" d="M283.869 118.461L274.42 111.789H112.067L124.953 118.461H283.869Z" fill="black"/>
<path d="M127.5 182C123.5 182 101 169.5 103.5 154.5H282C282 154.5 281 164.5 290.5 171.5C300 178.5 322 182 322 182H345.5C344 198 393.5 212.5 414 214H387C385.5 240 440.167 249.333 462.5 250.5L218.5 255.5C183.5 246.5 176.5 225 176.5 214H195.5C170.5 209 160.833 186.333 160 182H127.5Z" fill="url(#paint4_linear_2441_58532)"/>
<defs>
<linearGradient id="paint0_linear_2441_58532" x1="90.8965" y1="83.3991" x2="107.052" y2="140.313" gradientUnits="userSpaceOnUse">
<stop stop-color="#0C5167"/>
<stop offset="0.648623" stop-color="#042D3A"/>
<stop offset="1" stop-color="#011C24"/>
</linearGradient>
<linearGradient id="paint1_linear_2441_58532" x1="83.2848" y1="43.4017" x2="83.2848" y2="96.6667" gradientUnits="userSpaceOnUse">
<stop stop-color="#655C83"/>
<stop offset="0.274137" stop-color="#3B3258"/>
<stop offset="1" stop-color="#1B1532"/>
</linearGradient>
<linearGradient id="paint2_linear_2441_58532" x1="46.8925" y1="67.661" x2="166.516" y2="82.9477" gradientUnits="userSpaceOnUse">
<stop stop-color="#60577D"/>
<stop offset="1" stop-color="#30284B"/>
</linearGradient>
<linearGradient id="paint3_linear_2441_58532" x1="70" y1="1.33326e-06" x2="86.1557" y2="56.914" gradientUnits="userSpaceOnUse">
<stop stop-color="#0C5167"/>
<stop offset="0.648623" stop-color="#042D3A"/>
<stop offset="1" stop-color="#011C24"/>
</linearGradient>
<linearGradient id="paint4_linear_2441_58532" x1="198" y1="146.5" x2="210.271" y2="322.89" gradientUnits="userSpaceOnUse">
<stop stop-color="#342B4B"/>
<stop offset="1" stop-color="#39304F" stop-opacity="0"/>
</linearGradient>
</defs>
</svg>
