<svg width="463" height="256" viewBox="0 0 463 256" fill="none"
	xmlns="http://www.w3.org/2000/svg">
	<path d="M59.2088 83.4336H221.155L283.869 118.24L103.12 155.157L59.2088 120.35C45.3473 110.121 42.9512 91.6795 59.2088 83.4336Z" fill="url(#paint0_linear_14_7510)"/>
	<path d="M104.171 118.461H283.867L-nan -nanL283.867 118.461C267.704 126.657 267.704 146.96 283.867 155.157L-nan -nanL283.867 155.157H104.171L-nan -nanL104.171 155.157C88.0081 146.96 88.0081 126.657 104.171 118.461L-nan -nanL104.171 118.461Z" fill="black"/>
	<path d="M73.3397 43.4023H235.285L298 78.2092L117.251 115.126L73.3397 80.3187C59.4781 70.09 57.0821 51.6482 73.3397 43.4023Z" fill="url(#paint1_linear_14_7510)"/>
	<path d="M73.3397 43.4023H235.285L298 78.2092L117.251 115.126L73.3397 80.3187C59.4781 70.09 57.0821 51.6482 73.3397 43.4023Z" fill="url(#paint2_linear_14_7510)" fill-opacity="0.2"/>
	<path d="M118.306 78.4297H298.001L-nan -nanL298.001 78.4297C281.838 86.6262 281.838 106.929 298.001 115.125L-nan -nanL298.001 115.125H118.306L-nan -nanL118.306 115.125C102.143 106.929 102.143 86.6262 118.306 78.4297L-nan -nanL118.306 78.4297Z" fill="black"/>
	<path d="M38.3123 0.0351562H200.258L262.972 34.842L82.2239 71.7583L38.3123 36.9515C24.4508 26.7228 22.0547 8.28102 38.3123 0.0351562Z" fill="url(#paint3_linear_14_7510)"/>
	<path d="M83.2784 35.0625H262.974L-nan -nanL262.974 35.0625C246.811 43.2591 246.811 63.5615 262.974 71.7581L-nan -nanL262.974 71.7581H83.2784L-nan -nanL83.2784 71.7581C67.1155 63.5615 67.1155 43.2591 83.2784 35.0625L-nan -nanL83.2784 35.0625Z" fill="black"/>
	<path opacity="0.3" d="M272.193 78.4297L263.019 71.7578H105.395L117.904 78.4297H272.193Z" fill="black"/>
	<path opacity="0.3" d="M283.868 118.461L274.419 111.789H112.066L124.952 118.461H283.868Z" fill="black"/>
	<path d="M127.5 182C123.5 182 101 169.5 103.5 154.5H282C282 154.5 281 164.5 290.5 171.5C300 178.5 322 182 322 182H345.5C344 198 393.5 212.5 414 214H387C385.5 240 440.167 249.333 462.5 250.5L218.5 255.5C183.5 246.5 176.5 225 176.5 214H195.5C170.5 209 160.833 186.333 160 182H127.5Z" fill="url(#paint4_linear_14_7510)"/>
	<defs>
		<linearGradient id="paint0_linear_14_7510" x1="90.8965" y1="83.3994" x2="107.052" y2="140.313" gradientUnits="userSpaceOnUse">
			<stop stop-color="#0C5167"/>
			<stop offset="0.648623" stop-color="#042D3A"/>
			<stop offset="1" stop-color="#011C24"/>
		</linearGradient>
		<linearGradient id="paint1_linear_14_7510" x1="83.2848" y1="43.4023" x2="83.2848" y2="96.6673" gradientUnits="userSpaceOnUse">
			<stop stop-color="#655C83"/>
			<stop offset="0.274137" stop-color="#3B3258"/>
			<stop offset="1" stop-color="#1B1532"/>
		</linearGradient>
		<linearGradient id="paint2_linear_14_7510" x1="46.8925" y1="67.6616" x2="166.516" y2="82.9483" gradientUnits="userSpaceOnUse">
			<stop stop-color="#60577D"/>
			<stop offset="1" stop-color="#30284B"/>
		</linearGradient>
		<linearGradient id="paint3_linear_14_7510" x1="70" y1="0.000976759" x2="86.1557" y2="56.915" gradientUnits="userSpaceOnUse">
			<stop stop-color="#0C5167"/>
			<stop offset="0.648623" stop-color="#042D3A"/>
			<stop offset="1" stop-color="#011C24"/>
		</linearGradient>
		<linearGradient id="paint4_linear_14_7510" x1="198" y1="146.5" x2="210.271" y2="322.89" gradientUnits="userSpaceOnUse">
			<stop stop-color="#342B4B"/>
			<stop offset="1" stop-color="#39304F" stop-opacity="0"/>
		</linearGradient>
	</defs>
</svg>
