<svg width="485" height="169" viewBox="0 0 485 169" fill="none" xmlns="http://www.w3.org/2000/svg">
<path d="M8.05406 100.741C8.05406 100.741 2.74682 106.478 1.82881 110.781C0.910804 115.085 0.551928 119.402 1.82853 121.425C3.10514 123.447 13.118 128.224 28.136 130.031C43.1541 131.838 75.0119 133.689 87.6489 129.845C100.286 126 120.855 116.792 129.102 114.052C137.35 111.312 162.61 104.011 164.446 100.31C166.282 96.6097 162.969 77.6758 162.969 77.6758L62.4461 95.6774L8.05406 100.741Z" fill="url(#paint0_linear_14_6923)"/>
<path d="M154.361 2.2272C151.284 1.28256 148.036 1.03271 144.851 1.49566C140.448 2.39933 126.907 8.99752 122.317 8.66761C117.727 8.3377 109.866 7.01806 107.858 8.48114C105.85 9.94422 93.0266 40.7119 89.541 44.3409L128.915 32.0769L154.361 14.3048V2.2272Z" fill="#011C24"/>
<path d="M163.256 81.7785C158.25 85.6226 139.948 89.3377 124.7 96.6961C107.674 104.944 77.4656 111.714 71.6276 111.528C69.1318 111.456 59.8369 110.911 49.2798 109.993L48.0033 109.878C34.0323 108.63 18.2396 106.737 13.0328 104.384C4.12521 100.368 13.0327 96.524 25.5119 93.311L27.3193 92.8519C40.6878 89.5528 65.0438 67.7645 71.4555 63.1888C77.8672 58.6131 92.4837 40.1238 99.9568 29.5093C107.43 18.8948 119.766 0.563281 121.473 1.00794C122.663 1.28048 132.704 8.43808 136.319 12.1245L138.685 14.4912L153.904 22.1078C153.363 25.6187 153.142 29.1715 153.244 32.7223C153.876 36.6525 163.4 75.6536 163.586 78.6228C163.587 79.6833 163.476 80.7409 163.256 81.7785V81.7785Z" fill="#011C24"/>
<path d="M47.9739 109.893C34.0029 108.645 18.2103 106.752 13.0035 104.4C4.0959 100.383 13.0035 96.5392 25.4827 93.3262C33.9743 94.7892 45.2055 98.8342 47.9739 109.893Z" fill="#054C62"/>
<path d="M163.255 81.7791C158.249 85.6233 139.947 89.3384 124.699 96.6968C107.673 104.945 77.4645 111.715 71.6266 111.528C69.1307 111.457 59.8359 110.912 49.2787 109.994C49.2787 108.072 49.0636 96.0943 50.7131 93.2256C52.5492 90.1129 66.2763 83.5147 86.9746 68.1381C107.673 52.7614 116.265 14.8505 120.109 11.9243C122.978 9.68667 130.465 11.3362 136.246 12.0391C137.816 12.28 139.407 12.3617 140.994 12.2829C154.606 11.1498 154.348 2.24219 154.348 2.24219C155.366 3.34667 155.366 5.54128 155.538 7.2769C155.653 8.29531 154.592 15.5246 153.831 22.1228C153.29 25.6337 153.069 29.1865 153.172 32.7373C153.803 36.6676 163.327 75.6686 163.514 78.6378C163.537 79.691 163.45 80.7438 163.255 81.7791V81.7791Z" fill="url(#paint1_linear_14_6923)"/>
<path d="M42.3066 84.074C42.3066 84.074 53.2941 88.8362 54.5707 94.5163C55.8473 100.197 53.8392 78.738 52.5626 76.7442C51.286 74.7504 65.5581 86.6415 65.7446 88.2194C65.9311 89.7972 65.013 69.9022 62.9905 68.4391C60.968 66.976 75.6275 81.9941 75.441 82.9121C75.2545 83.8301 76.8754 61.2959 75.0824 59.1012C73.2894 56.9066 86.9879 74.6644 86.8015 75.3959C86.615 76.1275 86.9879 50.3084 85.1519 49.2183C83.3158 48.1282 97.086 64.1216 97.086 65.2117C97.086 66.3019 96.168 38.8476 93.9734 37.3846C91.7788 35.9215 105.692 52.6465 105.291 53.3063C104.889 53.9661 102.91 31.8909 100.901 30.9728C98.8933 30.0548 112.377 36.7104 112.377 37.7432C112.377 38.7759 107.614 21.262 105.965 20.717C104.315 20.1719 118.415 21.9936 119.52 25.1062" stroke="#054C62" stroke-width="4.30317" stroke-linecap="round" stroke-linejoin="round"/>
<path d="M164 94C164 94 154.219 97.8436 148.022 99.8087C144.221 101.028 140.276 102.29 136.547 103.624C121.572 108.903 93.1901 120.025 93.1901 120.025L91.8418 117.5C91.8418 117.5 120.367 106.192 135.557 100.913C139.373 99.5649 143.332 98.3026 147.161 97.0691C153.717 94.9748 163.5 90.5 163.5 90.5L164 94Z" fill="#084157"/>
<path d="M261.831 146H110.48L117.501 89.0002C117.501 89.0002 347.667 83.2298 353.495 89.0002C359.322 94.7705 360.282 106.947 341.501 111C318.024 116.067 279.501 146 261.831 146Z" fill="url(#paint2_linear_14_6923)"/>
<path d="M62.0541 114.741C62.0541 114.741 56.7468 120.478 55.8288 124.781C54.9108 129.085 54.5519 133.402 55.8285 135.425C57.1051 137.447 67.118 142.224 82.136 144.031C97.1541 145.838 129.012 147.689 141.649 143.845C154.286 140 174.855 130.792 183.102 128.052C191.35 125.312 216.61 118.011 218.446 114.31C220.282 110.61 216.969 91.6758 216.969 91.6758L116.446 109.677L62.0541 114.741Z" fill="url(#paint3_linear_14_6923)"/>
<path d="M208.361 16.2272C205.284 15.2826 202.036 15.0327 198.851 15.4957C194.448 16.3993 180.907 22.9975 176.317 22.6676C171.727 22.3377 163.866 21.0181 161.858 22.4811C159.85 23.9442 147.027 54.7119 143.541 58.3409L182.915 46.0769L208.361 28.3048V16.2272Z" fill="#011C24"/>
<path d="M217.256 95.7785C212.25 99.6226 193.948 103.338 178.7 110.696C161.674 118.944 131.466 125.714 125.628 125.528C123.132 125.456 113.837 124.911 103.28 123.993L102.003 123.878C88.0323 122.63 72.2396 120.737 67.0328 118.384C58.1252 114.368 67.0327 110.524 79.5119 107.311L81.3193 106.852C94.6878 103.553 119.044 81.7645 125.456 77.1888C131.867 72.6131 146.484 54.1238 153.957 43.5093C161.43 32.8948 173.766 14.5633 175.473 15.0079C176.663 15.2805 186.704 22.4381 190.319 26.1245L192.685 28.4912L207.904 36.1078C207.363 39.6187 207.142 43.1715 207.244 46.7223C207.876 50.6525 217.4 89.6536 217.586 92.6228C217.587 93.6833 217.476 94.7409 217.256 95.7785V95.7785Z" fill="#011C24"/>
<path d="M101.974 123.893C88.0029 122.645 72.2103 120.752 67.0035 118.4C58.0959 114.383 67.0035 110.539 79.4827 107.326C87.9743 108.789 99.2055 112.834 101.974 123.893Z" fill="#054C62"/>
<path d="M217.255 95.7791C212.249 99.6233 193.947 103.338 178.699 110.697C161.673 118.945 131.465 125.715 125.627 125.528C123.131 125.457 113.836 124.912 103.279 123.994C103.279 122.072 103.064 110.094 104.713 107.226C106.549 104.113 120.276 97.5147 140.975 82.1381C161.673 66.7614 170.265 28.8505 174.109 25.9243C176.978 23.6867 184.465 25.3362 190.246 26.0391C191.816 26.28 193.407 26.3617 194.994 26.2829C208.606 25.1498 208.348 16.2422 208.348 16.2422C209.366 17.3467 209.366 19.5413 209.538 21.2769C209.653 22.2953 208.592 29.5246 207.831 36.1228C207.29 39.6337 207.069 43.1865 207.172 46.7373C207.803 50.6676 217.327 89.6686 217.514 92.6378C217.537 93.691 217.45 94.7438 217.255 95.7791V95.7791Z" fill="url(#paint4_linear_14_6923)"/>
<path d="M96.3066 98.074C96.3066 98.074 107.294 102.836 108.571 108.516C109.847 114.197 107.839 92.738 106.563 90.7442C105.286 88.7504 119.558 100.642 119.745 102.219C119.931 103.797 119.013 83.9022 116.991 82.4391C114.968 80.976 129.627 95.9941 129.441 96.9121C129.255 97.8301 130.875 75.2959 129.082 73.1012C127.289 70.9066 140.988 88.6644 140.801 89.3959C140.615 90.1275 140.988 64.3084 139.152 63.2183C137.316 62.1282 151.086 78.1216 151.086 79.2117C151.086 80.3019 150.168 52.8476 147.973 51.3846C145.779 49.9215 159.692 66.6465 159.291 67.3063C158.889 67.9661 156.91 45.8909 154.901 44.9728C152.893 44.0548 166.377 50.7104 166.377 51.7432C166.377 52.7759 161.614 35.262 159.965 34.717C158.315 34.1719 172.415 35.9936 173.52 39.1062" stroke="#054C62" stroke-width="4.30317" stroke-linecap="round" stroke-linejoin="round"/>
<path d="M218 108C218 108 208.219 111.844 202.022 113.809C198.221 115.028 194.276 116.29 190.547 117.624C175.572 122.903 147.19 134.025 147.19 134.025L145.842 131.5C145.842 131.5 174.367 120.192 189.557 114.913C193.373 113.565 197.332 112.303 201.161 111.069C207.717 108.975 217.5 104.5 217.5 104.5L218 108Z" fill="#084157"/>
<path d="M135.054 122.741C135.054 122.741 129.747 128.478 128.829 132.781C127.911 137.085 127.552 141.402 128.829 143.425C130.105 145.447 140.118 150.224 155.136 152.031C170.154 153.838 202.012 155.689 214.649 151.845C227.286 148 247.855 138.792 256.102 136.052C264.35 133.312 289.61 126.011 291.446 122.31C293.282 118.61 289.969 99.6758 289.969 99.6758L189.446 117.677L135.054 122.741Z" fill="url(#paint5_linear_14_6923)"/>
<path d="M281.361 24.2272C278.284 23.2826 275.036 23.0327 271.851 23.4957C267.448 24.3993 253.907 30.9975 249.317 30.6676C244.727 30.3377 236.866 29.0181 234.858 30.4811C232.85 31.9442 220.027 62.7119 216.541 66.3409L255.915 54.0769L281.361 36.3048V24.2272Z" fill="#1F1045"/>
<path d="M290.256 103.778C285.25 107.623 266.948 111.338 251.7 118.696C234.674 126.944 204.466 133.714 198.628 133.528C196.132 133.456 186.837 132.911 176.28 131.993L175.003 131.878C161.032 130.63 145.24 128.737 140.033 126.384C131.125 122.368 140.033 118.524 152.512 115.311L154.319 114.852C167.688 111.553 192.044 89.7645 198.456 85.1888C204.867 80.6131 219.484 62.1238 226.957 51.5093C234.43 40.8948 246.766 22.5633 248.473 23.0079C249.663 23.2805 259.704 30.4381 263.319 34.1245L265.685 36.4912L280.904 44.1078C280.363 47.6187 280.142 51.1715 280.244 54.7223C280.876 58.6525 290.4 97.6536 290.586 100.623C290.587 101.683 290.476 102.741 290.256 103.778V103.778Z" fill="#020006"/>
<path d="M174.974 131.893C161.003 130.645 145.21 128.752 140.003 126.4C131.096 122.383 140.003 118.539 152.483 115.326C160.974 116.789 172.206 120.834 174.974 131.893Z" fill="#5F4E9A"/>
<path d="M290.255 103.779C285.249 107.623 266.947 111.338 251.699 118.697C234.673 126.945 204.465 133.715 198.627 133.528C196.131 133.457 186.836 132.912 176.279 131.994C176.279 130.072 176.064 118.094 177.713 115.226C179.549 112.113 193.276 105.515 213.975 90.1381C234.673 74.7614 243.265 36.8505 247.109 33.9243C249.978 31.6867 257.465 33.3362 263.246 34.0391C264.816 34.28 266.407 34.3617 267.994 34.2829C281.606 33.1498 281.348 24.2422 281.348 24.2422C282.366 25.3467 282.366 27.5413 282.538 29.2769C282.653 30.2953 281.592 37.5246 280.831 44.1228C280.29 47.6337 280.069 51.1865 280.172 54.7373C280.803 58.6676 290.327 97.6686 290.514 100.638C290.537 101.691 290.45 102.744 290.255 103.779V103.779Z" fill="url(#paint6_linear_14_6923)"/>
<path d="M169.307 106.074C169.307 106.074 180.294 110.836 181.571 116.516C182.847 122.197 180.839 100.738 179.563 98.7442C178.286 96.7504 192.558 108.642 192.745 110.219C192.931 111.797 192.013 91.9022 189.991 90.4391C187.968 88.976 202.627 103.994 202.441 104.912C202.255 105.83 203.875 83.2959 202.082 81.1012C200.289 78.9066 213.988 96.6644 213.801 97.3959C213.615 98.1275 213.988 72.3084 212.152 71.2183C210.316 70.1282 224.086 86.1216 224.086 87.2117C224.086 88.3019 223.168 60.8476 220.973 59.3846C218.779 57.9215 232.692 74.6465 232.291 75.3063C231.889 75.9661 229.91 53.8909 227.901 52.9728C225.893 52.0548 239.377 58.7104 239.377 59.7432C239.377 60.7759 234.614 43.262 232.965 42.717C231.315 42.1719 245.415 43.9936 246.52 47.1062" stroke="#403569" stroke-width="4.30317" stroke-linecap="round" stroke-linejoin="round"/>
<path d="M291 116C291 116 281.219 119.844 275.022 121.809C271.221 123.028 267.276 124.29 263.547 125.624C248.572 130.903 220.19 142.025 220.19 142.025L218.842 139.5C218.842 139.5 247.367 128.192 262.557 122.913C266.373 121.565 270.332 120.303 274.161 119.069C280.717 116.975 290.5 112.5 290.5 112.5L291 116Z" fill="#1F1045"/>
<path d="M388.831 168H237.48L244.501 111C244.501 111 474.667 105.23 480.495 111C486.322 116.771 487.282 128.947 468.501 133C445.024 138.067 406.501 168 388.831 168Z" fill="url(#paint7_linear_14_6923)"/>
<path d="M189.054 136.741C189.054 136.741 183.747 142.478 182.829 146.781C181.911 151.085 181.552 155.402 182.829 157.425C184.105 159.447 194.118 164.224 209.136 166.031C224.154 167.838 256.012 169.689 268.649 165.845C281.286 162 301.855 152.792 310.102 150.052C318.35 147.312 343.61 140.011 345.446 136.31C347.282 132.61 343.969 113.676 343.969 113.676L243.446 131.677L189.054 136.741Z" fill="url(#paint8_linear_14_6923)"/>
<path d="M335.361 38.2272C332.284 37.2826 329.036 37.0327 325.851 37.4957C321.448 38.3993 307.907 44.9975 303.317 44.6676C298.727 44.3377 290.866 43.0181 288.858 44.4811C286.85 45.9442 274.027 76.7119 270.541 80.3409L309.915 68.0769L335.361 50.3048V38.2272Z" fill="#1F1045"/>
<path d="M344.256 117.778C339.25 121.623 320.948 125.338 305.7 132.696C288.674 140.944 258.466 147.714 252.628 147.528C250.132 147.456 240.837 146.911 230.28 145.993L229.003 145.878C215.032 144.63 199.24 142.737 194.033 140.384C185.125 136.368 194.033 132.524 206.512 129.311L208.319 128.852C221.688 125.553 246.044 103.764 252.456 99.1888C258.867 94.6131 273.484 76.1238 280.957 65.5093C288.43 54.8948 300.766 36.5633 302.473 37.0079C303.663 37.2805 313.704 44.4381 317.319 48.1245L319.685 50.4912L334.904 58.1078C334.363 61.6187 334.142 65.1715 334.244 68.7223C334.876 72.6525 344.4 111.654 344.586 114.623C344.587 115.683 344.476 116.741 344.256 117.778V117.778Z" fill="#020006"/>
<path d="M228.974 145.893C215.003 144.645 199.21 142.752 194.003 140.4C185.096 136.383 194.003 132.539 206.483 129.326C214.974 130.789 226.206 134.834 228.974 145.893Z" fill="#5F4E9A"/>
<path d="M344.255 117.779C339.249 121.623 320.947 125.338 305.699 132.697C288.673 140.945 258.465 147.715 252.627 147.528C250.131 147.457 240.836 146.912 230.279 145.994C230.279 144.072 230.064 132.094 231.713 129.226C233.549 126.113 247.276 119.515 267.975 104.138C288.673 88.7614 297.265 50.8505 301.109 47.9243C303.978 45.6867 311.465 47.3362 317.246 48.0391C318.816 48.28 320.407 48.3617 321.994 48.2829C335.606 47.1498 335.348 38.2422 335.348 38.2422C336.366 39.3467 336.366 41.5413 336.538 43.2769C336.653 44.2953 335.592 51.5246 334.831 58.1228C334.29 61.6337 334.069 65.1865 334.172 68.7373C334.803 72.6676 344.327 111.669 344.514 114.638C344.537 115.691 344.45 116.744 344.255 117.779V117.779Z" fill="url(#paint9_linear_14_6923)"/>
<path d="M223.307 120.074C223.307 120.074 234.294 124.836 235.571 130.516C236.847 136.197 234.839 114.738 233.563 112.744C232.286 110.75 246.558 122.642 246.745 124.219C246.931 125.797 246.013 105.902 243.991 104.439C241.968 102.976 256.627 117.994 256.441 118.912C256.255 119.83 257.875 97.2959 256.082 95.1012C254.289 92.9066 267.988 110.664 267.801 111.396C267.615 112.127 267.988 86.3084 266.152 85.2183C264.316 84.1282 278.086 100.122 278.086 101.212C278.086 102.302 277.168 74.8476 274.973 73.3846C272.779 71.9215 286.692 88.6465 286.291 89.3063C285.889 89.9661 283.91 67.8909 281.901 66.9728C279.893 66.0548 293.377 72.7104 293.377 73.7432C293.377 74.7759 288.614 57.262 286.965 56.717C285.315 56.1719 299.415 57.9936 300.52 61.1062" stroke="#403569" stroke-width="4.30317" stroke-linecap="round" stroke-linejoin="round"/>
<path d="M345 130C345 130 335.219 133.844 329.022 135.809C325.221 137.028 321.276 138.29 317.547 139.624C302.572 144.903 274.19 156.025 274.19 156.025L272.842 153.5C272.842 153.5 301.367 142.192 316.557 136.913C320.373 135.565 324.332 134.303 328.161 133.069C334.717 130.975 344.5 126.5 344.5 126.5L345 130Z" fill="#1F1045"/>
<defs>
<linearGradient id="paint0_linear_14_6923" x1="5" y1="113.5" x2="162.5" y2="91.9997" gradientUnits="userSpaceOnUse">
<stop stop-color="#276D83"/>
<stop offset="0.197917" stop-color="#287F9A"/>
</linearGradient>
<linearGradient id="paint1_linear_14_6923" x1="82.5" y1="57.0007" x2="156.5" y2="49.5007" gradientUnits="userSpaceOnUse">
<stop stop-color="#032E3C"/>
<stop offset="0.648623" stop-color="#042D3A"/>
<stop offset="1" stop-color="#011C24"/>
</linearGradient>
<linearGradient id="paint2_linear_14_6923" x1="212.38" y1="110.956" x2="326.767" y2="110.956" gradientUnits="userSpaceOnUse">
<stop stop-color="#342B4B"/>
<stop offset="1" stop-color="#39304F" stop-opacity="0"/>
</linearGradient>
<linearGradient id="paint3_linear_14_6923" x1="59" y1="127.5" x2="216.5" y2="106" gradientUnits="userSpaceOnUse">
<stop stop-color="#276D83"/>
<stop offset="0.197917" stop-color="#287F9A"/>
</linearGradient>
<linearGradient id="paint4_linear_14_6923" x1="136.5" y1="71.0007" x2="210.5" y2="63.5007" gradientUnits="userSpaceOnUse">
<stop stop-color="#032E3C"/>
<stop offset="0.648623" stop-color="#042D3A"/>
<stop offset="1" stop-color="#011C24"/>
</linearGradient>
<linearGradient id="paint5_linear_14_6923" x1="171.5" y1="145.5" x2="289.5" y2="114" gradientUnits="userSpaceOnUse">
<stop stop-color="#9287B7"/>
<stop offset="0.161458" stop-color="#7B6FA4"/>
<stop offset="1" stop-color="#4D3E7E"/>
</linearGradient>
<linearGradient id="paint6_linear_14_6923" x1="209.5" y1="79.0007" x2="283.5" y2="71.5007" gradientUnits="userSpaceOnUse">
<stop stop-color="#231741"/>
<stop offset="0.648623" stop-color="#190E33"/>
<stop offset="1" stop-color="#11072B"/>
</linearGradient>
<linearGradient id="paint7_linear_14_6923" x1="339.38" y1="132.956" x2="453.767" y2="132.956" gradientUnits="userSpaceOnUse">
<stop stop-color="#342B4B"/>
<stop offset="1" stop-color="#39304F" stop-opacity="0"/>
</linearGradient>
<linearGradient id="paint8_linear_14_6923" x1="225.5" y1="159.5" x2="343.5" y2="128" gradientUnits="userSpaceOnUse">
<stop stop-color="#9287B7"/>
<stop offset="0.161458" stop-color="#7B6FA4"/>
<stop offset="1" stop-color="#4D3E7E"/>
</linearGradient>
<linearGradient id="paint9_linear_14_6923" x1="263.5" y1="93.0007" x2="337.5" y2="85.5007" gradientUnits="userSpaceOnUse">
<stop stop-color="#231741"/>
<stop offset="0.648623" stop-color="#190E33"/>
<stop offset="1" stop-color="#11072B"/>
</linearGradient>
</defs>
</svg>
