<svg width="1060" height="80" viewBox="0 0 1060 80" fill="none" xmlns="http://www.w3.org/2000/svg">
<g clip-path="url(#clip0_2392_73235)">
<rect y="-585" width="1060" height="665.319" rx="10" fill="url(#paint0_linear_2392_73235)"/>
<rect y="-0.496582" width="1060" height="80.8156" fill="#191629"/>
<rect x="430.391" y="27.6951" width="199.22" height="24.4326" rx="0.939716" fill="#ADADAD"/>
<rect x="788.422" y="15.4788" width="3.75887" height="3.75887" fill="#332E50"/>
<rect x="795.939" y="15.4788" width="3.75887" height="3.75887" fill="#332E50"/>
<rect x="803.457" y="15.4788" width="3.75887" height="3.75887" fill="#332E50"/>
<rect x="810.975" y="15.4788" width="3.75887" height="3.75887" fill="#332E50"/>
<rect x="818.492" y="15.4788" width="3.75887" height="3.75887" fill="#332E50"/>
<rect x="826.01" y="15.4788" width="3.75887" height="3.75887" fill="#332E50"/>
<rect x="833.529" y="15.4788" width="3.75887" height="3.75887" fill="#332E50"/>
<rect x="841.047" y="15.4788" width="3.75887" height="3.75887" fill="#332E50"/>
<rect x="848.564" y="15.4788" width="3.75887" height="3.75887" fill="#332E50"/>
<rect x="856.082" y="15.4788" width="3.75887" height="3.75887" fill="#332E50"/>
<rect x="863.6" y="15.4788" width="3.75887" height="3.75887" fill="#332E50"/>
<rect x="871.117" y="15.4788" width="3.75887" height="3.75887" fill="#332E50"/>
<rect x="878.635" y="15.4788" width="3.75887" height="3.75887" fill="#332E50"/>
<rect x="886.152" y="15.4788" width="3.75887" height="3.75887" fill="#332E50"/>
<rect x="893.67" y="15.4788" width="3.75887" height="3.75887" fill="#332E50"/>
<rect x="901.188" y="15.4788" width="3.75887" height="3.75887" fill="#332E50"/>
<rect x="908.705" y="15.4788" width="3.75887" height="3.75887" fill="#332E50"/>
<rect x="916.223" y="15.4788" width="3.75887" height="3.75887" fill="#332E50"/>
<rect x="923.74" y="15.4788" width="3.75887" height="3.75887" fill="#332E50"/>
<rect x="931.26" y="15.4788" width="3.75887" height="3.75887" fill="#332E50"/>
<rect x="938.777" y="15.4788" width="3.75887" height="3.75887" fill="#332E50"/>
<rect x="946.295" y="15.4788" width="3.75887" height="3.75887" fill="#332E50"/>
<rect x="953.812" y="15.4788" width="3.75887" height="3.75887" fill="#332E50"/>
<rect x="961.33" y="15.4788" width="3.75887" height="3.75887" fill="#332E50"/>
<rect x="968.848" y="15.4788" width="3.75887" height="3.75887" fill="#332E50"/>
<rect x="976.365" y="15.4788" width="3.75887" height="3.75887" fill="#332E50"/>
<rect x="788.422" y="22.9963" width="3.75887" height="3.75887" fill="#332E50"/>
<rect x="795.939" y="22.9963" width="3.75887" height="3.75887" fill="#332E50"/>
<rect x="803.457" y="22.9963" width="3.75887" height="3.75887" fill="#332E50"/>
<rect x="810.975" y="22.9963" width="3.75887" height="3.75887" fill="#332E50"/>
<rect x="818.492" y="22.9963" width="3.75887" height="3.75887" fill="#332E50"/>
<rect x="826.01" y="22.9963" width="3.75887" height="3.75887" fill="#332E50"/>
<rect x="833.529" y="22.9963" width="3.75887" height="3.75887" fill="#332E50"/>
<rect x="841.047" y="22.9963" width="3.75887" height="3.75887" fill="#332E50"/>
<rect x="848.564" y="22.9963" width="3.75887" height="3.75887" fill="#332E50"/>
<rect x="856.082" y="22.9963" width="3.75887" height="3.75887" fill="#332E50"/>
<rect x="863.6" y="22.9963" width="3.75887" height="3.75887" fill="#332E50"/>
<rect x="871.117" y="22.9963" width="3.75887" height="3.75887" fill="#332E50"/>
<rect x="878.635" y="22.9963" width="3.75887" height="3.75887" fill="#332E50"/>
<rect x="886.152" y="22.9963" width="3.75887" height="3.75887" fill="#332E50"/>
<rect x="893.67" y="22.9963" width="3.75887" height="3.75887" fill="#332E50"/>
<rect x="901.188" y="22.9963" width="3.75887" height="3.75887" fill="#332E50"/>
<rect x="908.705" y="22.9963" width="3.75887" height="3.75887" fill="#332E50"/>
<rect x="916.223" y="22.9963" width="3.75887" height="3.75887" fill="#332E50"/>
<rect x="923.74" y="22.9963" width="3.75887" height="3.75887" fill="#332E50"/>
<rect x="931.26" y="22.9963" width="3.75887" height="3.75887" fill="#332E50"/>
<rect x="938.777" y="22.9963" width="3.75887" height="3.75887" fill="#332E50"/>
<rect x="946.295" y="22.9963" width="3.75887" height="3.75887" fill="#332E50"/>
<rect x="953.812" y="22.9963" width="3.75887" height="3.75887" fill="#332E50"/>
<rect x="961.33" y="22.9963" width="3.75887" height="3.75887" fill="#332E50"/>
<rect x="968.848" y="22.9963" width="3.75887" height="3.75887" fill="#332E50"/>
<rect x="976.365" y="22.9963" width="3.75887" height="3.75887" fill="#332E50"/>
<rect x="788.422" y="30.5142" width="3.75887" height="3.75887" fill="#332E50"/>
<rect x="795.939" y="30.5142" width="3.75887" height="3.75887" fill="#332E50"/>
<rect x="803.457" y="30.5142" width="3.75887" height="3.75887" fill="#332E50"/>
<rect x="810.975" y="30.5142" width="3.75887" height="3.75887" fill="#332E50"/>
<rect x="818.492" y="30.5142" width="3.75887" height="3.75887" fill="#332E50"/>
<rect x="826.01" y="30.5142" width="3.75887" height="3.75887" fill="#332E50"/>
<rect x="833.529" y="30.5142" width="3.75887" height="3.75887" fill="#332E50"/>
<rect x="841.047" y="30.5142" width="3.75887" height="3.75887" fill="#332E50"/>
<rect x="848.564" y="30.5142" width="3.75887" height="3.75887" fill="#332E50"/>
<rect x="856.082" y="30.5142" width="3.75887" height="3.75887" fill="#332E50"/>
<rect x="863.6" y="30.5142" width="3.75887" height="3.75887" fill="#332E50"/>
<rect x="871.117" y="30.5142" width="3.75887" height="3.75887" fill="#332E50"/>
<rect x="878.635" y="30.5142" width="3.75887" height="3.75887" fill="#332E50"/>
<rect x="886.152" y="30.5142" width="3.75887" height="3.75887" fill="#332E50"/>
<rect x="893.67" y="30.5142" width="3.75887" height="3.75887" fill="#332E50"/>
<rect x="901.188" y="30.5142" width="3.75887" height="3.75887" fill="#332E50"/>
<rect x="908.705" y="30.5142" width="3.75887" height="3.75887" fill="#332E50"/>
<rect x="916.223" y="30.5142" width="3.75887" height="3.75887" fill="#332E50"/>
<rect x="923.74" y="30.5142" width="3.75887" height="3.75887" fill="#332E50"/>
<rect x="931.26" y="30.5142" width="3.75887" height="3.75887" fill="#332E50"/>
<rect x="938.777" y="30.5142" width="3.75887" height="3.75887" fill="#332E50"/>
<rect x="946.295" y="30.5142" width="3.75887" height="3.75887" fill="#332E50"/>
<rect x="953.812" y="30.5142" width="3.75887" height="3.75887" fill="#332E50"/>
<rect x="961.33" y="30.5142" width="3.75887" height="3.75887" fill="#332E50"/>
<rect x="968.848" y="30.5142" width="3.75887" height="3.75887" fill="#332E50"/>
<rect x="976.365" y="30.5142" width="3.75887" height="3.75887" fill="#332E50"/>
<rect x="788.422" y="38.032" width="3.75887" height="3.75887" fill="#332E50"/>
<rect x="795.939" y="38.032" width="3.75887" height="3.75887" fill="#332E50"/>
<rect x="803.457" y="38.032" width="3.75887" height="3.75887" fill="#332E50"/>
<rect x="810.975" y="38.032" width="3.75887" height="3.75887" fill="#332E50"/>
<rect x="818.492" y="38.032" width="3.75887" height="3.75887" fill="#332E50"/>
<rect x="826.01" y="38.032" width="3.75887" height="3.75887" fill="#332E50"/>
<rect x="833.529" y="38.032" width="3.75887" height="3.75887" fill="#332E50"/>
<rect x="841.047" y="38.032" width="3.75887" height="3.75887" fill="#332E50"/>
<rect x="848.564" y="38.032" width="3.75887" height="3.75887" fill="#332E50"/>
<rect x="856.082" y="38.032" width="3.75887" height="3.75887" fill="#332E50"/>
<rect x="863.6" y="38.032" width="3.75887" height="3.75887" fill="#332E50"/>
<rect x="871.117" y="38.032" width="3.75887" height="3.75887" fill="#332E50"/>
<rect x="878.635" y="38.032" width="3.75887" height="3.75887" fill="#332E50"/>
<rect x="886.152" y="38.032" width="3.75887" height="3.75887" fill="#332E50"/>
<rect x="893.67" y="38.032" width="3.75887" height="3.75887" fill="#332E50"/>
<rect x="901.188" y="38.032" width="3.75887" height="3.75887" fill="#332E50"/>
<rect x="908.705" y="38.032" width="3.75887" height="3.75887" fill="#332E50"/>
<rect x="916.223" y="38.032" width="3.75887" height="3.75887" fill="#332E50"/>
<rect x="923.74" y="38.032" width="3.75887" height="3.75887" fill="#332E50"/>
<rect x="931.26" y="38.032" width="3.75887" height="3.75887" fill="#332E50"/>
<rect x="938.777" y="38.032" width="3.75887" height="3.75887" fill="#332E50"/>
<rect x="946.295" y="38.032" width="3.75887" height="3.75887" fill="#332E50"/>
<rect x="953.812" y="38.032" width="3.75887" height="3.75887" fill="#332E50"/>
<rect x="961.33" y="38.032" width="3.75887" height="3.75887" fill="#332E50"/>
<rect x="968.848" y="38.032" width="3.75887" height="3.75887" fill="#332E50"/>
<rect x="976.365" y="38.032" width="3.75887" height="3.75887" fill="#332E50"/>
<rect x="788.422" y="45.5496" width="3.75887" height="3.75887" fill="#332E50"/>
<rect x="795.939" y="45.5496" width="3.75887" height="3.75887" fill="#332E50"/>
<rect x="803.457" y="45.5496" width="3.75887" height="3.75887" fill="#332E50"/>
<rect x="810.975" y="45.5496" width="3.75887" height="3.75887" fill="#332E50"/>
<rect x="818.492" y="45.5496" width="3.75887" height="3.75887" fill="#332E50"/>
<rect x="826.01" y="45.5496" width="3.75887" height="3.75887" fill="#332E50"/>
<rect x="833.529" y="45.5496" width="3.75887" height="3.75887" fill="#332E50"/>
<rect x="841.047" y="45.5496" width="3.75887" height="3.75887" fill="#332E50"/>
<rect x="848.564" y="45.5496" width="3.75887" height="3.75887" fill="#332E50"/>
<rect x="856.082" y="45.5496" width="3.75887" height="3.75887" fill="#332E50"/>
<rect x="863.6" y="45.5496" width="3.75887" height="3.75887" fill="#332E50"/>
<rect x="871.117" y="45.5496" width="3.75887" height="3.75887" fill="#332E50"/>
<rect x="878.635" y="45.5496" width="3.75887" height="3.75887" fill="#332E50"/>
<rect x="886.152" y="45.5496" width="3.75887" height="3.75887" fill="#332E50"/>
<rect x="893.67" y="45.5496" width="3.75887" height="3.75887" fill="#332E50"/>
<rect x="901.188" y="45.5496" width="3.75887" height="3.75887" fill="#332E50"/>
<rect x="908.705" y="45.5496" width="3.75887" height="3.75887" fill="#332E50"/>
<rect x="916.223" y="45.5496" width="3.75887" height="3.75887" fill="#332E50"/>
<rect x="923.74" y="45.5496" width="3.75887" height="3.75887" fill="#332E50"/>
<rect x="931.26" y="45.5496" width="3.75887" height="3.75887" fill="#332E50"/>
<rect x="938.777" y="45.5496" width="3.75887" height="3.75887" fill="#332E50"/>
<rect x="946.295" y="45.5496" width="3.75887" height="3.75887" fill="#332E50"/>
<rect x="953.812" y="45.5496" width="3.75887" height="3.75887" fill="#332E50"/>
<rect x="961.33" y="45.5496" width="3.75887" height="3.75887" fill="#332E50"/>
<rect x="968.848" y="45.5496" width="3.75887" height="3.75887" fill="#332E50"/>
<rect x="976.365" y="45.5496" width="3.75887" height="3.75887" fill="#332E50"/>
<rect x="788.422" y="53.0674" width="3.75887" height="3.75887" fill="#332E50"/>
<rect x="795.939" y="53.0674" width="3.75887" height="3.75887" fill="#332E50"/>
<rect x="803.457" y="53.0674" width="3.75887" height="3.75887" fill="#332E50"/>
<rect x="810.975" y="53.0674" width="3.75887" height="3.75887" fill="#332E50"/>
<rect x="818.492" y="53.0674" width="3.75887" height="3.75887" fill="#332E50"/>
<rect x="826.01" y="53.0674" width="3.75887" height="3.75887" fill="#332E50"/>
<rect x="833.529" y="53.0674" width="3.75887" height="3.75887" fill="#332E50"/>
<rect x="841.047" y="53.0674" width="3.75887" height="3.75887" fill="#332E50"/>
<rect x="848.564" y="53.0674" width="3.75887" height="3.75887" fill="#332E50"/>
<rect x="856.082" y="53.0674" width="3.75887" height="3.75887" fill="#332E50"/>
<rect x="863.6" y="53.0674" width="3.75887" height="3.75887" fill="#332E50"/>
<rect x="871.117" y="53.0674" width="3.75887" height="3.75887" fill="#332E50"/>
<rect x="878.635" y="53.0674" width="3.75887" height="3.75887" fill="#332E50"/>
<rect x="886.152" y="53.0674" width="3.75887" height="3.75887" fill="#332E50"/>
<rect x="893.67" y="53.0674" width="3.75887" height="3.75887" fill="#332E50"/>
<rect x="901.188" y="53.0674" width="3.75887" height="3.75887" fill="#332E50"/>
<rect x="908.705" y="53.0674" width="3.75887" height="3.75887" fill="#332E50"/>
<rect x="916.223" y="53.0674" width="3.75887" height="3.75887" fill="#332E50"/>
<rect x="923.74" y="53.0674" width="3.75887" height="3.75887" fill="#332E50"/>
<rect x="931.26" y="53.0674" width="3.75887" height="3.75887" fill="#332E50"/>
<rect x="938.777" y="53.0674" width="3.75887" height="3.75887" fill="#332E50"/>
<rect x="946.295" y="53.0674" width="3.75887" height="3.75887" fill="#332E50"/>
<rect x="953.812" y="53.0674" width="3.75887" height="3.75887" fill="#332E50"/>
<rect x="961.33" y="53.0674" width="3.75887" height="3.75887" fill="#332E50"/>
<rect x="968.848" y="53.0674" width="3.75887" height="3.75887" fill="#332E50"/>
<rect x="976.365" y="53.0674" width="3.75887" height="3.75887" fill="#332E50"/>
<rect x="788.422" y="60.585" width="3.75887" height="3.75887" fill="#332E50"/>
<rect x="795.939" y="60.5852" width="3.75887" height="3.75887" fill="#332E50"/>
<rect x="803.457" y="60.5852" width="3.75887" height="3.75887" fill="#332E50"/>
<rect x="810.975" y="60.5852" width="3.75887" height="3.75887" fill="#332E50"/>
<rect x="818.492" y="60.5852" width="3.75887" height="3.75887" fill="#332E50"/>
<rect x="826.01" y="60.5852" width="3.75887" height="3.75887" fill="#332E50"/>
<rect x="833.529" y="60.5852" width="3.75887" height="3.75887" fill="#332E50"/>
<rect x="841.047" y="60.5852" width="3.75887" height="3.75887" fill="#332E50"/>
<rect x="848.564" y="60.5852" width="3.75887" height="3.75887" fill="#332E50"/>
<rect x="856.082" y="60.5852" width="3.75887" height="3.75887" fill="#332E50"/>
<rect x="863.6" y="60.5852" width="3.75887" height="3.75887" fill="#332E50"/>
<rect x="871.117" y="60.5852" width="3.75887" height="3.75887" fill="#332E50"/>
<rect x="878.635" y="60.5852" width="3.75887" height="3.75887" fill="#332E50"/>
<rect x="886.152" y="60.5852" width="3.75887" height="3.75887" fill="#332E50"/>
<rect x="893.67" y="60.5852" width="3.75887" height="3.75887" fill="#332E50"/>
<rect x="901.188" y="60.5852" width="3.75887" height="3.75887" fill="#332E50"/>
<rect x="908.705" y="60.5852" width="3.75887" height="3.75887" fill="#332E50"/>
<rect x="916.223" y="60.5852" width="3.75887" height="3.75887" fill="#332E50"/>
<rect x="923.74" y="60.5852" width="3.75887" height="3.75887" fill="#332E50"/>
<rect x="931.26" y="60.5852" width="3.75887" height="3.75887" fill="#332E50"/>
<rect x="938.777" y="60.5852" width="3.75887" height="3.75887" fill="#332E50"/>
<rect x="946.295" y="60.5852" width="3.75887" height="3.75887" fill="#332E50"/>
<rect x="953.812" y="60.5852" width="3.75887" height="3.75887" fill="#332E50"/>
<rect x="961.33" y="60.5852" width="3.75887" height="3.75887" fill="#332E50"/>
<rect x="968.848" y="60.5852" width="3.75887" height="3.75887" fill="#332E50"/>
<rect x="976.365" y="60.5852" width="3.75887" height="3.75887" fill="#332E50"/>
<rect x="79.875" y="15.4788" width="3.75887" height="3.75887" fill="#332E50"/>
<rect x="87.3926" y="15.4788" width="3.75887" height="3.75887" fill="#332E50"/>
<rect x="94.9102" y="15.4788" width="3.75887" height="3.75887" fill="#332E50"/>
<rect x="102.428" y="15.4788" width="3.75887" height="3.75887" fill="#332E50"/>
<rect x="109.945" y="15.4788" width="3.75887" height="3.75887" fill="#332E50"/>
<rect x="117.463" y="15.4788" width="3.75887" height="3.75887" fill="#332E50"/>
<rect x="124.98" y="15.4788" width="3.75887" height="3.75887" fill="#332E50"/>
<rect x="132.498" y="15.4788" width="3.75887" height="3.75887" fill="#332E50"/>
<rect x="140.018" y="15.4788" width="3.75887" height="3.75887" fill="#332E50"/>
<rect x="147.535" y="15.4788" width="3.75887" height="3.75887" fill="#332E50"/>
<rect x="155.053" y="15.4788" width="3.75887" height="3.75887" fill="#332E50"/>
<rect x="162.57" y="15.4788" width="3.75887" height="3.75887" fill="#332E50"/>
<rect x="170.088" y="15.4788" width="3.75887" height="3.75887" fill="#332E50"/>
<rect x="177.605" y="15.4788" width="3.75887" height="3.75887" fill="#332E50"/>
<rect x="185.123" y="15.4788" width="3.75887" height="3.75887" fill="#332E50"/>
<rect x="192.641" y="15.4788" width="3.75887" height="3.75887" fill="#332E50"/>
<rect x="200.158" y="15.4788" width="3.75887" height="3.75887" fill="#332E50"/>
<rect x="207.676" y="15.4788" width="3.75887" height="3.75887" fill="#332E50"/>
<rect x="215.193" y="15.4788" width="3.75887" height="3.75887" fill="#332E50"/>
<rect x="222.711" y="15.4788" width="3.75887" height="3.75887" fill="#332E50"/>
<rect x="230.23" y="15.4788" width="3.75887" height="3.75887" fill="#332E50"/>
<rect x="237.748" y="15.4788" width="3.75887" height="3.75887" fill="#332E50"/>
<rect x="245.266" y="15.4788" width="3.75887" height="3.75887" fill="#332E50"/>
<rect x="252.783" y="15.4788" width="3.75887" height="3.75887" fill="#332E50"/>
<rect x="260.301" y="15.4788" width="3.75887" height="3.75887" fill="#332E50"/>
<rect x="267.818" y="15.4788" width="3.75887" height="3.75887" fill="#332E50"/>
<rect x="79.875" y="22.9963" width="3.75887" height="3.75887" fill="#332E50"/>
<rect x="87.3926" y="22.9963" width="3.75887" height="3.75887" fill="#332E50"/>
<rect x="94.9102" y="22.9963" width="3.75887" height="3.75887" fill="#332E50"/>
<rect x="102.428" y="22.9963" width="3.75887" height="3.75887" fill="#332E50"/>
<rect x="109.945" y="22.9963" width="3.75887" height="3.75887" fill="#332E50"/>
<rect x="117.463" y="22.9963" width="3.75887" height="3.75887" fill="#332E50"/>
<rect x="124.98" y="22.9963" width="3.75887" height="3.75887" fill="#332E50"/>
<rect x="132.498" y="22.9963" width="3.75887" height="3.75887" fill="#332E50"/>
<rect x="140.018" y="22.9963" width="3.75887" height="3.75887" fill="#332E50"/>
<rect x="147.535" y="22.9963" width="3.75887" height="3.75887" fill="#332E50"/>
<rect x="155.053" y="22.9963" width="3.75887" height="3.75887" fill="#332E50"/>
<rect x="162.57" y="22.9963" width="3.75887" height="3.75887" fill="#332E50"/>
<rect x="170.088" y="22.9963" width="3.75887" height="3.75887" fill="#332E50"/>
<rect x="177.605" y="22.9963" width="3.75887" height="3.75887" fill="#332E50"/>
<rect x="185.123" y="22.9963" width="3.75887" height="3.75887" fill="#332E50"/>
<rect x="192.641" y="22.9963" width="3.75887" height="3.75887" fill="#332E50"/>
<rect x="200.158" y="22.9963" width="3.75887" height="3.75887" fill="#332E50"/>
<rect x="207.676" y="22.9963" width="3.75887" height="3.75887" fill="#332E50"/>
<rect x="215.193" y="22.9963" width="3.75887" height="3.75887" fill="#332E50"/>
<rect x="222.711" y="22.9963" width="3.75887" height="3.75887" fill="#332E50"/>
<rect x="230.23" y="22.9963" width="3.75887" height="3.75887" fill="#332E50"/>
<rect x="237.748" y="22.9963" width="3.75887" height="3.75887" fill="#332E50"/>
<rect x="245.266" y="22.9963" width="3.75887" height="3.75887" fill="#332E50"/>
<rect x="252.783" y="22.9963" width="3.75887" height="3.75887" fill="#332E50"/>
<rect x="260.301" y="22.9963" width="3.75887" height="3.75887" fill="#332E50"/>
<rect x="267.818" y="22.9963" width="3.75887" height="3.75887" fill="#332E50"/>
<rect x="79.875" y="30.5142" width="3.75887" height="3.75887" fill="#332E50"/>
<rect x="87.3926" y="30.5142" width="3.75887" height="3.75887" fill="#332E50"/>
<rect x="94.9102" y="30.5142" width="3.75887" height="3.75887" fill="#332E50"/>
<rect x="102.428" y="30.5142" width="3.75887" height="3.75887" fill="#332E50"/>
<rect x="109.945" y="30.5142" width="3.75887" height="3.75887" fill="#332E50"/>
<rect x="117.463" y="30.5142" width="3.75887" height="3.75887" fill="#332E50"/>
<rect x="124.98" y="30.5142" width="3.75887" height="3.75887" fill="#332E50"/>
<rect x="132.498" y="30.5142" width="3.75887" height="3.75887" fill="#332E50"/>
<rect x="140.018" y="30.5142" width="3.75887" height="3.75887" fill="#332E50"/>
<rect x="147.535" y="30.5142" width="3.75887" height="3.75887" fill="#332E50"/>
<rect x="155.053" y="30.5142" width="3.75887" height="3.75887" fill="#332E50"/>
<rect x="162.57" y="30.5142" width="3.75887" height="3.75887" fill="#332E50"/>
<rect x="170.088" y="30.5142" width="3.75887" height="3.75887" fill="#332E50"/>
<rect x="177.605" y="30.5142" width="3.75887" height="3.75887" fill="#332E50"/>
<rect x="185.123" y="30.5142" width="3.75887" height="3.75887" fill="#332E50"/>
<rect x="192.641" y="30.5142" width="3.75887" height="3.75887" fill="#332E50"/>
<rect x="200.158" y="30.5142" width="3.75887" height="3.75887" fill="#332E50"/>
<rect x="207.676" y="30.5142" width="3.75887" height="3.75887" fill="#332E50"/>
<rect x="215.193" y="30.5142" width="3.75887" height="3.75887" fill="#332E50"/>
<rect x="222.711" y="30.5142" width="3.75887" height="3.75887" fill="#332E50"/>
<rect x="230.23" y="30.5142" width="3.75887" height="3.75887" fill="#332E50"/>
<rect x="237.748" y="30.5142" width="3.75887" height="3.75887" fill="#332E50"/>
<rect x="245.266" y="30.5142" width="3.75887" height="3.75887" fill="#332E50"/>
<rect x="252.783" y="30.5142" width="3.75887" height="3.75887" fill="#332E50"/>
<rect x="260.301" y="30.5142" width="3.75887" height="3.75887" fill="#332E50"/>
<rect x="267.818" y="30.5142" width="3.75887" height="3.75887" fill="#332E50"/>
<rect x="79.875" y="38.032" width="3.75887" height="3.75887" fill="#332E50"/>
<rect x="87.3926" y="38.032" width="3.75887" height="3.75887" fill="#332E50"/>
<rect x="94.9102" y="38.032" width="3.75887" height="3.75887" fill="#332E50"/>
<rect x="102.428" y="38.032" width="3.75887" height="3.75887" fill="#332E50"/>
<rect x="109.945" y="38.032" width="3.75887" height="3.75887" fill="#332E50"/>
<rect x="117.463" y="38.032" width="3.75887" height="3.75887" fill="#332E50"/>
<rect x="124.98" y="38.032" width="3.75887" height="3.75887" fill="#332E50"/>
<rect x="132.498" y="38.032" width="3.75887" height="3.75887" fill="#332E50"/>
<rect x="140.018" y="38.032" width="3.75887" height="3.75887" fill="#332E50"/>
<rect x="147.535" y="38.032" width="3.75887" height="3.75887" fill="#332E50"/>
<rect x="155.053" y="38.032" width="3.75887" height="3.75887" fill="#332E50"/>
<rect x="162.57" y="38.032" width="3.75887" height="3.75887" fill="#332E50"/>
<rect x="170.088" y="38.032" width="3.75887" height="3.75887" fill="#332E50"/>
<rect x="177.605" y="38.032" width="3.75887" height="3.75887" fill="#332E50"/>
<rect x="185.123" y="38.032" width="3.75887" height="3.75887" fill="#332E50"/>
<rect x="192.641" y="38.032" width="3.75887" height="3.75887" fill="#332E50"/>
<rect x="200.158" y="38.032" width="3.75887" height="3.75887" fill="#332E50"/>
<rect x="207.676" y="38.032" width="3.75887" height="3.75887" fill="#332E50"/>
<rect x="215.193" y="38.032" width="3.75887" height="3.75887" fill="#332E50"/>
<rect x="222.711" y="38.032" width="3.75887" height="3.75887" fill="#332E50"/>
<rect x="230.23" y="38.032" width="3.75887" height="3.75887" fill="#332E50"/>
<rect x="237.748" y="38.032" width="3.75887" height="3.75887" fill="#332E50"/>
<rect x="245.266" y="38.032" width="3.75887" height="3.75887" fill="#332E50"/>
<rect x="252.783" y="38.032" width="3.75887" height="3.75887" fill="#332E50"/>
<rect x="260.301" y="38.032" width="3.75887" height="3.75887" fill="#332E50"/>
<rect x="267.818" y="38.032" width="3.75887" height="3.75887" fill="#332E50"/>
<rect x="79.875" y="45.5496" width="3.75887" height="3.75887" fill="#332E50"/>
<rect x="87.3926" y="45.5496" width="3.75887" height="3.75887" fill="#332E50"/>
<rect x="94.9102" y="45.5496" width="3.75887" height="3.75887" fill="#332E50"/>
<rect x="102.428" y="45.5496" width="3.75887" height="3.75887" fill="#332E50"/>
<rect x="109.945" y="45.5496" width="3.75887" height="3.75887" fill="#332E50"/>
<rect x="117.463" y="45.5496" width="3.75887" height="3.75887" fill="#332E50"/>
<rect x="124.98" y="45.5496" width="3.75887" height="3.75887" fill="#332E50"/>
<rect x="132.498" y="45.5496" width="3.75887" height="3.75887" fill="#332E50"/>
<rect x="140.018" y="45.5496" width="3.75887" height="3.75887" fill="#332E50"/>
<rect x="147.535" y="45.5496" width="3.75887" height="3.75887" fill="#332E50"/>
<rect x="155.053" y="45.5496" width="3.75887" height="3.75887" fill="#332E50"/>
<rect x="162.57" y="45.5496" width="3.75887" height="3.75887" fill="#332E50"/>
<rect x="170.088" y="45.5496" width="3.75887" height="3.75887" fill="#332E50"/>
<rect x="177.605" y="45.5496" width="3.75887" height="3.75887" fill="#332E50"/>
<rect x="185.123" y="45.5496" width="3.75887" height="3.75887" fill="#332E50"/>
<rect x="192.641" y="45.5496" width="3.75887" height="3.75887" fill="#332E50"/>
<rect x="200.158" y="45.5496" width="3.75887" height="3.75887" fill="#332E50"/>
<rect x="207.676" y="45.5496" width="3.75887" height="3.75887" fill="#332E50"/>
<rect x="215.193" y="45.5496" width="3.75887" height="3.75887" fill="#332E50"/>
<rect x="222.711" y="45.5496" width="3.75887" height="3.75887" fill="#332E50"/>
<rect x="230.23" y="45.5496" width="3.75887" height="3.75887" fill="#332E50"/>
<rect x="237.748" y="45.5496" width="3.75887" height="3.75887" fill="#332E50"/>
<rect x="245.266" y="45.5496" width="3.75887" height="3.75887" fill="#332E50"/>
<rect x="252.783" y="45.5496" width="3.75887" height="3.75887" fill="#332E50"/>
<rect x="260.301" y="45.5496" width="3.75887" height="3.75887" fill="#332E50"/>
<rect x="267.818" y="45.5496" width="3.75887" height="3.75887" fill="#332E50"/>
<rect x="79.875" y="53.0674" width="3.75887" height="3.75887" fill="#332E50"/>
<rect x="87.3926" y="53.0674" width="3.75887" height="3.75887" fill="#332E50"/>
<rect x="94.9102" y="53.0674" width="3.75887" height="3.75887" fill="#332E50"/>
<rect x="102.428" y="53.0674" width="3.75887" height="3.75887" fill="#332E50"/>
<rect x="109.945" y="53.0674" width="3.75887" height="3.75887" fill="#332E50"/>
<rect x="117.463" y="53.0674" width="3.75887" height="3.75887" fill="#332E50"/>
<rect x="124.98" y="53.0674" width="3.75887" height="3.75887" fill="#332E50"/>
<rect x="132.498" y="53.0674" width="3.75887" height="3.75887" fill="#332E50"/>
<rect x="140.018" y="53.0674" width="3.75887" height="3.75887" fill="#332E50"/>
<rect x="147.535" y="53.0674" width="3.75887" height="3.75887" fill="#332E50"/>
<rect x="155.053" y="53.0674" width="3.75887" height="3.75887" fill="#332E50"/>
<rect x="162.57" y="53.0674" width="3.75887" height="3.75887" fill="#332E50"/>
<rect x="170.088" y="53.0674" width="3.75887" height="3.75887" fill="#332E50"/>
<rect x="177.605" y="53.0674" width="3.75887" height="3.75887" fill="#332E50"/>
<rect x="185.123" y="53.0674" width="3.75887" height="3.75887" fill="#332E50"/>
<rect x="192.641" y="53.0674" width="3.75887" height="3.75887" fill="#332E50"/>
<rect x="200.158" y="53.0674" width="3.75887" height="3.75887" fill="#332E50"/>
<rect x="207.676" y="53.0674" width="3.75887" height="3.75887" fill="#332E50"/>
<rect x="215.193" y="53.0674" width="3.75887" height="3.75887" fill="#332E50"/>
<rect x="222.711" y="53.0674" width="3.75887" height="3.75887" fill="#332E50"/>
<rect x="230.23" y="53.0674" width="3.75887" height="3.75887" fill="#332E50"/>
<rect x="237.748" y="53.0674" width="3.75887" height="3.75887" fill="#332E50"/>
<rect x="245.266" y="53.0674" width="3.75887" height="3.75887" fill="#332E50"/>
<rect x="252.783" y="53.0674" width="3.75887" height="3.75887" fill="#332E50"/>
<rect x="260.301" y="53.0674" width="3.75887" height="3.75887" fill="#332E50"/>
<rect x="267.818" y="53.0674" width="3.75887" height="3.75887" fill="#332E50"/>
<rect x="79.875" y="60.585" width="3.75887" height="3.75887" fill="#332E50"/>
<rect x="87.3926" y="60.5852" width="3.75887" height="3.75887" fill="#332E50"/>
<rect x="94.9102" y="60.5852" width="3.75887" height="3.75887" fill="#332E50"/>
<rect x="102.428" y="60.5852" width="3.75887" height="3.75887" fill="#332E50"/>
<rect x="109.945" y="60.5852" width="3.75887" height="3.75887" fill="#332E50"/>
<rect x="117.463" y="60.5852" width="3.75887" height="3.75887" fill="#332E50"/>
<rect x="124.98" y="60.5852" width="3.75887" height="3.75887" fill="#332E50"/>
<rect x="132.498" y="60.5852" width="3.75887" height="3.75887" fill="#332E50"/>
<rect x="140.018" y="60.5852" width="3.75887" height="3.75887" fill="#332E50"/>
<rect x="147.535" y="60.5852" width="3.75887" height="3.75887" fill="#332E50"/>
<rect x="155.053" y="60.5852" width="3.75887" height="3.75887" fill="#332E50"/>
<rect x="162.57" y="60.5852" width="3.75887" height="3.75887" fill="#332E50"/>
<rect x="170.088" y="60.5852" width="3.75887" height="3.75887" fill="#332E50"/>
<rect x="177.605" y="60.5852" width="3.75887" height="3.75887" fill="#332E50"/>
<rect x="185.123" y="60.5852" width="3.75887" height="3.75887" fill="#332E50"/>
<rect x="192.641" y="60.5852" width="3.75887" height="3.75887" fill="#332E50"/>
<rect x="200.158" y="60.5852" width="3.75887" height="3.75887" fill="#332E50"/>
<rect x="207.676" y="60.5852" width="3.75887" height="3.75887" fill="#332E50"/>
<rect x="215.193" y="60.5852" width="3.75887" height="3.75887" fill="#332E50"/>
<rect x="222.711" y="60.5852" width="3.75887" height="3.75887" fill="#332E50"/>
<rect x="230.23" y="60.5852" width="3.75887" height="3.75887" fill="#332E50"/>
<rect x="237.748" y="60.5852" width="3.75887" height="3.75887" fill="#332E50"/>
<rect x="245.266" y="60.5852" width="3.75887" height="3.75887" fill="#332E50"/>
<rect x="252.783" y="60.5852" width="3.75887" height="3.75887" fill="#332E50"/>
<rect x="260.301" y="60.5852" width="3.75887" height="3.75887" fill="#332E50"/>
<rect x="267.818" y="60.5852" width="3.75887" height="3.75887" fill="#332E50"/>
<rect opacity="0.2" x="1011.6" y="-584.53" width="47.9255" height="664.379" stroke="#453D64" stroke-width="0.939716"/>
<rect x="327.021" y="35.2129" width="14.0957" height="9.39716" rx="0.939716" fill="#332E50"/>
<rect x="346.756" y="35.2126" width="14.0957" height="9.39716" rx="0.939716" fill="#332E50"/>
<rect x="366.49" y="35.2126" width="14.0957" height="9.39716" rx="0.939716" fill="#332E50"/>
<rect x="386.223" y="35.2126" width="14.0957" height="9.39716" rx="0.939716" fill="#332E50"/>
<rect x="659.682" y="35.2129" width="14.0957" height="9.39716" rx="0.939716" fill="#332E50"/>
<rect x="679.416" y="35.2126" width="14.0957" height="9.39716" rx="0.939716" fill="#332E50"/>
<rect x="699.15" y="35.2126" width="14.0957" height="9.39716" rx="0.939716" fill="#332E50"/>
<rect x="718.885" y="35.2126" width="14.0957" height="9.39716" rx="0.939716" fill="#332E50"/>
</g>
<defs>
<linearGradient id="paint0_linear_2392_73235" x1="530" y1="-585" x2="530" y2="80.3192" gradientUnits="userSpaceOnUse">
<stop stop-color="#423D60"/>
<stop offset="1" stop-color="#2C2847"/>
</linearGradient>
<clipPath id="clip0_2392_73235">
<rect y="-585" width="1060" height="665.319" rx="4" fill="white"/>
</clipPath>
</defs>
</svg>
