<svg width="657" height="550" viewBox="0 0 657 550" fill="none" xmlns="http://www.w3.org/2000/svg">
<g clip-path="url(#clip0_14_6857)">
<path d="M0 571.5L228 433.5L616.5 437.5C630.667 426.666 650 404.1 648 418.5C645.5 436.5 623 455 603.5 459C524.531 475.199 426.5 487.5 404.5 487.5C398.1 493.1 216.333 589.5 118 632.5L0 571.5Z" fill="url(#paint0_linear_14_6857)"/>
<g clip-path="url(#clip1_14_6857)">
<path d="M463.001 372.5C446.501 353.5 449.167 343.167 449.001 337.5C464.167 344.833 494.901 359.6 496.501 360C498.101 360.4 565.834 381.167 599.501 391.5L616.001 409C599.834 415.833 567.601 427.5 568.001 419.5C568.501 409.5 482.001 394.379 463.001 372.5Z" fill="#342B4B"/>
<path d="M482.851 337.829L482.016 338.699C482.106 338.484 482.173 338.259 482.216 338.03C482.235 337.852 482.235 337.672 482.216 337.494C482.216 337.494 482.216 337.862 482.216 337.494C482.216 337.126 482.283 337.293 482.851 337.829Z" fill="#0A0024"/>
<path d="M556 326.5C564 323.7 571 323 572.5 309.5L556 315L509.5 312.5L477.5 329C478 340 483.3 360.1 488.5 346.5C495 329.5 546 330 556 326.5Z" fill="#342B4B"/>
<path d="M642.516 430.721C622.733 453.316 571.405 453.751 543.603 455.76C523.319 456.563 434.965 464.53 357.338 464.664C341.999 464.664 327.062 464.396 313.161 463.693C266.01 461.317 230.588 454.053 230.588 437.382C230.588 374.483 240.613 294.612 260.663 244.399C263.549 234.719 265.781 224.855 267.346 214.874C274.464 168.913 262.902 141.029 262.234 133.396C261.365 123.722 270.32 96.8416 271.891 82.9495C274.631 59.1488 327.63 6.76047 335.015 8.03252C342.4 9.30457 324.99 49.3407 330.771 52.7551C336.552 56.1696 357.505 54.3284 363.453 54.5627C369.401 54.797 390.587 38.7291 396.87 33.6743C402.116 29.5569 408.599 23.6318 415.884 24.134C426.143 24.9708 415.048 83.0834 415.048 83.0834C415.048 83.0834 430.119 127.136 429.551 136.643C428.983 146.15 419.192 169.717 418.19 207.309C417.989 215.187 417.989 222.919 418.19 230.507C420.027 301.206 437.571 361.059 438.24 401.598C438.24 401.598 521.314 411.64 542.4 411.64C560.177 411.138 579.86 411.339 597.504 407.69C575.95 399.589 552.191 395.271 529.066 389.982C526.226 389.346 523.419 388.676 520.578 387.973H520.411C517.07 387.136 513.728 386.266 510.386 385.362L507.446 384.525L506.777 384.324L505.441 383.956C489.467 379.471 473.16 374.918 459.426 362.432C454.381 357.806 450.949 351.681 449.635 344.958C449.145 342.759 448.877 340.516 448.833 338.263C448.587 331.094 450.964 324.083 455.516 318.546C456.548 317.278 457.664 316.081 458.858 314.964C463.404 310.615 468.704 307.133 474.497 304.687C477.605 303.315 480.712 302.177 483.686 301.173C489.975 299.287 496.354 297.723 502.801 296.486C508.749 295.348 514.63 294.511 520.545 293.909C528.231 293.105 535.984 292.637 543.937 292.369L550.988 292.168C553.193 292.168 555.733 292.001 558.273 292.168C565.29 292.503 572.341 294.712 572.809 306.06C573.444 321.559 559.709 322.095 551.522 322.295C548.682 322.295 545.741 322.63 542.801 322.831C536.351 323.367 529.735 324.103 523.352 325.074L521.848 325.275C512.484 326.652 503.266 328.894 494.313 331.97H494.146C490.176 333.221 486.455 335.158 483.152 337.694C482.584 337.158 482.55 337.024 482.717 337.526C482.884 338.029 482.717 337.526 482.717 337.526C482.736 337.704 482.736 337.884 482.717 338.062C482.674 338.292 482.607 338.516 482.517 338.732L483.051 338.162L483.352 337.861L483.887 338.33C486.38 340.082 489.072 341.532 491.907 342.648C507.216 348.036 522.957 352.102 538.958 354.799C547.278 356.373 555.666 357.812 563.953 359.352L564.789 359.519C570.637 360.624 576.518 361.762 582.333 363.034H583.001C586.176 363.704 589.283 364.44 592.424 365.244C599.776 367.085 607.028 369.227 614.212 371.939C624.037 375.688 635.332 381.01 642.884 390.885C651.271 401.597 652.408 420.21 642.516 430.721Z" fill="url(#paint1_linear_14_6857)"/>
<path d="M408.131 132.327C408.131 132.327 462.734 146.018 482.082 120.945" stroke="url(#paint2_linear_14_6857)" stroke-width="3" stroke-linecap="round" stroke-linejoin="round"/>
<path d="M411.539 146.887C411.539 146.887 481.28 171.692 502.266 154.017" stroke="url(#paint3_linear_14_6857)" stroke-width="3" stroke-linecap="round" stroke-linejoin="round"/>
<path d="M412.408 163.424C412.408 163.424 440.846 181.668 469.217 180.161" stroke="url(#paint4_linear_14_6857)" stroke-width="3" stroke-linecap="round" stroke-linejoin="round"/>
<path d="M298.959 134.736C298.959 134.736 243.253 142.736 226.578 115.789" stroke="#190F33" stroke-width="3" stroke-linecap="round" stroke-linejoin="round"/>
<path d="M288.097 138.117C288.097 138.117 217.588 160.445 197.17 142.067" stroke="#190F33" stroke-width="3" stroke-linecap="round" stroke-linejoin="round"/>
<path d="M282.684 160.947C282.684 160.947 253.846 178.522 225.441 176.446" stroke="#190F33" stroke-width="3" stroke-linecap="round" stroke-linejoin="round"/>
<path d="M319.176 127.975C328.606 127.975 336.252 120.317 336.252 110.869C336.252 101.422 328.606 93.7637 319.176 93.7637C309.745 93.7637 302.1 101.422 302.1 110.869C302.1 120.317 309.745 127.975 319.176 127.975Z" fill="#938BAE"/>
<path d="M376.986 130.954C386.417 130.954 394.062 123.295 394.062 113.848C394.062 104.401 386.417 96.7422 376.986 96.7422C367.555 96.7422 359.91 104.401 359.91 113.848C359.91 123.295 367.555 130.954 376.986 130.954Z" fill="#938BAE"/>
<path d="M376.987 124.09C382.635 124.09 387.213 119.504 387.213 113.847C387.213 108.19 382.635 103.604 376.987 103.604C371.34 103.604 366.762 108.19 366.762 113.847C366.762 119.504 371.34 124.09 376.987 124.09Z" fill="#0E022D"/>
<path d="M319.175 121.112C324.822 121.112 329.4 116.526 329.4 110.868C329.4 105.211 324.822 100.625 319.175 100.625C313.527 100.625 308.949 105.211 308.949 110.868C308.949 116.526 313.527 121.112 319.175 121.112Z" fill="#0E022D"/>
<path d="M399.242 461.518C389.851 464.129 345.775 466.774 341.631 463.393C340.294 462.321 339.827 430.453 339.76 393.597C339.76 341.845 340.228 280.184 340.228 280.184L397.37 243.797C397.37 274.761 387.345 332.74 379.091 376.358C372.909 408.527 367.529 432.897 367.529 432.897C367.529 432.897 375.415 422.854 394.597 426.001C413.778 429.148 408.598 458.873 399.242 461.518Z" fill="url(#paint5_linear_14_6857)"/>
<path d="M334.414 392.326C334.414 428.948 333.88 460.615 332.543 461.686C328.299 465.034 284.323 462.423 274.933 459.845C265.542 457.267 260.363 427.609 279.578 424.596C298.792 421.583 306.645 431.291 306.645 431.291C306.645 431.291 301.298 407.289 295.183 375.555C286.762 332.239 276.837 274.494 276.837 243.697L333.98 279.817C333.98 279.817 334.548 340.976 334.414 392.326Z" fill="url(#paint6_linear_14_6857)"/>
<path d="M332.274 208.114C332.274 208.114 296.786 190.406 292.341 189.502C287.897 188.598 287.062 240.618 290.37 241.053C293.678 241.489 332.475 217.989 333.076 215.981C333.223 213.332 332.953 210.678 332.274 208.114V208.114Z" fill="url(#paint7_linear_14_6857)"/>
<path d="M350.955 210.457C350.955 210.457 382.167 185.619 386.578 186.657C396.101 188.933 391.49 236.869 388.282 237.806C385.074 238.744 352.025 220.265 351.156 218.357C350.683 215.75 350.615 213.085 350.955 210.457V210.457Z" fill="url(#paint8_linear_14_6857)"/>
<path d="M341.965 223.846C348.886 223.846 354.496 219.575 354.496 214.306C354.496 209.037 348.886 204.766 341.965 204.766C335.044 204.766 329.434 209.037 329.434 214.306C329.434 219.575 335.044 223.846 341.965 223.846Z" fill="url(#paint9_linear_14_6857)"/>
<path d="M384.372 59.8856C384.372 59.8856 407.262 42.077 408.265 42.3448C409.267 42.6126 405.692 75.9871 405.257 76.9579C404.823 77.9286 382.601 64.8734 384.372 59.8856Z" fill="#645689"/>
<path d="M319.643 52.7569C319.911 51.6522 324.89 29.3244 324.89 28.3871C324.89 27.4498 305.274 52.3217 304.84 57.6107C304.405 62.8997 318.775 56.1713 319.643 52.7569Z" fill="#645689"/>
<path d="M337.221 383.086V384.693C337.137 384.16 337.137 383.618 337.221 383.086V383.086Z" fill="#190057"/>
<path d="M399.242 461.518C389.851 464.129 345.775 466.773 341.631 463.392C340.294 462.321 339.827 430.453 339.76 393.597C342.848 396.567 346.742 398.558 350.954 399.321C362.049 401.999 373.344 385.931 378.958 376.357C372.776 408.527 367.395 432.897 367.395 432.897C367.395 432.897 375.282 422.854 394.463 426.001C413.644 429.147 408.598 458.873 399.242 461.518Z" fill="url(#paint10_linear_14_6857)"/>
<path d="M322.952 398.117C327.269 397.389 331.265 395.371 334.414 392.326C334.414 428.947 333.88 460.615 332.543 461.686C328.299 465.033 284.323 462.422 274.933 459.845C265.542 457.267 260.363 427.608 279.578 424.595C298.792 421.583 306.645 431.29 306.645 431.29C306.645 431.29 301.298 407.289 295.183 375.555C300.831 385.162 311.992 400.728 322.952 398.117Z" fill="url(#paint11_linear_14_6857)"/>
<path d="M336.785 384.726V383.086C336.87 383.629 336.87 384.183 336.785 384.726Z" fill="#190057"/>
</g>
</g>
<defs>
<linearGradient id="paint0_linear_14_6857" x1="268" y1="464" x2="68.5" y2="670" gradientUnits="userSpaceOnUse">
<stop stop-color="#342B4B"/>
<stop offset="1" stop-color="#39304F" stop-opacity="0"/>
</linearGradient>
<linearGradient id="paint1_linear_14_6857" x1="405.085" y1="260.258" x2="229.859" y2="273.582" gradientUnits="userSpaceOnUse">
<stop stop-color="#231741"/>
<stop offset="0.570791" stop-color="#190E33"/>
<stop offset="1" stop-color="#0A031C"/>
</linearGradient>
<linearGradient id="paint2_linear_14_6857" x1="418.153" y1="133.889" x2="491.093" y2="121.361" gradientUnits="userSpaceOnUse">
<stop stop-color="#231741"/>
<stop offset="1" stop-color="#402F6A"/>
</linearGradient>
<linearGradient id="paint3_linear_14_6857" x1="423.835" y1="158.436" x2="511.094" y2="137.829" gradientUnits="userSpaceOnUse">
<stop stop-color="#231741"/>
<stop offset="1" stop-color="#402F6A"/>
</linearGradient>
<linearGradient id="paint4_linear_14_6857" x1="420.107" y1="177.835" x2="476.993" y2="171.093" gradientUnits="userSpaceOnUse">
<stop stop-color="#231741"/>
<stop offset="1" stop-color="#402F6A"/>
</linearGradient>
<linearGradient id="paint5_linear_14_6857" x1="368.574" y1="276.551" x2="373.689" y2="464.99" gradientUnits="userSpaceOnUse">
<stop stop-color="#231741" stop-opacity="0.12"/>
<stop offset="1" stop-color="#261855"/>
</linearGradient>
<linearGradient id="paint6_linear_14_6857" x1="295.361" y1="276.212" x2="300.398" y2="463.272" gradientUnits="userSpaceOnUse">
<stop stop-color="#231741" stop-opacity="0.12"/>
<stop offset="1" stop-color="#261855"/>
</linearGradient>
<linearGradient id="paint7_linear_14_6857" x1="336.249" y1="212.733" x2="298.771" y2="210.592" gradientUnits="userSpaceOnUse">
<stop stop-color="#032732"/>
<stop offset="0.80698" stop-color="#032E3C"/>
</linearGradient>
<linearGradient id="paint8_linear_14_6857" x1="395.17" y1="209.708" x2="360.391" y2="207.853" gradientUnits="userSpaceOnUse">
<stop stop-color="#032E3C"/>
<stop offset="1" stop-color="#032732"/>
</linearGradient>
<linearGradient id="paint9_linear_14_6857" x1="348.5" y1="201.5" x2="342.5" y2="223" gradientUnits="userSpaceOnUse">
<stop offset="0.109375" stop-color="#053B4B"/>
<stop offset="0.822917" stop-color="#032732"/>
</linearGradient>
<linearGradient id="paint10_linear_14_6857" x1="361" y1="404.999" x2="358.548" y2="489.972" gradientUnits="userSpaceOnUse">
<stop stop-color="#2B1B53"/>
<stop offset="1" stop-color="#190C39"/>
</linearGradient>
<linearGradient id="paint11_linear_14_6857" x1="336.001" y1="394" x2="288.001" y2="460" gradientUnits="userSpaceOnUse">
<stop stop-color="#2B1B53"/>
<stop offset="1" stop-color="#190C39"/>
</linearGradient>
<clipPath id="clip0_14_6857">
<rect width="657" height="550" fill="white"/>
</clipPath>
<clipPath id="clip1_14_6857">
<rect width="454" height="457" fill="white" transform="translate(195.5 8)"/>
</clipPath>
</defs>
</svg>
