<svg width="657" height="550" viewBox="0 0 657 550" fill="none" xmlns="http://www.w3.org/2000/svg">
<path d="M267.769 513.937L113.898 412.043L266.735 394.537L442.828 495.236C443.995 495.904 444.418 497.432 443.771 498.644L420.821 541.623C420.074 543.023 418.555 543.774 417.041 543.492L276 517.277C273.074 516.733 270.277 515.599 267.769 513.937Z" fill="url(#paint0_linear_14_7193)"/>
<path d="M268.402 301.008L179.318 283.394C178.196 283.172 177.034 283.341 176.027 283.874L117.143 315.005C115.528 315.859 114.515 317.532 114.503 319.366L113.926 407.286C113.91 409.684 115.597 411.768 117.947 412.251L206.458 430.451C207.571 430.68 208.727 430.523 209.734 430.006L269.191 399.467C270.835 398.623 271.871 396.934 271.883 395.079L272.461 305.981C272.476 303.568 270.769 301.476 268.402 301.008Z" fill="black"/>
<rect width="30.2457" height="31.2606" rx="2.50085" transform="matrix(0.97946 0.201636 0 1 113.898 316.014)" fill="#083F55"/>
<rect width="30.2457" height="31.2606" rx="2.50085" transform="matrix(0.97946 0.201636 0 1 144.707 322.355)" fill="#322268"/>
<rect width="30.2457" height="31.2606" rx="2.50085" transform="matrix(0.97946 0.201636 0 1 175.518 328.699)" fill="#083F55"/>
<rect width="30.2457" height="31.2606" rx="2.50085" transform="matrix(0.97946 0.201636 0 1 113.898 348.525)" fill="#011D26"/>
<rect width="30.2457" height="31.2606" rx="2.50085" transform="matrix(0.97946 0.201636 0 1 144.707 354.867)" fill="#083F55"/>
<rect width="30.2457" height="31.2606" rx="2.50085" transform="matrix(0.97946 0.201636 0 1 175.518 361.209)" fill="#322268"/>
<rect width="30.2457" height="31.2606" rx="2.50085" transform="matrix(0.97946 0.201636 0 1 113.898 381.035)" fill="#31294C"/>
<rect width="30.2457" height="31.2606" rx="2.50085" transform="matrix(0.97946 0.201636 0 1 144.707 387.379)" fill="#011D26"/>
<rect width="30.2457" height="31.2606" rx="2.50085" transform="matrix(0.97946 0.201636 0 1 175.518 393.721)" fill="#032431"/>
<path fill-rule="evenodd" clip-rule="evenodd" d="M177.968 329.203C176.615 328.925 175.518 329.819 175.518 331.2V357.459C175.518 358.84 176.615 360.185 177.968 360.464L202.693 365.554C204.046 365.832 205.143 364.939 205.143 363.557V337.298C205.143 335.917 204.046 334.572 202.693 334.293L177.968 329.203ZM144.708 324.857C144.708 323.476 145.805 322.582 147.158 322.861L171.883 327.951C173.236 328.229 174.333 329.575 174.333 330.956V357.215C174.333 358.596 173.236 359.49 171.883 359.211L147.158 354.121C145.805 353.843 144.708 352.497 144.708 351.116V324.857ZM113.898 318.515C113.898 317.133 114.995 316.24 116.348 316.518L141.073 321.608C142.426 321.887 143.523 323.232 143.523 324.613V350.872C143.523 352.253 142.426 353.147 141.073 352.869L116.348 347.779C114.995 347.5 113.898 346.155 113.898 344.774V318.515ZM113.898 351.026C113.898 349.645 114.995 348.751 116.348 349.029L141.073 354.119C142.426 354.398 143.523 355.743 143.523 357.124V383.383C143.523 384.764 142.426 385.658 141.073 385.38L116.348 380.29C114.995 380.011 113.898 378.666 113.898 377.285V351.026ZM147.158 355.372C145.805 355.093 144.708 355.987 144.708 357.368V383.627C144.708 385.008 145.805 386.354 147.158 386.632L171.883 391.722C173.236 392.001 174.333 391.107 174.333 389.726V363.467C174.333 362.086 173.236 360.74 171.883 360.462L147.158 355.372ZM175.518 363.711C175.518 362.33 176.615 361.436 177.968 361.714L202.693 366.804C204.046 367.083 205.143 368.428 205.143 369.81V396.068C205.143 397.45 204.046 398.344 202.693 398.065L177.968 392.975C176.615 392.696 175.518 391.351 175.518 389.97V363.711ZM116.348 381.54C114.995 381.262 113.898 382.156 113.898 383.537V409.796C113.898 411.177 114.995 412.522 116.348 412.801L141.073 417.891C142.426 418.169 143.523 417.275 143.523 415.894V389.635C143.523 388.254 142.426 386.909 141.073 386.63L116.348 381.54ZM144.708 389.879C144.708 388.498 145.805 387.604 147.158 387.883L171.883 392.973C173.236 393.251 174.333 394.597 174.333 395.978V422.237C174.333 423.618 173.236 424.512 171.883 424.233L147.158 419.143C145.805 418.865 144.708 417.519 144.708 416.138V389.879ZM177.968 394.225C176.615 393.947 175.518 394.841 175.518 396.222V422.481C175.518 423.862 176.615 425.207 177.968 425.486L202.693 430.576C204.046 430.855 205.143 429.961 205.143 428.579V402.321C205.143 400.939 204.046 399.594 202.693 399.315L177.968 394.225Z" fill="url(#paint1_linear_14_7193)" fill-opacity="0.21"/>
<rect width="30.1597" height="22.6641" rx="2.50085" transform="matrix(0.981811 0.189861 -0.872483 0.488645 174.963 282)" fill="#31294C"/>
<rect width="30.1497" height="22.4394" rx="2.50085" transform="matrix(0.981811 0.189861 -0.872483 0.488645 204.756 288.457)" fill="#3F2F78"/>
<rect width="31.0576" height="22.7578" rx="2.50085" transform="matrix(0.981811 0.189861 -0.872482 0.488645 235.396 294.535)" fill="#083F55"/>
<rect width="30.0589" height="21.8424" rx="2.50085" transform="matrix(0.981811 0.189861 -0.872483 0.488645 153.33 293.941)" fill="#011D26"/>
<rect width="31.5609" height="22.1672" rx="2.50085" transform="matrix(0.981811 0.189861 -0.872483 0.488645 183.352 300.133)" fill="#241C50"/>
<rect width="31.2161" height="22.8722" rx="2.50085" transform="matrix(0.981811 0.189861 -0.872483 0.488645 214.141 306.322)" fill="#322268"/>
<rect width="30.3002" height="20.5125" rx="2.50085" transform="matrix(0.981811 0.189861 -0.872482 0.488645 132.861 305.385)" fill="#281E45"/>
<rect width="30.2134" height="19.7675" rx="2.50085" transform="matrix(0.981811 0.189861 -0.872483 0.488645 162.59 311.869)" fill="#281E45"/>
<path d="M190.826 319.435C192.031 318.76 194.107 318.425 195.463 318.688L221.127 323.65C222.483 323.913 222.605 324.672 221.4 325.347L208.671 332.476C207.466 333.151 205.39 333.486 204.034 333.223L178.371 328.261C177.015 327.998 176.892 327.239 178.097 326.564L190.826 319.435Z" fill="#1A093D"/>
<path fill-rule="evenodd" clip-rule="evenodd" d="M172.78 283.221C173.985 282.546 176.061 282.212 177.417 282.474L202.117 287.251C203.473 287.513 203.596 288.273 202.391 288.948L186.981 297.578C185.775 298.253 183.699 298.588 182.343 298.325L157.643 293.549C156.287 293.287 156.164 292.527 157.369 291.852L172.78 283.221ZM202.574 289.679C203.779 289.004 205.855 288.669 207.211 288.931L231.902 293.706C233.258 293.968 233.38 294.728 232.175 295.403L216.961 303.924C215.756 304.599 213.68 304.933 212.324 304.671L187.633 299.896C186.277 299.634 186.155 298.874 187.36 298.199L202.574 289.679ZM237.85 295.01C236.494 294.747 234.418 295.082 233.213 295.757L217.721 304.433C216.516 305.108 216.639 305.868 217.995 306.13L243.577 311.077C244.933 311.339 247.009 311.005 248.214 310.33L263.706 301.653C264.911 300.979 264.788 300.219 263.432 299.957L237.85 295.01ZM151.146 295.163C152.351 294.488 154.427 294.154 155.783 294.416L180.385 299.173C181.741 299.436 181.863 300.195 180.658 300.87L165.965 309.099C164.76 309.774 162.684 310.109 161.328 309.846L136.726 305.089C135.37 304.827 135.248 304.067 136.453 303.392L151.146 295.163ZM185.805 300.607C184.449 300.345 182.373 300.68 181.168 301.354L166.191 309.742C164.986 310.417 165.109 311.177 166.465 311.439L192.541 316.482C193.897 316.744 195.973 316.409 197.178 315.734L212.155 307.347C213.36 306.672 213.237 305.912 211.881 305.65L185.805 300.607ZM211.958 307.543C213.163 306.868 215.239 306.534 216.595 306.796L242.333 311.773C243.689 312.035 243.811 312.795 242.606 313.47L227.015 322.202C225.81 322.877 223.733 323.212 222.377 322.949L196.64 317.972C195.284 317.71 195.161 316.95 196.366 316.275L211.958 307.543ZM135.316 305.859C133.96 305.597 131.884 305.932 130.679 306.607L117.146 314.186C115.941 314.861 116.063 315.621 117.419 315.883L142.258 320.686C143.614 320.948 145.69 320.614 146.895 319.939L160.428 312.359C161.633 311.685 161.51 310.925 160.154 310.663L135.316 305.859ZM160.406 313.091C161.611 312.416 163.688 312.081 165.044 312.344L189.797 317.13C191.153 317.393 191.275 318.152 190.07 318.827L177.187 326.042C175.982 326.717 173.906 327.052 172.55 326.79L147.797 322.003C146.441 321.741 146.318 320.981 147.523 320.306L160.406 313.091ZM195.463 318.688C194.107 318.426 192.031 318.76 190.826 319.435L178.097 326.564C176.892 327.239 177.014 327.999 178.37 328.261L204.034 333.224C205.39 333.486 207.466 333.151 208.671 332.476L221.4 325.347C222.605 324.673 222.482 323.913 221.126 323.651L195.463 318.688Z" fill="url(#paint2_linear_14_7193)" fill-opacity="0.21"/>
<rect width="22.9289" height="31.2606" rx="2.50085" transform="matrix(0.872515 -0.488588 0 1 205.723 335.514)" fill="#4B3696"/>
<rect width="22.9289" height="31.2606" rx="2.50085" transform="matrix(0.872515 -0.488588 0 1 226.527 323.863)" fill="#3F2F78"/>
<rect width="22.9289" height="31.2606" rx="2.50085" transform="matrix(0.872515 -0.488588 0 1 247.334 312.213)" fill="#281E45"/>
<rect width="22.9289" height="31.2606" rx="2.50085" transform="matrix(0.872515 -0.488588 0 1 205.723 368.025)" fill="#3E3373"/>
<rect width="22.9289" height="31.2606" rx="2.50085" transform="matrix(0.872515 -0.488588 0 1 226.527 356.375)" fill="#281E45"/>
<rect width="22.9289" height="31.2606" rx="2.50085" transform="matrix(0.872515 -0.488588 0 1 247.334 344.723)" fill="#032431"/>
<rect width="22.9289" height="31.2606" rx="2.50085" transform="matrix(0.872515 -0.488588 0 1 205.723 400.537)" fill="#322268"/>
<rect width="22.9289" height="31.2606" rx="2.50085" transform="matrix(0.872515 -0.488588 0 1 226.527 388.885)" fill="#011D26"/>
<rect width="22.9289" height="31.2606" rx="2.50085" transform="matrix(0.872515 -0.488588 0 1 247.334 377.234)" fill="#322268"/>
<path opacity="0.4" fill-rule="evenodd" clip-rule="evenodd" d="M246.935 342.17C246.587 343.614 245.588 345.077 244.409 345.737C245.588 345.077 246.587 345.42 246.935 346.476C247.282 345.031 248.281 343.569 249.46 342.909C248.281 343.569 247.282 343.225 246.935 342.17ZM265.215 334.086C266.683 333.264 267.872 331.199 267.872 329.472V303.213C267.872 301.487 266.682 300.753 265.215 301.575L249.46 310.398C248.281 311.058 247.282 312.52 246.935 313.965C246.587 312.909 245.588 312.566 244.409 313.226L228.654 322.048C227.475 322.708 226.476 324.171 226.129 325.616C225.781 324.56 224.782 324.217 223.603 324.877L207.848 333.699C206.381 334.521 205.191 336.587 205.191 338.313V364.572C205.191 366.298 206.381 367.032 207.848 366.21C206.381 367.032 205.191 369.098 205.191 370.824V397.083C205.191 398.81 206.381 399.543 207.848 398.721C206.381 399.543 205.191 401.609 205.191 403.335V429.594C205.191 431.321 206.381 432.054 207.848 431.233L223.603 422.41C224.782 421.75 225.781 420.287 226.129 418.843C226.476 419.898 227.476 420.241 228.654 419.582L244.409 410.759C245.588 410.099 246.587 408.637 246.935 407.192C247.282 408.247 248.281 408.591 249.46 407.931L265.215 399.108C266.682 398.286 267.872 396.221 267.872 394.494V368.235C267.872 366.509 266.682 365.775 265.215 366.597C266.682 365.775 267.872 363.71 267.872 361.983V335.724C267.872 333.998 266.683 333.265 265.215 334.086ZM249.458 375.421C248.28 376.079 247.282 375.736 246.935 374.681C246.587 376.126 245.588 377.588 244.409 378.248C245.588 377.588 246.587 377.931 246.935 378.987C247.282 377.543 248.28 376.081 249.458 375.421ZM228.654 387.07C227.476 387.73 226.476 387.387 226.129 386.332C225.781 387.776 224.782 389.239 223.603 389.899C224.782 389.239 225.781 389.582 226.129 390.638C226.476 389.193 227.475 387.73 228.654 387.07ZM226.129 358.127C226.476 356.682 227.475 355.219 228.654 354.559C227.476 355.219 226.476 354.876 226.129 353.821C225.781 355.264 224.783 356.726 223.606 357.386C224.783 356.728 225.781 357.072 226.129 358.127Z" fill="black"/>
<defs>
<linearGradient id="paint0_linear_14_7193" x1="221.428" y1="417.045" x2="461.565" y2="563.4" gradientUnits="userSpaceOnUse">
<stop stop-color="#342B4B"/>
<stop offset="1" stop-color="#39304F" stop-opacity="0"/>
</linearGradient>
<linearGradient id="paint1_linear_14_7193" x1="134.65" y1="348.886" x2="188.544" y2="352.944" gradientUnits="userSpaceOnUse">
<stop stop-color="white"/>
<stop offset="1" stop-color="white" stop-opacity="0"/>
</linearGradient>
<linearGradient id="paint2_linear_14_7193" x1="150.026" y1="297.513" x2="232.452" y2="316.281" gradientUnits="userSpaceOnUse">
<stop stop-color="white"/>
<stop offset="1" stop-color="white" stop-opacity="0"/>
</linearGradient>
</defs>
</svg>
