<svg width="1300" height="591" viewBox="0 0 1300 591" fill="none" xmlns="http://www.w3.org/2000/svg">
<rect x="577.297" y="305.266" width="141.145" height="95.777" fill="#4DDA36"/>
<rect x="577.297" y="305.266" width="11.7621" height="95.777" fill="#3FCB28"/>
<rect x="589.059" y="305.266" width="11.7621" height="95.777" fill="#33BC1C"/>
<rect x="600.822" y="305.266" width="11.7621" height="95.777" fill="#3FCB28"/>
<rect x="612.584" y="305.266" width="11.7621" height="95.777" fill="#33BC1C"/>
<rect x="624.346" y="305.266" width="11.7621" height="95.777" fill="#3FCB28"/>
<rect x="636.108" y="305.266" width="11.7621" height="95.777" fill="#33BC1C"/>
<rect x="647.87" y="305.266" width="11.7621" height="95.777" fill="#3FCB28"/>
<rect x="659.632" y="305.266" width="11.7621" height="95.777" fill="#33BC1C"/>
<rect x="671.394" y="305.266" width="11.7621" height="95.777" fill="#3FCB28"/>
<rect x="683.156" y="305.266" width="11.7621" height="95.777" fill="#33BC1C"/>
<rect x="694.918" y="305.266" width="11.7621" height="95.777" fill="#3FCB28"/>
<rect x="706.68" y="305.266" width="11.7621" height="95.777" fill="#33BC1C"/>
<path fill-rule="evenodd" clip-rule="evenodd" d="M648 458.023C705.99 458.023 753 411.013 753 353.023C753 295.034 705.99 248.023 648 248.023C590.01 248.023 543 295.034 543 353.023C543 411.013 590.01 458.023 648 458.023ZM581.078 305.265C578.99 305.265 577.297 306.958 577.297 309.046V397.261C577.297 399.349 578.99 401.042 581.078 401.042H714.662C716.75 401.042 718.442 399.349 718.442 397.261V309.046C718.442 306.958 716.75 305.265 714.662 305.265H581.078Z" fill="#5A163B"/>
<path opacity="0.4" fill-rule="evenodd" clip-rule="evenodd" d="M646.61 368.225L646.61 401.043H649.13L649.13 368.225C656.892 367.585 662.993 361.082 662.993 353.154C662.993 345.226 656.892 338.724 649.13 338.083L649.13 305.266L646.61 305.266L646.61 338.083C638.847 338.724 632.747 345.226 632.747 353.154C632.747 361.082 638.847 367.585 646.61 368.225ZM649.13 365.694C655.498 365.062 660.472 359.689 660.472 353.154C660.472 346.619 655.498 341.246 649.13 340.614V365.694ZM646.61 340.614L646.61 365.694C640.241 365.062 635.268 359.689 635.268 353.154C635.268 346.619 640.241 341.246 646.61 340.614Z" fill="white"/>
<path opacity="0.4" fill-rule="evenodd" clip-rule="evenodd" d="M602.502 329.21H577.297V326.689H603.762H605.022V327.95V343.844C607.374 346.509 608.803 350.012 608.803 353.847C608.803 357.681 607.374 361.185 605.022 363.85V379.619V380.879H603.762H577.297V378.359H602.502L602.502 366.532V363.361V344.332V341.162L602.502 329.21ZM606.283 353.847C606.283 355.819 605.83 357.685 605.022 359.347V348.346C605.83 350.008 606.283 351.874 606.283 353.847ZM577.297 344.333H587.379V364.496H577.297V367.017H588.639H589.9V365.756V343.072V341.812H588.639H577.297V344.333Z" fill="white"/>
<path opacity="0.4" fill-rule="evenodd" clip-rule="evenodd" d="M693.238 329.21H718.442V326.689H691.978H690.717V327.95V343.844C688.366 346.509 686.937 350.012 686.937 353.847C686.937 357.681 688.366 361.185 690.717 363.85V379.619V380.879H691.978H718.442V378.359H693.238L693.238 366.532V363.361V344.332V341.162L693.238 341.162V329.21ZM689.457 353.847C689.457 351.874 689.91 350.008 690.717 348.346V359.347C689.91 357.685 689.457 355.819 689.457 353.847ZM718.442 344.333H708.361V364.496H718.442V367.017H707.1H705.84V365.756V343.072V341.812H707.1H718.442V344.333Z" fill="white"/>
<path d="M714.493 201.886C715.61 199.335 718.586 198.167 721.102 199.359C744.895 210.637 765.755 227.315 782.006 248.09C799.294 270.19 810.825 296.236 815.564 323.892C820.304 351.547 818.104 379.946 809.162 406.541C800.756 431.542 786.64 454.214 767.96 472.771C765.985 474.733 762.789 474.623 760.887 472.59L735.343 445.301C733.441 443.269 733.555 440.086 735.507 438.101C748.463 424.929 758.275 408.97 764.177 391.416C770.615 372.268 772.199 351.82 768.786 331.908C765.374 311.997 757.072 293.244 744.625 277.332C733.214 262.745 718.648 250.964 702.045 242.857C699.544 241.636 698.377 238.672 699.494 236.122L714.493 201.886Z" fill="#082148" stroke="#082148" stroke-width="5"/>
<path d="M630.034 189.104C629.721 186.338 631.71 183.834 634.485 183.604C654.298 181.96 674.246 183.815 693.417 189.083C696.101 189.821 697.594 192.648 696.777 195.31L685.805 231.041C684.987 233.703 682.17 235.187 679.477 234.48C666.548 231.087 653.149 229.842 639.816 230.793C637.039 230.991 634.543 229.013 634.231 226.246L630.034 189.104Z" fill="#082148" stroke="#082148" stroke-width="5"/>
<path d="M550.914 220.146C549.262 217.905 549.736 214.742 552.025 213.158C568.371 201.842 586.582 193.49 605.823 188.484C608.517 187.783 611.222 189.488 611.843 192.202L620.174 228.64C620.795 231.354 619.094 234.046 616.408 234.778C603.512 238.293 591.28 243.903 580.203 251.384C577.896 252.942 574.746 252.473 573.094 250.233L550.914 220.146Z" fill="#082148" stroke="#082148" stroke-width="5"/>
<path d="M488.359 315.085C485.648 314.451 483.957 311.737 484.671 309.046C492.384 279.982 507.691 253.491 529.02 232.295C530.995 230.332 534.191 230.442 536.094 232.475L561.642 259.759C563.545 261.791 563.431 264.974 561.479 266.96C546.971 281.715 536.452 299.919 530.913 319.858C530.168 322.54 527.467 324.227 524.756 323.594L488.359 315.085Z" fill="#082148" stroke="#082148" stroke-width="5"/>
<path d="M501.298 425.861C498.806 427.103 495.772 426.092 494.606 423.564C482.003 396.263 476.889 366.097 479.791 336.168C480.06 333.397 482.591 331.442 485.353 331.793L522.433 336.505C525.195 336.856 527.138 339.379 526.901 342.153C525.143 362.771 528.657 383.501 537.112 402.388C538.249 404.929 537.246 407.952 534.754 409.193L501.298 425.861Z" fill="#082148" stroke="#082148" stroke-width="5"/>
<path d="M749.838 482.051C751.554 484.244 751.171 487.418 748.928 489.068C732.374 501.244 713.732 510.316 693.906 515.828C674.081 521.341 653.431 523.193 632.968 521.31C630.196 521.055 628.23 518.534 628.567 515.77L633.097 478.667C633.435 475.904 635.948 473.948 638.723 474.171C652.996 475.318 667.372 473.946 681.193 470.103C695.013 466.26 708.035 460.015 719.667 451.665C721.928 450.042 725.091 450.419 726.806 452.612L749.838 482.051Z" fill="#082148" stroke="#082148" stroke-width="5"/>
<path d="M613.18 513.145C612.582 515.864 609.891 517.591 607.191 516.913C587.261 511.905 568.394 503.31 551.517 491.536C534.641 479.763 520.061 465.022 508.48 448.047C506.911 445.747 507.603 442.625 509.948 441.125L541.438 420.988C543.784 419.488 546.893 420.18 548.488 422.462C556.693 434.196 566.908 444.405 578.672 452.613C590.437 460.82 603.545 466.882 617.391 470.532C620.083 471.241 621.806 473.92 621.208 476.639L613.18 513.145Z" fill="#082148" stroke="#082148" stroke-width="5"/>
<circle cx="858" cy="557.523" r="4" fill="#4DDA36"/>
<path d="M876.352 558.023V537.895L879.072 540.519H872.192V535.623H882.688V558.023H876.352ZM895.945 558.471C894.025 558.471 892.318 558.013 890.825 557.095C889.353 556.178 888.19 554.855 887.337 553.127C886.483 551.399 886.057 549.298 886.057 546.823C886.057 544.349 886.483 542.247 887.337 540.519C888.19 538.791 889.353 537.469 890.825 536.551C892.318 535.634 894.025 535.175 895.945 535.175C897.843 535.175 899.529 535.634 901.001 536.551C902.494 537.469 903.667 538.791 904.521 540.519C905.374 542.247 905.801 544.349 905.801 546.823C905.801 549.298 905.374 551.399 904.521 553.127C903.667 554.855 902.494 556.178 901.001 557.095C899.529 558.013 897.843 558.471 895.945 558.471ZM895.945 553.287C896.627 553.287 897.225 553.074 897.737 552.647C898.27 552.221 898.686 551.538 898.985 550.599C899.283 549.639 899.433 548.381 899.433 546.823C899.433 545.245 899.283 543.986 898.985 543.047C898.686 542.109 898.27 541.426 897.737 540.999C897.225 540.573 896.627 540.359 895.945 540.359C895.262 540.359 894.654 540.573 894.121 540.999C893.609 541.426 893.193 542.109 892.873 543.047C892.574 543.986 892.425 545.245 892.425 546.823C892.425 548.381 892.574 549.639 892.873 550.599C893.193 551.538 893.609 552.221 894.121 552.647C894.654 553.074 895.262 553.287 895.945 553.287ZM911.259 558.023L926.555 535.623H931.163L915.867 558.023H911.259ZM913.307 547.751C912.219 547.751 911.238 547.506 910.363 547.015C909.488 546.525 908.806 545.821 908.315 544.903C907.824 543.965 907.579 542.845 907.579 541.543C907.579 540.242 907.824 539.133 908.315 538.215C908.806 537.298 909.488 536.594 910.363 536.103C911.238 535.591 912.219 535.335 913.307 535.335C914.416 535.335 915.398 535.591 916.251 536.103C917.126 536.594 917.808 537.298 918.299 538.215C918.811 539.133 919.067 540.242 919.067 541.543C919.067 542.823 918.811 543.933 918.299 544.871C917.808 545.81 917.126 546.525 916.251 547.015C915.398 547.506 914.416 547.751 913.307 547.751ZM913.339 544.711C913.872 544.711 914.31 544.466 914.651 543.975C915.014 543.485 915.195 542.674 915.195 541.543C915.195 540.413 915.014 539.602 914.651 539.111C914.31 538.621 913.872 538.375 913.339 538.375C912.806 538.375 912.347 538.621 911.963 539.111C911.6 539.602 911.419 540.413 911.419 541.543C911.419 542.674 911.6 543.485 911.963 543.975C912.347 544.466 912.806 544.711 913.339 544.711ZM929.115 558.311C928.006 558.311 927.014 558.066 926.139 557.575C925.286 557.085 924.614 556.381 924.123 555.463C923.632 554.525 923.387 553.405 923.387 552.103C923.387 550.802 923.632 549.693 924.123 548.775C924.614 547.858 925.286 547.154 926.139 546.663C927.014 546.151 928.006 545.895 929.115 545.895C930.224 545.895 931.206 546.151 932.059 546.663C932.934 547.154 933.616 547.858 934.107 548.775C934.619 549.693 934.875 550.802 934.875 552.103C934.875 553.405 934.619 554.525 934.107 555.463C933.616 556.381 932.934 557.085 932.059 557.575C931.206 558.066 930.224 558.311 929.115 558.311ZM929.115 555.271C929.648 555.271 930.096 555.026 930.459 554.535C930.822 554.045 931.003 553.234 931.003 552.103C931.003 550.973 930.822 550.162 930.459 549.671C930.096 549.181 929.648 548.935 929.115 548.935C928.603 548.935 928.155 549.181 927.771 549.671C927.408 550.162 927.227 550.973 927.227 552.103C927.227 553.234 927.408 554.045 927.771 554.535C928.155 555.026 928.603 555.271 929.115 555.271Z" fill="#082148"/>
<path d="M882.44 583.023L877.868 576.813L879.326 575.913L884.492 583.023H882.44ZM873.962 583.023V570.423H875.726V583.023H873.962ZM875.186 577.479V575.895H879.272V577.479H875.186ZM879.488 576.921L877.832 576.669L882.35 570.423H884.276L879.488 576.921ZM890.012 583.131C889.052 583.131 888.2 582.921 887.456 582.501C886.712 582.081 886.124 581.505 885.692 580.773C885.26 580.029 885.044 579.189 885.044 578.253C885.044 577.305 885.26 576.465 885.692 575.733C886.124 575.001 886.712 574.431 887.456 574.023C888.2 573.603 889.052 573.393 890.012 573.393C890.96 573.393 891.806 573.603 892.55 574.023C893.306 574.431 893.894 575.001 894.314 575.733C894.746 576.453 894.962 577.293 894.962 578.253C894.962 579.201 894.746 580.041 894.314 580.773C893.894 581.505 893.306 582.081 892.55 582.501C891.806 582.921 890.96 583.131 890.012 583.131ZM890.012 581.619C890.624 581.619 891.17 581.481 891.65 581.205C892.142 580.929 892.526 580.539 892.802 580.035C893.078 579.519 893.216 578.925 893.216 578.253C893.216 577.569 893.078 576.981 892.802 576.489C892.526 575.985 892.142 575.595 891.65 575.319C891.17 575.043 890.624 574.905 890.012 574.905C889.4 574.905 888.854 575.043 888.374 575.319C887.894 575.595 887.51 575.985 887.222 576.489C886.934 576.981 886.79 577.569 886.79 578.253C886.79 578.925 886.934 579.519 887.222 580.035C887.51 580.539 887.894 580.929 888.374 581.205C888.854 581.481 889.4 581.619 890.012 581.619ZM901.615 583.131C900.643 583.131 899.773 582.921 899.005 582.501C898.249 582.081 897.655 581.505 897.223 580.773C896.791 580.041 896.575 579.201 896.575 578.253C896.575 577.305 896.791 576.465 897.223 575.733C897.655 575.001 898.249 574.431 899.005 574.023C899.773 573.603 900.643 573.393 901.615 573.393C902.479 573.393 903.247 573.567 903.919 573.915C904.603 574.251 905.131 574.755 905.503 575.427L904.189 576.273C903.877 575.805 903.493 575.463 903.037 575.247C902.593 575.019 902.113 574.905 901.597 574.905C900.973 574.905 900.415 575.043 899.923 575.319C899.431 575.595 899.041 575.985 898.753 576.489C898.465 576.981 898.321 577.569 898.321 578.253C898.321 578.937 898.465 579.531 898.753 580.035C899.041 580.539 899.431 580.929 899.923 581.205C900.415 581.481 900.973 581.619 901.597 581.619C902.113 581.619 902.593 581.511 903.037 581.295C903.493 581.067 903.877 580.719 904.189 580.251L905.503 581.079C905.131 581.739 904.603 582.249 903.919 582.609C903.247 582.957 902.479 583.131 901.615 583.131ZM907.74 583.023V573.483H909.522L913.626 580.539H912.906L917.118 573.483H918.738V583.023H917.172V575.427L917.46 575.589L913.608 581.943H912.852L908.982 575.463L909.324 575.391V583.023H907.74ZM922.102 583.023V573.483H923.83V580.431L929.68 573.483H931.246V583.023H929.518V576.075L923.686 583.023H922.102ZM940.612 579.117C940.108 579.357 939.586 579.549 939.046 579.693C938.518 579.825 937.972 579.891 937.408 579.891C936.256 579.891 935.344 579.621 934.672 579.081C934.012 578.541 933.682 577.707 933.682 576.579V573.483H935.41V576.471C935.41 577.155 935.62 577.659 936.04 577.983C936.472 578.307 937.048 578.469 937.768 578.469C938.224 578.469 938.692 578.409 939.172 578.289C939.664 578.169 940.144 578.001 940.612 577.785V579.117ZM940.486 583.023V573.483H942.214V583.023H940.486ZM949.817 583.131C948.797 583.131 947.897 582.921 947.117 582.501C946.349 582.081 945.749 581.505 945.317 580.773C944.897 580.041 944.687 579.201 944.687 578.253C944.687 577.305 944.891 576.465 945.299 575.733C945.719 575.001 946.289 574.431 947.009 574.023C947.741 573.603 948.563 573.393 949.475 573.393C950.399 573.393 951.215 573.597 951.923 574.005C952.631 574.413 953.183 574.989 953.579 575.733C953.987 576.465 954.191 577.323 954.191 578.307C954.191 578.379 954.185 578.463 954.173 578.559C954.173 578.655 954.167 578.745 954.155 578.829H946.037V577.587H953.255L952.553 578.019C952.565 577.407 952.439 576.861 952.175 576.381C951.911 575.901 951.545 575.529 951.077 575.265C950.621 574.989 950.087 574.851 949.475 574.851C948.875 574.851 948.341 574.989 947.873 575.265C947.405 575.529 947.039 575.907 946.775 576.399C946.511 576.879 946.379 577.431 946.379 578.055V578.343C946.379 578.979 946.523 579.549 946.811 580.053C947.111 580.545 947.525 580.929 948.053 581.205C948.581 581.481 949.187 581.619 949.871 581.619C950.435 581.619 950.945 581.523 951.401 581.331C951.869 581.139 952.277 580.851 952.625 580.467L953.579 581.583C953.147 582.087 952.607 582.471 951.959 582.735C951.323 582.999 950.609 583.131 949.817 583.131ZM961.029 583.131C960.057 583.131 959.187 582.921 958.419 582.501C957.663 582.081 957.069 581.505 956.637 580.773C956.205 580.041 955.989 579.201 955.989 578.253C955.989 577.305 956.205 576.465 956.637 575.733C957.069 575.001 957.663 574.431 958.419 574.023C959.187 573.603 960.057 573.393 961.029 573.393C961.893 573.393 962.661 573.567 963.333 573.915C964.017 574.251 964.545 574.755 964.917 575.427L963.603 576.273C963.291 575.805 962.907 575.463 962.451 575.247C962.007 575.019 961.527 574.905 961.011 574.905C960.387 574.905 959.829 575.043 959.337 575.319C958.845 575.595 958.455 575.985 958.167 576.489C957.879 576.981 957.735 577.569 957.735 578.253C957.735 578.937 957.879 579.531 958.167 580.035C958.455 580.539 958.845 580.929 959.337 581.205C959.829 581.481 960.387 581.619 961.011 581.619C961.527 581.619 962.007 581.511 962.451 581.295C962.907 581.067 963.291 580.719 963.603 580.251L964.917 581.079C964.545 581.739 964.017 582.249 963.333 582.609C962.661 582.957 961.893 583.131 961.029 583.131ZM967.154 583.023V573.483H968.882V580.431L974.732 573.483H976.298V583.023H974.57V576.075L968.738 583.023H967.154ZM986.565 583.023L982.875 578.379L984.297 577.515L988.599 583.023H986.565ZM979.653 583.023V573.483H981.381V583.023H979.653ZM980.859 578.991V577.515H984.009V578.991H980.859ZM984.441 578.451L982.839 578.235L986.493 573.483H988.347L984.441 578.451ZM990.41 583.023V573.483H992.138V580.431L997.988 573.483H999.554V583.023H997.826V576.075L991.994 583.023H990.41ZM994.874 572.241C993.998 572.241 993.308 572.031 992.804 571.611C992.312 571.179 992.06 570.561 992.048 569.757H993.218C993.23 570.213 993.38 570.573 993.668 570.837C993.968 571.101 994.364 571.233 994.856 571.233C995.348 571.233 995.744 571.101 996.044 570.837C996.344 570.573 996.5 570.213 996.512 569.757H997.718C997.706 570.561 997.448 571.179 996.944 571.611C996.44 572.031 995.75 572.241 994.874 572.241ZM1013.43 583.167C1013.42 583.167 1013.38 583.167 1013.3 583.167C1013.24 583.167 1013.18 583.167 1013.12 583.167C1013.06 583.167 1013.03 583.167 1013.02 583.167C1011.06 583.143 1009.54 582.711 1008.46 581.871C1007.38 581.019 1006.84 579.807 1006.84 578.235C1006.84 576.675 1007.38 575.481 1008.46 574.653C1009.55 573.813 1011.09 573.387 1013.07 573.375C1013.09 573.375 1013.13 573.375 1013.18 573.375C1013.24 573.375 1013.29 573.375 1013.34 573.375C1013.4 573.375 1013.44 573.375 1013.45 573.375C1015.45 573.375 1017.01 573.795 1018.11 574.635C1019.23 575.475 1019.78 576.675 1019.78 578.235C1019.78 579.819 1019.23 581.037 1018.11 581.889C1016.99 582.741 1015.43 583.167 1013.43 583.167ZM1013.39 581.655C1014.44 581.655 1015.3 581.523 1015.99 581.259C1016.68 580.995 1017.2 580.611 1017.55 580.107C1017.9 579.603 1018.07 578.979 1018.07 578.235C1018.07 577.503 1017.9 576.891 1017.55 576.399C1017.2 575.907 1016.68 575.535 1015.99 575.283C1015.3 575.031 1014.44 574.905 1013.39 574.905C1013.37 574.905 1013.32 574.905 1013.25 574.905C1013.18 574.905 1013.14 574.905 1013.12 574.905C1012.1 574.905 1011.25 575.037 1010.57 575.301C1009.9 575.553 1009.39 575.925 1009.06 576.417C1008.72 576.909 1008.55 577.515 1008.55 578.235C1008.55 578.967 1008.72 579.585 1009.06 580.089C1009.4 580.593 1009.91 580.977 1010.59 581.241C1011.27 581.505 1012.12 581.643 1013.12 581.655C1013.15 581.655 1013.19 581.655 1013.25 581.655C1013.32 581.655 1013.37 581.655 1013.39 581.655ZM1012.46 586.515V569.667H1014.15V586.515H1012.46ZM1026.31 583.131C1025.35 583.131 1024.5 582.921 1023.76 582.501C1023.01 582.081 1022.42 581.505 1021.99 580.773C1021.56 580.029 1021.34 579.189 1021.34 578.253C1021.34 577.305 1021.56 576.465 1021.99 575.733C1022.42 575.001 1023.01 574.431 1023.76 574.023C1024.5 573.603 1025.35 573.393 1026.31 573.393C1027.26 573.393 1028.11 573.603 1028.85 574.023C1029.61 574.431 1030.19 575.001 1030.61 575.733C1031.05 576.453 1031.26 577.293 1031.26 578.253C1031.26 579.201 1031.05 580.041 1030.61 580.773C1030.19 581.505 1029.61 582.081 1028.85 582.501C1028.11 582.921 1027.26 583.131 1026.31 583.131ZM1026.31 581.619C1026.92 581.619 1027.47 581.481 1027.95 581.205C1028.44 580.929 1028.83 580.539 1029.1 580.035C1029.38 579.519 1029.52 578.925 1029.52 578.253C1029.52 577.569 1029.38 576.981 1029.1 576.489C1028.83 575.985 1028.44 575.595 1027.95 575.319C1027.47 575.043 1026.92 574.905 1026.31 574.905C1025.7 574.905 1025.15 575.043 1024.67 575.319C1024.19 575.595 1023.81 575.985 1023.52 576.489C1023.23 576.981 1023.09 577.569 1023.09 578.253C1023.09 578.925 1023.23 579.519 1023.52 580.035C1023.81 580.539 1024.19 580.929 1024.67 581.205C1025.15 581.481 1025.7 581.619 1026.31 581.619ZM1033.76 583.023V573.483H1035.49V577.533H1040.92V573.483H1042.65V583.023H1040.92V579.027H1035.49V583.023H1033.76ZM1052.53 582.213V574.995H1048.39L1048.3 576.831C1048.27 577.431 1048.23 578.013 1048.17 578.577C1048.12 579.129 1048.04 579.639 1047.92 580.107C1047.81 580.575 1047.65 580.959 1047.43 581.259C1047.22 581.559 1046.93 581.745 1046.57 581.817L1044.86 581.511C1045.23 581.523 1045.53 581.403 1045.76 581.151C1045.99 580.887 1046.16 580.527 1046.28 580.071C1046.41 579.615 1046.51 579.099 1046.57 578.523C1046.63 577.935 1046.68 577.329 1046.71 576.705L1046.86 573.483H1054.25V582.213H1052.53ZM1044.48 585.237V581.511H1055.71V585.237H1054.09V583.023H1046.12V585.237H1044.48Z" fill="black"/>
<path d="M691 496.023L757.693 550.759C763.416 555.456 770.59 558.023 777.994 558.023H856" stroke="#4DDA36" stroke-width="4"/>
<circle cx="691" cy="496.023" r="4" fill="#4DDA36"/>
<path d="M752 243.523L834.209 164.459C840.17 158.726 848.12 155.523 856.391 155.523H868.5" stroke="#4DDA36" stroke-width="4"/>
<circle cx="868" cy="153.523" r="4" fill="#4DDA36"/>
<path d="M886.352 154.023V133.895L889.072 136.519H882.192V131.623H892.688V154.023H886.352ZM905.945 154.471C904.025 154.471 902.318 154.013 900.825 153.095C899.353 152.178 898.19 150.855 897.337 149.127C896.483 147.399 896.057 145.298 896.057 142.823C896.057 140.349 896.483 138.247 897.337 136.519C898.19 134.791 899.353 133.469 900.825 132.551C902.318 131.634 904.025 131.175 905.945 131.175C907.843 131.175 909.529 131.634 911.001 132.551C912.494 133.469 913.667 134.791 914.521 136.519C915.374 138.247 915.801 140.349 915.801 142.823C915.801 145.298 915.374 147.399 914.521 149.127C913.667 150.855 912.494 152.178 911.001 153.095C909.529 154.013 907.843 154.471 905.945 154.471ZM905.945 149.287C906.627 149.287 907.225 149.074 907.737 148.647C908.27 148.221 908.686 147.538 908.985 146.599C909.283 145.639 909.433 144.381 909.433 142.823C909.433 141.245 909.283 139.986 908.985 139.047C908.686 138.109 908.27 137.426 907.737 136.999C907.225 136.573 906.627 136.359 905.945 136.359C905.262 136.359 904.654 136.573 904.121 136.999C903.609 137.426 903.193 138.109 902.873 139.047C902.574 139.986 902.425 141.245 902.425 142.823C902.425 144.381 902.574 145.639 902.873 146.599C903.193 147.538 903.609 148.221 904.121 148.647C904.654 149.074 905.262 149.287 905.945 149.287ZM921.259 154.023L936.555 131.623H941.163L925.867 154.023H921.259ZM923.307 143.751C922.219 143.751 921.238 143.506 920.363 143.015C919.488 142.525 918.806 141.821 918.315 140.903C917.824 139.965 917.579 138.845 917.579 137.543C917.579 136.242 917.824 135.133 918.315 134.215C918.806 133.298 919.488 132.594 920.363 132.103C921.238 131.591 922.219 131.335 923.307 131.335C924.416 131.335 925.398 131.591 926.251 132.103C927.126 132.594 927.808 133.298 928.299 134.215C928.811 135.133 929.067 136.242 929.067 137.543C929.067 138.823 928.811 139.933 928.299 140.871C927.808 141.81 927.126 142.525 926.251 143.015C925.398 143.506 924.416 143.751 923.307 143.751ZM923.339 140.711C923.872 140.711 924.31 140.466 924.651 139.975C925.014 139.485 925.195 138.674 925.195 137.543C925.195 136.413 925.014 135.602 924.651 135.111C924.31 134.621 923.872 134.375 923.339 134.375C922.806 134.375 922.347 134.621 921.963 135.111C921.6 135.602 921.419 136.413 921.419 137.543C921.419 138.674 921.6 139.485 921.963 139.975C922.347 140.466 922.806 140.711 923.339 140.711ZM939.115 154.311C938.006 154.311 937.014 154.066 936.139 153.575C935.286 153.085 934.614 152.381 934.123 151.463C933.632 150.525 933.387 149.405 933.387 148.103C933.387 146.802 933.632 145.693 934.123 144.775C934.614 143.858 935.286 143.154 936.139 142.663C937.014 142.151 938.006 141.895 939.115 141.895C940.224 141.895 941.206 142.151 942.059 142.663C942.934 143.154 943.616 143.858 944.107 144.775C944.619 145.693 944.875 146.802 944.875 148.103C944.875 149.405 944.619 150.525 944.107 151.463C943.616 152.381 942.934 153.085 942.059 153.575C941.206 154.066 940.224 154.311 939.115 154.311ZM939.115 151.271C939.648 151.271 940.096 151.026 940.459 150.535C940.822 150.045 941.003 149.234 941.003 148.103C941.003 146.973 940.822 146.162 940.459 145.671C940.096 145.181 939.648 144.935 939.115 144.935C938.603 144.935 938.155 145.181 937.771 145.671C937.408 146.162 937.227 146.973 937.227 148.103C937.227 149.234 937.408 150.045 937.771 150.535C938.155 151.026 938.603 151.271 939.115 151.271Z" fill="#082148"/>
<path d="M892.44 179.023L887.868 172.813L889.326 171.913L894.492 179.023H892.44ZM883.962 179.023V166.423H885.726V179.023H883.962ZM885.186 173.479V171.895H889.272V173.479H885.186ZM889.488 172.921L887.832 172.669L892.35 166.423H894.276L889.488 172.921ZM900.012 179.131C899.052 179.131 898.2 178.921 897.456 178.501C896.712 178.081 896.124 177.505 895.692 176.773C895.26 176.029 895.044 175.189 895.044 174.253C895.044 173.305 895.26 172.465 895.692 171.733C896.124 171.001 896.712 170.431 897.456 170.023C898.2 169.603 899.052 169.393 900.012 169.393C900.96 169.393 901.806 169.603 902.55 170.023C903.306 170.431 903.894 171.001 904.314 171.733C904.746 172.453 904.962 173.293 904.962 174.253C904.962 175.201 904.746 176.041 904.314 176.773C903.894 177.505 903.306 178.081 902.55 178.501C901.806 178.921 900.96 179.131 900.012 179.131ZM900.012 177.619C900.624 177.619 901.17 177.481 901.65 177.205C902.142 176.929 902.526 176.539 902.802 176.035C903.078 175.519 903.216 174.925 903.216 174.253C903.216 173.569 903.078 172.981 902.802 172.489C902.526 171.985 902.142 171.595 901.65 171.319C901.17 171.043 900.624 170.905 900.012 170.905C899.4 170.905 898.854 171.043 898.374 171.319C897.894 171.595 897.51 171.985 897.222 172.489C896.934 172.981 896.79 173.569 896.79 174.253C896.79 174.925 896.934 175.519 897.222 176.035C897.51 176.539 897.894 176.929 898.374 177.205C898.854 177.481 899.4 177.619 900.012 177.619ZM911.615 179.131C910.643 179.131 909.773 178.921 909.005 178.501C908.249 178.081 907.655 177.505 907.223 176.773C906.791 176.041 906.575 175.201 906.575 174.253C906.575 173.305 906.791 172.465 907.223 171.733C907.655 171.001 908.249 170.431 909.005 170.023C909.773 169.603 910.643 169.393 911.615 169.393C912.479 169.393 913.247 169.567 913.919 169.915C914.603 170.251 915.131 170.755 915.503 171.427L914.189 172.273C913.877 171.805 913.493 171.463 913.037 171.247C912.593 171.019 912.113 170.905 911.597 170.905C910.973 170.905 910.415 171.043 909.923 171.319C909.431 171.595 909.041 171.985 908.753 172.489C908.465 172.981 908.321 173.569 908.321 174.253C908.321 174.937 908.465 175.531 908.753 176.035C909.041 176.539 909.431 176.929 909.923 177.205C910.415 177.481 910.973 177.619 911.597 177.619C912.113 177.619 912.593 177.511 913.037 177.295C913.493 177.067 913.877 176.719 914.189 176.251L915.503 177.079C915.131 177.739 914.603 178.249 913.919 178.609C913.247 178.957 912.479 179.131 911.615 179.131ZM917.74 179.023V169.483H919.522L923.626 176.539H922.906L927.118 169.483H928.738V179.023H927.172V171.427L927.46 171.589L923.608 177.943H922.852L918.982 171.463L919.324 171.391V179.023H917.74ZM932.102 179.023V169.483H933.83V176.431L939.68 169.483H941.246V179.023H939.518V172.075L933.686 179.023H932.102ZM950.612 175.117C950.108 175.357 949.586 175.549 949.046 175.693C948.518 175.825 947.972 175.891 947.408 175.891C946.256 175.891 945.344 175.621 944.672 175.081C944.012 174.541 943.682 173.707 943.682 172.579V169.483H945.41V172.471C945.41 173.155 945.62 173.659 946.04 173.983C946.472 174.307 947.048 174.469 947.768 174.469C948.224 174.469 948.692 174.409 949.172 174.289C949.664 174.169 950.144 174.001 950.612 173.785V175.117ZM950.486 179.023V169.483H952.214V179.023H950.486ZM959.817 179.131C958.797 179.131 957.897 178.921 957.117 178.501C956.349 178.081 955.749 177.505 955.317 176.773C954.897 176.041 954.687 175.201 954.687 174.253C954.687 173.305 954.891 172.465 955.299 171.733C955.719 171.001 956.289 170.431 957.009 170.023C957.741 169.603 958.563 169.393 959.475 169.393C960.399 169.393 961.215 169.597 961.923 170.005C962.631 170.413 963.183 170.989 963.579 171.733C963.987 172.465 964.191 173.323 964.191 174.307C964.191 174.379 964.185 174.463 964.173 174.559C964.173 174.655 964.167 174.745 964.155 174.829H956.037V173.587H963.255L962.553 174.019C962.565 173.407 962.439 172.861 962.175 172.381C961.911 171.901 961.545 171.529 961.077 171.265C960.621 170.989 960.087 170.851 959.475 170.851C958.875 170.851 958.341 170.989 957.873 171.265C957.405 171.529 957.039 171.907 956.775 172.399C956.511 172.879 956.379 173.431 956.379 174.055V174.343C956.379 174.979 956.523 175.549 956.811 176.053C957.111 176.545 957.525 176.929 958.053 177.205C958.581 177.481 959.187 177.619 959.871 177.619C960.435 177.619 960.945 177.523 961.401 177.331C961.869 177.139 962.277 176.851 962.625 176.467L963.579 177.583C963.147 178.087 962.607 178.471 961.959 178.735C961.323 178.999 960.609 179.131 959.817 179.131ZM971.029 179.131C970.057 179.131 969.187 178.921 968.419 178.501C967.663 178.081 967.069 177.505 966.637 176.773C966.205 176.041 965.989 175.201 965.989 174.253C965.989 173.305 966.205 172.465 966.637 171.733C967.069 171.001 967.663 170.431 968.419 170.023C969.187 169.603 970.057 169.393 971.029 169.393C971.893 169.393 972.661 169.567 973.333 169.915C974.017 170.251 974.545 170.755 974.917 171.427L973.603 172.273C973.291 171.805 972.907 171.463 972.451 171.247C972.007 171.019 971.527 170.905 971.011 170.905C970.387 170.905 969.829 171.043 969.337 171.319C968.845 171.595 968.455 171.985 968.167 172.489C967.879 172.981 967.735 173.569 967.735 174.253C967.735 174.937 967.879 175.531 968.167 176.035C968.455 176.539 968.845 176.929 969.337 177.205C969.829 177.481 970.387 177.619 971.011 177.619C971.527 177.619 972.007 177.511 972.451 177.295C972.907 177.067 973.291 176.719 973.603 176.251L974.917 177.079C974.545 177.739 974.017 178.249 973.333 178.609C972.661 178.957 971.893 179.131 971.029 179.131ZM977.154 179.023V169.483H978.882V176.431L984.732 169.483H986.298V179.023H984.57V172.075L978.738 179.023H977.154ZM996.565 179.023L992.875 174.379L994.297 173.515L998.599 179.023H996.565ZM989.653 179.023V169.483H991.381V179.023H989.653ZM990.859 174.991V173.515H994.009V174.991H990.859ZM994.441 174.451L992.839 174.235L996.493 169.483H998.347L994.441 174.451ZM1000.41 179.023V169.483H1002.14V176.431L1007.99 169.483H1009.55V179.023H1007.83V172.075L1001.99 179.023H1000.41ZM1004.87 168.241C1004 168.241 1003.31 168.031 1002.8 167.611C1002.31 167.179 1002.06 166.561 1002.05 165.757H1003.22C1003.23 166.213 1003.38 166.573 1003.67 166.837C1003.97 167.101 1004.36 167.233 1004.86 167.233C1005.35 167.233 1005.74 167.101 1006.04 166.837C1006.34 166.573 1006.5 166.213 1006.51 165.757H1007.72C1007.71 166.561 1007.45 167.179 1006.94 167.611C1006.44 168.031 1005.75 168.241 1004.87 168.241ZM1023.43 179.167C1023.42 179.167 1023.38 179.167 1023.3 179.167C1023.24 179.167 1023.18 179.167 1023.12 179.167C1023.06 179.167 1023.03 179.167 1023.02 179.167C1021.06 179.143 1019.54 178.711 1018.46 177.871C1017.38 177.019 1016.84 175.807 1016.84 174.235C1016.84 172.675 1017.38 171.481 1018.46 170.653C1019.55 169.813 1021.09 169.387 1023.07 169.375C1023.09 169.375 1023.13 169.375 1023.18 169.375C1023.24 169.375 1023.29 169.375 1023.34 169.375C1023.4 169.375 1023.44 169.375 1023.45 169.375C1025.45 169.375 1027.01 169.795 1028.11 170.635C1029.23 171.475 1029.78 172.675 1029.78 174.235C1029.78 175.819 1029.23 177.037 1028.11 177.889C1026.99 178.741 1025.43 179.167 1023.43 179.167ZM1023.39 177.655C1024.44 177.655 1025.3 177.523 1025.99 177.259C1026.68 176.995 1027.2 176.611 1027.55 176.107C1027.9 175.603 1028.07 174.979 1028.07 174.235C1028.07 173.503 1027.9 172.891 1027.55 172.399C1027.2 171.907 1026.68 171.535 1025.99 171.283C1025.3 171.031 1024.44 170.905 1023.39 170.905C1023.37 170.905 1023.32 170.905 1023.25 170.905C1023.18 170.905 1023.14 170.905 1023.12 170.905C1022.1 170.905 1021.25 171.037 1020.57 171.301C1019.9 171.553 1019.39 171.925 1019.06 172.417C1018.72 172.909 1018.55 173.515 1018.55 174.235C1018.55 174.967 1018.72 175.585 1019.06 176.089C1019.4 176.593 1019.91 176.977 1020.59 177.241C1021.27 177.505 1022.12 177.643 1023.12 177.655C1023.15 177.655 1023.19 177.655 1023.25 177.655C1023.32 177.655 1023.37 177.655 1023.39 177.655ZM1022.46 182.515V165.667H1024.15V182.515H1022.46ZM1036.31 179.131C1035.35 179.131 1034.5 178.921 1033.76 178.501C1033.01 178.081 1032.42 177.505 1031.99 176.773C1031.56 176.029 1031.34 175.189 1031.34 174.253C1031.34 173.305 1031.56 172.465 1031.99 171.733C1032.42 171.001 1033.01 170.431 1033.76 170.023C1034.5 169.603 1035.35 169.393 1036.31 169.393C1037.26 169.393 1038.11 169.603 1038.85 170.023C1039.61 170.431 1040.19 171.001 1040.61 171.733C1041.05 172.453 1041.26 173.293 1041.26 174.253C1041.26 175.201 1041.05 176.041 1040.61 176.773C1040.19 177.505 1039.61 178.081 1038.85 178.501C1038.11 178.921 1037.26 179.131 1036.31 179.131ZM1036.31 177.619C1036.92 177.619 1037.47 177.481 1037.95 177.205C1038.44 176.929 1038.83 176.539 1039.1 176.035C1039.38 175.519 1039.52 174.925 1039.52 174.253C1039.52 173.569 1039.38 172.981 1039.1 172.489C1038.83 171.985 1038.44 171.595 1037.95 171.319C1037.47 171.043 1036.92 170.905 1036.31 170.905C1035.7 170.905 1035.15 171.043 1034.67 171.319C1034.19 171.595 1033.81 171.985 1033.52 172.489C1033.23 172.981 1033.09 173.569 1033.09 174.253C1033.09 174.925 1033.23 175.519 1033.52 176.035C1033.81 176.539 1034.19 176.929 1034.67 177.205C1035.15 177.481 1035.7 177.619 1036.31 177.619ZM1043.76 179.023V169.483H1045.49V173.533H1050.92V169.483H1052.65V179.023H1050.92V175.027H1045.49V179.023H1043.76ZM1062.53 178.213V170.995H1058.39L1058.3 172.831C1058.27 173.431 1058.23 174.013 1058.17 174.577C1058.12 175.129 1058.04 175.639 1057.92 176.107C1057.81 176.575 1057.65 176.959 1057.43 177.259C1057.22 177.559 1056.93 177.745 1056.57 177.817L1054.86 177.511C1055.23 177.523 1055.53 177.403 1055.76 177.151C1055.99 176.887 1056.16 176.527 1056.28 176.071C1056.41 175.615 1056.51 175.099 1056.57 174.523C1056.63 173.935 1056.68 173.329 1056.71 172.705L1056.86 169.483H1064.25V178.213H1062.53ZM1054.48 181.237V177.511H1065.71V181.237H1064.09V179.023H1056.12V181.237H1054.48Z" fill="black"/>
<path d="M798 352.023L944 352.023" stroke="#4DDA36" stroke-width="4"/>
<circle cx="797" cy="352.023" r="4" fill="#4DDA36"/>
<path d="M294.758 279.023V258.895L297.478 261.519H290.598V256.623H301.094V279.023H294.758ZM314.351 279.471C312.431 279.471 310.724 279.013 309.231 278.095C307.759 277.178 306.596 275.855 305.743 274.127C304.89 272.399 304.463 270.298 304.463 267.823C304.463 265.349 304.89 263.247 305.743 261.519C306.596 259.791 307.759 258.469 309.231 257.551C310.724 256.634 312.431 256.175 314.351 256.175C316.25 256.175 317.935 256.634 319.407 257.551C320.9 258.469 322.074 259.791 322.927 261.519C323.78 263.247 324.207 265.349 324.207 267.823C324.207 270.298 323.78 272.399 322.927 274.127C322.074 275.855 320.9 277.178 319.407 278.095C317.935 279.013 316.25 279.471 314.351 279.471ZM314.351 274.287C315.034 274.287 315.631 274.074 316.143 273.647C316.676 273.221 317.092 272.538 317.391 271.599C317.69 270.639 317.839 269.381 317.839 267.823C317.839 266.245 317.69 264.986 317.391 264.047C317.092 263.109 316.676 262.426 316.143 261.999C315.631 261.573 315.034 261.359 314.351 261.359C313.668 261.359 313.06 261.573 312.527 261.999C312.015 262.426 311.599 263.109 311.279 264.047C310.98 264.986 310.831 266.245 310.831 267.823C310.831 269.381 310.98 270.639 311.279 271.599C311.599 272.538 312.015 273.221 312.527 273.647C313.06 274.074 313.668 274.287 314.351 274.287ZM329.665 279.023L344.961 256.623H349.569L334.273 279.023H329.665ZM331.713 268.751C330.625 268.751 329.644 268.506 328.769 268.015C327.895 267.525 327.212 266.821 326.721 265.903C326.231 264.965 325.985 263.845 325.985 262.543C325.985 261.242 326.231 260.133 326.721 259.215C327.212 258.298 327.895 257.594 328.769 257.103C329.644 256.591 330.625 256.335 331.713 256.335C332.823 256.335 333.804 256.591 334.657 257.103C335.532 257.594 336.215 258.298 336.705 259.215C337.217 260.133 337.473 261.242 337.473 262.543C337.473 263.823 337.217 264.933 336.705 265.871C336.215 266.81 335.532 267.525 334.657 268.015C333.804 268.506 332.823 268.751 331.713 268.751ZM331.745 265.711C332.279 265.711 332.716 265.466 333.057 264.975C333.42 264.485 333.601 263.674 333.601 262.543C333.601 261.413 333.42 260.602 333.057 260.111C332.716 259.621 332.279 259.375 331.745 259.375C331.212 259.375 330.753 259.621 330.369 260.111C330.007 260.602 329.825 261.413 329.825 262.543C329.825 263.674 330.007 264.485 330.369 264.975C330.753 265.466 331.212 265.711 331.745 265.711ZM347.521 279.311C346.412 279.311 345.42 279.066 344.545 278.575C343.692 278.085 343.02 277.381 342.529 276.463C342.039 275.525 341.793 274.405 341.793 273.103C341.793 271.802 342.039 270.693 342.529 269.775C343.02 268.858 343.692 268.154 344.545 267.663C345.42 267.151 346.412 266.895 347.521 266.895C348.631 266.895 349.612 267.151 350.465 267.663C351.34 268.154 352.023 268.858 352.513 269.775C353.025 270.693 353.281 271.802 353.281 273.103C353.281 274.405 353.025 275.525 352.513 276.463C352.023 277.381 351.34 278.085 350.465 278.575C349.612 279.066 348.631 279.311 347.521 279.311ZM347.521 276.271C348.055 276.271 348.503 276.026 348.865 275.535C349.228 275.045 349.409 274.234 349.409 273.103C349.409 271.973 349.228 271.162 348.865 270.671C348.503 270.181 348.055 269.935 347.521 269.935C347.009 269.935 346.561 270.181 346.177 270.671C345.815 271.162 345.633 271.973 345.633 273.103C345.633 274.234 345.815 275.045 346.177 275.535C346.561 276.026 347.009 276.271 347.521 276.271Z" fill="#082148"/>
<path d="M180.151 304.023L175.579 297.813L177.037 296.913L182.203 304.023H180.151ZM171.673 304.023V291.423H173.437V304.023H171.673ZM172.897 298.479V296.895H176.983V298.479H172.897ZM177.199 297.921L175.543 297.669L180.061 291.423H181.987L177.199 297.921ZM187.723 304.131C186.763 304.131 185.911 303.921 185.167 303.501C184.423 303.081 183.835 302.505 183.403 301.773C182.971 301.029 182.755 300.189 182.755 299.253C182.755 298.305 182.971 297.465 183.403 296.733C183.835 296.001 184.423 295.431 185.167 295.023C185.911 294.603 186.763 294.393 187.723 294.393C188.671 294.393 189.517 294.603 190.261 295.023C191.017 295.431 191.605 296.001 192.025 296.733C192.457 297.453 192.673 298.293 192.673 299.253C192.673 300.201 192.457 301.041 192.025 301.773C191.605 302.505 191.017 303.081 190.261 303.501C189.517 303.921 188.671 304.131 187.723 304.131ZM187.723 302.619C188.335 302.619 188.881 302.481 189.361 302.205C189.853 301.929 190.237 301.539 190.513 301.035C190.789 300.519 190.927 299.925 190.927 299.253C190.927 298.569 190.789 297.981 190.513 297.489C190.237 296.985 189.853 296.595 189.361 296.319C188.881 296.043 188.335 295.905 187.723 295.905C187.111 295.905 186.565 296.043 186.085 296.319C185.605 296.595 185.221 296.985 184.933 297.489C184.645 297.981 184.501 298.569 184.501 299.253C184.501 299.925 184.645 300.519 184.933 301.035C185.221 301.539 185.605 301.929 186.085 302.205C186.565 302.481 187.111 302.619 187.723 302.619ZM199.326 304.131C198.354 304.131 197.484 303.921 196.716 303.501C195.96 303.081 195.366 302.505 194.934 301.773C194.502 301.041 194.286 300.201 194.286 299.253C194.286 298.305 194.502 297.465 194.934 296.733C195.366 296.001 195.96 295.431 196.716 295.023C197.484 294.603 198.354 294.393 199.326 294.393C200.19 294.393 200.958 294.567 201.63 294.915C202.314 295.251 202.842 295.755 203.214 296.427L201.9 297.273C201.588 296.805 201.204 296.463 200.748 296.247C200.304 296.019 199.824 295.905 199.308 295.905C198.684 295.905 198.126 296.043 197.634 296.319C197.142 296.595 196.752 296.985 196.464 297.489C196.176 297.981 196.032 298.569 196.032 299.253C196.032 299.937 196.176 300.531 196.464 301.035C196.752 301.539 197.142 301.929 197.634 302.205C198.126 302.481 198.684 302.619 199.308 302.619C199.824 302.619 200.304 302.511 200.748 302.295C201.204 302.067 201.588 301.719 201.9 301.251L203.214 302.079C202.842 302.739 202.314 303.249 201.63 303.609C200.958 303.957 200.19 304.131 199.326 304.131ZM205.451 304.023V294.483H207.233L211.337 301.539H210.617L214.829 294.483H216.449V304.023H214.883V296.427L215.171 296.589L211.319 302.943H210.563L206.693 296.463L207.035 296.391V304.023H205.451ZM219.813 304.023V294.483H221.541V301.431L227.391 294.483H228.957V304.023H227.229V297.075L221.397 304.023H219.813ZM238.323 300.117C237.819 300.357 237.297 300.549 236.757 300.693C236.229 300.825 235.683 300.891 235.119 300.891C233.967 300.891 233.055 300.621 232.383 300.081C231.723 299.541 231.393 298.707 231.393 297.579V294.483H233.121V297.471C233.121 298.155 233.331 298.659 233.751 298.983C234.183 299.307 234.759 299.469 235.479 299.469C235.935 299.469 236.403 299.409 236.883 299.289C237.375 299.169 237.855 299.001 238.323 298.785V300.117ZM238.197 304.023V294.483H239.925V304.023H238.197ZM247.527 304.131C246.507 304.131 245.607 303.921 244.827 303.501C244.059 303.081 243.459 302.505 243.027 301.773C242.607 301.041 242.397 300.201 242.397 299.253C242.397 298.305 242.601 297.465 243.009 296.733C243.429 296.001 243.999 295.431 244.719 295.023C245.451 294.603 246.273 294.393 247.185 294.393C248.109 294.393 248.925 294.597 249.633 295.005C250.341 295.413 250.893 295.989 251.289 296.733C251.697 297.465 251.901 298.323 251.901 299.307C251.901 299.379 251.895 299.463 251.883 299.559C251.883 299.655 251.877 299.745 251.865 299.829H243.747V298.587H250.965L250.263 299.019C250.275 298.407 250.149 297.861 249.885 297.381C249.621 296.901 249.255 296.529 248.787 296.265C248.331 295.989 247.797 295.851 247.185 295.851C246.585 295.851 246.051 295.989 245.583 296.265C245.115 296.529 244.749 296.907 244.485 297.399C244.221 297.879 244.089 298.431 244.089 299.055V299.343C244.089 299.979 244.233 300.549 244.521 301.053C244.821 301.545 245.235 301.929 245.763 302.205C246.291 302.481 246.897 302.619 247.581 302.619C248.145 302.619 248.655 302.523 249.111 302.331C249.579 302.139 249.987 301.851 250.335 301.467L251.289 302.583C250.857 303.087 250.317 303.471 249.669 303.735C249.033 303.999 248.319 304.131 247.527 304.131ZM258.74 304.131C257.768 304.131 256.898 303.921 256.13 303.501C255.374 303.081 254.78 302.505 254.348 301.773C253.916 301.041 253.7 300.201 253.7 299.253C253.7 298.305 253.916 297.465 254.348 296.733C254.78 296.001 255.374 295.431 256.13 295.023C256.898 294.603 257.768 294.393 258.74 294.393C259.604 294.393 260.372 294.567 261.044 294.915C261.728 295.251 262.256 295.755 262.628 296.427L261.314 297.273C261.002 296.805 260.618 296.463 260.162 296.247C259.718 296.019 259.238 295.905 258.722 295.905C258.098 295.905 257.54 296.043 257.048 296.319C256.556 296.595 256.166 296.985 255.878 297.489C255.59 297.981 255.446 298.569 255.446 299.253C255.446 299.937 255.59 300.531 255.878 301.035C256.166 301.539 256.556 301.929 257.048 302.205C257.54 302.481 258.098 302.619 258.722 302.619C259.238 302.619 259.718 302.511 260.162 302.295C260.618 302.067 261.002 301.719 261.314 301.251L262.628 302.079C262.256 302.739 261.728 303.249 261.044 303.609C260.372 303.957 259.604 304.131 258.74 304.131ZM264.865 304.023V294.483H266.593V301.431L272.443 294.483H274.009V304.023H272.281V297.075L266.449 304.023H264.865ZM284.275 304.023L280.585 299.379L282.007 298.515L286.309 304.023H284.275ZM277.363 304.023V294.483H279.091V304.023H277.363ZM278.569 299.991V298.515H281.719V299.991H278.569ZM282.151 299.451L280.549 299.235L284.203 294.483H286.057L282.151 299.451ZM288.121 304.023V294.483H289.849V301.431L295.699 294.483H297.265V304.023H295.537V297.075L289.705 304.023H288.121ZM292.585 293.241C291.709 293.241 291.019 293.031 290.515 292.611C290.023 292.179 289.771 291.561 289.759 290.757H290.929C290.941 291.213 291.091 291.573 291.379 291.837C291.679 292.101 292.075 292.233 292.567 292.233C293.059 292.233 293.455 292.101 293.755 291.837C294.055 291.573 294.211 291.213 294.223 290.757H295.429C295.417 291.561 295.159 292.179 294.655 292.611C294.151 293.031 293.461 293.241 292.585 293.241ZM311.141 304.167C311.129 304.167 311.087 304.167 311.015 304.167C310.955 304.167 310.895 304.167 310.835 304.167C310.775 304.167 310.739 304.167 310.727 304.167C308.771 304.143 307.253 303.711 306.173 302.871C305.093 302.019 304.553 300.807 304.553 299.235C304.553 297.675 305.093 296.481 306.173 295.653C307.265 294.813 308.801 294.387 310.781 294.375C310.805 294.375 310.841 294.375 310.889 294.375C310.949 294.375 311.003 294.375 311.051 294.375C311.111 294.375 311.147 294.375 311.159 294.375C313.163 294.375 314.717 294.795 315.821 295.635C316.937 296.475 317.495 297.675 317.495 299.235C317.495 300.819 316.937 302.037 315.821 302.889C314.705 303.741 313.145 304.167 311.141 304.167ZM311.105 302.655C312.149 302.655 313.013 302.523 313.697 302.259C314.393 301.995 314.915 301.611 315.263 301.107C315.611 300.603 315.785 299.979 315.785 299.235C315.785 298.503 315.611 297.891 315.263 297.399C314.915 296.907 314.393 296.535 313.697 296.283C313.013 296.031 312.149 295.905 311.105 295.905C311.081 295.905 311.033 295.905 310.961 295.905C310.889 295.905 310.847 295.905 310.835 295.905C309.815 295.905 308.963 296.037 308.279 296.301C307.607 296.553 307.103 296.925 306.767 297.417C306.431 297.909 306.263 298.515 306.263 299.235C306.263 299.967 306.431 300.585 306.767 301.089C307.115 301.593 307.625 301.977 308.297 302.241C308.981 302.505 309.827 302.643 310.835 302.655C310.859 302.655 310.901 302.655 310.961 302.655C311.033 302.655 311.081 302.655 311.105 302.655ZM310.169 307.515V290.667H311.861V307.515H310.169ZM324.024 304.131C323.064 304.131 322.212 303.921 321.468 303.501C320.724 303.081 320.136 302.505 319.704 301.773C319.272 301.029 319.056 300.189 319.056 299.253C319.056 298.305 319.272 297.465 319.704 296.733C320.136 296.001 320.724 295.431 321.468 295.023C322.212 294.603 323.064 294.393 324.024 294.393C324.972 294.393 325.818 294.603 326.562 295.023C327.318 295.431 327.906 296.001 328.326 296.733C328.758 297.453 328.974 298.293 328.974 299.253C328.974 300.201 328.758 301.041 328.326 301.773C327.906 302.505 327.318 303.081 326.562 303.501C325.818 303.921 324.972 304.131 324.024 304.131ZM324.024 302.619C324.636 302.619 325.182 302.481 325.662 302.205C326.154 301.929 326.538 301.539 326.814 301.035C327.09 300.519 327.228 299.925 327.228 299.253C327.228 298.569 327.09 297.981 326.814 297.489C326.538 296.985 326.154 296.595 325.662 296.319C325.182 296.043 324.636 295.905 324.024 295.905C323.412 295.905 322.866 296.043 322.386 296.319C321.906 296.595 321.522 296.985 321.234 297.489C320.946 297.981 320.802 298.569 320.802 299.253C320.802 299.925 320.946 300.519 321.234 301.035C321.522 301.539 321.906 301.929 322.386 302.205C322.866 302.481 323.412 302.619 324.024 302.619ZM331.469 304.023V294.483H333.197V298.533H338.633V294.483H340.361V304.023H338.633V300.027H333.197V304.023H331.469ZM350.237 303.213V295.995H346.097L346.007 297.831C345.983 298.431 345.941 299.013 345.881 299.577C345.833 300.129 345.749 300.639 345.629 301.107C345.521 301.575 345.359 301.959 345.143 302.259C344.927 302.559 344.639 302.745 344.279 302.817L342.569 302.511C342.941 302.523 343.241 302.403 343.469 302.151C343.697 301.887 343.871 301.527 343.991 301.071C344.123 300.615 344.219 300.099 344.279 299.523C344.339 298.935 344.387 298.329 344.423 297.705L344.567 294.483H351.965V303.213H350.237ZM342.191 306.237V302.511H353.423V306.237H351.803V304.023H343.829V306.237H342.191Z" fill="black"/>
<circle cx="368" cy="278.523" r="4" fill="#4DDA36"/>
<path d="M285.758 373.023V352.895L288.478 355.519H281.598V350.623H292.094V373.023H285.758ZM305.351 373.471C303.431 373.471 301.724 373.013 300.231 372.095C298.759 371.178 297.596 369.855 296.743 368.127C295.89 366.399 295.463 364.298 295.463 361.823C295.463 359.349 295.89 357.247 296.743 355.519C297.596 353.791 298.759 352.469 300.231 351.551C301.724 350.634 303.431 350.175 305.351 350.175C307.25 350.175 308.935 350.634 310.407 351.551C311.9 352.469 313.074 353.791 313.927 355.519C314.78 357.247 315.207 359.349 315.207 361.823C315.207 364.298 314.78 366.399 313.927 368.127C313.074 369.855 311.9 371.178 310.407 372.095C308.935 373.013 307.25 373.471 305.351 373.471ZM305.351 368.287C306.034 368.287 306.631 368.074 307.143 367.647C307.676 367.221 308.092 366.538 308.391 365.599C308.69 364.639 308.839 363.381 308.839 361.823C308.839 360.245 308.69 358.986 308.391 358.047C308.092 357.109 307.676 356.426 307.143 355.999C306.631 355.573 306.034 355.359 305.351 355.359C304.668 355.359 304.06 355.573 303.527 355.999C303.015 356.426 302.599 357.109 302.279 358.047C301.98 358.986 301.831 360.245 301.831 361.823C301.831 363.381 301.98 364.639 302.279 365.599C302.599 366.538 303.015 367.221 303.527 367.647C304.06 368.074 304.668 368.287 305.351 368.287ZM320.665 373.023L335.961 350.623H340.569L325.273 373.023H320.665ZM322.713 362.751C321.625 362.751 320.644 362.506 319.769 362.015C318.895 361.525 318.212 360.821 317.721 359.903C317.231 358.965 316.985 357.845 316.985 356.543C316.985 355.242 317.231 354.133 317.721 353.215C318.212 352.298 318.895 351.594 319.769 351.103C320.644 350.591 321.625 350.335 322.713 350.335C323.823 350.335 324.804 350.591 325.657 351.103C326.532 351.594 327.215 352.298 327.705 353.215C328.217 354.133 328.473 355.242 328.473 356.543C328.473 357.823 328.217 358.933 327.705 359.871C327.215 360.81 326.532 361.525 325.657 362.015C324.804 362.506 323.823 362.751 322.713 362.751ZM322.745 359.711C323.279 359.711 323.716 359.466 324.057 358.975C324.42 358.485 324.601 357.674 324.601 356.543C324.601 355.413 324.42 354.602 324.057 354.111C323.716 353.621 323.279 353.375 322.745 353.375C322.212 353.375 321.753 353.621 321.369 354.111C321.007 354.602 320.825 355.413 320.825 356.543C320.825 357.674 321.007 358.485 321.369 358.975C321.753 359.466 322.212 359.711 322.745 359.711ZM338.521 373.311C337.412 373.311 336.42 373.066 335.545 372.575C334.692 372.085 334.02 371.381 333.529 370.463C333.039 369.525 332.793 368.405 332.793 367.103C332.793 365.802 333.039 364.693 333.529 363.775C334.02 362.858 334.692 362.154 335.545 361.663C336.42 361.151 337.412 360.895 338.521 360.895C339.631 360.895 340.612 361.151 341.465 361.663C342.34 362.154 343.023 362.858 343.513 363.775C344.025 364.693 344.281 365.802 344.281 367.103C344.281 368.405 344.025 369.525 343.513 370.463C343.023 371.381 342.34 372.085 341.465 372.575C340.612 373.066 339.631 373.311 338.521 373.311ZM338.521 370.271C339.055 370.271 339.503 370.026 339.865 369.535C340.228 369.045 340.409 368.234 340.409 367.103C340.409 365.973 340.228 365.162 339.865 364.671C339.503 364.181 339.055 363.935 338.521 363.935C338.009 363.935 337.561 364.181 337.177 364.671C336.815 365.162 336.633 365.973 336.633 367.103C336.633 368.234 336.815 369.045 337.177 369.535C337.561 370.026 338.009 370.271 338.521 370.271Z" fill="#082148"/>
<path d="M171.151 398.023L166.579 391.813L168.037 390.913L173.203 398.023H171.151ZM162.673 398.023V385.423H164.437V398.023H162.673ZM163.897 392.479V390.895H167.983V392.479H163.897ZM168.199 391.921L166.543 391.669L171.061 385.423H172.987L168.199 391.921ZM178.723 398.131C177.763 398.131 176.911 397.921 176.167 397.501C175.423 397.081 174.835 396.505 174.403 395.773C173.971 395.029 173.755 394.189 173.755 393.253C173.755 392.305 173.971 391.465 174.403 390.733C174.835 390.001 175.423 389.431 176.167 389.023C176.911 388.603 177.763 388.393 178.723 388.393C179.671 388.393 180.517 388.603 181.261 389.023C182.017 389.431 182.605 390.001 183.025 390.733C183.457 391.453 183.673 392.293 183.673 393.253C183.673 394.201 183.457 395.041 183.025 395.773C182.605 396.505 182.017 397.081 181.261 397.501C180.517 397.921 179.671 398.131 178.723 398.131ZM178.723 396.619C179.335 396.619 179.881 396.481 180.361 396.205C180.853 395.929 181.237 395.539 181.513 395.035C181.789 394.519 181.927 393.925 181.927 393.253C181.927 392.569 181.789 391.981 181.513 391.489C181.237 390.985 180.853 390.595 180.361 390.319C179.881 390.043 179.335 389.905 178.723 389.905C178.111 389.905 177.565 390.043 177.085 390.319C176.605 390.595 176.221 390.985 175.933 391.489C175.645 391.981 175.501 392.569 175.501 393.253C175.501 393.925 175.645 394.519 175.933 395.035C176.221 395.539 176.605 395.929 177.085 396.205C177.565 396.481 178.111 396.619 178.723 396.619ZM190.326 398.131C189.354 398.131 188.484 397.921 187.716 397.501C186.96 397.081 186.366 396.505 185.934 395.773C185.502 395.041 185.286 394.201 185.286 393.253C185.286 392.305 185.502 391.465 185.934 390.733C186.366 390.001 186.96 389.431 187.716 389.023C188.484 388.603 189.354 388.393 190.326 388.393C191.19 388.393 191.958 388.567 192.63 388.915C193.314 389.251 193.842 389.755 194.214 390.427L192.9 391.273C192.588 390.805 192.204 390.463 191.748 390.247C191.304 390.019 190.824 389.905 190.308 389.905C189.684 389.905 189.126 390.043 188.634 390.319C188.142 390.595 187.752 390.985 187.464 391.489C187.176 391.981 187.032 392.569 187.032 393.253C187.032 393.937 187.176 394.531 187.464 395.035C187.752 395.539 188.142 395.929 188.634 396.205C189.126 396.481 189.684 396.619 190.308 396.619C190.824 396.619 191.304 396.511 191.748 396.295C192.204 396.067 192.588 395.719 192.9 395.251L194.214 396.079C193.842 396.739 193.314 397.249 192.63 397.609C191.958 397.957 191.19 398.131 190.326 398.131ZM196.451 398.023V388.483H198.233L202.337 395.539H201.617L205.829 388.483H207.449V398.023H205.883V390.427L206.171 390.589L202.319 396.943H201.563L197.693 390.463L198.035 390.391V398.023H196.451ZM210.813 398.023V388.483H212.541V395.431L218.391 388.483H219.957V398.023H218.229V391.075L212.397 398.023H210.813ZM229.323 394.117C228.819 394.357 228.297 394.549 227.757 394.693C227.229 394.825 226.683 394.891 226.119 394.891C224.967 394.891 224.055 394.621 223.383 394.081C222.723 393.541 222.393 392.707 222.393 391.579V388.483H224.121V391.471C224.121 392.155 224.331 392.659 224.751 392.983C225.183 393.307 225.759 393.469 226.479 393.469C226.935 393.469 227.403 393.409 227.883 393.289C228.375 393.169 228.855 393.001 229.323 392.785V394.117ZM229.197 398.023V388.483H230.925V398.023H229.197ZM238.527 398.131C237.507 398.131 236.607 397.921 235.827 397.501C235.059 397.081 234.459 396.505 234.027 395.773C233.607 395.041 233.397 394.201 233.397 393.253C233.397 392.305 233.601 391.465 234.009 390.733C234.429 390.001 234.999 389.431 235.719 389.023C236.451 388.603 237.273 388.393 238.185 388.393C239.109 388.393 239.925 388.597 240.633 389.005C241.341 389.413 241.893 389.989 242.289 390.733C242.697 391.465 242.901 392.323 242.901 393.307C242.901 393.379 242.895 393.463 242.883 393.559C242.883 393.655 242.877 393.745 242.865 393.829H234.747V392.587H241.965L241.263 393.019C241.275 392.407 241.149 391.861 240.885 391.381C240.621 390.901 240.255 390.529 239.787 390.265C239.331 389.989 238.797 389.851 238.185 389.851C237.585 389.851 237.051 389.989 236.583 390.265C236.115 390.529 235.749 390.907 235.485 391.399C235.221 391.879 235.089 392.431 235.089 393.055V393.343C235.089 393.979 235.233 394.549 235.521 395.053C235.821 395.545 236.235 395.929 236.763 396.205C237.291 396.481 237.897 396.619 238.581 396.619C239.145 396.619 239.655 396.523 240.111 396.331C240.579 396.139 240.987 395.851 241.335 395.467L242.289 396.583C241.857 397.087 241.317 397.471 240.669 397.735C240.033 397.999 239.319 398.131 238.527 398.131ZM249.74 398.131C248.768 398.131 247.898 397.921 247.13 397.501C246.374 397.081 245.78 396.505 245.348 395.773C244.916 395.041 244.7 394.201 244.7 393.253C244.7 392.305 244.916 391.465 245.348 390.733C245.78 390.001 246.374 389.431 247.13 389.023C247.898 388.603 248.768 388.393 249.74 388.393C250.604 388.393 251.372 388.567 252.044 388.915C252.728 389.251 253.256 389.755 253.628 390.427L252.314 391.273C252.002 390.805 251.618 390.463 251.162 390.247C250.718 390.019 250.238 389.905 249.722 389.905C249.098 389.905 248.54 390.043 248.048 390.319C247.556 390.595 247.166 390.985 246.878 391.489C246.59 391.981 246.446 392.569 246.446 393.253C246.446 393.937 246.59 394.531 246.878 395.035C247.166 395.539 247.556 395.929 248.048 396.205C248.54 396.481 249.098 396.619 249.722 396.619C250.238 396.619 250.718 396.511 251.162 396.295C251.618 396.067 252.002 395.719 252.314 395.251L253.628 396.079C253.256 396.739 252.728 397.249 252.044 397.609C251.372 397.957 250.604 398.131 249.74 398.131ZM255.865 398.023V388.483H257.593V395.431L263.443 388.483H265.009V398.023H263.281V391.075L257.449 398.023H255.865ZM275.275 398.023L271.585 393.379L273.007 392.515L277.309 398.023H275.275ZM268.363 398.023V388.483H270.091V398.023H268.363ZM269.569 393.991V392.515H272.719V393.991H269.569ZM273.151 393.451L271.549 393.235L275.203 388.483H277.057L273.151 393.451ZM279.121 398.023V388.483H280.849V395.431L286.699 388.483H288.265V398.023H286.537V391.075L280.705 398.023H279.121ZM283.585 387.241C282.709 387.241 282.019 387.031 281.515 386.611C281.023 386.179 280.771 385.561 280.759 384.757H281.929C281.941 385.213 282.091 385.573 282.379 385.837C282.679 386.101 283.075 386.233 283.567 386.233C284.059 386.233 284.455 386.101 284.755 385.837C285.055 385.573 285.211 385.213 285.223 384.757H286.429C286.417 385.561 286.159 386.179 285.655 386.611C285.151 387.031 284.461 387.241 283.585 387.241ZM302.141 398.167C302.129 398.167 302.087 398.167 302.015 398.167C301.955 398.167 301.895 398.167 301.835 398.167C301.775 398.167 301.739 398.167 301.727 398.167C299.771 398.143 298.253 397.711 297.173 396.871C296.093 396.019 295.553 394.807 295.553 393.235C295.553 391.675 296.093 390.481 297.173 389.653C298.265 388.813 299.801 388.387 301.781 388.375C301.805 388.375 301.841 388.375 301.889 388.375C301.949 388.375 302.003 388.375 302.051 388.375C302.111 388.375 302.147 388.375 302.159 388.375C304.163 388.375 305.717 388.795 306.821 389.635C307.937 390.475 308.495 391.675 308.495 393.235C308.495 394.819 307.937 396.037 306.821 396.889C305.705 397.741 304.145 398.167 302.141 398.167ZM302.105 396.655C303.149 396.655 304.013 396.523 304.697 396.259C305.393 395.995 305.915 395.611 306.263 395.107C306.611 394.603 306.785 393.979 306.785 393.235C306.785 392.503 306.611 391.891 306.263 391.399C305.915 390.907 305.393 390.535 304.697 390.283C304.013 390.031 303.149 389.905 302.105 389.905C302.081 389.905 302.033 389.905 301.961 389.905C301.889 389.905 301.847 389.905 301.835 389.905C300.815 389.905 299.963 390.037 299.279 390.301C298.607 390.553 298.103 390.925 297.767 391.417C297.431 391.909 297.263 392.515 297.263 393.235C297.263 393.967 297.431 394.585 297.767 395.089C298.115 395.593 298.625 395.977 299.297 396.241C299.981 396.505 300.827 396.643 301.835 396.655C301.859 396.655 301.901 396.655 301.961 396.655C302.033 396.655 302.081 396.655 302.105 396.655ZM301.169 401.515V384.667H302.861V401.515H301.169ZM315.024 398.131C314.064 398.131 313.212 397.921 312.468 397.501C311.724 397.081 311.136 396.505 310.704 395.773C310.272 395.029 310.056 394.189 310.056 393.253C310.056 392.305 310.272 391.465 310.704 390.733C311.136 390.001 311.724 389.431 312.468 389.023C313.212 388.603 314.064 388.393 315.024 388.393C315.972 388.393 316.818 388.603 317.562 389.023C318.318 389.431 318.906 390.001 319.326 390.733C319.758 391.453 319.974 392.293 319.974 393.253C319.974 394.201 319.758 395.041 319.326 395.773C318.906 396.505 318.318 397.081 317.562 397.501C316.818 397.921 315.972 398.131 315.024 398.131ZM315.024 396.619C315.636 396.619 316.182 396.481 316.662 396.205C317.154 395.929 317.538 395.539 317.814 395.035C318.09 394.519 318.228 393.925 318.228 393.253C318.228 392.569 318.09 391.981 317.814 391.489C317.538 390.985 317.154 390.595 316.662 390.319C316.182 390.043 315.636 389.905 315.024 389.905C314.412 389.905 313.866 390.043 313.386 390.319C312.906 390.595 312.522 390.985 312.234 391.489C311.946 391.981 311.802 392.569 311.802 393.253C311.802 393.925 311.946 394.519 312.234 395.035C312.522 395.539 312.906 395.929 313.386 396.205C313.866 396.481 314.412 396.619 315.024 396.619ZM322.469 398.023V388.483H324.197V392.533H329.633V388.483H331.361V398.023H329.633V394.027H324.197V398.023H322.469ZM341.237 397.213V389.995H337.097L337.007 391.831C336.983 392.431 336.941 393.013 336.881 393.577C336.833 394.129 336.749 394.639 336.629 395.107C336.521 395.575 336.359 395.959 336.143 396.259C335.927 396.559 335.639 396.745 335.279 396.817L333.569 396.511C333.941 396.523 334.241 396.403 334.469 396.151C334.697 395.887 334.871 395.527 334.991 395.071C335.123 394.615 335.219 394.099 335.279 393.523C335.339 392.935 335.387 392.329 335.423 391.705L335.567 388.483H342.965V397.213H341.237ZM333.191 400.237V396.511H344.423V400.237H342.803V398.023H334.829V400.237H333.191Z" fill="black"/>
<circle cx="359" cy="372.523" r="4" fill="#4DDA36"/>
<path d="M343.758 527.023V506.895L346.478 509.519H339.598V504.623H350.094V527.023H343.758ZM363.351 527.471C361.431 527.471 359.724 527.013 358.231 526.095C356.759 525.178 355.596 523.855 354.743 522.127C353.89 520.399 353.463 518.298 353.463 515.823C353.463 513.349 353.89 511.247 354.743 509.519C355.596 507.791 356.759 506.469 358.231 505.551C359.724 504.634 361.431 504.175 363.351 504.175C365.25 504.175 366.935 504.634 368.407 505.551C369.9 506.469 371.074 507.791 371.927 509.519C372.78 511.247 373.207 513.349 373.207 515.823C373.207 518.298 372.78 520.399 371.927 522.127C371.074 523.855 369.9 525.178 368.407 526.095C366.935 527.013 365.25 527.471 363.351 527.471ZM363.351 522.287C364.034 522.287 364.631 522.074 365.143 521.647C365.676 521.221 366.092 520.538 366.391 519.599C366.69 518.639 366.839 517.381 366.839 515.823C366.839 514.245 366.69 512.986 366.391 512.047C366.092 511.109 365.676 510.426 365.143 509.999C364.631 509.573 364.034 509.359 363.351 509.359C362.668 509.359 362.06 509.573 361.527 509.999C361.015 510.426 360.599 511.109 360.279 512.047C359.98 512.986 359.831 514.245 359.831 515.823C359.831 517.381 359.98 518.639 360.279 519.599C360.599 520.538 361.015 521.221 361.527 521.647C362.06 522.074 362.668 522.287 363.351 522.287ZM378.665 527.023L393.961 504.623H398.569L383.273 527.023H378.665ZM380.713 516.751C379.625 516.751 378.644 516.506 377.769 516.015C376.895 515.525 376.212 514.821 375.721 513.903C375.231 512.965 374.985 511.845 374.985 510.543C374.985 509.242 375.231 508.133 375.721 507.215C376.212 506.298 376.895 505.594 377.769 505.103C378.644 504.591 379.625 504.335 380.713 504.335C381.823 504.335 382.804 504.591 383.657 505.103C384.532 505.594 385.215 506.298 385.705 507.215C386.217 508.133 386.473 509.242 386.473 510.543C386.473 511.823 386.217 512.933 385.705 513.871C385.215 514.81 384.532 515.525 383.657 516.015C382.804 516.506 381.823 516.751 380.713 516.751ZM380.745 513.711C381.279 513.711 381.716 513.466 382.057 512.975C382.42 512.485 382.601 511.674 382.601 510.543C382.601 509.413 382.42 508.602 382.057 508.111C381.716 507.621 381.279 507.375 380.745 507.375C380.212 507.375 379.753 507.621 379.369 508.111C379.007 508.602 378.825 509.413 378.825 510.543C378.825 511.674 379.007 512.485 379.369 512.975C379.753 513.466 380.212 513.711 380.745 513.711ZM396.521 527.311C395.412 527.311 394.42 527.066 393.545 526.575C392.692 526.085 392.02 525.381 391.529 524.463C391.039 523.525 390.793 522.405 390.793 521.103C390.793 519.802 391.039 518.693 391.529 517.775C392.02 516.858 392.692 516.154 393.545 515.663C394.42 515.151 395.412 514.895 396.521 514.895C397.631 514.895 398.612 515.151 399.465 515.663C400.34 516.154 401.023 516.858 401.513 517.775C402.025 518.693 402.281 519.802 402.281 521.103C402.281 522.405 402.025 523.525 401.513 524.463C401.023 525.381 400.34 526.085 399.465 526.575C398.612 527.066 397.631 527.311 396.521 527.311ZM396.521 524.271C397.055 524.271 397.503 524.026 397.865 523.535C398.228 523.045 398.409 522.234 398.409 521.103C398.409 519.973 398.228 519.162 397.865 518.671C397.503 518.181 397.055 517.935 396.521 517.935C396.009 517.935 395.561 518.181 395.177 518.671C394.815 519.162 394.633 519.973 394.633 521.103C394.633 522.234 394.815 523.045 395.177 523.535C395.561 524.026 396.009 524.271 396.521 524.271Z" fill="#082148"/>
<path d="M229.151 552.023L224.579 545.813L226.037 544.913L231.203 552.023H229.151ZM220.673 552.023V539.423H222.437V552.023H220.673ZM221.897 546.479V544.895H225.983V546.479H221.897ZM226.199 545.921L224.543 545.669L229.061 539.423H230.987L226.199 545.921ZM236.723 552.131C235.763 552.131 234.911 551.921 234.167 551.501C233.423 551.081 232.835 550.505 232.403 549.773C231.971 549.029 231.755 548.189 231.755 547.253C231.755 546.305 231.971 545.465 232.403 544.733C232.835 544.001 233.423 543.431 234.167 543.023C234.911 542.603 235.763 542.393 236.723 542.393C237.671 542.393 238.517 542.603 239.261 543.023C240.017 543.431 240.605 544.001 241.025 544.733C241.457 545.453 241.673 546.293 241.673 547.253C241.673 548.201 241.457 549.041 241.025 549.773C240.605 550.505 240.017 551.081 239.261 551.501C238.517 551.921 237.671 552.131 236.723 552.131ZM236.723 550.619C237.335 550.619 237.881 550.481 238.361 550.205C238.853 549.929 239.237 549.539 239.513 549.035C239.789 548.519 239.927 547.925 239.927 547.253C239.927 546.569 239.789 545.981 239.513 545.489C239.237 544.985 238.853 544.595 238.361 544.319C237.881 544.043 237.335 543.905 236.723 543.905C236.111 543.905 235.565 544.043 235.085 544.319C234.605 544.595 234.221 544.985 233.933 545.489C233.645 545.981 233.501 546.569 233.501 547.253C233.501 547.925 233.645 548.519 233.933 549.035C234.221 549.539 234.605 549.929 235.085 550.205C235.565 550.481 236.111 550.619 236.723 550.619ZM248.326 552.131C247.354 552.131 246.484 551.921 245.716 551.501C244.96 551.081 244.366 550.505 243.934 549.773C243.502 549.041 243.286 548.201 243.286 547.253C243.286 546.305 243.502 545.465 243.934 544.733C244.366 544.001 244.96 543.431 245.716 543.023C246.484 542.603 247.354 542.393 248.326 542.393C249.19 542.393 249.958 542.567 250.63 542.915C251.314 543.251 251.842 543.755 252.214 544.427L250.9 545.273C250.588 544.805 250.204 544.463 249.748 544.247C249.304 544.019 248.824 543.905 248.308 543.905C247.684 543.905 247.126 544.043 246.634 544.319C246.142 544.595 245.752 544.985 245.464 545.489C245.176 545.981 245.032 546.569 245.032 547.253C245.032 547.937 245.176 548.531 245.464 549.035C245.752 549.539 246.142 549.929 246.634 550.205C247.126 550.481 247.684 550.619 248.308 550.619C248.824 550.619 249.304 550.511 249.748 550.295C250.204 550.067 250.588 549.719 250.9 549.251L252.214 550.079C251.842 550.739 251.314 551.249 250.63 551.609C249.958 551.957 249.19 552.131 248.326 552.131ZM254.451 552.023V542.483H256.233L260.337 549.539H259.617L263.829 542.483H265.449V552.023H263.883V544.427L264.171 544.589L260.319 550.943H259.563L255.693 544.463L256.035 544.391V552.023H254.451ZM268.813 552.023V542.483H270.541V549.431L276.391 542.483H277.957V552.023H276.229V545.075L270.397 552.023H268.813ZM287.323 548.117C286.819 548.357 286.297 548.549 285.757 548.693C285.229 548.825 284.683 548.891 284.119 548.891C282.967 548.891 282.055 548.621 281.383 548.081C280.723 547.541 280.393 546.707 280.393 545.579V542.483H282.121V545.471C282.121 546.155 282.331 546.659 282.751 546.983C283.183 547.307 283.759 547.469 284.479 547.469C284.935 547.469 285.403 547.409 285.883 547.289C286.375 547.169 286.855 547.001 287.323 546.785V548.117ZM287.197 552.023V542.483H288.925V552.023H287.197ZM296.527 552.131C295.507 552.131 294.607 551.921 293.827 551.501C293.059 551.081 292.459 550.505 292.027 549.773C291.607 549.041 291.397 548.201 291.397 547.253C291.397 546.305 291.601 545.465 292.009 544.733C292.429 544.001 292.999 543.431 293.719 543.023C294.451 542.603 295.273 542.393 296.185 542.393C297.109 542.393 297.925 542.597 298.633 543.005C299.341 543.413 299.893 543.989 300.289 544.733C300.697 545.465 300.901 546.323 300.901 547.307C300.901 547.379 300.895 547.463 300.883 547.559C300.883 547.655 300.877 547.745 300.865 547.829H292.747V546.587H299.965L299.263 547.019C299.275 546.407 299.149 545.861 298.885 545.381C298.621 544.901 298.255 544.529 297.787 544.265C297.331 543.989 296.797 543.851 296.185 543.851C295.585 543.851 295.051 543.989 294.583 544.265C294.115 544.529 293.749 544.907 293.485 545.399C293.221 545.879 293.089 546.431 293.089 547.055V547.343C293.089 547.979 293.233 548.549 293.521 549.053C293.821 549.545 294.235 549.929 294.763 550.205C295.291 550.481 295.897 550.619 296.581 550.619C297.145 550.619 297.655 550.523 298.111 550.331C298.579 550.139 298.987 549.851 299.335 549.467L300.289 550.583C299.857 551.087 299.317 551.471 298.669 551.735C298.033 551.999 297.319 552.131 296.527 552.131ZM307.74 552.131C306.768 552.131 305.898 551.921 305.13 551.501C304.374 551.081 303.78 550.505 303.348 549.773C302.916 549.041 302.7 548.201 302.7 547.253C302.7 546.305 302.916 545.465 303.348 544.733C303.78 544.001 304.374 543.431 305.13 543.023C305.898 542.603 306.768 542.393 307.74 542.393C308.604 542.393 309.372 542.567 310.044 542.915C310.728 543.251 311.256 543.755 311.628 544.427L310.314 545.273C310.002 544.805 309.618 544.463 309.162 544.247C308.718 544.019 308.238 543.905 307.722 543.905C307.098 543.905 306.54 544.043 306.048 544.319C305.556 544.595 305.166 544.985 304.878 545.489C304.59 545.981 304.446 546.569 304.446 547.253C304.446 547.937 304.59 548.531 304.878 549.035C305.166 549.539 305.556 549.929 306.048 550.205C306.54 550.481 307.098 550.619 307.722 550.619C308.238 550.619 308.718 550.511 309.162 550.295C309.618 550.067 310.002 549.719 310.314 549.251L311.628 550.079C311.256 550.739 310.728 551.249 310.044 551.609C309.372 551.957 308.604 552.131 307.74 552.131ZM313.865 552.023V542.483H315.593V549.431L321.443 542.483H323.009V552.023H321.281V545.075L315.449 552.023H313.865ZM333.275 552.023L329.585 547.379L331.007 546.515L335.309 552.023H333.275ZM326.363 552.023V542.483H328.091V552.023H326.363ZM327.569 547.991V546.515H330.719V547.991H327.569ZM331.151 547.451L329.549 547.235L333.203 542.483H335.057L331.151 547.451ZM337.121 552.023V542.483H338.849V549.431L344.699 542.483H346.265V552.023H344.537V545.075L338.705 552.023H337.121ZM341.585 541.241C340.709 541.241 340.019 541.031 339.515 540.611C339.023 540.179 338.771 539.561 338.759 538.757H339.929C339.941 539.213 340.091 539.573 340.379 539.837C340.679 540.101 341.075 540.233 341.567 540.233C342.059 540.233 342.455 540.101 342.755 539.837C343.055 539.573 343.211 539.213 343.223 538.757H344.429C344.417 539.561 344.159 540.179 343.655 540.611C343.151 541.031 342.461 541.241 341.585 541.241ZM360.141 552.167C360.129 552.167 360.087 552.167 360.015 552.167C359.955 552.167 359.895 552.167 359.835 552.167C359.775 552.167 359.739 552.167 359.727 552.167C357.771 552.143 356.253 551.711 355.173 550.871C354.093 550.019 353.553 548.807 353.553 547.235C353.553 545.675 354.093 544.481 355.173 543.653C356.265 542.813 357.801 542.387 359.781 542.375C359.805 542.375 359.841 542.375 359.889 542.375C359.949 542.375 360.003 542.375 360.051 542.375C360.111 542.375 360.147 542.375 360.159 542.375C362.163 542.375 363.717 542.795 364.821 543.635C365.937 544.475 366.495 545.675 366.495 547.235C366.495 548.819 365.937 550.037 364.821 550.889C363.705 551.741 362.145 552.167 360.141 552.167ZM360.105 550.655C361.149 550.655 362.013 550.523 362.697 550.259C363.393 549.995 363.915 549.611 364.263 549.107C364.611 548.603 364.785 547.979 364.785 547.235C364.785 546.503 364.611 545.891 364.263 545.399C363.915 544.907 363.393 544.535 362.697 544.283C362.013 544.031 361.149 543.905 360.105 543.905C360.081 543.905 360.033 543.905 359.961 543.905C359.889 543.905 359.847 543.905 359.835 543.905C358.815 543.905 357.963 544.037 357.279 544.301C356.607 544.553 356.103 544.925 355.767 545.417C355.431 545.909 355.263 546.515 355.263 547.235C355.263 547.967 355.431 548.585 355.767 549.089C356.115 549.593 356.625 549.977 357.297 550.241C357.981 550.505 358.827 550.643 359.835 550.655C359.859 550.655 359.901 550.655 359.961 550.655C360.033 550.655 360.081 550.655 360.105 550.655ZM359.169 555.515V538.667H360.861V555.515H359.169ZM373.024 552.131C372.064 552.131 371.212 551.921 370.468 551.501C369.724 551.081 369.136 550.505 368.704 549.773C368.272 549.029 368.056 548.189 368.056 547.253C368.056 546.305 368.272 545.465 368.704 544.733C369.136 544.001 369.724 543.431 370.468 543.023C371.212 542.603 372.064 542.393 373.024 542.393C373.972 542.393 374.818 542.603 375.562 543.023C376.318 543.431 376.906 544.001 377.326 544.733C377.758 545.453 377.974 546.293 377.974 547.253C377.974 548.201 377.758 549.041 377.326 549.773C376.906 550.505 376.318 551.081 375.562 551.501C374.818 551.921 373.972 552.131 373.024 552.131ZM373.024 550.619C373.636 550.619 374.182 550.481 374.662 550.205C375.154 549.929 375.538 549.539 375.814 549.035C376.09 548.519 376.228 547.925 376.228 547.253C376.228 546.569 376.09 545.981 375.814 545.489C375.538 544.985 375.154 544.595 374.662 544.319C374.182 544.043 373.636 543.905 373.024 543.905C372.412 543.905 371.866 544.043 371.386 544.319C370.906 544.595 370.522 544.985 370.234 545.489C369.946 545.981 369.802 546.569 369.802 547.253C369.802 547.925 369.946 548.519 370.234 549.035C370.522 549.539 370.906 549.929 371.386 550.205C371.866 550.481 372.412 550.619 373.024 550.619ZM380.469 552.023V542.483H382.197V546.533H387.633V542.483H389.361V552.023H387.633V548.027H382.197V552.023H380.469ZM399.237 551.213V543.995H395.097L395.007 545.831C394.983 546.431 394.941 547.013 394.881 547.577C394.833 548.129 394.749 548.639 394.629 549.107C394.521 549.575 394.359 549.959 394.143 550.259C393.927 550.559 393.639 550.745 393.279 550.817L391.569 550.511C391.941 550.523 392.241 550.403 392.469 550.151C392.697 549.887 392.871 549.527 392.991 549.071C393.123 548.615 393.219 548.099 393.279 547.523C393.339 546.935 393.387 546.329 393.423 545.705L393.567 542.483H400.965V551.213H399.237ZM391.191 554.237V550.511H402.423V554.237H400.803V552.023H392.829V554.237H391.191Z" fill="black"/>
<circle cx="417" cy="526.523" r="4" fill="#4DDA36"/>
<circle cx="944" cy="351.523" r="4" fill="#4DDA36"/>
<path d="M962.352 352.023V331.895L965.072 334.519H958.192V329.623H968.688V352.023H962.352ZM981.945 352.471C980.025 352.471 978.318 352.013 976.825 351.095C975.353 350.178 974.19 348.855 973.337 347.127C972.483 345.399 972.057 343.298 972.057 340.823C972.057 338.349 972.483 336.247 973.337 334.519C974.19 332.791 975.353 331.469 976.825 330.551C978.318 329.634 980.025 329.175 981.945 329.175C983.843 329.175 985.529 329.634 987.001 330.551C988.494 331.469 989.667 332.791 990.521 334.519C991.374 336.247 991.801 338.349 991.801 340.823C991.801 343.298 991.374 345.399 990.521 347.127C989.667 348.855 988.494 350.178 987.001 351.095C985.529 352.013 983.843 352.471 981.945 352.471ZM981.945 347.287C982.627 347.287 983.225 347.074 983.737 346.647C984.27 346.221 984.686 345.538 984.985 344.599C985.283 343.639 985.433 342.381 985.433 340.823C985.433 339.245 985.283 337.986 984.985 337.047C984.686 336.109 984.27 335.426 983.737 334.999C983.225 334.573 982.627 334.359 981.945 334.359C981.262 334.359 980.654 334.573 980.121 334.999C979.609 335.426 979.193 336.109 978.873 337.047C978.574 337.986 978.425 339.245 978.425 340.823C978.425 342.381 978.574 343.639 978.873 344.599C979.193 345.538 979.609 346.221 980.121 346.647C980.654 347.074 981.262 347.287 981.945 347.287ZM997.259 352.023L1012.56 329.623H1017.16L1001.87 352.023H997.259ZM999.307 341.751C998.219 341.751 997.238 341.506 996.363 341.015C995.488 340.525 994.806 339.821 994.315 338.903C993.824 337.965 993.579 336.845 993.579 335.543C993.579 334.242 993.824 333.133 994.315 332.215C994.806 331.298 995.488 330.594 996.363 330.103C997.238 329.591 998.219 329.335 999.307 329.335C1000.42 329.335 1001.4 329.591 1002.25 330.103C1003.13 330.594 1003.81 331.298 1004.3 332.215C1004.81 333.133 1005.07 334.242 1005.07 335.543C1005.07 336.823 1004.81 337.933 1004.3 338.871C1003.81 339.81 1003.13 340.525 1002.25 341.015C1001.4 341.506 1000.42 341.751 999.307 341.751ZM999.339 338.711C999.872 338.711 1000.31 338.466 1000.65 337.975C1001.01 337.485 1001.2 336.674 1001.2 335.543C1001.2 334.413 1001.01 333.602 1000.65 333.111C1000.31 332.621 999.872 332.375 999.339 332.375C998.806 332.375 998.347 332.621 997.963 333.111C997.6 333.602 997.419 334.413 997.419 335.543C997.419 336.674 997.6 337.485 997.963 337.975C998.347 338.466 998.806 338.711 999.339 338.711ZM1015.12 352.311C1014.01 352.311 1013.01 352.066 1012.14 351.575C1011.29 351.085 1010.61 350.381 1010.12 349.463C1009.63 348.525 1009.39 347.405 1009.39 346.103C1009.39 344.802 1009.63 343.693 1010.12 342.775C1010.61 341.858 1011.29 341.154 1012.14 340.663C1013.01 340.151 1014.01 339.895 1015.12 339.895C1016.22 339.895 1017.21 340.151 1018.06 340.663C1018.93 341.154 1019.62 341.858 1020.11 342.775C1020.62 343.693 1020.88 344.802 1020.88 346.103C1020.88 347.405 1020.62 348.525 1020.11 349.463C1019.62 350.381 1018.93 351.085 1018.06 351.575C1017.21 352.066 1016.22 352.311 1015.12 352.311ZM1015.12 349.271C1015.65 349.271 1016.1 349.026 1016.46 348.535C1016.82 348.045 1017 347.234 1017 346.103C1017 344.973 1016.82 344.162 1016.46 343.671C1016.1 343.181 1015.65 342.935 1015.12 342.935C1014.6 342.935 1014.16 343.181 1013.77 343.671C1013.41 344.162 1013.23 344.973 1013.23 346.103C1013.23 347.234 1013.41 348.045 1013.77 348.535C1014.16 349.026 1014.6 349.271 1015.12 349.271Z" fill="#082148"/>
<path d="M968.44 377.023L963.868 370.813L965.326 369.913L970.492 377.023H968.44ZM959.962 377.023V364.423H961.726V377.023H959.962ZM961.186 371.479V369.895H965.272V371.479H961.186ZM965.488 370.921L963.832 370.669L968.35 364.423H970.276L965.488 370.921ZM976.012 377.131C975.052 377.131 974.2 376.921 973.456 376.501C972.712 376.081 972.124 375.505 971.692 374.773C971.26 374.029 971.044 373.189 971.044 372.253C971.044 371.305 971.26 370.465 971.692 369.733C972.124 369.001 972.712 368.431 973.456 368.023C974.2 367.603 975.052 367.393 976.012 367.393C976.96 367.393 977.806 367.603 978.55 368.023C979.306 368.431 979.894 369.001 980.314 369.733C980.746 370.453 980.962 371.293 980.962 372.253C980.962 373.201 980.746 374.041 980.314 374.773C979.894 375.505 979.306 376.081 978.55 376.501C977.806 376.921 976.96 377.131 976.012 377.131ZM976.012 375.619C976.624 375.619 977.17 375.481 977.65 375.205C978.142 374.929 978.526 374.539 978.802 374.035C979.078 373.519 979.216 372.925 979.216 372.253C979.216 371.569 979.078 370.981 978.802 370.489C978.526 369.985 978.142 369.595 977.65 369.319C977.17 369.043 976.624 368.905 976.012 368.905C975.4 368.905 974.854 369.043 974.374 369.319C973.894 369.595 973.51 369.985 973.222 370.489C972.934 370.981 972.79 371.569 972.79 372.253C972.79 372.925 972.934 373.519 973.222 374.035C973.51 374.539 973.894 374.929 974.374 375.205C974.854 375.481 975.4 375.619 976.012 375.619ZM987.615 377.131C986.643 377.131 985.773 376.921 985.005 376.501C984.249 376.081 983.655 375.505 983.223 374.773C982.791 374.041 982.575 373.201 982.575 372.253C982.575 371.305 982.791 370.465 983.223 369.733C983.655 369.001 984.249 368.431 985.005 368.023C985.773 367.603 986.643 367.393 987.615 367.393C988.479 367.393 989.247 367.567 989.919 367.915C990.603 368.251 991.131 368.755 991.503 369.427L990.189 370.273C989.877 369.805 989.493 369.463 989.037 369.247C988.593 369.019 988.113 368.905 987.597 368.905C986.973 368.905 986.415 369.043 985.923 369.319C985.431 369.595 985.041 369.985 984.753 370.489C984.465 370.981 984.321 371.569 984.321 372.253C984.321 372.937 984.465 373.531 984.753 374.035C985.041 374.539 985.431 374.929 985.923 375.205C986.415 375.481 986.973 375.619 987.597 375.619C988.113 375.619 988.593 375.511 989.037 375.295C989.493 375.067 989.877 374.719 990.189 374.251L991.503 375.079C991.131 375.739 990.603 376.249 989.919 376.609C989.247 376.957 988.479 377.131 987.615 377.131ZM993.74 377.023V367.483H995.522L999.626 374.539H998.906L1003.12 367.483H1004.74V377.023H1003.17V369.427L1003.46 369.589L999.608 375.943H998.852L994.982 369.463L995.324 369.391V377.023H993.74ZM1008.1 377.023V367.483H1009.83V374.431L1015.68 367.483H1017.25V377.023H1015.52V370.075L1009.69 377.023H1008.1ZM1026.61 373.117C1026.11 373.357 1025.59 373.549 1025.05 373.693C1024.52 373.825 1023.97 373.891 1023.41 373.891C1022.26 373.891 1021.34 373.621 1020.67 373.081C1020.01 372.541 1019.68 371.707 1019.68 370.579V367.483H1021.41V370.471C1021.41 371.155 1021.62 371.659 1022.04 371.983C1022.47 372.307 1023.05 372.469 1023.77 372.469C1024.22 372.469 1024.69 372.409 1025.17 372.289C1025.66 372.169 1026.14 372.001 1026.61 371.785V373.117ZM1026.49 377.023V367.483H1028.21V377.023H1026.49ZM1035.82 377.131C1034.8 377.131 1033.9 376.921 1033.12 376.501C1032.35 376.081 1031.75 375.505 1031.32 374.773C1030.9 374.041 1030.69 373.201 1030.69 372.253C1030.69 371.305 1030.89 370.465 1031.3 369.733C1031.72 369.001 1032.29 368.431 1033.01 368.023C1033.74 367.603 1034.56 367.393 1035.47 367.393C1036.4 367.393 1037.21 367.597 1037.92 368.005C1038.63 368.413 1039.18 368.989 1039.58 369.733C1039.99 370.465 1040.19 371.323 1040.19 372.307C1040.19 372.379 1040.18 372.463 1040.17 372.559C1040.17 372.655 1040.17 372.745 1040.15 372.829H1032.04V371.587H1039.25L1038.55 372.019C1038.56 371.407 1038.44 370.861 1038.17 370.381C1037.91 369.901 1037.54 369.529 1037.08 369.265C1036.62 368.989 1036.09 368.851 1035.47 368.851C1034.87 368.851 1034.34 368.989 1033.87 369.265C1033.4 369.529 1033.04 369.907 1032.77 370.399C1032.51 370.879 1032.38 371.431 1032.38 372.055V372.343C1032.38 372.979 1032.52 373.549 1032.81 374.053C1033.11 374.545 1033.52 374.929 1034.05 375.205C1034.58 375.481 1035.19 375.619 1035.87 375.619C1036.43 375.619 1036.94 375.523 1037.4 375.331C1037.87 375.139 1038.28 374.851 1038.62 374.467L1039.58 375.583C1039.15 376.087 1038.61 376.471 1037.96 376.735C1037.32 376.999 1036.61 377.131 1035.82 377.131ZM1047.03 377.131C1046.06 377.131 1045.19 376.921 1044.42 376.501C1043.66 376.081 1043.07 375.505 1042.64 374.773C1042.21 374.041 1041.99 373.201 1041.99 372.253C1041.99 371.305 1042.21 370.465 1042.64 369.733C1043.07 369.001 1043.66 368.431 1044.42 368.023C1045.19 367.603 1046.06 367.393 1047.03 367.393C1047.89 367.393 1048.66 367.567 1049.33 367.915C1050.02 368.251 1050.55 368.755 1050.92 369.427L1049.6 370.273C1049.29 369.805 1048.91 369.463 1048.45 369.247C1048.01 369.019 1047.53 368.905 1047.01 368.905C1046.39 368.905 1045.83 369.043 1045.34 369.319C1044.85 369.595 1044.46 369.985 1044.17 370.489C1043.88 370.981 1043.74 371.569 1043.74 372.253C1043.74 372.937 1043.88 373.531 1044.17 374.035C1044.46 374.539 1044.85 374.929 1045.34 375.205C1045.83 375.481 1046.39 375.619 1047.01 375.619C1047.53 375.619 1048.01 375.511 1048.45 375.295C1048.91 375.067 1049.29 374.719 1049.6 374.251L1050.92 375.079C1050.55 375.739 1050.02 376.249 1049.33 376.609C1048.66 376.957 1047.89 377.131 1047.03 377.131ZM1053.15 377.023V367.483H1054.88V374.431L1060.73 367.483H1062.3V377.023H1060.57V370.075L1054.74 377.023H1053.15ZM1072.56 377.023L1068.87 372.379L1070.3 371.515L1074.6 377.023H1072.56ZM1065.65 377.023V367.483H1067.38V377.023H1065.65ZM1066.86 372.991V371.515H1070.01V372.991H1066.86ZM1070.44 372.451L1068.84 372.235L1072.49 367.483H1074.35L1070.44 372.451ZM1076.41 377.023V367.483H1078.14V374.431L1083.99 367.483H1085.55V377.023H1083.83V370.075L1077.99 377.023H1076.41ZM1080.87 366.241C1080 366.241 1079.31 366.031 1078.8 365.611C1078.31 365.179 1078.06 364.561 1078.05 363.757H1079.22C1079.23 364.213 1079.38 364.573 1079.67 364.837C1079.97 365.101 1080.36 365.233 1080.86 365.233C1081.35 365.233 1081.74 365.101 1082.04 364.837C1082.34 364.573 1082.5 364.213 1082.51 363.757H1083.72C1083.71 364.561 1083.45 365.179 1082.94 365.611C1082.44 366.031 1081.75 366.241 1080.87 366.241ZM1099.43 377.167C1099.42 377.167 1099.38 377.167 1099.3 377.167C1099.24 377.167 1099.18 377.167 1099.12 377.167C1099.06 377.167 1099.03 377.167 1099.02 377.167C1097.06 377.143 1095.54 376.711 1094.46 375.871C1093.38 375.019 1092.84 373.807 1092.84 372.235C1092.84 370.675 1093.38 369.481 1094.46 368.653C1095.55 367.813 1097.09 367.387 1099.07 367.375C1099.09 367.375 1099.13 367.375 1099.18 367.375C1099.24 367.375 1099.29 367.375 1099.34 367.375C1099.4 367.375 1099.44 367.375 1099.45 367.375C1101.45 367.375 1103.01 367.795 1104.11 368.635C1105.23 369.475 1105.78 370.675 1105.78 372.235C1105.78 373.819 1105.23 375.037 1104.11 375.889C1102.99 376.741 1101.43 377.167 1099.43 377.167ZM1099.39 375.655C1100.44 375.655 1101.3 375.523 1101.99 375.259C1102.68 374.995 1103.2 374.611 1103.55 374.107C1103.9 373.603 1104.07 372.979 1104.07 372.235C1104.07 371.503 1103.9 370.891 1103.55 370.399C1103.2 369.907 1102.68 369.535 1101.99 369.283C1101.3 369.031 1100.44 368.905 1099.39 368.905C1099.37 368.905 1099.32 368.905 1099.25 368.905C1099.18 368.905 1099.14 368.905 1099.12 368.905C1098.1 368.905 1097.25 369.037 1096.57 369.301C1095.9 369.553 1095.39 369.925 1095.06 370.417C1094.72 370.909 1094.55 371.515 1094.55 372.235C1094.55 372.967 1094.72 373.585 1095.06 374.089C1095.4 374.593 1095.91 374.977 1096.59 375.241C1097.27 375.505 1098.12 375.643 1099.12 375.655C1099.15 375.655 1099.19 375.655 1099.25 375.655C1099.32 375.655 1099.37 375.655 1099.39 375.655ZM1098.46 380.515V363.667H1100.15V380.515H1098.46ZM1112.31 377.131C1111.35 377.131 1110.5 376.921 1109.76 376.501C1109.01 376.081 1108.42 375.505 1107.99 374.773C1107.56 374.029 1107.34 373.189 1107.34 372.253C1107.34 371.305 1107.56 370.465 1107.99 369.733C1108.42 369.001 1109.01 368.431 1109.76 368.023C1110.5 367.603 1111.35 367.393 1112.31 367.393C1113.26 367.393 1114.11 367.603 1114.85 368.023C1115.61 368.431 1116.19 369.001 1116.61 369.733C1117.05 370.453 1117.26 371.293 1117.26 372.253C1117.26 373.201 1117.05 374.041 1116.61 374.773C1116.19 375.505 1115.61 376.081 1114.85 376.501C1114.11 376.921 1113.26 377.131 1112.31 377.131ZM1112.31 375.619C1112.92 375.619 1113.47 375.481 1113.95 375.205C1114.44 374.929 1114.83 374.539 1115.1 374.035C1115.38 373.519 1115.52 372.925 1115.52 372.253C1115.52 371.569 1115.38 370.981 1115.1 370.489C1114.83 369.985 1114.44 369.595 1113.95 369.319C1113.47 369.043 1112.92 368.905 1112.31 368.905C1111.7 368.905 1111.15 369.043 1110.67 369.319C1110.19 369.595 1109.81 369.985 1109.52 370.489C1109.23 370.981 1109.09 371.569 1109.09 372.253C1109.09 372.925 1109.23 373.519 1109.52 374.035C1109.81 374.539 1110.19 374.929 1110.67 375.205C1111.15 375.481 1111.7 375.619 1112.31 375.619ZM1119.76 377.023V367.483H1121.49V371.533H1126.92V367.483H1128.65V377.023H1126.92V373.027H1121.49V377.023H1119.76ZM1138.53 376.213V368.995H1134.39L1134.3 370.831C1134.27 371.431 1134.23 372.013 1134.17 372.577C1134.12 373.129 1134.04 373.639 1133.92 374.107C1133.81 374.575 1133.65 374.959 1133.43 375.259C1133.22 375.559 1132.93 375.745 1132.57 375.817L1130.86 375.511C1131.23 375.523 1131.53 375.403 1131.76 375.151C1131.99 374.887 1132.16 374.527 1132.28 374.071C1132.41 373.615 1132.51 373.099 1132.57 372.523C1132.63 371.935 1132.68 371.329 1132.71 370.705L1132.86 367.483H1140.25V376.213H1138.53ZM1130.48 379.237V375.511H1141.71V379.237H1140.09V377.023H1132.12V379.237H1130.48Z" fill="black"/>
<path d="M368 279.023L522 279.023" stroke="#4DDA36" stroke-width="4"/>
<circle cx="522" cy="279.023" r="4" fill="#4DDA36"/>
<path d="M361 373.023L504 373.023" stroke="#4DDA36" stroke-width="4"/>
<circle cx="504" cy="373.023" r="4" fill="#4DDA36"/>
<path d="M419 527.023H484.772C492.616 527.023 500.186 524.143 506.045 518.928L561 470.023" stroke="#4DDA36" stroke-width="4"/>
<circle cx="560.5" cy="469.023" r="4" fill="#4DDA36"/>
<circle cx="752" cy="244.023" r="4" fill="#4DDA36"/>
<path d="M587 219.023L485.015 154.93C479.915 151.724 474.012 150.023 467.988 150.023H435" stroke="#4DDA36" stroke-width="4"/>
<circle r="3.5" transform="matrix(1 0 0 -1 586.5 219.523)" fill="#4DDA36"/>
<path d="M361.758 150.023V129.895L364.478 132.519H357.598V127.623H368.094V150.023H361.758ZM381.351 150.471C379.431 150.471 377.724 150.013 376.231 149.095C374.759 148.178 373.596 146.855 372.743 145.127C371.89 143.399 371.463 141.298 371.463 138.823C371.463 136.349 371.89 134.247 372.743 132.519C373.596 130.791 374.759 129.469 376.231 128.551C377.724 127.634 379.431 127.175 381.351 127.175C383.25 127.175 384.935 127.634 386.407 128.551C387.9 129.469 389.074 130.791 389.927 132.519C390.78 134.247 391.207 136.349 391.207 138.823C391.207 141.298 390.78 143.399 389.927 145.127C389.074 146.855 387.9 148.178 386.407 149.095C384.935 150.013 383.25 150.471 381.351 150.471ZM381.351 145.287C382.034 145.287 382.631 145.074 383.143 144.647C383.676 144.221 384.092 143.538 384.391 142.599C384.69 141.639 384.839 140.381 384.839 138.823C384.839 137.245 384.69 135.986 384.391 135.047C384.092 134.109 383.676 133.426 383.143 132.999C382.631 132.573 382.034 132.359 381.351 132.359C380.668 132.359 380.06 132.573 379.527 132.999C379.015 133.426 378.599 134.109 378.279 135.047C377.98 135.986 377.831 137.245 377.831 138.823C377.831 140.381 377.98 141.639 378.279 142.599C378.599 143.538 379.015 144.221 379.527 144.647C380.06 145.074 380.668 145.287 381.351 145.287ZM396.665 150.023L411.961 127.623H416.569L401.273 150.023H396.665ZM398.713 139.751C397.625 139.751 396.644 139.506 395.769 139.015C394.895 138.525 394.212 137.821 393.721 136.903C393.231 135.965 392.985 134.845 392.985 133.543C392.985 132.242 393.231 131.133 393.721 130.215C394.212 129.298 394.895 128.594 395.769 128.103C396.644 127.591 397.625 127.335 398.713 127.335C399.823 127.335 400.804 127.591 401.657 128.103C402.532 128.594 403.215 129.298 403.705 130.215C404.217 131.133 404.473 132.242 404.473 133.543C404.473 134.823 404.217 135.933 403.705 136.871C403.215 137.81 402.532 138.525 401.657 139.015C400.804 139.506 399.823 139.751 398.713 139.751ZM398.745 136.711C399.279 136.711 399.716 136.466 400.057 135.975C400.42 135.485 400.601 134.674 400.601 133.543C400.601 132.413 400.42 131.602 400.057 131.111C399.716 130.621 399.279 130.375 398.745 130.375C398.212 130.375 397.753 130.621 397.369 131.111C397.007 131.602 396.825 132.413 396.825 133.543C396.825 134.674 397.007 135.485 397.369 135.975C397.753 136.466 398.212 136.711 398.745 136.711ZM414.521 150.311C413.412 150.311 412.42 150.066 411.545 149.575C410.692 149.085 410.02 148.381 409.529 147.463C409.039 146.525 408.793 145.405 408.793 144.103C408.793 142.802 409.039 141.693 409.529 140.775C410.02 139.858 410.692 139.154 411.545 138.663C412.42 138.151 413.412 137.895 414.521 137.895C415.631 137.895 416.612 138.151 417.465 138.663C418.34 139.154 419.023 139.858 419.513 140.775C420.025 141.693 420.281 142.802 420.281 144.103C420.281 145.405 420.025 146.525 419.513 147.463C419.023 148.381 418.34 149.085 417.465 149.575C416.612 150.066 415.631 150.311 414.521 150.311ZM414.521 147.271C415.055 147.271 415.503 147.026 415.865 146.535C416.228 146.045 416.409 145.234 416.409 144.103C416.409 142.973 416.228 142.162 415.865 141.671C415.503 141.181 415.055 140.935 414.521 140.935C414.009 140.935 413.561 141.181 413.177 141.671C412.815 142.162 412.633 142.973 412.633 144.103C412.633 145.234 412.815 146.045 413.177 146.535C413.561 147.026 414.009 147.271 414.521 147.271Z" fill="#082148"/>
<path d="M247.151 175.023L242.579 168.813L244.037 167.913L249.203 175.023H247.151ZM238.673 175.023V162.423H240.437V175.023H238.673ZM239.897 169.479V167.895H243.983V169.479H239.897ZM244.199 168.921L242.543 168.669L247.061 162.423H248.987L244.199 168.921ZM254.723 175.131C253.763 175.131 252.911 174.921 252.167 174.501C251.423 174.081 250.835 173.505 250.403 172.773C249.971 172.029 249.755 171.189 249.755 170.253C249.755 169.305 249.971 168.465 250.403 167.733C250.835 167.001 251.423 166.431 252.167 166.023C252.911 165.603 253.763 165.393 254.723 165.393C255.671 165.393 256.517 165.603 257.261 166.023C258.017 166.431 258.605 167.001 259.025 167.733C259.457 168.453 259.673 169.293 259.673 170.253C259.673 171.201 259.457 172.041 259.025 172.773C258.605 173.505 258.017 174.081 257.261 174.501C256.517 174.921 255.671 175.131 254.723 175.131ZM254.723 173.619C255.335 173.619 255.881 173.481 256.361 173.205C256.853 172.929 257.237 172.539 257.513 172.035C257.789 171.519 257.927 170.925 257.927 170.253C257.927 169.569 257.789 168.981 257.513 168.489C257.237 167.985 256.853 167.595 256.361 167.319C255.881 167.043 255.335 166.905 254.723 166.905C254.111 166.905 253.565 167.043 253.085 167.319C252.605 167.595 252.221 167.985 251.933 168.489C251.645 168.981 251.501 169.569 251.501 170.253C251.501 170.925 251.645 171.519 251.933 172.035C252.221 172.539 252.605 172.929 253.085 173.205C253.565 173.481 254.111 173.619 254.723 173.619ZM266.326 175.131C265.354 175.131 264.484 174.921 263.716 174.501C262.96 174.081 262.366 173.505 261.934 172.773C261.502 172.041 261.286 171.201 261.286 170.253C261.286 169.305 261.502 168.465 261.934 167.733C262.366 167.001 262.96 166.431 263.716 166.023C264.484 165.603 265.354 165.393 266.326 165.393C267.19 165.393 267.958 165.567 268.63 165.915C269.314 166.251 269.842 166.755 270.214 167.427L268.9 168.273C268.588 167.805 268.204 167.463 267.748 167.247C267.304 167.019 266.824 166.905 266.308 166.905C265.684 166.905 265.126 167.043 264.634 167.319C264.142 167.595 263.752 167.985 263.464 168.489C263.176 168.981 263.032 169.569 263.032 170.253C263.032 170.937 263.176 171.531 263.464 172.035C263.752 172.539 264.142 172.929 264.634 173.205C265.126 173.481 265.684 173.619 266.308 173.619C266.824 173.619 267.304 173.511 267.748 173.295C268.204 173.067 268.588 172.719 268.9 172.251L270.214 173.079C269.842 173.739 269.314 174.249 268.63 174.609C267.958 174.957 267.19 175.131 266.326 175.131ZM272.451 175.023V165.483H274.233L278.337 172.539H277.617L281.829 165.483H283.449V175.023H281.883V167.427L282.171 167.589L278.319 173.943H277.563L273.693 167.463L274.035 167.391V175.023H272.451ZM286.813 175.023V165.483H288.541V172.431L294.391 165.483H295.957V175.023H294.229V168.075L288.397 175.023H286.813ZM305.323 171.117C304.819 171.357 304.297 171.549 303.757 171.693C303.229 171.825 302.683 171.891 302.119 171.891C300.967 171.891 300.055 171.621 299.383 171.081C298.723 170.541 298.393 169.707 298.393 168.579V165.483H300.121V168.471C300.121 169.155 300.331 169.659 300.751 169.983C301.183 170.307 301.759 170.469 302.479 170.469C302.935 170.469 303.403 170.409 303.883 170.289C304.375 170.169 304.855 170.001 305.323 169.785V171.117ZM305.197 175.023V165.483H306.925V175.023H305.197ZM314.527 175.131C313.507 175.131 312.607 174.921 311.827 174.501C311.059 174.081 310.459 173.505 310.027 172.773C309.607 172.041 309.397 171.201 309.397 170.253C309.397 169.305 309.601 168.465 310.009 167.733C310.429 167.001 310.999 166.431 311.719 166.023C312.451 165.603 313.273 165.393 314.185 165.393C315.109 165.393 315.925 165.597 316.633 166.005C317.341 166.413 317.893 166.989 318.289 167.733C318.697 168.465 318.901 169.323 318.901 170.307C318.901 170.379 318.895 170.463 318.883 170.559C318.883 170.655 318.877 170.745 318.865 170.829H310.747V169.587H317.965L317.263 170.019C317.275 169.407 317.149 168.861 316.885 168.381C316.621 167.901 316.255 167.529 315.787 167.265C315.331 166.989 314.797 166.851 314.185 166.851C313.585 166.851 313.051 166.989 312.583 167.265C312.115 167.529 311.749 167.907 311.485 168.399C311.221 168.879 311.089 169.431 311.089 170.055V170.343C311.089 170.979 311.233 171.549 311.521 172.053C311.821 172.545 312.235 172.929 312.763 173.205C313.291 173.481 313.897 173.619 314.581 173.619C315.145 173.619 315.655 173.523 316.111 173.331C316.579 173.139 316.987 172.851 317.335 172.467L318.289 173.583C317.857 174.087 317.317 174.471 316.669 174.735C316.033 174.999 315.319 175.131 314.527 175.131ZM325.74 175.131C324.768 175.131 323.898 174.921 323.13 174.501C322.374 174.081 321.78 173.505 321.348 172.773C320.916 172.041 320.7 171.201 320.7 170.253C320.7 169.305 320.916 168.465 321.348 167.733C321.78 167.001 322.374 166.431 323.13 166.023C323.898 165.603 324.768 165.393 325.74 165.393C326.604 165.393 327.372 165.567 328.044 165.915C328.728 166.251 329.256 166.755 329.628 167.427L328.314 168.273C328.002 167.805 327.618 167.463 327.162 167.247C326.718 167.019 326.238 166.905 325.722 166.905C325.098 166.905 324.54 167.043 324.048 167.319C323.556 167.595 323.166 167.985 322.878 168.489C322.59 168.981 322.446 169.569 322.446 170.253C322.446 170.937 322.59 171.531 322.878 172.035C323.166 172.539 323.556 172.929 324.048 173.205C324.54 173.481 325.098 173.619 325.722 173.619C326.238 173.619 326.718 173.511 327.162 173.295C327.618 173.067 328.002 172.719 328.314 172.251L329.628 173.079C329.256 173.739 328.728 174.249 328.044 174.609C327.372 174.957 326.604 175.131 325.74 175.131ZM331.865 175.023V165.483H333.593V172.431L339.443 165.483H341.009V175.023H339.281V168.075L333.449 175.023H331.865ZM351.275 175.023L347.585 170.379L349.007 169.515L353.309 175.023H351.275ZM344.363 175.023V165.483H346.091V175.023H344.363ZM345.569 170.991V169.515H348.719V170.991H345.569ZM349.151 170.451L347.549 170.235L351.203 165.483H353.057L349.151 170.451ZM355.121 175.023V165.483H356.849V172.431L362.699 165.483H364.265V175.023H362.537V168.075L356.705 175.023H355.121ZM359.585 164.241C358.709 164.241 358.019 164.031 357.515 163.611C357.023 163.179 356.771 162.561 356.759 161.757H357.929C357.941 162.213 358.091 162.573 358.379 162.837C358.679 163.101 359.075 163.233 359.567 163.233C360.059 163.233 360.455 163.101 360.755 162.837C361.055 162.573 361.211 162.213 361.223 161.757H362.429C362.417 162.561 362.159 163.179 361.655 163.611C361.151 164.031 360.461 164.241 359.585 164.241ZM378.141 175.167C378.129 175.167 378.087 175.167 378.015 175.167C377.955 175.167 377.895 175.167 377.835 175.167C377.775 175.167 377.739 175.167 377.727 175.167C375.771 175.143 374.253 174.711 373.173 173.871C372.093 173.019 371.553 171.807 371.553 170.235C371.553 168.675 372.093 167.481 373.173 166.653C374.265 165.813 375.801 165.387 377.781 165.375C377.805 165.375 377.841 165.375 377.889 165.375C377.949 165.375 378.003 165.375 378.051 165.375C378.111 165.375 378.147 165.375 378.159 165.375C380.163 165.375 381.717 165.795 382.821 166.635C383.937 167.475 384.495 168.675 384.495 170.235C384.495 171.819 383.937 173.037 382.821 173.889C381.705 174.741 380.145 175.167 378.141 175.167ZM378.105 173.655C379.149 173.655 380.013 173.523 380.697 173.259C381.393 172.995 381.915 172.611 382.263 172.107C382.611 171.603 382.785 170.979 382.785 170.235C382.785 169.503 382.611 168.891 382.263 168.399C381.915 167.907 381.393 167.535 380.697 167.283C380.013 167.031 379.149 166.905 378.105 166.905C378.081 166.905 378.033 166.905 377.961 166.905C377.889 166.905 377.847 166.905 377.835 166.905C376.815 166.905 375.963 167.037 375.279 167.301C374.607 167.553 374.103 167.925 373.767 168.417C373.431 168.909 373.263 169.515 373.263 170.235C373.263 170.967 373.431 171.585 373.767 172.089C374.115 172.593 374.625 172.977 375.297 173.241C375.981 173.505 376.827 173.643 377.835 173.655C377.859 173.655 377.901 173.655 377.961 173.655C378.033 173.655 378.081 173.655 378.105 173.655ZM377.169 178.515V161.667H378.861V178.515H377.169ZM391.024 175.131C390.064 175.131 389.212 174.921 388.468 174.501C387.724 174.081 387.136 173.505 386.704 172.773C386.272 172.029 386.056 171.189 386.056 170.253C386.056 169.305 386.272 168.465 386.704 167.733C387.136 167.001 387.724 166.431 388.468 166.023C389.212 165.603 390.064 165.393 391.024 165.393C391.972 165.393 392.818 165.603 393.562 166.023C394.318 166.431 394.906 167.001 395.326 167.733C395.758 168.453 395.974 169.293 395.974 170.253C395.974 171.201 395.758 172.041 395.326 172.773C394.906 173.505 394.318 174.081 393.562 174.501C392.818 174.921 391.972 175.131 391.024 175.131ZM391.024 173.619C391.636 173.619 392.182 173.481 392.662 173.205C393.154 172.929 393.538 172.539 393.814 172.035C394.09 171.519 394.228 170.925 394.228 170.253C394.228 169.569 394.09 168.981 393.814 168.489C393.538 167.985 393.154 167.595 392.662 167.319C392.182 167.043 391.636 166.905 391.024 166.905C390.412 166.905 389.866 167.043 389.386 167.319C388.906 167.595 388.522 167.985 388.234 168.489C387.946 168.981 387.802 169.569 387.802 170.253C387.802 170.925 387.946 171.519 388.234 172.035C388.522 172.539 388.906 172.929 389.386 173.205C389.866 173.481 390.412 173.619 391.024 173.619ZM398.469 175.023V165.483H400.197V169.533H405.633V165.483H407.361V175.023H405.633V171.027H400.197V175.023H398.469ZM417.237 174.213V166.995H413.097L413.007 168.831C412.983 169.431 412.941 170.013 412.881 170.577C412.833 171.129 412.749 171.639 412.629 172.107C412.521 172.575 412.359 172.959 412.143 173.259C411.927 173.559 411.639 173.745 411.279 173.817L409.569 173.511C409.941 173.523 410.241 173.403 410.469 173.151C410.697 172.887 410.871 172.527 410.991 172.071C411.123 171.615 411.219 171.099 411.279 170.523C411.339 169.935 411.387 169.329 411.423 168.705L411.567 165.483H418.965V174.213H417.237ZM409.191 177.237V173.511H420.423V177.237H418.803V175.023H410.829V177.237H409.191Z" fill="black"/>
<circle r="3.5" transform="matrix(1 0 0 -1 434.5 149.523)" fill="#4DDA36"/>
</svg>
