<svg width="790" height="425" viewBox="0 0 790 425" fill="none" xmlns="http://www.w3.org/2000/svg">
<path opacity="0.1" d="M120 205H670L790 425H0L120 205Z" fill="black"/>
<path d="M305.428 5.57134V0.857056L303.857 5.57134H305.428Z" fill="black"/>
<path d="M484.572 5.57134V0.857056L486.143 5.57134H484.572Z" fill="black"/>
<path d="M217.429 0.857056H305.429L304.643 3.99991H485.357L484.571 0.857056H572.571L582 13.4285H208L217.429 0.857056Z" fill="#7B759C"/>
<path d="M208 27.5713V13.4285H215.857L208 27.5713Z" fill="#261F47"/>
<path d="M574.231 13.4285L618.143 84.1428H395V13.4285H574.231Z" fill="#7B759C"/>
<path d="M215.769 13.4285L171.857 84.1428H395V13.4285H215.769Z" fill="#7B759C"/>
<path d="M146.714 84.1428H643.286L659 107.714H131L146.714 84.1428Z" fill="#7B759C"/>
<rect width="56.5714" height="3.14286" transform="matrix(-1 0 0 1 263 103)" fill="#010006"/>
<path d="M270.857 85.7142V82.5714L263 103V106.143L270.857 85.7142Z" fill="#1F1459"/>
<rect x="527" y="103" width="56.5714" height="3.14286" fill="#010006"/>
<path d="M519.143 85.7142V82.5714L527 103V106.143L519.143 85.7142Z" fill="#1F1459"/>
<path d="M269.286 36.9999H520.714L526.214 49.5713L522.286 55.8571H267.714L263.786 49.5713L269.286 36.9999Z" fill="#1F2326"/>
<rect x="269.286" y="36.9999" width="251.429" height="18.8571" rx="3.14286" fill="url(#paint0_linear_2392_71394)"/>
<path d="M276.357 19.7142H513.643L520.714 35.4285H269.286L276.357 19.7142Z" fill="url(#paint1_linear_2392_71394)"/>
<rect width="4.71429" height="6.28571" transform="matrix(1 0 0 -1 277.143 55.8571)" fill="#B8920C"/>
<rect width="4.71429" height="3.14286" transform="matrix(1 0 0 -1 277.143 49.5713)" fill="#FFDB5A"/>
<rect width="4.71429" height="6.28571" transform="matrix(1 0 0 -1 288.143 55.8571)" fill="#B8920C"/>
<rect width="4.71429" height="3.14286" transform="matrix(1 0 0 -1 288.143 49.5713)" fill="#FFDB5A"/>
<rect width="4.71429" height="6.28571" transform="matrix(1 0 0 -1 299.143 55.8571)" fill="#B8920C"/>
<rect width="4.71429" height="3.14286" transform="matrix(1 0 0 -1 299.143 49.5713)" fill="#FFDB5A"/>
<rect width="4.71429" height="6.28571" transform="matrix(1 0 0 -1 310.143 55.8571)" fill="#B8920C"/>
<rect width="4.71429" height="3.14286" transform="matrix(1 0 0 -1 310.143 49.5713)" fill="#FFDB5A"/>
<rect width="4.71429" height="6.28571" transform="matrix(1 0 0 -1 321.143 55.8571)" fill="#B8920C"/>
<rect width="4.71429" height="3.14286" transform="matrix(1 0 0 -1 321.143 49.5713)" fill="#FFDB5A"/>
<rect width="4.71429" height="6.28571" transform="matrix(1 0 0 -1 332.143 55.8571)" fill="#B8920C"/>
<rect width="4.71429" height="3.14286" transform="matrix(1 0 0 -1 332.143 49.5713)" fill="#FFDB5A"/>
<rect width="4.71429" height="6.28571" transform="matrix(1 0 0 -1 343.143 55.8571)" fill="#B8920C"/>
<rect width="4.71429" height="3.14286" transform="matrix(1 0 0 -1 343.143 49.5713)" fill="#FFDB5A"/>
<rect width="4.71429" height="6.28571" transform="matrix(1 0 0 -1 354.143 55.8571)" fill="#B8920C"/>
<rect width="4.71429" height="3.14286" transform="matrix(1 0 0 -1 354.143 49.5713)" fill="#FFDB5A"/>
<rect width="4.71429" height="6.28571" transform="matrix(1 0 0 -1 365.143 55.8571)" fill="#B8920C"/>
<rect width="4.71429" height="3.14286" transform="matrix(1 0 0 -1 365.143 49.5713)" fill="#FFDB5A"/>
<rect width="4.71429" height="6.28571" transform="matrix(1 0 0 -1 376.143 55.8571)" fill="#B8920C"/>
<rect width="4.71429" height="3.14286" transform="matrix(1 0 0 -1 376.143 49.5713)" fill="#FFDB5A"/>
<rect width="4.71429" height="6.28571" transform="matrix(1 0 0 -1 387.143 55.8571)" fill="#B8920C"/>
<rect width="4.71429" height="3.14286" transform="matrix(1 0 0 -1 387.143 49.5713)" fill="#FFDB5A"/>
<rect width="4.71429" height="6.28571" transform="matrix(1 0 0 -1 398.143 55.8571)" fill="#B8920C"/>
<rect width="4.71429" height="3.14286" transform="matrix(1 0 0 -1 398.143 49.5713)" fill="#FFDB5A"/>
<rect width="4.71429" height="6.28571" transform="matrix(1 0 0 -1 409.143 55.8571)" fill="#B8920C"/>
<rect width="4.71429" height="3.14286" transform="matrix(1 0 0 -1 409.143 49.5713)" fill="#FFDB5A"/>
<rect width="4.71429" height="6.28571" transform="matrix(1 0 0 -1 420.143 55.8571)" fill="#B8920C"/>
<rect width="4.71429" height="3.14286" transform="matrix(1 0 0 -1 420.143 49.5713)" fill="#FFDB5A"/>
<rect width="4.71429" height="6.28571" transform="matrix(1 0 0 -1 431.143 55.8571)" fill="#B8920C"/>
<rect width="4.71429" height="3.14286" transform="matrix(1 0 0 -1 431.143 49.5713)" fill="#FFDB5A"/>
<rect width="4.71429" height="6.28571" transform="matrix(1 0 0 -1 442.143 55.8571)" fill="#B8920C"/>
<rect width="4.71429" height="3.14286" transform="matrix(1 0 0 -1 442.143 49.5713)" fill="#FFDB5A"/>
<rect width="4.71429" height="6.28571" transform="matrix(1 0 0 -1 453.143 55.8571)" fill="#B8920C"/>
<rect width="4.71429" height="3.14286" transform="matrix(1 0 0 -1 453.143 49.5713)" fill="#FFDB5A"/>
<rect width="4.71429" height="6.28571" transform="matrix(1 0 0 -1 464.143 55.8571)" fill="#B8920C"/>
<rect width="4.71429" height="3.14286" transform="matrix(1 0 0 -1 464.143 49.5713)" fill="#FFDB5A"/>
<rect width="4.71429" height="6.28571" transform="matrix(1 0 0 -1 475.143 55.8571)" fill="#B8920C"/>
<rect width="4.71429" height="3.14286" transform="matrix(1 0 0 -1 475.143 49.5713)" fill="#FFDB5A"/>
<rect width="4.71429" height="6.28571" transform="matrix(1 0 0 -1 486.143 55.8571)" fill="#B8920C"/>
<rect width="4.71429" height="3.14286" transform="matrix(1 0 0 -1 486.143 49.5713)" fill="#FFDB5A"/>
<rect width="4.71429" height="6.28571" transform="matrix(1 0 0 -1 497.143 55.8571)" fill="#B8920C"/>
<rect width="4.71429" height="3.14286" transform="matrix(1 0 0 -1 497.143 49.5713)" fill="#FFDB5A"/>
<rect width="4.71429" height="6.28571" transform="matrix(1 0 0 -1 508.143 55.8571)" fill="#B8920C"/>
<rect width="4.71429" height="3.14286" transform="matrix(1 0 0 -1 508.143 49.5713)" fill="#FFDB5A"/>
<rect x="120" y="136" width="550" height="53.4286" fill="#1F1A3A"/>
<path d="M270.857 82.5714H217.428L206.428 103H263L270.857 82.5714Z" fill="url(#paint2_linear_2392_71394)"/>
<rect x="120" y="189.428" width="550" height="15.7143" fill="#08051E"/>
<path d="M212.714 58.9999H577.286L582 68.4285H208L212.714 58.9999Z" fill="#251F47"/>
<rect x="212.714" y="58.9999" width="364.571" height="3.14286" fill="#010006"/>
<path d="M131 107.714H659L670 136H120L131 107.714Z" fill="#47416A"/>
<path opacity="0.3" fill-rule="evenodd" clip-rule="evenodd" d="M522 56H266L257.905 73H215.66L191.5 107.862L175 136H613L597 107.787L572.34 73H530.095L522 56Z" fill="black"/>
<path d="M519.143 82.5714H572.572L583.572 103H527L519.143 82.5714Z" fill="url(#paint3_linear_2392_71394)"/>
<path d="M343.797 36.9999H446.202L448.428 46.4285H341.571L343.797 36.9999Z" fill="url(#paint4_linear_2392_71394)"/>
<path d="M186 114H605.571L610.286 129.714H181.286L186 114Z" fill="url(#paint5_linear_2392_71394)"/>
<rect x="234.714" y="164.286" width="81.7143" height="33" rx="3.14286" fill="#554F75"/>
<rect x="236.286" y="165.857" width="78.5714" height="29.8571" rx="3.14286" fill="#0D082B"/>
<rect x="245.714" y="165.857" width="4.71429" height="6.28571" fill="#B8920C"/>
<rect x="256.714" y="165.857" width="4.71429" height="6.28571" fill="#B8920C"/>
<rect x="267.714" y="165.857" width="4.71429" height="6.28571" fill="#B8920C"/>
<rect x="278.714" y="165.857" width="4.71429" height="6.28571" fill="#B8920C"/>
<rect x="289.714" y="165.857" width="4.71429" height="6.28571" fill="#B8920C"/>
<rect x="300.714" y="165.857" width="4.71429" height="6.28571" fill="#B8920C"/>
<rect x="245.714" y="172.143" width="4.71429" height="3.14286" fill="#FFDB5A"/>
<rect x="256.714" y="172.143" width="4.71429" height="3.14286" fill="#FFDB5A"/>
<rect x="267.714" y="172.143" width="4.71429" height="3.14286" fill="#FFDB5A"/>
<rect x="278.714" y="172.143" width="4.71429" height="3.14286" fill="#FFDB5A"/>
<rect x="289.714" y="172.143" width="4.71429" height="3.14286" fill="#FFDB5A"/>
<rect x="300.714" y="172.143" width="4.71429" height="3.14286" fill="#FFDB5A"/>
<rect x="473.571" y="164.286" width="81.7143" height="33" rx="3.14286" fill="#554F75"/>
<rect x="475.143" y="165.857" width="78.5714" height="29.8571" rx="3.14286" fill="#0D082B"/>
<rect x="484.571" y="165.857" width="4.71429" height="6.28571" fill="#B8920C"/>
<rect x="495.571" y="165.857" width="4.71429" height="6.28571" fill="#B8920C"/>
<rect x="506.571" y="165.857" width="4.71429" height="6.28571" fill="#B8920C"/>
<rect x="517.571" y="165.857" width="4.71429" height="6.28571" fill="#B8920C"/>
<rect x="528.571" y="165.857" width="4.71429" height="6.28571" fill="#B8920C"/>
<rect x="539.571" y="165.857" width="4.71429" height="6.28571" fill="#B8920C"/>
<rect x="484.571" y="172.143" width="4.71429" height="3.14286" fill="#FFDB5A"/>
<rect x="495.571" y="172.143" width="4.71429" height="3.14286" fill="#FFDB5A"/>
<rect x="506.571" y="172.143" width="4.71429" height="3.14286" fill="#FFDB5A"/>
<rect x="517.571" y="172.143" width="4.71429" height="3.14286" fill="#FFDB5A"/>
<rect x="528.571" y="172.143" width="4.71429" height="3.14286" fill="#FFDB5A"/>
<rect x="539.571" y="172.143" width="4.71429" height="3.14286" fill="#FFDB5A"/>
<path d="M582 27.5713V13.4285H574.143L582 27.5713Z" fill="#261F47"/>
<path d="M580.429 68.4285L577.286 62.1428V58.9999L582 68.4285H580.429Z" fill="#282828"/>
<path d="M209.571 68.4285L212.714 62.1428V58.9999L208 68.4285H209.571Z" fill="#282828"/>
<path d="M298.357 19.7142L304.643 3.99991H485.357L490.857 19.7142H298.357Z" fill="url(#paint6_linear_2392_71394)"/>
<path d="M307 19.7142L311.714 3.99991H314.857L310.143 19.7142H307Z" fill="#505050"/>
<path d="M322.714 19.7142L326.643 3.99991H329.786L325.857 19.7142H322.714Z" fill="#505050"/>
<path d="M340.786 19.7142L343.143 3.99991H346.286L343.929 19.7142H340.786Z" fill="#505050"/>
<path d="M358.857 19.7142L360.428 3.99991H363.571L362 19.7142H358.857Z" fill="#505050"/>
<path d="M376.143 19.7142L376.929 3.99991H380.072L379.286 19.7142H376.143Z" fill="#505050"/>
<path d="M483 19.7142L478.286 3.99991H475.143L479.857 19.7142H483Z" fill="#505050"/>
<path d="M467.286 19.7142L463.357 3.99991H460.214L464.143 19.7142H467.286Z" fill="#505050"/>
<path d="M449.214 19.7142L446.857 3.99991H443.714L446.071 19.7142H449.214Z" fill="#505050"/>
<path d="M431.143 19.7142L429.572 3.99991H426.429L428 19.7142H431.143Z" fill="#505050"/>
<path d="M413.857 19.7142L413.071 3.99991H409.928L410.714 19.7142H413.857Z" fill="#505050"/>
<path d="M393.429 19.7142V3.99991H396.572V19.7142H393.429Z" fill="#505050"/>
<path d="M540.357 54.2856L517.571 5.57135H540.357L567.071 54.2856H540.357Z" fill="url(#paint7_linear_2392_71394)"/>
<path d="M540.357 8.71421V5.57135H517.571L519.143 8.71421H540.357Z" fill="#6B6B6B"/>
<path d="M540.357 8.71421V5.57135L567.071 54.2856H564.714L540.357 8.71421Z" fill="#010006"/>
<path d="M249.643 54.2856L272.429 5.57135H249.643L222.929 54.2856H249.643Z" fill="url(#paint8_linear_2392_71394)"/>
<path d="M249.643 8.71421V5.57135H272.429L270.857 8.71421H249.643Z" fill="#6B6B6B"/>
<path d="M249.643 8.71421V5.57135L222.929 54.2856H225.286L249.643 8.71421Z" fill="#010006"/>
<path d="M213.5 73.1428H260.643L258.286 77.857H211.143L213.5 73.1428Z" fill="url(#paint9_linear_2392_71394)"/>
<path d="M210.968 77.8571H258.286L261.429 101.428H208L210.968 77.8571Z" fill="#010006"/>
<path d="M263.786 94.357L261.429 101.428L258.286 77.857L260.643 73.1428L263.786 94.357Z" fill="url(#paint10_linear_2392_71394)"/>
<path opacity="0.3" d="M206 106H263L250 136H194L206 106Z" fill="black"/>
<path opacity="0.3" d="M583.639 106H527L528 108H584.5L583.639 106Z" fill="black"/>
<path opacity="0.3" d="M328 106H462L470 136H320L328 106Z" fill="black"/>
<defs>
<linearGradient id="paint0_linear_2392_71394" x1="395" y1="36.9999" x2="395" y2="55.8571" gradientUnits="userSpaceOnUse">
<stop stop-color="#050B10"/>
<stop offset="1" stop-color="#282E33"/>
</linearGradient>
<linearGradient id="paint1_linear_2392_71394" x1="395" y1="19.7142" x2="395" y2="35.4285" gradientUnits="userSpaceOnUse">
<stop stop-color="#121B5F"/>
<stop offset="1" stop-color="#0C144F"/>
</linearGradient>
<linearGradient id="paint2_linear_2392_71394" x1="238.643" y1="82.5714" x2="238.643" y2="103" gradientUnits="userSpaceOnUse">
<stop stop-color="#251F47"/>
<stop offset="1" stop-color="#171136"/>
</linearGradient>
<linearGradient id="paint3_linear_2392_71394" x1="551.357" y1="82.5714" x2="551.357" y2="103" gradientUnits="userSpaceOnUse">
<stop stop-color="#251F47"/>
<stop offset="1" stop-color="#171136"/>
</linearGradient>
<linearGradient id="paint4_linear_2392_71394" x1="395" y1="36.9999" x2="395" y2="46.4285" gradientUnits="userSpaceOnUse">
<stop stop-color="#251F47"/>
<stop offset="1" stop-color="#171136"/>
</linearGradient>
<linearGradient id="paint5_linear_2392_71394" x1="395.786" y1="114" x2="395.786" y2="129.714" gradientUnits="userSpaceOnUse">
<stop stop-color="#251F47"/>
<stop offset="1" stop-color="#171136"/>
</linearGradient>
<linearGradient id="paint6_linear_2392_71394" x1="394.607" y1="3.99991" x2="394.607" y2="19.7142" gradientUnits="userSpaceOnUse">
<stop stop-color="#6B6B6B"/>
<stop offset="1" stop-color="#595959"/>
</linearGradient>
<linearGradient id="paint7_linear_2392_71394" x1="542.321" y1="5.57135" x2="542.321" y2="54.2856" gradientUnits="userSpaceOnUse">
<stop stop-color="#1D1646"/>
<stop offset="1" stop-color="#282247"/>
</linearGradient>
<linearGradient id="paint8_linear_2392_71394" x1="247.679" y1="5.57135" x2="247.679" y2="54.2856" gradientUnits="userSpaceOnUse">
<stop stop-color="#1D1646"/>
<stop offset="1" stop-color="#282247"/>
</linearGradient>
<linearGradient id="paint9_linear_2392_71394" x1="235.893" y1="73.1428" x2="235.893" y2="77.857" gradientUnits="userSpaceOnUse">
<stop stop-color="#251F47"/>
<stop offset="1" stop-color="#171136"/>
</linearGradient>
<linearGradient id="paint10_linear_2392_71394" x1="261.036" y1="73.1428" x2="261.036" y2="101.428" gradientUnits="userSpaceOnUse">
<stop stop-color="#251F47"/>
<stop offset="1" stop-color="#171136"/>
</linearGradient>
</defs>
</svg>
