<svg width="114" height="24" viewBox="0 0 114 24" fill="none" xmlns="http://www.w3.org/2000/svg">
<path d="M14.1157 18.2145C15.5599 18.2145 16.705 17.6497 17.5268 16.716V17.9445H20.5153V0.75H17.4274V8.09475C16.6063 7.20975 15.4853 6.6945 14.0901 6.6945C11.0278 6.6945 8.78667 9.22425 8.78667 12.4665C8.78667 15.684 11.0278 18.2145 14.1157 18.2145ZM14.6634 15.537C13.1447 15.537 11.974 14.3333 11.974 12.4665C11.974 10.5997 13.1447 9.396 14.6634 9.396C16.2575 9.396 17.4523 10.5997 17.4523 12.4665C17.4523 14.334 16.2575 15.537 14.6634 15.537ZM25.8241 17.9445V13.1295C25.8241 11.1405 26.945 9.765 28.912 9.765C29.211 9.765 29.7836 9.789 30.0073 9.81375V6.9645C29.7836 6.91575 29.5342 6.891 29.1606 6.891C27.5175 6.891 26.322 7.6275 25.6998 8.6835V6.9885H22.7361V17.9445H25.8248H25.8241ZM33.0199 5.29425C34.1409 5.29425 34.8882 4.50825 34.8882 3.42675C34.8882 2.3715 34.1409 1.5855 33.0199 1.5855C31.9245 1.5855 31.1516 2.3715 31.1516 3.4275C31.1516 4.5075 31.9245 5.29425 33.0199 5.29425ZM34.5642 17.9445V6.98925H31.4756V17.9445H34.5642ZM43.11 18.2145C46.2228 18.2145 48.464 15.6847 48.464 12.4665C48.464 9.22425 46.2228 6.6945 43.1349 6.6945C41.7405 6.6945 40.6195 7.2105 39.8225 8.09475V0.75H36.7353V17.9445H39.6982V16.692C40.4952 17.6497 41.6659 18.2145 43.11 18.2145ZM42.5872 15.537C40.9932 15.537 39.7976 14.3333 39.7976 12.4665C39.7976 10.5997 40.9932 9.396 42.5872 9.396C44.1059 9.396 45.2766 10.5997 45.2766 12.4665C45.2766 14.334 44.1059 15.537 42.5872 15.537ZM56.2128 18.2145C59.3255 18.2145 61.5667 15.6847 61.5667 12.4665C61.5667 9.22425 59.3255 6.6945 56.2376 6.6945C54.844 6.6945 53.723 7.2105 52.926 8.09475V0.75H49.8381V17.9445H52.8017V16.692C53.5979 17.6497 54.7679 18.2145 56.2128 18.2145ZM55.69 15.537C54.0959 15.537 52.9011 14.3333 52.9011 12.4665C52.9011 10.5997 54.0959 9.396 55.69 9.396C57.2087 9.396 58.3794 10.5997 58.3794 12.4665C58.3794 14.334 57.2087 15.537 55.69 15.537ZM66.1259 17.9445V0.75H63.0372V17.9445H66.1259ZM73.4016 18.2145C76.5392 18.2145 78.3819 16.5195 78.8301 14.4315H75.8672C75.593 15.2423 74.7711 15.7087 73.5763 15.7087C72.1819 15.7087 71.1355 14.8492 70.8116 13.449H79.0049C79.0546 13.1542 79.0794 12.7612 79.0794 12.2948C79.0794 9.1995 76.5889 6.6945 73.3767 6.6945C70.1396 6.6945 67.6499 9.27375 67.6499 12.4665C67.6499 15.7087 70.1396 18.2145 73.4016 18.2145ZM75.9915 11.4345H70.8124C71.1363 10.1085 72.1066 9.22425 73.5018 9.22425C74.6966 9.22425 75.7422 10.0343 75.9915 11.4352V11.4345ZM84.792 18.2145C86.386 18.2145 87.6305 17.5755 88.3025 16.6672V17.9445H91.291V6.98925H88.2038V12.8107C88.2038 14.4075 87.2576 15.4635 85.763 15.4635C84.3437 15.4635 83.5716 14.481 83.5716 12.909V6.98925H80.4844V13.7197C80.4844 16.3477 82.1026 18.2145 84.792 18.2145ZM96.5726 23.25V16.839C97.3696 17.7232 98.4898 18.2145 99.8594 18.2145C102.972 18.2145 105.213 15.6847 105.213 12.4665C105.213 9.22425 102.972 6.6945 99.8842 6.6945C98.4153 6.6945 97.2446 7.284 96.4483 8.24175V6.99H93.4847V23.25H96.5726ZM99.3366 15.537C97.7425 15.537 96.5477 14.3333 96.5477 12.4665C96.5477 10.5997 97.7425 9.396 99.3366 9.396C100.855 9.396 102.026 10.5997 102.026 12.4665C102.026 14.334 100.855 15.537 99.3366 15.537Z" fill="black"/>
<path fill-rule="evenodd" clip-rule="evenodd" d="M9.54 0V9V2.13525H2.64474V9H0.5V0H9.54ZM9.54 24V15V21.8647H2.64474V15H0.5V24H9.54ZM104.46 0V9V2.13525H111.355V9H113.5V0H104.46ZM104.46 24V15V21.8647H111.355V15H113.5V24H104.46Z" fill="black"/>
</svg>
