<svg width="678" height="441" viewBox="0 0 678 441" fill="none" xmlns="http://www.w3.org/2000/svg">
<path d="M10.8686 2.57204C12.0795 0.953181 13.9828 0 16.0044 0H661.996C664.017 0 665.921 0.95318 667.131 2.57204L678 17.1027L630.028 29.9297H46.9057L0 17.1027L10.8686 2.57204Z" fill="url(#paint0_linear_2_115)"/>
<path d="M631.094 29.9297L678 17.1027V382.672L631.094 393.361V29.9297Z" fill="url(#paint1_linear_2_115)"/>
<path d="M46.9057 29.9297L3.33786e-05 17.1027V382.672L46.9057 393.361V29.9297Z" fill="url(#paint2_linear_2_115)"/>
<path fill-rule="evenodd" clip-rule="evenodd" d="M631.094 29.9297H46.9057V393.361H66.0943V436.118C66.0943 438.479 68.0086 440.394 70.37 440.394H607.63C609.991 440.394 611.906 438.479 611.906 436.118V393.361H631.094V29.9297Z" fill="url(#paint3_linear_2_115)"/>
<path d="M0 32.0675L46.9057 47.0323H631.094L678 32.0675V38.481L631.094 53.4458H46.9057L0 38.481V32.0675Z" fill="url(#paint4_linear_2_115)"/>
<path d="M0 51.308L46.9057 64.135H631.094L678 51.308V57.7215L631.094 70.5485H46.9057L0 57.7215V51.308Z" fill="url(#paint5_linear_2_115)"/>
<path d="M0 68.4106L46.9057 81.2376H631.094L678 68.4106V74.8241L631.094 87.6511H46.9057L0 74.8241V68.4106Z" fill="url(#paint6_linear_2_115)"/>
<rect x="72.4906" y="111.167" width="533.019" height="260.816" rx="4.27567" fill="#FFFCEF"/>
<defs>
<linearGradient id="paint0_linear_2_115" x1="339" y1="0" x2="339" y2="29.9297" gradientUnits="userSpaceOnUse">
<stop stop-color="#F8C719"/>
<stop offset="1" stop-color="#FFD130"/>
</linearGradient>
<linearGradient id="paint1_linear_2_115" x1="631.094" y1="138.959" x2="678" y2="138.959" gradientUnits="userSpaceOnUse">
<stop stop-color="#D6AB13"/>
<stop offset="1" stop-color="#CFA40C"/>
</linearGradient>
<linearGradient id="paint2_linear_2_115" x1="46.9057" y1="138.959" x2="3.50525e-05" y2="138.959" gradientUnits="userSpaceOnUse">
<stop stop-color="#D6AB13"/>
<stop offset="1" stop-color="#CFA40C"/>
</linearGradient>
<linearGradient id="paint3_linear_2_115" x1="339" y1="29.9297" x2="339" y2="440.394" gradientUnits="userSpaceOnUse">
<stop stop-color="#F0C736"/>
<stop offset="1" stop-color="#E2B71F"/>
</linearGradient>
<linearGradient id="paint4_linear_2_115" x1="339" y1="43.8256" x2="339" y2="53.4458" gradientUnits="userSpaceOnUse">
<stop stop-color="#C8A320"/>
<stop offset="1" stop-color="#C8A320" stop-opacity="0"/>
</linearGradient>
<linearGradient id="paint5_linear_2_115" x1="339" y1="61.8903" x2="339" y2="70.5485" gradientUnits="userSpaceOnUse">
<stop stop-color="#C8A320"/>
<stop offset="1" stop-color="#C8A320" stop-opacity="0"/>
</linearGradient>
<linearGradient id="paint6_linear_2_115" x1="339" y1="78.9929" x2="339" y2="87.6511" gradientUnits="userSpaceOnUse">
<stop stop-color="#C8A320"/>
<stop offset="1" stop-color="#C8A320" stop-opacity="0"/>
</linearGradient>
</defs>
</svg>
