<svg width="580" height="515" viewBox="0 0 580 515" fill="none" xmlns="http://www.w3.org/2000/svg">
<path d="M96.9789 1C104.361 9.96451 110.162 71.5296 112.139 101.192C102.472 126.459 83.2685 166.184 83.7958 122.944C84.3231 79.7031 92.8042 23.631 96.9789 1Z" fill="url(#paint0_linear_14_6968)"/>
<path d="M141.142 82.7344C147.997 104.355 147.514 163.81 146.415 190.836L118.73 196.768C118.73 158.801 133.671 104.926 141.142 82.7344Z" fill="url(#paint1_linear_14_6968)"/>
<path d="M36.3359 224H154.984L142.338 331.349C141.947 334.668 139.134 337.169 135.792 337.169H55.5278C52.1857 337.169 49.3725 334.668 48.9815 331.349L36.3359 224Z" fill="url(#paint2_linear_14_6968)"/>
<path d="M116.753 57.6867C125.19 81.9436 129.057 162.053 129.936 192.813H60.0664C60.0664 111.737 71.7115 61.4219 77.2044 36.5938C82.4777 52.4135 88.6293 110.419 91.046 137.444C89.9914 121.625 94.1221 94.8191 96.3193 83.3937C100.538 87.6123 103.79 114.594 104.888 127.557C105.416 104.882 113.018 71.529 116.753 57.6867Z" fill="url(#paint3_linear_14_6968)"/>
<path d="M86.432 90.6445C98.956 128.216 98.2968 165.129 98.956 190.836L45.5645 197.428C45.5645 197.428 45.5645 97.236 52.8152 63.6191C62.307 74.1656 70.3926 128.656 73.249 154.582C73.7763 125.58 79.1813 103.168 86.432 90.6445Z" fill="url(#paint4_linear_14_6968)"/>
<rect x="21.918" y="188" width="146" height="36" rx="6.59155" fill="url(#paint5_linear_14_6968)"/>
<rect x="42.918" y="331" width="104" height="11" rx="3.95493" fill="url(#paint6_linear_14_6968)"/>
<path fill-rule="evenodd" clip-rule="evenodd" d="M59.9215 347.981C58.4653 347.981 55.8648 347.386 54.113 346.652L46.1835 343.329C44.4317 342.595 44.1921 342 45.6483 342L144.522 342C145.978 342 148.578 342.595 150.33 343.329L158.26 346.652C160.011 347.386 160.251 347.981 158.795 347.981H156.784L297.799 401.809L179.151 401.808L63.2486 347.981H59.9215ZM453.649 472.914C435.096 462.358 366.953 433.907 332.151 419.751H347.211C350.852 419.751 350.253 418.264 345.873 416.428L318.913 405.131C314.533 403.296 308.032 401.809 304.392 401.809L171.242 401.809C167.602 401.809 168.201 403.296 172.58 405.131L199.541 416.428C203.92 418.263 210.422 419.751 214.062 419.751H231.245C262.194 432.635 349.449 468.739 388.319 482.55C386.741 479.926 371.937 471.903 353.942 462.878C392.537 477.534 422.575 488.161 442.348 495.157L443.573 495.59L445.22 496.173C437.901 491.931 416.472 481.672 393.485 470.947C437.679 488.269 484.756 505.738 507.815 514.116C505.002 510.379 457.837 488.511 422.537 472.599C437.323 477.901 450.792 482.596 459.394 485.541C447.547 478.558 412.297 462.392 377.509 446.922C407.668 457.594 436.441 467.28 453.649 472.914ZM363.476 450.32C367.52 451.983 371.987 453.759 376.729 455.603C375.073 455.098 373.419 454.597 371.775 454.102C368.732 452.701 365.898 451.412 363.476 450.32Z" fill="url(#paint7_linear_14_6968)"/>
<defs>
<linearGradient id="paint0_linear_14_6968" x1="80.6347" y1="101.133" x2="110.739" y2="101.133" gradientUnits="userSpaceOnUse">
<stop stop-color="#055269"/>
<stop offset="1" stop-color="#022935"/>
</linearGradient>
<linearGradient id="paint1_linear_14_6968" x1="115.583" y1="163.625" x2="145.661" y2="163.625" gradientUnits="userSpaceOnUse">
<stop stop-color="#01232E"/>
<stop offset="1" stop-color="#001A22"/>
</linearGradient>
<linearGradient id="paint2_linear_14_6968" x1="36.3359" y1="280.482" x2="154.984" y2="280.482" gradientUnits="userSpaceOnUse">
<stop stop-color="#655C83"/>
<stop offset="0.274137" stop-color="#3B3258"/>
<stop offset="1" stop-color="#1B1532"/>
</linearGradient>
<linearGradient id="paint3_linear_14_6968" x1="65.3396" y1="136.126" x2="129.937" y2="136.126" gradientUnits="userSpaceOnUse">
<stop stop-color="#08455C"/>
<stop offset="1" stop-color="#001922"/>
</linearGradient>
<linearGradient id="paint4_linear_14_6968" x1="39.6321" y1="158.537" x2="96.3194" y2="158.537" gradientUnits="userSpaceOnUse">
<stop stop-color="#055269"/>
<stop offset="1" stop-color="#022935"/>
</linearGradient>
<linearGradient id="paint5_linear_14_6968" x1="21.918" y1="210" x2="167.918" y2="210" gradientUnits="userSpaceOnUse">
<stop stop-color="#3F3A58"/>
<stop offset="0.0885417" stop-color="#282440"/>
<stop offset="1" stop-color="#090812"/>
</linearGradient>
<linearGradient id="paint6_linear_14_6968" x1="42.918" y1="337.722" x2="146.918" y2="337.722" gradientUnits="userSpaceOnUse">
<stop stop-color="#3F3A58"/>
<stop offset="0.0885417" stop-color="#282440"/>
<stop offset="1" stop-color="#090812"/>
</linearGradient>
<linearGradient id="paint7_linear_14_6968" x1="108.501" y1="342" x2="374.322" y2="205.311" gradientUnits="userSpaceOnUse">
<stop stop-color="#342B4B"/>
<stop offset="1" stop-color="#39304F" stop-opacity="0"/>
</linearGradient>
</defs>
</svg>
