<svg width="575" height="199" viewBox="0 0 575 199" fill="none" xmlns="http://www.w3.org/2000/svg">
<path d="M54.0015 116C61.1709 109.229 86.5015 118 104.501 118.5L107.501 205.5C76.1681 207 -0.398537 213.6 0.00146484 210C0.501465 205.5 36.0015 133 54.0015 116Z" fill="url(#paint0_linear_2253_66617)"/>
<path d="M520.001 116C512.832 109.229 487.501 118 469.501 118.5L466.501 205.5C497.835 207 574.401 213.6 574.001 210C573.501 205.5 538.001 133 520.001 116Z" fill="url(#paint1_linear_2253_66617)"/>
<path d="M282 57.5C282 57.5 282 43.5 282 24.5C282 -3.00001 315 -3 315 24.5C315 46.5 327 59 344.5 59" stroke="black" stroke-width="7"/>
<rect x="96" y="55" width="382" height="174" rx="26" fill="url(#paint2_linear_2253_66617)"/>
<rect x="103" y="61" width="368" height="160" rx="18" fill="url(#paint3_radial_2253_66617)"/>
<circle cx="375" cy="183" r="21" fill="black"/>
<circle cx="424" cy="183" r="21" fill="black"/>
<circle cx="375" cy="179" r="21" fill="url(#paint4_linear_2253_66617)"/>
<circle cx="424" cy="179" r="21" fill="url(#paint5_linear_2253_66617)"/>
<rect x="227" y="163" width="109" height="41" rx="20.5" fill="black"/>
<rect x="354" y="100" width="91" height="41" rx="20.5" fill="black"/>
<rect x="354" y="96" width="91" height="42" rx="21" fill="url(#paint6_linear_2253_66617)"/>
<circle cx="375" cy="120" r="16" fill="#131020"/>
<circle cx="424" cy="120" r="16" fill="#131020"/>
<circle cx="375" cy="117" r="16" fill="url(#paint7_linear_2253_66617)"/>
<circle cx="424" cy="117" r="16" fill="url(#paint8_linear_2253_66617)"/>
<rect x="227" y="163" width="109" height="38" rx="19" fill="url(#paint9_linear_2253_66617)"/>
<rect x="240" y="177.5" width="32" height="13" rx="6.5" fill="black"/>
<rect x="291" y="177.5" width="32" height="13" rx="6.5" fill="black"/>
<rect x="241" y="175.5" width="32" height="13" rx="6.5" fill="url(#paint10_linear_2253_66617)"/>
<rect x="291" y="175.5" width="32" height="13" rx="6.5" fill="url(#paint11_linear_2253_66617)"/>
<circle cx="375" cy="181" r="16" fill="black"/>
<circle cx="375" cy="179" r="16" fill="url(#paint12_linear_2253_66617)"/>
<circle cx="424" cy="181" r="16" fill="black"/>
<circle cx="424" cy="179" r="16" fill="url(#paint13_linear_2253_66617)"/>
<path fill-rule="evenodd" clip-rule="evenodd" d="M183 126C183 123.791 181.209 122 179 122H151C148.791 122 147 123.791 147 126V140C147 142.209 145.209 144 143 144L129 144C126.791 144 125 145.791 125 148V176C125 178.209 126.791 180 129 180H143C145.209 180 147 181.791 147 184V198C147 200.209 148.791 202 151 202H179C181.209 202 183 200.209 183 198V184C183 181.791 184.791 180 187 180H201C203.209 180 205 178.209 205 176V148C205 145.791 203.209 144 201 144L187 144C184.791 144 183 142.209 183 140V126Z" fill="black"/>
<path fill-rule="evenodd" clip-rule="evenodd" d="M183 123C183 120.791 181.209 119 179 119H151C148.791 119 147 120.791 147 123V137C147 139.209 145.209 141 143 141L129 141C126.791 141 125 142.791 125 145V173C125 175.209 126.791 177 129 177H143C145.209 177 147 178.791 147 181V195C147 197.209 148.791 199 151 199H179C181.209 199 183 197.209 183 195V181C183 178.791 184.791 177 187 177H201C203.209 177 205 175.209 205 173V145C205 142.791 203.209 141 201 141L187 141C184.791 141 183 139.209 183 137V123Z" fill="url(#paint14_linear_2253_66617)"/>
<path fill-rule="evenodd" clip-rule="evenodd" d="M178 131C178 128.239 175.761 126 173 126H157C154.239 126 152 128.239 152 131V143C152 145.761 149.761 148 147 148L135 148C132.239 148 130 150.239 130 153V169C130 171.761 132.239 174 135 174H147C149.761 174 152 176.239 152 179V191C152 193.761 154.239 196 157 196H173C175.761 196 178 193.761 178 191V179C178 176.239 180.239 174 183 174H195C197.761 174 200 171.761 200 169V153C200 150.239 197.761 148 195 148L183 148C180.239 148 178 145.761 178 143V131Z" fill="black"/>
<path fill-rule="evenodd" clip-rule="evenodd" d="M178 129C178 126.239 175.761 124 173 124H157C154.239 124 152 126.239 152 129V141C152 143.761 149.761 146 147 146L135 146C132.239 146 130 148.239 130 151V167C130 169.761 132.239 172 135 172H147C149.761 172 152 174.239 152 177V189C152 191.761 154.239 194 157 194H173C175.761 194 178 191.761 178 189V177C178 174.239 180.239 172 183 172H195C197.761 172 200 169.761 200 167V151C200 148.239 197.761 146 195 146L183 146C180.239 146 178 143.761 178 141V129Z" fill="url(#paint15_linear_2253_66617)"/>
<circle cx="165" cy="159" r="9" fill="#5A547A"/>
<path fill-rule="evenodd" clip-rule="evenodd" d="M189.854 165.146L195.293 159.707C195.683 159.317 195.683 158.683 195.293 158.293L189.854 152.854C189.539 152.539 189 152.762 189 153.207V154C189 154.552 188.552 155 188 155H180C179.448 155 179 155.448 179 156V162C179 162.552 179.448 163 180 163H188C188.552 163 189 163.448 189 164V164.793C189 165.238 189.539 165.461 189.854 165.146Z" fill="#5A547A"/>
<path fill-rule="evenodd" clip-rule="evenodd" d="M140.146 165.146L134.707 159.707C134.316 159.317 134.316 158.683 134.707 158.293L140.146 152.854C140.461 152.539 141 152.762 141 153.207L141 154C141 154.552 141.448 155 142 155H150C150.552 155 151 155.448 151 156V162C151 162.552 150.552 163 150 163H142C141.448 163 141 163.448 141 164V164.793C141 165.238 140.461 165.461 140.146 165.146Z" fill="#5A547A"/>
<path fill-rule="evenodd" clip-rule="evenodd" d="M158.854 134.146L164.293 128.707C164.683 128.317 165.317 128.317 165.707 128.707L171.146 134.146C171.461 134.461 171.238 135 170.793 135L170 135C169.448 135 169 135.448 169 136V144C169 144.552 168.552 145 168 145H162C161.448 145 161 144.552 161 144L161 136C161 135.448 160.552 135 160 135H159.207C158.762 135 158.539 134.461 158.854 134.146Z" fill="#5A547A"/>
<path fill-rule="evenodd" clip-rule="evenodd" d="M170 183C169.448 183 169 182.552 169 182V174C169 173.448 168.552 173 168 173H162C161.448 173 161 173.448 161 174L161 182C161 182.552 160.552 183 160 183H159.207C158.762 183 158.539 183.539 158.854 183.854L164.293 189.293C164.683 189.683 165.317 189.683 165.707 189.293L171.146 183.854C171.461 183.539 171.238 183 170.793 183H170Z" fill="#5A547A"/>
<path d="M244.886 146.636C244.852 146.348 244.714 146.125 244.472 145.966C244.229 145.807 243.932 145.727 243.58 145.727C243.322 145.727 243.097 145.769 242.903 145.852C242.712 145.936 242.563 146.05 242.455 146.196C242.348 146.342 242.295 146.508 242.295 146.693C242.295 146.848 242.332 146.982 242.406 147.094C242.482 147.204 242.579 147.295 242.696 147.369C242.813 147.441 242.937 147.501 243.065 147.548C243.194 147.594 243.312 147.631 243.42 147.659L244.011 147.818C244.163 147.858 244.331 147.913 244.517 147.983C244.705 148.053 244.884 148.149 245.054 148.27C245.226 148.389 245.368 148.543 245.48 148.73C245.592 148.918 245.648 149.148 245.648 149.42C245.648 149.735 245.565 150.019 245.401 150.273C245.238 150.527 244.999 150.728 244.685 150.878C244.372 151.027 243.992 151.102 243.545 151.102C243.129 151.102 242.768 151.035 242.463 150.901C242.16 150.766 241.921 150.579 241.747 150.338C241.575 150.098 241.477 149.818 241.455 149.5H242.182C242.201 149.72 242.275 149.902 242.403 150.045C242.534 150.187 242.699 150.294 242.898 150.364C243.098 150.432 243.314 150.466 243.545 150.466C243.814 150.466 244.056 150.422 244.27 150.335C244.484 150.246 244.653 150.123 244.778 149.966C244.903 149.807 244.966 149.621 244.966 149.409C244.966 149.216 244.912 149.059 244.804 148.938C244.696 148.816 244.554 148.718 244.378 148.642C244.202 148.566 244.011 148.5 243.807 148.443L243.091 148.239C242.636 148.108 242.277 147.921 242.011 147.679C241.746 147.437 241.614 147.119 241.614 146.727C241.614 146.402 241.702 146.117 241.878 145.875C242.056 145.631 242.295 145.441 242.594 145.307C242.895 145.17 243.231 145.102 243.602 145.102C243.977 145.102 244.311 145.17 244.602 145.304C244.894 145.437 245.125 145.618 245.295 145.849C245.468 146.08 245.559 146.343 245.568 146.636H244.886ZM246.806 151V145.182H250.317V145.807H247.511V147.773H250.136V148.398H247.511V150.375H250.363V151H246.806ZM251.587 151V145.182H252.292V150.375H254.996V151H251.587ZM256.087 151V145.182H259.599V145.807H256.792V147.773H259.417V148.398H256.792V150.375H259.644V151H256.087ZM265.55 147H264.846C264.804 146.797 264.731 146.619 264.627 146.466C264.525 146.312 264.4 146.184 264.252 146.08C264.106 145.973 263.944 145.894 263.766 145.841C263.588 145.788 263.403 145.761 263.21 145.761C262.857 145.761 262.538 145.85 262.252 146.028C261.968 146.206 261.742 146.469 261.573 146.815C261.406 147.162 261.323 147.587 261.323 148.091C261.323 148.595 261.406 149.02 261.573 149.366C261.742 149.713 261.968 149.975 262.252 150.153C262.538 150.331 262.857 150.42 263.21 150.42C263.403 150.42 263.588 150.394 263.766 150.341C263.944 150.288 264.106 150.209 264.252 150.105C264.4 149.999 264.525 149.869 264.627 149.716C264.731 149.561 264.804 149.383 264.846 149.182H265.55C265.497 149.479 265.401 149.745 265.261 149.98C265.121 150.215 264.946 150.415 264.738 150.58C264.53 150.742 264.296 150.866 264.036 150.952C263.779 151.037 263.503 151.08 263.21 151.08C262.713 151.08 262.272 150.958 261.886 150.716C261.499 150.473 261.195 150.129 260.974 149.682C260.752 149.235 260.641 148.705 260.641 148.091C260.641 147.477 260.752 146.947 260.974 146.5C261.195 146.053 261.499 145.708 261.886 145.466C262.272 145.223 262.713 145.102 263.21 145.102C263.503 145.102 263.779 145.145 264.036 145.23C264.296 145.315 264.53 145.44 264.738 145.605C264.946 145.768 265.121 145.967 265.261 146.202C265.401 146.435 265.497 146.701 265.55 147ZM266.371 145.807V145.182H270.734V145.807H268.905V151H268.2V145.807H266.371Z" fill="#595279"/>
<path d="M297.886 146.636C297.852 146.348 297.714 146.125 297.472 145.966C297.229 145.807 296.932 145.727 296.58 145.727C296.322 145.727 296.097 145.769 295.903 145.852C295.712 145.936 295.563 146.05 295.455 146.196C295.348 146.342 295.295 146.508 295.295 146.693C295.295 146.848 295.332 146.982 295.406 147.094C295.482 147.204 295.579 147.295 295.696 147.369C295.813 147.441 295.937 147.501 296.065 147.548C296.194 147.594 296.312 147.631 296.42 147.659L297.011 147.818C297.163 147.858 297.331 147.913 297.517 147.983C297.705 148.053 297.884 148.149 298.054 148.27C298.226 148.389 298.368 148.543 298.48 148.73C298.592 148.918 298.648 149.148 298.648 149.42C298.648 149.735 298.565 150.019 298.401 150.273C298.238 150.527 297.999 150.728 297.685 150.878C297.372 151.027 296.992 151.102 296.545 151.102C296.129 151.102 295.768 151.035 295.463 150.901C295.16 150.766 294.921 150.579 294.747 150.338C294.575 150.098 294.477 149.818 294.455 149.5H295.182C295.201 149.72 295.275 149.902 295.403 150.045C295.534 150.187 295.699 150.294 295.898 150.364C296.098 150.432 296.314 150.466 296.545 150.466C296.814 150.466 297.056 150.422 297.27 150.335C297.484 150.246 297.653 150.123 297.778 149.966C297.903 149.807 297.966 149.621 297.966 149.409C297.966 149.216 297.912 149.059 297.804 148.938C297.696 148.816 297.554 148.718 297.378 148.642C297.202 148.566 297.011 148.5 296.807 148.443L296.091 148.239C295.636 148.108 295.277 147.921 295.011 147.679C294.746 147.437 294.614 147.119 294.614 146.727C294.614 146.402 294.702 146.117 294.878 145.875C295.056 145.631 295.295 145.441 295.594 145.307C295.895 145.17 296.231 145.102 296.602 145.102C296.977 145.102 297.311 145.17 297.602 145.304C297.894 145.437 298.125 145.618 298.295 145.849C298.468 146.08 298.559 146.343 298.568 146.636H297.886ZM299.488 145.807V145.182H303.852V145.807H302.022V151H301.317V145.807H299.488ZM304.498 151H303.759L305.896 145.182H306.623L308.759 151H308.021L306.282 146.102H306.237L304.498 151ZM304.771 148.727H307.748V149.352H304.771V148.727ZM309.665 151V145.182H311.631C312.086 145.182 312.459 145.259 312.751 145.415C313.042 145.568 313.258 145.779 313.398 146.048C313.539 146.317 313.609 146.623 313.609 146.966C313.609 147.309 313.539 147.613 313.398 147.878C313.258 148.143 313.043 148.351 312.754 148.503C312.464 148.652 312.094 148.727 311.643 148.727H310.052V148.091H311.62C311.931 148.091 312.181 148.045 312.37 147.955C312.561 147.864 312.7 147.735 312.785 147.568C312.872 147.4 312.915 147.199 312.915 146.966C312.915 146.733 312.872 146.529 312.785 146.355C312.698 146.181 312.558 146.046 312.367 145.952C312.176 145.855 311.923 145.807 311.609 145.807H310.37V151H309.665ZM312.404 148.386L313.836 151H313.018L311.609 148.386H312.404ZM314.464 145.807V145.182H318.828V145.807H316.999V151H316.294V145.807H314.464Z" fill="#595279"/>
<path d="M386.386 78.8068V78.1818H390.75V78.8068H388.92V84H388.216V78.8068H386.386ZM395.656 78.1818H396.36V82.0341C396.36 82.4318 396.266 82.7869 396.079 83.0994C395.893 83.41 395.631 83.6553 395.292 83.8352C394.953 84.0133 394.555 84.1023 394.099 84.1023C393.642 84.1023 393.245 84.0133 392.906 83.8352C392.567 83.6553 392.303 83.41 392.116 83.0994C391.93 82.7869 391.837 82.4318 391.837 82.0341V78.1818H392.542V81.9773C392.542 82.2614 392.604 82.5142 392.729 82.7358C392.854 82.9555 393.032 83.1288 393.263 83.2557C393.496 83.3807 393.775 83.4432 394.099 83.4432C394.423 83.4432 394.701 83.3807 394.934 83.2557C395.167 83.1288 395.345 82.9555 395.468 82.7358C395.593 82.5142 395.656 82.2614 395.656 81.9773V78.1818ZM397.767 84V78.1818H399.733C400.188 78.1818 400.561 78.2595 400.852 78.4148C401.144 78.5682 401.36 78.7794 401.5 79.0483C401.64 79.3172 401.71 79.6231 401.71 79.9659C401.71 80.3087 401.64 80.6127 401.5 80.8778C401.36 81.143 401.145 81.3513 400.855 81.5028C400.565 81.6525 400.195 81.7273 399.744 81.7273H398.153V81.0909H399.722C400.032 81.0909 400.282 81.0455 400.472 80.9545C400.663 80.8636 400.801 80.7348 400.886 80.5682C400.973 80.3996 401.017 80.1989 401.017 79.9659C401.017 79.733 400.973 79.5294 400.886 79.3551C400.799 79.1809 400.66 79.0464 400.469 78.9517C400.277 78.8551 400.025 78.8068 399.71 78.8068H398.472V84H397.767ZM400.506 81.3864L401.938 84H401.119L399.71 81.3864H400.506ZM402.884 84V78.1818H404.918C405.324 78.1818 405.658 78.2519 405.921 78.392C406.184 78.5303 406.38 78.7169 406.509 78.9517C406.638 79.1847 406.702 79.4432 406.702 79.7273C406.702 79.9773 406.658 80.1837 406.569 80.3466C406.482 80.5095 406.366 80.6383 406.222 80.733C406.08 80.8277 405.926 80.8977 405.759 80.9432V81C405.937 81.0114 406.116 81.0739 406.296 81.1875C406.476 81.3011 406.627 81.464 406.748 81.6761C406.869 81.8883 406.93 82.1477 406.93 82.4545C406.93 82.7462 406.863 83.0085 406.731 83.2415C406.598 83.4744 406.389 83.6591 406.103 83.7955C405.817 83.9318 405.445 84 404.987 84H402.884ZM403.589 83.375H404.987C405.447 83.375 405.773 83.286 405.967 83.108C406.162 82.928 406.259 82.7102 406.259 82.4545C406.259 82.2576 406.209 82.0758 406.109 81.9091C406.008 81.7405 405.865 81.6061 405.68 81.5057C405.494 81.4034 405.274 81.3523 405.021 81.3523H403.589V83.375ZM403.589 80.7386H404.896C405.108 80.7386 405.299 80.697 405.469 80.6136C405.642 80.5303 405.778 80.4129 405.879 80.2614C405.981 80.1098 406.032 79.9318 406.032 79.7273C406.032 79.4716 405.943 79.2547 405.765 79.0767C405.587 78.8968 405.305 78.8068 404.918 78.8068H403.589V80.7386ZM412.996 81.0909C412.996 81.7045 412.886 82.2348 412.664 82.6818C412.442 83.1288 412.138 83.4735 411.752 83.7159C411.366 83.9583 410.924 84.0795 410.428 84.0795C409.932 84.0795 409.491 83.9583 409.104 83.7159C408.718 83.4735 408.414 83.1288 408.192 82.6818C407.971 82.2348 407.86 81.7045 407.86 81.0909C407.86 80.4773 407.971 79.947 408.192 79.5C408.414 79.053 408.718 78.7083 409.104 78.4659C409.491 78.2235 409.932 78.1023 410.428 78.1023C410.924 78.1023 411.366 78.2235 411.752 78.4659C412.138 78.7083 412.442 79.053 412.664 79.5C412.886 79.947 412.996 80.4773 412.996 81.0909ZM412.315 81.0909C412.315 80.5871 412.23 80.1619 412.062 79.8153C411.895 79.4688 411.669 79.2064 411.383 79.0284C411.099 78.8504 410.781 78.7614 410.428 78.7614C410.076 78.7614 409.757 78.8504 409.471 79.0284C409.187 79.2064 408.96 79.4688 408.792 79.8153C408.625 80.1619 408.542 80.5871 408.542 81.0909C408.542 81.5947 408.625 82.0199 408.792 82.3665C408.96 82.7131 409.187 82.9754 409.471 83.1534C409.757 83.3314 410.076 83.4205 410.428 83.4205C410.781 83.4205 411.099 83.3314 411.383 83.1534C411.669 82.9754 411.895 82.7131 412.062 82.3665C412.23 82.0199 412.315 81.5947 412.315 81.0909Z" fill="#595279"/>
<path d="M424 93V81H416" stroke="#595279"/>
<path d="M375 93V81H383" stroke="#595279"/>
<path d="M420.391 185H418L422.353 172.636H425.118L429.476 185H427.086L423.783 175.172H423.687L420.391 185ZM420.469 180.152H426.989V181.951H420.469V180.152Z" fill="#595279"/>
<path d="M371 185.364V173H375.733C376.626 173 377.369 173.141 377.961 173.423C378.556 173.7 379.001 174.081 379.295 174.564C379.593 175.047 379.741 175.594 379.741 176.206C379.741 176.709 379.645 177.139 379.452 177.498C379.259 177.852 378.999 178.139 378.673 178.361C378.347 178.582 377.983 178.741 377.58 178.838V178.958C378.019 178.983 378.44 179.117 378.842 179.363C379.248 179.604 379.58 179.946 379.838 180.389C380.096 180.832 380.224 181.367 380.224 181.995C380.224 182.635 380.069 183.21 379.76 183.722C379.45 184.229 378.983 184.629 378.359 184.923C377.735 185.217 376.95 185.364 376.005 185.364H371ZM373.24 183.492H375.648C376.461 183.492 377.047 183.337 377.405 183.027C377.767 182.713 377.949 182.311 377.949 181.82C377.949 181.454 377.858 181.124 377.677 180.83C377.496 180.532 377.238 180.299 376.904 180.13C376.57 179.957 376.172 179.87 375.709 179.87H373.24V183.492ZM373.24 178.258H375.455C375.842 178.258 376.19 178.188 376.5 178.047C376.81 177.902 377.053 177.699 377.23 177.437C377.411 177.172 377.502 176.858 377.502 176.495C377.502 176.016 377.333 175.622 376.995 175.312C376.661 175.002 376.164 174.847 375.504 174.847H373.24V178.258Z" fill="#595279"/>
<rect x="270" y="48" width="24" height="6" fill="#08051B"/>
<rect x="272" y="41" width="20" height="6" fill="#08051B"/>
<rect x="274" y="34" width="16" height="6" fill="#08051B"/>
<rect x="276" y="27" width="12" height="6" fill="#08051B"/>
<path d="M90.8996 133.131C89.0107 133.566 42.1105 179.917 16.5024 200.5L80.9293 242.136L87.2859 213.077C93.8241 209.154 106.114 198.124 111.441 193.099C126.697 193.099 147.219 192.554 156.482 183.837C165.744 175.119 164.818 162.189 155.737 154.38C145.86 149.542 98.8996 131.284 90.8996 133.131Z" fill="url(#paint16_linear_2253_66617)"/>
<mask id="mask0_2253_66617" style="mask-type:alpha" maskUnits="userSpaceOnUse" x="16" y="133" width="148" height="110">
<path d="M90.5363 133.312C88.6475 133.748 42.1105 179.917 16.5024 200.5L80.9293 242.136L87.2859 213.077C93.8241 209.154 106.114 198.124 111.441 193.099C126.697 193.099 147.219 192.554 156.482 183.837C165.744 175.119 164.818 162.189 155.737 154.38C145.86 149.542 98.5364 131.466 90.5363 133.312Z" fill="url(#paint17_linear_2253_66617)"/>
</mask>
<g mask="url(#mask0_2253_66617)">
<path fill-rule="evenodd" clip-rule="evenodd" d="M119.782 177.81C120.061 180.15 116.667 187.925 110.879 193.582L116.505 198C123.503 191.161 120.109 180.555 119.782 177.81Z" fill="#3E2407"/>
</g>
<path d="M145.766 166.765C143.932 164.732 138.848 151.206 136.003 146C148.003 150 153.525 150.728 159.188 157.286C166.416 165.655 152.515 174.243 145.766 166.765Z" fill="url(#paint18_linear_2253_66617)"/>
<path d="M482.105 133.131C483.994 133.566 530.894 179.917 556.502 200.5L492.076 242.136L485.719 213.077C479.181 209.154 466.891 198.124 461.564 193.099C446.308 193.099 425.785 192.554 416.523 183.837C407.26 175.119 408.187 162.189 417.268 154.38C427.145 149.542 474.105 131.284 482.105 133.131Z" fill="url(#paint19_linear_2253_66617)"/>
<mask id="mask1_2253_66617" style="mask-type:alpha" maskUnits="userSpaceOnUse" x="410" y="133" width="147" height="110">
<path d="M482.469 133.312C484.357 133.748 530.894 179.917 556.502 200.5L492.076 242.136L485.719 213.077C479.181 209.154 466.891 198.124 461.564 193.099C446.308 193.099 425.785 192.554 416.523 183.837C407.26 175.119 408.187 162.189 417.268 154.38C427.145 149.542 474.469 131.466 482.469 133.312Z" fill="url(#paint20_linear_2253_66617)"/>
</mask>
<g mask="url(#mask1_2253_66617)">
<path fill-rule="evenodd" clip-rule="evenodd" d="M453.223 177.81C452.944 180.15 456.338 187.925 462.126 193.582L456.5 198C449.502 191.161 452.896 180.555 453.223 177.81Z" fill="#3E2407"/>
</g>
<path d="M427.238 166.765C429.073 164.732 434.157 151.206 437.002 146C425.002 150 419.48 150.728 413.817 157.286C406.589 165.655 420.49 174.243 427.238 166.765Z" fill="url(#paint21_linear_2253_66617)"/>
<defs>
<linearGradient id="paint0_linear_2253_66617" x1="81.5015" y1="116.5" x2="39.5015" y2="209" gradientUnits="userSpaceOnUse">
<stop stop-color="#E49246"/>
<stop offset="0.125" stop-color="#AF621A"/>
<stop offset="1" stop-color="#6F3E11"/>
</linearGradient>
<linearGradient id="paint1_linear_2253_66617" x1="492.501" y1="116.5" x2="534.501" y2="209" gradientUnits="userSpaceOnUse">
<stop stop-color="#E49246"/>
<stop offset="0.125" stop-color="#AF621A"/>
<stop offset="1" stop-color="#6F3E11"/>
</linearGradient>
<linearGradient id="paint2_linear_2253_66617" x1="287" y1="55" x2="287" y2="229" gradientUnits="userSpaceOnUse">
<stop stop-color="#191629"/>
<stop offset="1" stop-color="#010005"/>
</linearGradient>
<radialGradient id="paint3_radial_2253_66617" cx="0" cy="0" r="1" gradientUnits="userSpaceOnUse" gradientTransform="translate(287 61) rotate(90) scale(104.5 404.416)">
<stop stop-color="#443B63"/>
<stop offset="1" stop-color="#1A1330"/>
</radialGradient>
<linearGradient id="paint4_linear_2253_66617" x1="375" y1="158" x2="375" y2="200" gradientUnits="userSpaceOnUse">
<stop stop-color="#5A547A"/>
<stop offset="1" stop-color="#453F67"/>
</linearGradient>
<linearGradient id="paint5_linear_2253_66617" x1="424" y1="158" x2="424" y2="200" gradientUnits="userSpaceOnUse">
<stop stop-color="#5A547A"/>
<stop offset="1" stop-color="#453F67"/>
</linearGradient>
<linearGradient id="paint6_linear_2253_66617" x1="399.5" y1="96" x2="399.5" y2="138" gradientUnits="userSpaceOnUse">
<stop stop-color="#5A547A"/>
<stop offset="1" stop-color="#453F67"/>
</linearGradient>
<linearGradient id="paint7_linear_2253_66617" x1="375" y1="101" x2="375" y2="133" gradientUnits="userSpaceOnUse">
<stop stop-color="#A63117"/>
<stop offset="1" stop-color="#691F08"/>
</linearGradient>
<linearGradient id="paint8_linear_2253_66617" x1="424" y1="101" x2="424" y2="133" gradientUnits="userSpaceOnUse">
<stop stop-color="#A63117"/>
<stop offset="1" stop-color="#691F08"/>
</linearGradient>
<linearGradient id="paint9_linear_2253_66617" x1="281.5" y1="163" x2="281.5" y2="201" gradientUnits="userSpaceOnUse">
<stop stop-color="#5A547A"/>
<stop offset="1" stop-color="#453F67"/>
</linearGradient>
<linearGradient id="paint10_linear_2253_66617" x1="257" y1="175.5" x2="257" y2="188.5" gradientUnits="userSpaceOnUse">
<stop stop-color="#191629"/>
<stop offset="1" stop-color="#060510"/>
</linearGradient>
<linearGradient id="paint11_linear_2253_66617" x1="307" y1="175.5" x2="307" y2="188.5" gradientUnits="userSpaceOnUse">
<stop stop-color="#191629"/>
<stop offset="1" stop-color="#060510"/>
</linearGradient>
<linearGradient id="paint12_linear_2253_66617" x1="375" y1="163" x2="375" y2="195" gradientUnits="userSpaceOnUse">
<stop stop-color="#191629"/>
<stop offset="1" stop-color="#060510"/>
</linearGradient>
<linearGradient id="paint13_linear_2253_66617" x1="424" y1="163" x2="424" y2="195" gradientUnits="userSpaceOnUse">
<stop stop-color="#191629"/>
<stop offset="1" stop-color="#060510"/>
</linearGradient>
<linearGradient id="paint14_linear_2253_66617" x1="165" y1="119" x2="165" y2="199" gradientUnits="userSpaceOnUse">
<stop stop-color="#5A547A"/>
<stop offset="1" stop-color="#453F67"/>
</linearGradient>
<linearGradient id="paint15_linear_2253_66617" x1="165" y1="124" x2="165" y2="194" gradientUnits="userSpaceOnUse">
<stop stop-color="#191629"/>
<stop offset="1" stop-color="#060510"/>
</linearGradient>
<linearGradient id="paint16_linear_2253_66617" x1="131.002" y1="143.5" x2="65.5024" y2="230" gradientUnits="userSpaceOnUse">
<stop stop-color="#E49246"/>
<stop offset="0.114583" stop-color="#C06829"/>
<stop offset="1" stop-color="#8F5E14"/>
</linearGradient>
<linearGradient id="paint17_linear_2253_66617" x1="113.002" y1="141.5" x2="81.0024" y2="242" gradientUnits="userSpaceOnUse">
<stop stop-color="#C27C2A"/>
<stop offset="1" stop-color="#C2A12A" stop-opacity="0"/>
</linearGradient>
<linearGradient id="paint18_linear_2253_66617" x1="148.609" y1="146" x2="148.609" y2="169.629" gradientUnits="userSpaceOnUse">
<stop stop-color="#FFFBF0"/>
<stop offset="1" stop-color="#B4AD9B"/>
</linearGradient>
<linearGradient id="paint19_linear_2253_66617" x1="442.002" y1="143.5" x2="507.502" y2="230" gradientUnits="userSpaceOnUse">
<stop stop-color="#E49246"/>
<stop offset="0.114583" stop-color="#C06829"/>
<stop offset="1" stop-color="#8F5E14"/>
</linearGradient>
<linearGradient id="paint20_linear_2253_66617" x1="460.002" y1="141.5" x2="492.002" y2="242" gradientUnits="userSpaceOnUse">
<stop stop-color="#C27C2A"/>
<stop offset="1" stop-color="#C2A12A" stop-opacity="0"/>
</linearGradient>
<linearGradient id="paint21_linear_2253_66617" x1="424.396" y1="146" x2="424.396" y2="169.629" gradientUnits="userSpaceOnUse">
<stop stop-color="#FFFBF0"/>
<stop offset="1" stop-color="#B4AD9B"/>
</linearGradient>
</defs>
</svg>
