<svg width="87" height="30" viewBox="0 0 87 30" fill="none" xmlns="http://www.w3.org/2000/svg">
<path d="M86.2858 0L23.3693 26.7C18.1514 28.9 13.7697 30 10.2241 30C6.21031 30 3.3003 28.6 1.49409 25.8C0.356844 24 0.0223605 21.7167 0.490638 18.95C0.958916 16.1833 2.19651 13.2333 4.20341 10.1C5.87583 7.56667 8.6186 4.23333 12.4317 0.0999999C11.0938 2.23333 10.1572 4.43333 9.62205 6.7C8.6186 10.9667 9.5217 14.1 12.3314 16.1C13.6693 17.0333 15.509 17.5 17.8504 17.5C19.7235 17.5 21.8307 17.2 24.1721 16.6L86.2858 0Z" fill="black"/>
</svg>
