<svg width="601" height="62" viewBox="0 0 601 62" fill="none" xmlns="http://www.w3.org/2000/svg">
<g clip-path="url(#clip0_5055_24548)">
<path d="M93.7 29.5999C93.7 39.2999 100.9 46.7 110.8 46.7C120.8 46.7 128 39.1999 128 29.5999C128 19.8999 120.8 12.4999 110.8 12.4999C100.8 12.3999 93.7 19.8999 93.7 29.5999ZM100.2 29.5999C100.2 23.4999 104.6 18.8999 110.8 18.8999C117 18.8999 121.4 23.4999 121.4 29.5999C121.4 35.6999 117 40.2999 110.8 40.2999C104.6 40.2999 100.2 35.5999 100.2 29.5999ZM154.9 46.2H161.5L150.7 12.8999H144L133 46.2H139.5L141 41.4999H153.3L154.9 46.2ZM143.1 35.2L147.2 22.5999L151.3 35.2H143.1ZM185.2 22.5999H191.7C191.7 16.4999 186.6 12.3999 179.8 12.3999C172.8 12.3999 168 16.7999 168 22.8999C168 27.0999 170.4 30.5 174.7 31.7C177.7 32.5 181.2 32.2999 183.3 33.0999C184.6 33.5999 185.7 34.6 185.7 36.2C185.7 38.6 183.6 40.4999 180.1 40.4999C176.7 40.4999 174.1 38.6999 174.1 36.0999H167.6C167.6 42.3999 172.9 46.7 180 46.7C187.3 46.7 192.1 42.0999 192.1 35.8999C192.1 31.3999 189.5 28.1999 185.3 26.8999C182.1 25.8999 178.9 26.3999 176.7 25.5999C175.3 25.0999 174.4 24.0999 174.4 22.5999C174.4 20.3999 176.4 18.5999 179.6 18.5999C183 18.5999 185.2 20.1999 185.2 22.5999ZM201.3 46.2H207.8V12.8999H201.3V46.2ZM234.5 22.5999H241C241 16.4999 235.9 12.3999 229.1 12.3999C222.1 12.3999 217.3 16.7999 217.3 22.8999C217.3 27.0999 219.7 30.5 224 31.7C227 32.5 230.5 32.2999 232.6 33.0999C233.9 33.5999 235 34.6 235 36.2C235 38.6 232.9 40.4999 229.4 40.4999C226 40.4999 223.4 38.6999 223.4 36.0999H216.9C216.9 42.3999 222.2 46.7 229.3 46.7C236.6 46.7 241.4 42.0999 241.4 35.8999C241.4 31.3999 238.8 28.1999 234.6 26.8999C231.4 25.8999 228.2 26.3999 226 25.5999C224.6 25.0999 223.7 24.0999 223.7 22.5999C223.7 20.3999 225.7 18.5999 228.9 18.5999C232.2 18.5999 234.4 20.1999 234.5 22.5999ZM267.4 46.2H273.9V32.7H284.6V26.2999H273.9V19.2999H293.2V12.8999H267.4V46.2ZM299.2 29.5999C299.2 39.2999 306.4 46.7 316.3 46.7C326.2 46.7 333.5 39.1999 333.5 29.5999C333.5 19.8999 326.3 12.4999 316.3 12.4999C306.3 12.4999 299.2 19.8999 299.2 29.5999ZM305.7 29.5999C305.7 23.4999 310.1 18.8999 316.3 18.8999C322.5 18.8999 326.9 23.4999 326.9 29.5999C326.9 35.6999 322.5 40.2999 316.3 40.2999C310.1 40.2999 305.7 35.5999 305.7 29.5999ZM369.1 12.8999H362.6V33.3999C362.6 37.2999 359.8 40.2999 355.8 40.2999C351.8 40.2999 349 37.2999 349 33.3999V12.8999H342.5V33.5999C342.5 40.8999 348.1 46.5999 355.9 46.5999C363.4 46.5999 369.2 40.9999 369.2 33.5999V12.8999H369.1ZM399.9 12.8999V34.5999L386 12.8999H379.5V46.2H386V24.4999L399.9 46.2H406.4V12.8999H399.9ZM428.1 12.8999H417V46.2H428.1C437.8 46.2 444.7 38.9999 444.7 29.5999C444.7 20.1999 437.8 12.8999 428.1 12.8999ZM423.5 19.2999H428.1C434 19.2999 438.3 23.7999 438.3 29.5999C438.3 35.3999 434.1 39.7999 428.1 39.7999H423.5V19.2999ZM471.7 46.2H478.3L467.5 12.8999H460.8L449.9 46.2H456.4L457.9 41.4999H470.2L471.7 46.2ZM459.9 35.2L464 22.5999L468.1 35.2H459.9ZM489.9 46.2H496.4V19.2999H506.1V12.8999H480.3V19.2999H490V46.2H489.9ZM514.4 46.2H520.9V12.8999H514.4V46.2ZM530.1 29.5999C530.1 39.2999 537.3 46.7 547.2 46.7C557.2 46.7 564.4 39.1999 564.4 29.5999C564.4 19.8999 557.2 12.4999 547.2 12.4999C537.3 12.3999 530.1 19.8999 530.1 29.5999ZM536.6 29.5999C536.6 23.4999 541 18.8999 547.2 18.8999C553.4 18.8999 557.8 23.4999 557.8 29.5999C557.8 35.6999 553.4 40.2999 547.2 40.2999C541 40.2999 536.6 35.5999 536.6 29.5999ZM594 12.8999V34.5999L580.1 12.8999H573.6V46.2H580.1V24.4999L594 46.2H600.5V12.8999H594ZM55.1 12.7C50.5 6.79995 43.7 3.09995 36.3 3.09995C21.9 3.09995 11.3 16.4999 11.3 31.0999C11.3 41.1999 18 48.7999 25.5 48.7999C26.2 48.7999 26.9 48.6999 27.6 48.5999C22.6 44.8999 19.4 38.2999 19.4 31.0999C19.4 19.5999 27.2 10.5999 36.3 10.5999C46.3 10.5999 53.2 20.4999 53.2 31.0999C53.2 38.8999 50.4 46.5999 45.5 52.2999C41.2 57.2999 35.7 60.3999 29.7 61.3999C29.7 61.3999 30.2 61.3999 30.9 61.3999C47.7 61.3999 61.3 47.7999 61.3 30.9999C61.2 24.0999 58.9 17.7 55.1 12.7ZM50.5 30.9999C50.5 20.8999 43.8 13.2999 36.3 13.2999C35.6 13.2999 34.9 13.3999 34.2 13.4999C39.2 17.1999 42.4 23.7999 42.4 30.9999C42.4 42.4999 34.6 51.4999 25.5 51.4999C15.5 51.4999 8.6 41.5999 8.6 30.9999C8.6 23.1999 11.4 15.4999 16.3 9.79993C20.6 4.79993 26.1 1.69995 32.1 0.699951C32.1 0.699951 31.6 0.699951 30.9 0.699951C14.1 0.699951 0.5 14.2999 0.5 31.0999C0.5 37.9999 2.8 44.3999 6.7 49.4999C11.3 55.3999 18.1 59.0999 25.5 59.0999C39.9 58.9999 50.5 45.4999 50.5 30.9999Z" fill="#0C84F4"/>
</g>
<defs>
<clipPath id="clip0_5055_24548">
<rect width="601" height="62" fill="white"/>
</clipPath>
</defs>
</svg>
