<svg width="367" height="565" viewBox="0 0 367 565" fill="none" xmlns="http://www.w3.org/2000/svg">
<g clip-path="url(#clip0_2253_66531)">
<rect width="367" height="565" fill="#27203C"/>
<path d="M390 -10H-15V584H390V-10Z" fill="#140F22"/>
<path d="M104 248.998L90.3831 243L81.4828 253.364L58.9725 247.359L50.5918 254.454L35.4094 249.546L-7 261" stroke="#443769" stroke-miterlimit="10"/>
<path d="M-6.38106 -2L17.4953 20.5216L20.7221 39.8258L36.8559 50.7632L51.052 77.7874L65.8968 81.6432L93 126.686L139.464 120.898L138.815 146.637L174.309 154.996L182.692 174.947L185.919 180.735L237.547 223.199L265.94 207.759L282.073 204.542L296.918 200.039L318.857 207.121L327.897 209.691L333.702 219.343L349.835 209.691L355 227.71L316.279 288.832L231.094 312L153.011 219.982L138.815 205.827L120.103 221.2L106.337 208.473L82.671 216.764L67.1859 212.262L61.3726 221.275L40.723 205.827L31.0427 221.914L19.4331 215.479L9.10406 223.199L-38 189.74" stroke="#09637F" stroke-width="2" stroke-miterlimit="10"/>
<path d="M238 325L217.597 428.281L203.769 417.692L177.444 444.834L182.051 456.755L141.889 444.834L101.074 469.998L94.4995 501.782L36.5647 493.83L38.5414 531.57L-9.51846 553.423L-24 566" stroke="#084157" stroke-width="2" stroke-miterlimit="10"/>
<path d="M257.295 333.576L261 351.051L256.594 355.24L220.202 352.68L128.63 372.954L57.691 386L46.3321 385.069L41 369.224L130.713 342.426L226.229 314L257.295 333.576Z" fill="#04051E"/>
<path d="M374 334L341.331 329.808L325 290" stroke="#05495E" stroke-miterlimit="10"/>
<path d="M249.922 222.466L217.009 222L154.559 233.433L140.368 295.27L28.7238 334.003L25 347.533L31.9761 364.798L40.5851 369L122.692 355.237L181.773 342.865L223.404 333.304L228.522 335.634L257.601 333.304L257.827 297.135L280.86 299.465L292.489 297.368L299 282.2L255.504 228.066L249.922 222.466Z" fill="#3A2B65"/>
<path d="M305.421 240H321.433L330.716 244.879L333.266 252.318L338.603 251.854L340 261.838L327.465 283.444V297.851L289.178 332L285 319.689L305.885 267.421L305.421 240Z" fill="#3A2B65"/>
<path d="M334 258.821L330.253 249.461L327.651 249L326 264L334 258.821Z" fill="#090A13"/>
<path d="M282 289.359L277.427 278.216L268.966 273L260.74 282.241L258 305L282 289.359Z" fill="black"/>
<path d="M293.898 165.761L301.574 164.724L305.764 158.497L309.257 159.88L311 157.108L273.653 146.037L244.685 145L243.639 147.419L218.158 155.035L187.796 186.522L185 228.5L193 227.5L223.742 171.297L248.875 163.335L293.898 165.761Z" fill="url(#paint0_linear_2253_66531)"/>
<path d="M217.196 222.435L218.947 193.649L260.333 169.078L266.645 176.799L280.326 179.604L294 165.565L267.696 161L264.894 162.753L224.558 161.351L194.051 191.195L193 227L217.196 222.435Z" fill="black"/>
<path d="M36.9155 312.191L189.697 278L206 295.441L203.667 302.19L136.594 319.398L86.5223 329.399L33.659 338L29 334.284L36.9155 312.191Z" fill="#0E131D"/>
<path d="M165.966 288.199L189.492 282L203 296.309L201.604 299.881L146.861 313L145 293.445L165.966 288.199Z" fill="#084157"/>
<path d="M127.949 298L96 305.869L98.5071 323L130 316.288L127.949 298Z" fill="#084157"/>
<path d="M79.6806 313.734L82 326.634L35.7901 335L33 333.084L39.733 315.166L78.289 308L79.6806 313.734Z" fill="#084157"/>
<path d="M183.5 228.5L171.436 205.435L170.044 198.866L165.193 193.703L127.954 193L87.4748 194.172L81 214.589L84.7028 214.121L86.3198 216.699L95.8044 217.402L102.048 200.975L137.201 211.067L149.926 235L183.5 228.5Z" fill="url(#paint1_linear_2253_66531)"/>
<path d="M160.192 194.449L167 201.87L155.73 203L144.225 198.163L122.505 197.714L111 194L160.192 194.449Z" fill="#04051E"/>
<path d="M95.514 217.406L98.4489 221.076L121.759 223L143 219.679L136.265 206.744L102.249 198L95 204.991L95.514 217.406Z" fill="black"/>
<path d="M301.675 242.614L305.889 241L319 261.766L317.824 289L308.234 287.156L297 256.458L301.675 242.614Z" fill="#533F89"/>
<path d="M94 199.461L103.166 231.509L99.3173 233.582L99.8889 242L125 234.963L120.474 228.394L116.18 227.818L107.014 196L94 199.461Z" fill="#084157"/>
<path d="M151.474 229L186.853 246.739L192 261.9L187.788 266.102L167.873 276.136L170.687 297.604L135.777 306L125 302.737L151.474 229Z" fill="black"/>
<path d="M97 270.425L68.5353 253L70.8467 298.918L77.5567 314.462L44 321.995L54.4151 326L81.2618 319.643L84.0423 301.277L85.4292 295.625L92.6015 293.972L88.2029 273.96L97 270.425Z" fill="black"/>
<path d="M68.9384 253L35 262.658L37.3217 307.403L44.2938 322L78 314.466L71.2601 298.922L68.9384 253Z" fill="url(#paint2_linear_2253_66531)"/>
<path d="M105.979 260.841C105.303 260.841 96.7718 265.219 96.7718 265.219L97.6911 269.368L81.352 273.516L80 306L135 293.325L123.697 259L105.979 260.841Z" fill="url(#paint3_linear_2253_66531)"/>
<path d="M127.433 238.1L125.372 235L100 242.001L105.258 267L132 259.204L127.433 238.1Z" fill="black"/>
<path d="M206 256.879L226.51 231L246.781 243.82L250.279 248.483L261 254.777L219.753 269L206 256.879Z" fill="url(#paint4_linear_2253_66531)"/>
<path d="M238 227.381L250.472 223L288.588 234.524L301.752 242.595L308.226 261.492L315.154 258.96L317 272.096L309.38 274.405L308.226 287.08L302.221 285.698L296.446 291L288.819 273.017L276.577 260.572L275.885 256.191L248.627 232.222L238 227.381Z" fill="black"/>
<path d="M326 263.811L339.114 254.933L344.033 254L352 263.578L348.718 268.017L326 286V263.811Z" fill="#04051E"/>
<path d="M257.432 304.643L282.148 288.27L291.478 285L305 303.241L301.739 309.321L259.528 343L253 317.511L257.432 304.643Z" fill="#04051E"/>
<path d="M228.501 304L215.217 309.865L34.3263 346.468L25 347.405L31.9913 364.766L36.6544 365L113.579 353.036L221.975 330.279L232 327.226L228.501 304Z" fill="url(#paint5_linear_2253_66531)"/>
<path d="M152.008 229L116 239.772L117.392 284.737L125.753 303L162 292.93L154.568 274.199L152.008 229Z" fill="url(#paint6_linear_2253_66531)"/>
<path d="M184.531 364.644C187.987 363.65 189.804 359.422 188.59 355.201C187.376 350.98 183.589 348.364 180.133 349.358C176.677 350.352 174.86 354.58 176.074 358.801C177.289 363.023 181.075 365.639 184.531 364.644Z" fill="#032E3C"/>
<path d="M66.0305 385.985C69.0445 385.106 70.6168 381.407 69.5422 377.722C68.4676 374.038 65.1531 371.764 62.1391 372.643C59.125 373.522 57.5528 377.222 58.6273 380.906C59.7019 384.59 63.0164 386.864 66.0305 385.985Z" fill="#032E3C"/>
<path d="M131 590L135.817 546.672C135.817 546.672 148.409 534.138 149.684 531.376C150.959 528.614 142.451 492.319 142.451 492.319L163.552 460.883L189.469 432.042L216 404" stroke="#05495E" stroke-width="0.75" stroke-miterlimit="10"/>
<path d="M75.6339 -16L64 7.13038L67.4196 9.6967L64 46.3128L77 68.7974L65.375 81" stroke="#05495E" stroke-miterlimit="10"/>
<path d="M88 448.212L91.8146 429.373H100.603C102.223 429.273 103.836 429.647 105.241 430.45C105.763 430.791 106.187 431.261 106.469 431.813C106.752 432.366 106.884 432.981 106.853 433.599C106.892 434.668 106.57 435.72 105.937 436.588C105.336 437.389 104.538 438.023 103.618 438.432C102.655 438.856 101.611 439.071 100.557 439.062L101.241 438.123C102.493 438.065 103.725 438.446 104.719 439.199C105.17 439.576 105.525 440.052 105.757 440.589C105.988 441.126 106.09 441.709 106.053 442.291C106.091 443.475 105.714 444.636 104.986 445.578C104.201 446.494 103.173 447.176 102.018 447.548C100.598 448.016 99.1081 448.241 97.6118 448.212H88ZM92.0813 445.463H97.8089C99.0229 445.539 100.233 445.261 101.287 444.662C101.685 444.408 102.008 444.056 102.224 443.64C102.44 443.223 102.541 442.758 102.516 442.291C102.551 441.941 102.483 441.589 102.321 441.276C102.158 440.964 101.908 440.704 101.6 440.528C100.816 440.16 99.9514 439.99 99.0843 440.035H92.7421L93.2523 437.31H98.8176C99.604 437.329 100.388 437.217 101.137 436.977C101.738 436.789 102.27 436.431 102.667 435.947C103.028 435.434 103.211 434.819 103.189 434.195C103.21 433.88 103.141 433.565 102.989 433.288C102.837 433.01 102.609 432.78 102.331 432.626C101.586 432.251 100.754 432.077 99.9191 432.122H94.8291L92.0813 445.463Z" fill="#09637F"/>
<path d="M106.857 448.214L119.234 429.357H122.702L127.428 448.214H123.961L119.974 431.168H121.384L110.659 448.214H106.857ZM111.653 443.847L113.179 441.107H123.407L123.869 443.847H111.653Z" fill="#09637F"/>
<path d="M138.376 448.21C136.664 448.258 134.963 447.922 133.408 447.229C132.098 446.627 130.998 445.671 130.242 444.475C129.494 443.235 129.114 441.819 129.145 440.384C129.133 438.908 129.415 437.443 129.977 436.07C130.498 434.764 131.284 433.57 132.287 432.559C133.338 431.533 134.596 430.729 135.985 430.195C137.523 429.619 139.163 429.335 140.814 429.359C142.291 429.33 143.758 429.595 145.123 430.14C146.289 430.593 147.29 431.369 148 432.369L145.458 434.432C144.941 433.747 144.254 433.199 143.46 432.837C142.539 432.449 141.541 432.263 140.537 432.291C139.412 432.276 138.296 432.481 137.255 432.893C136.309 433.276 135.458 433.85 134.76 434.576C134.072 435.308 133.535 436.159 133.177 437.085C132.802 438.054 132.614 439.082 132.622 440.117C132.603 441.039 132.834 441.95 133.293 442.759C133.764 443.537 134.469 444.159 135.314 444.542C136.341 444.987 137.459 445.201 138.584 445.167C139.597 445.177 140.602 444.996 141.542 444.631C142.465 444.266 143.299 443.719 143.991 443.026L146.082 445.256C145.162 446.262 143.994 447.029 142.686 447.485C141.305 447.97 139.846 448.215 138.376 448.21Z" fill="#09637F"/>
<path d="M149.714 448.214L153.463 429.357H156.891L153.143 448.214H149.714ZM153.794 443.709L154.251 439.571L165.886 429.357H170.286L160.309 438.127L158.08 439.984L153.794 443.709ZM163.051 448.214L157.337 439.617L159.703 437.221L167.029 448.214H163.051Z" fill="#09637F"/>
<path d="M180.344 448.214L183.604 432.326H177.143L177.783 429.357H194.286L193.681 432.326H187.22L183.936 448.214H180.344Z" fill="#09637F"/>
<path d="M202.327 448.21C200.515 448.256 198.717 447.92 197.077 447.229C195.679 446.633 194.513 445.673 193.73 444.476C192.939 443.231 192.539 441.817 192.573 440.385C192.558 438.91 192.854 437.447 193.444 436.071C193.997 434.76 194.844 433.565 195.932 432.559C197.054 431.534 198.401 430.73 199.889 430.196C201.52 429.622 203.261 429.338 205.014 429.36C206.857 429.321 208.685 429.668 210.351 430.375C211.751 430.974 212.92 431.932 213.711 433.128C214.493 434.376 214.888 435.788 214.855 437.219C214.868 438.695 214.564 440.16 213.959 441.533C213.366 442.844 212.496 444.04 211.397 445.055C210.273 446.076 208.926 446.877 207.44 447.408C205.809 447.965 204.073 448.237 202.327 448.21ZM202.688 445.223C203.88 445.24 205.063 445.031 206.159 444.61C207.165 444.218 208.068 443.64 208.809 442.915C209.538 442.182 210.104 441.331 210.476 440.407C210.854 439.44 211.043 438.422 211.036 437.397C211.048 436.505 210.813 435.624 210.351 434.833C209.864 434.061 209.127 433.439 208.237 433.05C207.152 432.609 205.969 432.395 204.778 432.426C203.59 432.411 202.412 432.62 201.319 433.039C200.307 433.432 199.399 434.013 198.657 434.744C197.928 435.476 197.359 436.322 196.977 437.241C196.585 438.206 196.387 439.225 196.393 440.251C196.375 441.174 196.628 442.085 197.127 442.893C197.621 443.664 198.362 444.285 199.254 444.676C200.333 445.104 201.509 445.303 202.688 445.256V445.223Z" fill="#09637F"/>
<path d="M228.342 448.214L231.6 432.326H225.143L225.783 429.357H242.286L241.67 432.326H235.213L231.896 448.214H228.342Z" fill="#09637F"/>
<path d="M244.088 448.157H240.571L244.307 429.357H247.836L244.088 448.157ZM255.792 440.157H245.46L246.049 437.174H256.427L255.792 440.157ZM257.683 429.414H261.143L257.361 448.214H253.832L257.683 429.414Z" fill="#09637F"/>
<path d="M266.837 445.245H277.264L276.681 448.214H262.857L266.546 429.357H280L279.428 432.326H269.337L266.837 445.245ZM268.183 437.221H277.343L276.793 440.098H267.588L268.183 437.221Z" fill="#09637F"/>
<path d="M93.8218 497.929H88L94.2652 467.071H117.143L116.154 471.92H99.0977L93.8218 497.929ZM96.7213 481.302H112.401L111.412 486.072H95.7434L96.7213 481.302Z" fill="#09637F"/>
<path d="M131.583 499.628C128.905 499.724 126.249 499.109 123.896 497.846C121.903 496.716 120.379 494.93 119.591 492.802C118.753 490.345 118.63 487.707 119.236 485.185L122.914 467.071H128.957L125.291 485.091C125.026 486.442 124.959 487.822 125.09 489.191C125.171 490.243 125.548 491.251 126.178 492.103C126.786 492.886 127.606 493.484 128.543 493.827C129.681 494.227 130.884 494.421 132.092 494.398C133.664 494.443 135.223 494.107 136.633 493.42C137.94 492.708 139.027 491.662 139.779 490.391C140.725 488.728 141.385 486.921 141.73 485.045L145.515 467.071H151.428L147.691 485.441C146.729 490.17 144.9 493.715 142.203 496.076C139.24 498.528 135.45 499.795 131.583 499.628Z" fill="#09637F"/>
<path d="M159.969 497.929L165.184 471.92H154.857L155.875 467.071H182.286L181.301 471.92H170.975L165.715 497.929H159.969Z" fill="#09637F"/>
<path d="M195.058 499.63C192.372 499.725 189.71 499.11 187.35 497.848C185.346 496.717 183.812 494.932 183.015 492.804C182.178 490.345 182.059 487.707 182.671 485.185L186.364 467.071H192.445L188.752 485.092C188.476 486.441 188.404 487.823 188.538 489.192C188.63 490.243 189.012 491.25 189.642 492.105C190.251 492.889 191.075 493.487 192.018 493.829C193.161 494.227 194.368 494.42 195.581 494.399C197.16 494.444 198.726 494.108 200.142 493.421C201.457 492.714 202.55 491.666 203.301 490.392C204.255 488.729 204.922 486.923 205.272 485.046L208.919 467.071H214.857L211.199 485.442C210.225 490.171 208.384 493.716 205.676 496.077C202.713 498.52 198.926 499.787 195.058 499.63Z" fill="#09637F"/>
<path d="M216.571 497.895L222.939 467.071H235.317C239.2 467.071 242.182 467.888 244.285 469.51C245.325 470.333 246.15 471.382 246.694 472.571C247.238 473.76 247.486 475.056 247.417 476.354C247.483 478.716 246.845 481.045 245.58 483.065C244.316 484.989 242.484 486.501 240.321 487.404C237.766 488.458 235.008 488.969 232.231 488.903H221.853L224.939 486.342L222.627 497.929L216.571 497.895ZM224.754 486.968L222.754 484.15H232.405C234.78 484.291 237.134 483.64 239.073 482.304C239.878 481.654 240.513 480.829 240.927 479.896C241.341 478.963 241.521 477.949 241.454 476.936C241.509 476.211 241.376 475.485 241.067 474.823C240.758 474.161 240.283 473.584 239.686 473.144C238.189 472.243 236.441 471.813 234.681 471.914H225.436L228.521 469.051L224.754 486.968ZM237.547 497.895L231.041 486.711H237.27L243.777 497.895H237.547Z" fill="#09637F"/>
<path d="M257.622 493.081H275.349L274.36 497.929H250.857L257.122 467.071H280L279.022 471.92H261.966L257.622 493.081ZM259.897 479.891H275.486L274.496 484.616H258.919L259.897 479.891Z" fill="#09637F"/>
</g>
<rect x="5.5" y="5.5" width="356" height="554" stroke="#201542" stroke-width="11"/>
<defs>
<linearGradient id="paint0_linear_2253_66531" x1="248" y1="145" x2="230.695" y2="233.191" gradientUnits="userSpaceOnUse">
<stop stop-color="#3A2B65"/>
<stop offset="1" stop-color="#2A1B54"/>
</linearGradient>
<linearGradient id="paint1_linear_2253_66531" x1="132" y1="193" x2="159.5" y2="232.5" gradientUnits="userSpaceOnUse">
<stop stop-color="#3A2B65"/>
<stop offset="1" stop-color="#2A1B54"/>
</linearGradient>
<linearGradient id="paint2_linear_2253_66531" x1="56.5" y1="253" x2="56.5" y2="322" gradientUnits="userSpaceOnUse">
<stop stop-color="#2E2057"/>
<stop offset="1" stop-color="#150A35"/>
</linearGradient>
<linearGradient id="paint3_linear_2253_66531" x1="126.5" y1="272" x2="83.5" y2="294.5" gradientUnits="userSpaceOnUse">
<stop stop-color="#1B103A"/>
<stop offset="1" stop-color="#12092C"/>
</linearGradient>
<linearGradient id="paint4_linear_2253_66531" x1="233.5" y1="231" x2="235.5" y2="279" gradientUnits="userSpaceOnUse">
<stop stop-color="#533F89"/>
<stop offset="1" stop-color="#402E73"/>
</linearGradient>
<linearGradient id="paint5_linear_2253_66531" x1="225.5" y1="318" x2="45" y2="354.5" gradientUnits="userSpaceOnUse">
<stop stop-color="#04051E"/>
<stop offset="1" stop-color="#020215"/>
</linearGradient>
<linearGradient id="paint6_linear_2253_66531" x1="139" y1="229" x2="139" y2="303" gradientUnits="userSpaceOnUse">
<stop stop-color="#2E2057"/>
<stop offset="1" stop-color="#150A35"/>
</linearGradient>
<clipPath id="clip0_2253_66531">
<rect width="367" height="565" fill="white"/>
</clipPath>
</defs>
</svg>
