<svg width="367" height="565" viewBox="0 0 367 565" fill="none" xmlns="http://www.w3.org/2000/svg">
<g clip-path="url(#clip0_2253_66530)">
<rect width="367" height="565" fill="#140F22"/>
<g clip-path="url(#clip1_2253_66530)">
<path d="M508.504 169.929L493.51 181.167L495.309 192.256L484.812 198.474L482.264 206.566L477.915 205.966L477.315 212.784L471.093 222L466.819 221.401L458.047 237.584L444.477 238.783L440.728 236.31L430.757 249.272L431.357 254.891L438.254 256.165L439.529 266.055L444.477 266.654L449.425 284.036L442.603 288.382L421.46 287.184L419.061 292.128L409.989 295.799C395.744 263.058 374.151 273.322 351.359 274.671C344.837 275.196 337.039 275.57 328.867 275.72C330.059 270.646 331.536 265.643 333.291 260.735C335.165 256.39 345.137 257.663 348.811 255.79C352.484 253.917 350.085 246.425 350.085 246.425H343.263V229.717H334.041L320.246 209.263C328.123 212.998 336.602 215.306 345.287 216.081C355.34 215.72 365.358 214.695 375.276 213.009L386.972 204.318L388.846 191.881L395.144 188.209L404.441 187.535L405.041 181.991L414.413 178.919L423.034 181.391L428.582 177.571L429.257 160.263L440.428 155.318L436.005 143.556L449.725 147.227L447.851 137.337L456.473 126.773L452.199 113.811L463.37 103.172C463.37 103.172 469.593 102.123 474.841 101.449V104.521L469.293 106.993L467.419 118.082L479.189 124.3L490.361 130.444L481.664 138.61L487.887 150.898H480.389L482.864 157.791L486.687 163.41H494.709L495.909 170.153L508.504 169.929Z" fill="#3A2D5D"/>
<path d="M391.46 83.2185L408.085 87.0463H409C409 87.0463 409 91.123 411.328 91.123C413.655 91.123 421.469 85.1329 424.213 85.1329C426.956 85.1329 430.531 86.0474 431.029 83.385L431.528 80.5565L441.587 77.8946V71.8202L453.973 64L459.543 67.3282L455.802 75.0651L461.289 74.5665V92.9531L475.254 87.4617L487.641 79.8913L498.697 82.6365L511 83.385L506.178 88.8765C506.178 88.8765 493.21 90.8732 489.552 90.8732C487.155 91.0079 484.768 91.2855 482.403 91.7049C476.584 92.4537 469.685 93.6184 469.685 93.6184L457.299 105.433L462.037 119.826L452.477 131.558L454.555 142.539L439.342 138.463L444.247 151.526L431.861 157.017L431.113 176.236L424.961 180.479L415.401 177.734L405.01 181.144L404.345 187.301L394.037 188.05L387.054 192.127L384.976 205.937L372.007 215.589C361.011 217.46 349.903 218.6 338.756 219C329.126 218.14 319.725 215.576 310.99 211.429L310.575 210.763L322.213 196.204L321.548 185.221L309.826 183.224L307 145.286L308.496 127.481L314.648 117.746V112.838L328.448 117.164L330.775 121.241L342.247 119.328L343.078 109.76L363.778 100.191L364.692 86.8798H376.663L377.577 79.8913L391.46 83.2185Z" fill="#3D2A6B"/>
<path d="M468.094 30.1219L473.042 37.0152L468.094 40.0864L458.872 47.5787H451.975L449.5 50.0517L446.352 46.9796H441.778L440.803 42.3344L444.552 38.6633L443.277 33.7181L435.18 37.3892L426.483 38.6633L425.883 46.6796L417.861 47.2796L419.736 54.7719L417.262 57.319H405.416L402.942 59.7912L409.24 66.6094L412.313 74.6258L414.788 82.7181L407.89 96.3537L392.895 92.9075V89.9104C392.895 83.7667 388.322 81.6688 383.748 79.571C379.175 77.4731 356.008 61.4401 345.737 54.7719C335.465 48.1038 336.965 42.7839 333.291 33.7931C329.617 24.8023 317.097 29.5975 313.423 29.2229C303.41 22.9027 293.887 15.8405 284.933 8.09496C284.933 8.09496 278.335 13.939 276.611 15.5873C274.887 17.2356 271.288 16.4863 271.288 16.4863L269.189 28.9229H256.068L256.743 -35.9599L290.706 -46.7493C306.386 -36.9889 320.705 -25.1982 333.291 -11.6848L371.303 -13.7829L380.524 0.152676L384.723 -0.297302L389.296 12.8892L393.345 18.6585L392.52 32.37L408.265 31.845L417.336 40.6113L417.786 33.9431L446.651 12.8892L450.025 15.8114L438.254 24.5027L445.077 29.5229H451.225L463.071 26.3008L468.094 30.1219Z" fill="#291E45"/>
<path d="M254.185 27.8033H267.88L270.071 14.7843C270.071 14.7843 273.984 16.0393 275.627 13.8432C277.27 11.6471 284.313 6 284.313 6C293.659 14.1083 303.599 21.5012 314.05 28.1173C317.885 28.1173 330.953 23.3329 334.787 32.9015C338.622 42.4702 336.979 47.9608 347.778 54.8628C358.577 61.7648 382.68 78.3918 387.453 80.8232C392.227 83.2546 397 85.2154 397 91.6468V94.7842L383.932 91.0197L383.071 97.6077H371.802L370.942 110.157L351.456 119.176L350.673 128.196L339.874 130L328.5 128.196L313.033 105.216L307.242 98.0002H302.077L300.825 90.1571L295.034 88.9019L286.504 85.6084L272.966 83.0195L270.384 77.7652L265.5 80L261.5 85L249.408 83.7251L239 94.0786L233 93.5C233.621 86.6332 231.221 80.0259 229 73.5C225.835 64.3227 220.543 55.8607 215.136 47.8037C212.162 43.8037 207.78 33.8425 221.162 35.6465C234.543 37.4504 240.1 35.6469 236.813 28.2743C233.526 20.9018 228.987 9.21516 218.736 15.2544C215.919 17.0583 214.041 16.902 212.789 15.804C217.875 12.4314 227.735 6.54856 230.865 7.48974C233.996 8.43092 247.221 27.0192 247.221 27.0192L254.185 27.8033Z" fill="#084157"/>
<path d="M114.443 59.1172C119.316 60.9902 125.989 66.6094 132.062 69.3066C133.572 69.7987 135.2 69.7987 136.71 69.3066C144.732 67.7332 153.729 56.645 156.878 56.645C160.027 56.645 158.078 67.7335 158.078 67.7335L163.026 73.3527C165.206 74.4791 167.461 75.4555 169.774 76.2748C169.774 82.1188 171.873 86.0148 179.97 91.2595C194.515 100.325 219.331 107.742 227.128 103.696C228.847 102.565 230.264 101.033 231.257 99.231C232.25 97.4295 232.788 95.4129 232.826 93.3566L239.349 92.6826L249.321 82.7931H260.567L265.59 78.522L271.738 77.7729L274.212 82.7931L287.182 85.2652L295.355 88.4123L300.903 89.6105L302.102 97.1028H307.051L312.599 103.996L323.245 105.12L323.77 120.105V124.75L318.222 133.516L316.872 149.549L319.421 183.714L329.993 185.512L330.592 195.403L320.096 208.514L320.471 209.113L334.266 229.567H343.638V246.275H350.535C350.535 246.275 353.01 253.767 349.261 255.64C345.512 257.513 335.616 256.24 333.741 260.586C331.986 265.493 330.509 270.496 329.318 275.57C303.677 276.02 274.812 274.147 270.538 264.632C269.783 263.034 268.619 261.664 267.165 260.661C256.443 252.719 228.628 253.842 226.454 251.669C224.28 249.496 195.34 234.887 194.74 228.743C194.14 222.6 190.317 198.774 171.273 205.142C168.649 205.898 166.13 206.981 163.776 208.364L154.179 192.106C153.075 185.664 151.623 179.286 149.831 173C147.356 164.833 132.437 161.761 132.437 161.761L128.688 149.924L120.591 144.38L125.614 142.507L126.289 130.069L131.237 123.926L133.636 117.108L121.941 114.635L119.391 110.289L115.643 97.2528L112.569 86.7643L109.495 78.747C109.495 78.747 105.146 61.964 109.495 58.8922C110.274 58.5196 111.134 58.3454 111.997 58.3846C112.861 58.4238 113.701 58.6755 114.443 59.1172Z" fill="#291E45"/>
<path d="M290.556 298.871C304.126 300.819 317.846 306.363 294.904 334.235C274.667 358.608 250.805 379.835 224.5 397.5L205.461 359.559L207.935 359.035L238.974 349.819C238.974 349.819 256.368 326.218 254.494 321.198C252.8 318.157 250.379 315.583 247.446 313.706V304.865L251.195 291.829H258.692L253.744 286.884L254.343 279.391L262.366 280.664L263.19 270.85C264.331 273.032 265.333 275.285 266.189 277.593C267.885 283.045 271.06 287.92 275.361 291.676C279.663 295.432 284.923 297.923 290.556 298.871Z" fill="#032E3C"/>
<path d="M262.891 271.15L262.066 280.964L254.044 279.691L253.444 287.183L258.392 292.127H250.895L247.146 305.164V314.005C244.858 312.352 242.48 310.826 240.024 309.435L213.258 306.363L202.687 289.58L203.587 288.007C207.681 290.184 212.304 291.17 216.932 290.854C237.4 289.581 252.994 270.4 256.668 268.377C260.341 266.354 261.091 267.778 262.891 271.15Z" fill="#084157"/>
<path d="M136.71 219.453L145.632 220.127L152.679 227.62H161.152C164.525 233.988 169.923 241.256 174.647 249.272C183.569 264.781 191.666 281.19 204.037 287.783L203.137 289.356L213.708 306.139L240.474 309.211C242.93 310.602 245.308 312.128 247.596 313.781C250.529 315.658 252.951 318.232 254.644 321.273C256.518 326.293 239.124 349.895 239.124 349.895L208.085 359.035L205.611 359.559L166.55 367.051L146.157 386.307L142.333 382.561L97.3489 378.815L95.3995 391.851L86.6277 394.848C77.3309 375.443 63.2358 356.488 47.6413 329.216C23.4248 287.109 5.50616 233.763 -7.53926 234.962C-9.63853 234.962 -11.513 234.962 -13.3124 234.962L-13.7622 216.081L-12.1125 212.785C-9.1136 216.606 0.78311 216.906 4.00698 216.906C7.23085 216.906 9.77988 210.762 22.6754 205.368C35.5708 199.973 20.9507 189.184 17.277 185.963C13.6033 182.741 18.8514 180.044 31.2971 178.47C35.8234 177.619 40.4126 177.143 45.0174 177.046C51.6629 177.02 58.2444 178.345 64.3607 180.943C75.6068 185.438 116.842 217.73 116.842 217.73L136.71 219.453Z" fill="#302550"/>
<path d="M205.5 359L224.5 397.5C217.337 402.179 210.195 406.632 202.387 410.132C175.996 421.82 124.639 450.891 104.471 441.675C102.12 440.572 100.119 438.84 98.6901 436.671C97.2612 434.503 96.4596 431.982 96.3742 429.387C94.8277 417.512 91.6589 405.309 86.5 394.5L95.0247 392.15L97 378L141.984 381.746L145.808 385.492L166.064 366.567L205.5 359Z" fill="#084157"/>
<path d="M92.1011 465.051L97.499 455.985C110.17 473.517 129.138 474.791 152.905 466.999C179.595 458.233 200.738 442.124 197.889 462.578C195.04 483.032 167.899 541.173 149.306 556.682C122.905 578.186 97.8661 601.307 74.3319 625.911L66.085 617.669L66.6849 568.669C66.6849 568.669 71.0523 562.301 77.5 556.682C82.9501 551.312 89.1966 546.813 96.0187 543.345C102.167 542.147 118.511 540.872 118.511 540.872L156 503.5C156 503.5 139.206 501.702 133.508 501.702C127.81 501.702 105.773 488.699 101.5 487.5C97.2265 486.301 88.9791 471.467 88.9791 471.467L92.1011 465.051Z" fill="#084157"/>
<path d="M164 21.0564C168.142 26.2723 171.115 32.3157 172.719 38.7784C174.323 45.2412 174.52 51.9726 173.297 58.518C171.948 66.7595 170.373 72.4533 170.148 76.7988C167.835 75.9794 165.58 75.0031 163.4 73.8767L157.7 68.0885C157.7 68.0885 160.249 57 156.5 57C152.751 57 145.107 68.2581 137.085 69.8315L136.185 55.8209L128.688 51.4748L127.488 43.9824L122.54 38.3632L125.614 34.6921L117.517 30.8709L119.991 26.5257L128.688 28.3988L136.185 32.819L137.985 29.1478L134.311 25.3267V17.8344L141.808 20.2324L147.431 27.0497L155.453 29.5228L164 21.0564Z" fill="#3A2D5D"/>
<path d="M154.367 192.278L164 208.626L163.097 209.228C156.625 206.516 147.293 202.448 145.788 204.934C144.283 207.42 139.542 215.254 136.832 220L116.815 218.268C116.815 218.268 75.2734 185.8 64.1356 181.28C57.9963 178.669 51.39 177.336 44.7195 177.363L39 155.365C61.5767 141.655 70.7581 137.889 70.7581 123.576C70.7581 109.262 71.5108 108.509 76.4776 104.893L92.4318 92.0109C94.1905 91.9335 95.943 92.2689 97.5491 92.9903C103.315 95.3509 109.404 96.8246 115.61 97.3601L119.941 109.631L122.5 114L134.24 116.486L131.264 124.178L126.297 130.356L125.695 142.258L120.653 144.141L128.78 149.716L132.543 161.618C132.543 161.618 147.594 164.706 150.002 172.917C151.807 179.287 153.264 185.75 154.367 192.278Z" fill="#084157"/>
<path d="M161.151 227.844H152.679L145.632 220.352L136.71 219.678C139.409 215.332 144.207 207.24 145.632 204.693C147.056 202.146 156.428 206.266 162.876 208.963C155.978 213.983 157.028 220.352 161.151 227.844Z" fill="#032E3C"/>
<path d="M-19.835 475.989L-18.9354 468.497L-10.3132 467.598L-9.41357 453.138L-1.9162 442.798H6.33118L8.80498 430.886V421.445L21.4005 422.569L26.8739 413.953L33.7713 419.272H58.1378C58.1378 419.272 74.7069 433.283 76.2813 434.932C77.8558 436.58 82.8792 443.473 85.4283 447.294H84.1535L78.006 453.513V464.676L92.2507 465.275L89.102 470.969C89.102 470.969 97.274 485.954 101.622 487.003C105.971 488.052 128.838 501.313 134.461 501.313C140.084 501.313 156.953 503.112 156.953 503.112L119.466 542.221C119.466 542.221 102.747 543.495 96.9741 544.694C90.152 548.162 83.906 552.66 78.4558 558.03L72.1578 557.281L65.1103 551.512L48.0911 561.027H29.048L18.7016 549.039L3.257 547.615L2.65709 537.801L-8.96375 536.602V521.617L-16.0113 519.594L-20.2098 511.353L-36.7041 507.158L-35.0544 496.818L-20.0597 495.544V483.182L-19.835 475.989Z" fill="#032E3C"/>
<path d="M137.085 69.8314C135.575 70.3236 133.511 69.7614 132 69.2692V63.5L129.4 62.7882L128.5 59.117H124.564L121.64 56.1949L116.692 53.8728L108.595 50.8007L99.4004 47.8106L100 33.5L106.079 30.5H118L126.5 34.5L123.426 38.1712L128.013 45.2564L129.5 51.5L136.998 55.8452L137.085 69.8314Z" fill="#032E3C"/>
<path d="M137.985 29.2978L136.185 32.969L128.688 28.5487L120.066 26.6757L117.592 31.0209H105.671L100.424 34.168L90.6027 26.6757H72.984C74.4863 24.662 75.6822 21.0725 76.2033 18.6154C76.7244 16.1583 76.7064 13.6183 76.1507 11.1688C75.5949 8.71931 74.5147 6.41869 72.984 4.42647C71.4534 2.43425 69.5086 0.797737 67.2841 -0.371464C63.2188 -2.96463 59.2904 -5.76544 55.5137 -8.76282L60.0119 -10.4868L76.8059 -4.94258L87.3024 -5.54163L102.297 3.82375L106.046 7.49492L113.543 4.94778L122.24 3.82375L125.389 6.14681L130.337 16.0363L134.311 17.4603V24.9526L137.985 29.2978Z" fill="#3A2D5D"/>
<path d="M132.062 63.4623V69.3066C125.989 66.5344 119.316 60.9902 114.443 59.1171L116.317 53.3479L121.34 55.671L124.189 58.5181H128.688L129.588 62.2642L132.062 63.4623Z" fill="#3D2A6B"/>
<path d="M92.5507 92.0835C82.939 93.6279 73.4447 95.8308 64.1354 98.6767C56.1132 99.8755 48.616 106.168 43.6677 103.696C40.1676 102.462 36.4576 101.933 32.7516 102.138C29.0456 102.344 25.417 103.281 22.0753 104.895L12.1036 100.475L14.5029 112.312L8.95486 112.912L6.78079 113.361C6.64705 112.239 6.11491 111.203 5.28123 110.439C1.36308 107.508 -3.37444 105.874 -8.26794 105.767C-13.1614 105.659 -17.966 107.083 -22.0093 109.84C-29.5067 115.385 -31.3812 117.857 -41.8775 111.713C-52.3738 105.57 -56.8719 104.896 -67.2932 109.241C-77.7146 113.587 -102.981 104.595 -108.304 89.6104C-112.877 76.7986 -120.3 74.1017 -120.3 68.4825C-120.3 62.8633 -115.426 46.0054 -124.573 39.2623L-118.201 32.969L-115.427 27.9488L-118.425 20.4565L-109.878 16.3363L-104.93 18.2094H-95.4834C-95.2755 18.681 -95.0247 19.1319 -94.7339 19.5575C-91.4586 23.5184 -87.5281 26.8894 -83.113 29.5228C-74.8659 31.0962 -58.6716 36.041 -51.2492 30.2719C-43.8268 24.5028 -40.0777 17.9094 -29.2815 17.9094C-13.5349 19.4852 1.91123 23.2685 16.6023 29.1479C33.1715 34.842 66.6847 33.1935 69.9836 29.8969C71.0935 28.6602 72.0965 27.3316 72.9822 25.9258H90.826L100.798 33.4181L100.198 47.7286L108.22 50.2017L116.317 53.2729L114.443 59.0421C113.682 58.6355 112.832 58.4229 111.969 58.4229C111.106 58.4229 110.256 58.6355 109.494 59.0421C105.146 62.114 109.494 78.8969 109.494 78.8969L112.569 86.9133L115.642 97.4027C109.459 96.8701 103.393 95.4053 97.6489 93.0575C96.0487 92.34 94.3029 92.0064 92.5507 92.0835Z" fill="#05495E"/>
<path d="M85.2783 447.443L92.0261 446.694C92.5234 447.426 92.95 448.205 93.3005 449.017C94.5158 451.446 95.9196 453.775 97.499 455.985L92.1011 465.051L77.856 464.451V453.737L84.0039 447.518L85.2783 447.443Z" fill="#2C204D"/>
<path d="M92.0259 446.694L85.278 447.443C82.7289 443.622 77.7809 436.43 76.1315 435.082C74.4821 433.733 58.1376 419.722 58.1376 419.722H34.0709L27.1734 414.403L21.7005 423.018L9.10498 421.895V411.031L14.5029 399.043L15.3275 384.059H23.5748C27.461 381.579 31.1459 378.799 34.5958 375.742C38.8172 384.234 43.6276 392.421 48.991 400.242C58.8126 414.403 76.2064 422.719 88.727 440.776C89.6267 442.574 90.9013 444.521 92.0259 446.694Z" fill="#302550"/>
<path d="M39.0945 155.168C17.0522 168.729 15.7777 170.153 5.8812 167.456C1.08289 165.957 0.78292 162.211 2.05747 158.54C3.34998 155.032 5.51748 151.912 8.35501 149.475C9.96235 147.594 10.8945 145.231 11.0032 142.76C11.1118 140.289 10.3909 137.853 8.95492 135.838C6.98819 134.908 4.75059 134.722 2.65693 135.314C5.56401 128.369 6.96961 120.888 6.78085 113.361L8.95492 112.912L14.5029 112.312L12.1037 100.475L22.0753 104.895C25.4171 103.281 29.0457 102.344 32.7517 102.138C36.4576 101.933 40.1677 102.462 43.6678 103.696C48.616 106.019 56.1133 99.8755 64.1354 98.6768C73.4447 95.8309 82.9391 93.6279 92.5508 92.0835L76.6559 104.895C71.7077 108.641 70.9583 109.24 70.9583 123.476C70.9583 137.711 61.7363 141.458 39.3192 155.094L39.0945 155.168Z" fill="#291E45"/>
<path d="M2.80689 547.091L18.2514 548.514L28.5979 560.503H47.641L64.6602 550.988L71.7077 556.757L78.0057 557.506C71.558 563.125 66.0096 568.369 66.0096 568.369L65.4097 617.369L73.6571 625.611C58.6624 641.344 47.8662 655.58 47.4163 664.496C47.3788 665.22 47.3788 665.945 47.4163 666.668L24.9242 650.785V644.641L-22.834 618.568V604.932L-7.83925 581.931L-19.6102 551.212L-10.3886 541.847L-3.34101 542.221L-1.24153 546.791L2.80689 547.091Z" fill="#2C204D"/>
<path d="M39.0944 155.168L44.792 177.046C40.1872 177.142 35.5986 177.619 31.0722 178.47C18.6265 180.418 13.3034 183.04 17.0521 185.962C20.8008 188.884 35.2705 199.898 22.45 205.367C9.62951 210.837 7.45535 216.906 3.78164 216.906C0.107924 216.906 -9.33894 216.905 -12.3379 212.784L-3.49059 194.953L-2.21617 172.476L-9.71354 169.629C-9.15662 168.081 -8.68112 166.506 -8.28902 164.908C-7.54173 162.359 -6.6405 159.857 -5.59008 157.416L1.90729 157.941C0.63274 161.612 0.932709 165.433 5.73102 166.857C15.7775 170.528 17.0521 168.729 39.0944 155.168Z" fill="#241B3D"/>
<path d="M8.95493 421.595V431.036L6.48067 442.948H-1.84129L-9.33867 453.288L-10.2383 467.748L-18.8605 468.647L-19.7601 476.139L-24.6331 472.842L-31.6807 465.35L-29.5816 448.417L-32.9556 447.219L-34.6048 450.066L-46.9756 452.163L-42.0271 457.109V467.073L-56.1222 481.534L-73.5161 475.764L-83.7875 481.909L-92.0349 488.052L-99.9821 484.006L-120.225 481.909L-126.372 472.018L-134.769 473.666L-140.093 481.159L-154.188 481.909L-162.435 467.523L-163.26 466.249L-161.535 460.031L-167.833 457.484L-167.383 444.297H-177.354L-170.682 434.782L-174.431 430.586L-168.208 425.266L-169.482 420.696L-163.26 413.204L-160.336 403.613L-148.715 404.962L-149.914 352.965V346.222H-136.794V319.325L14.2032 320.524C16.3343 325.71 18.0883 331.044 19.4514 336.483C22.9049 350.155 27.9369 363.381 34.4462 375.892C30.9963 378.949 27.311 381.729 23.4248 384.209H15.1779L14.3528 399.193L8.95493 411.181V421.595Z" fill="#05495E"/>
<path d="M14.5 321.5L-136.794 318.951V212.784L-138.894 210.686L-141.742 203.644L-138.069 197.425L-138.518 188.809L-130.571 177.795C-103.956 188.284 -84.9122 193.829 -78.0896 191.057C-68.7179 187.31 -50.1994 179.893 -33.1054 185.437C-30.6906 186.492 -28.047 186.915 -25.4236 186.666C-22.8002 186.417 -20.2835 185.504 -18.1106 184.014C-15.8614 193.829 -12.8627 207.465 -12.7128 211.136C-12.5697 211.87 -12.2621 212.562 -11.8131 213.159L-13.4623 216.456L-13.0125 235.336C-22.0093 235.336 -26.3578 233.912 -28.9819 228.293C-32.0558 221.4 -47.6506 204.094 -39.5535 223.349C-31.4563 242.604 -25.9081 247.549 -15.9366 264.182C-4.51678 282.066 5.85458 302.124 14.5 321.5Z" fill="#604C92"/>
<path d="M8.95488 135.838C10.3909 137.853 11.1118 140.289 11.0031 142.76C10.8944 145.231 9.9623 147.594 8.35496 149.475C5.51744 151.912 3.34993 155.032 2.05743 158.54L-5.43994 158.015C-3.04078 151.872 0.332996 143.48 2.95708 135.538C4.93171 134.949 7.04894 135.055 8.95488 135.838Z" fill="#ACDFE3"/>
<path d="M25.0743 124.975C23.2 124.226 22.3749 123.551 22.3749 122.203C22.3826 121.887 22.4568 121.576 22.5927 121.291C22.7287 121.006 22.9233 120.752 23.1638 120.547C23.4043 120.342 23.6856 120.19 23.9889 120.101C24.2922 120.012 24.6109 119.987 24.9242 120.03C25.8408 120.037 26.7415 120.269 27.5481 120.704L28.073 119.206C27.1353 118.682 26.0729 118.423 24.9993 118.457C24.4432 118.405 23.8825 118.469 23.3523 118.644C22.8222 118.819 22.3337 119.102 21.9182 119.475C21.5028 119.847 21.1691 120.303 20.938 120.811C20.707 121.319 20.5835 121.869 20.5756 122.427C20.5756 124.45 21.925 125.649 24.1742 126.473C26.4234 127.297 26.7986 128.046 26.7986 129.395C26.7986 130.744 25.7488 131.867 23.8745 131.867C22.7544 131.843 21.6637 131.505 20.7257 130.893L20.2759 132.467C21.346 133.084 22.5646 133.394 23.7994 133.366C24.3926 133.452 24.9976 133.409 25.5731 133.242C26.1486 133.074 26.6812 132.786 27.1358 132.396C27.5904 132.005 27.9563 131.522 28.2084 130.978C28.4606 130.435 28.5933 129.844 28.5978 129.245C28.5978 127.072 27.3985 125.949 25.0743 124.975Z" fill="#6F58AA"/>
<path d="M34.9705 128.871C34.9705 129.62 34.5209 130.444 34.296 131.043C34.296 130.444 33.8459 129.619 33.621 128.945L31.4469 122.802H29.4976L33.1712 132.392V132.841C33.2037 132.989 33.2037 133.143 33.1712 133.291C32.8216 134.086 32.311 134.801 31.6716 135.389C31.2159 135.796 30.6797 136.103 30.0975 136.288L30.5473 137.936C31.3571 137.677 32.0993 137.242 32.7214 136.662C34.3184 134.797 35.4719 132.594 36.0953 130.219L38.7942 122.727H36.9199L34.9705 128.871Z" fill="#6F58AA"/>
<path d="M42.0932 124.825V122.802H40.519C40.519 123.776 40.519 124.825 40.519 126.024V133.516H42.3183V127.522C42.2742 127.224 42.2742 126.921 42.3183 126.623C42.3541 125.999 42.6182 125.41 43.0606 124.967C43.503 124.525 44.0929 124.261 44.7176 124.226H45.317V122.502H44.7921C44.1491 122.538 43.5363 122.785 43.0482 123.205C42.5602 123.625 42.2243 124.195 42.0932 124.825Z" fill="#6F58AA"/>
<path d="M48.9908 122.802H47.1914V133.216H48.9908V122.802Z" fill="#6F58AA"/>
<path d="M48.0911 118.681C47.7862 118.7 47.5002 118.835 47.2912 119.057C47.0822 119.28 46.9662 119.574 46.9668 119.88C46.9668 120.178 47.0854 120.464 47.2963 120.674C47.5072 120.885 47.7929 121.004 48.0911 121.004C48.3894 121.004 48.6755 120.885 48.8864 120.674C49.0973 120.464 49.2159 120.178 49.2159 119.88C49.2262 119.726 49.2047 119.572 49.1528 119.427C49.1009 119.282 49.0198 119.149 48.9144 119.036C48.8089 118.924 48.6812 118.834 48.5396 118.773C48.398 118.712 48.2453 118.68 48.0911 118.681Z" fill="#6F58AA"/>
<path d="M58.9621 130.669V126.773C58.9621 124.75 58.2123 122.577 55.2134 122.577C54.0518 122.567 52.9101 122.878 51.9145 123.476L52.3644 124.75C53.1061 124.214 53.9983 123.926 54.9137 123.926C55.2288 123.9 55.5457 123.945 55.8408 124.059C56.1358 124.172 56.4015 124.351 56.6178 124.582C56.834 124.812 56.9952 125.089 57.0896 125.39C57.184 125.692 57.209 126.011 57.1628 126.323C53.3391 126.323 51.24 127.672 51.24 130.219C51.2184 130.619 51.2809 131.018 51.424 131.392C51.567 131.765 51.7872 132.104 52.0701 132.387C52.353 132.67 52.6922 132.89 53.0659 133.033C53.4395 133.176 53.8392 133.238 54.2387 133.216C54.8306 133.227 55.4159 133.088 55.9401 132.813C56.4642 132.538 56.9104 132.136 57.2378 131.643V132.916H58.887C58.8445 132.166 58.8696 131.415 58.9621 130.669ZM57.2378 129.695C57.2637 129.894 57.2637 130.095 57.2378 130.294C57.0877 130.808 56.7697 131.257 56.335 131.569C55.9002 131.882 55.3736 132.039 54.8386 132.017C54.6088 132.018 54.3815 131.971 54.171 131.879C53.9604 131.787 53.7712 131.653 53.6159 131.483C53.4606 131.314 53.3425 131.114 53.269 130.896C53.1955 130.679 53.1685 130.448 53.1894 130.219C53.1894 128.196 55.4386 127.822 57.3879 127.897L57.2378 129.695Z" fill="#6F58AA"/>
<path d="M27.1371 511.434H33.6704V509.543H27.1371V503.929H34.0978V502.038H25V519.733H34.4642V517.841H27.1371V511.434Z" fill="#6F58AA"/>
<path d="M39.5932 503.319L37.4563 503.93V506.98H35.5635V508.749H37.4563V515.706C37.3418 516.87 37.6445 518.038 38.3108 519.001C38.6101 519.33 38.9793 519.589 39.3912 519.758C39.8032 519.926 40.2476 520.002 40.6922 519.977C41.3377 520.101 42.0008 520.101 42.6462 519.977V518.208C42.2234 518.296 41.7866 518.296 41.3638 518.208C40.1426 518.208 39.7155 517.292 39.7155 515.706V508.872H42.8903V507.102H39.5932V503.319Z" fill="#6F58AA"/>
<path d="M51.8051 506.675C51.0186 506.699 50.2514 506.924 49.5777 507.33C48.9039 507.737 48.3462 508.31 47.9584 508.994V501H45.6992V519.733H47.8973V512.045C47.8232 511.682 47.8232 511.308 47.8973 510.946C48.0689 510.295 48.4473 509.716 48.9758 509.298C49.5043 508.88 50.1545 508.645 50.8284 508.627C52.9044 508.627 53.6368 510.336 53.6368 512.411V519.733H55.8349V512.106C55.7128 507.712 53.0874 506.675 51.8051 506.675Z" fill="#6F58AA"/>
<path d="M60.3537 501.977C60.172 501.977 59.9919 502.014 59.8248 502.085C59.6578 502.156 59.5069 502.26 59.3814 502.392C59.2558 502.523 59.1582 502.678 59.0944 502.848C59.0306 503.017 59.0019 503.199 59.0102 503.38C59.002 503.564 59.0302 503.749 59.0933 503.922C59.1564 504.096 59.2532 504.255 59.378 504.391C59.5028 504.527 59.653 504.637 59.8204 504.715C59.9878 504.793 60.1692 504.837 60.3537 504.844C60.5408 504.845 60.7259 504.807 60.8974 504.732C61.0689 504.657 61.223 504.547 61.3495 504.409C61.4759 504.272 61.5721 504.108 61.6319 503.931C61.6918 503.754 61.7138 503.566 61.6968 503.38C61.7146 503.197 61.6927 503.011 61.6323 502.837C61.572 502.663 61.4747 502.504 61.3472 502.371C61.2197 502.238 61.0648 502.133 60.8933 502.065C60.7218 501.997 60.5379 501.967 60.3537 501.977Z" fill="#6F58AA"/>
<path d="M61.453 506.98H59.2549V519.733H61.453V506.98Z" fill="#6F58AA"/>
<path d="M70.1235 506.675C69.2618 506.67 68.4088 506.847 67.6206 507.195C66.8323 507.543 66.1267 508.053 65.55 508.693C64.9733 509.333 64.5384 510.087 64.2743 510.907C64.0102 511.726 63.9228 512.592 64.0175 513.448C63.9588 514.285 64.0733 515.124 64.3537 515.914C64.6341 516.705 65.0747 517.429 65.6476 518.042C66.2206 518.654 66.9134 519.142 67.6836 519.475C68.4537 519.808 69.2844 519.979 70.1235 519.977C70.9851 519.983 71.8381 519.805 72.6264 519.458C73.4146 519.11 74.1202 518.599 74.6969 517.96C75.2737 517.32 75.7085 516.566 75.9726 515.746C76.2367 514.926 76.3242 514.06 76.2294 513.204C76.2881 512.367 76.1737 511.528 75.8932 510.738C75.6128 509.947 75.1723 509.223 74.5993 508.61C74.0264 507.998 73.3335 507.51 72.5634 507.177C71.7933 506.844 70.9626 506.673 70.1235 506.675ZM70.1235 518.269C67.9864 518.269 66.4601 516.133 66.4601 513.387C66.4601 510.641 67.6201 508.445 70.1846 508.445C72.7491 508.445 73.848 511.129 73.848 513.326C73.848 515.523 72.2605 518.269 70.1235 518.269Z" fill="#6F58AA"/>
<path d="M85.1442 506.675C84.2693 506.653 83.4057 506.876 82.6506 507.318C81.8955 507.76 81.2788 508.404 80.87 509.177V506.98H78.916C78.916 508.201 78.916 509.482 78.916 511.129V524.919H81.0529V518.024C81.4526 518.643 82.0058 519.148 82.6584 519.49C83.311 519.832 84.0412 520 84.7778 519.977C87.6476 519.977 90.2729 517.72 90.2729 513.143C90.2729 508.567 88.075 506.675 85.1442 506.675ZM84.4115 518.207C83.6308 518.195 82.8778 517.915 82.2779 517.416C81.6781 516.916 81.2673 516.227 81.1141 515.462C81.0842 515.158 81.0842 514.851 81.1141 514.547V512.35C81.0851 512.025 81.0851 511.698 81.1141 511.373C81.2731 510.6 81.6822 509.901 82.2779 509.383C82.8737 508.864 83.6233 508.557 84.4115 508.506C86.7317 508.506 88.0138 510.702 88.0138 513.265C88.0138 515.827 86.7317 518.207 84.4115 518.207Z" fill="#6F58AA"/>
<path d="M94.18 501.976C93.9933 501.968 93.8068 501.998 93.6325 502.066C93.4582 502.133 93.2996 502.236 93.1674 502.368C93.0352 502.5 92.9323 502.659 92.8648 502.833C92.7973 503.007 92.767 503.193 92.7757 503.38C92.7324 503.584 92.735 503.796 92.7839 503.999C92.8328 504.203 92.9266 504.392 93.0582 504.554C93.1899 504.717 93.3562 504.848 93.5449 504.938C93.7337 505.028 93.9403 505.074 94.1494 505.074C94.3586 505.074 94.5651 505.028 94.7539 504.938C94.9427 504.848 95.109 504.717 95.2406 504.554C95.3723 504.392 95.466 504.203 95.5149 503.999C95.5638 503.796 95.5665 503.584 95.5231 503.38C95.5314 503.198 95.5031 503.017 95.4393 502.847C95.3755 502.677 95.2775 502.523 95.1519 502.391C95.0264 502.26 94.8755 502.156 94.7084 502.084C94.5413 502.013 94.3616 501.976 94.18 501.976Z" fill="#6F58AA"/>
<path d="M95.2177 506.98H93.0195V519.733H95.2177V506.98Z" fill="#6F58AA"/>
<path d="M107.368 516.621V511.861C107.368 509.299 106.513 506.614 102.789 506.614C101.377 506.578 99.9898 506.983 98.82 507.774L99.3085 509.299C100.243 508.658 101.35 508.317 102.483 508.323C102.868 508.291 103.255 508.346 103.616 508.485C103.976 508.624 104.301 508.842 104.565 509.124C104.829 509.406 105.026 509.743 105.142 510.112C105.257 510.48 105.288 510.869 105.231 511.251C100.53 511.251 97.9651 512.899 97.9651 515.95C97.9386 516.438 98.0154 516.925 98.1901 517.381C98.3649 517.838 98.6339 518.252 98.9795 518.597C99.3251 518.942 99.7394 519.211 100.196 519.386C100.652 519.56 101.14 519.637 101.628 519.611C102.358 519.635 103.083 519.474 103.734 519.143C104.385 518.812 104.942 518.323 105.353 517.72V519.366H107.368C107.289 518.453 107.289 517.535 107.368 516.621ZM105.292 515.34C105.26 516.122 104.923 516.861 104.352 517.397C103.781 517.933 103.023 518.224 102.239 518.207C101.951 518.228 101.661 518.184 101.392 518.079C101.122 517.974 100.879 517.811 100.681 517.6C100.482 517.39 100.333 517.139 100.243 516.864C100.154 516.589 100.126 516.298 100.163 516.011C100.163 513.57 102.85 513.082 105.292 513.143V515.34Z" fill="#6F58AA"/>
<path d="M120.141 480.559C118.192 479.735 117.367 479.061 117.367 477.712C117.367 476.364 118.117 475.614 119.991 475.614C120.912 475.587 121.822 475.821 122.615 476.289L123.065 474.715C122.133 474.255 121.105 474.024 120.066 474.041C119.51 473.979 118.947 474.032 118.413 474.197C117.879 474.363 117.385 474.638 116.963 475.004C116.54 475.37 116.198 475.82 115.958 476.325C115.718 476.83 115.585 477.379 115.567 477.937C115.567 480.035 116.992 481.233 119.241 482.057C121.491 482.882 121.865 483.556 121.865 484.905C121.865 486.253 120.741 487.378 118.941 487.378C117.805 487.378 116.69 487.067 115.717 486.479L115.268 488.052C116.351 488.636 117.561 488.945 118.792 488.951C122.09 488.951 123.665 487.003 123.665 484.755C123.665 482.508 122.465 481.458 120.141 480.559Z" fill="#6F58AA"/>
<path d="M130.337 478.088C129.633 478.082 128.937 478.227 128.294 478.512C127.651 478.797 127.076 479.216 126.608 479.74C126.139 480.265 125.789 480.884 125.578 481.555C125.368 482.226 125.303 482.934 125.388 483.632C125.326 484.302 125.404 484.977 125.616 485.616C125.828 486.254 126.17 486.843 126.621 487.342C127.072 487.842 127.622 488.243 128.236 488.52C128.849 488.797 129.514 488.944 130.187 488.951C130.881 488.956 131.568 488.814 132.202 488.532C132.836 488.251 133.402 487.837 133.864 487.32C134.325 486.802 134.671 486.192 134.877 485.53C135.083 484.868 135.146 484.17 135.06 483.482C135.145 482.81 135.086 482.127 134.888 481.48C134.69 480.832 134.357 480.234 133.911 479.725C133.465 479.215 132.915 478.806 132.299 478.524C131.683 478.242 131.015 478.093 130.337 478.088ZM130.337 487.528C128.538 487.528 127.338 485.805 127.338 483.557C127.338 481.309 128.238 479.511 130.337 479.511C132.436 479.511 133.336 481.759 133.336 483.557C133.336 485.355 131.986 487.528 130.262 487.528H130.337Z" fill="#6F58AA"/>
<path d="M148.106 478.087C147.315 478.069 146.543 478.334 145.932 478.837C145.444 479.179 145.056 479.644 144.807 480.185C144.63 479.584 144.265 479.057 143.766 478.679C143.267 478.302 142.659 478.094 142.033 478.087C141.388 478.085 140.755 478.266 140.21 478.612C139.666 478.957 139.232 479.451 138.959 480.036V478.312H137.385C137.385 479.211 137.385 480.11 137.385 481.159V488.651H139.109V482.358C139.073 482.059 139.073 481.757 139.109 481.459C139.236 480.948 139.522 480.491 139.927 480.154C140.331 479.818 140.833 479.618 141.358 479.586C142.708 479.586 143.383 480.784 143.383 482.433V488.651H145.182V482.208C145.14 481.91 145.14 481.607 145.182 481.309C145.316 480.843 145.589 480.429 145.964 480.122C146.339 479.814 146.798 479.627 147.281 479.586C148.781 479.586 149.455 480.785 149.455 482.808V488.651H151.18V482.508C151.48 478.986 149.53 478.087 148.106 478.087Z" fill="#6F58AA"/>
<path d="M161.377 482.358C161.377 480.26 160.627 478.088 157.628 478.088C156.454 478.065 155.302 478.405 154.329 479.062L154.779 480.26C155.543 479.779 156.425 479.52 157.328 479.511C157.643 479.485 157.96 479.531 158.255 479.644C158.55 479.758 158.816 479.936 159.032 480.166C159.248 480.397 159.41 480.673 159.504 480.975C159.599 481.277 159.624 481.596 159.578 481.909C155.754 481.909 153.654 483.257 153.654 485.73C153.644 486.126 153.715 486.52 153.862 486.889C154.009 487.257 154.229 487.592 154.51 487.872C154.791 488.152 155.125 488.372 155.493 488.519C155.862 488.666 156.257 488.736 156.653 488.726C157.246 488.726 157.831 488.592 158.364 488.332C158.896 488.072 159.362 487.695 159.727 487.228V488.502H161.377C161.333 487.678 161.333 486.853 161.377 486.029V482.358ZM159.652 485.205C159.652 485.205 159.652 485.654 159.652 485.804C159.494 486.319 159.176 486.771 158.745 487.094C158.314 487.417 157.792 487.595 157.253 487.603C157.01 487.616 156.767 487.576 156.541 487.484C156.316 487.392 156.114 487.252 155.949 487.073C155.784 486.893 155.661 486.68 155.588 486.448C155.516 486.216 155.495 485.971 155.529 485.73C155.529 483.782 157.778 483.407 159.727 483.407L159.652 485.205Z" fill="#6F58AA"/>
<path d="M166.025 473.517H164.226V488.726H166.025V473.517Z" fill="#6F58AA"/>
<path d="M170.898 478.387H169.099V488.801H170.898V478.387Z" fill="#6F58AA"/>
<path d="M169.998 474.266C169.844 474.266 169.692 474.297 169.55 474.358C169.408 474.419 169.281 474.509 169.176 474.621C169.07 474.734 168.989 474.867 168.937 475.012C168.885 475.157 168.864 475.311 168.874 475.464C168.874 475.763 168.992 476.048 169.203 476.259C169.414 476.47 169.7 476.589 169.998 476.589C170.297 476.589 170.583 476.47 170.794 476.259C171.005 476.048 171.123 475.763 171.123 475.464C171.133 475.311 171.112 475.157 171.06 475.012C171.008 474.867 170.927 474.734 170.822 474.621C170.716 474.509 170.588 474.419 170.447 474.358C170.305 474.297 170.153 474.266 169.998 474.266Z" fill="#6F58AA"/>
<path d="M180.87 486.254V482.358C180.87 480.26 180.12 478.088 177.121 478.088C175.947 478.065 174.795 478.405 173.822 479.062L174.272 480.26C175.036 479.779 175.919 479.52 176.821 479.511C177.136 479.485 177.453 479.531 177.748 479.644C178.044 479.758 178.309 479.936 178.525 480.166C178.741 480.397 178.903 480.673 178.997 480.975C179.092 481.277 179.117 481.596 179.07 481.909C175.247 481.909 173.148 483.257 173.148 485.73C173.126 486.129 173.189 486.528 173.332 486.902C173.475 487.275 173.695 487.614 173.978 487.897C174.261 488.179 174.6 488.399 174.974 488.542C175.347 488.685 175.747 488.748 176.146 488.726C176.729 488.732 177.306 488.6 177.827 488.339C178.349 488.079 178.801 487.698 179.146 487.228V488.502H180.795C180.752 487.752 180.777 486.999 180.87 486.254ZM179.146 485.205C179.188 485.402 179.188 485.606 179.146 485.804C178.987 486.319 178.67 486.771 178.239 487.094C177.808 487.417 177.285 487.595 176.746 487.603C176.509 487.605 176.275 487.556 176.059 487.459C175.842 487.363 175.649 487.221 175.492 487.043C175.336 486.866 175.22 486.656 175.152 486.43C175.083 486.203 175.064 485.964 175.097 485.73C175.097 483.782 177.271 483.407 179.295 483.407L179.146 485.205Z" fill="#6F58AA"/>
<path d="M222.93 149.999H220.231V171.802H222.93V149.999Z" fill="#6F58AA"/>
<path d="M230.577 159.214V156.142H228.253C228.253 157.566 228.253 159.139 228.253 161.012V171.727H230.577V163.41C230.577 162.961 230.577 162.511 230.577 162.136C230.631 161.18 231.035 160.277 231.713 159.6C232.391 158.923 233.294 158.519 234.251 158.465H235.15V155.768H234.401C233.491 155.892 232.639 156.287 231.957 156.902C231.275 157.517 230.794 158.323 230.577 159.214Z" fill="#6F58AA"/>
<path d="M248.121 162.136C248.121 159.065 246.997 155.768 242.498 155.768C240.765 155.724 239.061 156.221 237.625 157.191L238.225 159.064C239.35 158.291 240.682 157.874 242.048 157.866C242.524 157.83 243.001 157.898 243.446 158.068C243.892 158.238 244.294 158.504 244.624 158.848C244.954 159.192 245.203 159.606 245.354 160.058C245.505 160.509 245.554 160.989 245.497 161.462C239.724 161.462 236.5 163.485 236.5 167.232C236.478 167.834 236.582 168.434 236.806 168.994C237.029 169.554 237.366 170.062 237.796 170.485C238.226 170.908 238.74 171.237 239.304 171.451C239.868 171.664 240.471 171.758 241.074 171.727C241.965 171.724 242.842 171.512 243.637 171.109C244.431 170.705 245.119 170.121 245.647 169.404V171.352H248.046C247.962 170.104 247.962 168.853 248.046 167.606L248.121 162.136ZM245.497 166.482C245.57 166.777 245.57 167.085 245.497 167.381C245.267 168.151 244.791 168.826 244.14 169.299C243.49 169.773 242.703 170.021 241.898 170.004C241.547 170.016 241.198 169.953 240.873 169.82C240.548 169.687 240.255 169.485 240.014 169.23C239.773 168.975 239.589 168.672 239.474 168.34C239.36 168.008 239.317 167.656 239.349 167.307C239.349 164.235 242.723 163.71 245.647 163.784L245.497 166.482Z" fill="#6F58AA"/>
<path d="M259.891 155.768C258.877 155.749 257.876 156.011 257.003 156.527C256.129 157.043 255.416 157.793 254.943 158.69V156.142H252.619C252.619 157.416 252.619 158.765 252.619 160.338V171.727H255.318V162.361C255.233 161.916 255.233 161.458 255.318 161.012C255.515 160.199 255.973 159.472 256.624 158.945C257.274 158.417 258.08 158.116 258.917 158.09C261.466 158.09 262.366 160.263 262.366 162.736V171.727H265.065V162.436C265.14 157.042 261.916 155.768 259.891 155.768Z" fill="#6F58AA"/>
<path d="M74.182 147.526H71.4829V169.329H74.182V147.526Z" fill="#6F58AA"/>
<path d="M81.4545 156.742V153.67H79.1304C79.1304 155.094 79.1304 156.667 79.1304 158.54V169.254H81.7547V160.937C81.7179 160.489 81.7179 160.038 81.7547 159.589C81.8084 158.653 82.2045 157.768 82.8681 157.105C83.5317 156.442 84.4164 156.047 85.3533 155.993H86.253V153.295H85.5034C84.5533 153.376 83.6521 153.753 82.9262 154.371C82.2003 154.989 81.6856 155.818 81.4545 156.742Z" fill="#6F58AA"/>
<path d="M99.373 159.664C99.373 156.517 98.2483 153.295 93.6749 153.295C91.9554 153.274 90.2656 153.742 88.8019 154.644L89.4014 156.517C90.5729 155.791 91.922 155.402 93.3002 155.393C93.7729 155.354 94.2482 155.423 94.6908 155.593C95.1334 155.764 95.532 156.031 95.8563 156.377C96.1807 156.723 96.4226 157.137 96.5643 157.59C96.7059 158.042 96.7434 158.52 96.6741 158.989C90.9011 158.989 87.7522 161.012 87.7522 164.758C87.7312 165.354 87.8333 165.948 88.0519 166.503C88.2706 167.058 88.601 167.562 89.023 167.984C89.4449 168.406 89.9494 168.736 90.5047 168.954C91.0599 169.173 91.654 169.274 92.2504 169.254C93.1446 169.269 94.029 169.066 94.8263 168.661C95.6236 168.256 96.3093 167.662 96.8237 166.931V168.879H99.298C99.1766 167.634 99.1766 166.379 99.298 165.133L99.373 159.664ZM96.7491 164.009C96.7852 164.308 96.7852 164.61 96.7491 164.908C96.5194 165.679 96.0429 166.353 95.3928 166.827C94.7427 167.301 93.9545 167.548 93.1501 167.53C92.7991 167.543 92.4499 167.48 92.125 167.347C91.8002 167.213 91.5073 167.013 91.2661 166.758C91.025 166.502 90.8408 166.199 90.7262 165.867C90.6115 165.535 90.5691 165.183 90.6012 164.833C90.6012 161.761 93.9748 161.237 96.8988 161.312L96.7491 164.009Z" fill="#6F58AA"/>
<path d="M114.068 153.67V155.993C113.649 155.15 112.993 154.446 112.181 153.967C111.369 153.489 110.436 153.254 109.494 153.295C106.346 153.295 102.747 155.843 102.747 161.687C102.747 167.531 105.596 169.629 109.045 169.629C110.036 169.674 111.021 169.438 111.883 168.947C112.746 168.457 113.451 167.732 113.918 166.857V175.698H116.617V157.941C116.617 156.293 116.617 154.944 116.617 153.67H114.068ZM114.068 162.885C114.109 163.334 114.109 163.786 114.068 164.234C113.866 165.12 113.371 165.912 112.664 166.482C111.957 167.053 111.078 167.37 110.169 167.381C107.245 167.381 105.821 164.684 105.821 161.537C105.821 158.391 107.47 155.543 110.319 155.543C111.23 155.561 112.106 155.891 112.802 156.478C113.498 157.064 113.971 157.872 114.143 158.765C114.179 159.164 114.179 159.565 114.143 159.963L114.068 162.885Z" fill="#6F58AA"/>
<path d="M263.167 305C262.429 305.036 261.706 305.223 261.043 305.55C260.38 305.876 259.791 306.334 259.312 306.897C258.834 307.46 258.476 308.115 258.26 308.821C258.045 309.528 257.976 310.271 258.059 311.005C257.948 311.734 257.994 312.477 258.191 313.188C258.389 313.898 258.734 314.559 259.205 315.126C259.676 315.693 260.262 316.154 260.924 316.479C261.586 316.804 262.31 316.985 263.047 317.011C265.871 317.011 268.155 314.909 268.155 311.005C268.275 310.275 268.238 309.527 268.044 308.813C267.851 308.098 267.506 307.434 267.033 306.865C266.56 306.295 265.97 305.834 265.303 305.512C264.636 305.191 263.908 305.016 263.167 305ZM263.167 315.749C260.944 315.749 259.682 313.527 259.682 311.005C259.682 308.483 260.824 306.201 263.167 306.201C265.511 306.201 266.713 308.603 266.713 310.945C266.713 313.287 265.691 315.749 263.107 315.749H263.167Z" fill="#6F58AA"/>
<path d="M278.672 308.422C278.039 308.417 277.424 308.629 276.929 309.023C276.555 309.314 276.247 309.683 276.028 310.104C275.867 309.623 275.561 309.203 275.153 308.902C274.744 308.601 274.252 308.433 273.745 308.422C273.226 308.412 272.716 308.555 272.278 308.833C271.839 309.111 271.493 309.511 271.281 309.984V308.422H270.019C270.019 309.143 270.019 309.864 270.019 310.704V316.71H271.701V311.665C271.672 311.426 271.672 311.184 271.701 310.945C271.803 310.535 272.033 310.169 272.357 309.899C272.681 309.629 273.083 309.469 273.504 309.444C274.646 309.444 275.187 310.404 275.187 311.726V316.71H276.569V311.545C276.535 311.306 276.535 311.064 276.569 310.825C276.672 310.438 276.898 310.094 277.211 309.845C277.525 309.596 277.911 309.456 278.311 309.444C279.453 309.444 279.994 310.404 279.994 311.965V316.71H281.436V311.786C281.316 308.963 279.754 308.422 278.672 308.422Z" fill="#6F58AA"/>
<path d="M289.188 311.666C289.188 309.984 288.647 308.242 286.183 308.242C285.272 308.242 284.379 308.492 283.599 308.963V309.984C284.233 309.597 284.96 309.389 285.703 309.384C285.955 309.363 286.209 309.399 286.446 309.49C286.682 309.581 286.895 309.725 287.068 309.909C287.242 310.094 287.371 310.316 287.447 310.557C287.522 310.799 287.543 311.055 287.505 311.305C284.441 311.305 282.698 312.386 282.698 314.368C282.689 314.691 282.748 315.012 282.869 315.311C282.991 315.611 283.173 315.882 283.404 316.107C283.636 316.333 283.911 316.509 284.214 316.623C284.516 316.737 284.839 316.787 285.162 316.77C285.636 316.779 286.105 316.667 286.525 316.447C286.945 316.226 287.303 315.904 287.566 315.509V316.59H288.888C288.823 315.931 288.823 315.267 288.888 314.608L289.188 311.666ZM287.806 313.948C287.84 314.106 287.84 314.27 287.806 314.428C287.677 314.834 287.42 315.188 287.073 315.437C286.727 315.686 286.309 315.816 285.883 315.809C285.694 315.819 285.505 315.787 285.329 315.717C285.153 315.648 284.994 315.54 284.863 315.404C284.732 315.267 284.632 315.104 284.569 314.925C284.507 314.746 284.483 314.556 284.501 314.368C284.501 312.746 286.304 312.507 287.866 312.507L287.806 313.948Z" fill="#6F58AA"/>
<path d="M295.737 308.423C295.195 308.415 294.662 308.556 294.195 308.832C293.729 309.107 293.347 309.506 293.093 309.984V308.603H291.831C291.831 309.324 291.831 310.045 291.831 310.885V316.891H293.274V311.906C293.234 311.667 293.234 311.424 293.274 311.185C293.379 310.75 293.624 310.362 293.971 310.08C294.319 309.798 294.749 309.637 295.196 309.624C296.578 309.624 297.059 310.765 297.059 312.086V316.891H298.502V311.906C298.321 308.963 296.579 308.423 295.737 308.423Z" fill="#6F58AA"/>
<path d="M124.865 396.196L122.915 400.242C122.39 401.291 121.865 402.265 121.491 403.164L120.066 400.242L118.117 396.196H116.092L120.441 404.513V410.657H122.24V404.738L126.889 396.421L124.865 396.196Z" fill="#6F58AA"/>
<path d="M130.787 400.092C130.109 400.128 129.446 400.303 128.838 400.606C128.231 400.909 127.692 401.335 127.256 401.855C126.82 402.375 126.496 402.978 126.304 403.629C126.111 404.28 126.055 404.963 126.138 405.637C126.062 406.312 126.133 406.996 126.346 407.641C126.558 408.287 126.908 408.878 127.371 409.376C127.833 409.874 128.398 410.266 129.027 410.526C129.655 410.786 130.332 410.907 131.011 410.881C132.141 410.915 133.265 410.711 134.31 410.282V408.934C133.435 409.309 132.488 409.487 131.536 409.458C131.067 409.483 130.598 409.405 130.162 409.23C129.726 409.055 129.334 408.787 129.012 408.444C128.691 408.102 128.448 407.692 128.302 407.246C128.155 406.8 128.108 406.328 128.163 405.862H135.135V404.737C134.835 403.014 134.011 400.092 130.787 400.092ZM127.863 404.512C127.863 403.164 128.837 401.441 130.637 401.441C132.436 401.441 133.111 403.314 133.111 404.512H127.863Z" fill="#6F58AA"/>
<path d="M148.106 400.093C147.326 400.065 146.559 400.302 145.932 400.767C145.5 401.165 145.121 401.619 144.807 402.116C144.603 401.523 144.219 401.01 143.708 400.647C143.197 400.284 142.585 400.09 141.958 400.093C141.321 400.083 140.694 400.253 140.15 400.585C139.606 400.916 139.167 401.395 138.884 401.966V400.318H137.31C137.31 401.142 137.31 402.041 137.31 403.09V410.582H139.109V404.738C139.029 404.418 139.029 404.084 139.109 403.764C139.221 403.259 139.493 402.804 139.885 402.467C140.277 402.129 140.767 401.927 141.283 401.891C142.708 401.891 143.382 403.09 143.382 404.738V410.956H145.107V404.588C145.065 404.264 145.065 403.937 145.107 403.614C145.246 403.137 145.53 402.715 145.919 402.407C146.309 402.098 146.785 401.917 147.281 401.891C148.706 401.891 149.38 403.09 149.38 405.113V410.956H151.18V404.738C151.254 400.992 149.305 400.093 148.106 400.093Z" fill="#6F58AA"/>
<path d="M158.077 400.092C157.399 400.128 156.736 400.303 156.128 400.606C155.521 400.91 154.983 401.335 154.547 401.855C154.111 402.375 153.787 402.978 153.594 403.629C153.402 404.28 153.346 404.963 153.429 405.637C153.353 406.312 153.424 406.996 153.636 407.641C153.849 408.287 154.199 408.878 154.661 409.376C155.124 409.874 155.689 410.266 156.317 410.526C156.946 410.786 157.623 410.907 158.302 410.881C159.432 410.916 160.556 410.712 161.601 410.282V408.934C160.729 409.319 159.78 409.498 158.827 409.458C158.358 409.483 157.889 409.405 157.453 409.23C157.017 409.055 156.624 408.787 156.303 408.444C155.981 408.102 155.739 407.692 155.592 407.246C155.445 406.8 155.398 406.328 155.453 405.862H162.425C162.425 405.862 162.425 405.337 162.425 404.963C162.5 404.349 162.443 403.727 162.258 403.138C162.074 402.549 161.765 402.006 161.354 401.545C160.942 401.084 160.437 400.716 159.872 400.466C159.307 400.215 158.695 400.088 158.077 400.092ZM155.153 404.513C155.153 403.164 156.128 401.441 157.927 401.441C158.3 401.457 158.666 401.552 158.999 401.72C159.333 401.889 159.626 402.126 159.861 402.416C160.095 402.707 160.264 403.045 160.358 403.407C160.451 403.768 160.466 404.145 160.401 404.513H155.153Z" fill="#6F58AA"/>
<path d="M169.324 400.093C168.648 400.083 167.982 400.259 167.4 400.603C166.818 400.947 166.342 401.444 166.025 402.041V400.318H164.375C164.375 401.142 164.375 402.041 164.375 403.09V410.582H166.174V404.738C166.132 404.44 166.132 404.137 166.174 403.839C166.308 403.304 166.617 402.829 167.052 402.49C167.486 402.15 168.022 401.966 168.574 401.966C170.298 401.966 170.898 403.315 170.898 404.963V410.956H172.697V404.738C172.847 400.917 170.598 400.093 169.324 400.093Z" fill="#6F58AA"/>
<path d="M17.9959 406.459H21.1137V405.55H17.9959V402.91H21.2869V402.002H17V410.353H21.4601V409.445H17.9959V406.459Z" fill="#6F58AA"/>
<path d="M23.7112 405.55V404.339H22.8018C22.8018 404.901 22.8018 405.507 22.8018 406.199V410.526H23.8412V407.324C23.8199 407.152 23.8199 406.977 23.8412 406.805C23.8619 406.444 24.0144 406.104 24.2699 405.849C24.5254 405.593 24.8659 405.441 25.2267 405.42H25.6165V404.382H25.3567C24.9946 404.38 24.6412 404.492 24.346 404.701C24.0509 404.911 23.8289 405.208 23.7112 405.55Z" fill="#6F58AA"/>
<path d="M27.2192 402.002C27.0701 402.04 26.9379 402.126 26.8436 402.248C26.7493 402.369 26.6982 402.519 26.6982 402.673C26.6982 402.826 26.7493 402.976 26.8436 403.097C26.9379 403.219 27.0701 403.305 27.2192 403.343C27.3102 403.351 27.4017 403.338 27.4869 403.305C27.5721 403.272 27.6488 403.22 27.7113 403.154C27.7737 403.087 27.8204 403.007 27.8477 402.92C27.8749 402.833 27.8822 402.741 27.8688 402.651C27.8753 402.564 27.863 402.477 27.8326 402.395C27.8022 402.314 27.7544 402.239 27.6928 402.178C27.6311 402.116 27.557 402.068 27.4753 402.038C27.3935 402.008 27.3061 401.995 27.2192 402.002Z" fill="#6F58AA"/>
<path d="M27.6955 404.382H26.6562V410.397H27.6955V404.382Z" fill="#6F58AA"/>
<path d="M30.6836 402.607L29.6878 402.911V404.338H28.7783V405.16H29.6878V408.449C29.6215 408.999 29.7604 409.553 30.0776 410.007C30.2183 410.165 30.3922 410.289 30.5869 410.371C30.7816 410.454 30.992 410.492 31.2032 410.483C31.5032 410.545 31.8127 410.545 32.1127 410.483V409.661H31.5064C30.9434 409.661 30.727 409.228 30.727 408.492V405.247H32.2427V404.425H30.727L30.6836 402.607Z" fill="#6F58AA"/>
<path d="M34.2776 405.55V404.339H33.3682C33.3682 404.901 33.3682 405.507 33.3682 406.199V410.526H34.2776V407.324C34.2567 407.152 34.2567 406.977 34.2776 406.805C34.2983 406.444 34.4508 406.104 34.7063 405.849C34.9618 405.593 35.3025 405.441 35.6633 405.42H36.0098V404.382H35.7066C35.3824 404.422 35.0762 404.553 34.8234 404.76C34.5705 404.966 34.3813 405.241 34.2776 405.55Z" fill="#6F58AA"/>
<path d="M39.3874 404.208C37.6986 404.208 36.7027 405.637 36.7027 407.454C36.6588 407.844 36.6995 408.239 36.8224 408.612C36.9453 408.985 37.1472 409.326 37.4144 409.614C37.6817 409.902 38.008 410.128 38.3709 410.278C38.7338 410.428 39.125 410.498 39.5174 410.483C40.1593 410.493 40.7953 410.36 41.3794 410.094V409.315C40.8893 409.532 40.3564 409.636 39.8206 409.618C39.5495 409.632 39.2785 409.587 39.0266 409.486C38.7748 409.385 38.5481 409.23 38.3624 409.032C38.1768 408.834 38.0368 408.599 37.952 408.341C37.8672 408.083 37.84 407.81 37.8719 407.541H41.8556C41.8856 407.369 41.8856 407.193 41.8556 407.021C41.8983 406.671 41.8666 406.315 41.7623 405.978C41.6581 405.641 41.4839 405.329 41.2509 405.064C41.018 404.798 40.7316 404.585 40.4105 404.437C40.0894 404.29 39.7407 404.212 39.3874 404.208ZM37.6985 406.761C37.6985 406.026 38.2181 404.988 39.3007 404.988C40.3832 404.988 40.7297 406.069 40.7297 406.761H37.6985Z" fill="#6F58AA"/>
<path d="M47.2685 408.925V406.675C47.2685 405.464 46.8355 404.208 45.0601 404.208C44.4036 404.208 43.7597 404.388 43.1981 404.728V405.464C43.6571 405.19 44.1793 405.041 44.7136 405.031C44.8956 405.016 45.0786 405.042 45.249 405.108C45.4195 405.173 45.5729 405.277 45.6978 405.41C45.8227 405.543 45.916 405.702 45.9706 405.877C46.0251 406.051 46.0396 406.235 46.0128 406.415C43.8044 406.415 42.5485 407.194 42.5485 408.622C42.5422 408.855 42.5843 409.087 42.6719 409.302C42.7595 409.518 42.8908 409.713 43.0575 409.876C43.2242 410.038 43.4228 410.165 43.6408 410.247C43.8588 410.329 44.0914 410.365 44.324 410.353C44.6659 410.36 45.0037 410.279 45.3064 410.12C45.6091 409.962 45.8668 409.729 46.0559 409.444V410.223H47.2685C47.2307 409.792 47.2307 409.357 47.2685 408.925ZM46.2293 408.32C46.2539 408.434 46.2539 408.552 46.2293 408.666C46.1362 408.959 45.9511 409.213 45.7015 409.393C45.4519 409.572 45.151 409.666 44.8436 409.661C44.7073 409.668 44.5711 409.645 44.4443 409.595C44.3174 409.544 44.2028 409.467 44.1083 409.369C44.0139 409.27 43.9419 409.153 43.8969 409.024C43.8519 408.895 43.8352 408.758 43.8477 408.622C43.8477 407.454 45.1468 407.281 46.2726 407.281L46.2293 408.32Z" fill="#6F58AA"/>
<path d="M74.2571 323.521C71.4081 322.397 70.1331 321.347 70.1331 319.325C70.1331 317.302 71.1829 316.103 74.0319 316.103C75.3931 316.092 76.7349 316.427 77.9307 317.077L78.6803 314.829C77.2927 314.03 75.7071 313.64 74.107 313.705C73.273 313.622 72.4309 313.713 71.6336 313.971C70.8364 314.23 70.1014 314.65 69.4747 315.206C68.8479 315.762 68.3431 316.441 67.992 317.202C67.6409 317.962 67.4508 318.787 67.4342 319.625C67.4342 322.696 69.5333 324.569 72.9071 325.843C76.2809 327.116 76.8059 328.091 76.8059 330.114C76.8059 332.137 75.2313 333.86 72.4573 333.86C70.7595 333.822 69.1031 333.33 67.6593 332.436L66.9844 334.834C68.6115 335.738 70.4462 336.202 72.3077 336.182C73.2272 336.347 74.1717 336.308 75.0743 336.067C75.977 335.826 76.8159 335.391 77.5312 334.79C78.2466 334.19 78.8209 333.439 79.2138 332.592C79.6068 331.745 79.8087 330.823 79.805 329.889C79.5051 326.742 77.7058 324.944 74.2571 323.521Z" fill="#6F58AA"/>
<path d="M93.6001 326.293C93.6001 323.146 92.4755 319.85 87.9771 319.85C86.249 319.843 84.5562 320.337 83.1041 321.273L83.7035 323.146C84.8293 322.373 86.1613 321.955 87.5272 321.947C90.6012 321.947 90.9012 324.27 90.9012 325.618C85.2032 325.618 81.9793 327.641 81.9793 331.462C81.9682 332.059 82.0799 332.652 82.3078 333.203C82.5357 333.754 82.875 334.253 83.304 334.667C83.733 335.082 84.2428 335.404 84.8018 335.613C85.3607 335.822 85.9565 335.915 86.5526 335.884C87.4456 335.893 88.3281 335.686 89.1243 335.282C89.9205 334.877 90.6074 334.287 91.1263 333.561V335.584H93.5251C93.4412 334.336 93.4412 333.085 93.5251 331.837L93.6001 326.293ZM90.9762 330.563C91.0121 330.887 91.0121 331.214 90.9762 331.537C90.7227 332.288 90.2381 332.938 89.5915 333.396C88.9449 333.854 88.1699 334.095 87.3776 334.085C87.0266 334.097 86.677 334.034 86.3521 333.901C86.0273 333.767 85.7343 333.567 85.4932 333.312C85.2521 333.057 85.0684 332.753 84.9537 332.421C84.839 332.089 84.7962 331.737 84.8283 331.387C84.8283 328.391 88.2023 327.791 91.1263 327.866L90.9762 330.563Z" fill="#6F58AA"/>
<path d="M110.619 320.224H107.92V329.814C107.999 330.311 107.999 330.816 107.92 331.312C107.623 332.034 107.127 332.657 106.49 333.108C105.853 333.559 105.101 333.82 104.321 333.861C101.847 333.861 101.022 331.837 101.022 328.915V320.224H98.3232V329.364C98.3232 334.834 101.097 336.183 103.421 336.183C104.425 336.193 105.414 335.934 106.284 335.434C107.154 334.933 107.875 334.208 108.37 333.336V335.884H110.619C110.619 334.61 110.619 333.186 110.619 331.612V320.224Z" fill="#6F58AA"/>
<path d="M127.713 312.957H125.014V322.322C124.552 321.552 123.89 320.923 123.097 320.5C122.305 320.078 121.412 319.879 120.516 319.925C116.917 319.925 113.843 323.147 113.843 328.316C113.843 333.486 116.617 336.258 120.216 336.258C121.253 336.293 122.278 336.03 123.169 335.499C124.06 334.967 124.778 334.19 125.239 333.261V335.958H127.638C127.638 334.909 127.638 333.261 127.638 331.912L127.713 312.957ZM125.014 329.29C125.05 329.714 125.05 330.14 125.014 330.563C124.828 331.491 124.335 332.328 123.614 332.94C122.893 333.552 121.986 333.903 121.04 333.936C118.116 333.936 116.692 331.313 116.692 328.166C116.692 325.02 118.341 322.097 121.115 322.097C122.045 322.115 122.941 322.453 123.651 323.054C124.361 323.654 124.842 324.481 125.014 325.394C125.05 325.793 125.05 326.194 125.014 326.592V329.29Z" fill="#6F58AA"/>
<path d="M134.836 320.299H132.137V335.958H134.836V320.299Z" fill="#6F58AA"/>
<path d="M133.486 314.08C133.256 314.079 133.029 314.126 132.818 314.219C132.608 314.311 132.419 314.445 132.263 314.615C132.108 314.784 131.99 314.984 131.917 315.202C131.843 315.419 131.816 315.65 131.837 315.879C131.852 316.219 131.968 316.547 132.17 316.821C132.371 317.096 132.65 317.305 132.97 317.421C133.291 317.538 133.638 317.556 133.969 317.475C134.3 317.394 134.6 317.217 134.831 316.966C135.061 316.715 135.212 316.402 135.264 316.065C135.316 315.728 135.267 315.383 135.123 315.075C134.979 314.766 134.747 314.506 134.455 314.329C134.164 314.152 133.827 314.066 133.486 314.08Z" fill="#6F58AA"/>
<path d="M151.405 314.081L144.357 335.884H147.131L149.305 328.99H156.803L158.977 335.884H161.826L154.779 314.081H151.405ZM149.83 326.817L151.855 320.524C151.855 319.175 152.605 317.901 152.905 316.553C152.905 317.827 153.504 319.1 153.954 320.524L155.978 326.817H149.83Z" fill="#6F58AA"/>
<path d="M166.999 323.296V320.224H164.675C164.675 321.722 164.675 323.296 164.675 325.094V335.884H167.374V327.566C167.374 327.042 167.374 326.593 167.374 326.218C167.428 325.262 167.832 324.359 168.51 323.682C169.188 323.005 170.091 322.601 171.048 322.547H171.948V319.925H171.198C170.231 319.971 169.304 320.321 168.549 320.927C167.795 321.533 167.252 322.362 166.999 323.296Z" fill="#6F58AA"/>
<path d="M184.843 326.293C184.843 323.146 183.719 319.85 179.22 319.85C177.492 319.843 175.799 320.337 174.347 321.273L174.947 323.146C176.072 322.373 177.404 321.955 178.77 321.947C181.844 321.947 182.144 324.27 182.144 325.618C176.446 325.618 173.222 327.641 173.222 331.462C173.211 332.059 173.323 332.652 173.551 333.203C173.779 333.754 174.118 334.253 174.547 334.667C174.976 335.082 175.486 335.404 176.044 335.613C176.603 335.822 177.2 335.915 177.796 335.884C178.689 335.893 179.571 335.686 180.367 335.282C181.163 334.877 181.85 334.287 182.369 333.561V335.584H184.768C184.684 334.336 184.684 333.085 184.768 331.837L184.843 326.293ZM182.219 330.563C182.255 330.887 182.255 331.214 182.219 331.537C181.965 332.288 181.481 332.938 180.834 333.396C180.188 333.854 179.413 334.095 178.62 334.085C178.269 334.097 177.92 334.034 177.595 333.901C177.27 333.767 176.977 333.567 176.736 333.312C176.495 333.057 176.311 332.753 176.196 332.421C176.082 332.089 176.039 331.737 176.071 331.387C176.071 328.391 179.445 327.791 182.369 327.866L182.219 330.563Z" fill="#6F58AA"/>
<path d="M196.989 319.85C195.959 319.798 194.935 320.046 194.043 320.565C193.151 321.084 192.429 321.851 191.966 322.772V312.957H189.267V331.837C189.267 333.186 189.267 334.835 189.267 335.884H191.666V333.261C192.122 334.188 192.842 334.96 193.736 335.48C194.629 336 195.657 336.244 196.689 336.183C199.988 336.183 203.287 333.411 203.287 327.866C203.287 322.322 200.588 319.85 196.989 319.85ZM196.014 333.936C195.066 333.924 194.15 333.591 193.415 332.993C192.68 332.394 192.169 331.564 191.966 330.638C191.966 330.638 191.966 329.964 191.966 329.589V326.817C191.92 326.419 191.92 326.017 191.966 325.618C192.154 324.659 192.667 323.793 193.418 323.166C194.168 322.539 195.111 322.188 196.089 322.172C198.938 322.172 200.438 324.795 200.438 327.941C200.438 331.088 198.863 333.936 196.014 333.936Z" fill="#6F58AA"/>
<path d="M208.085 314.081C207.852 314.08 207.621 314.128 207.407 314.219C207.193 314.31 206.999 314.443 206.838 314.611C206.677 314.779 206.552 314.979 206.469 315.197C206.387 315.414 206.35 315.646 206.361 315.879C206.35 316.101 206.386 316.324 206.464 316.533C206.542 316.741 206.662 316.932 206.816 317.093C206.971 317.254 207.156 317.382 207.361 317.469C207.566 317.557 207.787 317.602 208.01 317.602C208.239 317.613 208.468 317.575 208.682 317.492C208.896 317.409 209.091 317.283 209.253 317.121C209.415 316.959 209.542 316.764 209.625 316.55C209.708 316.336 209.745 316.108 209.734 315.879C209.755 315.65 209.728 315.42 209.654 315.202C209.581 314.984 209.463 314.784 209.308 314.615C209.152 314.446 208.963 314.311 208.752 314.219C208.542 314.127 208.315 314.08 208.085 314.081Z" fill="#6F58AA"/>
<path d="M209.36 320.299H206.661V335.958H209.36V320.299Z" fill="#6F58AA"/>
<path d="M224.279 332.137V326.293C224.279 323.146 223.154 319.85 218.656 319.85C216.906 319.853 215.192 320.346 213.708 321.273L214.383 323.146C215.508 322.373 216.84 321.955 218.206 321.947C221.28 321.947 221.58 324.27 221.58 325.618C215.882 325.618 212.658 327.641 212.658 331.462C212.647 332.059 212.759 332.652 212.987 333.203C213.214 333.754 213.554 334.252 213.983 334.667C214.412 335.082 214.922 335.404 215.48 335.613C216.039 335.822 216.635 335.914 217.231 335.884C218.116 335.907 218.993 335.706 219.78 335.3C220.566 334.894 221.237 334.295 221.73 333.56V335.584H224.204C224.158 334.434 224.183 333.284 224.279 332.137ZM221.655 330.563C221.691 330.887 221.691 331.214 221.655 331.537C221.401 332.288 220.917 332.938 220.27 333.396C219.624 333.853 218.849 334.094 218.056 334.085C217.705 334.097 217.356 334.034 217.031 333.901C216.706 333.767 216.413 333.567 216.172 333.312C215.931 333.057 215.747 332.753 215.632 332.421C215.518 332.089 215.475 331.737 215.507 331.387C215.507 328.39 218.881 327.791 221.805 327.866L221.655 330.563Z" fill="#6F58AA"/>
<path d="M333.516 138.685L328.868 153.146H330.667L332.167 148.576H337.04L338.465 153.146H340.414L335.691 138.685H333.516ZM332.467 147.152L333.816 142.957C333.816 142.057 334.341 141.158 334.566 140.334C334.566 141.158 335.015 141.983 335.315 142.957L336.665 147.152H332.467Z" fill="#6F58AA"/>
<path d="M344.162 142.506C344.162 140.933 344.537 139.509 346.111 139.509C346.479 139.407 346.868 139.407 347.236 139.509V138.011C346.741 137.91 346.231 137.91 345.737 138.011C345.292 138.008 344.852 138.092 344.44 138.259C344.028 138.426 343.653 138.673 343.337 138.985C342.478 140.008 342.048 141.324 342.138 142.656V143.105H340.789V144.529H342.138V153.52H343.937V144.529H346.337V142.506H343.937H344.162Z" fill="#6F58AA"/>
<path d="M354.809 144.305C354.53 143.737 354.09 143.263 353.543 142.943C352.996 142.623 352.367 142.472 351.735 142.507C349.485 142.507 347.311 144.53 347.311 148.051C347.239 148.66 347.292 149.277 347.466 149.864C347.641 150.451 347.933 150.996 348.326 151.466C348.72 151.936 349.205 152.322 349.752 152.598C350.3 152.874 350.898 153.035 351.51 153.071C352.143 153.101 352.771 152.956 353.327 152.652C353.882 152.348 354.343 151.897 354.659 151.348V152.471C354.659 155.094 353.309 156.143 351.435 156.143C350.401 156.153 349.386 155.867 348.511 155.319L348.061 156.743C349.068 157.304 350.207 157.588 351.36 157.567C352.667 157.629 353.951 157.202 354.959 156.368C355.51 155.722 355.92 154.969 356.166 154.157C356.411 153.345 356.485 152.49 356.383 151.647V145.579C356.383 144.305 356.383 143.481 356.383 142.732H354.809V144.305ZM354.809 148.725C354.88 149.046 354.88 149.379 354.809 149.699C354.663 150.248 354.343 150.735 353.897 151.086C353.451 151.437 352.902 151.634 352.335 151.647C350.385 151.647 349.41 149.924 349.41 147.901C349.41 145.878 350.61 144.005 352.335 144.005C352.915 144.002 353.48 144.192 353.942 144.545C354.403 144.897 354.735 145.392 354.884 145.953C354.921 146.252 354.921 146.554 354.884 146.852L354.809 148.725Z" fill="#6F58AA"/>
<path d="M364.33 142.507C363.695 142.519 363.074 142.7 362.531 143.031C361.96 143.341 361.492 143.81 361.181 144.38V137.861H359.382V152.846H361.181V146.553C361.102 146.258 361.102 145.948 361.181 145.654C361.315 145.119 361.624 144.644 362.058 144.305C362.493 143.965 363.029 143.781 363.58 143.781C365.23 143.781 365.829 145.203 365.829 146.852V152.846H367.629V146.628C367.779 143.331 365.53 142.507 364.33 142.507Z" fill="#6F58AA"/>
<path d="M7.68037 52.5989H4.38151L0.0329072 57.9931C-0.423967 58.5692 -0.849307 59.1694 -1.24152 59.7912V45.3315H-3.94092V68.2575H-1.24152V62.3392L0.107954 60.7652L5.20611 68.2575H8.50497L1.9823 59.0421L7.68037 52.5989Z" fill="#6F58AA"/>
<path d="M16.3024 52.5989C11.9539 52.5989 9.32986 56.2701 9.32986 60.9902C9.20567 62.0209 9.31092 63.0661 9.63828 64.0514C9.96565 65.0366 10.507 65.9373 11.2234 66.689C11.9399 67.4408 12.814 68.0254 13.7828 68.4002C14.7516 68.775 15.791 68.9312 16.8272 68.8575C18.5283 68.9012 20.2183 68.5686 21.7757 67.8835L21.3259 65.8604C20.0308 66.4413 18.621 66.7228 17.202 66.6845C16.4967 66.7212 15.792 66.6048 15.1364 66.3424C14.4808 66.08 13.8902 65.6784 13.4053 65.1653C12.9204 64.6522 12.5528 64.04 12.3281 63.3709C12.1034 62.7018 12.0268 61.9918 12.1038 61.2902H22.5253C22.572 60.8419 22.572 60.3895 22.5253 59.9412C22.3754 57.0192 21.1007 52.5989 16.3024 52.5989ZM11.8792 59.1921C11.8792 57.2441 13.3036 54.6219 16.0777 54.6219C18.8517 54.6219 19.8264 57.394 19.8264 59.1921H11.8792Z" fill="#6F58AA"/>
<path d="M34.8959 52.5989L31.9718 61.8143C31.9718 62.9381 31.297 64.1373 30.9971 65.0364C30.9971 64.1373 30.3974 62.8633 30.0975 61.8893L26.7986 52.5989H23.8745L29.3474 67.0594C29.3919 67.282 29.3919 67.5109 29.3474 67.7335C29.3706 67.9827 29.3706 68.2333 29.3474 68.4825C28.8316 69.6998 28.0352 70.7783 27.0233 71.6296C26.3445 72.2271 25.5548 72.6848 24.6991 72.9777L25.3741 75.3758C26.6086 75.066 27.7439 74.4472 28.6729 73.5777C31.1076 70.7431 32.8525 67.3834 33.7711 63.7623L37.8195 52.5989H34.8959Z" fill="#6F58AA"/>
<path d="M87.5315 18.6285H89.2432V21.3165C88.7596 21.4206 88.2595 21.4206 87.7759 21.3165C87.3017 21.3386 86.8284 21.2564 86.3895 21.0756C85.9507 20.8947 85.5569 20.6198 85.2361 20.2701C84.9153 19.9204 84.6752 19.5047 84.533 19.0521C84.3908 18.5995 84.35 18.1209 84.4132 17.6507C84.3693 17.1739 84.4278 16.6934 84.5849 16.241C84.7419 15.7887 84.9938 15.3754 85.3238 15.0283C85.6538 14.6812 86.0541 14.4079 86.4981 14.228C86.9421 14.0481 87.4196 13.9654 87.8983 13.9849C88.576 13.9609 89.249 14.1076 89.8548 14.4122V13.4352C89.1804 13.1411 88.4504 12.9948 87.7147 13.0071C87.0872 12.9717 86.4596 13.0696 85.8723 13.2935C85.2851 13.5174 84.7517 13.8622 84.3072 14.3063C83.8628 14.7505 83.517 15.2835 83.293 15.8704C83.0689 16.4572 82.9717 17.0847 83.0071 17.7118C82.9628 18.9481 83.4014 20.1535 84.23 21.0726C84.6551 21.4907 85.1628 21.8153 85.7208 22.0258C86.2789 22.2362 86.8747 22.3275 87.4703 22.2943C88.3684 22.2858 89.2581 22.1206 90.0992 21.8058V17.406H87.287L87.5315 18.6285Z" fill="#6F58AA"/>
<path d="M94.5627 15.7566C94.1302 15.7779 93.7069 15.8887 93.3197 16.0825C92.9325 16.2763 92.5897 16.5487 92.3136 16.8821C92.0375 17.2154 91.8339 17.6024 91.7158 18.0187C91.5977 18.4351 91.5678 18.8715 91.6277 19.3001C91.5841 19.7233 91.6313 20.151 91.7662 20.5546C91.901 20.9582 92.1202 21.3283 92.4095 21.6405C92.6988 21.9527 93.0516 22.1994 93.4439 22.3647C93.8363 22.5301 94.2591 22.6106 94.6847 22.5997C95.4001 22.6051 96.1087 22.459 96.7637 22.1716V21.3161C96.2274 21.5639 95.6424 21.6895 95.0516 21.683C94.7487 21.7051 94.445 21.6582 94.1627 21.5466C93.8804 21.4349 93.6269 21.2611 93.4212 21.0379C93.2155 20.8147 93.0627 20.5481 92.9745 20.2577C92.8863 19.9674 92.865 19.661 92.9118 19.3612H97.2525C97.2631 19.1781 97.2631 18.9947 97.2525 18.8116C97.2952 18.4308 97.258 18.0448 97.1428 17.6794C97.0277 17.3139 96.8371 16.9765 96.5838 16.6889C96.3305 16.4012 96.0199 16.1701 95.6718 16.0094C95.3237 15.8488 94.9461 15.7627 94.5627 15.7566ZM92.7282 18.5669C92.7282 17.7115 93.3398 16.6113 94.4403 16.6113C95.5408 16.6113 96.03 17.7726 96.03 18.5669H92.7282Z" fill="#6F58AA"/>
<path d="M101.166 15.7567C100.724 15.7536 100.286 15.8439 99.8818 16.0229C99.4774 16.2019 99.1158 16.4655 98.8209 16.7949C98.526 17.1243 98.3044 17.5123 98.1712 17.9338C98.038 18.3552 97.996 18.8001 98.048 19.239C98.0056 19.66 98.0513 20.0851 98.182 20.4875C98.3127 20.89 98.5258 21.2613 98.8074 21.5772C99.0891 21.8931 99.4333 22.147 99.8184 22.323C100.203 22.4991 100.621 22.5934 101.044 22.5998C101.484 22.5933 101.917 22.4955 102.316 22.3134C102.716 22.1312 103.074 21.8687 103.367 21.5414C103.66 21.2142 103.882 20.8295 104.019 20.4122C104.156 19.9949 104.204 19.5538 104.162 19.1167C104.204 18.6957 104.159 18.2706 104.028 17.8681C103.898 17.4657 103.685 17.0944 103.403 16.7785C103.121 16.4625 102.777 16.2086 102.392 16.0326C102.007 15.8566 101.59 15.763 101.166 15.7567ZM101.166 21.8666C100.066 21.8666 99.2709 20.8277 99.2709 19.3613C99.2709 17.8949 99.8212 16.856 101.166 16.856C102.511 16.856 103.062 18.2615 103.062 19.3613C103.062 20.4611 102.144 21.6831 101.105 21.6831L101.166 21.8666Z" fill="#6F58AA"/>
<path d="M106.608 17.2228V16.1839H105.63C105.63 16.7949 105.63 17.4056 105.63 18.1999V22.6607H106.73V19.1777C106.701 18.9956 106.701 18.8101 106.73 18.628C106.76 18.2385 106.932 17.8737 107.214 17.6032C107.496 17.3327 107.868 17.1755 108.259 17.1617H108.626V16.0615H108.32C107.949 16.0516 107.584 16.1583 107.277 16.3666C106.97 16.5749 106.736 16.8746 106.608 17.2228Z" fill="#6F58AA"/>
<path d="M113.945 16.9169C113.767 16.5543 113.487 16.2512 113.139 16.045C112.792 15.8388 112.392 15.7389 111.988 15.7564C111.572 15.7942 111.168 15.9145 110.8 16.1114C110.431 16.3083 110.106 16.5771 109.844 16.902C109.582 17.2268 109.387 17.6015 109.273 18.0028C109.158 18.4042 109.125 18.8244 109.176 19.2387C109.133 19.6257 109.17 20.0173 109.284 20.3895C109.398 20.7617 109.587 21.1067 109.839 21.4039C110.09 21.701 110.4 21.9437 110.748 22.1176C111.097 22.2916 111.477 22.3934 111.866 22.416C112.259 22.4186 112.647 22.3187 112.99 22.1258C113.333 21.9329 113.62 21.6534 113.822 21.3158V22.049C113.822 23.6987 113.027 24.3097 111.866 24.3097C111.221 24.3195 110.586 24.1505 110.032 23.8211V24.7378C110.673 25.0711 111.388 25.2389 112.111 25.2263C112.929 25.2654 113.733 25.0047 114.373 24.4931C114.71 24.0775 114.959 23.598 115.106 23.0835C115.253 22.569 115.295 22.0302 115.228 21.4993V17.7112C115.228 16.9169 115.228 16.3668 115.228 15.9391H114.25L113.945 16.9169ZM113.945 19.666C113.975 19.8686 113.975 20.0751 113.945 20.2776C113.851 20.6275 113.644 20.9361 113.357 21.157C113.07 21.3778 112.717 21.4983 112.355 21.4993C111.132 21.4993 110.521 20.4606 110.521 19.1775C110.521 17.8944 111.316 16.6722 112.355 16.6722C112.726 16.6767 113.084 16.8057 113.372 17.0385C113.661 17.2712 113.862 17.5947 113.945 17.9558C113.978 18.1376 113.978 18.3237 113.945 18.5055V19.666Z" fill="#6F58AA"/>
<path d="M117.797 15.9396H116.696V22.4772H117.797V15.9396Z" fill="#6F58AA"/>
<path d="M117.307 13.3125C117.206 13.3122 117.105 13.3331 117.012 13.3737C116.919 13.4143 116.835 13.4735 116.766 13.5482C116.697 13.6229 116.644 13.7109 116.611 13.807C116.578 13.9031 116.565 14.0055 116.574 14.1068C116.573 14.2005 116.593 14.2933 116.63 14.3791C116.668 14.4649 116.723 14.5418 116.792 14.605C116.861 14.6683 116.943 14.7161 117.031 14.746C117.12 14.776 117.214 14.7873 117.307 14.7788C117.398 14.7884 117.49 14.7779 117.576 14.7475C117.662 14.7171 117.74 14.6672 117.805 14.6028C117.869 14.5384 117.918 14.4605 117.949 14.3746C117.979 14.2887 117.99 14.1974 117.98 14.1068C117.988 14.0105 117.978 13.9133 117.948 13.8212C117.919 13.729 117.872 13.6436 117.809 13.5698C117.747 13.496 117.67 13.435 117.584 13.3908C117.498 13.3467 117.404 13.3202 117.307 13.3125Z" fill="#6F58AA"/>
<path d="M124.094 20.8887V18.4446C124.094 17.1615 123.666 15.7566 121.77 15.7566C121.033 15.7538 120.31 15.966 119.692 16.3675V17.1618C120.181 16.8376 120.755 16.6668 121.342 16.6725C121.537 16.6517 121.735 16.6761 121.919 16.7434C122.103 16.8106 122.27 16.9195 122.406 17.0611C122.542 17.2027 122.643 17.3731 122.703 17.5601C122.762 17.747 122.778 17.9449 122.749 18.1388C120.364 18.1388 119.019 18.9944 119.019 20.583C119.001 20.8364 119.037 21.0908 119.126 21.3288C119.215 21.5668 119.354 21.7831 119.534 21.9628C119.714 22.1424 119.93 22.2812 120.168 22.37C120.406 22.4587 120.661 22.4956 120.915 22.4774C121.285 22.4727 121.649 22.3816 121.978 22.2119C122.307 22.0422 122.592 21.7984 122.81 21.4996V22.2939H123.849C123.9 21.8207 123.982 21.3514 124.094 20.8887ZM122.993 20.2167C123.023 20.3578 123.023 20.5031 122.993 20.6441C122.898 20.9554 122.703 21.2265 122.437 21.4146C122.172 21.6026 121.851 21.6971 121.526 21.6831C121.379 21.692 121.232 21.6695 121.094 21.6174C120.957 21.5653 120.832 21.4842 120.728 21.3803C120.624 21.2763 120.543 21.1515 120.491 21.014C120.439 20.8766 120.416 20.7297 120.425 20.583C120.425 19.2999 121.831 19.0555 123.054 19.1166L122.993 20.2167Z" fill="#6F58AA"/>
<path d="M128.538 37.0151L124.939 48.1036H126.363L127.488 44.6565H131.237L132.362 48.1036H133.861L130.187 37.0151H128.538ZM127.713 43.5334L128.763 40.3113C128.763 39.637 129.138 38.8876 129.288 38.2882C129.288 38.8876 129.288 39.5621 129.812 40.3113L130.862 43.5334H127.713Z" fill="#3A2D5D"/>
<path d="M136.41 46.9046C136.776 46.5397 137.102 46.1377 137.385 45.7056L140.834 41.0604V40.1614H134.986V41.2854H139.109C139.109 41.2854 138.434 42.0349 138.135 42.4844L134.686 47.2046V48.0287H140.609V46.9046H136.111H136.41Z" fill="#3A2D5D"/>
<path d="M145.182 39.9373C144.656 39.9742 144.143 40.1169 143.673 40.358C143.204 40.599 142.788 40.933 142.452 41.3393C142.115 41.7456 141.865 42.2163 141.716 42.7222C141.566 43.2281 141.522 43.7587 141.584 44.2825C141.528 44.8047 141.587 45.333 141.757 45.83C141.927 46.3269 142.205 46.7804 142.569 47.1588C142.933 47.5373 143.376 47.8313 143.867 48.0204C144.357 48.2095 144.883 48.2894 145.408 48.2536C146.255 48.2873 147.1 48.1333 147.881 47.8036V46.7546C147.189 46.9024 146.474 46.9024 145.782 46.7546C145.422 46.7666 145.062 46.7024 144.728 46.5653C144.395 46.4282 144.093 46.2219 143.845 45.9598C143.597 45.6977 143.408 45.386 143.289 45.0452C143.171 44.7045 143.126 44.3418 143.158 43.9825H148.106V43.3084C148.114 42.4869 147.821 41.6912 147.282 41.0704C146.744 40.4496 145.997 40.0468 145.182 39.9373ZM142.933 43.3834C142.933 42.3345 143.683 40.9854 145.107 40.9854C146.532 40.9854 147.057 42.4094 146.982 43.3834H142.933Z" fill="#3A2D5D"/>
<path d="M151.33 41.7356V40.1616H150.13C150.173 40.9852 150.173 41.811 150.13 42.6346V48.1039H151.48V43.8328C151.48 43.8328 151.48 43.3835 151.48 43.1587C151.48 42.9339 152.38 41.2856 153.354 41.2856H153.804V39.9375C153.238 39.8511 152.66 39.9914 152.197 40.3281C151.734 40.6648 151.422 41.1706 151.33 41.7356Z" fill="#3A2D5D"/>
<path d="M159.277 39.9372C158.743 39.9159 158.214 40.0445 157.75 40.3095C157.286 40.5745 156.906 40.9648 156.653 41.4353V36.4152H155.604V46.0805C155.644 46.7542 155.644 47.4299 155.604 48.1036H156.803V46.8296C157.028 47.3065 157.391 47.7046 157.846 47.9719C158.301 48.2392 158.826 48.3638 159.352 48.3286C161.077 48.3286 162.801 46.9045 162.801 44.0575C162.801 41.2104 161.151 39.9372 159.277 39.9372ZM158.752 47.4296C158.272 47.4149 157.809 47.2469 157.432 46.9503C157.054 46.6537 156.781 46.2433 156.653 45.7806V43.7575C156.617 43.5594 156.617 43.3565 156.653 43.1584C156.755 42.6757 157.019 42.2424 157.401 41.9292C157.782 41.616 158.259 41.4417 158.752 41.4353C160.252 41.4353 161.001 42.7841 161.001 44.3575C161.001 45.9308 160.252 47.1296 158.752 47.1296V47.4296Z" fill="#3A2D5D"/>
<path d="M169.548 43.2334C169.548 41.5851 169.024 39.9373 166.624 39.9373C165.743 39.9352 164.882 40.1959 164.151 40.6863V41.5854C164.765 41.2195 165.46 41.0128 166.175 40.9854C167.749 40.9854 167.899 42.1842 167.899 42.8585C164.975 42.8585 163.326 43.9076 163.326 45.8556C163.316 46.1634 163.368 46.4699 163.482 46.7564C163.595 47.043 163.765 47.3032 163.983 47.521C164.201 47.7388 164.462 47.9101 164.748 48.0231C165.035 48.1362 165.342 48.1891 165.65 48.1786C166.104 48.1728 166.55 48.0611 166.954 47.853C167.357 47.645 167.707 47.346 167.974 46.9796V47.9536H169.249C169.206 47.33 169.206 46.7042 169.249 46.0806L169.548 43.2334ZM168.199 45.4065C168.235 45.5794 168.235 45.7576 168.199 45.9306C168.083 46.3123 167.843 46.6448 167.518 46.8753C167.192 47.1059 166.799 47.2218 166.4 47.2046C166.22 47.2155 166.039 47.188 165.871 47.1241C165.702 47.0602 165.548 46.9607 165.421 46.8333C165.293 46.7058 165.195 46.5528 165.131 46.3842C165.067 46.2156 165.039 46.0355 165.05 45.8556C165.05 44.2822 166.775 43.9826 168.274 44.0575L168.199 45.4065Z" fill="#3A2D5D"/>
<path d="M173.147 40.1616H171.723V48.1784H173.147V40.1616Z" fill="#3A2D5D"/>
<path d="M172.472 36.9402C172.354 36.9496 172.239 36.9821 172.133 37.0362C172.028 37.0904 171.934 37.1652 171.857 37.2557C171.781 37.3463 171.723 37.4509 171.687 37.5639C171.651 37.677 171.638 37.7961 171.648 37.9142C171.636 38.0253 171.649 38.1372 171.686 38.2426C171.723 38.3479 171.784 38.4434 171.863 38.5224C171.942 38.6014 172.038 38.6626 172.143 38.6999C172.249 38.7371 172.361 38.7501 172.472 38.7383C172.584 38.7501 172.696 38.7371 172.801 38.6999C172.907 38.6626 173.003 38.6014 173.082 38.5224C173.161 38.4434 173.221 38.3479 173.259 38.2426C173.296 38.1372 173.309 38.0253 173.297 37.9142C173.307 37.7961 173.294 37.677 173.258 37.5639C173.222 37.4509 173.164 37.3463 173.087 37.2557C173.011 37.1652 172.917 37.0904 172.811 37.0362C172.706 36.9821 172.591 36.9496 172.472 36.9402Z" fill="#3A2D5D"/>
<path d="M175.621 46.8296C175.621 48.7027 175.621 49.3772 175.096 49.8267C174.898 50.0206 174.664 50.1729 174.407 50.2758C174.149 50.3787 173.874 50.4298 173.597 50.4258V51.5498C174.483 51.5692 175.341 51.2473 175.996 50.6508C176.718 49.7131 177.042 48.529 176.896 47.3546V39.8623H175.472L175.621 46.8296Z" fill="#3A2D5D"/>
<path d="M176.371 36.9402C176.246 36.9398 176.123 36.9654 176.008 37.0152C175.894 37.065 175.791 37.1376 175.707 37.2292C175.622 37.3208 175.557 37.4287 175.517 37.5466C175.476 37.6644 175.461 37.79 175.472 37.9142C175.46 38.0253 175.473 38.1372 175.51 38.2426C175.547 38.3479 175.608 38.4434 175.687 38.5224C175.766 38.6014 175.862 38.6626 175.967 38.6999C176.073 38.7371 176.185 38.7501 176.296 38.7383C176.411 38.7487 176.526 38.7347 176.635 38.698C176.744 38.6613 176.844 38.6028 176.929 38.5252C177.013 38.4476 177.081 38.3533 177.127 38.2481C177.173 38.1428 177.196 38.0291 177.196 37.9142C177.206 37.7961 177.193 37.677 177.157 37.5639C177.121 37.4509 177.063 37.3463 176.986 37.2557C176.91 37.1652 176.816 37.0904 176.71 37.0362C176.605 36.9821 176.489 36.9496 176.371 36.9402Z" fill="#3A2D5D"/>
<path d="M184.618 43.2335C184.618 41.5852 184.093 39.9373 181.769 39.9373C180.865 39.9339 179.979 40.1941 179.22 40.6863V41.5854C179.843 41.2402 180.534 41.035 181.244 40.9854C182.819 40.9854 182.969 42.1842 182.969 42.8585C180.045 42.8585 178.395 43.9076 178.395 45.8556C178.385 46.1634 178.438 46.4699 178.551 46.7565C178.664 47.043 178.835 47.3033 179.053 47.5211C179.271 47.7389 179.531 47.9101 179.818 48.0232C180.105 48.1362 180.411 48.1891 180.72 48.1786C181.175 48.1788 181.623 48.0699 182.028 47.8613C182.432 47.6527 182.78 47.3504 183.044 46.9796V47.9537H184.319C184.275 47.33 184.275 46.7042 184.319 46.0806L184.618 43.2335ZM183.344 45.4065C183.376 45.5798 183.376 45.7573 183.344 45.9306C183.24 46.3195 183.003 46.6601 182.674 46.8927C182.346 47.1254 181.946 47.2357 181.545 47.2046C181.364 47.2155 181.184 47.188 181.015 47.1241C180.846 47.0602 180.693 46.9608 180.566 46.8333C180.438 46.7058 180.339 46.5528 180.275 46.3842C180.211 46.2156 180.184 46.0355 180.195 45.8556C180.195 44.2822 181.919 43.9826 183.493 44.0575L183.344 45.4065Z" fill="#3A2D5D"/>
<path d="M190.691 39.9375C190.169 39.9302 189.656 40.0657 189.206 40.3299C188.757 40.5941 188.389 40.9766 188.142 41.4356V40.1616H186.867C186.909 40.8603 186.909 41.561 186.867 42.2597V48.1039H188.292V43.3087C188.255 43.0854 188.255 42.858 188.292 42.6347C188.403 42.2178 188.645 41.847 188.983 41.5774C189.32 41.3078 189.735 41.153 190.166 41.1356C191.441 41.1356 191.891 42.26 191.891 43.5337V48.1039H193.09V43.3837C193.09 40.6116 191.741 39.9375 190.691 39.9375Z" fill="#3A2D5D"/>
<path d="M0.932458 174.724C0.932458 176.897 0.182575 177.496 -1.09198 177.496C-1.46521 177.546 -1.84308 177.546 -2.21631 177.496V178.619C-1.72013 178.704 -1.21293 178.704 -0.716743 178.619C1.08263 178.619 2.50707 177.721 2.50707 174.724V167.232H1.1576L0.932458 174.724Z" fill="#6F58AA"/>
<path d="M5.65619 143.406C6.14913 143.187 6.56766 142.83 6.8606 142.378C7.15354 141.925 7.30796 141.397 7.30539 140.858C7.30782 140.487 7.23183 140.119 7.08162 139.78C6.93141 139.441 6.71049 139.137 6.43411 138.889C6.15773 138.641 5.83202 138.455 5.47818 138.342C5.12434 138.23 4.75069 138.194 4.38176 138.236C3.97959 138.195 3.57287 138.236 3.18788 138.36C2.80288 138.483 2.44796 138.686 2.145 138.953C1.84203 139.221 1.59784 139.548 1.42794 139.915C1.25803 140.281 1.16618 140.679 1.15795 141.083C1.16532 141.601 1.32568 142.105 1.61921 142.531C1.91274 142.958 2.32608 143.288 2.80715 143.481C2.22034 143.694 1.71221 144.08 1.3506 144.589C0.98899 145.098 0.790892 145.704 0.782715 146.328C0.800224 146.752 0.905574 147.168 1.09205 147.55C1.27854 147.931 1.54225 148.269 1.86632 148.544C2.19039 148.818 2.56798 149.023 2.97509 149.145C3.38221 149.266 3.81002 149.302 4.23167 149.25C4.66344 149.291 5.09934 149.243 5.51159 149.108C5.92383 148.973 6.30342 148.754 6.62722 148.466C6.95102 148.178 7.21203 147.825 7.39325 147.432C7.57447 147.038 7.67228 146.611 7.68062 146.178C7.69082 145.558 7.49863 144.953 7.13333 144.453C6.76803 143.952 6.24939 143.585 5.65619 143.406ZM2.50742 140.933C2.49674 140.704 2.53391 140.475 2.61679 140.261C2.69967 140.047 2.82651 139.853 2.98882 139.69C3.15112 139.528 3.3454 139.402 3.55945 139.319C3.7735 139.236 4.00238 139.2 4.23167 139.21C4.467 139.189 4.7041 139.218 4.92723 139.295C5.15035 139.373 5.35423 139.498 5.52486 139.661C5.69548 139.825 5.82924 140.022 5.91656 140.242C6.00389 140.461 6.04271 140.698 6.03096 140.933C6.01296 141.384 5.8501 141.816 5.5665 142.167C5.28289 142.518 4.89393 142.769 4.45681 142.881C3.48215 142.507 2.7321 141.982 2.7321 140.933H2.50742ZM4.23167 148.426C3.96301 148.436 3.69496 148.391 3.44459 148.293C3.19422 148.195 2.96707 148.046 2.77695 147.856C2.58683 147.666 2.43794 147.439 2.33994 147.189C2.24194 146.939 2.19669 146.671 2.20723 146.403C2.19973 145.866 2.38468 145.344 2.72844 144.932C3.07221 144.52 3.5521 144.244 4.08158 144.155C5.4311 144.604 6.33115 145.204 6.33115 146.553C6.26113 147.003 6.03483 147.415 5.69234 147.716C5.34985 148.017 4.91287 148.189 4.45681 148.201L4.23167 148.426Z" fill="#6F58AA"/>
<path d="M302.402 3.44876C302.402 6.67045 301.127 8.09487 299.103 8.09487C297.079 8.09487 295.879 6.74537 295.879 3.44876V-5.09167H294.08V3.44876C294.08 7.94414 296.179 9.59296 299.028 9.59296C301.877 9.59296 304.201 7.79514 304.201 3.37467V-5.09167H302.402V3.44876Z" fill="#6F58AA"/>
<path d="M308.25 7.64492L309.524 6.07183L313.948 0.00261474V-1.19641H306.45V0.377596H311.774L310.499 2.02569L306 8.16898V9.21801H314.098V7.71992H308.25V7.64492Z" fill="#6F58AA"/>
<path d="M321.07 -1.27044C320.389 -1.30809 319.712 -1.14342 319.125 -0.796681C318.538 -0.449944 318.067 0.062439 317.771 0.676722V-5.84155H315.972V6.67094C315.972 7.64494 315.972 8.69375 315.972 9.36806H317.546V7.64497C317.85 8.2531 318.322 8.76084 318.908 9.10649C319.493 9.45213 320.166 9.62099 320.845 9.59305C323.019 9.59305 325.269 7.79497 325.269 4.04881C325.269 0.302655 323.544 -1.27044 321.07 -1.27044ZM320.47 8.09495C319.844 8.07977 319.24 7.8585 318.752 7.46571C318.264 7.07293 317.92 6.53024 317.771 5.92189C317.771 5.92189 317.771 5.47261 317.771 5.24784V3.37476C317.771 3.37476 317.771 2.77457 317.771 2.5498C317.906 1.90767 318.253 1.32942 318.756 0.908113C319.259 0.486802 319.889 0.247413 320.545 0.227659C322.42 0.227659 323.47 2.02596 323.47 4.12381C323.47 6.22165 322.345 8.09495 320.545 8.09495H320.47Z" fill="#6F58AA"/>
<path d="M331.492 -1.27051C328.568 -1.27051 326.844 1.20196 326.844 4.34873C326.768 5.02399 326.838 5.70716 327.051 6.35259C327.264 6.99802 327.613 7.58961 328.076 8.08756C328.539 8.58552 329.104 8.97839 329.732 9.23812C330.36 9.49785 331.037 9.61881 331.717 9.59298C332.853 9.62107 333.981 9.39074 335.015 8.91893V7.56991C334.14 7.94501 333.193 8.12453 332.242 8.09488C331.772 8.11999 331.303 8.04224 330.867 7.86715C330.431 7.69205 330.039 7.4232 329.717 7.0806C329.396 6.738 329.153 6.32953 329.007 5.88341C328.86 5.43728 328.812 4.96415 328.868 4.4978H335.54C335.59 4.22528 335.59 3.94628 335.54 3.67376C335.54 1.72576 334.716 -1.27051 331.492 -1.27051ZM328.568 3.1497C328.568 1.87601 329.542 0.0775961 331.342 0.0775961C333.141 0.0775961 333.816 1.95093 333.816 3.1497H328.568Z" fill="#6F58AA"/>
<path d="M345.587 -1.04636H343.413L340.488 2.5498L339.589 3.74883V-5.84155H337.79V9.14307H339.589V5.24784L340.488 4.1988L343.937 9.14307H346.112L341.763 3.07477L345.587 -1.04636Z" fill="#6F58AA"/>
<path d="M349.485 -0.971191H347.686V9.44312H349.485V-0.971191Z" fill="#6F58AA"/>
<path d="M355.708 3.37466C354.434 2.8502 353.834 2.47474 353.834 1.57567C353.843 1.37199 353.894 1.17285 353.983 0.989415C354.072 0.805981 354.198 0.642516 354.352 0.509256C354.506 0.375997 354.686 0.276097 354.881 0.214759C355.076 0.153421 355.28 0.131973 355.483 0.152567C356.199 0.169929 356.898 0.376428 357.508 0.751622L357.957 -0.596482C357.217 -1.06046 356.356 -1.29484 355.483 -1.27053C355.057 -1.3011 354.63 -1.2456 354.227 -1.10591C353.823 -0.966215 353.453 -0.745695 353.137 -0.458379C352.822 -0.171062 352.568 0.177578 352.391 0.565961C352.215 0.954343 352.119 1.37414 352.11 1.80066C352.11 3.07435 352.934 4.04846 354.734 4.72277C356.533 5.39707 356.533 5.77176 356.533 6.67084C356.533 7.56992 355.933 8.16894 354.659 8.16894C353.805 8.14802 352.973 7.88866 352.259 7.41989L351.81 8.9189C352.667 9.36076 353.618 9.59167 354.584 9.59295C356.983 9.59295 358.332 8.31893 358.332 6.44585C358.332 4.57277 357.433 4.04897 355.708 3.37466Z" fill="#6F58AA"/>
<path d="M362.756 -3.96851L361.032 -3.51853V-1.04639H359.457V0.452616H361.032V6.07185C360.902 7.02414 361.143 7.98967 361.706 8.76897C361.95 9.04188 362.251 9.25752 362.588 9.40004C362.925 9.54255 363.29 9.60828 363.656 9.59302C364.178 9.65729 364.707 9.65729 365.23 9.59302V7.64494H364.18C363.206 7.64494 362.831 6.97049 362.831 5.62187V0.152631H365.53V-1.34547H362.906L362.756 -3.96851Z" fill="#6F58AA"/>
<path d="M374.302 3.00002C374.302 0.902175 373.627 -1.27019 370.553 -1.27019C369.404 -1.28232 368.279 -0.943278 367.329 -0.297071V0.901955C368.124 0.428578 369.028 0.170531 369.953 0.152907C370.268 0.126939 370.585 0.172854 370.88 0.286437C371.176 0.400019 371.441 0.578146 371.657 0.808667C371.873 1.03919 372.035 1.31559 372.129 1.61716C372.224 1.91873 372.249 2.23746 372.202 2.55004C368.379 2.55004 366.205 3.89873 366.205 6.3712C366.194 6.77412 366.266 7.17568 366.418 7.54919C366.57 7.92269 366.797 8.26004 367.086 8.54152C367.374 8.82299 367.718 9.04222 368.095 9.18447C368.473 9.32672 368.876 9.38912 369.278 9.3683C369.865 9.39408 370.448 9.27017 370.972 9.00796C371.497 8.74575 371.946 8.35427 372.278 7.87021V9.14332H373.927C373.842 8.32134 373.842 7.49316 373.927 6.67118L374.302 3.00002ZM372.577 5.84714C372.62 6.04467 372.62 6.24866 372.577 6.44619C372.419 6.96083 372.101 7.4127 371.67 7.73576C371.239 8.05883 370.717 8.2364 370.178 8.24427C369.942 8.25601 369.706 8.21722 369.487 8.12995C369.267 8.04269 369.069 7.90902 368.905 7.73851C368.742 7.56799 368.617 7.36425 368.539 7.14128C368.461 6.91831 368.432 6.68136 368.454 6.44619C368.454 4.42327 370.703 4.04906 372.652 4.04906L372.577 5.84714Z" fill="#6F58AA"/>
<path d="M236 54.1014H239.68V65.3955H241.257V54.1014H244.936V52.7224H236V54.1014Z" fill="#6F58AA"/>
<path d="M252.756 56.2683H251.179V61.8496C251.246 62.1302 251.246 62.4226 251.179 62.7032C251.032 63.1317 250.759 63.506 250.395 63.7757C250.032 64.0455 249.594 64.1977 249.142 64.2134C247.696 64.2134 247.171 63.0318 247.171 61.3246V56.2683H245.593V61.5867C245.593 64.8042 247.236 65.5929 248.616 65.5929C249.204 65.5811 249.779 65.4174 250.286 65.1183C250.792 64.8192 251.213 64.3948 251.507 63.8855V65.3957H252.953C252.953 64.6734 252.953 63.8197 252.953 62.9004L252.756 56.2683Z" fill="#6F58AA"/>
<path d="M256.764 58.0414V56.2683H255.385C255.385 57.1219 255.385 58.0416 255.385 59.0922V65.6586H256.962V60.7987C256.962 60.7987 256.962 60.2078 256.962 60.0108C256.993 59.4637 257.224 58.9474 257.612 58.56C258 58.1725 258.517 57.9412 259.064 57.9099H259.656V56.3998H259.196C258.675 56.4093 258.168 56.5693 257.737 56.8607C257.305 57.152 256.968 57.5622 256.764 58.0414Z" fill="#6F58AA"/>
<path d="M268.066 56.2683H266.16L263.663 59.42L262.875 60.4709V52H261.364V65.1328H262.612V61.981L263.466 61.0616L266.423 65.4614H268.329L264.518 60.0765L268.066 56.2683Z" fill="#6F58AA"/>
<path d="M279.499 56.0715C278.803 56.0358 278.12 56.271 277.594 56.728C277.202 57.0647 276.869 57.4645 276.608 57.9103C276.463 57.3786 276.145 56.9099 275.706 56.5773C275.266 56.2447 274.728 56.0666 274.177 56.0715C273.61 56.0659 273.053 56.2165 272.567 56.506C272.08 56.7955 271.682 57.2129 271.417 57.7131V56.2687H270.037C270.037 56.991 270.037 57.779 270.037 58.6983V65.2646H271.614V59.7491C271.544 59.4911 271.544 59.2192 271.614 58.9612C271.709 58.5114 271.945 58.1034 272.288 57.7965C272.63 57.4896 273.062 57.2996 273.519 57.2539C274.768 57.2539 275.359 58.3046 275.359 59.8148V65.2646H276.871V59.6177C276.834 59.3343 276.834 59.0474 276.871 58.764C276.993 58.346 277.242 57.9765 277.583 57.7059C277.924 57.4354 278.341 57.2773 278.776 57.2539C280.025 57.2539 280.616 58.304 280.616 60.0769V65.2646H282.325V59.8806C282.325 56.86 280.682 56.0715 279.499 56.0715Z" fill="#6F58AA"/>
<path d="M288.37 56.0713C287.776 56.1028 287.195 56.256 286.663 56.5217C286.13 56.7874 285.658 57.1601 285.276 57.6159C284.894 58.0717 284.61 58.6015 284.442 59.1717C284.273 59.742 284.223 60.3402 284.296 60.9303C284.23 61.5221 284.292 62.1217 284.478 62.6873C284.664 63.253 284.971 63.7715 285.377 64.2079C285.782 64.6443 286.277 64.9886 286.828 65.2163C287.378 65.4439 287.972 65.5499 288.568 65.5273C289.559 65.5725 290.547 65.3924 291.459 65.0015V63.82C290.694 64.1573 289.862 64.3142 289.028 64.2792C288.616 64.3013 288.205 64.2331 287.823 64.0797C287.441 63.9262 287.097 63.6914 286.815 63.3911C286.533 63.0909 286.321 62.7329 286.192 62.3419C286.064 61.9509 286.022 61.5362 286.071 61.1275H292.181C292.181 61.1275 292.181 60.6679 292.181 60.3396C292.247 59.8022 292.197 59.257 292.035 58.7405C291.873 58.224 291.602 57.748 291.242 57.3441C290.881 56.9403 290.439 56.6178 289.944 56.3983C289.448 56.1788 288.912 56.0673 288.37 56.0713ZM285.808 59.9452C285.808 58.7633 286.662 57.2536 288.239 57.2536C289.816 57.2536 290.473 58.8946 290.473 59.9452H285.808Z" fill="#6F58AA"/>
<path d="M298.225 56.0709C297.641 56.0592 297.066 56.2136 296.565 56.5158C296.065 56.818 295.661 57.2557 295.4 57.7783V56.2681H293.955C293.955 56.9904 293.955 57.7784 293.955 58.6977V65.264H295.466V59.7485C295.434 59.4868 295.434 59.2223 295.466 58.9606C295.583 58.4919 295.854 58.0757 296.235 57.7783C296.616 57.4808 297.085 57.3192 297.568 57.319C299.08 57.319 299.605 58.5003 299.605 60.0106V65.264H301.182V59.8142C301.314 56.7937 299.408 56.0709 298.225 56.0709Z" fill="#6F58AA"/>
<path d="M305.454 56.2683H303.877V65.3956H305.454V56.2683Z" fill="#6F58AA"/>
<path d="M304.665 52.6565C304.53 52.6562 304.396 52.6839 304.272 52.7375C304.148 52.791 304.036 52.8698 303.944 52.9683C303.851 53.0668 303.78 53.1834 303.735 53.3106C303.689 53.4378 303.671 53.5726 303.68 53.7073C303.671 53.8368 303.687 53.9668 303.729 54.0897C303.77 54.2126 303.836 54.3263 303.921 54.4239C304.006 54.5216 304.111 54.6014 304.227 54.6588C304.343 54.7162 304.47 54.7498 304.6 54.7582C304.74 54.7679 304.881 54.7474 305.013 54.6981C305.145 54.6487 305.265 54.5716 305.364 54.472C305.464 54.3725 305.541 54.2528 305.591 54.1209C305.64 53.9891 305.66 53.8478 305.651 53.7073C305.66 53.5726 305.641 53.4378 305.595 53.3106C305.55 53.1834 305.479 53.0668 305.386 52.9683C305.294 52.8698 305.182 52.791 305.058 52.7375C304.934 52.6839 304.801 52.6562 304.665 52.6565Z" fill="#6F58AA"/>
<path d="M310.842 60.0765C309.725 59.6169 309.2 59.2887 309.2 58.5664C309.2 57.8441 309.725 57.3191 310.645 57.3191C311.279 57.2903 311.904 57.475 312.419 57.8442L312.813 56.5969C312.166 56.252 311.444 56.0711 310.711 56.0711C310.336 56.025 309.955 56.0585 309.594 56.1689C309.233 56.2792 308.899 56.4639 308.614 56.7115C308.329 56.9592 308.099 57.2639 307.94 57.6061C307.78 57.9482 307.694 58.3204 307.688 58.6978C307.688 59.8141 308.411 60.7336 309.988 61.3245C311.565 61.9155 311.631 62.1782 311.631 62.9661C311.631 63.7541 311.105 64.3448 309.922 64.3448C309.174 64.3265 308.445 64.0992 307.82 63.6883L307.425 64.9356C308.19 65.3524 309.052 65.5571 309.922 65.5271C311.959 65.5271 313.142 64.4106 313.142 62.8347C313.142 61.2587 312.354 60.6675 310.842 60.0765Z" fill="#6F58AA"/>
<path d="M317.084 53.6417L315.507 54.1018V56.2684H314.193V57.5157H315.507V62.5062C315.449 63.3368 315.657 64.1643 316.099 64.87C316.318 65.0973 316.585 65.2744 316.88 65.3878C317.175 65.5012 317.492 65.5489 317.807 65.5273C318.285 65.6148 318.775 65.6148 319.253 65.5273V64.2792H318.333C317.413 64.2792 317.15 63.6225 317.15 62.5062V57.5814H319.384V56.3342H317.15L317.084 53.6417Z" fill="#6F58AA"/>
<path d="M327.203 59.7489C327.203 57.976 326.546 56.0714 323.918 56.0714C322.9 56.0626 321.899 56.3352 321.026 56.8593L321.421 57.9759C322.071 57.5061 322.852 57.2535 323.654 57.2537C323.931 57.2309 324.208 57.2704 324.467 57.3699C324.726 57.4694 324.958 57.6264 325.148 57.8284C325.337 58.0304 325.479 58.2727 325.562 58.537C325.645 58.8013 325.667 59.0806 325.626 59.3546C322.275 59.3546 320.435 60.5366 320.435 62.7692C320.416 63.1191 320.471 63.4688 320.596 63.796C320.722 64.1233 320.915 64.4211 321.163 64.6689C321.411 64.9167 321.708 65.1095 322.035 65.2348C322.363 65.3601 322.713 65.4149 323.063 65.3959C323.582 65.4052 324.095 65.2834 324.554 65.0424C325.013 64.8014 325.404 64.4492 325.691 64.0172V65.1987H327.137C327.068 64.4562 327.068 63.709 327.137 62.9664L327.203 59.7489ZM325.691 62.3099C325.714 62.4843 325.714 62.6606 325.691 62.8349C325.55 63.2792 325.269 63.6658 324.89 63.9379C324.512 64.21 324.055 64.3529 323.589 64.3451C323.388 64.3459 323.188 64.3047 323.004 64.224C322.819 64.1434 322.654 64.0253 322.517 63.877C322.381 63.7286 322.277 63.5531 322.213 63.3624C322.149 63.1716 322.125 62.9697 322.143 62.7692C322.143 60.9963 324.049 60.6684 325.823 60.7341L325.691 62.3099Z" fill="#6F58AA"/>
<path d="M334.037 56.0709C333.452 56.0592 332.877 56.2136 332.376 56.5158C331.876 56.818 331.472 57.2557 331.211 57.7783V56.2681H329.766C329.766 56.9904 329.766 57.7784 329.766 58.6977V65.264H331.277V59.7485C331.246 59.4868 331.246 59.2223 331.277 58.9606C331.394 58.4919 331.665 58.0757 332.046 57.7783C332.427 57.4808 332.896 57.3192 333.38 57.319C334.891 57.319 335.417 58.5003 335.417 60.0106V65.264H336.994V59.8142C337.125 56.7937 335.22 56.0709 334.037 56.0709Z" fill="#6F58AA"/>
<path d="M187.917 280.365L192.641 281.414C192.641 281.414 195.864 283.062 197.214 282.537C198.563 282.013 198.563 280.44 197.214 277.967C195.864 275.495 199.538 274.82 200.588 274.221C201.637 273.622 201.412 268.677 200.963 267.404C200.065 265.812 198.955 264.35 197.664 263.057C196.839 262.009 195.565 262.234 195.565 261.634C195.565 261.035 192.491 263.657 191.891 264.107C191.291 264.556 189.567 269.052 188.967 269.277C188.367 269.501 188.292 274.446 187.917 275.27C187.647 276.957 187.647 278.678 187.917 280.365Z" fill="#09637F"/>
</g>
</g>
<rect x="5.5" y="5.5" width="356" height="554" stroke="#201542" stroke-width="11"/>
<defs>
<clipPath id="clip0_2253_66530">
<rect width="367" height="565" fill="white"/>
</clipPath>
<clipPath id="clip1_2253_66530">
<rect width="685.859" height="712.968" fill="white" transform="translate(-177.43 -46)"/>
</clipPath>
</defs>
</svg>
