<svg width="748" height="354" viewBox="0 0 748 354" fill="none" xmlns="http://www.w3.org/2000/svg">
<g filter="url(#filter0_d_7_756)">
<path d="M708 292.713C708 310.386 553.986 324.713 364 324.713C174.014 324.713 20 310.386 20 292.713V282.213H708C708 282.213 708 284.176 708 292.713Z" fill="#1F970C"/>
</g>
<g filter="url(#filter1_d_7_756)">
<ellipse cx="364" cy="282" rx="344" ry="32" fill="#4DDA36"/>
</g>
<path d="M548 282C548 292 465.62 295 364 295C262.38 295 180 290.501 180 282C180 273.5 262.38 269 364 269C465.62 269 548 272.001 548 282Z" stroke="white" stroke-width="3"/>
<path d="M371 282C371 283.538 367.866 284 364 284C360.134 284 357 283.308 357 282C357 280.692 360.134 280 364 280C367.866 280 371 280.462 371 282Z" fill="white"/>
<path d="M331.097 195.482H330.556C326.824 195.482 323.245 194 320.606 191.361C317.967 188.722 316.484 185.143 316.484 181.411V163.456C316.484 159.724 317.967 156.144 320.606 153.505C323.245 150.866 326.824 149.384 330.556 149.384H331.097C337.205 149.384 343.063 151.81 347.383 156.129C351.702 160.449 354.128 166.307 354.128 172.415V172.46C354.128 178.568 351.702 184.426 347.383 188.745C343.063 193.064 337.205 195.491 331.097 195.491V195.482Z" fill="#FFAF77" stroke="black" stroke-width="4.512" stroke-miterlimit="10"/>
<path d="M377.48 249.666H421.075V263.202C421.075 267.564 419.342 271.748 416.257 274.833C413.172 277.918 408.988 279.651 404.626 279.651H393.924C389.561 279.651 385.377 277.918 382.293 274.833C379.208 271.748 377.475 267.564 377.475 263.202V249.666H377.48Z" fill="black" stroke="black" stroke-width="4.512" stroke-linecap="round" stroke-linejoin="round"/>
<path d="M364.695 216.985L370.822 243.087C372.13 248.659 375.282 253.625 379.768 257.18C384.253 260.735 389.808 262.669 395.531 262.669H407.093C409.167 262.669 411.214 262.212 413.091 261.33C414.967 260.448 416.626 259.163 417.949 257.566C419.272 255.97 420.227 254.102 420.745 252.094C421.264 250.087 421.333 247.989 420.948 245.952L414.978 214.351" fill="#FFAF77"/>
<path d="M364.695 216.985L370.822 243.087C372.13 248.659 375.282 253.625 379.768 257.18C384.253 260.735 389.808 262.669 395.531 262.669H407.093C409.167 262.669 411.214 262.212 413.091 261.33C414.967 260.448 416.626 259.163 417.949 257.566C419.272 255.97 420.227 254.102 420.745 252.094C421.264 250.087 421.333 247.989 420.948 245.952L414.978 214.351" stroke="black" stroke-width="4.512" stroke-miterlimit="10"/>
<path d="M420.948 245.952L419.676 239.209C419.112 242.487 417.408 245.459 414.864 247.602C412.321 249.745 409.102 250.919 405.777 250.918H385.018C380.549 250.92 376.16 249.739 372.295 247.495C374.276 252.007 377.529 255.845 381.655 258.539C385.782 261.234 390.603 262.669 395.531 262.669H407.093C409.167 262.669 411.215 262.212 413.091 261.33C414.967 260.448 416.626 259.163 417.949 257.566C419.272 255.97 420.227 254.102 420.745 252.094C421.264 250.087 421.333 247.989 420.948 245.952Z" fill="white" stroke="black" stroke-width="4.512" stroke-linecap="round" stroke-linejoin="round"/>
<path d="M361.344 232.004V214.568" stroke="black" stroke-width="4.512" stroke-linecap="round" stroke-linejoin="round"/>
<path d="M286.093 167.44V211.032L332.485 220.431V176.839L286.093 167.44Z" fill="#FFAF77" stroke="black" stroke-width="4.512" stroke-miterlimit="10"/>
<path d="M274.658 208.683V156.231H275.03C277.964 156.231 280.778 157.398 282.853 159.473C284.927 161.548 286.093 164.362 286.093 167.296V211.04L274.658 208.683Z" fill="black" stroke="black" stroke-width="4.512" stroke-linecap="round" stroke-linejoin="round"/>
<path d="M364.743 228.386V180.142L326.21 171.304V221.9L364.743 228.386Z" fill="#37F9FF" stroke="black" stroke-width="4.512" stroke-linecap="round" stroke-linejoin="round"/>
<path d="M303.551 170.977L286.093 167.438V211.032L303.551 214.568V170.977Z" fill="white" stroke="black" stroke-width="4.512" stroke-linecap="round" stroke-linejoin="round"/>
<path d="M348.79 214.568H355.704L361.344 232.007H394.533L399.037 226.474L403.523 232.007H421.34L410.274 192.44H350" fill="#37F9FF"/>
<path d="M348.79 214.568H355.704L361.344 232.007H394.533L399.037 226.474L403.523 232.007H421.34L410.274 192.44H350" stroke="black" stroke-width="4.512" stroke-linecap="round" stroke-linejoin="round"/>
<path d="M409.397 191.658H353.956C348.651 191.658 343.517 189.788 339.454 186.378C335.391 182.967 332.66 178.234 331.74 173.01L330.048 163.461C329.619 161.028 329.729 158.531 330.369 156.145C331.008 153.758 332.163 151.541 333.751 149.649C335.339 147.756 337.322 146.235 339.561 145.191C341.8 144.147 344.241 143.606 346.711 143.606H400.929L409.397 191.658Z" fill="#37F9FF" stroke="black" stroke-width="4.512" stroke-linecap="round" stroke-linejoin="round"/>
<path d="M377.534 54.5924H338.903C326.682 54.5924 316.774 64.4997 316.774 76.7209V123.66C316.774 135.881 326.682 145.788 338.903 145.788H377.534C389.755 145.788 399.663 135.881 399.663 123.66V76.7209C399.663 64.4997 389.755 54.5924 377.534 54.5924Z" fill="#FFAF77"/>
<path d="M318.058 69.3523H398.377C396.856 65.0382 394.035 61.3019 390.302 58.6584C386.569 56.0149 382.108 54.5943 377.534 54.5924H338.9C334.326 54.5943 329.865 56.0149 326.132 58.6584C322.399 61.3019 319.578 65.0382 318.058 69.3523V69.3523Z" fill="#F08960"/>
<path d="M386.457 56.4789C386.457 56.6368 381.804 56.7835 381.804 56.9414V124.621C381.804 127.738 380.566 130.727 378.362 132.931C376.158 135.134 373.169 136.372 370.053 136.372H320.818C322.856 139.276 325.563 141.646 328.71 143.282C331.858 144.918 335.353 145.772 338.9 145.771H377.534C383.403 145.771 389.031 143.44 393.18 139.291C397.33 135.142 399.662 129.514 399.663 123.646V76.718C399.661 72.4272 398.412 68.2294 396.067 64.636C393.723 61.0425 390.383 58.2083 386.457 56.4789V56.4789Z" fill="#F08960"/>
<path d="M377.534 54.5924H338.903C326.682 54.5924 316.774 64.4997 316.774 76.7209V123.66C316.774 135.881 326.682 145.788 338.903 145.788H377.534C389.755 145.788 399.663 135.881 399.663 123.66V76.7209C399.663 64.4997 389.755 54.5924 377.534 54.5924Z" stroke="black" stroke-width="4.512" stroke-linecap="round" stroke-linejoin="round"/>
<path d="M351.618 113.327H339.402C336.965 113.327 334.627 112.359 332.904 110.636C331.18 108.912 330.212 106.574 330.212 104.137V92.8823C330.212 89.6835 331.483 86.6157 333.744 84.3538C336.006 82.0919 339.074 80.8212 342.273 80.8212H348.742C351.941 80.8212 355.009 82.0919 357.271 84.3538C359.532 86.6157 360.803 89.6835 360.803 92.8823V104.131C360.804 105.338 360.567 106.533 360.106 107.649C359.645 108.764 358.968 109.778 358.115 110.632C357.263 111.485 356.25 112.163 355.135 112.626C354.02 113.088 352.825 113.327 351.618 113.327V113.327Z" fill="white"/>
<path d="M339.899 94.3799H334.369C331.313 94.3799 328.836 96.857 328.836 99.9127V105.443C328.836 108.498 331.313 110.976 334.369 110.976H339.899C342.954 110.976 345.431 108.498 345.431 105.443V99.9127C345.431 96.857 342.954 94.3799 339.899 94.3799Z" fill="black"/>
<path d="M330.218 92.8823C330.218 91.2984 330.529 89.73 331.136 88.2667C331.742 86.8034 332.63 85.4738 333.75 84.3538C334.87 83.2338 336.2 82.3454 337.663 81.7393C339.126 81.1331 340.695 80.8212 342.279 80.8212H348.748" stroke="black" stroke-width="4.512" stroke-linecap="round" stroke-linejoin="round"/>
<path d="M309.789 54.5924H396.826V64.2312H319.414C316.861 64.2312 314.413 63.2171 312.608 61.4122C310.803 59.6072 309.789 57.1591 309.789 54.6065V54.5924Z" fill="black"/>
<path d="M388.459 56.9414H406.535V115.964C406.535 117.834 405.792 119.627 404.47 120.949C403.148 122.271 401.355 123.014 399.485 123.014H388.459V56.9414Z" fill="black" stroke="black" stroke-width="4.512" stroke-linecap="round" stroke-linejoin="round"/>
<path d="M375.631 43.2504H348.051V37.7231H322.005C320.401 37.7231 318.813 38.0391 317.33 38.6531C315.848 39.267 314.502 40.1668 313.367 41.3012C312.233 42.4356 311.333 43.7823 310.719 45.2644C310.105 46.7466 309.789 48.3351 309.789 49.9394V49.9394C309.789 50.6661 309.932 51.3857 310.21 52.0572C310.488 52.7286 310.895 53.3387 311.409 53.8526C311.923 54.3664 312.533 54.7739 313.204 55.0518C313.876 55.3297 314.595 55.4726 315.322 55.4723H375.631V43.2504Z" fill="black" stroke="black" stroke-width="4.512" stroke-linecap="round" stroke-linejoin="round"/>
<path d="M399.426 55.4723H375.628V46.7133H390.687C393.005 46.7133 395.229 47.6344 396.868 49.2739C398.508 50.9133 399.429 53.1368 399.429 55.4553V55.4751L399.426 55.4723Z" fill="black" stroke="black" stroke-width="4.512" stroke-linecap="round" stroke-linejoin="round"/>
<path opacity="0.7" d="M331.089 69.3522H325.703C324.405 69.3522 323.354 70.4039 323.354 71.7012V72.6826C323.354 73.9799 324.405 75.0317 325.703 75.0317H331.089C332.386 75.0317 333.438 73.9799 333.438 72.6826V71.7012C333.438 70.4039 332.386 69.3522 331.089 69.3522Z" fill="white"/>
<path d="M326.574 129.19C326.574 129.19 333.232 125.665 345.767 125.665" stroke="black" stroke-width="4.512" stroke-linecap="round" stroke-linejoin="round"/>
<path d="M381.107 95.1017H390.932C392.577 95.1017 394.155 95.7553 395.319 96.9188C396.482 98.0823 397.136 99.6603 397.136 101.306V107.123C397.136 108.769 396.482 110.347 395.319 111.51C394.155 112.674 392.577 113.327 390.932 113.327H381.107V95.1017Z" fill="#F08960"/>
<path d="M376.66 55.4807H391.471V100.649C391.471 102.116 390.888 103.523 389.85 104.561C388.813 105.599 387.405 106.181 385.938 106.181H382.19C380.723 106.181 379.315 105.599 378.278 104.561C377.24 103.523 376.657 102.116 376.657 100.649V55.4807H376.66Z" fill="black"/>
<path d="M403.879 55.4807H383.71V95.0989H403.879V55.4807Z" fill="black"/>
<path d="M407.251 169.761V152.102C407.251 142.294 399.846 134.336 390.706 134.336H387.886C378.747 134.336 371.341 142.286 371.341 152.102V163.382C371.341 169.493 375.955 169.756 381.648 169.756C375.955 169.756 371.341 174.707 371.341 180.818V204.1C371.341 210.208 375.955 215.163 381.648 215.163H393.949C405.334 215.163 414.566 205.256 414.566 193.035V177.592C414.555 173.269 411.284 169.761 407.251 169.761Z" fill="#FFAF77"/>
<path d="M407.251 169.761L406.747 165.872V186.016C406.747 198.235 397.049 203.443 385.662 203.443H373.832C372.985 203.433 372.144 203.309 371.33 203.077V204.106C371.33 210.214 375.944 215.169 381.637 215.169H393.938C405.323 215.169 414.555 205.262 414.555 193.04V177.598C414.555 173.269 411.284 169.761 407.251 169.761Z" fill="#F08960"/>
<path d="M407.251 169.761V152.102C407.251 142.294 399.846 134.336 390.706 134.336H387.886C378.747 134.336 371.341 142.286 371.341 152.102V163.382C371.341 169.493 375.955 169.756 381.648 169.756C375.955 169.756 371.341 174.707 371.341 180.818V204.1C371.341 210.208 375.955 215.163 381.648 215.163H393.949C405.334 215.163 414.566 205.256 414.566 193.035V177.592C414.555 173.269 411.284 169.761 407.251 169.761Z" stroke="black" stroke-width="4.512" stroke-linecap="round" stroke-linejoin="round"/>
<path opacity="0.7" d="M388.434 140.216H383.047C381.75 140.216 380.698 141.268 380.698 142.565V143.546C380.698 144.844 381.75 145.896 383.047 145.896H388.434C389.731 145.896 390.783 144.844 390.783 143.546V142.565C390.783 141.268 389.731 140.216 388.434 140.216Z" fill="white"/>
<path d="M373.299 161.056H373.84C377.572 161.056 381.151 162.538 383.79 165.177C386.429 167.816 387.912 171.396 387.912 175.128V193.083C387.912 196.815 386.429 200.394 383.79 203.033C381.151 205.672 377.572 207.154 373.84 207.154H373.299C367.19 207.154 361.332 204.728 357.013 200.409C352.694 196.09 350.268 190.232 350.268 184.124V184.087C350.268 177.979 352.694 172.121 357.013 167.802C361.332 163.482 367.19 161.056 373.299 161.056V161.056Z" fill="#FFAF77"/>
<path d="M380.382 162.675C380.382 162.895 380.447 163.103 380.447 163.329V185.925C380.447 189.042 379.209 192.031 377.005 194.235C374.802 196.438 371.813 197.676 368.696 197.676H354.703C356.835 200.612 359.631 203.001 362.863 204.648C366.095 206.295 369.671 207.154 373.299 207.154H373.84C377.572 207.154 381.151 205.672 383.79 203.033C386.429 200.394 387.912 196.815 387.912 193.083V175.128C387.912 172.563 387.211 170.046 385.884 167.851C384.556 165.656 382.654 163.866 380.382 162.675V162.675Z" fill="#F08960"/>
<path d="M373.299 161.056H373.84C377.572 161.056 381.151 162.538 383.79 165.177C386.429 167.816 387.912 171.396 387.912 175.128V193.083C387.912 196.815 386.429 200.394 383.79 203.033C381.151 205.672 377.572 207.154 373.84 207.154H373.299C367.19 207.154 361.332 204.728 357.013 200.409C352.694 196.09 350.268 190.232 350.268 184.124V184.087C350.268 177.979 352.694 172.121 357.013 167.802C361.332 163.482 367.19 161.056 373.299 161.056V161.056Z" stroke="black" stroke-width="4.512" stroke-linecap="round" stroke-linejoin="round"/>
<defs>
<filter id="filter0_d_7_756" x="6.55397" y="268.766" width="728.338" height="82.8381" filterUnits="userSpaceOnUse" color-interpolation-filters="sRGB">
<feFlood flood-opacity="0" result="BackgroundImageFix"/>
<feColorMatrix in="SourceAlpha" type="matrix" values="0 0 0 0 0 0 0 0 0 0 0 0 0 0 0 0 0 0 127 0" result="hardAlpha"/>
<feOffset dx="6.72301" dy="6.72301"/>
<feGaussianBlur stdDeviation="10.0845"/>
<feComposite in2="hardAlpha" operator="out"/>
<feColorMatrix type="matrix" values="0 0 0 0 0.066875 0 0 0 0 0.891667 0 0 0 0 0.297817 0 0 0 0.1 0"/>
<feBlend mode="normal" in2="BackgroundImageFix" result="effect1_dropShadow_7_756"/>
<feBlend mode="normal" in="SourceGraphic" in2="effect1_dropShadow_7_756" result="shape"/>
</filter>
<filter id="filter1_d_7_756" x="0" y="230" width="748" height="124" filterUnits="userSpaceOnUse" color-interpolation-filters="sRGB">
<feFlood flood-opacity="0" result="BackgroundImageFix"/>
<feColorMatrix in="SourceAlpha" type="matrix" values="0 0 0 0 0 0 0 0 0 0 0 0 0 0 0 0 0 0 127 0" result="hardAlpha"/>
<feOffset dx="10" dy="10"/>
<feGaussianBlur stdDeviation="15"/>
<feComposite in2="hardAlpha" operator="out"/>
<feColorMatrix type="matrix" values="0 0 0 0 0.066875 0 0 0 0 0.891667 0 0 0 0 0.297817 0 0 0 0.1 0"/>
<feBlend mode="normal" in2="BackgroundImageFix" result="effect1_dropShadow_7_756"/>
<feBlend mode="normal" in="SourceGraphic" in2="effect1_dropShadow_7_756" result="shape"/>
</filter>
</defs>
</svg>
