<svg width="864" height="95" viewBox="0 0 864 95" fill="none" xmlns="http://www.w3.org/2000/svg">
<path d="M864 54.1025C864 76.4884 670.587 94.6358 432 94.6358C193.413 94.6358 0 76.4884 0 54.1025V40.8025H864C864 40.8025 864 43.2893 864 54.1025Z" fill="#1F970C"/>
<ellipse cx="432" cy="40.5333" rx="432" ry="40.5333" fill="#4DDA36"/>
<path d="M432 81.0667L432 0" stroke="white" stroke-width="3.05233"/>
<path d="M663.07 40.5339C663.07 53.2 559.616 57.0006 432 57.0006C304.384 57.0006 200.93 51.3012 200.93 40.5339C200.93 29.7666 304.384 24.0673 432 24.0673C559.616 24.0673 663.07 27.8679 663.07 40.5339Z" stroke="white" stroke-width="3.05233"/>
<path d="M440.791 40.5333C440.791 42.482 436.855 43.0667 432 43.0667C427.145 43.0667 423.209 42.1898 423.209 40.5333C423.209 38.8768 427.145 38 432 38C436.855 38 440.791 38.5847 440.791 40.5333Z" fill="white"/>
</svg>
