<svg width="128" height="171" viewBox="0 0 128 171" fill="none" xmlns="http://www.w3.org/2000/svg">
<g clip-path="url(#clip0_2380_55807)">
<path d="M39.4623 77.0534H39.4497C35.8997 77.0534 32.4951 78.4679 29.9849 80.9859C27.4747 83.5038 26.0645 86.9189 26.0645 90.4798V99.0045C26.0645 103.623 29.7953 103.821 34.3994 103.821H52.8306V90.4755C52.8295 86.9183 51.4211 83.5069 48.9147 80.9904C46.4083 78.4739 43.0086 77.0579 39.4623 77.0534Z" fill="#FFAF77"/>
<path d="M52.8389 105.524H34.4077C30.4113 105.524 24.373 105.524 24.373 99.0023V90.4776C24.373 86.4645 25.9623 82.6158 28.7913 79.7781C31.6203 76.9404 35.4572 75.3463 39.458 75.3463H39.4686C43.4693 75.3463 47.3062 76.9404 50.1352 79.7781C52.9642 82.6158 54.5535 86.4645 54.5535 90.4776V103.823C54.5529 104.048 54.508 104.27 54.4214 104.478C54.3348 104.685 54.2082 104.873 54.0489 105.031C53.8895 105.189 53.7006 105.314 53.4929 105.399C53.2853 105.483 53.063 105.526 52.8389 105.524ZM39.4537 78.7583C36.3545 78.7583 33.3822 79.9932 31.1908 82.1914C28.9993 84.3896 27.7682 87.371 27.7682 90.4797V99.0044C27.7682 101.562 28.9453 102.116 34.4034 102.116H51.135V90.4755C51.135 87.3667 49.9038 84.3853 47.7123 82.1871C45.5209 79.9889 42.5487 78.754 39.4495 78.754L39.4537 78.7583Z" fill="black"/>
<path d="M109.481 144.905C113.111 148.546 118.996 148.546 122.626 144.905C126.256 141.264 126.256 135.36 122.626 131.719L106.912 115.956C103.282 112.315 97.3965 112.315 93.7664 115.956C90.1364 119.597 90.1364 125.501 93.7664 129.142L109.481 144.905Z" fill="black"/>
<path d="M116.055 149.341C114.611 149.345 113.18 149.061 111.846 148.507C110.511 147.952 109.3 147.137 108.281 146.11L92.5591 130.339C90.5001 128.269 89.3438 125.465 89.3438 122.541C89.3438 119.617 90.5001 116.813 92.5591 114.743C94.6224 112.678 97.4182 111.518 100.333 111.518C103.248 111.518 106.044 112.678 108.107 114.743L123.83 130.514C125.889 132.583 127.045 135.388 127.045 138.312C127.045 141.236 125.889 144.04 123.83 146.11C122.811 147.137 121.6 147.952 120.265 148.507C118.931 149.061 117.5 149.345 116.055 149.341ZM100.333 114.935C99.3358 114.933 98.3478 115.129 97.4261 115.511C96.5043 115.893 95.667 116.454 94.9621 117.162C93.5396 118.592 92.7408 120.53 92.7408 122.55C92.7408 124.57 93.5396 126.507 94.9621 127.937L110.684 143.708C111.388 144.418 112.225 144.98 113.147 145.363C114.069 145.746 115.058 145.942 116.055 145.939C117.053 145.942 118.042 145.746 118.964 145.363C119.886 144.98 120.723 144.417 121.427 143.708C122.849 142.278 123.648 140.34 123.648 138.32C123.648 136.3 122.849 134.363 121.427 132.933L105.704 117.162C105 116.455 104.164 115.895 103.244 115.513C102.324 115.13 101.338 114.934 100.342 114.935H100.333Z" fill="black"/>
<path d="M104.879 158.935L77.8999 131.873L88.867 120.872C90.195 119.54 91.9961 118.792 93.8742 118.792C95.7523 118.792 97.5535 119.54 98.8815 120.872L108.334 130.354C111.655 133.685 113.52 138.202 113.52 142.912C113.52 147.622 111.655 152.139 108.334 155.469L104.879 158.935Z" fill="white"/>
<path d="M104.878 160.64C104.428 160.64 103.996 160.461 103.677 160.142L76.6944 133.076C76.5366 132.917 76.4115 132.729 76.3262 132.522C76.2409 132.315 76.1971 132.093 76.1973 131.869C76.1971 131.645 76.2409 131.424 76.3262 131.217C76.4115 131.01 76.5366 130.822 76.6944 130.663L87.6597 119.664C88.4734 118.843 89.4411 118.193 90.5071 117.75C91.5731 117.307 92.7162 117.08 93.87 117.083C95.0239 117.08 96.1668 117.307 97.2328 117.75C98.2988 118.193 99.2667 118.843 100.08 119.664L109.533 129.146C111.34 130.949 112.773 133.094 113.749 135.456C114.724 137.819 115.223 140.352 115.216 142.909C115.223 145.466 114.725 147.999 113.749 150.362C112.774 152.724 111.34 154.869 109.533 156.672L106.078 160.137C105.921 160.296 105.734 160.422 105.528 160.509C105.322 160.595 105.101 160.64 104.878 160.64ZM80.3021 131.869L104.878 156.521L107.13 154.262C108.621 152.774 109.803 151.005 110.608 149.056C111.413 147.108 111.824 145.018 111.819 142.909C111.824 140.8 111.413 138.71 110.608 136.761C109.803 134.813 108.621 133.043 107.13 131.556L97.6774 122.075C96.667 121.064 95.2986 120.497 93.8721 120.497C92.4456 120.497 91.0773 121.064 90.067 122.075L80.3021 131.869Z" fill="black"/>
<path d="M82.9614 126.791L102.429 146.319C104.422 148.317 105.541 151.027 105.541 153.854C105.541 156.68 104.422 159.39 102.429 161.388L101.981 161.84C98.3286 165.504 93.3748 167.562 88.2093 167.562C83.0439 167.562 78.0899 165.504 74.4374 161.84L61.2285 148.591L82.9614 126.791Z" fill="#FFAF77"/>
<path d="M88.2079 169.263C85.4272 169.268 82.6728 168.722 80.1031 167.656C77.5333 166.59 75.1988 165.026 73.2335 163.053L58.8242 148.597L82.9601 124.387L103.631 145.121C104.779 146.266 105.689 147.627 106.309 149.127C106.929 150.627 107.246 152.235 107.243 153.859C107.246 155.482 106.929 157.091 106.309 158.59C105.689 160.09 104.779 161.452 103.631 162.597L103.18 163.048C101.216 165.022 98.8818 166.588 96.3123 167.654C93.7429 168.721 90.9886 169.267 88.2079 169.263ZM63.6322 148.59L75.6385 160.634C78.9747 163.973 83.4951 165.848 88.2079 165.848C92.9207 165.848 97.4411 163.973 100.777 160.634L101.228 160.184C102.059 159.355 102.718 158.368 103.166 157.282C103.615 156.195 103.844 155.03 103.841 153.854C103.844 152.679 103.615 151.514 103.166 150.427C102.718 149.341 102.059 148.354 101.228 147.525L82.9559 129.197L63.6322 148.59Z" fill="black"/>
<path d="M86.8489 6.56684H62.5282V2.3855H42.9051C40.4642 2.38606 38.1235 3.35895 36.3975 5.09021C34.6716 6.82147 33.7017 9.16939 33.7012 11.6178C33.7009 12.1669 33.8085 12.7108 34.0179 13.2182C34.2273 13.7257 34.5343 14.1867 34.9215 14.575C35.3086 14.9634 35.7682 15.2714 36.2741 15.4814C36.78 15.6914 37.3221 15.7994 37.8696 15.7991H86.8489V6.56684Z" fill="black"/>
<path d="M86.8475 17.504H37.8682C36.3123 17.5023 34.8207 16.8816 33.7206 15.7781C32.6204 14.6746 32.0017 13.1784 32 11.6177C32.0034 8.71806 33.1532 5.9381 35.1973 3.88771C37.2414 1.83732 40.0128 0.683926 42.9036 0.680542H62.5267C62.9775 0.680542 63.4099 0.860142 63.7287 1.17988C64.0474 1.49962 64.2264 1.9333 64.2264 2.38548V4.86188H86.8475C87.2983 4.86188 87.7306 5.04153 88.0493 5.36127C88.3681 5.68101 88.5472 6.11464 88.5472 6.56682V15.7991C88.5472 16.2513 88.3681 16.685 88.0493 17.0047C87.7306 17.3244 87.2983 17.504 86.8475 17.504ZM42.9036 4.09042C40.9142 4.09324 39.0071 4.88721 37.6004 6.29824C36.1937 7.70927 35.4022 9.62225 35.3994 11.6177C35.4 12.2744 35.6603 12.9039 36.1231 13.3682C36.586 13.8325 37.2136 14.0936 37.8682 14.0941H85.1478V8.27176H62.5267C62.0759 8.27176 61.6436 8.09216 61.3249 7.77242C61.0061 7.45269 60.827 7.019 60.827 6.56682V4.09042H42.9036Z" fill="black"/>
<path d="M104.775 15.7991L86.8453 15.7991V9.17969L98.191 9.17969C99.9378 9.17969 101.613 9.87573 102.848 11.1147C104.083 12.3537 104.777 14.0341 104.777 15.7863V15.8013L104.775 15.7991Z" fill="black"/>
<path d="M104.776 17.5041H86.8481C86.3974 17.5041 85.9651 17.3245 85.6463 17.0047C85.3275 16.685 85.1484 16.2513 85.1484 15.7991V9.17967C85.1484 8.72749 85.3275 8.29386 85.6463 7.97412C85.9651 7.65438 86.3974 7.47473 86.8481 7.47473H98.1916C100.389 7.47473 102.497 8.35042 104.051 9.90914C105.605 11.4679 106.478 13.5819 106.478 15.7863C106.478 16.24 106.299 16.6754 105.98 16.9972C105.661 17.3191 105.228 17.5012 104.776 17.5041ZM88.5479 14.0942H102.783C102.438 13.1533 101.814 12.3412 100.994 11.7673C100.175 11.1934 99.1995 10.8853 98.2001 10.8846H88.5564L88.5479 14.0942Z" fill="black"/>
<path d="M53.1759 84.0521H92.6219C93.7275 84.0521 94.7878 84.4926 95.5695 85.2768C96.3513 86.0609 96.7905 87.1245 96.7905 88.2334V120.367H40.6724C39.5676 120.367 38.508 119.927 37.7263 119.144C36.9447 118.361 36.505 117.298 36.5039 116.19V100.775C36.5039 96.3401 38.2604 92.0864 41.387 88.9502C44.5136 85.814 48.7542 84.0521 53.1759 84.0521Z" fill="#37F9FF"/>
<path d="M96.7882 122.072H40.6808C39.1249 122.071 37.6333 121.45 36.5332 120.346C35.433 119.243 34.8142 117.747 34.8125 116.186V100.775C34.8181 95.8897 36.7556 91.2057 40.1997 87.7509C43.6439 84.2962 48.3135 82.3528 53.1843 82.3472H92.6302C94.1861 82.3489 95.6778 82.9696 96.7779 84.0731C97.8781 85.1767 98.4968 86.6729 98.4985 88.2335V120.367C98.4985 120.592 98.4542 120.815 98.3681 121.022C98.282 121.23 98.1559 121.418 97.9969 121.577C97.8379 121.735 97.6493 121.861 97.4419 121.946C97.2344 122.031 97.0123 122.074 96.7882 122.072ZM53.1736 85.757C49.2041 85.7616 45.3985 87.3453 42.5916 90.1608C39.7847 92.9763 38.2058 96.7937 38.2013 100.775V116.186C38.2019 116.843 38.4622 117.472 38.925 117.936C39.3879 118.401 40.0156 118.662 40.6702 118.662H95.0885V88.2335C95.0874 87.5771 94.8269 86.9478 94.3642 86.4836C93.9014 86.0194 93.2741 85.7582 92.6196 85.757H53.1736Z" fill="black"/>
<path d="M104.821 15.132H33.7012V52.6343H104.821V15.132Z" fill="black"/>
<path d="M104.82 54.3308H33.6997C33.2489 54.3308 32.8165 54.1511 32.4978 53.8314C32.179 53.5117 32 53.078 32 52.6259V15.1172C32 14.665 32.179 14.2314 32.4978 13.9116C32.8165 13.5919 33.2489 13.4122 33.6997 13.4122H104.82C105.271 13.4122 105.703 13.5919 106.022 13.9116C106.34 14.2314 106.519 14.665 106.519 15.1172V52.6259C106.519 53.078 106.34 53.5117 106.022 53.8314C105.703 54.1511 105.271 54.3308 104.82 54.3308ZM35.3994 50.9209H103.12V16.8221H35.3994V50.9209Z" fill="black"/>
<path d="M82.9696 15.132H50.3224C41.1147 15.132 33.6504 22.6192 33.6504 31.8553V67.3287C33.6504 76.5648 41.1147 84.052 50.3224 84.052H82.9696C92.1773 84.052 99.6416 76.5648 99.6416 67.3287V31.8553C99.6416 22.6192 92.1773 15.132 82.9696 15.132Z" fill="#FFAF77"/>
<path d="M34.6172 26.2888H98.6835C97.538 23.0285 95.4125 20.2049 92.6001 18.2071C89.7876 16.2092 86.4265 15.1357 82.9803 15.1343H50.331C46.8829 15.1335 43.5196 16.206 40.705 18.204C37.8904 20.2019 35.7633 23.0268 34.6172 26.2888Z" fill="#F08960"/>
<path d="M89.6921 16.5601C89.6921 16.6794 89.726 16.7902 89.726 16.9095V68.0684C89.726 70.4233 88.7936 72.6818 87.1337 74.3472C85.4739 76.0126 83.2226 76.9485 80.8749 76.949H36.6973C38.2323 79.1435 40.2718 80.9347 42.6431 82.1712C45.0145 83.4076 47.6479 84.0528 50.3205 84.0522H82.9612C85.1511 84.0534 87.3197 83.6217 89.3431 82.7819C91.3666 81.942 93.2053 80.7105 94.7541 79.1577C96.303 77.6049 97.5317 75.7612 98.3699 73.732C99.2082 71.7027 99.6396 69.5276 99.6396 67.331V31.8555C99.639 28.613 98.6983 25.4406 96.9321 22.7248C95.1659 20.009 92.6504 17.8672 89.6921 16.5601Z" fill="#F08960"/>
<path d="M82.9622 85.7571H50.313C45.4428 85.7515 40.7736 83.8084 37.3299 80.354C33.8861 76.8997 31.949 72.2162 31.9434 67.331V31.8555C31.949 26.9703 33.8861 22.2868 37.3299 18.8324C40.7736 15.3781 45.4428 13.435 50.313 13.4293H82.9622C87.8324 13.435 92.5016 15.3781 95.9454 18.8324C99.3891 22.2868 101.326 26.9703 101.332 31.8555V67.331C101.326 72.2162 99.3891 76.8997 95.9454 80.354C92.5016 83.8084 87.8324 85.7515 82.9622 85.7571ZM50.313 16.8392C46.344 16.8437 42.5389 18.4272 39.7324 21.2423C36.9259 24.0575 35.3473 27.8743 35.3428 31.8555V67.331C35.3473 71.3122 36.9259 75.129 39.7324 77.9441C42.5389 80.7592 46.344 82.3427 50.313 82.3472H82.9622C86.9327 82.345 90.74 80.7625 93.5483 77.9471C96.3566 75.1318 97.9364 71.3136 97.9409 67.331V31.8555C97.9364 27.8743 96.3578 24.0575 93.5513 21.2423C90.7448 18.4272 86.9397 16.8437 82.9708 16.8392H50.313Z" fill="black"/>
<path d="M92.7441 45.7485H100.146C101.386 45.7485 102.575 46.2425 103.452 47.1218C104.328 48.0011 104.821 49.1936 104.821 50.4371V54.8337C104.821 56.0772 104.328 57.2698 103.452 58.1491C102.575 59.0283 101.386 59.5223 100.146 59.5223H92.7441V45.7485Z" fill="#F08960"/>
<path d="M77.6102 59.5222H68.4084C66.5724 59.5217 64.8117 58.7896 63.5137 57.4872C62.2156 56.1847 61.4863 54.4184 61.4863 52.5767V44.0754C61.4863 41.658 62.4438 39.3395 64.1479 37.6301C65.8521 35.9207 68.1634 34.9604 70.5734 34.9604H75.4452C77.8553 34.9604 80.1665 35.9207 81.8707 37.6301C83.5749 39.3395 84.5323 41.658 84.5323 44.0754V52.5767C84.5323 54.4184 83.8031 56.1847 82.505 57.4872C81.2069 58.7896 79.4463 59.5217 77.6102 59.5222Z" fill="white"/>
<path d="M72.3213 46.9781H68.1549C65.8526 46.9781 63.9863 48.8502 63.9863 51.1595V55.3387C63.9863 57.6481 65.8526 59.5201 68.1549 59.5201H72.3213C74.6235 59.5201 76.4898 57.6481 76.4898 55.3387V51.1595C76.4898 48.8502 74.6235 46.9781 72.3213 46.9781Z" fill="black"/>
<path d="M61.4868 45.7805C61.036 45.7805 60.6037 45.6009 60.285 45.2811C59.9662 44.9614 59.7871 44.5277 59.7871 44.0755C59.7899 41.2068 60.9273 38.4563 62.9496 36.4278C64.9719 34.3993 67.7139 33.2584 70.5739 33.2556H75.4457C75.8965 33.2556 76.3288 33.4352 76.6476 33.755C76.9663 34.0747 77.1454 34.5084 77.1454 34.9606C77.1454 35.4127 76.9663 35.8464 76.6476 36.1661C76.3288 36.4858 75.8965 36.6655 75.4457 36.6655H70.5739C68.6153 36.6678 66.7377 37.4492 65.3528 38.8383C63.9679 40.2275 63.1888 42.111 63.1865 44.0755C63.1865 44.5277 63.0074 44.9614 62.6887 45.2811C62.3699 45.6009 61.9376 45.7805 61.4868 45.7805Z" fill="black"/>
<path d="M37.8197 34.9604H38.6695C40.8801 34.9604 43.0001 35.8413 44.5632 37.4092C46.1263 38.9771 47.0045 41.1037 47.0045 43.321V52.8325C47.0045 53.711 46.832 54.5809 46.4968 55.3925C46.1617 56.2042 45.6704 56.9417 45.0511 57.5629C44.4318 58.1841 43.6966 58.6768 42.8875 59.013C42.0783 59.3492 41.2111 59.5222 40.3353 59.5222C38.5665 59.5222 36.8701 58.8174 35.6194 57.5629C34.3687 56.3083 33.666 54.6067 33.666 52.8325V39.1397C33.6666 38.0337 34.104 36.9729 34.8824 36.1896C35.6609 35.4064 36.7171 34.9644 37.8197 34.9604Z" fill="white"/>
<path d="M44.835 46.978H40.6685C38.3663 46.978 36.5 48.8501 36.5 51.1594V55.3386C36.5 57.6479 38.3663 59.52 40.6685 59.52H44.835C47.1372 59.52 49.0035 57.6479 49.0035 55.3386V51.1594C49.0035 48.8501 47.1372 46.978 44.835 46.978Z" fill="black"/>
<path d="M46.9979 45.0261C46.5471 45.0261 46.1148 44.8464 45.7961 44.5267C45.4773 44.207 45.2982 43.7733 45.2982 43.3212C45.296 41.5563 44.5959 39.8643 43.3516 38.6166C42.1073 37.3688 40.4203 36.6672 38.6609 36.6655H37.811C37.3602 36.6655 36.9278 36.4858 36.6091 36.1661C36.2903 35.8464 36.1113 35.4127 36.1113 34.9606C36.1113 34.5084 36.2903 34.0747 36.6091 33.755C36.9278 33.4352 37.3602 33.2556 37.811 33.2556H38.6609C41.3216 33.2584 43.8725 34.3197 45.754 36.2067C47.6356 38.0937 48.6943 40.6523 48.6976 43.3212C48.6976 43.7733 48.5185 44.207 48.1998 44.5267C47.881 44.8464 47.4487 45.0261 46.9979 45.0261Z" fill="black"/>
<path d="M63.8681 73.8821H46.9985C46.5477 73.8821 46.1154 73.7025 45.7967 73.3828C45.4779 73.063 45.2988 72.6293 45.2988 72.1772C45.2988 71.725 45.4779 71.2914 45.7967 70.9716C46.1154 70.6519 46.5477 70.4722 46.9985 70.4722H63.8681C64.3189 70.4722 64.7512 70.6519 65.07 70.9716C65.3887 71.2914 65.5678 71.725 65.5678 72.1772C65.5678 72.6293 65.3887 73.063 65.07 73.3828C64.7512 73.7025 64.3189 73.8821 63.8681 73.8821Z" fill="black"/>
<path d="M87.6234 15.8118H98.7841V49.9404C98.7841 51.0494 98.3449 52.1129 97.5632 52.8971C96.7814 53.6812 95.7211 54.1218 94.6156 54.1218H91.7877C90.6821 54.1218 89.6218 53.6812 88.8401 52.8971C88.0583 52.1129 87.6191 51.0494 87.6191 49.9404V15.8118H87.6234Z" fill="black"/>
<path d="M33.7012 15.132H102.818V22.4184H40.9526C39.0294 22.4184 37.185 21.6521 35.8251 20.288C34.4652 18.9239 33.7012 17.0739 33.7012 15.1447V15.1341V15.132Z" fill="black"/>
<path d="M102.817 15.8054H87.6211V45.7463H102.817V15.8054Z" fill="black"/>
<g opacity="0.7">
<path opacity="0.7" d="M44.4353 26.2865H40.3772C39.3998 26.2865 38.6074 27.0813 38.6074 28.0618V28.8034C38.6074 29.7839 39.3998 30.5787 40.3772 30.5787H44.4353C45.4127 30.5787 46.2051 29.7839 46.2051 28.8034V28.0618C46.2051 27.0813 45.4127 26.2865 44.4353 26.2865Z" fill="white"/>
</g>
<path d="M32.3949 129.947H32.8028C35.0816 129.947 37.3381 129.497 39.4434 128.623C41.5488 127.748 43.4618 126.466 45.0731 124.85C46.6844 123.234 47.9626 121.315 48.8345 119.203C49.7064 117.091 50.155 114.828 50.1547 112.542V112.514C50.1547 107.898 48.3266 103.471 45.0725 100.207C41.8184 96.9425 37.4048 95.1088 32.8028 95.1088H32.3949C29.5831 95.1088 26.8864 96.2292 24.8982 98.2235C22.9099 100.218 21.793 102.923 21.793 105.743V119.312C21.793 122.133 22.9099 124.838 24.8982 126.832C26.8864 128.827 29.5831 129.947 32.3949 129.947Z" fill="#FFAF77"/>
<path d="M48.1031 104.324C48.1243 104.665 48.1562 105.004 48.1562 105.351V105.379C48.1562 109.995 46.328 114.422 43.0739 117.686C39.8197 120.95 35.4062 122.784 30.8042 122.784H30.3942C28.71 122.784 27.0501 122.381 25.5528 121.607C24.0554 120.834 22.7637 119.713 21.7852 118.339V119.312C21.7852 122.133 22.9021 124.838 24.8904 126.832C26.8786 128.827 29.5753 129.947 32.3871 129.947H32.795C35.0738 129.947 37.3303 129.497 39.4356 128.623C41.541 127.748 43.454 126.466 45.0653 124.85C46.6766 123.233 47.9547 121.315 48.8267 119.203C49.6986 117.091 50.1472 114.827 50.1469 112.542V112.514C50.15 109.657 49.4479 106.843 48.1031 104.324Z" fill="#F08960"/>
<path d="M32.7948 131.652H32.3954C29.1345 131.646 26.0088 130.344 23.703 128.032C21.3972 125.719 20.0994 122.583 20.0938 119.312V105.743C20.0994 102.472 21.3972 99.337 23.703 97.0241C26.0088 94.7112 29.1345 93.4094 32.3954 93.4037H32.8033C37.8544 93.4094 42.6969 95.4246 46.2686 99.0072C49.8402 102.59 51.8493 107.447 51.8549 112.514V112.542C51.8498 117.61 49.8398 122.469 46.2662 126.052C42.6926 129.635 37.8475 131.649 32.7948 131.652ZM32.3869 96.8136C30.0276 96.8193 27.7665 97.7618 26.0982 99.4352C24.43 101.109 23.4903 103.377 23.4847 105.743V119.312C23.4869 121.68 24.4255 123.95 26.0945 125.624C27.7635 127.298 30.0265 128.24 32.3869 128.242H32.7948C36.9445 128.237 40.9227 126.581 43.857 123.638C46.7913 120.695 48.4419 116.704 48.447 112.542V112.514C48.4419 108.352 46.7913 104.361 43.857 101.418C40.9227 98.4745 36.9445 96.8187 32.7948 96.8136H32.3869Z" fill="black"/>
<g opacity="0.7">
<path opacity="0.7" d="M34.5583 98.734H30.5003C29.5228 98.734 28.7305 99.5288 28.7305 100.509V101.251C28.7305 102.231 29.5228 103.026 30.5003 103.026H34.5583C35.5358 103.026 36.3282 102.231 36.3282 101.251V100.509C36.3282 99.5288 35.5358 98.734 34.5583 98.734Z" fill="white"/>
</g>
<path d="M56.7519 144.109L67.5791 154.969L96.591 125.866V120.367H33.4043L56.7519 144.109Z" fill="#37F9FF"/>
<path d="M67.5783 156.674C67.3551 156.674 67.1339 156.63 66.9276 156.545C66.7212 156.459 66.5337 156.334 66.3758 156.175L55.5401 145.306L32.1904 121.565C31.955 121.326 31.7955 121.021 31.7319 120.691C31.6684 120.361 31.7037 120.019 31.8334 119.709C31.9628 119.399 32.1807 119.134 32.4597 118.948C32.7387 118.762 33.0664 118.662 33.4015 118.662H96.5902C97.041 118.662 97.4733 118.842 97.7921 119.162C98.1108 119.482 98.2899 119.915 98.2899 120.367V125.868C98.2892 126.32 98.1096 126.753 97.7906 127.072L68.7787 156.175C68.4602 156.495 68.0285 156.674 67.5783 156.674ZM57.9579 142.907L67.5783 152.559L94.8927 125.16V122.072H37.4679L57.9579 142.907Z" fill="black"/>
<path d="M62.0441 144.087H34.6172V117.874H43.6321C50.6434 117.874 57.4656 118.451 62.9663 120.361V120.261" fill="#37F9FF"/>
<path d="M62.0426 145.794H34.6157C34.1649 145.794 33.7326 145.615 33.4139 145.295C33.0951 144.975 32.916 144.542 32.916 144.09V117.876C32.916 117.424 33.0951 116.99 33.4139 116.671C33.7326 116.351 34.1649 116.171 34.6157 116.171H43.6306C51.7042 116.171 58.0249 116.953 62.9499 118.558H62.969C63.4198 118.558 63.8521 118.738 64.1709 119.057C64.4897 119.377 64.6688 119.811 64.6688 120.263V120.363C64.6689 120.635 64.6041 120.903 64.4799 121.145C64.3558 121.387 64.1756 121.595 63.9548 121.753C63.7332 121.909 63.4776 122.01 63.2093 122.047C62.941 122.084 62.6678 122.056 62.4124 121.966C57.7722 120.355 51.6277 119.572 43.6306 119.572H36.3154V142.376H62.0426C62.4934 142.376 62.9258 142.556 63.2446 142.875C63.5633 143.195 63.7423 143.629 63.7423 144.081C63.7435 144.306 63.7004 144.528 63.6155 144.736C63.5305 144.944 63.4055 145.133 63.2476 145.292C63.0897 145.451 62.9018 145.578 62.6951 145.664C62.4883 145.75 62.2666 145.794 62.0426 145.794Z" fill="black"/>
<path d="M36.3071 162.899L9.32422 135.833L21.5196 123.6C25.1722 119.937 30.126 117.878 35.2915 117.878C40.4569 117.878 45.4109 119.937 49.0634 123.6L49.7518 124.291C53.0717 127.622 54.9368 132.139 54.9368 136.849C54.9368 141.559 53.0717 146.076 49.7518 149.407L36.3071 162.899Z" fill="#FFAF77"/>
<path d="M36.3074 165.31L6.92578 135.835L20.3238 122.396C24.2981 118.419 29.6829 116.185 35.2971 116.185C40.9112 116.185 46.2961 118.419 50.2705 122.396L50.9589 123.089C54.5927 126.742 56.6335 131.691 56.6335 136.852C56.6335 142.012 54.5927 146.962 50.9589 150.615L36.3074 165.31ZM11.7317 135.835L36.3074 160.489L48.5537 148.205C51.5515 145.192 53.2352 141.109 53.2352 136.852C53.2352 132.595 51.5515 128.512 48.5537 125.499L47.8654 124.809C44.5292 121.47 40.0088 119.595 35.296 119.595C30.5832 119.595 26.063 121.47 22.7267 124.809L11.7317 135.835Z" fill="black"/>
<path d="M39.5933 130.593L41.5343 132.54C44.8545 135.871 46.7199 140.388 46.7199 145.098C46.7199 149.808 44.8546 154.325 41.5343 157.655L39.8517 159.343L12.8725 132.281L14.5552 130.593C17.8755 127.263 22.3787 125.392 27.0742 125.392C31.7698 125.392 36.273 127.263 39.5933 130.593Z" fill="white"/>
<path d="M39.8507 161.049C39.6274 161.05 39.4064 161.006 39.2 160.92C38.9937 160.834 38.8062 160.709 38.6482 160.551L11.6653 133.485C11.5072 133.326 11.3816 133.138 11.2959 132.931C11.2102 132.724 11.1661 132.503 11.166 132.278C11.1661 132.054 11.2102 131.832 11.2959 131.625C11.3816 131.418 11.5072 131.231 11.6653 131.072L13.348 129.384C16.9898 125.739 21.9243 123.692 27.0689 123.692C32.2136 123.692 37.148 125.739 40.7898 129.384L42.7317 131.33C46.3657 134.983 48.4065 139.933 48.4065 145.094C48.4065 150.255 46.3657 155.205 42.7317 158.858L41.049 160.546C40.7317 160.867 40.3008 161.047 39.8507 161.049ZM15.275 132.278L39.8507 156.93L40.333 156.448C43.3298 153.435 45.0127 149.352 45.0127 145.095C45.0127 140.839 43.3298 136.756 40.333 133.743L38.3911 131.795C35.3868 128.789 31.3166 127.101 27.0732 127.101C22.8298 127.101 18.7596 128.789 15.7553 131.795L15.275 132.278Z" fill="black"/>
<path d="M27.242 136.988L40.9329 150.721C41.929 151.72 42.4886 153.075 42.4886 154.488C42.4886 155.901 41.929 157.256 40.9329 158.256L33.2709 165.941L4.4064 136.988C7.43459 133.95 11.5417 132.244 15.8242 132.244C20.1067 132.244 24.2138 133.95 27.242 136.988Z" fill="black"/>
<path d="M33.2774 167.643C32.8272 167.643 32.3955 167.464 32.077 167.145L3.21599 138.197C3.05819 138.038 2.93301 137.85 2.8477 137.643C2.7624 137.436 2.71857 137.214 2.71875 136.991C2.71857 136.767 2.7624 136.545 2.8477 136.338C2.93301 136.131 3.05819 135.943 3.21599 135.784C6.56421 132.433 11.101 130.551 15.831 130.551C20.561 130.551 25.0978 132.433 28.4461 135.784L42.1372 149.518C42.7902 150.169 43.3077 150.945 43.66 151.798C44.0123 152.652 44.1923 153.568 44.1895 154.492C44.1921 155.415 44.0121 156.33 43.6598 157.184C43.3075 158.037 42.79 158.812 42.1372 159.464L34.4885 167.136C34.3302 167.297 34.1416 167.424 33.9337 167.512C33.7258 167.599 33.5027 167.643 33.2774 167.643ZM6.90007 137.061L33.2839 163.528L39.7385 157.053C40.0756 156.719 40.343 156.321 40.5254 155.882C40.7077 155.443 40.8014 154.972 40.8008 154.496C40.8011 154.02 40.7074 153.549 40.525 153.111C40.3427 152.672 40.0754 152.273 39.7385 151.939L26.0494 138.207C23.5488 135.702 20.2198 134.202 16.6916 133.99C13.1633 133.779 9.68011 134.871 6.90007 137.061Z" fill="black"/>
<path d="M17.564 136.991C13.9339 133.349 8.0485 133.349 4.41846 136.991C0.788428 140.632 0.788428 146.535 4.41846 150.176L20.133 165.939C23.763 169.581 29.6485 169.581 33.2785 165.939C36.9086 162.298 36.9086 156.395 33.2785 152.753L17.564 136.991Z" fill="#A8A8A8"/>
<path d="M26.7063 170.373C25.2621 170.377 23.8312 170.094 22.4968 169.54C21.1624 168.986 19.9508 168.172 18.9322 167.145L3.20992 151.374C1.15182 149.303 -0.00390625 146.499 -0.00390625 143.575C-0.00390625 140.651 1.15182 137.846 3.20992 135.776C5.27357 133.71 8.06982 132.55 10.9851 132.55C13.9003 132.55 16.6965 133.71 18.7601 135.776L34.4824 151.546C36.5416 153.616 37.698 156.421 37.698 159.345C37.698 162.27 36.5416 165.075 34.4824 167.145C33.4635 168.172 32.2516 168.986 30.9168 169.54C29.582 170.095 28.151 170.378 26.7063 170.373ZM10.984 135.968C9.98651 135.966 8.99841 136.162 8.07666 136.545C7.15492 136.927 6.31766 137.489 5.6129 138.197C4.19054 139.626 3.39167 141.564 3.39167 143.583C3.39167 145.603 4.19054 147.54 5.6129 148.97L21.3352 164.741C22.0387 165.451 22.8757 166.013 23.7977 166.396C24.7197 166.78 25.7084 166.975 26.7063 166.972C27.7053 166.973 28.6945 166.775 29.6165 166.389C30.5386 166.004 31.375 165.438 32.0774 164.726C33.4997 163.296 34.2986 161.359 34.2986 159.339C34.2986 157.319 33.4997 155.382 32.0774 153.953L16.3551 138.182C15.65 137.478 14.8135 136.919 13.8934 136.54C12.9732 136.16 11.9875 135.965 10.9924 135.968H10.984Z" fill="black"/>
<path d="M104.332 103.819V90.4733C104.332 83.0611 98.7503 77.0469 91.8664 77.0469H91.8559C84.972 77.0469 79.3906 83.0547 79.3906 90.4733V98.998C79.3906 103.616 82.8686 103.814 87.1561 103.814C82.8686 103.814 79.3906 107.557 79.3906 112.175V129.774C79.3906 134.39 82.8686 138.135 87.1561 138.135H94.2992C102.878 138.135 109.832 130.648 109.832 121.412V109.741C109.832 106.47 107.37 103.819 104.332 103.819Z" fill="#FFAF77"/>
<path d="M104.333 103.819L103.952 100.88V116.103C103.952 125.337 98.7682 129.273 90.1889 129.273H81.2654C80.6278 129.265 79.9941 129.172 79.3809 128.996V129.774C79.3809 134.39 82.859 138.135 87.1465 138.135H94.2894C102.869 138.135 109.823 130.648 109.823 121.412V109.741C109.833 106.47 107.371 103.819 104.333 103.819Z" fill="#F08960"/>
<path d="M94.3018 139.84H87.1588C81.9407 139.84 77.6935 135.324 77.6935 129.774V112.179C77.6851 110.773 77.9634 109.379 78.5114 108.084C79.0595 106.79 79.8657 105.621 80.8805 104.65C79.0512 103.817 77.6935 102.188 77.6935 99.0023V90.4776C77.6935 82.1383 84.0483 75.3463 91.8585 75.3463C99.6686 75.3463 106.034 82.1319 106.034 90.4776V102.333C109.187 103.143 111.535 106.169 111.535 109.746V121.416C111.535 131.573 103.803 139.84 94.3018 139.84ZM87.1588 105.528C83.8146 105.528 81.093 108.512 81.093 112.184V129.774C81.093 133.444 83.8146 136.43 87.1588 136.43H94.3018C101.929 136.43 108.135 129.693 108.135 121.412V109.741C108.135 107.416 106.436 105.524 104.334 105.524C103.884 105.524 103.451 105.344 103.132 105.024C102.814 104.705 102.635 104.271 102.635 103.819V90.4733C102.635 84.0137 97.8053 78.7519 91.8691 78.7519C85.9328 78.7519 81.093 84.0073 81.093 90.4733V98.998C81.093 101.585 82.1128 102.11 87.1588 102.11C87.6096 102.11 88.0419 102.289 88.3606 102.609C88.6794 102.929 88.8585 103.362 88.8585 103.814C88.859 104.039 88.8155 104.261 88.7304 104.468C88.6452 104.676 88.5201 104.864 88.3622 105.023C88.2043 105.182 88.0167 105.308 87.8102 105.393C87.6037 105.479 87.3823 105.524 87.1588 105.524V105.528Z" fill="black"/>
<g opacity="0.7">
<path opacity="0.7" d="M92.2771 81.4905H88.219C87.2416 81.4905 86.4492 82.2853 86.4492 83.2658V84.0074C86.4492 84.9879 87.2416 85.7827 88.219 85.7827H92.2771C93.2545 85.7827 94.0469 84.9879 94.0469 84.0074V83.2658C94.0469 82.2853 93.2545 81.4905 92.2771 81.4905Z" fill="white"/>
</g>
<path d="M83.6994 129.947H83.2913C81.0126 129.947 78.7562 129.497 76.6508 128.623C74.5455 127.748 72.6325 126.466 71.0212 124.85C69.4098 123.234 68.1317 121.315 67.2598 119.203C66.3879 117.091 65.9392 114.828 65.9395 112.542V112.514C65.9395 107.898 67.7677 103.471 71.0218 100.207C74.2759 96.9425 78.6893 95.1088 83.2913 95.1088H83.6994C86.5114 95.1088 89.2082 96.2291 91.1968 98.2234C93.1854 100.218 94.3028 102.923 94.3034 105.743V119.312C94.3028 122.133 93.1854 124.838 91.1968 126.832C89.2082 128.827 86.5114 129.947 83.6994 129.947Z" fill="#FFAF77"/>
<path d="M88.626 96.3319C88.626 96.4981 88.6749 96.6558 88.6749 96.8263V113.903C88.6752 115.07 88.4465 116.224 88.0018 117.302C87.5571 118.379 86.9051 119.358 86.0832 120.183C85.2613 121.008 84.2854 121.662 83.2114 122.108C82.1374 122.554 80.9863 122.784 79.8237 122.784H69.2812C70.8866 125.002 72.9929 126.808 75.4276 128.053C77.8622 129.298 80.5561 129.947 83.2889 129.947H83.6969C86.5089 129.947 89.2058 128.827 91.1944 126.832C93.183 124.838 94.3004 122.133 94.3009 119.312V105.743C94.3007 103.804 93.7718 101.903 92.7716 100.244C91.7713 98.5851 90.3377 97.2323 88.626 96.3319Z" fill="#F08960"/>
<path d="M83.6979 131.652H83.2899C78.2388 131.646 73.3962 129.631 69.8246 126.048C66.2529 122.466 64.2439 117.608 64.2383 112.542V112.514C64.2445 107.448 66.2537 102.59 69.8252 99.0079C73.3967 95.4253 78.239 93.41 83.2899 93.4037H83.6979C86.9591 93.4088 90.0853 94.7104 92.3916 97.0234C94.6978 99.3363 95.996 102.472 96.0016 105.743V119.312C95.996 122.584 94.6978 125.719 92.3916 128.032C90.0853 130.345 86.9591 131.647 83.6979 131.652ZM83.2899 96.8136C79.1402 96.8187 75.162 98.4745 72.2278 101.418C69.2935 104.361 67.6428 108.352 67.6377 112.514V112.542C67.6428 116.704 69.2935 120.695 72.2278 123.638C75.162 126.581 79.1402 128.237 83.2899 128.242H83.6979C86.0576 128.237 88.3191 127.295 89.9879 125.621C91.6566 123.948 92.5966 121.679 92.6022 119.312V105.743C92.5966 103.376 91.6566 101.108 89.9879 99.4345C88.3191 97.761 86.0576 96.8187 83.6979 96.8136H83.2899Z" fill="black"/>
</g>
<defs>
<clipPath id="clip0_2380_55807">
<rect width="127.043" height="169.693" fill="white" transform="translate(0 0.680542)"/>
</clipPath>
</defs>
</svg>
