<svg width="353" height="64" viewBox="0 0 353 64" fill="none" xmlns="http://www.w3.org/2000/svg">
<g clip-path="url(#clip0_2972_61031)">
<path d="M96.0244 46.8484C93.699 46.8484 91.4438 46.5404 89.2586 45.9244C87.1013 45.2804 85.3645 44.4544 84.0476 43.4464L86.3589 38.3224C87.6197 39.2464 89.1184 39.9884 90.8555 40.5484C92.5926 41.1085 94.3294 41.3884 96.0664 41.3884C97.9995 41.3884 99.4283 41.1085 100.353 40.5484C101.277 39.9604 101.74 39.1904 101.74 38.2384C101.74 37.5385 101.46 36.9644 100.899 36.5164C100.367 36.0404 99.6664 35.6624 98.798 35.3824C97.9575 35.1025 96.8088 34.7944 95.352 34.4584C93.1107 33.9265 91.2757 33.3944 89.8469 32.8624C88.4181 32.3305 87.1853 31.4764 86.1488 30.3004C85.1403 29.1244 84.636 27.5564 84.636 25.5964C84.636 23.8885 85.0982 22.3484 86.0228 20.9764C86.9473 19.5764 88.3341 18.4704 90.1831 17.6584C92.0601 16.8464 94.3435 16.4404 97.033 16.4404C98.91 16.4404 100.745 16.6644 102.538 17.1124C104.331 17.5604 105.9 18.2044 107.245 19.0444L105.144 24.2104C102.426 22.6705 99.7084 21.9004 96.991 21.9004C95.0858 21.9004 93.6711 22.2085 92.7466 22.8244C91.85 23.4404 91.4018 24.2524 91.4018 25.2604C91.4018 26.2684 91.9202 27.0244 92.9567 27.5284C94.0214 28.0045 95.6321 28.4804 97.7894 28.9564C100.031 29.4884 101.866 30.0205 103.295 30.5524C104.723 31.0844 105.942 31.9244 106.951 33.0724C107.987 34.2205 108.505 35.7745 108.505 37.7344C108.505 39.4144 108.029 40.9544 107.077 42.3544C106.152 43.7264 104.751 44.8184 102.874 45.6304C100.997 46.4425 98.7139 46.8484 96.0244 46.8484Z" fill="white"/>
<path d="M134.842 35.1301C134.842 35.2141 134.8 35.8021 134.715 36.8941H117.612C117.92 38.2942 118.648 39.4 119.797 40.2121C120.946 41.0242 122.375 41.4301 124.083 41.4301C125.26 41.4301 126.297 41.2621 127.193 40.9261C128.118 40.5622 128.972 40.0021 129.757 39.2461L133.245 43.0261C131.116 45.4621 128.006 46.6801 123.915 46.6801C121.366 46.6801 119.111 46.1902 117.15 45.2101C115.189 44.2021 113.676 42.8161 112.611 41.0521C111.546 39.2881 111.014 37.2862 111.014 35.0461C111.014 32.8342 111.532 30.8461 112.569 29.0821C113.634 27.2902 115.076 25.9042 116.897 24.9241C118.746 23.9161 120.806 23.4121 123.075 23.4121C125.288 23.4121 127.291 23.8882 129.084 24.8401C130.877 25.792 132.278 27.1642 133.287 28.9561C134.323 30.7201 134.842 32.7781 134.842 35.1301ZM123.117 28.3681C121.632 28.3681 120.385 28.7881 119.377 29.6281C118.368 30.4681 117.752 31.6162 117.528 33.0721H128.664C128.44 31.6441 127.824 30.5101 126.815 29.6701C125.806 28.8022 124.574 28.3681 123.117 28.3681Z" fill="white"/>
<path d="M161.353 35.1301C161.353 35.2141 161.311 35.8021 161.227 36.8941H144.123C144.431 38.2942 145.159 39.4 146.308 40.2121C147.457 41.0242 148.886 41.4301 150.595 41.4301C151.771 41.4301 152.808 41.2621 153.704 40.9261C154.629 40.5622 155.483 40.0021 156.268 39.2461L159.756 43.0261C157.627 45.4621 154.517 46.6801 150.427 46.6801C147.877 46.6801 145.622 46.1902 143.661 45.2101C141.7 44.2021 140.187 42.8161 139.122 41.0521C138.057 39.2881 137.525 37.2862 137.525 35.0461C137.525 32.8342 138.044 30.8461 139.08 29.0821C140.145 27.2902 141.587 25.9042 143.409 24.9241C145.258 23.9161 147.317 23.4121 149.586 23.4121C151.799 23.4121 153.803 23.8882 155.595 24.8401C157.388 25.792 158.789 27.1642 159.798 28.9561C160.834 30.7201 161.353 32.7781 161.353 35.1301ZM149.628 28.3681C148.143 28.3681 146.897 28.7881 145.888 29.6281C144.879 30.4681 144.263 31.6162 144.039 33.0721H155.175C154.951 31.6441 154.335 30.5101 153.326 29.6701C152.318 28.8022 151.085 28.3681 149.628 28.3681Z" fill="white"/>
<path d="M188.746 15.1816V46.3456H182.485V43.7416C180.86 45.7016 178.506 46.6816 175.425 46.6816C173.295 46.6816 171.362 46.2056 169.626 45.2536C167.916 44.3017 166.572 42.9436 165.591 41.1796C164.611 39.4156 164.12 37.3717 164.12 35.0476C164.12 32.7236 164.611 30.6796 165.591 28.9156C166.572 27.1516 167.916 25.7936 169.626 24.8416C171.362 23.8897 173.295 23.4136 175.425 23.4136C178.31 23.4136 180.566 24.3236 182.191 26.1436V15.1816H188.746ZM176.559 41.3056C178.212 41.3056 179.585 40.7456 180.678 39.6256C181.77 38.4776 182.317 36.9517 182.317 35.0476C182.317 33.1436 181.77 31.6316 180.678 30.5116C179.585 29.3636 178.212 28.7896 176.559 28.7896C174.878 28.7896 173.492 29.3636 172.399 30.5116C171.306 31.6316 170.76 33.1436 170.76 35.0476C170.76 36.9517 171.306 38.4776 172.399 39.6256C173.492 40.7456 174.878 41.3056 176.559 41.3056Z" fill="white"/>
<path d="M195.276 16.9453H202.084V40.8013H216.834V46.3453H195.276V16.9453Z" fill="white"/>
<path d="M229.54 23.4121C233.043 23.4121 235.733 24.2521 237.609 25.9321C239.487 27.5842 240.425 30.0901 240.425 33.4501V46.3441H234.289V43.5301C233.058 45.6301 230.759 46.6801 227.397 46.6801C225.662 46.6801 224.149 46.3861 222.859 45.7981C221.598 45.2101 220.631 44.398 219.959 43.3621C219.287 42.3262 218.95 41.1502 218.95 39.8341C218.95 37.7341 219.736 36.082 221.304 34.8781C222.901 33.6742 225.353 33.0721 228.658 33.0721H233.869C233.869 31.6441 233.436 30.5521 232.566 29.7961C231.698 29.0122 230.396 28.6201 228.658 28.6201C227.454 28.6201 226.263 28.816 225.086 29.2081C223.939 29.572 222.957 30.076 222.144 30.7201L219.791 26.1421C221.024 25.2742 222.495 24.6022 224.203 24.1261C225.941 23.65 227.721 23.4121 229.54 23.4121ZM229.036 42.2701C230.158 42.2701 231.152 42.0181 232.02 41.5141C232.89 40.9822 233.505 40.2121 233.869 39.2041V36.8941H229.372C226.683 36.8941 225.338 37.7761 225.338 39.5401C225.338 40.3801 225.662 41.0521 226.305 41.5561C226.977 42.0322 227.889 42.2701 229.036 42.2701Z" fill="white"/>
<path d="M269.135 23.748V46.344H262.916V43.656C262.048 44.6361 261.012 45.3921 259.806 45.924C258.602 46.428 257.299 46.68 255.898 46.68C252.929 46.68 250.575 45.826 248.838 44.118C247.102 42.4101 246.232 39.876 246.232 36.516V23.748H252.788V35.55C252.788 39.19 254.315 41.01 257.368 41.01C258.938 41.01 260.199 40.506 261.151 39.498C262.105 38.4621 262.579 36.936 262.579 34.92V23.748H269.135Z" fill="white"/>
<path d="M288.952 23.4121C291.752 23.4121 294.007 24.2521 295.717 25.9321C297.453 27.6121 298.323 30.1042 298.323 33.4081V46.3441H291.767V34.4161C291.767 32.6242 291.374 31.294 290.59 30.4261C289.805 29.53 288.67 29.0821 287.186 29.0821C285.533 29.0821 284.215 29.6002 283.236 30.6361C282.255 31.6441 281.765 33.1561 281.765 35.1721V46.3441H275.21V23.7481H281.471V26.3941C282.339 25.4422 283.417 24.7141 284.707 24.2101C285.995 23.6782 287.409 23.4121 288.952 23.4121Z" fill="white"/>
<path d="M315.437 46.6801C313.027 46.6801 310.856 46.1902 308.923 45.2101C307.018 44.2021 305.519 42.8161 304.427 41.0521C303.361 39.2881 302.83 37.2862 302.83 35.0461C302.83 32.806 303.361 30.8041 304.427 29.0401C305.519 27.2761 307.018 25.9042 308.923 24.9241C310.856 23.9161 313.027 23.4121 315.437 23.4121C317.818 23.4121 319.892 23.9161 321.657 24.9241C323.449 25.9042 324.752 27.3181 325.565 29.1661L320.48 31.8961C319.303 29.824 317.608 28.7881 315.395 28.7881C313.687 28.7881 312.271 29.3482 311.151 30.4681C310.031 31.588 309.47 33.1141 309.47 35.0461C309.47 36.9781 310.031 38.5042 311.151 39.6241C312.271 40.744 313.687 41.3041 315.395 41.3041C317.637 41.3041 319.331 40.2682 320.48 38.1961L325.565 40.9681C324.752 42.76 323.449 44.1601 321.657 45.1681C319.892 46.1761 317.818 46.6801 315.437 46.6801Z" fill="white"/>
<path d="M342.916 23.4136C345.719 23.4136 347.974 24.2536 349.682 25.9336C351.42 27.6136 352.288 30.1057 352.288 33.4096V46.3456H345.732V34.4176C345.732 32.6257 345.341 31.2956 344.555 30.4276C343.772 29.5316 342.637 29.0836 341.151 29.0836C339.5 29.0836 338.182 29.6017 337.201 30.6376C336.222 31.6456 335.73 33.1576 335.73 35.1736V46.3456H329.175V15.1816H335.73V26.1016C336.6 25.2337 337.651 24.5756 338.882 24.1276C340.116 23.6516 341.46 23.4136 342.916 23.4136Z" fill="white"/>
<path fill-rule="evenodd" clip-rule="evenodd" d="M15.8878 58.8327C19.6188 59.2735 24.5072 59.2805 31.5179 59.2805C38.5285 59.2805 43.4169 59.2735 47.148 58.8327C50.7862 58.4031 52.7722 57.6112 54.2242 56.4205C54.8625 55.8967 55.4477 55.3119 55.9717 54.6739C57.1631 53.2228 57.9555 51.2379 58.3854 47.6017C58.8264 43.8728 58.8333 38.9871 58.8333 31.9805C58.8333 24.9738 58.8264 20.0882 58.3854 16.3593C57.9555 12.7231 57.1631 10.7381 55.9717 9.28711C55.4477 8.64913 54.8625 8.06411 54.2242 7.54054C52.7722 6.34972 50.7862 5.55791 47.148 5.1281C43.4169 4.68734 38.5285 4.68047 31.5179 4.68047C24.5072 4.68047 19.6188 4.68734 15.8878 5.1281C12.2496 5.55791 10.2635 6.34972 8.81164 7.54054C8.17329 8.06411 7.58794 8.64913 7.06408 9.28711C5.87257 10.7381 5.08032 12.7231 4.65027 16.3593C4.20925 20.0882 4.20238 24.9738 4.20238 31.9805C4.20238 38.9871 4.20925 43.8728 4.65027 47.6017C5.08032 51.2379 5.87257 53.2228 7.06408 54.6739C7.58794 55.3119 8.17329 55.8967 8.81164 56.4205C10.2635 57.6112 12.2496 58.4031 15.8878 58.8327ZM3.81559 6.62265C0 11.2693 0 18.1731 0 31.9805C0 45.788 0 52.6915 3.81559 57.3382C4.51409 58.1889 5.29454 58.9688 6.14567 59.6671C10.795 63.4805 17.7026 63.4805 31.5179 63.4805C45.3332 63.4805 52.2406 63.4805 56.8899 59.6671C57.7411 58.9688 58.5215 58.1889 59.2202 57.3382C63.0357 52.6915 63.0357 45.788 63.0357 31.9805C63.0357 18.1731 63.0357 11.2693 59.2202 6.62265C58.5215 5.77201 57.7411 4.992 56.8899 4.2939C52.2406 0.480469 45.3332 0.480469 31.5179 0.480469C17.7026 0.480469 10.795 0.480469 6.14567 4.2939C5.29454 4.992 4.51409 5.77201 3.81559 6.62265Z" fill="#FFE500"/>
<path fill-rule="evenodd" clip-rule="evenodd" d="M16.0831 19.9337C15.939 20.3697 15.8224 20.8157 15.7334 21.2717L24.8982 22.2686C24.9949 21.7921 25.1781 21.3534 25.4475 20.9524V20.9524C25.7469 20.5069 26.1531 20.108 26.6656 19.7558C27.9366 18.909 29.8812 18.4857 32.4999 18.4857C36.2354 18.4857 39.9707 19.5441 43.7062 21.6609L44.7209 19.1665L44.7207 19.1664L46.5945 14.5599C44.7459 13.4052 42.5894 12.52 40.1247 11.9042C37.6602 11.2884 35.1378 10.9805 32.5575 10.9805C30.6141 10.9805 28.825 11.1347 27.19 11.4432L27.1902 11.4432C25.7152 11.7215 24.3658 12.1254 23.1421 12.6547C20.6004 13.7709 18.6941 15.2912 17.4233 17.2156C16.845 18.0738 16.3983 18.9798 16.0831 19.9337H16.0831ZM46.3634 46.6011C46.4033 46.5425 46.4426 46.4835 46.4813 46.4245C47.7119 44.5475 48.3274 42.4895 48.3274 40.2507C48.3274 37.5566 47.6148 35.4205 46.19 33.8423C44.8037 32.2644 43.1286 31.1098 41.1646 30.3786C39.2006 29.6472 36.6782 28.9159 33.5974 28.1847C30.6322 27.5304 28.4177 26.8762 26.9545 26.2219C25.5297 25.5291 24.8171 24.4898 24.8171 23.1042C24.8171 22.814 24.8442 22.5355 24.8982 22.2688L15.7334 21.2718C15.5891 22.0103 15.517 22.7751 15.517 23.5662C15.517 26.2603 16.2102 28.4157 17.5965 30.0321C19.0214 31.6487 20.7158 32.8226 22.6798 33.5538C24.6438 34.285 27.1663 35.0162 30.247 35.7477C32.2495 36.2094 33.8283 36.6328 34.9838 37.0177C36.1774 37.4027 37.1402 37.9222 37.8718 38.5764C38.6421 39.1923 39.0273 39.9813 39.0273 40.9435C39.0273 41.6667 38.8331 42.3137 38.4448 42.8841C38.1349 43.3392 37.7014 43.7457 37.1444 44.1038V44.1036L37.1209 44.1185C35.8501 44.8883 33.8861 45.2733 31.2289 45.2733C29.6822 45.2733 28.1356 45.1118 26.5889 44.7886L24.9934 52.2297C27.0112 52.5955 29.0704 52.7784 31.1714 52.7784C34.8682 52.7784 38.0067 52.2203 40.5868 51.1041C40.7267 51.0436 40.8646 50.9821 41.0005 50.9193C42.8342 50.073 44.3185 49.0213 45.4529 47.7641C45.7866 47.3943 46.0902 47.0066 46.3634 46.6011ZM21.0688 51.2581C18.4722 50.4124 16.3521 49.3605 14.7083 48.1022L14.7268 48.0612H14.7267L17.8853 41.0588C19.6182 42.3289 21.6786 43.3488 24.0662 44.1185C24.1345 44.1405 24.2028 44.1624 24.2708 44.1836L21.0688 51.2581Z" fill="#FFE500"/>
</g>
<defs>
<clipPath id="clip0_2972_61031">
<rect width="353" height="63" fill="white" transform="translate(0 0.480469)"/>
</clipPath>
</defs>
</svg>
