<svg width="74" height="28" viewBox="0 0 74 28" fill="none" xmlns="http://www.w3.org/2000/svg">
<path d="M43.6164 20V11.104H40.1924V8.72H50.0005V11.104H46.5764V20H43.6164Z" fill="white"/>
<path d="M50.2834 14.352C50.2834 13.1787 50.5124 12.16 50.9714 11.296C51.4299 10.4214 52.0859 9.74401 52.9394 9.26401C53.7924 8.78401 54.8004 8.54401 55.9634 8.54401C57.1364 8.54401 58.1499 8.78401 59.0034 9.26401C59.8564 9.74401 60.5124 10.4214 60.9714 11.296C61.4404 12.16 61.6754 13.1787 61.6754 14.352C61.6754 15.5147 61.4404 16.5334 60.9714 17.408C60.5124 18.2827 59.8564 18.9654 59.0034 19.456C58.1499 19.936 57.1364 20.176 55.9634 20.176C54.8004 20.176 53.7924 19.936 52.9394 19.456C52.0964 18.9654 51.4404 18.2827 50.9714 17.408C50.5124 16.5334 50.2834 15.5147 50.2834 14.352ZM53.3714 14.352C53.3714 15.056 53.4674 15.6587 53.6594 16.16C53.8514 16.6614 54.1339 17.0454 54.5074 17.312C54.8914 17.5787 55.3764 17.712 55.9634 17.712C56.8379 17.712 57.4939 17.4187 57.9314 16.832C58.3684 16.2347 58.5874 15.408 58.5874 14.352C58.5874 13.648 58.4914 13.0454 58.2994 12.544C58.1074 12.0427 57.8139 11.664 57.4194 11.408C57.0354 11.1414 56.5499 11.008 55.9634 11.008C55.0884 11.008 54.4379 11.3014 54.0114 11.888C53.5844 12.464 53.3714 13.2854 53.3714 14.352Z" fill="white"/>
<path d="M63.4465 20V8.72H65.6225L71.3345 15.808H70.8705V8.72H73.6065V20H71.4305L65.7505 12.912H66.2145V20H63.4465Z" fill="white"/>
<path d="M14 28C21.732 28 28 21.732 28 14C28 6.26801 21.732 0 14 0C6.26801 0 0 6.26801 0 14C0 21.732 6.26801 28 14 28Z" fill="#0088CC"/>
<path fill-rule="evenodd" clip-rule="evenodd" d="M10.1045 9.25214H17.9567C18.2345 9.25214 18.5121 9.29294 18.8022 9.42819C19.1499 9.59024 19.3343 9.84579 19.4635 10.0347C19.4736 10.0494 19.483 10.0646 19.4917 10.0801C19.6436 10.3505 19.7219 10.6424 19.7219 10.9565C19.7219 11.2549 19.6509 11.58 19.4917 11.8633C19.4902 11.866 19.4886 11.8687 19.4871 11.8714L14.5262 20.3932C14.4168 20.5811 14.2154 20.6964 13.998 20.6956C13.7805 20.6948 13.58 20.5781 13.4719 20.3894L8.60212 11.8858C8.60072 11.8836 8.59932 11.8812 8.59792 11.8789C8.48647 11.6953 8.31412 11.4113 8.28397 11.0447C8.25627 10.7077 8.33202 10.37 8.50137 10.0772C8.67072 9.78439 8.92567 9.55029 9.23232 9.40699C9.56112 9.25334 9.89432 9.25214 10.1045 9.25214ZM13.3914 10.4695H10.1045C9.88852 10.4695 9.80562 10.4828 9.74767 10.5099C9.66752 10.5473 9.60022 10.6088 9.55522 10.6867C9.51022 10.7645 9.48987 10.8547 9.49727 10.945C9.50152 10.9968 9.52262 11.056 9.64707 11.2612C9.64967 11.2655 9.65222 11.2699 9.65472 11.2742L13.3914 17.7992V10.4695ZM14.6088 10.4695V17.8314L18.4321 11.2639C18.4752 11.1855 18.5045 11.0722 18.5045 10.9565C18.5045 10.8626 18.485 10.7811 18.4415 10.6971C18.3959 10.6315 18.3681 10.5967 18.3448 10.5729C18.3249 10.5526 18.3095 10.5417 18.2878 10.5316C18.1974 10.4894 18.1049 10.4695 17.9567 10.4695H14.6088Z" fill="white"/>
</svg>
