<svg width="28" height="28" viewBox="0 0 28 28" fill="none" xmlns="http://www.w3.org/2000/svg">
<path d="M14 28C21.732 28 28 21.732 28 14C28 6.26801 21.732 0 14 0C6.26801 0 0 6.26801 0 14C0 21.732 6.26801 28 14 28Z" fill="#0088CC"/>
<path fill-rule="evenodd" clip-rule="evenodd" d="M10.1045 9.25214H17.9567C18.2345 9.25214 18.5121 9.29294 18.8022 9.42819C19.1499 9.59024 19.3343 9.84579 19.4635 10.0347C19.4736 10.0494 19.483 10.0646 19.4917 10.0801C19.6436 10.3505 19.7219 10.6424 19.7219 10.9565C19.7219 11.2549 19.6509 11.58 19.4917 11.8633C19.4902 11.866 19.4886 11.8687 19.4871 11.8714L14.5262 20.3932C14.4168 20.5811 14.2154 20.6964 13.998 20.6956C13.7805 20.6948 13.58 20.5781 13.4719 20.3894L8.60212 11.8858C8.60072 11.8836 8.59932 11.8812 8.59792 11.8789C8.48647 11.6953 8.31412 11.4113 8.28397 11.0447C8.25627 10.7077 8.33202 10.37 8.50137 10.0772C8.67072 9.78439 8.92567 9.55029 9.23232 9.40699C9.56112 9.25334 9.89432 9.25214 10.1045 9.25214ZM13.3914 10.4695H10.1045C9.88852 10.4695 9.80562 10.4828 9.74767 10.5099C9.66752 10.5473 9.60022 10.6088 9.55522 10.6867C9.51022 10.7645 9.48987 10.8547 9.49727 10.945C9.50152 10.9968 9.52262 11.056 9.64707 11.2612C9.64967 11.2655 9.65222 11.2699 9.65472 11.2742L13.3914 17.7992V10.4695ZM14.6088 10.4695V17.8314L18.4321 11.2639C18.4752 11.1855 18.5045 11.0722 18.5045 10.9565C18.5045 10.8626 18.485 10.7811 18.4415 10.6971C18.3959 10.6315 18.3681 10.5967 18.3448 10.5729C18.3249 10.5526 18.3095 10.5417 18.2878 10.5316C18.1974 10.4894 18.1049 10.4695 17.9567 10.4695H14.6088Z" fill="white"/>
</svg>
