<svg width="171" height="60" viewBox="0 0 171 60" fill="none" xmlns="http://www.w3.org/2000/svg">
<path d="M49.6282 30.4263V39.3462C49.625 39.9025 49.4774 40.4484 49.2001 40.9305C48.9227 41.4127 48.5249 41.8146 48.0457 42.097L40.3188 46.5477C39.8402 46.833 39.2935 46.9835 38.7363 46.9835C38.1792 46.9835 37.6324 46.833 37.1539 46.5477L29.4269 42.097C28.9477 41.8146 28.5499 41.4127 28.2725 40.9305C27.9952 40.4484 27.8477 39.9025 27.8445 39.3462V36.8427L31.8006 34.5463V38.8981L38.724 42.916L45.6472 38.8981V30.8806L38.724 26.8627L22.5037 36.2586C22.0206 36.5307 21.4756 36.6737 20.9211 36.6737C20.3668 36.6737 19.8217 36.5307 19.3387 36.2586L11.6118 31.7893C11.1399 31.5026 10.7498 31.0992 10.4791 30.6179C10.2084 30.1367 10.0663 29.5938 10.0664 29.0416V20.1217C10.0696 19.5654 10.2171 19.0196 10.4945 18.5374C10.7719 18.0552 11.1697 17.6533 11.6488 17.3709L19.3758 12.9202C19.8554 12.6378 20.4017 12.4889 20.9582 12.4889C21.5148 12.4889 22.0611 12.6378 22.5407 12.9202L30.2677 17.3709C30.7468 17.6533 31.1447 18.0552 31.422 18.5374C31.6994 19.0196 31.8469 19.5654 31.8501 20.1217V22.6252L27.8692 24.9062V20.5791L20.9459 16.5612L14.0225 20.5791V28.5873L20.9459 32.6053L37.1662 23.2094C37.6492 22.9372 38.1942 22.7943 38.7487 22.7943C39.3031 22.7943 39.8481 22.9372 40.3311 23.2094L48.0581 27.6786C48.5345 27.9623 48.9296 28.3644 49.2047 28.8459C49.4798 29.3273 49.6257 29.8718 49.6282 30.4263Z" fill="#7B3FE4"/>
<path d="M63.3965 42.5884V35.6373C64.1506 36.5861 65.5199 37.1177 67.1054 37.1177C71.1543 37.1177 73.8896 34.2433 73.8896 29.8607C73.8896 25.478 71.3769 22.6036 67.4423 22.6036C65.628 22.6036 64.231 23.2743 63.3934 24.3622V22.8168H59.5176V42.5791L63.3965 42.5884ZM66.6263 33.7674C64.5308 33.7674 63.1647 32.2035 63.1647 29.8607C63.1647 27.5179 64.5308 25.9261 66.6263 25.9261C68.6631 25.9261 70.0601 27.4715 70.0601 29.8607C70.0601 32.2498 68.6724 33.7674 66.6263 33.7674Z" fill="white"/>
<path d="M82.6991 37.1178C87.0265 37.1178 90.1169 34.0456 90.1169 29.8607C90.1169 25.6757 87.0265 22.6036 82.6991 22.6036C78.372 22.6036 75.2812 25.6727 75.2812 29.8607C75.2812 34.0486 78.372 37.1178 82.6991 37.1178ZM82.6991 33.7674C80.6066 33.7674 79.1818 32.1756 79.1818 29.8607C79.1818 27.5457 80.6097 25.9261 82.6991 25.9261C84.7885 25.9261 86.2161 27.5148 86.2161 29.8607C86.2161 32.2065 84.7942 33.7674 82.6991 33.7674Z" fill="white"/>
<path d="M96.3503 36.8953V16.7126H92.4717V36.8953H96.3503Z" fill="white"/>
<path d="M108.012 22.8261L105.082 31.8975L102.124 22.8261H98.1523L103.258 36.7809L101.193 42.5884H104.903L106.896 36.8427L112.005 22.8322L108.012 22.8261Z" fill="white"/>
<path d="M122.901 24.2231C122.119 23.2464 120.738 22.6036 119.022 22.6036C114.918 22.6036 112.436 25.478 112.436 29.8607C112.436 34.2433 114.908 37.1177 119.077 37.1177C120.725 37.1177 122.202 36.4997 122.929 35.4704V37.3249C122.929 38.6353 122.063 39.5564 120.892 39.5564H114.416V42.6008H121.507C124.687 42.6008 126.808 40.6752 126.808 37.7421V22.8261H122.901V24.2231ZM119.692 33.7674C117.625 33.7674 116.259 32.222 116.259 29.8607C116.259 27.4993 117.625 25.9261 119.692 25.9261C121.76 25.9261 123.151 27.4716 123.151 29.8607C123.151 32.2499 121.785 33.7674 119.692 33.7674Z" fill="white"/>
<path d="M136.59 37.1178C140.917 37.1178 144.007 34.0456 144.007 29.8607C144.007 25.6757 140.917 22.6036 136.59 22.6036C132.263 22.6036 129.172 25.6727 129.172 29.8607C129.172 34.0486 132.263 37.1178 136.59 37.1178ZM136.59 33.7674C134.495 33.7674 133.073 32.1756 133.073 29.8607C133.073 27.5457 134.495 25.9261 136.59 25.9261C138.686 25.9261 140.107 27.5148 140.107 29.8607C140.107 32.2065 138.682 33.7674 136.59 33.7674Z" fill="white"/>
<path d="M150.043 36.8952V29.1899C150.043 27.3757 151.242 26.0652 152.945 26.0652C154.565 26.0652 155.653 27.3015 155.653 28.9952V36.8952H159.559V28.1298C159.559 24.8907 157.496 22.6036 154.306 22.6036C152.38 22.6036 150.819 23.4133 150.038 24.7671V22.8261H146.137V36.8952H150.043Z" fill="white"/>
</svg>
