<svg width="220" height="56" viewBox="0 0 220 56" fill="none" xmlns="http://www.w3.org/2000/svg">
<g clip-path="url(#clip0_10_183)">
<path d="M62.5482 32.1464C62.545 32.3376 62.4663 32.5197 62.3291 32.653C62.192 32.7863 62.0077 32.8599 61.8165 32.8578H48.3409C48.6864 36.1911 51.1864 39.2399 54.723 39.2399C57.1417 39.2399 58.9303 38.3252 60.2718 36.3944C60.3343 36.2929 60.4207 36.2083 60.5234 36.1481C60.6262 36.0879 60.7422 36.0538 60.8612 36.0488C60.95 36.0463 61.0384 36.0619 61.1209 36.0947C61.2034 36.1275 61.2783 36.1769 61.3411 36.2397C61.4039 36.3024 61.4532 36.3774 61.4861 36.4599C61.5189 36.5424 61.5345 36.6308 61.532 36.7196C61.5324 36.8422 61.4971 36.9622 61.4303 37.0651C60.0686 39.4228 57.3653 40.5813 54.723 40.5813C50.1905 40.5813 46.9385 36.5163 46.9385 32.187C46.9385 27.8578 50.1702 23.7927 54.723 23.7927C59.2759 23.7927 62.5279 27.8171 62.5482 32.1464V32.1464ZM61.1051 31.5163C60.8206 28.183 58.2596 25.1342 54.723 25.1342C51.1864 25.1342 48.6864 28.183 48.3409 31.5163H61.1051Z" fill="#8891B1"/>
<path d="M78.9302 24.1179C79.1064 24.123 79.2741 24.1953 79.3988 24.32C79.5235 24.4447 79.5958 24.6124 79.6009 24.7887C79.6034 24.8774 79.5878 24.9658 79.555 25.0483C79.5222 25.1308 79.4729 25.2058 79.4101 25.2686C79.3473 25.3314 79.2723 25.3807 79.1898 25.4135C79.1073 25.4463 79.0189 25.4619 78.9302 25.4594H75.3123V39.6667C75.3107 39.8441 75.2395 40.0138 75.1141 40.1392C74.9886 40.2647 74.819 40.3358 74.6416 40.3374C74.4653 40.3323 74.2976 40.26 74.1729 40.1353C74.0482 40.0106 73.9759 39.843 73.9708 39.6667V25.4594H70.4952C70.4064 25.4619 70.3181 25.4463 70.2356 25.4135C70.1531 25.3807 70.0781 25.3314 70.0153 25.2686C69.9525 25.2058 69.9032 25.1308 69.8704 25.0483C69.8376 24.9658 69.822 24.8774 69.8245 24.7887C69.8261 24.6113 69.8972 24.4416 70.0227 24.3161C70.1481 24.1907 70.3178 24.1195 70.4952 24.1179H73.9708V18.935C73.9712 18.7633 74.0328 18.5973 74.1445 18.4669C74.2563 18.3365 74.4109 18.2502 74.5806 18.2236C74.6754 18.211 74.7719 18.2191 74.8633 18.2472C74.9548 18.2753 75.0391 18.3228 75.1105 18.3865C75.1819 18.4501 75.2387 18.5285 75.277 18.6161C75.3154 18.7038 75.3343 18.7987 75.3326 18.8944V24.1179H78.9302Z" fill="#8891B1"/>
<path d="M100.984 30.9878V39.5854C100.979 39.7617 100.906 39.9293 100.782 40.054C100.657 40.1787 100.489 40.251 100.313 40.2561C100.224 40.2586 100.136 40.243 100.053 40.2102C99.9709 40.1774 99.8959 40.1281 99.8331 40.0653C99.7703 40.0025 99.721 39.9275 99.6882 39.845C99.6554 39.7625 99.6398 39.6742 99.6423 39.5854V30.9878C99.6423 28.0813 97.996 25.1951 94.7643 25.1951C90.6179 25.1951 88.8293 28.813 89.0732 32.5325C89.0732 32.6342 89.1138 33.061 89.1138 33.122V39.5651C89.1135 39.7368 89.0519 39.9028 88.9401 40.0332C88.8284 40.1636 88.6738 40.2498 88.5041 40.2764C88.4092 40.289 88.3128 40.281 88.2214 40.2529C88.1299 40.2248 88.0456 40.1773 87.9742 40.1136C87.9028 40.0499 87.846 39.9716 87.8076 39.8839C87.7693 39.7963 87.7503 39.7014 87.7521 39.6057V11.3334C87.7537 11.156 87.8248 10.9863 87.9503 10.8608C88.0757 10.7354 88.2454 10.6642 88.4228 10.6626C88.5991 10.6677 88.7667 10.74 88.8914 10.8647C89.0161 10.9894 89.0884 11.1571 89.0935 11.3334V27.309C90.2521 25.2358 92.3252 23.8334 94.7439 23.8334C98.7277 23.8334 100.984 27.309 100.984 30.9878Z" fill="#8891B1"/>
<path d="M125.191 32.1464C125.188 32.3376 125.109 32.5197 124.972 32.653C124.835 32.7863 124.65 32.8599 124.459 32.8578H110.983C111.329 36.1911 113.829 39.2399 117.366 39.2399C119.784 39.2399 121.573 38.3252 122.914 36.3944C122.977 36.2929 123.063 36.2083 123.166 36.1481C123.269 36.0879 123.385 36.0538 123.504 36.0488C123.593 36.0463 123.681 36.0619 123.763 36.0947C123.846 36.1275 123.921 36.1769 123.984 36.2397C124.047 36.3024 124.096 36.3774 124.129 36.4599C124.161 36.5424 124.177 36.6308 124.175 36.7196C124.175 36.8422 124.14 36.9622 124.073 37.0651C122.711 39.4228 120.008 40.5813 117.366 40.5813C112.833 40.5813 109.581 36.5163 109.581 32.187C109.581 27.8578 112.813 23.7927 117.366 23.7927C121.878 23.7927 125.17 27.8171 125.191 32.1464V32.1464ZM123.727 31.5163C123.443 28.183 120.882 25.1342 117.345 25.1342C113.809 25.1342 111.309 28.183 110.963 31.5163H123.727Z" fill="#8891B1"/>
<path d="M141.756 24.748C141.769 24.9285 141.71 25.1067 141.592 25.2438C141.473 25.3809 141.306 25.4657 141.126 25.4797C137.162 26.0691 135.374 29.3008 135.374 33.061V39.5041C135.373 39.6758 135.312 39.8418 135.2 39.9722C135.088 40.1026 134.934 40.1889 134.764 40.2155C134.669 40.2281 134.573 40.22 134.481 40.1919C134.39 40.1638 134.305 40.1163 134.234 40.0526C134.163 39.989 134.106 39.9106 134.067 39.823C134.029 39.7353 134.01 39.6404 134.012 39.5447V24.8496C134.012 24.6779 134.074 24.5119 134.186 24.3815C134.297 24.2511 134.452 24.1649 134.622 24.1382C134.716 24.1257 134.813 24.1337 134.904 24.1618C134.996 24.1899 135.08 24.2374 135.151 24.3011C135.223 24.3648 135.28 24.4431 135.318 24.5308C135.356 24.6184 135.375 24.7133 135.374 24.809V27.7968C136.492 25.9065 138.707 24.1179 141.024 24.1179C141.37 24.1179 141.756 24.3618 141.756 24.748Z" fill="#8891B1"/>
<path d="M163.911 32.1464C163.907 32.3376 163.829 32.5197 163.691 32.653C163.554 32.7863 163.37 32.8599 163.179 32.8578H149.703C150.049 36.1911 152.549 39.2399 156.085 39.2399C158.504 39.2399 160.293 38.3252 161.634 36.3944C161.697 36.2929 161.783 36.2083 161.886 36.1481C161.989 36.0879 162.105 36.0538 162.224 36.0488C162.312 36.0463 162.401 36.0619 162.483 36.0947C162.566 36.1275 162.641 36.1769 162.703 36.2397C162.766 36.3024 162.816 36.3774 162.848 36.4599C162.881 36.5424 162.897 36.6308 162.894 36.7196C162.895 36.8422 162.859 36.9622 162.793 37.0651C161.431 39.4228 158.728 40.5813 156.085 40.5813C151.553 40.5813 148.301 36.5163 148.301 32.187C148.301 27.8578 151.532 23.7927 156.085 23.7927C160.638 23.7927 163.89 27.8171 163.911 32.1464V32.1464ZM162.467 31.5163C162.183 28.183 159.622 25.1342 156.085 25.1342C152.549 25.1342 150.049 28.183 149.703 31.5163H162.467Z" fill="#8891B1"/>
<path d="M185.699 24.9106V39.6667C185.694 39.843 185.622 40.0106 185.497 40.1353C185.372 40.26 185.205 40.3323 185.028 40.3375C184.94 40.34 184.851 40.3244 184.769 40.2915C184.686 40.2587 184.611 40.2094 184.548 40.1466C184.486 40.0838 184.436 40.0089 184.404 39.9264C184.371 39.8438 184.355 39.7555 184.358 39.6667V36.8618C183.24 39.0773 181.268 40.683 178.748 40.683C174.744 40.683 172.528 37.2074 172.528 33.5285V24.8903C172.53 24.7129 172.601 24.5432 172.727 24.4178C172.852 24.2923 173.022 24.2212 173.199 24.2196C173.375 24.2247 173.543 24.297 173.668 24.4217C173.792 24.5464 173.865 24.714 173.87 24.8903V33.5285C173.87 36.435 175.516 39.3212 178.748 39.3212C183.28 39.3212 184.358 35.0732 184.358 30.3781V24.87C184.359 24.7612 184.387 24.6544 184.438 24.5585C184.489 24.4626 184.563 24.3804 184.652 24.3187C184.742 24.257 184.845 24.2176 184.953 24.2039C185.06 24.1902 185.17 24.2025 185.272 24.2399C185.4 24.2993 185.508 24.394 185.584 24.5128C185.659 24.6317 185.699 24.7697 185.699 24.9106V24.9106Z" fill="#8891B1"/>
<path d="M219.825 30.9269V39.5651C219.82 39.7413 219.747 39.909 219.623 40.0337C219.498 40.1584 219.33 40.2307 219.154 40.2358C219.065 40.2383 218.977 40.2227 218.894 40.1899C218.812 40.1571 218.737 40.1078 218.674 40.045C218.611 39.9822 218.562 39.9072 218.529 39.8247C218.496 39.7422 218.481 39.6538 218.483 39.5651V30.9269C218.483 28.0204 216.837 25.1748 213.605 25.1748C209.54 25.1748 207.995 29.5244 207.995 32.8984V39.5651C207.99 39.7413 207.918 39.909 207.793 40.0337C207.669 40.1584 207.501 40.2307 207.325 40.2358C207.236 40.2383 207.148 40.2227 207.065 40.1899C206.983 40.1571 206.908 40.1078 206.845 40.045C206.782 39.9822 206.733 39.9072 206.7 39.8247C206.667 39.7422 206.651 39.6538 206.654 39.5651V30.9269C206.654 28.0204 205.008 25.1748 201.776 25.1748C197.67 25.1748 195.983 28.4065 196.126 32.7155C196.126 32.8171 196.166 33 196.126 33.061V39.5448C196.125 39.7165 196.064 39.8825 195.952 40.0129C195.84 40.1433 195.685 40.2295 195.516 40.2561C195.421 40.2687 195.325 40.2607 195.233 40.2326C195.142 40.2045 195.057 40.157 194.986 40.0933C194.915 40.0296 194.858 39.9513 194.819 39.8636C194.781 39.776 194.762 39.6811 194.764 39.5854V24.8496C194.764 24.6779 194.826 24.5119 194.937 24.3815C195.049 24.2511 195.204 24.1649 195.374 24.1383C195.468 24.1257 195.565 24.1337 195.656 24.1618C195.748 24.1899 195.832 24.2374 195.903 24.3011C195.975 24.3648 196.032 24.4431 196.07 24.5308C196.108 24.6184 196.127 24.7133 196.126 24.809V27.2683C197.284 25.1952 199.357 23.8334 201.776 23.8334C204.52 23.8334 206.654 25.5813 207.528 28.122C208.646 25.6017 210.821 23.8334 213.605 23.8334C217.569 23.8334 219.825 27.2683 219.825 30.9269Z" fill="#8891B1"/>
<path d="M17.2165 0.5L0.3125 28.5512L17.2165 20.8681V0.5Z" fill="#8891B1"/>
<path d="M17.2165 20.8681L0.3125 28.5512L17.2165 38.5458V20.8681Z" fill="#63688E"/>
<path d="M34.1239 28.5512L17.2168 0.500031V20.8681L34.1239 28.5512Z" fill="#63688E"/>
<path d="M17.2168 38.5458L34.1239 28.5512L17.2168 20.8681V38.5458Z" fill="#464A75"/>
<path d="M0.3125 31.7585L17.2165 55.5813V41.7468L0.3125 31.7585Z" fill="#8891B1"/>
<path d="M17.2168 41.7468V55.5813L34.1333 31.7585L17.2168 41.7468Z" fill="#63688E"/>
</g>
<defs>
<clipPath id="clip0_10_183">
<rect width="219.512" height="55" fill="white" transform="translate(0.3125 0.5)"/>
</clipPath>
</defs>
</svg>
