<svg width="122" height="51" viewBox="0 0 122 51" fill="none" xmlns="http://www.w3.org/2000/svg">
<g clip-path="url(#clip0_1067_6890)">
<path d="M10.2527 5.95537C10.1257 6.78614 9.88322 7.59571 9.53221 8.36132C9.38166 8.70049 9.24186 8.97608 9.14508 9.17746C9.09698 9.28807 9.03942 9.39443 8.97301 9.49542C8.74368 9.31077 8.54424 9.09277 8.38156 8.8489C7.98041 8.25907 7.79112 7.55385 7.84386 6.84568C7.93427 5.93377 8.23994 5.05535 8.73643 4.28072C8.84397 4.10053 8.95151 3.93096 9.04829 3.79317C9.13458 3.6646 9.22792 3.54076 9.32789 3.4222L9.58598 3.10425C9.76702 3.34386 9.91191 3.60803 10.0161 3.88856C10.1279 4.17881 10.2037 4.48131 10.242 4.78948C10.3 5.17576 10.3036 5.56811 10.2527 5.95537Z" fill="#082148"/>
<path d="M6.61753 12.2936C6.72181 13.2144 6.70011 14.1448 6.553 15.0599C6.553 15.2613 6.49924 15.4415 6.46697 15.6111C6.43471 15.7806 6.4132 15.9184 6.3917 16.0456L6.30566 16.4272C6.00314 16.299 5.72354 16.1237 5.47762 15.9078C5.21798 15.6847 4.99009 15.428 4.80013 15.1447C4.56655 14.7689 4.39929 14.3568 4.30546 13.9258C4.13708 12.9357 4.1996 11.9209 4.48827 10.9581C4.58379 10.5978 4.70232 10.2438 4.84315 9.89824C4.95068 9.63326 5.02596 9.48486 5.02596 9.48486L5.23028 9.65445C5.40612 9.81767 5.56797 9.99492 5.71421 10.1844C5.92939 10.4528 6.10665 10.7488 6.24114 11.0641C6.42202 11.4555 6.54862 11.869 6.61753 12.2936Z" fill="#082148"/>
<path d="M4.75713 19.3633C5.13828 20.3086 5.40887 21.2936 5.56367 22.2992C5.56367 22.5112 5.62819 22.7232 5.66045 22.9034C5.69271 23.0836 5.66045 23.2426 5.72497 23.3803C5.7895 23.5181 5.77874 23.8043 5.77874 23.8043C5.67853 23.8121 5.57785 23.8121 5.47764 23.8043C5.22386 23.7577 4.97533 23.6867 4.73562 23.5923C4.3855 23.4463 4.05933 23.2498 3.76778 23.0094C3.38678 22.6881 3.06956 22.3 2.8322 21.8647C2.33031 20.8381 2.08685 19.7074 2.12244 18.5684C2.10567 18.3355 2.10567 18.1018 2.12244 17.8689C2.12244 17.6569 2.12244 17.4661 2.12244 17.3071C2.12244 17.1481 2.19772 16.8196 2.19772 16.8196C2.53697 16.9584 2.85252 17.1479 3.1333 17.3813C3.43106 17.6162 3.70155 17.8828 3.93984 18.1762C4.26189 18.5365 4.53649 18.9353 4.75713 19.3633Z" fill="#082148"/>
<path d="M5.13363 26.7188C5.86874 27.5519 6.50383 28.466 7.0263 29.4427L7.19836 29.75C7.25213 29.8454 7.3059 29.9302 7.34892 30.0256C7.39193 30.121 7.53173 30.3542 7.59626 30.492L7.81133 30.9054C7.70617 30.9392 7.59823 30.964 7.48872 30.9795C7.20638 31.0102 6.9215 31.0102 6.63916 30.9795C5.68313 30.933 4.7738 30.558 4.069 29.9196C3.16859 29.0307 2.50065 27.9395 2.12256 26.7399C2.02577 26.475 1.96125 26.2206 1.89673 25.9874C1.83221 25.7542 1.78919 25.5529 1.75693 25.3833C1.69241 25.0335 1.6709 24.8215 1.6709 24.8215H1.99351C2.27572 24.8808 2.55263 24.9623 2.82156 25.0653C3.19825 25.2165 3.55853 25.4047 3.89694 25.6271C4.10365 25.7627 4.30122 25.9114 4.4884 26.0722C4.72254 26.2684 4.93847 26.4848 5.13363 26.7188Z" fill="#082148"/>
<path d="M7.88686 33.5868L8.29551 33.82L8.6934 34.0743L9.44616 34.6255L9.80104 34.9117L9.9731 35.06L10.1452 35.1978L10.7689 35.7489C11.1668 36.0775 11.4786 36.3955 11.7152 36.6075L12.0809 36.9679C11.9855 37.0357 11.8848 37.0959 11.7797 37.148C11.5136 37.291 11.2323 37.4047 10.9409 37.4872C10.5118 37.6112 10.065 37.6649 9.61822 37.6462C9.02784 37.6261 8.44708 37.4929 7.90837 37.254C6.67579 36.6467 5.61256 35.7516 4.81127 34.6467C4.62845 34.4029 4.46715 34.1591 4.32735 33.9471C4.18755 33.7352 4.0585 33.5338 3.97247 33.3642C3.78965 33.025 3.69287 32.8237 3.69287 32.8237L4.04775 32.7601C4.35529 32.7304 4.66503 32.7304 4.97257 32.7601L5.5963 32.8237C5.82213 32.8237 6.05871 32.9084 6.30605 32.972C6.55339 33.0356 6.81148 33.131 7.06957 33.237C7.35015 33.3341 7.62328 33.451 7.88686 33.5868Z" fill="#082148"/>
<path d="M12.6829 39.2681C13.3505 39.4046 14.0079 39.5852 14.6509 39.8086C14.9627 39.9146 15.2746 40.0206 15.565 40.1372L15.9951 40.3068L16.393 40.4551C16.9199 40.6671 17.3716 40.8367 17.6835 40.9851L18.0598 41.1441L18.1889 41.1971C18.1192 41.3 18.0438 41.3991 17.9631 41.4938C17.7511 41.7442 17.5091 41.9684 17.2426 42.1616C16.8572 42.4424 16.4288 42.6606 15.9736 42.8081C15.6907 42.9013 15.3988 42.9652 15.1025 42.9989C14.745 43.0339 14.3847 43.0339 14.0272 42.9989C13.6649 42.9584 13.3057 42.8946 12.9518 42.8081C12.5865 42.7004 12.2275 42.5731 11.8764 42.4266C11.5215 42.2676 11.1774 42.098 10.801 41.9178C10.4246 41.7376 10.1773 41.5362 9.88694 41.3454L9.68262 41.2077L9.48905 41.0593L9.14493 40.7837C8.9191 40.6035 8.72553 40.4445 8.57498 40.2962C8.42442 40.1478 8.10181 39.8192 8.10181 39.8192C8.20909 39.7556 8.32045 39.699 8.43518 39.6496C8.74039 39.5134 9.05703 39.4034 9.38151 39.3211C9.60097 39.2655 9.82362 39.223 10.0482 39.1939C10.3043 39.1519 10.563 39.1271 10.8225 39.1197C11.4384 39.0959 12.055 39.1385 12.6614 39.2469L12.6829 39.2681Z" fill="#082148"/>
<path d="M19.1997 43.0836C19.555 43.0142 19.914 42.9646 20.2751 42.9352C20.6407 42.9352 21.0063 42.861 21.3504 42.8504C21.6946 42.8398 22.0602 42.8504 22.4258 42.8504H23.3829C23.9851 42.8504 24.4583 42.8504 24.8669 42.8504H25.4584C25.4365 42.9825 25.4078 43.1134 25.3724 43.2426C25.271 43.5706 25.134 43.8869 24.9637 44.1859C24.8476 44.394 24.7145 44.5925 24.5658 44.7794C24.4863 44.887 24.4001 44.9896 24.3077 45.0868C24.2089 45.1874 24.1048 45.2829 23.9959 45.373C23.7502 45.5811 23.4877 45.7689 23.2108 45.9347C22.8683 46.1151 22.5079 46.2607 22.1355 46.3693C21.7396 46.4924 21.3327 46.5776 20.9203 46.6236C20.4925 46.6783 20.0607 46.696 19.6298 46.6766C19.2008 46.6703 18.773 46.6314 18.3501 46.56C17.9547 46.5024 17.5633 46.421 17.178 46.3163L16.651 46.1679L16.1779 46.0089C15.8767 45.9029 15.6079 45.8075 15.4036 45.7121C14.9734 45.5214 14.7153 45.3835 14.7153 45.3835C14.8051 45.2814 14.9021 45.1858 15.0057 45.0974C15.2647 44.854 15.5455 44.6341 15.8445 44.4403C16.2889 44.1613 16.7565 43.9202 17.2425 43.7195C17.8694 43.4379 18.5257 43.2246 19.1997 43.0836Z" fill="#082148"/>
<path d="M11.6506 7.00472C10.874 7.32094 10.1901 7.82378 9.66119 8.46738C9.46612 8.69945 9.28651 8.94374 9.1235 9.19871L8.92993 9.49548C9.21023 9.59398 9.50375 9.65112 9.80099 9.66507C10.4885 9.7189 11.1789 9.6061 11.812 9.33651C12.4848 9.00789 13.1044 8.58285 13.6509 8.07523L13.9735 7.77846C14.0703 7.68307 14.1563 7.60886 14.2208 7.53467L14.4251 7.3121C14.184 7.15253 13.9192 7.03095 13.6401 6.95174C12.9953 6.73451 12.2955 6.73451 11.6506 6.95174V7.00472Z" fill="#082148"/>
<path d="M8.41366 13.0038C7.7009 13.5678 7.1396 14.2957 6.77908 15.1236C6.69305 15.3073 6.61777 15.4769 6.55325 15.6324L6.41345 16.0457C6.33817 16.2789 6.30591 16.4273 6.30591 16.4273C6.63395 16.4413 6.9625 16.4164 7.28451 16.3531C7.61087 16.2918 7.92858 16.1922 8.23084 16.0563C8.61665 15.9019 8.97862 15.6949 9.30622 15.4416C9.93337 14.8984 10.4704 14.2618 10.8978 13.5549C11.0914 13.2582 11.2419 12.9932 11.3495 12.8024L11.5 12.4951L11.2419 12.4315C11.0128 12.3792 10.7781 12.3543 10.5429 12.3573C10.2126 12.348 9.88282 12.3873 9.56432 12.4739C9.15064 12.5784 8.7604 12.7581 8.41366 13.0038Z" fill="#082148"/>
<path d="M6.86523 19.5859C6.26391 20.3736 5.89209 21.3081 5.78985 22.2886C5.78985 22.5112 5.78985 22.7126 5.73608 22.8928V23.3803C5.73608 23.6453 5.73608 23.8043 5.73608 23.8043C5.83125 23.7828 5.9247 23.7544 6.01568 23.7195C6.26192 23.6315 6.49949 23.5215 6.72544 23.3909C7.03874 23.2144 7.33404 23.0086 7.60725 22.7762C7.93778 22.4962 8.23053 22.1756 8.47831 21.8223C8.95041 21.101 9.31272 20.3154 9.55369 19.4905C9.55369 19.3103 9.66123 19.1407 9.69349 18.9924C9.72575 18.844 9.76877 18.7062 9.80103 18.6002L9.88706 18.2398C9.52538 18.2271 9.16362 18.2627 8.81168 18.3458C8.46318 18.4305 8.1271 18.5587 7.81157 18.7274C7.44861 18.9581 7.12852 19.2485 6.86523 19.5859Z" fill="#082148"/>
<path d="M7.38137 26.2208C7.05288 27.2517 7.01939 28.352 7.28459 29.4005C7.28459 29.5171 7.33836 29.623 7.35987 29.729L7.45665 30.0364C7.52117 30.2272 7.57494 30.3862 7.62871 30.524C7.66107 30.6338 7.70429 30.7404 7.75776 30.8419L7.81153 30.9585L8.06962 30.7677C8.2802 30.5871 8.47782 30.3923 8.66108 30.1848C9.23494 29.5379 9.65717 28.7743 9.89777 27.9484C10.1244 27.055 10.2186 26.1339 10.1774 25.2139C10.1774 25.0231 10.1774 24.8429 10.1774 24.6839C10.1774 24.5249 10.1774 24.3766 10.1774 24.26C10.1774 24.1434 10.1774 23.8784 10.1774 23.8784L9.87626 23.9738C9.6158 24.0693 9.36398 24.1863 9.12349 24.3236C8.58715 24.6344 8.13371 25.0668 7.80077 25.5848C7.63905 25.782 7.4985 25.9951 7.38137 26.2208Z" fill="#082148"/>
<path d="M10.0159 32.3153C10.0159 32.4637 10.0159 32.6121 10.0159 32.7499C10.0159 32.8877 10.0159 33.0466 10.0159 33.1844C10.0596 33.4767 10.1316 33.7642 10.231 34.0429L10.3708 34.4563C10.3708 34.5199 10.4245 34.5835 10.4568 34.6577L10.5536 34.8485C10.6719 35.0922 10.8009 35.336 10.93 35.5586C11.1542 35.9296 11.4058 36.2838 11.6827 36.6185L12.0161 37.0001C12.0868 36.9089 12.1515 36.8133 12.2097 36.7139C12.3675 36.4565 12.5042 36.1872 12.6183 35.9084C12.7761 35.5207 12.8985 35.1198 12.9839 34.7107C13.0855 34.2228 13.1252 33.7244 13.1022 33.2268C13.0303 32.2445 12.8166 31.2774 12.4678 30.3545C12.3925 30.1637 12.328 29.9729 12.2634 29.814C12.1989 29.655 12.1344 29.5172 12.0914 29.4006C12.0469 29.2698 11.993 29.1423 11.9301 29.019L11.6505 29.2204C11.4146 29.4028 11.1951 29.605 10.9945 29.8245C10.8623 29.9719 10.7402 30.1277 10.6289 30.2909C10.5141 30.4721 10.4099 30.6596 10.317 30.8526C10.21 31.0778 10.1236 31.3119 10.0589 31.5522C10.0227 31.8049 10.0083 32.0602 10.0159 32.3153Z" fill="#082148"/>
<path d="M14.4249 37.3177C14.6105 37.9167 14.9057 38.4771 15.296 38.9712C15.4802 39.2175 15.6852 39.448 15.909 39.6601L16.2316 39.9675L16.5542 40.2431C16.9155 40.5235 17.2964 40.7785 17.6941 41.0062L18.0597 41.1864L18.1888 41.2499C18.2231 41.1283 18.2482 41.0043 18.2641 40.879C18.3213 40.5675 18.3537 40.2521 18.3608 39.9357C18.3725 39.4889 18.3437 39.042 18.2748 38.6002C18.2748 38.3564 18.1888 38.1021 18.1242 37.8477C18.0561 37.5843 17.9699 37.3258 17.8662 37.074C17.4648 36.1356 16.9367 35.255 16.2961 34.456L16.1993 34.3288L16.1133 34.1381C16.0595 34.0533 15.995 33.9791 15.9412 33.9049C15.8875 33.8307 15.7154 33.6505 15.6401 33.5445L15.3605 33.2266C15.2788 33.3205 15.2033 33.4197 15.1347 33.5233C14.9483 33.782 14.7897 34.059 14.6615 34.35C14.5744 34.5397 14.499 34.7344 14.4357 34.933C14.3756 35.1562 14.329 35.3827 14.2959 35.6113C14.2686 35.8721 14.2686 36.1349 14.2959 36.3956C14.3056 36.7067 14.3489 37.0158 14.4249 37.3177Z" fill="#082148"/>
<path d="M13.1347 2.54257C12.3654 3.22141 11.7844 4.08227 11.4464 5.04391C11.3819 5.23469 11.3173 5.4043 11.2743 5.56328C11.2313 5.72226 11.2098 5.84946 11.1883 5.96605C11.1668 6.08263 11.1345 6.3158 11.1345 6.3158C11.2481 6.27586 11.3594 6.22986 11.4679 6.17801L11.8443 5.99784L12.3174 5.75405C13.152 5.32233 13.9347 4.79972 14.651 4.19601C15.3405 3.57936 15.9672 2.89778 16.5222 2.16099L16.8448 1.74765C16.9416 1.62046 17.0169 1.51448 17.0921 1.42969L17.2965 1.12231H16.9201H16.4899C16.3286 1.12231 16.1458 1.1223 15.9415 1.20709C15.7188 1.24243 15.4994 1.2956 15.2855 1.36607L14.9306 1.47207L14.5757 1.63104L14.2101 1.80063C14.0846 1.86499 13.9625 1.93576 13.8445 2.01262L13.4789 2.25641L13.1347 2.54257Z" fill="#082148"/>
<path d="M20.1569 40.4233C20.3627 40.6778 20.5893 40.9153 20.8344 41.1334C21.0952 41.3431 21.3681 41.5377 21.6517 41.7164C21.9528 41.8754 22.2431 42.0237 22.5442 42.1509C22.8453 42.2781 23.1464 42.3629 23.426 42.4477C23.8984 42.5719 24.3804 42.6569 24.8671 42.7021C25.2434 42.7021 25.4585 42.7021 25.4585 42.7021C25.4366 42.57 25.4079 42.4391 25.3725 42.3099C25.2839 41.9813 25.1725 41.659 25.0391 41.3454C24.9536 41.1355 24.8567 40.9303 24.7488 40.7307C24.695 40.6247 24.6412 40.5187 24.5767 40.4127C24.5122 40.3067 24.4584 40.1901 24.3831 40.0735C24.3079 39.957 24.0928 39.6284 23.9315 39.4164C23.7605 39.188 23.5774 38.9687 23.383 38.7593C22.651 38.0231 21.8355 37.3723 20.9527 36.8197L20.6838 36.6607L20.4472 36.5123L20.0386 36.2685C19.9205 36.1949 19.7985 36.1276 19.673 36.0671C19.673 36.0671 19.6192 36.1943 19.5439 36.4381C19.4516 36.7608 19.3869 37.0905 19.3503 37.4238C19.3025 37.8877 19.3279 38.3561 19.4256 38.8123C19.5462 39.3957 19.7959 39.9458 20.1569 40.4233Z" fill="#082148"/>
<path d="M26.867 48.4679C27.5171 47.521 27.913 46.427 28.0176 45.2882C28.067 44.8697 28.0886 44.4483 28.0822 44.027C28.0822 43.7196 28.0822 43.5288 28.0822 43.5288C27.6609 43.6391 27.256 43.803 26.8777 44.0164C26.019 44.4774 25.2822 45.1309 24.727 45.9242C24.1761 46.8089 23.773 47.7751 23.5333 48.7859C23.5333 48.9979 23.4365 49.1993 23.3935 49.3795C23.3505 49.5596 23.3182 49.708 23.2967 49.8458C23.2752 49.9836 23.2322 50.2592 23.2322 50.2592C23.6612 50.2521 24.0875 50.1916 24.5011 50.079C24.9215 49.9612 25.3232 49.7864 25.6948 49.5596C26.1537 49.2741 26.5518 48.9033 26.867 48.4679Z" fill="#082148"/>
<path d="M29.2761 48.4679C28.626 47.521 28.2301 46.427 28.1255 45.2882C28.0734 44.8699 28.0555 44.4481 28.0717 44.027C28.0717 43.7196 28.0717 43.5288 28.0717 43.5288C28.493 43.6391 28.8978 43.803 29.2761 44.0164C30.137 44.4744 30.8744 45.1285 31.4269 45.9242C31.9778 46.8089 32.3808 47.7751 32.6206 48.7859C32.6206 48.9979 32.7281 49.1993 32.7604 49.3795C32.7926 49.5596 32.8357 49.708 32.8572 49.8458C32.8874 49.9821 32.909 50.1202 32.9217 50.2592C32.4927 50.2521 32.0663 50.1916 31.6527 50.079C31.2331 49.9592 30.8316 49.7845 30.4591 49.5596C29.9981 49.2729 29.5967 48.9024 29.2761 48.4679Z" fill="#082148"/>
<path d="M44.5462 7.28037C45.2961 7.59131 45.9572 8.07901 46.4711 8.70063C46.6613 8.92651 46.8373 9.16368 46.9981 9.41077C47.1164 9.59096 47.1809 9.70754 47.1809 9.70754C46.9041 9.80531 46.6142 9.86242 46.3206 9.8771C45.6525 9.93232 44.9809 9.82687 44.3634 9.56975C43.6976 9.25791 43.0846 8.84679 42.546 8.35088L42.2341 8.05411L41.9975 7.83151C41.9247 7.76166 41.8565 7.68732 41.7932 7.60894C42.035 7.44806 42.2995 7.32306 42.5782 7.23797C42.8643 7.15066 43.1608 7.10079 43.4601 7.0896C43.8305 7.09126 44.1979 7.15579 44.5462 7.28037Z" fill="#082148"/>
<path d="M47.7944 13.1416C48.5071 13.7032 49.0654 14.4321 49.4182 15.2614C49.5042 15.4416 49.5687 15.6112 49.6333 15.7596C49.6879 15.8946 49.7346 16.0326 49.7731 16.1729C49.8483 16.4061 49.8806 16.5439 49.8806 16.5439C49.5566 16.5653 49.2311 16.5439 48.9128 16.4803C48.5848 16.4168 48.2642 16.3209 47.9557 16.1942C47.5717 16.036 47.2102 15.8293 46.8803 15.5794C46.2579 15.0507 45.7244 14.4283 45.2995 13.7352C45.1167 13.4384 44.9554 13.184 44.8586 12.9932L44.708 12.6859L44.9661 12.6223C45.1961 12.5754 45.4302 12.5505 45.6651 12.5481C45.9946 12.5406 46.3237 12.5762 46.6437 12.6541C47.0542 12.7461 47.4442 12.9113 47.7944 13.1416Z" fill="#082148"/>
<path d="M49.4503 19.6175C50.0491 20.3945 50.4209 21.3182 50.5257 22.2884C50.5257 22.5004 50.5257 22.7018 50.5902 22.882V23.3483C50.5902 23.6239 50.5902 23.7829 50.5902 23.7829L50.2998 23.6875C50.06 23.5967 49.8265 23.4904 49.6008 23.3695C49.286 23.1996 48.9904 22.997 48.719 22.7654C48.3856 22.4923 48.0925 22.1749 47.848 21.8221C47.3704 21.1152 47.0076 20.3392 46.7726 19.5221C46.7726 19.3525 46.665 19.1935 46.622 19.0452C46.579 18.8968 46.5575 18.759 46.5252 18.653L46.4392 18.3032C46.8005 18.283 47.1628 18.3151 47.5146 18.3986C47.866 18.4738 48.2035 18.6026 48.5147 18.7802C48.8756 19.0009 49.1926 19.2847 49.4503 19.6175Z" fill="#082148"/>
<path d="M48.9557 26.1677C49.2848 27.1727 49.322 28.2484 49.0632 29.2732C49.0444 29.384 49.0193 29.4937 48.988 29.6017C48.988 29.7077 48.9234 29.8137 48.8912 29.8985C48.8589 29.9833 48.7836 30.2589 48.7299 30.3966C48.6959 30.5026 48.6527 30.6054 48.6008 30.704V30.8206L48.3427 30.6298C48.1295 30.452 47.9317 30.257 47.7513 30.0469C47.1719 29.4102 46.7455 28.6531 46.5038 27.8317C46.2767 26.9492 46.1825 26.0385 46.2242 25.129C46.2242 24.9382 46.2242 24.758 46.2242 24.599C46.2242 24.44 46.2242 24.3022 46.2242 24.1856C46.2242 24.069 46.2242 23.8147 46.2242 23.8147C46.3274 23.837 46.4283 23.869 46.5253 23.9101C46.7877 23.9967 47.04 24.1104 47.2781 24.2493C47.6137 24.4398 47.9183 24.6792 48.1814 24.9594C48.3384 25.1286 48.4822 25.3093 48.6116 25.4999C48.7456 25.7123 48.8607 25.9357 48.9557 26.1677Z" fill="#082148"/>
<path d="M46.4177 32.241C46.4177 32.3788 46.4177 32.5272 46.4177 32.6756C46.4276 32.8203 46.4276 32.9654 46.4177 33.1101C46.3764 33.3984 46.308 33.6822 46.2134 33.958C46.2134 34.0958 46.1166 34.2336 46.0628 34.3608C46.0091 34.488 46.0091 34.4986 45.9875 34.5622L45.8908 34.753C45.7725 35.0073 45.6434 35.2405 45.5144 35.4631C45.2943 35.8342 45.0463 36.1885 44.7724 36.523L44.439 36.894C44.365 36.8051 44.3002 36.7092 44.2454 36.6078C44.0876 36.3505 43.9509 36.0811 43.8368 35.8023C43.6789 35.4182 43.5565 35.0209 43.4712 34.6152C43.3716 34.1269 43.3283 33.6291 43.3421 33.1313C43.4118 32.1566 43.6218 31.1966 43.9658 30.2802C44.0411 30.0894 44.0949 29.8987 44.1594 29.7397C44.2239 29.5807 44.2884 29.4429 44.3315 29.3263C44.3745 29.2097 44.4928 28.9553 44.4928 28.9553L44.7724 29.1567C45.0108 29.3361 45.2306 29.5385 45.4283 29.7609C45.5607 29.9044 45.6828 30.0566 45.794 30.2166C45.9187 30.3975 46.0266 30.589 46.1166 30.789C46.2217 31.0101 46.3045 31.2408 46.3639 31.4779C46.4039 31.7303 46.4219 31.9856 46.4177 32.241Z" fill="#082148"/>
<path d="M42.0945 37.2117C41.9076 37.8048 41.6164 38.3609 41.2342 38.8546C41.0437 39.0959 40.839 39.3259 40.6212 39.5435L40.2986 39.8509L39.9652 40.1159C39.629 40.3993 39.2692 40.6546 38.8898 40.879C38.7393 40.9744 38.6102 41.0168 38.5242 41.0698H38.3951C38.3951 41.0698 38.3951 40.9426 38.3199 40.7094C38.2633 40.3943 38.2309 40.0754 38.2231 39.7555C38.2118 39.3087 38.2406 38.8618 38.3091 38.42C38.3091 38.1869 38.3951 37.9325 38.4597 37.6781C38.5289 37.4163 38.6115 37.158 38.707 36.9044C39.1132 35.9707 39.6371 35.0911 40.2663 34.2864C40.3043 34.2525 40.3369 34.2132 40.3631 34.1698L40.4599 34.0427L40.6319 33.8201C40.7502 33.6823 40.8578 33.5657 40.933 33.4597C41.0083 33.3537 41.2126 33.1523 41.2126 33.1523C41.2964 33.2409 41.372 33.3367 41.4385 33.4385C41.6249 33.6971 41.7835 33.9742 41.9116 34.2652C42.0034 34.453 42.0789 34.648 42.1375 34.8482C42.2028 35.0702 42.2495 35.297 42.2773 35.5265C42.2994 35.7875 42.2994 36.0498 42.2773 36.3108C42.2485 36.6166 42.1872 36.9186 42.0945 37.2117Z" fill="#082148"/>
<path d="M36.4059 40.4234C36.203 40.6804 35.9762 40.9182 35.7284 41.1336C35.4695 41.3457 35.1965 41.5404 34.9111 41.7165C34.6212 41.8761 34.3233 42.0212 34.0185 42.151C33.7174 42.2676 33.4271 42.363 33.1367 42.4478C32.6644 42.572 32.1824 42.657 31.6957 42.7022C31.3301 42.7022 31.1042 42.7022 31.1042 42.7022C31.1261 42.5701 31.1549 42.4392 31.1903 42.31C31.2788 41.9814 31.3902 41.6591 31.5237 41.3455C31.6097 41.1441 31.7065 40.9428 31.814 40.7308C31.9215 40.5188 31.9215 40.5188 31.9861 40.4128L32.1796 40.0737C32.3202 39.8456 32.4746 39.6262 32.642 39.4165C32.8065 39.1832 32.9899 38.9634 33.1905 38.7594C33.9178 38.0181 34.734 37.3668 35.6209 36.8198L35.8789 36.6608L36.1155 36.5124L36.5457 36.258C36.6637 36.1844 36.7858 36.1171 36.9113 36.0566C36.9659 36.1761 37.0091 36.3003 37.0404 36.4276C37.1378 36.7491 37.2027 37.0792 37.2339 37.4133C37.2817 37.8772 37.2563 38.3456 37.1587 38.8018C37.0382 39.3924 36.7805 39.9474 36.4059 40.4234Z" fill="#082148"/>
<path d="M45.9446 6.23106C46.0595 7.05166 46.295 7.85142 46.6436 8.60522C46.7834 8.93378 46.9232 9.20937 47.0199 9.41075C47.1167 9.61213 47.1813 9.71809 47.1813 9.71809C47.4157 9.53567 47.6191 9.31741 47.7835 9.07157C48.1883 8.491 48.3817 7.79235 48.3319 7.08957C48.2507 6.18881 47.952 5.32025 47.4609 4.55641C47.3641 4.38682 47.2565 4.22786 47.1598 4.07947L46.8909 3.71908L46.6328 3.40112C46.4518 3.64073 46.3069 3.9049 46.2027 4.18544C46.0919 4.47307 46.0126 4.77152 45.9661 5.07574C45.8989 5.45748 45.8917 5.84715 45.9446 6.23106Z" fill="#082148"/>
<path d="M49.5901 12.4421C49.4719 13.3478 49.49 14.2657 49.6439 15.1661C49.6439 15.3569 49.6439 15.5476 49.7299 15.7066C49.7453 15.8494 49.7704 15.9911 49.8052 16.1306C49.8052 16.3744 49.8805 16.5121 49.8805 16.5121C50.1829 16.3884 50.4626 16.2165 50.7085 16.0034C50.9743 15.7864 51.2031 15.5287 51.386 15.2403C51.6277 14.875 51.799 14.469 51.8914 14.0426C52.0634 13.0604 52.0045 12.0524 51.7194 11.0961C51.6264 10.7363 51.5115 10.3823 51.3753 10.0362C51.2677 9.7712 51.1924 9.6228 51.1924 9.6228L50.9774 9.79239C50.8015 9.95561 50.6397 10.1329 50.4934 10.3223C50.2843 10.591 50.1075 10.8826 49.9665 11.1915C49.7838 11.5895 49.6571 12.0103 49.5901 12.4421Z" fill="#082148"/>
<path d="M51.5045 19.3948C51.1188 20.3239 50.848 21.2954 50.698 22.2883C50.698 22.5003 50.6334 22.7016 50.6012 22.8818C50.5689 23.062 50.6012 23.221 50.5259 23.3588C50.4506 23.4965 50.5259 23.7827 50.5259 23.7827H50.8162C51.0739 23.7378 51.3262 23.6668 51.569 23.5708C51.9197 23.4305 52.2462 23.2374 52.5369 22.9984C52.9148 22.6824 53.2317 22.3018 53.4724 21.8749C53.9701 20.8582 54.2134 19.7389 54.1822 18.6104C54.1822 18.3667 54.1822 18.1335 54.1822 17.9215C54.1822 17.7095 54.1822 17.5293 54.1822 17.3704C54.1822 17.2114 54.1069 16.8828 54.1069 16.8828C53.7732 17.0259 53.4618 17.215 53.1821 17.4446C52.8782 17.6722 52.6037 17.9355 52.3648 18.2289C52.0306 18.5813 51.7417 18.9728 51.5045 19.3948Z" fill="#082148"/>
<path d="M51.2033 26.7188C50.4781 27.5457 49.8471 28.4485 49.3214 29.4109L49.1601 29.7077C49.0956 29.8031 49.0525 29.8984 48.9988 29.9832C48.945 30.068 48.8267 30.3118 48.7622 30.4496C48.6977 30.5874 48.5471 30.8629 48.5471 30.8629L48.8697 30.9372C49.1485 30.9679 49.4298 30.9679 49.7085 30.9372C50.6656 30.8951 51.5764 30.5195 52.2787 29.8773C53.1829 28.9931 53.8483 27.9 54.2144 26.6976C54.3112 26.4326 54.3757 26.1782 54.4402 25.9556C54.5047 25.733 54.5477 25.5211 54.58 25.3515C54.6445 25.0017 54.666 24.8003 54.666 24.8003C54.5587 24.7905 54.4507 24.7905 54.3434 24.8003C54.0601 24.8501 53.7826 24.9282 53.5154 25.0335C53.1387 25.1847 52.7784 25.3729 52.44 25.5953C52.2328 25.7263 52.0351 25.8715 51.8485 26.0298C51.6151 26.2421 51.3993 26.4725 51.2033 26.7188Z" fill="#082148"/>
<path d="M48.5468 33.5023C48.407 33.5765 48.2779 33.6613 48.1489 33.7461C48.0099 33.8209 47.8769 33.9059 47.751 34.0004C47.4821 34.17 47.2348 34.3608 46.9874 34.541L46.6433 34.8272L46.4713 34.965L46.2992 35.1027L45.6755 35.6433C45.2776 35.9825 44.9765 36.3004 44.7291 36.5124L44.3743 36.8622L44.6646 37.0423C44.9356 37.1832 45.2202 37.2968 45.5142 37.3815C45.9426 37.5093 46.3895 37.5666 46.8369 37.5511C47.4238 37.531 48.0011 37.3978 48.536 37.159C49.7566 36.5566 50.8089 35.6687 51.6008 34.5728C51.7837 34.329 51.9342 34.0852 52.0848 33.8733C52.2353 33.6613 52.3428 33.4599 52.4289 33.2903C52.5149 33.1208 52.7085 32.7604 52.7085 32.7604C52.5962 32.7279 52.4809 32.7066 52.3644 32.6968C52.0532 32.6671 51.7399 32.6671 51.4288 32.6968L50.8051 32.7604C50.5658 32.7967 50.3289 32.8462 50.0953 32.9088C49.8392 32.9777 49.5877 33.0627 49.3425 33.1631C49.0694 33.2574 48.8035 33.3707 48.5468 33.5023Z" fill="#082148"/>
<path d="M43.8365 39.215C43.1677 39.3416 42.5098 39.5188 41.8686 39.7449C41.5675 39.8615 41.2556 39.9569 40.9652 40.0735L40.5351 40.2431L40.1264 40.3915C39.6103 40.6034 39.1586 40.773 38.8467 40.9108L38.4811 41.0698H38.3413C38.411 41.1727 38.4864 41.2718 38.5671 41.3666C38.7846 41.6118 39.026 41.8354 39.2876 42.0343C39.6723 42.3187 40.1007 42.5405 40.5566 42.6914C40.8408 42.7796 41.1323 42.8435 41.4277 42.8822C41.7852 42.9176 42.1455 42.9176 42.503 42.8822C42.8661 42.847 43.2257 42.7832 43.5784 42.6914C43.9437 42.5838 44.3027 42.4564 44.6538 42.3099C45.0087 42.1615 45.342 41.9813 45.7292 41.8117C46.1163 41.6421 46.3529 41.4302 46.6325 41.2394L46.8368 41.1016L47.0304 40.9532L47.3853 40.6776C47.6004 40.4975 47.7939 40.3385 47.9445 40.1901L48.4176 39.7237C48.3124 39.6536 48.2008 39.5933 48.0843 39.5435C47.7791 39.4073 47.4624 39.2973 47.1379 39.215C46.9187 39.1584 46.696 39.116 46.4712 39.0878C46.2152 39.0453 45.9565 39.0205 45.6969 39.0136C45.407 38.9925 45.1158 38.9925 44.8259 39.0136C44.491 39.0537 44.1601 39.1211 43.8365 39.215Z" fill="#082148"/>
<path d="M41.6539 4.57769C42.3667 5.14886 43.1423 5.63949 43.966 6.04035C44.1273 6.12514 44.2886 6.18875 44.4284 6.25234C44.5505 6.31599 44.6761 6.37262 44.8048 6.42193L45.1489 6.58091L45.0844 6.23115C45.0844 6.11457 45.0306 5.97678 44.9876 5.82839L44.8156 5.31963C44.458 4.37797 43.8664 3.53981 43.0949 2.88188C42.9848 2.79121 42.87 2.70628 42.7508 2.62748L42.396 2.39431L42.0411 2.20353C41.9228 2.13994 41.7937 2.09755 41.6754 2.04455L41.3313 1.90676L40.9872 1.81138L40.6646 1.7266L40.3527 1.67358H39.815H39.4064H39.0515L39.2558 1.97035L39.5032 2.28834C39.5892 2.40493 39.6967 2.54271 39.815 2.6805C40.3592 3.37439 40.9755 4.01024 41.6539 4.57769Z" fill="#082148"/>
<path d="M37.363 43.0836C37.0076 43.0142 36.6486 42.9646 36.2876 42.9352C35.922 42.9352 35.5563 42.861 35.2122 42.8504C34.8681 42.8398 34.5025 42.8504 34.1368 42.8504H33.1797C32.5775 42.8504 32.1044 42.8504 31.6957 42.8504H31.1042C31.1273 42.9832 31.1596 43.1142 31.201 43.2426C31.293 43.5722 31.4267 43.8891 31.5989 44.1859C31.7151 44.394 31.8481 44.5925 31.9968 44.7794C32.0721 44.8854 32.1689 44.9808 32.2549 45.0868L32.5668 45.373C32.8069 45.5322 33.0584 45.6739 33.3195 45.7969C33.6621 45.9773 34.0224 46.1229 34.3949 46.2315C34.7941 46.3559 35.2047 46.4411 35.6209 46.4858C36.0486 46.5409 36.4804 46.5587 36.9113 46.5389C37.3367 46.5321 37.7609 46.4931 38.1803 46.4223C38.5759 46.3657 38.9674 46.2842 39.3524 46.1785L39.8794 46.0301L40.3525 45.8711C40.6536 45.7651 40.9225 45.6697 41.1376 45.5744C41.5677 45.3836 41.8151 45.2458 41.8151 45.2458C41.7276 45.1451 41.6342 45.0495 41.5355 44.9596C41.2723 44.7165 40.988 44.4966 40.6859 44.3025C40.2415 44.0235 39.7738 43.7824 39.2879 43.5817C38.6658 43.3494 38.0206 43.1824 37.363 43.0836Z" fill="#082148"/>
<path d="M23.5503 28.531V26.779L29.1487 21.4626C29.6186 21.0195 29.9676 20.6302 30.1959 20.2946C30.4241 19.9589 30.5718 19.6501 30.6389 19.3682C30.7194 19.0728 30.7597 18.7976 30.7597 18.5425C30.7597 17.8981 30.5382 17.4014 30.0952 17.0523C29.6521 16.6898 29.001 16.5086 28.1418 16.5086C27.4571 16.5086 26.8328 16.6294 26.2689 16.8711C25.7185 17.1127 25.2419 17.4819 24.8391 17.9787L23.0066 16.569C23.557 15.8306 24.2954 15.2601 25.2218 14.8573C26.1615 14.4411 27.2087 14.233 28.3633 14.233C29.3836 14.233 30.2697 14.4008 31.0215 14.7365C31.7868 15.0587 32.3708 15.5218 32.7735 16.126C33.1897 16.7301 33.3978 17.4484 33.3978 18.2808C33.3978 18.7372 33.3374 19.1937 33.2166 19.6501C33.0957 20.0932 32.8675 20.5631 32.5319 21.0598C32.1962 21.5565 31.7062 22.1137 31.0618 22.7313L26.2488 27.3026L25.7051 26.3158H33.9415V28.531H23.5503Z" fill="#082148"/>
</g>
<g clip-path="url(#clip1_1067_6890)">
<path d="M76.3672 5.95537C76.2402 6.78614 75.9977 7.59571 75.6467 8.36132C75.4962 8.70049 75.3564 8.97608 75.2596 9.17746C75.2115 9.28807 75.1539 9.39443 75.0875 9.49542C74.8582 9.31077 74.6587 9.09277 74.4961 8.8489C74.0949 8.25907 73.9056 7.55385 73.9584 6.84568C74.0488 5.93377 74.3544 5.05535 74.8509 4.28072C74.9585 4.10053 75.066 3.93096 75.1628 3.79317C75.2491 3.6646 75.3424 3.54076 75.4424 3.4222L75.7005 3.10425C75.8815 3.34386 76.0264 3.60803 76.1306 3.88856C76.2424 4.17881 76.3182 4.48131 76.3565 4.78948C76.4145 5.17576 76.4181 5.56811 76.3672 5.95537Z" fill="#082148"/>
<path d="M72.732 12.2936C72.8363 13.2144 72.8146 14.1448 72.6675 15.0599C72.6675 15.2613 72.6137 15.4415 72.5815 15.6111C72.5492 15.7806 72.5277 15.9184 72.5062 16.0456L72.4202 16.4272C72.1176 16.299 71.838 16.1237 71.5921 15.9078C71.3325 15.6847 71.1046 15.428 70.9146 15.1447C70.6811 14.7689 70.5138 14.3568 70.42 13.9258C70.2516 12.9357 70.3141 11.9209 70.6028 10.9581C70.6983 10.5978 70.8168 10.2438 70.9576 9.89824C71.0652 9.63326 71.1405 9.48486 71.1405 9.48486L71.3448 9.65445C71.5206 9.81767 71.6825 9.99492 71.8287 10.1844C72.0439 10.4528 72.2212 10.7488 72.3556 11.0641C72.5365 11.4555 72.6631 11.869 72.732 12.2936Z" fill="#082148"/>
<path d="M70.8716 19.3633C71.2528 20.3086 71.5234 21.2936 71.6782 22.2992C71.6782 22.5112 71.7427 22.7232 71.775 22.9034C71.8072 23.0836 71.775 23.2426 71.8395 23.3803C71.904 23.5181 71.8932 23.8043 71.8932 23.8043C71.793 23.8121 71.6924 23.8121 71.5921 23.8043C71.3384 23.7577 71.0898 23.6867 70.8501 23.5923C70.5 23.4463 70.1738 23.2498 69.8823 23.0094C69.5013 22.6881 69.1841 22.3 68.9467 21.8647C68.4448 20.8381 68.2014 19.7074 68.2369 18.5684C68.2202 18.3355 68.2202 18.1018 68.2369 17.8689C68.2369 17.6569 68.2369 17.4661 68.2369 17.3071C68.2369 17.1481 68.3122 16.8196 68.3122 16.8196C68.6515 16.9584 68.967 17.1479 69.2478 17.3813C69.5456 17.6162 69.8161 17.8828 70.0543 18.1762C70.3764 18.5365 70.651 18.9353 70.8716 19.3633Z" fill="#082148"/>
<path d="M71.2481 26.7188C71.9832 27.5519 72.6183 28.466 73.1408 29.4427L73.3129 29.75C73.3666 29.8454 73.4204 29.9302 73.4634 30.0256C73.5064 30.121 73.6462 30.3542 73.7108 30.492L73.9258 30.9054C73.8207 30.9392 73.7127 30.964 73.6032 30.9795C73.3209 31.0102 73.036 31.0102 72.7537 30.9795C71.7976 30.933 70.8883 30.558 70.1835 29.9196C69.2831 29.0307 68.6151 27.9395 68.2371 26.7399C68.1403 26.475 68.0758 26.2206 68.0112 25.9874C67.9467 25.7542 67.9037 25.5529 67.8714 25.3833C67.8069 25.0335 67.7854 24.8215 67.7854 24.8215H68.108C68.3902 24.8808 68.6671 24.9623 68.9361 25.0653C69.3128 25.2165 69.673 25.4047 70.0114 25.6271C70.2182 25.7627 70.4157 25.9114 70.6029 26.0722C70.837 26.2684 71.053 26.4848 71.2481 26.7188Z" fill="#082148"/>
<path d="M74.0014 33.5868L74.41 33.82L74.8079 34.0743L75.5607 34.6255L75.9155 34.9117L76.0876 35.06L76.2597 35.1978L76.8834 35.7489C77.2813 36.0775 77.5931 36.3955 77.8297 36.6075L78.1954 36.9679C78.1 37.0357 77.9993 37.0959 77.8942 37.148C77.6281 37.291 77.3468 37.4047 77.0554 37.4872C76.6263 37.6112 76.1795 37.6649 75.7327 37.6462C75.1423 37.6261 74.5616 37.4929 74.0229 37.254C72.7903 36.6467 71.7271 35.7516 70.9258 34.6467C70.743 34.4029 70.5816 34.1591 70.4418 33.9471C70.302 33.7352 70.173 33.5338 70.087 33.3642C69.9042 33.025 69.8074 32.8237 69.8074 32.8237L70.1622 32.7601C70.4698 32.7304 70.7795 32.7304 71.0871 32.7601L71.7108 32.8237C71.9366 32.8237 72.1732 32.9084 72.4205 32.972C72.6679 33.0356 72.926 33.131 73.1841 33.237C73.4647 33.3341 73.7378 33.451 74.0014 33.5868Z" fill="#082148"/>
<path d="M78.7974 39.2681C79.465 39.4046 80.1224 39.5852 80.7654 39.8086C81.0772 39.9146 81.3891 40.0206 81.6795 40.1372L82.1096 40.3068L82.5075 40.4551C83.0344 40.6671 83.4861 40.8367 83.798 40.9851L84.1743 41.1441L84.3034 41.1971C84.2337 41.3 84.1583 41.3991 84.0776 41.4938C83.8656 41.7442 83.6236 41.9684 83.3571 42.1616C82.9717 42.4424 82.5434 42.6606 82.0881 42.8081C81.8052 42.9013 81.5133 42.9652 81.217 42.9989C80.8595 43.0339 80.4992 43.0339 80.1417 42.9989C79.7794 42.9584 79.4202 42.8946 79.0663 42.8081C78.701 42.7004 78.342 42.5731 77.9909 42.4266C77.636 42.2676 77.2919 42.098 76.9155 41.9178C76.5391 41.7376 76.2918 41.5362 76.0014 41.3454L75.7971 41.2077L75.6036 41.0593L75.2594 40.7837C75.0336 40.6035 74.84 40.4445 74.6895 40.2962C74.5389 40.1478 74.2163 39.8192 74.2163 39.8192C74.3236 39.7556 74.4349 39.699 74.5497 39.6496C74.8549 39.5134 75.1715 39.4034 75.496 39.3211C75.7155 39.2655 75.9381 39.223 76.1628 39.1939C76.4188 39.1519 76.6775 39.1271 76.937 39.1197C77.5529 39.0959 78.1695 39.1385 78.7759 39.2469L78.7974 39.2681Z" fill="#082148"/>
<path d="M85.3142 43.0836C85.6695 43.0142 86.0285 42.9646 86.3896 42.9352C86.7552 42.9352 87.1208 42.861 87.4649 42.8504C87.8091 42.8398 88.1747 42.8504 88.5403 42.8504H89.4974C90.0996 42.8504 90.5728 42.8504 90.9814 42.8504H91.5729C91.551 42.9825 91.5223 43.1134 91.4869 43.2426C91.3855 43.5706 91.2485 43.8869 91.0782 44.1859C90.9621 44.394 90.829 44.5925 90.6803 44.7794C90.6008 44.887 90.5146 44.9896 90.4222 45.0868C90.3234 45.1874 90.2193 45.2829 90.1104 45.373C89.8647 45.5811 89.6022 45.7689 89.3253 45.9347C88.9828 46.1151 88.6224 46.2607 88.25 46.3693C87.8542 46.4924 87.4472 46.5776 87.0348 46.6236C86.607 46.6783 86.1752 46.696 85.7443 46.6766C85.3154 46.6703 84.8875 46.6314 84.4646 46.56C84.0692 46.5024 83.6778 46.421 83.2925 46.3163L82.7655 46.1679L82.2924 46.0089C81.9912 45.9029 81.7224 45.8075 81.5181 45.7121C81.0879 45.5214 80.8298 45.3835 80.8298 45.3835C80.9196 45.2814 81.0166 45.1858 81.1202 45.0974C81.3792 44.854 81.66 44.6341 81.959 44.4403C82.4034 44.1613 82.871 43.9202 83.357 43.7195C83.9839 43.4379 84.6402 43.2246 85.3142 43.0836Z" fill="#082148"/>
<path d="M77.7651 7.00472C76.9885 7.32094 76.3046 7.82378 75.7757 8.46738C75.5806 8.69945 75.401 8.94374 75.238 9.19871L75.0444 9.49548C75.3247 9.59398 75.6183 9.65112 75.9155 9.66507C76.603 9.7189 77.2934 9.6061 77.9265 9.33651C78.5993 9.00789 79.2189 8.58285 79.7654 8.07523L80.088 7.77846C80.1848 7.68307 80.2708 7.60886 80.3353 7.53467L80.5396 7.3121C80.2985 7.15253 80.0337 7.03095 79.7546 6.95174C79.1098 6.73451 78.41 6.73451 77.7651 6.95174V7.00472Z" fill="#082148"/>
<path d="M74.5282 13.0038C73.8154 13.5678 73.2541 14.2957 72.8936 15.1236C72.8075 15.3073 72.7323 15.4769 72.6677 15.6324L72.5279 16.0457C72.4527 16.2789 72.4204 16.4273 72.4204 16.4273C72.7484 16.4413 73.077 16.4164 73.399 16.3531C73.7254 16.2918 74.0431 16.1922 74.3453 16.0563C74.7311 15.9019 75.0931 15.6949 75.4207 15.4416C76.0479 14.8984 76.5849 14.2618 77.0123 13.5549C77.2059 13.2582 77.3564 12.9932 77.464 12.8024L77.6145 12.4951L77.3564 12.4315C77.1273 12.3792 76.8926 12.3543 76.6574 12.3573C76.3271 12.348 75.9973 12.3873 75.6788 12.4739C75.2651 12.5784 74.8749 12.7581 74.5282 13.0038Z" fill="#082148"/>
<path d="M72.9797 19.5859C72.3784 20.3736 72.0066 21.3081 71.9044 22.2886C71.9044 22.5112 71.9044 22.7126 71.8506 22.8928V23.3803C71.8506 23.6453 71.8506 23.8043 71.8506 23.8043C71.9458 23.7828 72.0392 23.7544 72.1302 23.7195C72.3764 23.6315 72.614 23.5215 72.8399 23.3909C73.1532 23.2144 73.4485 23.0086 73.7218 22.7762C74.0523 22.4962 74.345 22.1756 74.5928 21.8223C75.0649 21.101 75.4272 20.3154 75.6682 19.4905C75.6682 19.3103 75.7757 19.1407 75.808 18.9924C75.8403 18.844 75.8833 18.7062 75.9155 18.6002L76.0016 18.2398C75.6399 18.2271 75.2781 18.2627 74.9262 18.3458C74.5777 18.4305 74.2416 18.5587 73.9261 18.7274C73.5631 18.9581 73.243 19.2485 72.9797 19.5859Z" fill="#082148"/>
<path d="M73.4959 26.2208C73.1674 27.2517 73.1339 28.352 73.3991 29.4005C73.3991 29.5171 73.4529 29.623 73.4744 29.729L73.5712 30.0364C73.6357 30.2272 73.6894 30.3862 73.7432 30.524C73.7756 30.6338 73.8188 30.7404 73.8723 30.8419L73.926 30.9585L74.1841 30.7677C74.3947 30.5871 74.5923 30.3923 74.7756 30.1848C75.3494 29.5379 75.7717 28.7743 76.0123 27.9484C76.2389 27.055 76.3331 26.1339 76.2919 25.2139C76.2919 25.0231 76.2919 24.8429 76.2919 24.6839C76.2919 24.5249 76.2919 24.3766 76.2919 24.26C76.2919 24.1434 76.2919 23.8784 76.2919 23.8784L75.9908 23.9738C75.7303 24.0693 75.4785 24.1863 75.238 24.3236C74.7016 24.6344 74.2482 25.0668 73.9153 25.5848C73.7536 25.782 73.613 25.9951 73.4959 26.2208Z" fill="#082148"/>
<path d="M76.1304 32.3153C76.1304 32.4637 76.1304 32.6121 76.1304 32.7499C76.1304 32.8877 76.1304 33.0466 76.1304 33.1844C76.1741 33.4767 76.2461 33.7642 76.3455 34.0429L76.4853 34.4563C76.4853 34.5199 76.539 34.5835 76.5713 34.6577L76.6681 34.8485C76.7864 35.0922 76.9154 35.336 77.0445 35.5586C77.2687 35.9296 77.5203 36.2838 77.7972 36.6185L78.1306 37.0001C78.2013 36.9089 78.266 36.8133 78.3242 36.7139C78.482 36.4565 78.6187 36.1872 78.7328 35.9084C78.8906 35.5207 79.013 35.1198 79.0985 34.7107C79.2 34.2228 79.2397 33.7244 79.2167 33.2268C79.1448 32.2445 78.9311 31.2774 78.5823 30.3545C78.507 30.1637 78.4425 29.9729 78.3779 29.814C78.3134 29.655 78.2489 29.5172 78.2059 29.4006C78.1614 29.2698 78.1075 29.1423 78.0446 29.019L77.765 29.2204C77.5291 29.4028 77.3096 29.605 77.109 29.8245C76.9768 29.9719 76.8547 30.1277 76.7434 30.2909C76.6286 30.4721 76.5244 30.6596 76.4315 30.8526C76.3245 31.0778 76.2381 31.3119 76.1734 31.5522C76.1372 31.8049 76.1228 32.0602 76.1304 32.3153Z" fill="#082148"/>
<path d="M80.5394 37.3177C80.725 37.9167 81.0202 38.4771 81.4105 38.9712C81.5947 39.2175 81.7997 39.448 82.0235 39.6601L82.3461 39.9675L82.6687 40.2431C83.03 40.5235 83.4109 40.7785 83.8086 41.0062L84.1742 41.1864L84.3033 41.2499C84.3376 41.1283 84.3627 41.0043 84.3786 40.879C84.4358 40.5675 84.4682 40.2521 84.4753 39.9357C84.487 39.4889 84.4582 39.042 84.3893 38.6002C84.3893 38.3564 84.3033 38.1021 84.2388 37.8477C84.1706 37.5843 84.0844 37.3258 83.9807 37.074C83.5793 36.1356 83.0512 35.255 82.4106 34.456L82.3138 34.3288L82.2278 34.1381C82.174 34.0533 82.1095 33.9791 82.0557 33.9049C82.002 33.8307 81.8299 33.6505 81.7546 33.5445L81.475 33.2266C81.3933 33.3205 81.3178 33.4197 81.2492 33.5233C81.0628 33.782 80.9042 34.059 80.776 34.35C80.6889 34.5397 80.6135 34.7344 80.5502 34.933C80.4901 35.1562 80.4435 35.3827 80.4104 35.6113C80.3831 35.8721 80.3831 36.1349 80.4104 36.3956C80.4201 36.7067 80.4634 37.0158 80.5394 37.3177Z" fill="#082148"/>
<path d="M79.2492 2.54257C78.4799 3.22141 77.8989 4.08227 77.5609 5.04391C77.4964 5.23469 77.4318 5.4043 77.3888 5.56328C77.3458 5.72226 77.3243 5.84946 77.3028 5.96605C77.2813 6.08263 77.249 6.3158 77.249 6.3158C77.3626 6.27586 77.4739 6.22986 77.5824 6.17801L77.9588 5.99784L78.4319 5.75405C79.2665 5.32233 80.0492 4.79972 80.7655 4.19601C81.455 3.57936 82.0817 2.89778 82.6367 2.16099L82.9593 1.74765C83.0561 1.62046 83.1314 1.51448 83.2066 1.42969L83.411 1.12231H83.0346H82.6044C82.4431 1.12231 82.2603 1.1223 82.056 1.20709C81.8333 1.24243 81.6139 1.2956 81.4 1.36607L81.0451 1.47207L80.6902 1.63104L80.3246 1.80063C80.1991 1.86499 80.077 1.93576 79.959 2.01262L79.5934 2.25641L79.2492 2.54257Z" fill="#082148"/>
<path d="M86.2714 40.4233C86.4772 40.6778 86.7038 40.9153 86.9489 41.1334C87.2097 41.3431 87.4826 41.5377 87.7662 41.7164C88.0673 41.8754 88.3576 42.0237 88.6587 42.1509C88.9598 42.2781 89.2609 42.3629 89.5405 42.4477C90.0129 42.5719 90.4949 42.6569 90.9816 42.7021C91.3579 42.7021 91.573 42.7021 91.573 42.7021C91.5511 42.57 91.5224 42.4391 91.487 42.3099C91.3984 41.9813 91.287 41.659 91.1536 41.3454C91.0681 41.1355 90.9712 40.9303 90.8633 40.7307C90.8095 40.6247 90.7557 40.5187 90.6912 40.4127C90.6267 40.3067 90.5729 40.1901 90.4976 40.0735C90.4224 39.957 90.2073 39.6284 90.046 39.4164C89.875 39.188 89.6919 38.9687 89.4975 38.7593C88.7655 38.0231 87.95 37.3723 87.0672 36.8197L86.7983 36.6607L86.5617 36.5123L86.1531 36.2685C86.035 36.1949 85.913 36.1276 85.7875 36.0671C85.7875 36.0671 85.7337 36.1943 85.6584 36.4381C85.5661 36.7608 85.5014 37.0905 85.4648 37.4238C85.4171 37.8877 85.4424 38.3561 85.5401 38.8123C85.6607 39.3957 85.9104 39.9458 86.2714 40.4233Z" fill="#082148"/>
<path d="M92.9815 48.4679C93.6316 47.521 94.0275 46.427 94.1321 45.2882C94.1815 44.8697 94.2031 44.4483 94.1967 44.027C94.1967 43.7196 94.1967 43.5288 94.1967 43.5288C93.7754 43.6391 93.3705 43.803 92.9922 44.0164C92.1335 44.4774 91.3967 45.1309 90.8415 45.9242C90.2906 46.8089 89.8876 47.7751 89.6478 48.7859C89.6478 48.9979 89.551 49.1993 89.508 49.3795C89.465 49.5596 89.4327 49.708 89.4112 49.8458C89.3897 49.9836 89.3467 50.2592 89.3467 50.2592C89.7757 50.2521 90.2021 50.1916 90.6156 50.079C91.036 49.9612 91.4377 49.7864 91.8093 49.5596C92.2682 49.2741 92.6663 48.9033 92.9815 48.4679Z" fill="#082148"/>
<path d="M95.3906 48.4679C94.7405 47.521 94.3446 46.427 94.24 45.2882C94.1879 44.8699 94.17 44.4481 94.1862 44.027C94.1862 43.7196 94.1862 43.5288 94.1862 43.5288C94.6075 43.6391 95.0123 43.803 95.3906 44.0164C96.2515 44.4744 96.9889 45.1285 97.5414 45.9242C98.0923 46.8089 98.4953 47.7751 98.7351 48.7859C98.7351 48.9979 98.8426 49.1993 98.8749 49.3795C98.9071 49.5596 98.9502 49.708 98.9717 49.8458C99.0019 49.9821 99.0235 50.1202 99.0362 50.2592C98.6072 50.2521 98.1808 50.1916 97.7672 50.079C97.3476 49.9592 96.9461 49.7845 96.5736 49.5596C96.1126 49.2729 95.7112 48.9024 95.3906 48.4679Z" fill="#082148"/>
<path d="M110.661 7.28037C111.411 7.59131 112.072 8.07901 112.586 8.70063C112.776 8.92651 112.952 9.16368 113.113 9.41077C113.231 9.59096 113.295 9.70754 113.295 9.70754C113.019 9.80531 112.729 9.86242 112.435 9.8771C111.767 9.93232 111.095 9.82687 110.478 9.56975C109.812 9.25791 109.199 8.84679 108.66 8.35088L108.349 8.05411L108.112 7.83151C108.039 7.76166 107.971 7.68732 107.908 7.60894C108.15 7.44806 108.414 7.32306 108.693 7.23797C108.979 7.15066 109.275 7.10079 109.575 7.0896C109.945 7.09126 110.312 7.15579 110.661 7.28037Z" fill="#082148"/>
<path d="M113.909 13.1416C114.622 13.7032 115.18 14.4321 115.533 15.2614C115.619 15.4416 115.683 15.6112 115.748 15.7596C115.802 15.8946 115.849 16.0326 115.888 16.1729C115.963 16.4061 115.995 16.5439 115.995 16.5439C115.671 16.5653 115.346 16.5439 115.027 16.4803C114.699 16.4168 114.379 16.3209 114.07 16.1942C113.686 16.036 113.325 15.8293 112.995 15.5794C112.372 15.0507 111.839 14.4283 111.414 13.7352C111.231 13.4384 111.07 13.184 110.973 12.9932L110.823 12.6859L111.081 12.6223C111.311 12.5754 111.545 12.5505 111.78 12.5481C112.109 12.5406 112.438 12.5762 112.758 12.6541C113.169 12.7461 113.559 12.9113 113.909 13.1416Z" fill="#082148"/>
<path d="M115.565 19.6175C116.164 20.3945 116.535 21.3182 116.64 22.2884C116.64 22.5004 116.64 22.7018 116.705 22.882V23.3483C116.705 23.6239 116.705 23.7829 116.705 23.7829L116.414 23.6875C116.175 23.5967 115.941 23.4904 115.715 23.3695C115.4 23.1996 115.105 22.997 114.834 22.7654C114.5 22.4923 114.207 22.1749 113.962 21.8221C113.485 21.1152 113.122 20.3392 112.887 19.5221C112.887 19.3525 112.78 19.1935 112.737 19.0452C112.694 18.8968 112.672 18.759 112.64 18.653L112.554 18.3032C112.915 18.283 113.277 18.3151 113.629 18.3986C113.981 18.4738 114.318 18.6026 114.629 18.7802C114.99 19.0009 115.307 19.2847 115.565 19.6175Z" fill="#082148"/>
<path d="M115.07 26.1677C115.399 27.1727 115.437 28.2484 115.178 29.2732C115.159 29.384 115.134 29.4937 115.102 29.6017C115.102 29.7077 115.038 29.8137 115.006 29.8985C114.973 29.9833 114.898 30.2589 114.844 30.3966C114.81 30.5026 114.767 30.6054 114.715 30.704V30.8206L114.457 30.6298C114.244 30.452 114.046 30.257 113.866 30.0469C113.286 29.4102 112.86 28.6531 112.618 27.8317C112.391 26.9492 112.297 26.0385 112.339 25.129C112.339 24.9382 112.339 24.758 112.339 24.599C112.339 24.44 112.339 24.3022 112.339 24.1856C112.339 24.069 112.339 23.8147 112.339 23.8147C112.442 23.837 112.543 23.869 112.64 23.9101C112.902 23.9967 113.155 24.1104 113.393 24.2493C113.728 24.4398 114.033 24.6792 114.296 24.9594C114.453 25.1286 114.597 25.3093 114.726 25.4999C114.86 25.7123 114.975 25.9357 115.07 26.1677Z" fill="#082148"/>
<path d="M112.532 32.241C112.532 32.3788 112.532 32.5272 112.532 32.6756C112.542 32.8203 112.542 32.9654 112.532 33.1101C112.491 33.3984 112.423 33.6822 112.328 33.958C112.328 34.0958 112.231 34.2336 112.177 34.3608C112.124 34.488 112.124 34.4986 112.102 34.5622L112.005 34.753C111.887 35.0073 111.758 35.2405 111.629 35.4631C111.409 35.8342 111.161 36.1885 110.887 36.523L110.553 36.894C110.48 36.8051 110.415 36.7092 110.36 36.6078C110.202 36.3505 110.065 36.0811 109.951 35.8023C109.793 35.4182 109.671 35.0209 109.586 34.6152C109.486 34.1269 109.443 33.6291 109.457 33.1313C109.526 32.1566 109.736 31.1966 110.08 30.2802C110.156 30.0894 110.209 29.8987 110.274 29.7397C110.338 29.5807 110.403 29.4429 110.446 29.3263C110.489 29.2097 110.607 28.9553 110.607 28.9553L110.887 29.1567C111.125 29.3361 111.345 29.5385 111.543 29.7609C111.675 29.9044 111.797 30.0566 111.908 30.2166C112.033 30.3975 112.141 30.589 112.231 30.789C112.336 31.0101 112.419 31.2408 112.478 31.4779C112.518 31.7303 112.536 31.9856 112.532 32.241Z" fill="#082148"/>
<path d="M108.209 37.2117C108.022 37.8048 107.731 38.3609 107.349 38.8546C107.158 39.0959 106.954 39.3259 106.736 39.5435L106.413 39.8509L106.08 40.1159C105.743 40.3993 105.384 40.6546 105.004 40.879C104.854 40.9744 104.725 41.0168 104.639 41.0698H104.51C104.51 41.0698 104.51 40.9426 104.434 40.7094C104.378 40.3943 104.345 40.0754 104.338 39.7555C104.326 39.3087 104.355 38.8618 104.424 38.42C104.424 38.1869 104.51 37.9325 104.574 37.6781C104.643 37.4163 104.726 37.158 104.822 36.9044C105.228 35.9707 105.752 35.0911 106.381 34.2864C106.419 34.2525 106.451 34.2132 106.478 34.1698L106.574 34.0427L106.746 33.8201C106.865 33.6823 106.972 33.5657 107.048 33.4597C107.123 33.3537 107.327 33.1523 107.327 33.1523C107.411 33.2409 107.486 33.3367 107.553 33.4385C107.739 33.6971 107.898 33.9742 108.026 34.2652C108.118 34.453 108.193 34.648 108.252 34.8482C108.317 35.0702 108.364 35.297 108.392 35.5265C108.414 35.7875 108.414 36.0498 108.392 36.3108C108.363 36.6166 108.302 36.9186 108.209 37.2117Z" fill="#082148"/>
<path d="M102.52 40.4234C102.318 40.6804 102.091 40.9182 101.843 41.1336C101.584 41.3457 101.311 41.5404 101.026 41.7165C100.736 41.8761 100.438 42.0212 100.133 42.151C99.8319 42.2676 99.5416 42.363 99.2512 42.4478C98.7789 42.572 98.2969 42.657 97.8102 42.7022C97.4446 42.7022 97.2188 42.7022 97.2188 42.7022C97.2406 42.5701 97.2694 42.4392 97.3048 42.31C97.3933 41.9814 97.5047 41.6591 97.6382 41.3455C97.7242 41.1441 97.821 40.9428 97.9285 40.7308C98.036 40.5188 98.036 40.5188 98.1006 40.4128L98.2941 40.0737C98.4347 39.8456 98.5891 39.6262 98.7565 39.4165C98.921 39.1832 99.1044 38.9634 99.305 38.7594C100.032 38.0181 100.848 37.3668 101.735 36.8198L101.993 36.6608L102.23 36.5124L102.66 36.258C102.778 36.1844 102.9 36.1171 103.026 36.0566C103.08 36.1761 103.124 36.3003 103.155 36.4276C103.252 36.7491 103.317 37.0792 103.348 37.4133C103.396 37.8772 103.371 38.3456 103.273 38.8018C103.153 39.3924 102.895 39.9474 102.52 40.4234Z" fill="#082148"/>
<path d="M112.059 6.23106C112.174 7.05166 112.41 7.85142 112.758 8.60522C112.898 8.93378 113.038 9.20937 113.134 9.41075C113.231 9.61213 113.296 9.71809 113.296 9.71809C113.53 9.53567 113.734 9.31741 113.898 9.07157C114.303 8.491 114.496 7.79235 114.446 7.08957C114.365 6.18881 114.067 5.32025 113.575 4.55641C113.479 4.38682 113.371 4.22786 113.274 4.07947L113.005 3.71908L112.747 3.40112C112.566 3.64073 112.421 3.9049 112.317 4.18544C112.206 4.47307 112.127 4.77152 112.081 5.07574C112.013 5.45748 112.006 5.84715 112.059 6.23106Z" fill="#082148"/>
<path d="M115.705 12.4421C115.586 13.3478 115.605 14.2657 115.758 15.1661C115.758 15.3569 115.758 15.5476 115.844 15.7066C115.86 15.8494 115.885 15.9911 115.92 16.1306C115.92 16.3744 115.995 16.5121 115.995 16.5121C116.297 16.3884 116.577 16.2165 116.823 16.0034C117.089 15.7864 117.318 15.5287 117.501 15.2403C117.742 14.875 117.914 14.469 118.006 14.0426C118.178 13.0604 118.119 12.0524 117.834 11.0961C117.741 10.7363 117.626 10.3823 117.49 10.0362C117.382 9.7712 117.307 9.6228 117.307 9.6228L117.092 9.79239C116.916 9.95561 116.754 10.1329 116.608 10.3223C116.399 10.591 116.222 10.8826 116.081 11.1915C115.898 11.5895 115.772 12.0103 115.705 12.4421Z" fill="#082148"/>
<path d="M117.619 19.3948C117.233 20.3239 116.963 21.2954 116.812 22.2883C116.812 22.5003 116.748 22.7016 116.716 22.8818C116.683 23.062 116.716 23.221 116.64 23.3588C116.565 23.4965 116.64 23.7827 116.64 23.7827H116.931C117.188 23.7378 117.441 23.6668 117.684 23.5708C118.034 23.4305 118.361 23.2374 118.651 22.9984C119.029 22.6824 119.346 22.3018 119.587 21.8749C120.085 20.8582 120.328 19.7389 120.297 18.6104C120.297 18.3667 120.297 18.1335 120.297 17.9215C120.297 17.7095 120.297 17.5293 120.297 17.3704C120.297 17.2114 120.221 16.8828 120.221 16.8828C119.888 17.0259 119.576 17.215 119.297 17.4446C118.993 17.6722 118.718 17.9355 118.479 18.2289C118.145 18.5813 117.856 18.9728 117.619 19.3948Z" fill="#082148"/>
<path d="M117.318 26.7188C116.593 27.5457 115.962 28.4485 115.436 29.4109L115.275 29.7077C115.21 29.8031 115.167 29.8984 115.113 29.9832C115.06 30.068 114.941 30.3118 114.877 30.4496C114.812 30.5874 114.662 30.8629 114.662 30.8629L114.984 30.9372C115.263 30.9679 115.544 30.9679 115.823 30.9372C116.78 30.8951 117.691 30.5195 118.393 29.8773C119.297 28.9931 119.963 27.9 120.329 26.6976C120.426 26.4326 120.49 26.1782 120.555 25.9556C120.619 25.733 120.662 25.5211 120.695 25.3515C120.759 25.0017 120.781 24.8003 120.781 24.8003C120.673 24.7905 120.565 24.7905 120.458 24.8003C120.175 24.8501 119.897 24.9282 119.63 25.0335C119.253 25.1847 118.893 25.3729 118.554 25.5953C118.347 25.7263 118.15 25.8715 117.963 26.0298C117.73 26.2421 117.514 26.4725 117.318 26.7188Z" fill="#082148"/>
<path d="M114.661 33.5023C114.521 33.5765 114.392 33.6613 114.263 33.7461C114.124 33.8209 113.991 33.9059 113.865 34.0004C113.597 34.17 113.349 34.3608 113.102 34.541L112.758 34.8272L112.586 34.965L112.414 35.1027L111.79 35.6433C111.392 35.9825 111.091 36.3004 110.844 36.5124L110.489 36.8622L110.779 37.0423C111.05 37.1832 111.335 37.2968 111.629 37.3815C112.057 37.5093 112.504 37.5666 112.951 37.5511C113.538 37.531 114.116 37.3978 114.651 37.159C115.871 36.5566 116.923 35.6687 117.715 34.5728C117.898 34.329 118.049 34.0852 118.199 33.8733C118.35 33.6613 118.457 33.4599 118.543 33.2903C118.629 33.1208 118.823 32.7604 118.823 32.7604C118.711 32.7279 118.595 32.7066 118.479 32.6968C118.168 32.6671 117.854 32.6671 117.543 32.6968L116.92 32.7604C116.68 32.7967 116.443 32.8462 116.21 32.9088C115.954 32.9777 115.702 33.0627 115.457 33.1631C115.184 33.2574 114.918 33.3707 114.661 33.5023Z" fill="#082148"/>
<path d="M109.951 39.215C109.282 39.3416 108.624 39.5188 107.983 39.7449C107.682 39.8615 107.37 39.9569 107.08 40.0735L106.65 40.2431L106.241 40.3915C105.725 40.6034 105.273 40.773 104.961 40.9108L104.596 41.0698H104.456C104.526 41.1727 104.601 41.2718 104.682 41.3666C104.899 41.6118 105.14 41.8354 105.402 42.0343C105.787 42.3187 106.215 42.5405 106.671 42.6914C106.955 42.7796 107.247 42.8435 107.542 42.8822C107.9 42.9176 108.26 42.9176 108.618 42.8822C108.981 42.847 109.34 42.7832 109.693 42.6914C110.058 42.5838 110.417 42.4564 110.768 42.3099C111.123 42.1615 111.457 41.9813 111.844 41.8117C112.231 41.6421 112.467 41.4302 112.747 41.2394L112.951 41.1016L113.145 40.9532L113.5 40.6776C113.715 40.4975 113.908 40.3385 114.059 40.1901L114.532 39.7237C114.427 39.6536 114.315 39.5933 114.199 39.5435C113.894 39.4073 113.577 39.2973 113.252 39.215C113.033 39.1584 112.811 39.116 112.586 39.0878C112.33 39.0453 112.071 39.0205 111.811 39.0136C111.521 38.9925 111.23 38.9925 110.94 39.0136C110.606 39.0537 110.275 39.1211 109.951 39.215Z" fill="#082148"/>
<path d="M107.768 4.57769C108.481 5.14886 109.257 5.63949 110.081 6.04035C110.242 6.12514 110.403 6.18875 110.543 6.25234C110.665 6.31599 110.791 6.37262 110.919 6.42193L111.263 6.58091L111.199 6.23115C111.199 6.11457 111.145 5.97678 111.102 5.82839L110.93 5.31963C110.572 4.37797 109.981 3.53981 109.209 2.88188C109.099 2.79121 108.984 2.70628 108.865 2.62748L108.51 2.39431L108.156 2.20353C108.037 2.13994 107.908 2.09755 107.79 2.04455L107.446 1.90676L107.102 1.81138L106.779 1.7266L106.467 1.67358H105.93H105.521H105.166L105.37 1.97035L105.618 2.28834C105.704 2.40493 105.811 2.54271 105.93 2.6805C106.474 3.37439 107.09 4.01024 107.768 4.57769Z" fill="#082148"/>
<path d="M103.477 43.0836C103.122 43.0142 102.763 42.9646 102.402 42.9352C102.036 42.9352 101.671 42.861 101.327 42.8504C100.983 42.8398 100.617 42.8504 100.251 42.8504H99.2942C98.692 42.8504 98.2189 42.8504 97.8102 42.8504H97.2188C97.2418 42.9832 97.2741 43.1142 97.3155 43.2426C97.4075 43.5722 97.5412 43.8891 97.7134 44.1859C97.8296 44.394 97.9626 44.5925 98.1113 44.7794C98.1866 44.8854 98.2834 44.9808 98.3694 45.0868L98.6813 45.373C98.9214 45.5322 99.1729 45.6739 99.434 45.7969C99.7766 45.9773 100.137 46.1229 100.509 46.2315C100.909 46.3559 101.319 46.4411 101.735 46.4858C102.163 46.5409 102.595 46.5587 103.026 46.5389C103.451 46.5321 103.875 46.4931 104.295 46.4223C104.69 46.3657 105.082 46.2842 105.467 46.1785L105.994 46.0301L106.467 45.8711C106.768 45.7651 107.037 45.6697 107.252 45.5744C107.682 45.3836 107.93 45.2458 107.93 45.2458C107.842 45.1451 107.749 45.0495 107.65 44.9596C107.387 44.7165 107.103 44.4966 106.8 44.3025C106.356 44.0235 105.888 43.7824 105.402 43.5817C104.78 43.3494 104.135 43.1824 103.477 43.0836Z" fill="#082148"/>
<path d="M88.6712 25.3291V23.5166L95.6188 14.4344H98.418L91.5711 23.5166L90.2621 23.1139H101.439V25.3291H88.6712ZM96.4042 28.531V25.3291L96.4848 23.1139V20.2744H98.9416V28.531H96.4042Z" fill="#082148"/>
</g>
<defs>
<clipPath id="clip0_1067_6890">
<rect width="55.1146" height="50.875" fill="white" transform="translate(0.611084 0.0625)"/>
</clipPath>
<clipPath id="clip1_1067_6890">
<rect width="55.1146" height="50.875" fill="white" transform="translate(66.7256 0.0625)"/>
</clipPath>
</defs>
</svg>
