<svg width="38" height="38" viewBox="0 0 38 38" fill="none" xmlns="http://www.w3.org/2000/svg">
<path d="M34.0391 3.97032C30.4542 0.399 25.2991 0 18.9999 0C12.6926 0 7.53005 0.40375 3.94651 3.98457C0.363653 7.56404 -6.10352e-05 12.7185 -6.10352e-05 19.0183C-6.10352e-05 25.3195 0.363653 30.4753 3.94787 34.0561C7.5314 37.6376 12.6933 38 18.9999 38C25.3066 38 30.4678 37.6376 34.0513 34.0561C37.6355 30.4746 37.9999 25.3195 37.9999 19.0183C37.9999 12.7103 37.6315 7.55046 34.0391 3.97032Z" fill="#FF6700"/>
<path d="M29.7927 11.9484H26.8032C26.6752 11.9484 26.5716 12.0502 26.5716 12.1756V25.8162C26.5716 25.9405 26.6752 26.0424 26.8032 26.0424H29.7927C29.9196 26.0424 30.0247 25.9405 30.0247 25.8162V12.1756C30.0247 12.0502 29.9196 11.9484 29.7927 11.9484Z" fill="white"/>
<path d="M19.5854 11.9484H8.19823C8.07023 11.9484 7.96732 12.0502 7.96732 12.1756V25.8162C7.96732 25.9405 8.07023 26.0424 8.19823 26.0424H11.1884C11.3157 26.0424 11.4211 25.9405 11.4211 25.8162V15.1104C11.4211 14.9867 11.524 14.8842 11.652 14.8842H18.0931C19.9044 14.8842 20.4185 16.2715 20.4185 17.1665V25.8162C20.4185 25.9405 20.5225 26.0424 20.6505 26.0424H23.6389C23.7662 26.0424 23.8705 25.9405 23.8705 25.8162V16.1395C23.8705 15.3413 23.7745 14.1936 22.7447 13.1833C21.6673 12.1287 20.6844 11.9484 19.5854 11.9484Z" fill="white"/>
<path d="M17.4909 17.3814H14.3517C14.2237 17.3814 14.1186 17.4833 14.1186 17.608V25.8173C14.1186 25.9413 14.2237 26.0431 14.3517 26.0431H17.4909C17.6178 26.0431 17.7218 25.9413 17.7218 25.8173V17.608C17.7218 17.4833 17.6178 17.3814 17.4909 17.3814Z" fill="white"/>
</svg>
